G04 #@! TF.GenerationSoftware,KiCad,Pcbnew,5.99.0-unknown-eb819a3b25~139~ubuntu20.04.1*
G04 #@! TF.CreationDate,2021-10-10T12:59:27-07:00*
G04 #@! TF.ProjectId,Huvud,48757675-642e-46b6-9963-61645f706362,rev?*
G04 #@! TF.SameCoordinates,PXad91980PY876bf80*
G04 #@! TF.FileFunction,Legend,Bot*
G04 #@! TF.FilePolarity,Positive*
%FSLAX46Y46*%
G04 Gerber Fmt 4.6, Leading zero omitted, Abs format (unit mm)*
G04 Created by KiCad (PCBNEW 5.99.0-unknown-eb819a3b25~139~ubuntu20.04.1) date 2021-10-10 12:59:27*
%MOMM*%
%LPD*%
G01*
G04 APERTURE LIST*
G04 Aperture macros list*
%AMRoundRect*
0 Rectangle with rounded corners*
0 $1 Rounding radius*
0 $2 $3 $4 $5 $6 $7 $8 $9 X,Y pos of 4 corners*
0 Add a 4 corners polygon primitive as box body*
4,1,4,$2,$3,$4,$5,$6,$7,$8,$9,$2,$3,0*
0 Add four circle primitives for the rounded corners*
1,1,$1+$1,$2,$3*
1,1,$1+$1,$4,$5*
1,1,$1+$1,$6,$7*
1,1,$1+$1,$8,$9*
0 Add four rect primitives between the rounded corners*
20,1,$1+$1,$2,$3,$4,$5,0*
20,1,$1+$1,$4,$5,$6,$7,0*
20,1,$1+$1,$6,$7,$8,$9,0*
20,1,$1+$1,$8,$9,$2,$3,0*%
G04 Aperture macros list end*
%ADD10C,0.130000*%
%ADD11C,0.150000*%
%ADD12C,0.300000*%
%ADD13C,0.010000*%
%ADD14C,0.100000*%
%ADD15RoundRect,0.225000X0.475000X-0.225000X0.475000X0.225000X-0.475000X0.225000X-0.475000X-0.225000X0*%
%ADD16O,1.400000X0.900000*%
%ADD17RoundRect,0.225000X-0.475000X0.225000X-0.475000X-0.225000X0.475000X-0.225000X0.475000X0.225000X0*%
%ADD18C,0.800000*%
%ADD19C,6.400000*%
%ADD20R,1.000000X1.000000*%
%ADD21O,1.000000X1.000000*%
%ADD22C,3.000000*%
%ADD23RoundRect,0.250001X-0.499999X-0.499999X0.499999X-0.499999X0.499999X0.499999X-0.499999X0.499999X0*%
%ADD24C,1.500000*%
%ADD25RoundRect,0.250000X0.725000X-0.600000X0.725000X0.600000X-0.725000X0.600000X-0.725000X-0.600000X0*%
%ADD26O,1.950000X1.700000*%
G04 APERTURE END LIST*
D10*
X2124500Y30381715D02*
X2157833Y30353143D01*
X2257833Y30324572D01*
X2324500Y30324572D01*
X2424500Y30353143D01*
X2491166Y30410286D01*
X2524500Y30467429D01*
X2557833Y30581715D01*
X2557833Y30667429D01*
X2524500Y30781715D01*
X2491166Y30838858D01*
X2424500Y30896000D01*
X2324500Y30924572D01*
X2257833Y30924572D01*
X2157833Y30896000D01*
X2124500Y30867429D01*
X1491166Y30324572D02*
X1824500Y30324572D01*
X1824500Y30924572D01*
X1257833Y30324572D02*
X1257833Y30924572D01*
X857833Y30324572D02*
X1157833Y30667429D01*
X857833Y30924572D02*
X1257833Y30581715D01*
X2324500Y29930000D02*
X2391166Y29958572D01*
X2491166Y29958572D01*
X2591166Y29930000D01*
X2657833Y29872858D01*
X2691166Y29815715D01*
X2724500Y29701429D01*
X2724500Y29615715D01*
X2691166Y29501429D01*
X2657833Y29444286D01*
X2591166Y29387143D01*
X2491166Y29358572D01*
X2424500Y29358572D01*
X2324500Y29387143D01*
X2291166Y29415715D01*
X2291166Y29615715D01*
X2424500Y29615715D01*
X1991166Y29358572D02*
X1991166Y29958572D01*
X1591166Y29358572D01*
X1591166Y29958572D01*
X1257833Y29358572D02*
X1257833Y29958572D01*
X1091166Y29958572D01*
X991166Y29930000D01*
X924500Y29872858D01*
X891166Y29815715D01*
X857833Y29701429D01*
X857833Y29615715D01*
X891166Y29501429D01*
X924500Y29444286D01*
X991166Y29387143D01*
X1091166Y29358572D01*
X1257833Y29358572D01*
X2291166Y28992572D02*
X1857833Y28992572D01*
X2091166Y28764000D01*
X1991166Y28764000D01*
X1924500Y28735429D01*
X1891166Y28706858D01*
X1857833Y28649715D01*
X1857833Y28506858D01*
X1891166Y28449715D01*
X1924500Y28421143D01*
X1991166Y28392572D01*
X2191166Y28392572D01*
X2257833Y28421143D01*
X2291166Y28449715D01*
X1557833Y28449715D02*
X1524500Y28421143D01*
X1557833Y28392572D01*
X1591166Y28421143D01*
X1557833Y28449715D01*
X1557833Y28392572D01*
X1291166Y28992572D02*
X857833Y28992572D01*
X1091166Y28764000D01*
X991166Y28764000D01*
X924500Y28735429D01*
X891166Y28706858D01*
X857833Y28649715D01*
X857833Y28506858D01*
X891166Y28449715D01*
X924500Y28421143D01*
X991166Y28392572D01*
X1191166Y28392572D01*
X1257833Y28421143D01*
X1291166Y28449715D01*
X3764500Y30304572D02*
X3764500Y30904572D01*
X3297833Y30904572D02*
X3164500Y30904572D01*
X3097833Y30876000D01*
X3031166Y30818858D01*
X2997833Y30704572D01*
X2997833Y30504572D01*
X3031166Y30390286D01*
X3097833Y30333143D01*
X3164500Y30304572D01*
X3297833Y30304572D01*
X3364500Y30333143D01*
X3431166Y30390286D01*
X3464500Y30504572D01*
X3464500Y30704572D01*
X3431166Y30818858D01*
X3364500Y30876000D01*
X3297833Y30904572D01*
X4197833Y29338572D02*
X4431166Y29624286D01*
X4597833Y29338572D02*
X4597833Y29938572D01*
X4331166Y29938572D01*
X4264500Y29910000D01*
X4231166Y29881429D01*
X4197833Y29824286D01*
X4197833Y29738572D01*
X4231166Y29681429D01*
X4264500Y29652858D01*
X4331166Y29624286D01*
X4597833Y29624286D01*
X3931166Y29367143D02*
X3831166Y29338572D01*
X3664500Y29338572D01*
X3597833Y29367143D01*
X3564500Y29395715D01*
X3531166Y29452858D01*
X3531166Y29510000D01*
X3564500Y29567143D01*
X3597833Y29595715D01*
X3664500Y29624286D01*
X3797833Y29652858D01*
X3864500Y29681429D01*
X3897833Y29710000D01*
X3931166Y29767143D01*
X3931166Y29824286D01*
X3897833Y29881429D01*
X3864500Y29910000D01*
X3797833Y29938572D01*
X3631166Y29938572D01*
X3531166Y29910000D01*
X3331166Y29938572D02*
X2931166Y29938572D01*
X3131166Y29338572D02*
X3131166Y29938572D01*
X3931166Y28772572D02*
X3931166Y28372572D01*
X3931166Y28715429D02*
X3897833Y28744000D01*
X3831166Y28772572D01*
X3731166Y28772572D01*
X3664500Y28744000D01*
X3631166Y28686858D01*
X3631166Y28372572D01*
X2997833Y28401143D02*
X3064500Y28372572D01*
X3197833Y28372572D01*
X3264500Y28401143D01*
X3297833Y28429715D01*
X3331166Y28486858D01*
X3331166Y28658286D01*
X3297833Y28715429D01*
X3264500Y28744000D01*
X3197833Y28772572D01*
X3064500Y28772572D01*
X2997833Y28744000D01*
D11*
X4802380Y13708096D02*
X5183333Y13708096D01*
X5221428Y13327143D01*
X5183333Y13365239D01*
X5107142Y13403334D01*
X4916666Y13403334D01*
X4840476Y13365239D01*
X4802380Y13327143D01*
X4764285Y13250953D01*
X4764285Y13060477D01*
X4802380Y12984286D01*
X4840476Y12946191D01*
X4916666Y12908096D01*
X5107142Y12908096D01*
X5183333Y12946191D01*
X5221428Y12984286D01*
X4535714Y13708096D02*
X4269047Y12908096D01*
X4002380Y13708096D01*
X5209523Y14246191D02*
X5095238Y14208096D01*
X4904761Y14208096D01*
X4828571Y14246191D01*
X4790476Y14284286D01*
X4752380Y14360477D01*
X4752380Y14436667D01*
X4790476Y14512858D01*
X4828571Y14550953D01*
X4904761Y14589048D01*
X5057142Y14627143D01*
X5133333Y14665239D01*
X5171428Y14703334D01*
X5209523Y14779524D01*
X5209523Y14855715D01*
X5171428Y14931905D01*
X5133333Y14970000D01*
X5057142Y15008096D01*
X4866666Y15008096D01*
X4752380Y14970000D01*
X3990476Y14208096D02*
X4447619Y14208096D01*
X4219047Y14208096D02*
X4219047Y15008096D01*
X4295238Y14893810D01*
X4371428Y14817620D01*
X4447619Y14779524D01*
X14180952Y35947620D02*
X14180952Y36947620D01*
X13942857Y36947620D01*
X13800000Y36900000D01*
X13704761Y36804762D01*
X13657142Y36709524D01*
X13609523Y36519048D01*
X13609523Y36376191D01*
X13657142Y36185715D01*
X13704761Y36090477D01*
X13800000Y35995239D01*
X13942857Y35947620D01*
X14180952Y35947620D01*
X13180952Y36328572D02*
X12419047Y36328572D01*
X5249523Y16876191D02*
X5135238Y16838096D01*
X4944761Y16838096D01*
X4868571Y16876191D01*
X4830476Y16914286D01*
X4792380Y16990477D01*
X4792380Y17066667D01*
X4830476Y17142858D01*
X4868571Y17180953D01*
X4944761Y17219048D01*
X5097142Y17257143D01*
X5173333Y17295239D01*
X5211428Y17333334D01*
X5249523Y17409524D01*
X5249523Y17485715D01*
X5211428Y17561905D01*
X5173333Y17600000D01*
X5097142Y17638096D01*
X4906666Y17638096D01*
X4792380Y17600000D01*
X4525714Y17638096D02*
X4030476Y17638096D01*
X4297142Y17333334D01*
X4182857Y17333334D01*
X4106666Y17295239D01*
X4068571Y17257143D01*
X4030476Y17180953D01*
X4030476Y16990477D01*
X4068571Y16914286D01*
X4106666Y16876191D01*
X4182857Y16838096D01*
X4411428Y16838096D01*
X4487619Y16876191D01*
X4525714Y16914286D01*
X17295238Y6597620D02*
X17104761Y6597620D01*
X17009523Y6550000D01*
X16914285Y6454762D01*
X16866666Y6264286D01*
X16866666Y5930953D01*
X16914285Y5740477D01*
X17009523Y5645239D01*
X17104761Y5597620D01*
X17295238Y5597620D01*
X17390476Y5645239D01*
X17485714Y5740477D01*
X17533333Y5930953D01*
X17533333Y6264286D01*
X17485714Y6454762D01*
X17390476Y6550000D01*
X17295238Y6597620D01*
X16009523Y5645239D02*
X16104761Y5597620D01*
X16295238Y5597620D01*
X16390476Y5645239D01*
X16438095Y5692858D01*
X16485714Y5788096D01*
X16485714Y6073810D01*
X16438095Y6169048D01*
X16390476Y6216667D01*
X16295238Y6264286D01*
X16104761Y6264286D01*
X16009523Y6216667D01*
X15723809Y6264286D02*
X15342857Y6264286D01*
X15580952Y6597620D02*
X15580952Y5740477D01*
X15533333Y5645239D01*
X15438095Y5597620D01*
X15342857Y5597620D01*
X14295238Y6502381D02*
X14247619Y6550000D01*
X14152380Y6597620D01*
X13914285Y6597620D01*
X13819047Y6550000D01*
X13771428Y6502381D01*
X13723809Y6407143D01*
X13723809Y6311905D01*
X13771428Y6169048D01*
X14342857Y5597620D01*
X13723809Y5597620D01*
X13104761Y6597620D02*
X13009523Y6597620D01*
X12914285Y6550000D01*
X12866666Y6502381D01*
X12819047Y6407143D01*
X12771428Y6216667D01*
X12771428Y5978572D01*
X12819047Y5788096D01*
X12866666Y5692858D01*
X12914285Y5645239D01*
X13009523Y5597620D01*
X13104761Y5597620D01*
X13200000Y5645239D01*
X13247619Y5692858D01*
X13295238Y5788096D01*
X13342857Y5978572D01*
X13342857Y6216667D01*
X13295238Y6407143D01*
X13247619Y6502381D01*
X13200000Y6550000D01*
X13104761Y6597620D01*
X12390476Y6502381D02*
X12342857Y6550000D01*
X12247619Y6597620D01*
X12009523Y6597620D01*
X11914285Y6550000D01*
X11866666Y6502381D01*
X11819047Y6407143D01*
X11819047Y6311905D01*
X11866666Y6169048D01*
X12438095Y5597620D01*
X11819047Y5597620D01*
X10866666Y5597620D02*
X11438095Y5597620D01*
X11152380Y5597620D02*
X11152380Y6597620D01*
X11247619Y6454762D01*
X11342857Y6359524D01*
X11438095Y6311905D01*
X16138095Y30300000D02*
X16233333Y30347620D01*
X16376190Y30347620D01*
X16519047Y30300000D01*
X16614285Y30204762D01*
X16661904Y30109524D01*
X16709523Y29919048D01*
X16709523Y29776191D01*
X16661904Y29585715D01*
X16614285Y29490477D01*
X16519047Y29395239D01*
X16376190Y29347620D01*
X16280952Y29347620D01*
X16138095Y29395239D01*
X16090476Y29442858D01*
X16090476Y29776191D01*
X16280952Y29776191D01*
X19152380Y6716667D02*
X19200000Y6764286D01*
X19295238Y6907143D01*
X19342857Y7002381D01*
X19390476Y7145239D01*
X19438095Y7383334D01*
X19438095Y7573810D01*
X19390476Y7811905D01*
X19342857Y7954762D01*
X19295238Y8050000D01*
X19200000Y8192858D01*
X19152380Y8240477D01*
X18342857Y7145239D02*
X18438095Y7097620D01*
X18628571Y7097620D01*
X18723809Y7145239D01*
X18771428Y7192858D01*
X18819047Y7288096D01*
X18819047Y7573810D01*
X18771428Y7669048D01*
X18723809Y7716667D01*
X18628571Y7764286D01*
X18438095Y7764286D01*
X18342857Y7716667D01*
X18009523Y6716667D02*
X17961904Y6764286D01*
X17866666Y6907143D01*
X17819047Y7002381D01*
X17771428Y7145239D01*
X17723809Y7383334D01*
X17723809Y7573810D01*
X17771428Y7811905D01*
X17819047Y7954762D01*
X17866666Y8050000D01*
X17961904Y8192858D01*
X18009523Y8240477D01*
X16485714Y7097620D02*
X16485714Y7764286D01*
X16485714Y8097620D02*
X16533333Y8050000D01*
X16485714Y8002381D01*
X16438095Y8050000D01*
X16485714Y8097620D01*
X16485714Y8002381D01*
X15342857Y7002381D02*
X15438095Y7050000D01*
X15533333Y7145239D01*
X15676190Y7288096D01*
X15771428Y7335715D01*
X15866666Y7335715D01*
X15819047Y7097620D02*
X15914285Y7145239D01*
X16009523Y7240477D01*
X16057142Y7430953D01*
X16057142Y7764286D01*
X16009523Y7954762D01*
X15914285Y8050000D01*
X15819047Y8097620D01*
X15628571Y8097620D01*
X15533333Y8050000D01*
X15438095Y7954762D01*
X15390476Y7764286D01*
X15390476Y7430953D01*
X15438095Y7240477D01*
X15533333Y7145239D01*
X15628571Y7097620D01*
X15819047Y7097620D01*
X14533333Y7764286D02*
X14533333Y7097620D01*
X14961904Y7764286D02*
X14961904Y7240477D01*
X14914285Y7145239D01*
X14819047Y7097620D01*
X14676190Y7097620D01*
X14580952Y7145239D01*
X14533333Y7192858D01*
X14057142Y7097620D02*
X14057142Y7764286D01*
X14057142Y7573810D02*
X14009523Y7669048D01*
X13961904Y7716667D01*
X13866666Y7764286D01*
X13771428Y7764286D01*
X13533333Y7764286D02*
X13295238Y7097620D01*
X13057142Y7764286D02*
X13295238Y7097620D01*
X13390476Y6859524D01*
X13438095Y6811905D01*
X13533333Y6764286D01*
X12676190Y7192858D02*
X12628571Y7145239D01*
X12676190Y7097620D01*
X12723809Y7145239D01*
X12676190Y7192858D01*
X12676190Y7097620D01*
X11771428Y7764286D02*
X11771428Y7097620D01*
X12200000Y7764286D02*
X12200000Y7240477D01*
X12152380Y7145239D01*
X12057142Y7097620D01*
X11914285Y7097620D01*
X11819047Y7145239D01*
X11771428Y7192858D01*
X11342857Y7145239D02*
X11247619Y7097620D01*
X11057142Y7097620D01*
X10961904Y7145239D01*
X10914285Y7240477D01*
X10914285Y7288096D01*
X10961904Y7383334D01*
X11057142Y7430953D01*
X11200000Y7430953D01*
X11295238Y7478572D01*
X11342857Y7573810D01*
X11342857Y7621429D01*
X11295238Y7716667D01*
X11200000Y7764286D01*
X11057142Y7764286D01*
X10961904Y7716667D01*
D12*
X30280000Y27253143D02*
X30280000Y28453143D01*
X29765714Y27253143D02*
X29765714Y27881715D01*
X29822857Y27996000D01*
X29937142Y28053143D01*
X30108571Y28053143D01*
X30222857Y27996000D01*
X30280000Y27938858D01*
X29365714Y28053143D02*
X28908571Y28053143D01*
X29194285Y28453143D02*
X29194285Y27424572D01*
X29137142Y27310286D01*
X29022857Y27253143D01*
X28908571Y27253143D01*
X28680000Y28053143D02*
X28222857Y28053143D01*
X28508571Y28453143D02*
X28508571Y27424572D01*
X28451428Y27310286D01*
X28337142Y27253143D01*
X28222857Y27253143D01*
X27822857Y28053143D02*
X27822857Y26853143D01*
X27822857Y27996000D02*
X27708571Y28053143D01*
X27480000Y28053143D01*
X27365714Y27996000D01*
X27308571Y27938858D01*
X27251428Y27824572D01*
X27251428Y27481715D01*
X27308571Y27367429D01*
X27365714Y27310286D01*
X27480000Y27253143D01*
X27708571Y27253143D01*
X27822857Y27310286D01*
X26737142Y27367429D02*
X26680000Y27310286D01*
X26737142Y27253143D01*
X26794285Y27310286D01*
X26737142Y27367429D01*
X26737142Y27253143D01*
X26737142Y27996000D02*
X26680000Y27938858D01*
X26737142Y27881715D01*
X26794285Y27938858D01*
X26737142Y27996000D01*
X26737142Y27881715D01*
X25308571Y28510286D02*
X26337142Y26967429D01*
X24051428Y28510286D02*
X25080000Y26967429D01*
X23137142Y28053143D02*
X23137142Y27081715D01*
X23194285Y26967429D01*
X23251428Y26910286D01*
X23365714Y26853143D01*
X23537142Y26853143D01*
X23651428Y26910286D01*
X23137142Y27310286D02*
X23251428Y27253143D01*
X23480000Y27253143D01*
X23594285Y27310286D01*
X23651428Y27367429D01*
X23708571Y27481715D01*
X23708571Y27824572D01*
X23651428Y27938858D01*
X23594285Y27996000D01*
X23480000Y28053143D01*
X23251428Y28053143D01*
X23137142Y27996000D01*
X22565714Y27253143D02*
X22565714Y28053143D01*
X22565714Y28453143D02*
X22622857Y28396000D01*
X22565714Y28338858D01*
X22508571Y28396000D01*
X22565714Y28453143D01*
X22565714Y28338858D01*
X22165714Y28053143D02*
X21708571Y28053143D01*
X21994285Y28453143D02*
X21994285Y27424572D01*
X21937142Y27310286D01*
X21822857Y27253143D01*
X21708571Y27253143D01*
X21308571Y27253143D02*
X21308571Y28453143D01*
X20794285Y27253143D02*
X20794285Y27881715D01*
X20851428Y27996000D01*
X20965714Y28053143D01*
X21137142Y28053143D01*
X21251428Y27996000D01*
X21308571Y27938858D01*
X19708571Y28053143D02*
X19708571Y27253143D01*
X20222857Y28053143D02*
X20222857Y27424572D01*
X20165714Y27310286D01*
X20051428Y27253143D01*
X19880000Y27253143D01*
X19765714Y27310286D01*
X19708571Y27367429D01*
X19137142Y27253143D02*
X19137142Y28453143D01*
X19137142Y27996000D02*
X19022857Y28053143D01*
X18794285Y28053143D01*
X18680000Y27996000D01*
X18622857Y27938858D01*
X18565714Y27824572D01*
X18565714Y27481715D01*
X18622857Y27367429D01*
X18680000Y27310286D01*
X18794285Y27253143D01*
X19022857Y27253143D01*
X19137142Y27310286D01*
X18051428Y27367429D02*
X17994285Y27310286D01*
X18051428Y27253143D01*
X18108571Y27310286D01*
X18051428Y27367429D01*
X18051428Y27253143D01*
X16965714Y27310286D02*
X17080000Y27253143D01*
X17308571Y27253143D01*
X17422857Y27310286D01*
X17480000Y27367429D01*
X17537142Y27481715D01*
X17537142Y27824572D01*
X17480000Y27938858D01*
X17422857Y27996000D01*
X17308571Y28053143D01*
X17080000Y28053143D01*
X16965714Y27996000D01*
X16280000Y27253143D02*
X16394285Y27310286D01*
X16451428Y27367429D01*
X16508571Y27481715D01*
X16508571Y27824572D01*
X16451428Y27938858D01*
X16394285Y27996000D01*
X16280000Y28053143D01*
X16108571Y28053143D01*
X15994285Y27996000D01*
X15937142Y27938858D01*
X15880000Y27824572D01*
X15880000Y27481715D01*
X15937142Y27367429D01*
X15994285Y27310286D01*
X16108571Y27253143D01*
X16280000Y27253143D01*
X15365714Y27253143D02*
X15365714Y28053143D01*
X15365714Y27938858D02*
X15308571Y27996000D01*
X15194285Y28053143D01*
X15022857Y28053143D01*
X14908571Y27996000D01*
X14851428Y27881715D01*
X14851428Y27253143D01*
X14851428Y27881715D02*
X14794285Y27996000D01*
X14680000Y28053143D01*
X14508571Y28053143D01*
X14394285Y27996000D01*
X14337142Y27881715D01*
X14337142Y27253143D01*
X12908571Y28510286D02*
X13937142Y26967429D01*
X33280000Y26121143D02*
X33280000Y25149715D01*
X33337142Y25035429D01*
X33394285Y24978286D01*
X33508571Y24921143D01*
X33680000Y24921143D01*
X33794285Y24978286D01*
X33280000Y25378286D02*
X33394285Y25321143D01*
X33622857Y25321143D01*
X33737142Y25378286D01*
X33794285Y25435429D01*
X33851428Y25549715D01*
X33851428Y25892572D01*
X33794285Y26006858D01*
X33737142Y26064000D01*
X33622857Y26121143D01*
X33394285Y26121143D01*
X33280000Y26064000D01*
X32708571Y25321143D02*
X32708571Y26521143D01*
X32194285Y25321143D02*
X32194285Y25949715D01*
X32251428Y26064000D01*
X32365714Y26121143D01*
X32537142Y26121143D01*
X32651428Y26064000D01*
X32708571Y26006858D01*
X31165714Y25378286D02*
X31280000Y25321143D01*
X31508571Y25321143D01*
X31622857Y25378286D01*
X31680000Y25492572D01*
X31680000Y25949715D01*
X31622857Y26064000D01*
X31508571Y26121143D01*
X31280000Y26121143D01*
X31165714Y26064000D01*
X31108571Y25949715D01*
X31108571Y25835429D01*
X31680000Y25721143D01*
X30594285Y26121143D02*
X30594285Y25321143D01*
X30594285Y26006858D02*
X30537142Y26064000D01*
X30422857Y26121143D01*
X30251428Y26121143D01*
X30137142Y26064000D01*
X30080000Y25949715D01*
X30080000Y25321143D01*
X29680000Y26121143D02*
X29222857Y26121143D01*
X29508571Y26521143D02*
X29508571Y25492572D01*
X29451428Y25378286D01*
X29337142Y25321143D01*
X29222857Y25321143D01*
X28937142Y26521143D02*
X28194285Y26521143D01*
X28594285Y26064000D01*
X28422857Y26064000D01*
X28308571Y26006858D01*
X28251428Y25949715D01*
X28194285Y25835429D01*
X28194285Y25549715D01*
X28251428Y25435429D01*
X28308571Y25378286D01*
X28422857Y25321143D01*
X28765714Y25321143D01*
X28880000Y25378286D01*
X28937142Y25435429D01*
X27165714Y26521143D02*
X27394285Y26521143D01*
X27508571Y26464000D01*
X27565714Y26406858D01*
X27680000Y26235429D01*
X27737142Y26006858D01*
X27737142Y25549715D01*
X27680000Y25435429D01*
X27622857Y25378286D01*
X27508571Y25321143D01*
X27280000Y25321143D01*
X27165714Y25378286D01*
X27108571Y25435429D01*
X27051428Y25549715D01*
X27051428Y25835429D01*
X27108571Y25949715D01*
X27165714Y26006858D01*
X27280000Y26064000D01*
X27508571Y26064000D01*
X27622857Y26006858D01*
X27680000Y25949715D01*
X27737142Y25835429D01*
X26308571Y26521143D02*
X26194285Y26521143D01*
X26080000Y26464000D01*
X26022857Y26406858D01*
X25965714Y26292572D01*
X25908571Y26064000D01*
X25908571Y25778286D01*
X25965714Y25549715D01*
X26022857Y25435429D01*
X26080000Y25378286D01*
X26194285Y25321143D01*
X26308571Y25321143D01*
X26422857Y25378286D01*
X26480000Y25435429D01*
X26537142Y25549715D01*
X26594285Y25778286D01*
X26594285Y26064000D01*
X26537142Y26292572D01*
X26480000Y26406858D01*
X26422857Y26464000D01*
X26308571Y26521143D01*
X24537142Y26578286D02*
X25565714Y25035429D01*
X24137142Y25321143D02*
X24137142Y26521143D01*
X23451428Y25321143D02*
X23965714Y26006858D01*
X23451428Y26521143D02*
X24137142Y25835429D01*
X22765714Y25321143D02*
X22880000Y25378286D01*
X22937142Y25492572D01*
X22937142Y26521143D01*
X22308571Y25321143D02*
X22308571Y26121143D01*
X22308571Y26521143D02*
X22365714Y26464000D01*
X22308571Y26406858D01*
X22251428Y26464000D01*
X22308571Y26521143D01*
X22308571Y26406858D01*
X21737142Y26121143D02*
X21737142Y24921143D01*
X21737142Y26064000D02*
X21622857Y26121143D01*
X21394285Y26121143D01*
X21280000Y26064000D01*
X21222857Y26006858D01*
X21165714Y25892572D01*
X21165714Y25549715D01*
X21222857Y25435429D01*
X21280000Y25378286D01*
X21394285Y25321143D01*
X21622857Y25321143D01*
X21737142Y25378286D01*
X20651428Y26121143D02*
X20651428Y24921143D01*
X20651428Y26064000D02*
X20537142Y26121143D01*
X20308571Y26121143D01*
X20194285Y26064000D01*
X20137142Y26006858D01*
X20080000Y25892572D01*
X20080000Y25549715D01*
X20137142Y25435429D01*
X20194285Y25378286D01*
X20308571Y25321143D01*
X20537142Y25321143D01*
X20651428Y25378286D01*
X19108571Y25378286D02*
X19222857Y25321143D01*
X19451428Y25321143D01*
X19565714Y25378286D01*
X19622857Y25492572D01*
X19622857Y25949715D01*
X19565714Y26064000D01*
X19451428Y26121143D01*
X19222857Y26121143D01*
X19108571Y26064000D01*
X19051428Y25949715D01*
X19051428Y25835429D01*
X19622857Y25721143D01*
X18537142Y25321143D02*
X18537142Y26121143D01*
X18537142Y25892572D02*
X18480000Y26006858D01*
X18422857Y26064000D01*
X18308571Y26121143D01*
X18194285Y26121143D01*
X17965714Y26521143D02*
X17280000Y26521143D01*
X17622857Y25321143D02*
X17622857Y26521143D01*
X16708571Y25321143D02*
X16822857Y25378286D01*
X16880000Y25435429D01*
X16937142Y25549715D01*
X16937142Y25892572D01*
X16880000Y26006858D01*
X16822857Y26064000D01*
X16708571Y26121143D01*
X16537142Y26121143D01*
X16422857Y26064000D01*
X16365714Y26006858D01*
X16308571Y25892572D01*
X16308571Y25549715D01*
X16365714Y25435429D01*
X16422857Y25378286D01*
X16537142Y25321143D01*
X16708571Y25321143D01*
X15622857Y25321143D02*
X15737142Y25378286D01*
X15794285Y25435429D01*
X15851428Y25549715D01*
X15851428Y25892572D01*
X15794285Y26006858D01*
X15737142Y26064000D01*
X15622857Y26121143D01*
X15451428Y26121143D01*
X15337142Y26064000D01*
X15280000Y26006858D01*
X15222857Y25892572D01*
X15222857Y25549715D01*
X15280000Y25435429D01*
X15337142Y25378286D01*
X15451428Y25321143D01*
X15622857Y25321143D01*
X14537142Y25321143D02*
X14651428Y25378286D01*
X14708571Y25492572D01*
X14708571Y26521143D01*
X14080000Y25321143D02*
X14080000Y26521143D01*
X14080000Y26064000D02*
X13965714Y26121143D01*
X13737142Y26121143D01*
X13622857Y26064000D01*
X13565714Y26006858D01*
X13508571Y25892572D01*
X13508571Y25549715D01*
X13565714Y25435429D01*
X13622857Y25378286D01*
X13737142Y25321143D01*
X13965714Y25321143D01*
X14080000Y25378286D01*
X12822857Y25321143D02*
X12937142Y25378286D01*
X12994285Y25435429D01*
X13051428Y25549715D01*
X13051428Y25892572D01*
X12994285Y26006858D01*
X12937142Y26064000D01*
X12822857Y26121143D01*
X12651428Y26121143D01*
X12537142Y26064000D01*
X12480000Y26006858D01*
X12422857Y25892572D01*
X12422857Y25549715D01*
X12480000Y25435429D01*
X12537142Y25378286D01*
X12651428Y25321143D01*
X12822857Y25321143D01*
X11394285Y25321143D02*
X11394285Y25949715D01*
X11451428Y26064000D01*
X11565714Y26121143D01*
X11794285Y26121143D01*
X11908571Y26064000D01*
X11394285Y25378286D02*
X11508571Y25321143D01*
X11794285Y25321143D01*
X11908571Y25378286D01*
X11965714Y25492572D01*
X11965714Y25606858D01*
X11908571Y25721143D01*
X11794285Y25778286D01*
X11508571Y25778286D01*
X11394285Y25835429D01*
X10822857Y25321143D02*
X10822857Y26121143D01*
X10822857Y25892572D02*
X10765714Y26006858D01*
X10708571Y26064000D01*
X10594285Y26121143D01*
X10480000Y26121143D01*
X9565714Y25321143D02*
X9565714Y26521143D01*
X9565714Y25378286D02*
X9680000Y25321143D01*
X9908571Y25321143D01*
X10022857Y25378286D01*
X10080000Y25435429D01*
X10137142Y25549715D01*
X10137142Y25892572D01*
X10080000Y26006858D01*
X10022857Y26064000D01*
X9908571Y26121143D01*
X9680000Y26121143D01*
X9565714Y26064000D01*
D11*
X4210476Y12410000D02*
X4286666Y12448096D01*
X4400952Y12448096D01*
X4515238Y12410000D01*
X4591428Y12333810D01*
X4629523Y12257620D01*
X4667619Y12105239D01*
X4667619Y11990953D01*
X4629523Y11838572D01*
X4591428Y11762381D01*
X4515238Y11686191D01*
X4400952Y11648096D01*
X4324761Y11648096D01*
X4210476Y11686191D01*
X4172380Y11724286D01*
X4172380Y11990953D01*
X4324761Y11990953D01*
X5529047Y11238096D02*
X5262380Y10438096D01*
X4995714Y11238096D01*
X4729047Y10438096D02*
X4729047Y10971429D01*
X4729047Y11238096D02*
X4767142Y11200000D01*
X4729047Y11161905D01*
X4690952Y11200000D01*
X4729047Y11238096D01*
X4729047Y11161905D01*
X4348095Y10971429D02*
X4348095Y10438096D01*
X4348095Y10895239D02*
X4310000Y10933334D01*
X4233809Y10971429D01*
X4119523Y10971429D01*
X4043333Y10933334D01*
X4005238Y10857143D01*
X4005238Y10438096D01*
X5259523Y15496191D02*
X5145238Y15458096D01*
X4954761Y15458096D01*
X4878571Y15496191D01*
X4840476Y15534286D01*
X4802380Y15610477D01*
X4802380Y15686667D01*
X4840476Y15762858D01*
X4878571Y15800953D01*
X4954761Y15839048D01*
X5107142Y15877143D01*
X5183333Y15915239D01*
X5221428Y15953334D01*
X5259523Y16029524D01*
X5259523Y16105715D01*
X5221428Y16181905D01*
X5183333Y16220000D01*
X5107142Y16258096D01*
X4916666Y16258096D01*
X4802380Y16220000D01*
X4497619Y16181905D02*
X4459523Y16220000D01*
X4383333Y16258096D01*
X4192857Y16258096D01*
X4116666Y16220000D01*
X4078571Y16181905D01*
X4040476Y16105715D01*
X4040476Y16029524D01*
X4078571Y15915239D01*
X4535714Y15458096D01*
X4040476Y15458096D01*
X17323809Y36897620D02*
X16990476Y35897620D01*
X16657142Y36897620D01*
X16323809Y35897620D02*
X16323809Y36564286D01*
X16323809Y36897620D02*
X16371428Y36850000D01*
X16323809Y36802381D01*
X16276190Y36850000D01*
X16323809Y36897620D01*
X16323809Y36802381D01*
X15847619Y36564286D02*
X15847619Y35897620D01*
X15847619Y36469048D02*
X15800000Y36516667D01*
X15704761Y36564286D01*
X15561904Y36564286D01*
X15466666Y36516667D01*
X15419047Y36421429D01*
X15419047Y35897620D01*
X13980952Y29347620D02*
X13980952Y30347620D01*
X13742857Y30347620D01*
X13600000Y30300000D01*
X13504761Y30204762D01*
X13457142Y30109524D01*
X13409523Y29919048D01*
X13409523Y29776191D01*
X13457142Y29585715D01*
X13504761Y29490477D01*
X13600000Y29395239D01*
X13742857Y29347620D01*
X13980952Y29347620D01*
X12980952Y29728572D02*
X12219047Y29728572D01*
X12600000Y29347620D02*
X12600000Y30109524D01*
D13*
X23144186Y12331069D02*
X23060365Y11886445D01*
X23060365Y11886445D02*
X22751080Y11758947D01*
X22751080Y11758947D02*
X22441794Y11631449D01*
X22441794Y11631449D02*
X22070754Y11883754D01*
X22070754Y11883754D02*
X21966843Y11954004D01*
X21966843Y11954004D02*
X21872913Y12016728D01*
X21872913Y12016728D02*
X21793348Y12069062D01*
X21793348Y12069062D02*
X21732530Y12108143D01*
X21732530Y12108143D02*
X21694843Y12131107D01*
X21694843Y12131107D02*
X21684579Y12136058D01*
X21684579Y12136058D02*
X21666090Y12123324D01*
X21666090Y12123324D02*
X21626580Y12088118D01*
X21626580Y12088118D02*
X21570478Y12034938D01*
X21570478Y12034938D02*
X21502213Y11968282D01*
X21502213Y11968282D02*
X21426214Y11892646D01*
X21426214Y11892646D02*
X21346908Y11812528D01*
X21346908Y11812528D02*
X21268725Y11732426D01*
X21268725Y11732426D02*
X21196093Y11656836D01*
X21196093Y11656836D02*
X21133441Y11590255D01*
X21133441Y11590255D02*
X21085197Y11537182D01*
X21085197Y11537182D02*
X21055790Y11502113D01*
X21055790Y11502113D02*
X21048759Y11490377D01*
X21048759Y11490377D02*
X21058877Y11468740D01*
X21058877Y11468740D02*
X21087241Y11421338D01*
X21087241Y11421338D02*
X21130871Y11352807D01*
X21130871Y11352807D02*
X21186782Y11267785D01*
X21186782Y11267785D02*
X21251994Y11170907D01*
X21251994Y11170907D02*
X21289781Y11115650D01*
X21289781Y11115650D02*
X21358657Y11014752D01*
X21358657Y11014752D02*
X21419860Y10923701D01*
X21419860Y10923701D02*
X21470422Y10847030D01*
X21470422Y10847030D02*
X21507372Y10789272D01*
X21507372Y10789272D02*
X21527742Y10754957D01*
X21527742Y10754957D02*
X21530803Y10747746D01*
X21530803Y10747746D02*
X21523864Y10727252D01*
X21523864Y10727252D02*
X21504949Y10679487D01*
X21504949Y10679487D02*
X21476913Y10611168D01*
X21476913Y10611168D02*
X21442609Y10529011D01*
X21442609Y10529011D02*
X21404891Y10439730D01*
X21404891Y10439730D02*
X21366613Y10350042D01*
X21366613Y10350042D02*
X21330630Y10266662D01*
X21330630Y10266662D02*
X21299794Y10196306D01*
X21299794Y10196306D02*
X21276961Y10145690D01*
X21276961Y10145690D02*
X21264983Y10121529D01*
X21264983Y10121529D02*
X21264276Y10120578D01*
X21264276Y10120578D02*
X21245469Y10115964D01*
X21245469Y10115964D02*
X21195382Y10105672D01*
X21195382Y10105672D02*
X21119207Y10090713D01*
X21119207Y10090713D02*
X21022135Y10072099D01*
X21022135Y10072099D02*
X20909357Y10050841D01*
X20909357Y10050841D02*
X20843558Y10038582D01*
X20843558Y10038582D02*
X20723050Y10015638D01*
X20723050Y10015638D02*
X20614203Y9993805D01*
X20614203Y9993805D02*
X20522524Y9974278D01*
X20522524Y9974278D02*
X20453519Y9958252D01*
X20453519Y9958252D02*
X20412696Y9946921D01*
X20412696Y9946921D02*
X20404489Y9943326D01*
X20404489Y9943326D02*
X20396452Y9918994D01*
X20396452Y9918994D02*
X20389967Y9864041D01*
X20389967Y9864041D02*
X20385030Y9784892D01*
X20385030Y9784892D02*
X20381636Y9687974D01*
X20381636Y9687974D02*
X20379782Y9579713D01*
X20379782Y9579713D02*
X20379462Y9466535D01*
X20379462Y9466535D02*
X20380673Y9354865D01*
X20380673Y9354865D02*
X20383410Y9251132D01*
X20383410Y9251132D02*
X20387669Y9161759D01*
X20387669Y9161759D02*
X20393445Y9093174D01*
X20393445Y9093174D02*
X20400733Y9051803D01*
X20400733Y9051803D02*
X20405105Y9043190D01*
X20405105Y9043190D02*
X20431236Y9032867D01*
X20431236Y9032867D02*
X20486607Y9018108D01*
X20486607Y9018108D02*
X20563893Y9000648D01*
X20563893Y9000648D02*
X20655770Y8982220D01*
X20655770Y8982220D02*
X20687842Y8976259D01*
X20687842Y8976259D02*
X20842476Y8947934D01*
X20842476Y8947934D02*
X20964625Y8925124D01*
X20964625Y8925124D02*
X21058327Y8906920D01*
X21058327Y8906920D02*
X21127616Y8892417D01*
X21127616Y8892417D02*
X21176529Y8880708D01*
X21176529Y8880708D02*
X21209103Y8870885D01*
X21209103Y8870885D02*
X21229372Y8862044D01*
X21229372Y8862044D02*
X21241374Y8853276D01*
X21241374Y8853276D02*
X21243053Y8851543D01*
X21243053Y8851543D02*
X21259816Y8823629D01*
X21259816Y8823629D02*
X21285386Y8769305D01*
X21285386Y8769305D02*
X21317212Y8695223D01*
X21317212Y8695223D02*
X21352740Y8608035D01*
X21352740Y8608035D02*
X21389417Y8514392D01*
X21389417Y8514392D02*
X21424689Y8420948D01*
X21424689Y8420948D02*
X21456004Y8334353D01*
X21456004Y8334353D02*
X21480807Y8261260D01*
X21480807Y8261260D02*
X21496546Y8208322D01*
X21496546Y8208322D02*
X21500668Y8182189D01*
X21500668Y8182189D02*
X21500324Y8181274D01*
X21500324Y8181274D02*
X21486359Y8159914D01*
X21486359Y8159914D02*
X21454678Y8112916D01*
X21454678Y8112916D02*
X21408609Y8045173D01*
X21408609Y8045173D02*
X21351482Y7961577D01*
X21351482Y7961577D02*
X21286627Y7867018D01*
X21286627Y7867018D02*
X21268157Y7840146D01*
X21268157Y7840146D02*
X21202301Y7742725D01*
X21202301Y7742725D02*
X21144350Y7653837D01*
X21144350Y7653837D02*
X21097462Y7578588D01*
X21097462Y7578588D02*
X21064793Y7522080D01*
X21064793Y7522080D02*
X21049500Y7489419D01*
X21049500Y7489419D02*
X21048759Y7485407D01*
X21048759Y7485407D02*
X21061608Y7464316D01*
X21061608Y7464316D02*
X21097112Y7422536D01*
X21097112Y7422536D02*
X21150707Y7364555D01*
X21150707Y7364555D02*
X21217829Y7294865D01*
X21217829Y7294865D02*
X21293913Y7217955D01*
X21293913Y7217955D02*
X21374396Y7138317D01*
X21374396Y7138317D02*
X21454713Y7060439D01*
X21454713Y7060439D02*
X21530301Y6988814D01*
X21530301Y6988814D02*
X21596595Y6927930D01*
X21596595Y6927930D02*
X21649031Y6882279D01*
X21649031Y6882279D02*
X21683045Y6856350D01*
X21683045Y6856350D02*
X21692455Y6852117D01*
X21692455Y6852117D02*
X21714357Y6862088D01*
X21714357Y6862088D02*
X21759200Y6888980D01*
X21759200Y6888980D02*
X21819679Y6928264D01*
X21819679Y6928264D02*
X21866211Y6959883D01*
X21866211Y6959883D02*
X21950525Y7017902D01*
X21950525Y7017902D02*
X22050374Y7086216D01*
X22050374Y7086216D02*
X22150527Y7154421D01*
X22150527Y7154421D02*
X22204373Y7190925D01*
X22204373Y7190925D02*
X22386629Y7314200D01*
X22386629Y7314200D02*
X22539619Y7231480D01*
X22539619Y7231480D02*
X22609318Y7195241D01*
X22609318Y7195241D02*
X22668586Y7167074D01*
X22668586Y7167074D02*
X22708689Y7151009D01*
X22708689Y7151009D02*
X22718897Y7148774D01*
X22718897Y7148774D02*
X22731171Y7165278D01*
X22731171Y7165278D02*
X22755387Y7211918D01*
X22755387Y7211918D02*
X22789737Y7284391D01*
X22789737Y7284391D02*
X22832412Y7378394D01*
X22832412Y7378394D02*
X22881606Y7489626D01*
X22881606Y7489626D02*
X22935510Y7613785D01*
X22935510Y7613785D02*
X22992316Y7746568D01*
X22992316Y7746568D02*
X23050218Y7883673D01*
X23050218Y7883673D02*
X23107407Y8020798D01*
X23107407Y8020798D02*
X23162076Y8153642D01*
X23162076Y8153642D02*
X23212416Y8277902D01*
X23212416Y8277902D02*
X23256620Y8389275D01*
X23256620Y8389275D02*
X23292881Y8483461D01*
X23292881Y8483461D02*
X23319391Y8556156D01*
X23319391Y8556156D02*
X23334342Y8603059D01*
X23334342Y8603059D02*
X23336746Y8619167D01*
X23336746Y8619167D02*
X23317689Y8639714D01*
X23317689Y8639714D02*
X23275964Y8673067D01*
X23275964Y8673067D02*
X23220294Y8712298D01*
X23220294Y8712298D02*
X23215622Y8715401D01*
X23215622Y8715401D02*
X23071736Y8830577D01*
X23071736Y8830577D02*
X22955717Y8964947D01*
X22955717Y8964947D02*
X22868570Y9114216D01*
X22868570Y9114216D02*
X22811301Y9274087D01*
X22811301Y9274087D02*
X22784914Y9440263D01*
X22784914Y9440263D02*
X22790415Y9608448D01*
X22790415Y9608448D02*
X22828810Y9774345D01*
X22828810Y9774345D02*
X22901105Y9933658D01*
X22901105Y9933658D02*
X22922374Y9968513D01*
X22922374Y9968513D02*
X23033004Y10109263D01*
X23033004Y10109263D02*
X23163698Y10222286D01*
X23163698Y10222286D02*
X23309936Y10306997D01*
X23309936Y10306997D02*
X23467192Y10362806D01*
X23467192Y10362806D02*
X23630943Y10389126D01*
X23630943Y10389126D02*
X23796667Y10385370D01*
X23796667Y10385370D02*
X23959838Y10350950D01*
X23959838Y10350950D02*
X24115935Y10285277D01*
X24115935Y10285277D02*
X24260433Y10187765D01*
X24260433Y10187765D02*
X24305131Y10148187D01*
X24305131Y10148187D02*
X24418888Y10024297D01*
X24418888Y10024297D02*
X24501782Y9893876D01*
X24501782Y9893876D02*
X24558644Y9747685D01*
X24558644Y9747685D02*
X24590313Y9602912D01*
X24590313Y9602912D02*
X24598131Y9440140D01*
X24598131Y9440140D02*
X24572062Y9276560D01*
X24572062Y9276560D02*
X24514755Y9117702D01*
X24514755Y9117702D02*
X24428856Y8969094D01*
X24428856Y8969094D02*
X24317014Y8836265D01*
X24317014Y8836265D02*
X24181877Y8724744D01*
X24181877Y8724744D02*
X24164117Y8712989D01*
X24164117Y8712989D02*
X24107850Y8674492D01*
X24107850Y8674492D02*
X24065077Y8641137D01*
X24065077Y8641137D02*
X24044628Y8619840D01*
X24044628Y8619840D02*
X24044331Y8619167D01*
X24044331Y8619167D02*
X24048721Y8596129D01*
X24048721Y8596129D02*
X24066124Y8543843D01*
X24066124Y8543843D02*
X24094732Y8466610D01*
X24094732Y8466610D02*
X24132735Y8368732D01*
X24132735Y8368732D02*
X24178326Y8254509D01*
X24178326Y8254509D02*
X24229697Y8128242D01*
X24229697Y8128242D02*
X24285038Y7994233D01*
X24285038Y7994233D02*
X24342542Y7856782D01*
X24342542Y7856782D02*
X24400399Y7720192D01*
X24400399Y7720192D02*
X24456802Y7588763D01*
X24456802Y7588763D02*
X24509942Y7466795D01*
X24509942Y7466795D02*
X24558010Y7358591D01*
X24558010Y7358591D02*
X24599199Y7268451D01*
X24599199Y7268451D02*
X24631699Y7200677D01*
X24631699Y7200677D02*
X24653703Y7159570D01*
X24653703Y7159570D02*
X24662564Y7148774D01*
X24662564Y7148774D02*
X24689640Y7157181D01*
X24689640Y7157181D02*
X24740303Y7179728D01*
X24740303Y7179728D02*
X24805817Y7212387D01*
X24805817Y7212387D02*
X24841841Y7231480D01*
X24841841Y7231480D02*
X24994832Y7314200D01*
X24994832Y7314200D02*
X25177088Y7190925D01*
X25177088Y7190925D02*
X25270125Y7127772D01*
X25270125Y7127772D02*
X25371985Y7058273D01*
X25371985Y7058273D02*
X25467438Y6992835D01*
X25467438Y6992835D02*
X25515250Y6959883D01*
X25515250Y6959883D02*
X25582495Y6914727D01*
X25582495Y6914727D02*
X25639436Y6878943D01*
X25639436Y6878943D02*
X25678646Y6857062D01*
X25678646Y6857062D02*
X25691381Y6852437D01*
X25691381Y6852437D02*
X25709917Y6864915D01*
X25709917Y6864915D02*
X25750941Y6899748D01*
X25750941Y6899748D02*
X25810475Y6953322D01*
X25810475Y6953322D02*
X25884542Y7022017D01*
X25884542Y7022017D02*
X25969165Y7102219D01*
X25969165Y7102219D02*
X26022685Y7153714D01*
X26022685Y7153714D02*
X26116319Y7245714D01*
X26116319Y7245714D02*
X26197241Y7328001D01*
X26197241Y7328001D02*
X26262177Y7397055D01*
X26262177Y7397055D02*
X26307858Y7449356D01*
X26307858Y7449356D02*
X26331011Y7481384D01*
X26331011Y7481384D02*
X26333232Y7487884D01*
X26333232Y7487884D02*
X26322924Y7512606D01*
X26322924Y7512606D02*
X26294439Y7562595D01*
X26294439Y7562595D02*
X26250937Y7632788D01*
X26250937Y7632788D02*
X26195577Y7718125D01*
X26195577Y7718125D02*
X26131520Y7813544D01*
X26131520Y7813544D02*
X26113303Y7840146D01*
X26113303Y7840146D02*
X26046927Y7936833D01*
X26046927Y7936833D02*
X25987378Y8023883D01*
X25987378Y8023883D02*
X25937984Y8096405D01*
X25937984Y8096405D02*
X25902075Y8149507D01*
X25902075Y8149507D02*
X25882981Y8178297D01*
X25882981Y8178297D02*
X25881136Y8181274D01*
X25881136Y8181274D02*
X25883895Y8204218D01*
X25883895Y8204218D02*
X25898538Y8254664D01*
X25898538Y8254664D02*
X25922513Y8325959D01*
X25922513Y8325959D02*
X25953266Y8411453D01*
X25953266Y8411453D02*
X25988244Y8504493D01*
X25988244Y8504493D02*
X26024893Y8598426D01*
X26024893Y8598426D02*
X26060661Y8686601D01*
X26060661Y8686601D02*
X26092994Y8762366D01*
X26092994Y8762366D02*
X26119338Y8819069D01*
X26119338Y8819069D02*
X26137142Y8850057D01*
X26137142Y8850057D02*
X26138407Y8851543D01*
X26138407Y8851543D02*
X26149294Y8860399D01*
X26149294Y8860399D02*
X26167682Y8869157D01*
X26167682Y8869157D02*
X26197606Y8878723D01*
X26197606Y8878723D02*
X26243103Y8890004D01*
X26243103Y8890004D02*
X26308209Y8903907D01*
X26308209Y8903907D02*
X26396961Y8921337D01*
X26396961Y8921337D02*
X26513393Y8943202D01*
X26513393Y8943202D02*
X26661542Y8970409D01*
X26661542Y8970409D02*
X26693618Y8976259D01*
X26693618Y8976259D02*
X26788686Y8994626D01*
X26788686Y8994626D02*
X26871565Y9012595D01*
X26871565Y9012595D02*
X26934930Y9028431D01*
X26934930Y9028431D02*
X26971458Y9040400D01*
X26971458Y9040400D02*
X26976356Y9043190D01*
X26976356Y9043190D02*
X26984427Y9067928D01*
X26984427Y9067928D02*
X26990987Y9123210D01*
X26990987Y9123210D02*
X26996033Y9202611D01*
X26996033Y9202611D02*
X26999559Y9299704D01*
X26999559Y9299704D02*
X27001561Y9408062D01*
X27001561Y9408062D02*
X27002036Y9521260D01*
X27002036Y9521260D02*
X27000977Y9632872D01*
X27000977Y9632872D02*
X26998382Y9736471D01*
X26998382Y9736471D02*
X26994246Y9825632D01*
X26994246Y9825632D02*
X26988563Y9893928D01*
X26988563Y9893928D02*
X26981331Y9934934D01*
X26981331Y9934934D02*
X26976971Y9943326D01*
X26976971Y9943326D02*
X26952698Y9951792D01*
X26952698Y9951792D02*
X26897426Y9965565D01*
X26897426Y9965565D02*
X26816662Y9983450D01*
X26816662Y9983450D02*
X26715912Y10004252D01*
X26715912Y10004252D02*
X26600683Y10026777D01*
X26600683Y10026777D02*
X26537902Y10038582D01*
X26537902Y10038582D02*
X26418787Y10060849D01*
X26418787Y10060849D02*
X26312565Y10081021D01*
X26312565Y10081021D02*
X26224427Y10098085D01*
X26224427Y10098085D02*
X26159566Y10111031D01*
X26159566Y10111031D02*
X26123174Y10118845D01*
X26123174Y10118845D02*
X26117184Y10120578D01*
X26117184Y10120578D02*
X26107061Y10140110D01*
X26107061Y10140110D02*
X26085662Y10187157D01*
X26085662Y10187157D02*
X26055839Y10254997D01*
X26055839Y10254997D02*
X26020445Y10336909D01*
X26020445Y10336909D02*
X25982332Y10426172D01*
X25982332Y10426172D02*
X25944353Y10516065D01*
X25944353Y10516065D02*
X25909360Y10599865D01*
X25909360Y10599865D02*
X25880206Y10670853D01*
X25880206Y10670853D02*
X25859743Y10722306D01*
X25859743Y10722306D02*
X25850823Y10747503D01*
X25850823Y10747503D02*
X25850657Y10748604D01*
X25850657Y10748604D02*
X25860769Y10768481D01*
X25860769Y10768481D02*
X25889117Y10814223D01*
X25889117Y10814223D02*
X25932723Y10881283D01*
X25932723Y10881283D02*
X25988606Y10965116D01*
X25988606Y10965116D02*
X26053787Y11061174D01*
X26053787Y11061174D02*
X26091679Y11116350D01*
X26091679Y11116350D02*
X26160725Y11217519D01*
X26160725Y11217519D02*
X26222050Y11309370D01*
X26222050Y11309370D02*
X26272663Y11387256D01*
X26272663Y11387256D02*
X26309571Y11446531D01*
X26309571Y11446531D02*
X26329782Y11482549D01*
X26329782Y11482549D02*
X26332701Y11490623D01*
X26332701Y11490623D02*
X26320153Y11509416D01*
X26320153Y11509416D02*
X26285463Y11549543D01*
X26285463Y11549543D02*
X26233063Y11606507D01*
X26233063Y11606507D02*
X26167384Y11675815D01*
X26167384Y11675815D02*
X26092856Y11752969D01*
X26092856Y11752969D02*
X26013913Y11833475D01*
X26013913Y11833475D02*
X25934983Y11912837D01*
X25934983Y11912837D02*
X25860500Y11986560D01*
X25860500Y11986560D02*
X25794894Y12050148D01*
X25794894Y12050148D02*
X25742596Y12099106D01*
X25742596Y12099106D02*
X25708039Y12128939D01*
X25708039Y12128939D02*
X25696478Y12136058D01*
X25696478Y12136058D02*
X25677654Y12126047D01*
X25677654Y12126047D02*
X25632631Y12097922D01*
X25632631Y12097922D02*
X25565787Y12054546D01*
X25565787Y12054546D02*
X25481499Y11998782D01*
X25481499Y11998782D02*
X25384144Y11933494D01*
X25384144Y11933494D02*
X25310707Y11883754D01*
X25310707Y11883754D02*
X24939667Y11631449D01*
X24939667Y11631449D02*
X24321095Y11886445D01*
X24321095Y11886445D02*
X24237275Y12331069D01*
X24237275Y12331069D02*
X24153454Y12775693D01*
X24153454Y12775693D02*
X23228006Y12775693D01*
X23228006Y12775693D02*
X23144186Y12331069D01*
X23144186Y12331069D02*
X23144186Y12331069D01*
G36*
X24237275Y12331069D02*
G01*
X24321095Y11886445D01*
X24939667Y11631449D01*
X25310707Y11883754D01*
X25384144Y11933494D01*
X25481499Y11998782D01*
X25565787Y12054546D01*
X25632631Y12097922D01*
X25677654Y12126047D01*
X25696478Y12136058D01*
X25708039Y12128939D01*
X25742596Y12099106D01*
X25794894Y12050148D01*
X25860500Y11986560D01*
X25934983Y11912837D01*
X26013913Y11833475D01*
X26092856Y11752969D01*
X26167384Y11675815D01*
X26233063Y11606507D01*
X26285463Y11549543D01*
X26320153Y11509416D01*
X26332701Y11490623D01*
X26329782Y11482549D01*
X26309571Y11446531D01*
X26272663Y11387256D01*
X26222050Y11309370D01*
X26160725Y11217519D01*
X26091679Y11116350D01*
X26053787Y11061174D01*
X25988606Y10965116D01*
X25932723Y10881283D01*
X25889117Y10814223D01*
X25860769Y10768481D01*
X25850657Y10748604D01*
X25850823Y10747503D01*
X25859743Y10722306D01*
X25880206Y10670853D01*
X25909360Y10599865D01*
X25944353Y10516065D01*
X25982332Y10426172D01*
X26020445Y10336909D01*
X26055839Y10254997D01*
X26085662Y10187157D01*
X26107061Y10140110D01*
X26117184Y10120578D01*
X26123174Y10118845D01*
X26159566Y10111031D01*
X26224427Y10098085D01*
X26312565Y10081021D01*
X26418787Y10060849D01*
X26537902Y10038582D01*
X26600683Y10026777D01*
X26715912Y10004252D01*
X26816662Y9983450D01*
X26897426Y9965565D01*
X26952698Y9951792D01*
X26976971Y9943326D01*
X26981331Y9934934D01*
X26988563Y9893928D01*
X26994246Y9825632D01*
X26998382Y9736471D01*
X27000977Y9632872D01*
X27002036Y9521260D01*
X27001561Y9408062D01*
X26999559Y9299704D01*
X26996033Y9202611D01*
X26990987Y9123210D01*
X26984427Y9067928D01*
X26976356Y9043190D01*
X26971458Y9040400D01*
X26934930Y9028431D01*
X26871565Y9012595D01*
X26788686Y8994626D01*
X26693618Y8976259D01*
X26661542Y8970409D01*
X26513393Y8943202D01*
X26396961Y8921337D01*
X26308209Y8903907D01*
X26243103Y8890004D01*
X26197606Y8878723D01*
X26167682Y8869157D01*
X26149294Y8860399D01*
X26138407Y8851543D01*
X26137142Y8850057D01*
X26119338Y8819069D01*
X26092994Y8762366D01*
X26060661Y8686601D01*
X26024893Y8598426D01*
X25988244Y8504493D01*
X25953266Y8411453D01*
X25922513Y8325959D01*
X25898538Y8254664D01*
X25883895Y8204218D01*
X25881136Y8181274D01*
X25882981Y8178297D01*
X25902075Y8149507D01*
X25937984Y8096405D01*
X25987378Y8023883D01*
X26046927Y7936833D01*
X26113303Y7840146D01*
X26131520Y7813544D01*
X26195577Y7718125D01*
X26250937Y7632788D01*
X26294439Y7562595D01*
X26322924Y7512606D01*
X26333232Y7487884D01*
X26331011Y7481384D01*
X26307858Y7449356D01*
X26262177Y7397055D01*
X26197241Y7328001D01*
X26116319Y7245714D01*
X26022685Y7153714D01*
X25969165Y7102219D01*
X25884542Y7022017D01*
X25810475Y6953322D01*
X25750941Y6899748D01*
X25709917Y6864915D01*
X25691381Y6852437D01*
X25678646Y6857062D01*
X25639436Y6878943D01*
X25582495Y6914727D01*
X25515250Y6959883D01*
X25467438Y6992835D01*
X25371985Y7058273D01*
X25270125Y7127772D01*
X25177088Y7190925D01*
X24994832Y7314200D01*
X24841841Y7231480D01*
X24805817Y7212387D01*
X24740303Y7179728D01*
X24689640Y7157181D01*
X24662564Y7148774D01*
X24653703Y7159570D01*
X24631699Y7200677D01*
X24599199Y7268451D01*
X24558010Y7358591D01*
X24509942Y7466795D01*
X24456802Y7588763D01*
X24400399Y7720192D01*
X24342542Y7856782D01*
X24285038Y7994233D01*
X24229697Y8128242D01*
X24178326Y8254509D01*
X24132735Y8368732D01*
X24094732Y8466610D01*
X24066124Y8543843D01*
X24048721Y8596129D01*
X24044331Y8619167D01*
X24044628Y8619840D01*
X24065077Y8641137D01*
X24107850Y8674492D01*
X24164117Y8712989D01*
X24181877Y8724744D01*
X24317014Y8836265D01*
X24428856Y8969094D01*
X24514755Y9117702D01*
X24572062Y9276560D01*
X24598131Y9440140D01*
X24590313Y9602912D01*
X24558644Y9747685D01*
X24501782Y9893876D01*
X24418888Y10024297D01*
X24305131Y10148187D01*
X24260433Y10187765D01*
X24115935Y10285277D01*
X23959838Y10350950D01*
X23796667Y10385370D01*
X23630943Y10389126D01*
X23467192Y10362806D01*
X23309936Y10306997D01*
X23163698Y10222286D01*
X23033004Y10109263D01*
X22922374Y9968513D01*
X22901105Y9933658D01*
X22828810Y9774345D01*
X22790415Y9608448D01*
X22784914Y9440263D01*
X22811301Y9274087D01*
X22868570Y9114216D01*
X22955717Y8964947D01*
X23071736Y8830577D01*
X23215622Y8715401D01*
X23220294Y8712298D01*
X23275964Y8673067D01*
X23317689Y8639714D01*
X23336746Y8619167D01*
X23334342Y8603059D01*
X23319391Y8556156D01*
X23292881Y8483461D01*
X23256620Y8389275D01*
X23212416Y8277902D01*
X23162076Y8153642D01*
X23107407Y8020798D01*
X23050218Y7883673D01*
X22992316Y7746568D01*
X22935510Y7613785D01*
X22881606Y7489626D01*
X22832412Y7378394D01*
X22789737Y7284391D01*
X22755387Y7211918D01*
X22731171Y7165278D01*
X22718897Y7148774D01*
X22708689Y7151009D01*
X22668586Y7167074D01*
X22609318Y7195241D01*
X22539619Y7231480D01*
X22386629Y7314200D01*
X22204373Y7190925D01*
X22150527Y7154421D01*
X22050374Y7086216D01*
X21950525Y7017902D01*
X21866211Y6959883D01*
X21819679Y6928264D01*
X21759200Y6888980D01*
X21714357Y6862088D01*
X21692455Y6852117D01*
X21683045Y6856350D01*
X21649031Y6882279D01*
X21596595Y6927930D01*
X21530301Y6988814D01*
X21454713Y7060439D01*
X21374396Y7138317D01*
X21293913Y7217955D01*
X21217829Y7294865D01*
X21150707Y7364555D01*
X21097112Y7422536D01*
X21061608Y7464316D01*
X21048759Y7485407D01*
X21049500Y7489419D01*
X21064793Y7522080D01*
X21097462Y7578588D01*
X21144350Y7653837D01*
X21202301Y7742725D01*
X21268157Y7840146D01*
X21286627Y7867018D01*
X21351482Y7961577D01*
X21408609Y8045173D01*
X21454678Y8112916D01*
X21486359Y8159914D01*
X21500324Y8181274D01*
X21500668Y8182189D01*
X21496546Y8208322D01*
X21480807Y8261260D01*
X21456004Y8334353D01*
X21424689Y8420948D01*
X21389417Y8514392D01*
X21352740Y8608035D01*
X21317212Y8695223D01*
X21285386Y8769305D01*
X21259816Y8823629D01*
X21243053Y8851543D01*
X21241374Y8853276D01*
X21229372Y8862044D01*
X21209103Y8870885D01*
X21176529Y8880708D01*
X21127616Y8892417D01*
X21058327Y8906920D01*
X20964625Y8925124D01*
X20842476Y8947934D01*
X20687842Y8976259D01*
X20655770Y8982220D01*
X20563893Y9000648D01*
X20486607Y9018108D01*
X20431236Y9032867D01*
X20405105Y9043190D01*
X20400733Y9051803D01*
X20393445Y9093174D01*
X20387669Y9161759D01*
X20383410Y9251132D01*
X20380673Y9354865D01*
X20379462Y9466535D01*
X20379782Y9579713D01*
X20381636Y9687974D01*
X20385030Y9784892D01*
X20389967Y9864041D01*
X20396452Y9918994D01*
X20404489Y9943326D01*
X20412696Y9946921D01*
X20453519Y9958252D01*
X20522524Y9974278D01*
X20614203Y9993805D01*
X20723050Y10015638D01*
X20843558Y10038582D01*
X20909357Y10050841D01*
X21022135Y10072099D01*
X21119207Y10090713D01*
X21195382Y10105672D01*
X21245469Y10115964D01*
X21264276Y10120578D01*
X21264983Y10121529D01*
X21276961Y10145690D01*
X21299794Y10196306D01*
X21330630Y10266662D01*
X21366613Y10350042D01*
X21404891Y10439730D01*
X21442609Y10529011D01*
X21476913Y10611168D01*
X21504949Y10679487D01*
X21523864Y10727252D01*
X21530803Y10747746D01*
X21527742Y10754957D01*
X21507372Y10789272D01*
X21470422Y10847030D01*
X21419860Y10923701D01*
X21358657Y11014752D01*
X21289781Y11115650D01*
X21251994Y11170907D01*
X21186782Y11267785D01*
X21130871Y11352807D01*
X21087241Y11421338D01*
X21058877Y11468740D01*
X21048759Y11490377D01*
X21055790Y11502113D01*
X21085197Y11537182D01*
X21133441Y11590255D01*
X21196093Y11656836D01*
X21268725Y11732426D01*
X21346908Y11812528D01*
X21426214Y11892646D01*
X21502213Y11968282D01*
X21570478Y12034938D01*
X21626580Y12088118D01*
X21666090Y12123324D01*
X21684579Y12136058D01*
X21694843Y12131107D01*
X21732530Y12108143D01*
X21793348Y12069062D01*
X21872913Y12016728D01*
X21966843Y11954004D01*
X22070754Y11883754D01*
X22441794Y11631449D01*
X22751080Y11758947D01*
X23060365Y11886445D01*
X23144186Y12331069D01*
X23228006Y12775693D01*
X24153454Y12775693D01*
X24237275Y12331069D01*
G37*
X24237275Y12331069D02*
X24321095Y11886445D01*
X24939667Y11631449D01*
X25310707Y11883754D01*
X25384144Y11933494D01*
X25481499Y11998782D01*
X25565787Y12054546D01*
X25632631Y12097922D01*
X25677654Y12126047D01*
X25696478Y12136058D01*
X25708039Y12128939D01*
X25742596Y12099106D01*
X25794894Y12050148D01*
X25860500Y11986560D01*
X25934983Y11912837D01*
X26013913Y11833475D01*
X26092856Y11752969D01*
X26167384Y11675815D01*
X26233063Y11606507D01*
X26285463Y11549543D01*
X26320153Y11509416D01*
X26332701Y11490623D01*
X26329782Y11482549D01*
X26309571Y11446531D01*
X26272663Y11387256D01*
X26222050Y11309370D01*
X26160725Y11217519D01*
X26091679Y11116350D01*
X26053787Y11061174D01*
X25988606Y10965116D01*
X25932723Y10881283D01*
X25889117Y10814223D01*
X25860769Y10768481D01*
X25850657Y10748604D01*
X25850823Y10747503D01*
X25859743Y10722306D01*
X25880206Y10670853D01*
X25909360Y10599865D01*
X25944353Y10516065D01*
X25982332Y10426172D01*
X26020445Y10336909D01*
X26055839Y10254997D01*
X26085662Y10187157D01*
X26107061Y10140110D01*
X26117184Y10120578D01*
X26123174Y10118845D01*
X26159566Y10111031D01*
X26224427Y10098085D01*
X26312565Y10081021D01*
X26418787Y10060849D01*
X26537902Y10038582D01*
X26600683Y10026777D01*
X26715912Y10004252D01*
X26816662Y9983450D01*
X26897426Y9965565D01*
X26952698Y9951792D01*
X26976971Y9943326D01*
X26981331Y9934934D01*
X26988563Y9893928D01*
X26994246Y9825632D01*
X26998382Y9736471D01*
X27000977Y9632872D01*
X27002036Y9521260D01*
X27001561Y9408062D01*
X26999559Y9299704D01*
X26996033Y9202611D01*
X26990987Y9123210D01*
X26984427Y9067928D01*
X26976356Y9043190D01*
X26971458Y9040400D01*
X26934930Y9028431D01*
X26871565Y9012595D01*
X26788686Y8994626D01*
X26693618Y8976259D01*
X26661542Y8970409D01*
X26513393Y8943202D01*
X26396961Y8921337D01*
X26308209Y8903907D01*
X26243103Y8890004D01*
X26197606Y8878723D01*
X26167682Y8869157D01*
X26149294Y8860399D01*
X26138407Y8851543D01*
X26137142Y8850057D01*
X26119338Y8819069D01*
X26092994Y8762366D01*
X26060661Y8686601D01*
X26024893Y8598426D01*
X25988244Y8504493D01*
X25953266Y8411453D01*
X25922513Y8325959D01*
X25898538Y8254664D01*
X25883895Y8204218D01*
X25881136Y8181274D01*
X25882981Y8178297D01*
X25902075Y8149507D01*
X25937984Y8096405D01*
X25987378Y8023883D01*
X26046927Y7936833D01*
X26113303Y7840146D01*
X26131520Y7813544D01*
X26195577Y7718125D01*
X26250937Y7632788D01*
X26294439Y7562595D01*
X26322924Y7512606D01*
X26333232Y7487884D01*
X26331011Y7481384D01*
X26307858Y7449356D01*
X26262177Y7397055D01*
X26197241Y7328001D01*
X26116319Y7245714D01*
X26022685Y7153714D01*
X25969165Y7102219D01*
X25884542Y7022017D01*
X25810475Y6953322D01*
X25750941Y6899748D01*
X25709917Y6864915D01*
X25691381Y6852437D01*
X25678646Y6857062D01*
X25639436Y6878943D01*
X25582495Y6914727D01*
X25515250Y6959883D01*
X25467438Y6992835D01*
X25371985Y7058273D01*
X25270125Y7127772D01*
X25177088Y7190925D01*
X24994832Y7314200D01*
X24841841Y7231480D01*
X24805817Y7212387D01*
X24740303Y7179728D01*
X24689640Y7157181D01*
X24662564Y7148774D01*
X24653703Y7159570D01*
X24631699Y7200677D01*
X24599199Y7268451D01*
X24558010Y7358591D01*
X24509942Y7466795D01*
X24456802Y7588763D01*
X24400399Y7720192D01*
X24342542Y7856782D01*
X24285038Y7994233D01*
X24229697Y8128242D01*
X24178326Y8254509D01*
X24132735Y8368732D01*
X24094732Y8466610D01*
X24066124Y8543843D01*
X24048721Y8596129D01*
X24044331Y8619167D01*
X24044628Y8619840D01*
X24065077Y8641137D01*
X24107850Y8674492D01*
X24164117Y8712989D01*
X24181877Y8724744D01*
X24317014Y8836265D01*
X24428856Y8969094D01*
X24514755Y9117702D01*
X24572062Y9276560D01*
X24598131Y9440140D01*
X24590313Y9602912D01*
X24558644Y9747685D01*
X24501782Y9893876D01*
X24418888Y10024297D01*
X24305131Y10148187D01*
X24260433Y10187765D01*
X24115935Y10285277D01*
X23959838Y10350950D01*
X23796667Y10385370D01*
X23630943Y10389126D01*
X23467192Y10362806D01*
X23309936Y10306997D01*
X23163698Y10222286D01*
X23033004Y10109263D01*
X22922374Y9968513D01*
X22901105Y9933658D01*
X22828810Y9774345D01*
X22790415Y9608448D01*
X22784914Y9440263D01*
X22811301Y9274087D01*
X22868570Y9114216D01*
X22955717Y8964947D01*
X23071736Y8830577D01*
X23215622Y8715401D01*
X23220294Y8712298D01*
X23275964Y8673067D01*
X23317689Y8639714D01*
X23336746Y8619167D01*
X23334342Y8603059D01*
X23319391Y8556156D01*
X23292881Y8483461D01*
X23256620Y8389275D01*
X23212416Y8277902D01*
X23162076Y8153642D01*
X23107407Y8020798D01*
X23050218Y7883673D01*
X22992316Y7746568D01*
X22935510Y7613785D01*
X22881606Y7489626D01*
X22832412Y7378394D01*
X22789737Y7284391D01*
X22755387Y7211918D01*
X22731171Y7165278D01*
X22718897Y7148774D01*
X22708689Y7151009D01*
X22668586Y7167074D01*
X22609318Y7195241D01*
X22539619Y7231480D01*
X22386629Y7314200D01*
X22204373Y7190925D01*
X22150527Y7154421D01*
X22050374Y7086216D01*
X21950525Y7017902D01*
X21866211Y6959883D01*
X21819679Y6928264D01*
X21759200Y6888980D01*
X21714357Y6862088D01*
X21692455Y6852117D01*
X21683045Y6856350D01*
X21649031Y6882279D01*
X21596595Y6927930D01*
X21530301Y6988814D01*
X21454713Y7060439D01*
X21374396Y7138317D01*
X21293913Y7217955D01*
X21217829Y7294865D01*
X21150707Y7364555D01*
X21097112Y7422536D01*
X21061608Y7464316D01*
X21048759Y7485407D01*
X21049500Y7489419D01*
X21064793Y7522080D01*
X21097462Y7578588D01*
X21144350Y7653837D01*
X21202301Y7742725D01*
X21268157Y7840146D01*
X21286627Y7867018D01*
X21351482Y7961577D01*
X21408609Y8045173D01*
X21454678Y8112916D01*
X21486359Y8159914D01*
X21500324Y8181274D01*
X21500668Y8182189D01*
X21496546Y8208322D01*
X21480807Y8261260D01*
X21456004Y8334353D01*
X21424689Y8420948D01*
X21389417Y8514392D01*
X21352740Y8608035D01*
X21317212Y8695223D01*
X21285386Y8769305D01*
X21259816Y8823629D01*
X21243053Y8851543D01*
X21241374Y8853276D01*
X21229372Y8862044D01*
X21209103Y8870885D01*
X21176529Y8880708D01*
X21127616Y8892417D01*
X21058327Y8906920D01*
X20964625Y8925124D01*
X20842476Y8947934D01*
X20687842Y8976259D01*
X20655770Y8982220D01*
X20563893Y9000648D01*
X20486607Y9018108D01*
X20431236Y9032867D01*
X20405105Y9043190D01*
X20400733Y9051803D01*
X20393445Y9093174D01*
X20387669Y9161759D01*
X20383410Y9251132D01*
X20380673Y9354865D01*
X20379462Y9466535D01*
X20379782Y9579713D01*
X20381636Y9687974D01*
X20385030Y9784892D01*
X20389967Y9864041D01*
X20396452Y9918994D01*
X20404489Y9943326D01*
X20412696Y9946921D01*
X20453519Y9958252D01*
X20522524Y9974278D01*
X20614203Y9993805D01*
X20723050Y10015638D01*
X20843558Y10038582D01*
X20909357Y10050841D01*
X21022135Y10072099D01*
X21119207Y10090713D01*
X21195382Y10105672D01*
X21245469Y10115964D01*
X21264276Y10120578D01*
X21264983Y10121529D01*
X21276961Y10145690D01*
X21299794Y10196306D01*
X21330630Y10266662D01*
X21366613Y10350042D01*
X21404891Y10439730D01*
X21442609Y10529011D01*
X21476913Y10611168D01*
X21504949Y10679487D01*
X21523864Y10727252D01*
X21530803Y10747746D01*
X21527742Y10754957D01*
X21507372Y10789272D01*
X21470422Y10847030D01*
X21419860Y10923701D01*
X21358657Y11014752D01*
X21289781Y11115650D01*
X21251994Y11170907D01*
X21186782Y11267785D01*
X21130871Y11352807D01*
X21087241Y11421338D01*
X21058877Y11468740D01*
X21048759Y11490377D01*
X21055790Y11502113D01*
X21085197Y11537182D01*
X21133441Y11590255D01*
X21196093Y11656836D01*
X21268725Y11732426D01*
X21346908Y11812528D01*
X21426214Y11892646D01*
X21502213Y11968282D01*
X21570478Y12034938D01*
X21626580Y12088118D01*
X21666090Y12123324D01*
X21684579Y12136058D01*
X21694843Y12131107D01*
X21732530Y12108143D01*
X21793348Y12069062D01*
X21872913Y12016728D01*
X21966843Y11954004D01*
X22070754Y11883754D01*
X22441794Y11631449D01*
X22751080Y11758947D01*
X23060365Y11886445D01*
X23144186Y12331069D01*
X23228006Y12775693D01*
X24153454Y12775693D01*
X24237275Y12331069D01*
%LPC*%
D14*
X35000000Y13550000D02*
X23200000Y13550000D01*
X23200000Y13550000D02*
X23200000Y18950000D01*
X23200000Y18950000D02*
X35000000Y18950000D01*
X35000000Y18950000D02*
X35000000Y13550000D01*
G36*
X35000000Y13550000D02*
G01*
X23200000Y13550000D01*
X23200000Y18950000D01*
X35000000Y18950000D01*
X35000000Y13550000D01*
G37*
X35000000Y13550000D02*
X23200000Y13550000D01*
X23200000Y18950000D01*
X35000000Y18950000D01*
X35000000Y13550000D01*
D15*
X2870000Y10850000D03*
D16*
X2870000Y12100000D03*
X2870000Y13350000D03*
X2870000Y14600000D03*
X2870000Y15850000D03*
X2870000Y17100000D03*
D17*
X24250000Y4475000D03*
D16*
X24250000Y3225000D03*
D18*
X36500000Y34100000D03*
X34802944Y38197056D03*
X36500000Y38900000D03*
X34100000Y36500000D03*
X38900000Y36500000D03*
X38197056Y38197056D03*
X34802944Y34802944D03*
D19*
X36500000Y36500000D03*
D18*
X38197056Y34802944D03*
X38197056Y3802944D03*
X36500000Y3100000D03*
X36500000Y7900000D03*
X38197056Y7197056D03*
X38900000Y5500000D03*
X34802944Y3802944D03*
X34802944Y7197056D03*
D19*
X36500000Y5500000D03*
D18*
X34100000Y5500000D03*
D17*
X15650000Y4475000D03*
D16*
X15650000Y3225000D03*
D18*
X3100000Y5500000D03*
X3802944Y3802944D03*
X7900000Y5500000D03*
X5500000Y7900000D03*
D19*
X5500000Y5500000D03*
D18*
X3802944Y7197056D03*
X7197056Y7197056D03*
X5500000Y3100000D03*
X7197056Y3802944D03*
D20*
X3250000Y24850000D03*
D21*
X1980000Y24850000D03*
X3250000Y26120000D03*
X1980000Y26120000D03*
X3250000Y27390000D03*
X1980000Y27390000D03*
D18*
X5500000Y38900000D03*
X7197056Y34802944D03*
X7900000Y36500000D03*
X7197056Y38197056D03*
D19*
X5500000Y36500000D03*
D18*
X3802944Y38197056D03*
X5500000Y34100000D03*
X3802944Y34802944D03*
X3100000Y36500000D03*
D17*
X19950000Y4475000D03*
D16*
X19950000Y3225000D03*
D22*
X28700000Y39020000D03*
D23*
X28700000Y34700000D03*
D24*
X28700000Y31700000D03*
D25*
X38038500Y12524000D03*
D26*
X38038500Y15024000D03*
X38038500Y17524000D03*
X38038500Y20024000D03*
D17*
X28550000Y4475000D03*
D16*
X28550000Y3225000D03*
D22*
X14795000Y39015000D03*
D23*
X13295000Y34695000D03*
D24*
X16295000Y34695000D03*
X13295000Y31695000D03*
X16295000Y31695000D03*
D17*
X11350000Y4475000D03*
D16*
X11350000Y3225000D03*
M02*
