G04 #@! TF.GenerationSoftware,KiCad,Pcbnew,5.99.0-unknown-293f207356~131~ubuntu20.04.1*
G04 #@! TF.CreationDate,2021-07-30T20:50:04-07:00*
G04 #@! TF.ProjectId,Huvud,48757675-642e-46b6-9963-61645f706362,rev?*
G04 #@! TF.SameCoordinates,PXad91980PY876bf80*
G04 #@! TF.FileFunction,Copper,L4,Bot*
G04 #@! TF.FilePolarity,Positive*
%FSLAX46Y46*%
G04 Gerber Fmt 4.6, Leading zero omitted, Abs format (unit mm)*
G04 Created by KiCad (PCBNEW 5.99.0-unknown-293f207356~131~ubuntu20.04.1) date 2021-07-30 20:50:04*
%MOMM*%
%LPD*%
G01*
G04 APERTURE LIST*
G04 Aperture macros list*
%AMRoundRect*
0 Rectangle with rounded corners*
0 $1 Rounding radius*
0 $2 $3 $4 $5 $6 $7 $8 $9 X,Y pos of 4 corners*
0 Add a 4 corners polygon primitive as box body*
4,1,4,$2,$3,$4,$5,$6,$7,$8,$9,$2,$3,0*
0 Add four circle primitives for the rounded corners*
1,1,$1+$1,$2,$3*
1,1,$1+$1,$4,$5*
1,1,$1+$1,$6,$7*
1,1,$1+$1,$8,$9*
0 Add four rect primitives between the rounded corners*
20,1,$1+$1,$2,$3,$4,$5,0*
20,1,$1+$1,$4,$5,$6,$7,0*
20,1,$1+$1,$6,$7,$8,$9,0*
20,1,$1+$1,$8,$9,$2,$3,0*%
G04 Aperture macros list end*
G04 #@! TA.AperFunction,ComponentPad*
%ADD10RoundRect,0.250000X0.625000X-0.350000X0.625000X0.350000X-0.625000X0.350000X-0.625000X-0.350000X0*%
G04 #@! TD*
G04 #@! TA.AperFunction,ComponentPad*
%ADD11O,1.750000X1.200000*%
G04 #@! TD*
G04 #@! TA.AperFunction,ComponentPad*
%ADD12C,0.800000*%
G04 #@! TD*
G04 #@! TA.AperFunction,ComponentPad*
%ADD13C,6.400000*%
G04 #@! TD*
G04 #@! TA.AperFunction,ComponentPad*
%ADD14R,1.700000X1.700000*%
G04 #@! TD*
G04 #@! TA.AperFunction,ComponentPad*
%ADD15O,1.700000X1.700000*%
G04 #@! TD*
G04 #@! TA.AperFunction,ComponentPad*
%ADD16R,2.100000X2.100000*%
G04 #@! TD*
G04 #@! TA.AperFunction,ComponentPad*
%ADD17C,2.100000*%
G04 #@! TD*
G04 #@! TA.AperFunction,ComponentPad*
%ADD18RoundRect,0.250000X0.725000X-0.600000X0.725000X0.600000X-0.725000X0.600000X-0.725000X-0.600000X0*%
G04 #@! TD*
G04 #@! TA.AperFunction,ComponentPad*
%ADD19O,1.950000X1.700000*%
G04 #@! TD*
G04 #@! TA.AperFunction,ViaPad*
%ADD20C,0.600000*%
G04 #@! TD*
G04 #@! TA.AperFunction,ViaPad*
%ADD21C,0.800000*%
G04 #@! TD*
G04 #@! TA.AperFunction,ViaPad*
%ADD22C,1.000000*%
G04 #@! TD*
G04 #@! TA.AperFunction,Conductor*
%ADD23C,0.250000*%
G04 #@! TD*
G04 #@! TA.AperFunction,Conductor*
%ADD24C,0.800000*%
G04 #@! TD*
G04 #@! TA.AperFunction,Conductor*
%ADD25C,0.400000*%
G04 #@! TD*
G04 #@! TA.AperFunction,Conductor*
%ADD26C,0.200000*%
G04 #@! TD*
G04 #@! TA.AperFunction,Conductor*
%ADD27C,0.000000*%
G04 #@! TD*
G04 APERTURE END LIST*
D10*
X2100000Y11500000D03*
D11*
X2100000Y13500000D03*
X2100000Y15500000D03*
X2100000Y17500000D03*
X2100000Y19500000D03*
D10*
X23250000Y2500000D03*
D11*
X23250000Y4500000D03*
D12*
X36500000Y34100000D03*
X34802944Y38197056D03*
X36500000Y38900000D03*
X34100000Y36500000D03*
X38900000Y36500000D03*
X38197056Y38197056D03*
X34802944Y34802944D03*
D13*
X36500000Y36500000D03*
D12*
X38197056Y34802944D03*
X38197056Y3802944D03*
X36500000Y3100000D03*
X36500000Y7900000D03*
X38197056Y7197056D03*
X38900000Y5500000D03*
X34802944Y3802944D03*
X34802944Y7197056D03*
D13*
X36500000Y5500000D03*
D12*
X34100000Y5500000D03*
D10*
X10850000Y2500000D03*
D11*
X10850000Y4500000D03*
D12*
X3100000Y5500000D03*
X3802944Y3802944D03*
X7900000Y5500000D03*
X5500000Y7900000D03*
D13*
X5500000Y5500000D03*
D12*
X3802944Y7197056D03*
X7197056Y7197056D03*
X5500000Y3100000D03*
X7197056Y3802944D03*
D14*
X4388500Y26024000D03*
D15*
X1848500Y26024000D03*
X4388500Y28564000D03*
X1848500Y28564000D03*
X4388500Y31104000D03*
X1848500Y31104000D03*
D12*
X5500000Y38900000D03*
X7197056Y34802944D03*
X7900000Y36500000D03*
X7197056Y38197056D03*
D13*
X5500000Y36500000D03*
D12*
X3802944Y38197056D03*
X5500000Y34100000D03*
X3802944Y34802944D03*
X3100000Y36500000D03*
D10*
X17050000Y2500000D03*
D11*
X17050000Y4500000D03*
D16*
X28750000Y3750000D03*
D17*
X31290000Y3750000D03*
D18*
X38038500Y12524000D03*
D19*
X38038500Y15024000D03*
X38038500Y17524000D03*
X38038500Y20024000D03*
D16*
X30000000Y38150000D03*
D17*
X27460000Y38150000D03*
D20*
X9900000Y14400000D03*
X12800000Y11000000D03*
D21*
X28400000Y16400000D03*
X17600000Y8900000D03*
X12700000Y21100000D03*
X13700000Y21100000D03*
X5600000Y1200000D03*
X18200000Y10700000D03*
D20*
X23400000Y10700000D03*
D21*
X19200000Y34100000D03*
D20*
X25700000Y35800000D03*
D21*
X7700000Y1200000D03*
D20*
X25600000Y13800000D03*
X7750000Y40800000D03*
X5500000Y11000000D03*
X23400000Y9300000D03*
D21*
X14700000Y25000000D03*
X35700000Y22200000D03*
X28400000Y15100000D03*
D20*
X23500000Y18300000D03*
X7500000Y15100000D03*
D21*
X14900000Y21100000D03*
D20*
X1100000Y36500000D03*
D21*
X38200000Y26700000D03*
D20*
X3300000Y21900000D03*
X18100000Y36700000D03*
D21*
X13700000Y18900000D03*
X28400000Y17600000D03*
X11400000Y24300000D03*
D20*
X21800000Y11300000D03*
X9100000Y24100000D03*
D21*
X12200000Y28300000D03*
X14900000Y20000000D03*
X34700000Y26600000D03*
X27200000Y15200000D03*
X35700000Y10500000D03*
X27200000Y16400000D03*
D20*
X6100000Y17800000D03*
X5500000Y40800000D03*
X22800000Y41000000D03*
X5500000Y12900000D03*
X6900000Y21700000D03*
D21*
X14900000Y18900000D03*
D20*
X23400000Y10000000D03*
D21*
X13700000Y20000000D03*
X12700000Y20000000D03*
X29500000Y17600000D03*
X21200000Y34100000D03*
X28400000Y9100000D03*
X1200000Y5100000D03*
X29500000Y16400000D03*
D20*
X25700000Y38300000D03*
D21*
X29500000Y15100000D03*
X17200000Y34100000D03*
X8200000Y31400000D03*
X12700000Y18900000D03*
X27200000Y17600000D03*
D20*
X20000000Y41000000D03*
X15800000Y11000000D03*
X7500000Y27600000D03*
X27300000Y41000000D03*
D21*
X32400000Y22500000D03*
D20*
X32100000Y6400000D03*
X33000000Y40800000D03*
X40700000Y8200000D03*
D21*
X31300000Y10300000D03*
D22*
X36500000Y29100000D03*
D20*
X40800000Y36500000D03*
X29700000Y40800000D03*
D21*
X31300000Y9200000D03*
X32400000Y23500000D03*
D20*
X36200000Y1200000D03*
X24300000Y38600000D03*
X38100000Y9700000D03*
D22*
X31600000Y28800000D03*
D21*
X31300000Y22500000D03*
X32400000Y10300000D03*
D22*
X32317000Y26983000D03*
D21*
X31300000Y23500000D03*
X32400000Y9200000D03*
D22*
X33700000Y30500000D03*
D20*
X33300000Y1800000D03*
D22*
X23115700Y20692100D03*
D20*
X29400000Y35300000D03*
D22*
X31400000Y32000000D03*
D20*
X19931700Y22775900D03*
X5000000Y21300000D03*
X6100000Y14300000D03*
X7202700Y24329700D03*
X13958100Y14403800D03*
X24872200Y23110600D03*
X4521800Y24086000D03*
X13050000Y23277600D03*
X5959900Y28550700D03*
X26000000Y9300000D03*
X25200000Y9300000D03*
X26000000Y10300000D03*
X25200000Y10300000D03*
X11676800Y10600000D03*
X10420000Y16100100D03*
X14641200Y15746100D03*
X18792200Y19732600D03*
X21589700Y9160000D03*
X11000000Y17250000D03*
X17900000Y20400000D03*
X18400000Y17600000D03*
X24234300Y16458000D03*
X10481800Y20145700D03*
X15500000Y15350000D03*
X22795200Y14718800D03*
X21159400Y16073300D03*
X16200000Y15600000D03*
X16500000Y24300000D03*
D21*
X12294000Y30900000D03*
X18036000Y22400000D03*
X13221000Y30900000D03*
X18964000Y22400000D03*
D20*
X11445200Y16107200D03*
X15407000Y12040100D03*
X13664000Y15777200D03*
X13000000Y12762300D03*
D21*
X29200000Y12400000D03*
X30200000Y11300000D03*
X39000000Y23700000D03*
X30200000Y12400000D03*
X29200000Y11300000D03*
X37700000Y23700000D03*
X35400000Y23900000D03*
X29200000Y21300000D03*
X34300000Y23900000D03*
X30200000Y20300000D03*
X30200000Y21300000D03*
X29200000Y20300000D03*
D20*
X17273100Y10509700D03*
X18550000Y9682900D03*
X3467600Y24427300D03*
X9900000Y20700000D03*
X15876500Y16815100D03*
X10286300Y22731000D03*
X6070700Y21694300D03*
X16050000Y17550000D03*
X15900000Y14050000D03*
X7250000Y12462500D03*
X10102800Y12857500D03*
X17132400Y19513200D03*
X14300000Y12050000D03*
X7250000Y10637500D03*
X9334700Y16000000D03*
X9440400Y10709400D03*
D21*
X19200000Y30100000D03*
X17200000Y30100000D03*
X20900000Y30100000D03*
D20*
X23500000Y13700000D03*
X14801100Y23314700D03*
D23*
X9900000Y14400000D02*
X12800000Y11500000D01*
X12800000Y11500000D02*
X12800000Y11000000D01*
D24*
X5000000Y23607800D02*
X4521800Y24086000D01*
D25*
X8850000Y15100000D02*
X8000000Y14250000D01*
X8000000Y14250000D02*
X6150000Y14250000D01*
X11296200Y14403800D02*
X10600000Y15100000D01*
X10600000Y15100000D02*
X8850000Y15100000D01*
D24*
X5000000Y21300000D02*
X5000000Y23607800D01*
D25*
X13958100Y14403800D02*
X11296200Y14403800D01*
X6150000Y14250000D02*
X6100000Y14300000D01*
D23*
X18400000Y17600000D02*
X18400000Y18700000D01*
X17900000Y19200000D02*
X17900000Y20400000D01*
X18400000Y18700000D02*
X18000000Y19100000D01*
X18000000Y19100000D02*
X17900000Y19200000D01*
D24*
X38038000Y12524000D02*
X36124000Y12524000D01*
D26*
X39074000Y12524000D02*
X40050000Y13500000D01*
X38038000Y12524000D02*
X38038500Y12524000D01*
X40050000Y22650000D02*
X39000000Y23700000D01*
X40050000Y13500000D02*
X40050000Y22650000D01*
X38038500Y12524000D02*
X39074000Y12524000D01*
X36124000Y12524000D02*
X36100000Y12500000D01*
X38650000Y22750000D02*
X37700000Y23700000D01*
D27*
X38038500Y15024000D02*
X38038300Y15024200D01*
D26*
X39700000Y21700000D02*
X39700000Y16685500D01*
X38650000Y22750000D02*
X39700000Y21700000D01*
X39700000Y16685500D02*
X38038500Y15024000D01*
X38038300Y17524300D02*
X39203000Y18689000D01*
X39203000Y18689000D02*
X39203000Y21197000D01*
X39203000Y21197000D02*
X36500000Y23900000D01*
D27*
X38038300Y17524200D02*
X38038300Y17524300D01*
D26*
X36500000Y23900000D02*
X35400000Y23900000D01*
D27*
X38038500Y17524000D02*
X38038300Y17524200D01*
D26*
X34300000Y23600000D02*
X34300000Y23900000D01*
X34650000Y23250000D02*
X34300000Y23600000D01*
X36100000Y20100000D02*
X36176000Y20024000D01*
X38038000Y21562000D02*
X36350000Y23250000D01*
D24*
X38038000Y20024000D02*
X36176000Y20024000D01*
D26*
X36350000Y23250000D02*
X34650000Y23250000D01*
X38038000Y20024000D02*
X38038000Y21562000D01*
G04 #@! TA.AperFunction,Conductor*
G36*
X28823498Y19334142D02*
G01*
X31284512Y19129639D01*
X36840747Y18667933D01*
X36906978Y18642359D01*
X36948868Y18585037D01*
X36953117Y18514168D01*
X36917285Y18451196D01*
X36892365Y18427424D01*
X36754746Y18242458D01*
X36650260Y18036949D01*
X36581893Y17816773D01*
X36551602Y17588226D01*
X36560251Y17357842D01*
X36607593Y17132209D01*
X36692276Y16917779D01*
X36811877Y16720683D01*
X36962977Y16546555D01*
X36967108Y16543168D01*
X37137127Y16403760D01*
X37137133Y16403756D01*
X37141255Y16400376D01*
X37172750Y16382448D01*
X37222055Y16331368D01*
X37235917Y16261738D01*
X37209934Y16195667D01*
X37180784Y16168427D01*
X37059181Y16086559D01*
X36892365Y15927424D01*
X36754746Y15742458D01*
X36650260Y15536949D01*
X36581893Y15316773D01*
X36551602Y15088226D01*
X36560251Y14857842D01*
X36607593Y14632209D01*
X36692276Y14417779D01*
X36811877Y14220683D01*
X36962977Y14046555D01*
X36998621Y14017329D01*
X37038614Y13958670D01*
X37040545Y13887699D01*
X37003800Y13826951D01*
X36985032Y13812753D01*
X36959232Y13796787D01*
X36897107Y13779377D01*
X36897181Y13778214D01*
X31746744Y13450000D01*
X28650000Y13450000D01*
X28650000Y19350000D01*
X28754434Y19350000D01*
X28823498Y19334142D01*
G37*
G04 #@! TD.AperFunction*
G04 #@! TA.AperFunction,Conductor*
G36*
X36998742Y13255613D02*
G01*
X37048553Y13205022D01*
X37063500Y13145497D01*
X37063500Y12942115D01*
X37067975Y12926876D01*
X37069365Y12925671D01*
X37077048Y12924000D01*
X38312500Y12924000D01*
X38380621Y12903998D01*
X38427114Y12850342D01*
X38438500Y12798000D01*
X38438500Y12250000D01*
X38418498Y12181879D01*
X38364842Y12135386D01*
X38312500Y12124000D01*
X37081615Y12124000D01*
X37066376Y12119525D01*
X37065171Y12118135D01*
X37063500Y12110452D01*
X37063500Y11905563D01*
X37064707Y11893309D01*
X37075585Y11838623D01*
X37084898Y11816138D01*
X37126367Y11754076D01*
X37143576Y11736867D01*
X37171576Y11718158D01*
X37217104Y11663681D01*
X37225952Y11593238D01*
X37195310Y11529194D01*
X37134909Y11491882D01*
X37112649Y11487881D01*
X28887075Y10762095D01*
X28817459Y10776032D01*
X28766431Y10825393D01*
X28750000Y10887607D01*
X28750000Y12631774D01*
X28770002Y12699895D01*
X28823658Y12746388D01*
X28867986Y12757519D01*
X36929488Y13271242D01*
X36998742Y13255613D01*
G37*
G04 #@! TD.AperFunction*
G04 #@! TA.AperFunction,Conductor*
G36*
X37707467Y21105663D02*
G01*
X37773697Y21080089D01*
X37815587Y21022767D01*
X37819836Y20951898D01*
X37785096Y20889981D01*
X37729584Y20860003D01*
X37729899Y20859067D01*
X37724466Y20857239D01*
X37724091Y20857036D01*
X37723436Y20856892D01*
X37561333Y20802338D01*
X37549011Y20796645D01*
X37402413Y20708559D01*
X37391599Y20700351D01*
X37267334Y20582839D01*
X37258542Y20572508D01*
X37164035Y20433447D01*
X37163399Y20426780D01*
X37168215Y20424000D01*
X38088500Y20424000D01*
X38088500Y19624000D01*
X37181592Y19624000D01*
X37168061Y19620027D01*
X37167645Y19617129D01*
X37168519Y19614437D01*
X37201480Y19551921D01*
X37209067Y19540671D01*
X37319461Y19410038D01*
X37329287Y19400681D01*
X37374341Y19366235D01*
X37416309Y19308970D01*
X37420654Y19238106D01*
X37385998Y19176143D01*
X37323344Y19142752D01*
X37287378Y19140571D01*
X28865566Y19840397D01*
X28799335Y19865971D01*
X28757445Y19923293D01*
X28750000Y19965964D01*
X28750000Y21713096D01*
X28770002Y21781217D01*
X28823658Y21827710D01*
X28886433Y21838663D01*
X37707467Y21105663D01*
G37*
G04 #@! TD.AperFunction*
G04 #@! TA.AperFunction,Conductor*
G36*
X8450246Y41579998D02*
G01*
X8471220Y41563095D01*
X9272358Y40761957D01*
X9272359Y40761955D01*
X9361955Y40672359D01*
X9370789Y40667858D01*
X9381519Y40662391D01*
X9398381Y40652057D01*
X9408113Y40644986D01*
X9408117Y40644984D01*
X9416141Y40639154D01*
X9437021Y40632370D01*
X9455289Y40624803D01*
X9466014Y40619338D01*
X9466016Y40619337D01*
X9474852Y40614835D01*
X9484646Y40613284D01*
X9484649Y40613283D01*
X9496529Y40611402D01*
X9515759Y40606785D01*
X9527210Y40603064D01*
X9527216Y40603063D01*
X9536646Y40599999D01*
X9663354Y40599999D01*
X9663356Y40600000D01*
X17563354Y40600000D01*
X17584247Y40606788D01*
X17603457Y40611400D01*
X17605936Y40611792D01*
X17615352Y40613283D01*
X17615355Y40613284D01*
X17625148Y40614835D01*
X17633984Y40619337D01*
X17633986Y40619338D01*
X17644707Y40624801D01*
X17662974Y40632368D01*
X17683860Y40639154D01*
X17701620Y40652057D01*
X17718478Y40662389D01*
X17738045Y40672359D01*
X17827641Y40761955D01*
X17827642Y40761957D01*
X17865685Y40800000D01*
X29140715Y40800000D01*
X29141793Y40791812D01*
X29158112Y40667858D01*
X29159772Y40655246D01*
X29215645Y40520358D01*
X29304526Y40404526D01*
X29311076Y40399500D01*
X29311079Y40399497D01*
X29413804Y40320673D01*
X29420357Y40315645D01*
X29555246Y40259772D01*
X29700000Y40240715D01*
X29708188Y40241793D01*
X29836566Y40258694D01*
X29844754Y40259772D01*
X29979643Y40315645D01*
X29986196Y40320673D01*
X30088921Y40399497D01*
X30088924Y40399500D01*
X30095474Y40404526D01*
X30184355Y40520358D01*
X30240228Y40655246D01*
X30241889Y40667858D01*
X30258207Y40791812D01*
X30259285Y40800000D01*
X32440715Y40800000D01*
X32441793Y40791812D01*
X32458112Y40667858D01*
X32459772Y40655246D01*
X32515645Y40520358D01*
X32604526Y40404526D01*
X32611076Y40399500D01*
X32611079Y40399497D01*
X32713804Y40320673D01*
X32720357Y40315645D01*
X32855246Y40259772D01*
X33000000Y40240715D01*
X33008188Y40241793D01*
X33136566Y40258694D01*
X33144754Y40259772D01*
X33279643Y40315645D01*
X33286196Y40320673D01*
X33388921Y40399497D01*
X33388924Y40399500D01*
X33395474Y40404526D01*
X33484355Y40520358D01*
X33540228Y40655246D01*
X33541889Y40667858D01*
X33558207Y40791812D01*
X33559285Y40800000D01*
X33540228Y40944754D01*
X33484355Y41079642D01*
X33395474Y41195474D01*
X33388924Y41200500D01*
X33388921Y41200503D01*
X33286196Y41279327D01*
X33286194Y41279328D01*
X33279643Y41284355D01*
X33144754Y41340228D01*
X33077531Y41349078D01*
X33012604Y41377800D01*
X33002200Y41393574D01*
X33001247Y41391488D01*
X32941521Y41353104D01*
X32922469Y41349078D01*
X32863432Y41341306D01*
X32863430Y41341305D01*
X32855246Y41340228D01*
X32807430Y41320422D01*
X32727986Y41287515D01*
X32727984Y41287514D01*
X32720358Y41284355D01*
X32604526Y41195474D01*
X32515645Y41079642D01*
X32459772Y40944754D01*
X32440715Y40800000D01*
X30259285Y40800000D01*
X30240228Y40944754D01*
X30184355Y41079642D01*
X30095474Y41195474D01*
X30088924Y41200500D01*
X30088921Y41200503D01*
X29986196Y41279327D01*
X29986194Y41279328D01*
X29979643Y41284355D01*
X29844754Y41340228D01*
X29777531Y41349078D01*
X29712604Y41377800D01*
X29702200Y41393574D01*
X29701247Y41391488D01*
X29641521Y41353104D01*
X29622469Y41349078D01*
X29563432Y41341306D01*
X29563430Y41341305D01*
X29555246Y41340228D01*
X29507430Y41320422D01*
X29427986Y41287515D01*
X29427984Y41287514D01*
X29420358Y41284355D01*
X29304526Y41195474D01*
X29215645Y41079642D01*
X29159772Y40944754D01*
X29140715Y40800000D01*
X17865685Y40800000D01*
X18628780Y41563095D01*
X18691092Y41597121D01*
X18717875Y41600000D01*
X29606023Y41600000D01*
X29674144Y41579998D01*
X29699432Y41550814D01*
X29710337Y41568236D01*
X29774562Y41598495D01*
X29793977Y41600000D01*
X32906023Y41600000D01*
X32974144Y41579998D01*
X32999432Y41550814D01*
X33010337Y41568236D01*
X33074562Y41598495D01*
X33093977Y41600000D01*
X37782125Y41600000D01*
X37850246Y41579998D01*
X37871220Y41563095D01*
X41563095Y37871220D01*
X41597121Y37808908D01*
X41600000Y37782125D01*
X41600000Y36593977D01*
X41579998Y36525856D01*
X41550814Y36500568D01*
X41568236Y36489663D01*
X41598495Y36425438D01*
X41600000Y36406023D01*
X41600000Y4217875D01*
X41579998Y4149754D01*
X41563095Y4128780D01*
X37871220Y436905D01*
X37808908Y402879D01*
X37782125Y400000D01*
X36293977Y400000D01*
X36225856Y420002D01*
X36200568Y449186D01*
X36189663Y431764D01*
X36125438Y401505D01*
X36106023Y400000D01*
X4217875Y400000D01*
X4149754Y420002D01*
X4128780Y436905D01*
X3365685Y1200000D01*
X35640715Y1200000D01*
X35659772Y1055246D01*
X35715645Y920358D01*
X35804526Y804526D01*
X35811076Y799500D01*
X35811079Y799497D01*
X35913804Y720673D01*
X35920357Y715645D01*
X36055246Y659772D01*
X36063434Y658694D01*
X36122469Y650922D01*
X36187396Y622200D01*
X36197800Y606426D01*
X36198753Y608512D01*
X36258479Y646896D01*
X36277531Y650922D01*
X36336566Y658694D01*
X36344754Y659772D01*
X36479643Y715645D01*
X36486196Y720673D01*
X36588921Y799497D01*
X36588924Y799500D01*
X36595474Y804526D01*
X36684355Y920358D01*
X36740228Y1055246D01*
X36759285Y1200000D01*
X36744060Y1315645D01*
X36741306Y1336568D01*
X36741305Y1336570D01*
X36740228Y1344754D01*
X36720422Y1392570D01*
X36687515Y1472014D01*
X36687514Y1472016D01*
X36684355Y1479642D01*
X36595474Y1595474D01*
X36588924Y1600500D01*
X36588921Y1600503D01*
X36486196Y1679327D01*
X36486194Y1679328D01*
X36479643Y1684355D01*
X36344754Y1740228D01*
X36200000Y1759285D01*
X36176255Y1756159D01*
X36063432Y1741306D01*
X36063430Y1741305D01*
X36055246Y1740228D01*
X36007430Y1720422D01*
X35927986Y1687515D01*
X35927984Y1687514D01*
X35920358Y1684355D01*
X35804526Y1595474D01*
X35715645Y1479642D01*
X35712486Y1472016D01*
X35712485Y1472014D01*
X35679578Y1392570D01*
X35659772Y1344754D01*
X35658695Y1336570D01*
X35658694Y1336568D01*
X35655940Y1315645D01*
X35640715Y1200000D01*
X3365685Y1200000D01*
X1667929Y2897756D01*
X9720500Y2897756D01*
X9720500Y2102244D01*
X9727202Y2040552D01*
X9777929Y1905236D01*
X9783309Y1898057D01*
X9783311Y1898054D01*
X9834415Y1829867D01*
X9864596Y1789596D01*
X9871776Y1784215D01*
X9973054Y1708311D01*
X9973057Y1708309D01*
X9980236Y1702929D01*
X10069954Y1669296D01*
X10108157Y1654974D01*
X10108159Y1654974D01*
X10115552Y1652202D01*
X10123402Y1651349D01*
X10123403Y1651349D01*
X10157729Y1647620D01*
X10177244Y1645500D01*
X11522756Y1645500D01*
X11542271Y1647620D01*
X11576597Y1651349D01*
X11576598Y1651349D01*
X11584448Y1652202D01*
X11591841Y1654974D01*
X11591843Y1654974D01*
X11630046Y1669296D01*
X11719764Y1702929D01*
X11726943Y1708309D01*
X11726946Y1708311D01*
X11828224Y1784215D01*
X11835404Y1789596D01*
X11865585Y1829867D01*
X11916689Y1898054D01*
X11916691Y1898057D01*
X11922071Y1905236D01*
X11972798Y2040552D01*
X11979500Y2102244D01*
X11979500Y2897756D01*
X15920500Y2897756D01*
X15920500Y2102244D01*
X15927202Y2040552D01*
X15977929Y1905236D01*
X15983309Y1898057D01*
X15983311Y1898054D01*
X16034415Y1829867D01*
X16064596Y1789596D01*
X16071776Y1784215D01*
X16173054Y1708311D01*
X16173057Y1708309D01*
X16180236Y1702929D01*
X16269954Y1669296D01*
X16308157Y1654974D01*
X16308159Y1654974D01*
X16315552Y1652202D01*
X16323402Y1651349D01*
X16323403Y1651349D01*
X16357729Y1647620D01*
X16377244Y1645500D01*
X17722756Y1645500D01*
X17742271Y1647620D01*
X17776597Y1651349D01*
X17776598Y1651349D01*
X17784448Y1652202D01*
X17791841Y1654974D01*
X17791843Y1654974D01*
X17830046Y1669296D01*
X17919764Y1702929D01*
X17926943Y1708309D01*
X17926946Y1708311D01*
X18028224Y1784215D01*
X18035404Y1789596D01*
X18065585Y1829867D01*
X18116689Y1898054D01*
X18116691Y1898057D01*
X18122071Y1905236D01*
X18172798Y2040552D01*
X18179500Y2102244D01*
X18179500Y2897756D01*
X22120500Y2897756D01*
X22120500Y2102244D01*
X22127202Y2040552D01*
X22177929Y1905236D01*
X22183309Y1898057D01*
X22183311Y1898054D01*
X22234415Y1829867D01*
X22264596Y1789596D01*
X22271776Y1784215D01*
X22373054Y1708311D01*
X22373057Y1708309D01*
X22380236Y1702929D01*
X22469954Y1669296D01*
X22508157Y1654974D01*
X22508159Y1654974D01*
X22515552Y1652202D01*
X22523402Y1651349D01*
X22523403Y1651349D01*
X22557729Y1647620D01*
X22577244Y1645500D01*
X23922756Y1645500D01*
X23942271Y1647620D01*
X23976597Y1651349D01*
X23976598Y1651349D01*
X23984448Y1652202D01*
X23991841Y1654974D01*
X23991843Y1654974D01*
X24030046Y1669296D01*
X24119764Y1702929D01*
X24126943Y1708309D01*
X24126946Y1708311D01*
X24228224Y1784215D01*
X24235404Y1789596D01*
X24265585Y1829867D01*
X24316689Y1898054D01*
X24316691Y1898057D01*
X24322071Y1905236D01*
X24372798Y2040552D01*
X24379500Y2102244D01*
X24379500Y2897756D01*
X24377866Y2912795D01*
X24373651Y2951597D01*
X24373651Y2951598D01*
X24372798Y2959448D01*
X24322071Y3094764D01*
X24316691Y3101943D01*
X24316689Y3101946D01*
X24240785Y3203224D01*
X24235404Y3210404D01*
X24214977Y3225713D01*
X24126946Y3291689D01*
X24126943Y3291691D01*
X24119764Y3297071D01*
X24030046Y3330704D01*
X23991843Y3345026D01*
X23991841Y3345026D01*
X23984448Y3347798D01*
X23976598Y3348651D01*
X23976597Y3348651D01*
X23926153Y3354131D01*
X23926152Y3354131D01*
X23922756Y3354500D01*
X22577244Y3354500D01*
X22573848Y3354131D01*
X22573847Y3354131D01*
X22523403Y3348651D01*
X22523402Y3348651D01*
X22515552Y3347798D01*
X22508159Y3345026D01*
X22508157Y3345026D01*
X22469954Y3330704D01*
X22380236Y3297071D01*
X22373057Y3291691D01*
X22373054Y3291689D01*
X22285023Y3225713D01*
X22264596Y3210404D01*
X22259215Y3203224D01*
X22183311Y3101946D01*
X22183309Y3101943D01*
X22177929Y3094764D01*
X22127202Y2959448D01*
X22126349Y2951598D01*
X22126349Y2951597D01*
X22122134Y2912795D01*
X22120500Y2897756D01*
X18179500Y2897756D01*
X18177866Y2912795D01*
X18173651Y2951597D01*
X18173651Y2951598D01*
X18172798Y2959448D01*
X18122071Y3094764D01*
X18116691Y3101943D01*
X18116689Y3101946D01*
X18040785Y3203224D01*
X18035404Y3210404D01*
X18014977Y3225713D01*
X17926946Y3291689D01*
X17926943Y3291691D01*
X17919764Y3297071D01*
X17830046Y3330704D01*
X17791843Y3345026D01*
X17791841Y3345026D01*
X17784448Y3347798D01*
X17776598Y3348651D01*
X17776597Y3348651D01*
X17726153Y3354131D01*
X17726152Y3354131D01*
X17722756Y3354500D01*
X16377244Y3354500D01*
X16373848Y3354131D01*
X16373847Y3354131D01*
X16323403Y3348651D01*
X16323402Y3348651D01*
X16315552Y3347798D01*
X16308159Y3345026D01*
X16308157Y3345026D01*
X16269954Y3330704D01*
X16180236Y3297071D01*
X16173057Y3291691D01*
X16173054Y3291689D01*
X16085023Y3225713D01*
X16064596Y3210404D01*
X16059215Y3203224D01*
X15983311Y3101946D01*
X15983309Y3101943D01*
X15977929Y3094764D01*
X15927202Y2959448D01*
X15926349Y2951598D01*
X15926349Y2951597D01*
X15922134Y2912795D01*
X15920500Y2897756D01*
X11979500Y2897756D01*
X11977866Y2912795D01*
X11973651Y2951597D01*
X11973651Y2951598D01*
X11972798Y2959448D01*
X11922071Y3094764D01*
X11916691Y3101943D01*
X11916689Y3101946D01*
X11840785Y3203224D01*
X11835404Y3210404D01*
X11814977Y3225713D01*
X11726946Y3291689D01*
X11726943Y3291691D01*
X11719764Y3297071D01*
X11630046Y3330704D01*
X11591843Y3345026D01*
X11591841Y3345026D01*
X11584448Y3347798D01*
X11576598Y3348651D01*
X11576597Y3348651D01*
X11526153Y3354131D01*
X11526152Y3354131D01*
X11522756Y3354500D01*
X10177244Y3354500D01*
X10173848Y3354131D01*
X10173847Y3354131D01*
X10123403Y3348651D01*
X10123402Y3348651D01*
X10115552Y3347798D01*
X10108159Y3345026D01*
X10108157Y3345026D01*
X10069954Y3330704D01*
X9980236Y3297071D01*
X9973057Y3291691D01*
X9973054Y3291689D01*
X9885023Y3225713D01*
X9864596Y3210404D01*
X9859215Y3203224D01*
X9783311Y3101946D01*
X9783309Y3101943D01*
X9777929Y3094764D01*
X9727202Y2959448D01*
X9726349Y2951598D01*
X9726349Y2951597D01*
X9722134Y2912795D01*
X9720500Y2897756D01*
X1667929Y2897756D01*
X436905Y4128780D01*
X402879Y4191092D01*
X400000Y4217875D01*
X400000Y4547981D01*
X9716801Y4547981D01*
X9717158Y4541164D01*
X9717158Y4541160D01*
X9725077Y4390080D01*
X9726518Y4362576D01*
X9728328Y4356004D01*
X9728329Y4355999D01*
X9754079Y4262516D01*
X9775821Y4183583D01*
X9862410Y4019352D01*
X9982245Y3877546D01*
X9987668Y3873399D01*
X9987670Y3873398D01*
X10124315Y3768925D01*
X10124319Y3768923D01*
X10129736Y3764781D01*
X10135916Y3761899D01*
X10135918Y3761898D01*
X10291823Y3689198D01*
X10291826Y3689197D01*
X10298000Y3686318D01*
X10304648Y3684832D01*
X10304651Y3684831D01*
X10403711Y3662689D01*
X10479188Y3645818D01*
X10484876Y3645500D01*
X11171385Y3645500D01*
X11309573Y3660512D01*
X11430210Y3701111D01*
X11479064Y3717552D01*
X11479066Y3717553D01*
X11485535Y3719730D01*
X11644677Y3815351D01*
X11649634Y3820039D01*
X11649637Y3820041D01*
X11774614Y3938227D01*
X11774616Y3938229D01*
X11779572Y3942916D01*
X11883928Y4096471D01*
X11916355Y4177544D01*
X11950342Y4262516D01*
X11950343Y4262521D01*
X11952876Y4268853D01*
X11953990Y4275580D01*
X11953991Y4275585D01*
X11982084Y4445282D01*
X11982084Y4445285D01*
X11983199Y4452019D01*
X11978170Y4547981D01*
X15916801Y4547981D01*
X15917158Y4541164D01*
X15917158Y4541160D01*
X15925077Y4390080D01*
X15926518Y4362576D01*
X15928328Y4356004D01*
X15928329Y4355999D01*
X15954079Y4262516D01*
X15975821Y4183583D01*
X16062410Y4019352D01*
X16182245Y3877546D01*
X16187668Y3873399D01*
X16187670Y3873398D01*
X16324315Y3768925D01*
X16324319Y3768923D01*
X16329736Y3764781D01*
X16335916Y3761899D01*
X16335918Y3761898D01*
X16491823Y3689198D01*
X16491826Y3689197D01*
X16498000Y3686318D01*
X16504648Y3684832D01*
X16504651Y3684831D01*
X16603711Y3662689D01*
X16679188Y3645818D01*
X16684876Y3645500D01*
X17371385Y3645500D01*
X17509573Y3660512D01*
X17630210Y3701111D01*
X17679064Y3717552D01*
X17679066Y3717553D01*
X17685535Y3719730D01*
X17844677Y3815351D01*
X17849634Y3820039D01*
X17849637Y3820041D01*
X17974614Y3938227D01*
X17974616Y3938229D01*
X17979572Y3942916D01*
X18083928Y4096471D01*
X18116355Y4177544D01*
X18150342Y4262516D01*
X18150343Y4262521D01*
X18152876Y4268853D01*
X18153990Y4275580D01*
X18153991Y4275585D01*
X18182084Y4445282D01*
X18182084Y4445285D01*
X18183199Y4452019D01*
X18178170Y4547981D01*
X22116801Y4547981D01*
X22117158Y4541164D01*
X22117158Y4541160D01*
X22125077Y4390080D01*
X22126518Y4362576D01*
X22128328Y4356004D01*
X22128329Y4355999D01*
X22154079Y4262516D01*
X22175821Y4183583D01*
X22262410Y4019352D01*
X22382245Y3877546D01*
X22387668Y3873399D01*
X22387670Y3873398D01*
X22524315Y3768925D01*
X22524319Y3768923D01*
X22529736Y3764781D01*
X22535916Y3761899D01*
X22535918Y3761898D01*
X22691823Y3689198D01*
X22691826Y3689197D01*
X22698000Y3686318D01*
X22704648Y3684832D01*
X22704651Y3684831D01*
X22803711Y3662689D01*
X22879188Y3645818D01*
X22884876Y3645500D01*
X23571385Y3645500D01*
X23709573Y3660512D01*
X23830210Y3701111D01*
X23879064Y3717552D01*
X23879066Y3717553D01*
X23885535Y3719730D01*
X24044677Y3815351D01*
X24049634Y3820039D01*
X24049637Y3820041D01*
X24174614Y3938227D01*
X24174616Y3938229D01*
X24179572Y3942916D01*
X24283928Y4096471D01*
X24316355Y4177544D01*
X24350342Y4262516D01*
X24350343Y4262521D01*
X24352876Y4268853D01*
X24353990Y4275580D01*
X24353991Y4275585D01*
X24382084Y4445282D01*
X24382084Y4445285D01*
X24383199Y4452019D01*
X24376298Y4583703D01*
X24373839Y4630611D01*
X24373482Y4637424D01*
X24371672Y4643996D01*
X24371671Y4644001D01*
X24325992Y4809835D01*
X24324179Y4816417D01*
X24237590Y4980648D01*
X24117755Y5122454D01*
X24112330Y5126602D01*
X23975685Y5231075D01*
X23975681Y5231077D01*
X23970264Y5235219D01*
X23964084Y5238101D01*
X23964082Y5238102D01*
X23808177Y5310802D01*
X23808174Y5310803D01*
X23802000Y5313682D01*
X23795352Y5315168D01*
X23795349Y5315169D01*
X23625849Y5353056D01*
X23625850Y5353056D01*
X23620812Y5354182D01*
X23615124Y5354500D01*
X22928615Y5354500D01*
X22790427Y5339488D01*
X22705189Y5310802D01*
X22620936Y5282448D01*
X22620934Y5282447D01*
X22614465Y5280270D01*
X22455323Y5184649D01*
X22450366Y5179961D01*
X22450363Y5179959D01*
X22325386Y5061773D01*
X22320428Y5057084D01*
X22216072Y4903529D01*
X22213539Y4897195D01*
X22213537Y4897192D01*
X22149658Y4737484D01*
X22149657Y4737479D01*
X22147124Y4731147D01*
X22146010Y4724420D01*
X22146009Y4724415D01*
X22120048Y4567596D01*
X22116801Y4547981D01*
X18178170Y4547981D01*
X18176298Y4583703D01*
X18173839Y4630611D01*
X18173482Y4637424D01*
X18171672Y4643996D01*
X18171671Y4644001D01*
X18125992Y4809835D01*
X18124179Y4816417D01*
X18037590Y4980648D01*
X17917755Y5122454D01*
X17912330Y5126602D01*
X17775685Y5231075D01*
X17775681Y5231077D01*
X17770264Y5235219D01*
X17764084Y5238101D01*
X17764082Y5238102D01*
X17608177Y5310802D01*
X17608174Y5310803D01*
X17602000Y5313682D01*
X17595352Y5315168D01*
X17595349Y5315169D01*
X17425849Y5353056D01*
X17425850Y5353056D01*
X17420812Y5354182D01*
X17415124Y5354500D01*
X16728615Y5354500D01*
X16590427Y5339488D01*
X16505189Y5310802D01*
X16420936Y5282448D01*
X16420934Y5282447D01*
X16414465Y5280270D01*
X16255323Y5184649D01*
X16250366Y5179961D01*
X16250363Y5179959D01*
X16125386Y5061773D01*
X16120428Y5057084D01*
X16016072Y4903529D01*
X16013539Y4897195D01*
X16013537Y4897192D01*
X15949658Y4737484D01*
X15949657Y4737479D01*
X15947124Y4731147D01*
X15946010Y4724420D01*
X15946009Y4724415D01*
X15920048Y4567596D01*
X15916801Y4547981D01*
X11978170Y4547981D01*
X11976298Y4583703D01*
X11973839Y4630611D01*
X11973482Y4637424D01*
X11971672Y4643996D01*
X11971671Y4644001D01*
X11925992Y4809835D01*
X11924179Y4816417D01*
X11837590Y4980648D01*
X11717755Y5122454D01*
X11712330Y5126602D01*
X11575685Y5231075D01*
X11575681Y5231077D01*
X11570264Y5235219D01*
X11564084Y5238101D01*
X11564082Y5238102D01*
X11408177Y5310802D01*
X11408174Y5310803D01*
X11402000Y5313682D01*
X11395352Y5315168D01*
X11395349Y5315169D01*
X11225849Y5353056D01*
X11225850Y5353056D01*
X11220812Y5354182D01*
X11215124Y5354500D01*
X10528615Y5354500D01*
X10390427Y5339488D01*
X10305189Y5310802D01*
X10220936Y5282448D01*
X10220934Y5282447D01*
X10214465Y5280270D01*
X10055323Y5184649D01*
X10050366Y5179961D01*
X10050363Y5179959D01*
X9925386Y5061773D01*
X9920428Y5057084D01*
X9816072Y4903529D01*
X9813539Y4897195D01*
X9813537Y4897192D01*
X9749658Y4737484D01*
X9749657Y4737479D01*
X9747124Y4731147D01*
X9746010Y4724420D01*
X9746009Y4724415D01*
X9720048Y4567596D01*
X9716801Y4547981D01*
X400000Y4547981D01*
X400000Y8181072D01*
X24561613Y8181072D01*
X24565487Y8131510D01*
X24574083Y8083185D01*
X24587537Y8035328D01*
X25880867Y4721171D01*
X26496305Y3144112D01*
X26947146Y1988831D01*
X26987198Y1920309D01*
X27036456Y1860117D01*
X27073648Y1823204D01*
X27161465Y1777268D01*
X27229586Y1757266D01*
X27234045Y1756625D01*
X27234049Y1756624D01*
X27255785Y1753499D01*
X27301146Y1746977D01*
X29839062Y1746977D01*
X29842409Y1747337D01*
X29842413Y1747337D01*
X29889688Y1752419D01*
X29889695Y1752420D01*
X29893052Y1752781D01*
X29896353Y1753499D01*
X29943740Y1763807D01*
X29943747Y1763809D01*
X29945394Y1764167D01*
X29971617Y1771361D01*
X30021910Y1800000D01*
X32740715Y1800000D01*
X32741793Y1791812D01*
X32756602Y1679327D01*
X32759772Y1655246D01*
X32762931Y1647620D01*
X32782448Y1600503D01*
X32815645Y1520358D01*
X32904526Y1404526D01*
X32911076Y1399500D01*
X32911079Y1399497D01*
X33013804Y1320673D01*
X33020357Y1315645D01*
X33155246Y1259772D01*
X33300000Y1240715D01*
X33308188Y1241793D01*
X33436566Y1258694D01*
X33444754Y1259772D01*
X33579643Y1315645D01*
X33586196Y1320673D01*
X33688921Y1399497D01*
X33688924Y1399500D01*
X33695474Y1404526D01*
X33784355Y1520358D01*
X33817553Y1600503D01*
X33837069Y1647620D01*
X33840228Y1655246D01*
X33843399Y1679327D01*
X33858207Y1791812D01*
X33859285Y1800000D01*
X33851371Y1860117D01*
X33841306Y1936568D01*
X33841305Y1936570D01*
X33840228Y1944754D01*
X33796181Y2051093D01*
X33787515Y2072014D01*
X33787514Y2072016D01*
X33784355Y2079642D01*
X33695474Y2195474D01*
X33688924Y2200500D01*
X33688921Y2200503D01*
X33586196Y2279327D01*
X33586194Y2279328D01*
X33579643Y2284355D01*
X33444754Y2340228D01*
X33300000Y2359285D01*
X33291812Y2358207D01*
X33163432Y2341306D01*
X33163430Y2341305D01*
X33155246Y2340228D01*
X33107430Y2320422D01*
X33027986Y2287515D01*
X33027984Y2287514D01*
X33020358Y2284355D01*
X32904526Y2195474D01*
X32815645Y2079642D01*
X32812486Y2072016D01*
X32812485Y2072014D01*
X32803819Y2051093D01*
X32759772Y1944754D01*
X32758695Y1936570D01*
X32758694Y1936568D01*
X32748629Y1860117D01*
X32740715Y1800000D01*
X30021910Y1800000D01*
X30052360Y1817339D01*
X30052364Y1817342D01*
X30057738Y1820402D01*
X30103572Y1860117D01*
X30109271Y1865055D01*
X30109276Y1865060D01*
X30111394Y1866895D01*
X30142835Y1899479D01*
X30188771Y1987296D01*
X30208773Y2055417D01*
X30211160Y2072014D01*
X30218420Y2122514D01*
X30219062Y2126977D01*
X30219062Y2375907D01*
X30210309Y2442011D01*
X30193241Y2505334D01*
X30188718Y2518065D01*
X30182871Y2534524D01*
X30182870Y2534527D01*
X30179974Y2542677D01*
X30129768Y2613628D01*
X30126304Y2618524D01*
X30126302Y2618527D01*
X30122728Y2623577D01*
X30093820Y2650978D01*
X30058140Y2712357D01*
X30054500Y2742425D01*
X30054500Y2840530D01*
X30074502Y2908651D01*
X30128158Y2955144D01*
X30198432Y2965248D01*
X30263012Y2935754D01*
X30280035Y2916880D01*
X30280184Y2917005D01*
X30283697Y2912818D01*
X30283712Y2912802D01*
X30286878Y2908281D01*
X30448281Y2746878D01*
X30452790Y2743721D01*
X30452792Y2743719D01*
X30530076Y2689604D01*
X30635258Y2615954D01*
X30640240Y2613631D01*
X30640245Y2613628D01*
X30777252Y2549741D01*
X30842130Y2519488D01*
X30847438Y2518066D01*
X30847440Y2518065D01*
X31057296Y2461835D01*
X31062611Y2460411D01*
X31290000Y2440517D01*
X31517389Y2460411D01*
X31522704Y2461835D01*
X31732560Y2518065D01*
X31732562Y2518066D01*
X31737870Y2519488D01*
X31802748Y2549741D01*
X31939755Y2613628D01*
X31939760Y2613631D01*
X31944742Y2615954D01*
X32049924Y2689604D01*
X32127208Y2743719D01*
X32127210Y2743721D01*
X32131719Y2746878D01*
X32293122Y2908281D01*
X32323453Y2951597D01*
X32350743Y2990572D01*
X32424046Y3095259D01*
X32426369Y3100241D01*
X32426372Y3100246D01*
X32518189Y3297148D01*
X32518190Y3297150D01*
X32520512Y3302130D01*
X32525501Y3320747D01*
X32578165Y3517296D01*
X32578165Y3517297D01*
X32579589Y3522611D01*
X32599483Y3750000D01*
X32579589Y3977389D01*
X32566727Y4025393D01*
X32521935Y4192560D01*
X32521934Y4192562D01*
X32520512Y4197870D01*
X32518189Y4202852D01*
X32426372Y4399754D01*
X32426369Y4399759D01*
X32424046Y4404741D01*
X32323748Y4547981D01*
X32296281Y4587208D01*
X32296279Y4587211D01*
X32293122Y4591719D01*
X32131719Y4753122D01*
X31944742Y4884046D01*
X31939760Y4886369D01*
X31939755Y4886372D01*
X31742852Y4978189D01*
X31742851Y4978190D01*
X31737870Y4980512D01*
X31732562Y4981934D01*
X31732560Y4981935D01*
X31522704Y5038165D01*
X31522703Y5038165D01*
X31517389Y5039589D01*
X31290000Y5059483D01*
X31062611Y5039589D01*
X31057297Y5038165D01*
X31057296Y5038165D01*
X30847440Y4981935D01*
X30847438Y4981934D01*
X30842130Y4980512D01*
X30837150Y4978190D01*
X30837148Y4978189D01*
X30640246Y4886372D01*
X30640241Y4886369D01*
X30635259Y4884046D01*
X30448281Y4753122D01*
X30286878Y4591719D01*
X30283721Y4587210D01*
X30283714Y4587202D01*
X30283708Y4587193D01*
X30283704Y4587190D01*
X30280184Y4582995D01*
X30279341Y4583703D01*
X30228249Y4542867D01*
X30157629Y4535562D01*
X30094270Y4567596D01*
X30058289Y4628799D01*
X30054499Y4659469D01*
X30054499Y4825066D01*
X30043396Y4880889D01*
X30042156Y4887126D01*
X30042155Y4887128D01*
X30039734Y4899301D01*
X29983484Y4983484D01*
X29899301Y5039734D01*
X29825067Y5054500D01*
X29811081Y5054500D01*
X29742960Y5074502D01*
X29696467Y5128158D01*
X29686264Y5163273D01*
X29679946Y5209053D01*
X29679945Y5209057D01*
X29679100Y5215180D01*
X29655859Y5282265D01*
X29637284Y5323555D01*
X29572808Y5398820D01*
X29516988Y5442691D01*
X29454367Y5478821D01*
X29450187Y5480493D01*
X28949215Y5680882D01*
X28893395Y5724753D01*
X28881781Y5744694D01*
X28576725Y6400000D01*
X31540715Y6400000D01*
X31559772Y6255246D01*
X31615645Y6120358D01*
X31704526Y6004526D01*
X31711076Y5999500D01*
X31711079Y5999497D01*
X31813804Y5920673D01*
X31820357Y5915645D01*
X31955246Y5859772D01*
X32100000Y5840715D01*
X32108188Y5841793D01*
X32236566Y5858694D01*
X32244754Y5859772D01*
X32379643Y5915645D01*
X32386196Y5920673D01*
X32488921Y5999497D01*
X32488924Y5999500D01*
X32495474Y6004526D01*
X32584355Y6120358D01*
X32640228Y6255246D01*
X32659285Y6400000D01*
X32640228Y6544754D01*
X32584355Y6679642D01*
X32495474Y6795474D01*
X32488924Y6800500D01*
X32488921Y6800503D01*
X32386196Y6879327D01*
X32386194Y6879328D01*
X32379643Y6884355D01*
X32244754Y6940228D01*
X32100000Y6959285D01*
X32091812Y6958207D01*
X31963432Y6941306D01*
X31963430Y6941305D01*
X31955246Y6940228D01*
X31907430Y6920422D01*
X31827986Y6887515D01*
X31827984Y6887514D01*
X31820358Y6884355D01*
X31704526Y6795474D01*
X31615645Y6679642D01*
X31559772Y6544754D01*
X31540715Y6400000D01*
X28576725Y6400000D01*
X27988808Y7662932D01*
X27738794Y8200000D01*
X40140715Y8200000D01*
X40141793Y8191812D01*
X40150132Y8128473D01*
X40159772Y8055246D01*
X40215645Y7920358D01*
X40304526Y7804526D01*
X40311076Y7799500D01*
X40311079Y7799497D01*
X40413804Y7720673D01*
X40420357Y7715645D01*
X40555246Y7659772D01*
X40700000Y7640715D01*
X40708188Y7641793D01*
X40836566Y7658694D01*
X40844754Y7659772D01*
X40979643Y7715645D01*
X40986196Y7720673D01*
X41088921Y7799497D01*
X41088924Y7799500D01*
X41095474Y7804526D01*
X41184355Y7920358D01*
X41240228Y8055246D01*
X41249869Y8128473D01*
X41258207Y8191812D01*
X41259285Y8200000D01*
X41240228Y8344754D01*
X41184355Y8479642D01*
X41104981Y8583084D01*
X41100501Y8588923D01*
X41100500Y8588924D01*
X41095474Y8595474D01*
X41088924Y8600500D01*
X41088921Y8600503D01*
X40986196Y8679327D01*
X40986194Y8679328D01*
X40979643Y8684355D01*
X40844754Y8740228D01*
X40700000Y8759285D01*
X40691812Y8758207D01*
X40563432Y8741306D01*
X40563430Y8741305D01*
X40555246Y8740228D01*
X40507430Y8720422D01*
X40427986Y8687515D01*
X40427984Y8687514D01*
X40420358Y8684355D01*
X40304526Y8595474D01*
X40299503Y8588928D01*
X40296540Y8585066D01*
X40215645Y8479642D01*
X40159772Y8344754D01*
X40140715Y8200000D01*
X27738794Y8200000D01*
X27630833Y8431916D01*
X27619062Y8485092D01*
X27619062Y10524977D01*
X27618245Y10532576D01*
X27613620Y10575603D01*
X27613619Y10575610D01*
X27613258Y10578967D01*
X27609041Y10598351D01*
X27602232Y10629655D01*
X27602230Y10629662D01*
X27601872Y10631309D01*
X27594678Y10657532D01*
X27558902Y10720358D01*
X27548700Y10738275D01*
X27548697Y10738279D01*
X27545637Y10743653D01*
X27506805Y10788468D01*
X27500984Y10795186D01*
X27500979Y10795191D01*
X27499144Y10797309D01*
X27466560Y10828750D01*
X27378743Y10874686D01*
X27310622Y10894688D01*
X27306163Y10895329D01*
X27306159Y10895330D01*
X27273489Y10900027D01*
X27239062Y10904977D01*
X24988567Y10904977D01*
X24985380Y10904650D01*
X24985371Y10904650D01*
X24940258Y10900027D01*
X24940256Y10900027D01*
X24937058Y10899699D01*
X24887018Y10889336D01*
X24881845Y10888000D01*
X24870630Y10885104D01*
X24870625Y10885102D01*
X24863152Y10883172D01*
X24815400Y10857231D01*
X24781503Y10838818D01*
X24781500Y10838816D01*
X24776066Y10835864D01*
X24771310Y10831907D01*
X24771309Y10831906D01*
X24760303Y10822748D01*
X24721491Y10790454D01*
X24719501Y10788472D01*
X24719496Y10788468D01*
X24713256Y10782254D01*
X24689403Y10758504D01*
X24641720Y10671623D01*
X24620360Y10603916D01*
X24608643Y10532576D01*
X24608553Y10528077D01*
X24595273Y9864081D01*
X24566113Y8406056D01*
X24561613Y8181072D01*
X400000Y8181072D01*
X400000Y9682900D01*
X17990715Y9682900D01*
X17991793Y9674712D01*
X18008525Y9547620D01*
X18009772Y9538146D01*
X18020786Y9511556D01*
X18047861Y9446193D01*
X18065645Y9403258D01*
X18095486Y9364369D01*
X18145264Y9299497D01*
X18154526Y9287426D01*
X18161076Y9282400D01*
X18161079Y9282397D01*
X18252190Y9212485D01*
X18270357Y9198545D01*
X18405246Y9142672D01*
X18550000Y9123615D01*
X18558188Y9124693D01*
X18686566Y9141594D01*
X18694754Y9142672D01*
X18736587Y9160000D01*
X21030415Y9160000D01*
X21049472Y9015246D01*
X21052631Y9007620D01*
X21101588Y8889429D01*
X21105345Y8880358D01*
X21194226Y8764526D01*
X21200776Y8759500D01*
X21200779Y8759497D01*
X21298706Y8684355D01*
X21310057Y8675645D01*
X21444946Y8619772D01*
X21589700Y8600715D01*
X21597888Y8601793D01*
X21726266Y8618694D01*
X21734454Y8619772D01*
X21869343Y8675645D01*
X21880694Y8684355D01*
X21978621Y8759497D01*
X21978624Y8759500D01*
X21985174Y8764526D01*
X22074055Y8880358D01*
X22077813Y8889429D01*
X22126769Y9007620D01*
X22129928Y9015246D01*
X22148985Y9160000D01*
X22140997Y9220673D01*
X22131006Y9296568D01*
X22131005Y9296570D01*
X22129928Y9304754D01*
X22102470Y9371043D01*
X22077215Y9432014D01*
X22077214Y9432016D01*
X22074055Y9439642D01*
X22023556Y9505454D01*
X21990201Y9548923D01*
X21990200Y9548924D01*
X21985174Y9555474D01*
X21978624Y9560500D01*
X21978621Y9560503D01*
X21875896Y9639327D01*
X21875894Y9639328D01*
X21869343Y9644355D01*
X21734454Y9700228D01*
X21589700Y9719285D01*
X21581512Y9718207D01*
X21453132Y9701306D01*
X21453130Y9701305D01*
X21444946Y9700228D01*
X21403113Y9682900D01*
X21317686Y9647515D01*
X21317684Y9647514D01*
X21310058Y9644355D01*
X21194226Y9555474D01*
X21105345Y9439642D01*
X21102186Y9432016D01*
X21102185Y9432014D01*
X21076930Y9371043D01*
X21049472Y9304754D01*
X21048395Y9296570D01*
X21048394Y9296568D01*
X21038403Y9220673D01*
X21030415Y9160000D01*
X18736587Y9160000D01*
X18829643Y9198545D01*
X18847810Y9212485D01*
X18938921Y9282397D01*
X18938924Y9282400D01*
X18945474Y9287426D01*
X18954737Y9299497D01*
X19004514Y9364369D01*
X19034355Y9403258D01*
X19052140Y9446193D01*
X19079214Y9511556D01*
X19090228Y9538146D01*
X19091476Y9547620D01*
X19108207Y9674712D01*
X19109285Y9682900D01*
X19101070Y9745300D01*
X19091306Y9819468D01*
X19091305Y9819470D01*
X19090228Y9827654D01*
X19041898Y9944332D01*
X19037515Y9954914D01*
X19037514Y9954916D01*
X19034355Y9962542D01*
X18986165Y10025345D01*
X18950501Y10071823D01*
X18950500Y10071824D01*
X18945474Y10078374D01*
X18938924Y10083400D01*
X18938921Y10083403D01*
X18836196Y10162227D01*
X18836194Y10162228D01*
X18829643Y10167255D01*
X18694754Y10223128D01*
X18550000Y10242185D01*
X18541812Y10241107D01*
X18413432Y10224206D01*
X18413430Y10224205D01*
X18405246Y10223128D01*
X18376153Y10211077D01*
X18277986Y10170415D01*
X18277984Y10170414D01*
X18270358Y10167255D01*
X18154526Y10078374D01*
X18065645Y9962542D01*
X18062486Y9954916D01*
X18062485Y9954914D01*
X18058102Y9944332D01*
X18009772Y9827654D01*
X18008695Y9819470D01*
X18008694Y9819468D01*
X17998930Y9745300D01*
X17990715Y9682900D01*
X400000Y9682900D01*
X400000Y10637500D01*
X6690715Y10637500D01*
X6691793Y10629312D01*
X6708142Y10505129D01*
X6709772Y10492746D01*
X6765645Y10357858D01*
X6854526Y10242026D01*
X6861076Y10237000D01*
X6861079Y10236997D01*
X6958521Y10162227D01*
X6970357Y10153145D01*
X7105246Y10097272D01*
X7250000Y10078215D01*
X7258188Y10079293D01*
X7289362Y10083397D01*
X7394754Y10097272D01*
X7529643Y10153145D01*
X7541479Y10162227D01*
X7638921Y10236997D01*
X7638924Y10237000D01*
X7645474Y10242026D01*
X7734355Y10357858D01*
X7790228Y10492746D01*
X7791859Y10505129D01*
X7808207Y10629312D01*
X7809285Y10637500D01*
X7799820Y10709400D01*
X8881115Y10709400D01*
X8882193Y10701212D01*
X8898730Y10575603D01*
X8900172Y10564646D01*
X8903331Y10557020D01*
X8943613Y10459772D01*
X8956045Y10429758D01*
X8961072Y10423207D01*
X9016243Y10351307D01*
X9044926Y10313926D01*
X9051476Y10308900D01*
X9051479Y10308897D01*
X9140970Y10240228D01*
X9160757Y10225045D01*
X9295646Y10169172D01*
X9303834Y10168094D01*
X9348399Y10162227D01*
X9440400Y10150115D01*
X9448588Y10151193D01*
X9492675Y10156997D01*
X9532401Y10162227D01*
X9576966Y10168094D01*
X9585154Y10169172D01*
X9720043Y10225045D01*
X9739830Y10240228D01*
X9829321Y10308897D01*
X9829324Y10308900D01*
X9835874Y10313926D01*
X9864558Y10351307D01*
X9919728Y10423207D01*
X9924755Y10429758D01*
X9937188Y10459772D01*
X9977469Y10557020D01*
X9980628Y10564646D01*
X9982071Y10575603D01*
X9998607Y10701212D01*
X9999685Y10709400D01*
X9992383Y10764864D01*
X9981706Y10845968D01*
X9981705Y10845970D01*
X9980628Y10854154D01*
X9924755Y10989042D01*
X9835874Y11104874D01*
X9829324Y11109900D01*
X9829321Y11109903D01*
X9726596Y11188727D01*
X9726594Y11188728D01*
X9720043Y11193755D01*
X9585154Y11249628D01*
X9440400Y11268685D01*
X9432212Y11267607D01*
X9303832Y11250706D01*
X9303830Y11250705D01*
X9295646Y11249628D01*
X9267301Y11237887D01*
X9168386Y11196915D01*
X9168384Y11196914D01*
X9160758Y11193755D01*
X9044926Y11104874D01*
X8956045Y10989042D01*
X8900172Y10854154D01*
X8899095Y10845970D01*
X8899094Y10845968D01*
X8888417Y10764864D01*
X8881115Y10709400D01*
X7799820Y10709400D01*
X7797857Y10724309D01*
X7791306Y10774068D01*
X7791305Y10774070D01*
X7790228Y10782254D01*
X7760446Y10854154D01*
X7737515Y10909514D01*
X7737514Y10909516D01*
X7734355Y10917142D01*
X7679184Y10989042D01*
X7650501Y11026423D01*
X7650500Y11026424D01*
X7645474Y11032974D01*
X7638924Y11038000D01*
X7638921Y11038003D01*
X7536196Y11116827D01*
X7536194Y11116828D01*
X7529643Y11121855D01*
X7394754Y11177728D01*
X7250000Y11196785D01*
X7241812Y11195707D01*
X7113432Y11178806D01*
X7113430Y11178805D01*
X7105246Y11177728D01*
X7060721Y11159285D01*
X6977986Y11125015D01*
X6977984Y11125014D01*
X6970358Y11121855D01*
X6854526Y11032974D01*
X6765645Y10917142D01*
X6762486Y10909516D01*
X6762485Y10909514D01*
X6739554Y10854154D01*
X6709772Y10782254D01*
X6708695Y10774070D01*
X6708694Y10774068D01*
X6702143Y10724309D01*
X6690715Y10637500D01*
X400000Y10637500D01*
X400000Y11897756D01*
X970500Y11897756D01*
X970500Y11102244D01*
X970869Y11098848D01*
X970869Y11098847D01*
X972990Y11079328D01*
X977202Y11040552D01*
X979974Y11033159D01*
X979974Y11033157D01*
X992218Y11000497D01*
X1027929Y10905236D01*
X1033309Y10898057D01*
X1033311Y10898054D01*
X1085252Y10828750D01*
X1114596Y10789596D01*
X1125113Y10781714D01*
X1223054Y10708311D01*
X1223057Y10708309D01*
X1230236Y10702929D01*
X1299288Y10677043D01*
X1358157Y10654974D01*
X1358159Y10654974D01*
X1365552Y10652202D01*
X1373402Y10651349D01*
X1373403Y10651349D01*
X1423847Y10645869D01*
X1427244Y10645500D01*
X2772756Y10645500D01*
X2776153Y10645869D01*
X2826597Y10651349D01*
X2826598Y10651349D01*
X2834448Y10652202D01*
X2841841Y10654974D01*
X2841843Y10654974D01*
X2900712Y10677043D01*
X2969764Y10702929D01*
X2976943Y10708309D01*
X2976946Y10708311D01*
X3074887Y10781714D01*
X3085404Y10789596D01*
X3114748Y10828750D01*
X3166689Y10898054D01*
X3166691Y10898057D01*
X3172071Y10905236D01*
X3207782Y11000497D01*
X3220026Y11033157D01*
X3220026Y11033159D01*
X3222798Y11040552D01*
X3227011Y11079328D01*
X3229131Y11098847D01*
X3229131Y11098848D01*
X3229500Y11102244D01*
X3229500Y11897756D01*
X3222798Y11959448D01*
X3209063Y11996088D01*
X3192563Y12040100D01*
X3172071Y12094764D01*
X3166691Y12101943D01*
X3166689Y12101946D01*
X3090785Y12203224D01*
X3085404Y12210404D01*
X3045891Y12240017D01*
X2976946Y12291689D01*
X2976943Y12291691D01*
X2969764Y12297071D01*
X2865405Y12336193D01*
X2841843Y12345026D01*
X2841841Y12345026D01*
X2834448Y12347798D01*
X2826598Y12348651D01*
X2826597Y12348651D01*
X2776153Y12354131D01*
X2776152Y12354131D01*
X2772756Y12354500D01*
X1427244Y12354500D01*
X1423848Y12354131D01*
X1423847Y12354131D01*
X1373403Y12348651D01*
X1373402Y12348651D01*
X1365552Y12347798D01*
X1358159Y12345026D01*
X1358157Y12345026D01*
X1334595Y12336193D01*
X1230236Y12297071D01*
X1223057Y12291691D01*
X1223054Y12291689D01*
X1154109Y12240017D01*
X1114596Y12210404D01*
X1109215Y12203224D01*
X1033311Y12101946D01*
X1033309Y12101943D01*
X1027929Y12094764D01*
X1007437Y12040100D01*
X990938Y11996088D01*
X977202Y11959448D01*
X970500Y11897756D01*
X400000Y11897756D01*
X400000Y12462500D01*
X6690715Y12462500D01*
X6693598Y12440603D01*
X6708647Y12326293D01*
X6709772Y12317746D01*
X6712931Y12310120D01*
X6757559Y12202380D01*
X6765645Y12182858D01*
X6806807Y12129215D01*
X6839691Y12086360D01*
X6854526Y12067026D01*
X6861076Y12062000D01*
X6861079Y12061997D01*
X6940431Y12001108D01*
X6970357Y11978145D01*
X7105246Y11922272D01*
X7250000Y11903215D01*
X7258188Y11904293D01*
X7386566Y11921194D01*
X7394754Y11922272D01*
X7529643Y11978145D01*
X7559569Y12001108D01*
X7638921Y12061997D01*
X7638924Y12062000D01*
X7645474Y12067026D01*
X7660310Y12086360D01*
X7693193Y12129215D01*
X7734355Y12182858D01*
X7742442Y12202380D01*
X7787069Y12310120D01*
X7790228Y12317746D01*
X7791354Y12326293D01*
X7806402Y12440603D01*
X7809285Y12462500D01*
X7795658Y12566010D01*
X7791306Y12599068D01*
X7791305Y12599070D01*
X7790228Y12607254D01*
X7748312Y12708448D01*
X7737515Y12734514D01*
X7737514Y12734516D01*
X7734355Y12742142D01*
X7645474Y12857974D01*
X7638924Y12863000D01*
X7638921Y12863003D01*
X7536196Y12941827D01*
X7536194Y12941828D01*
X7529643Y12946855D01*
X7394754Y13002728D01*
X7250000Y13021785D01*
X7241812Y13020707D01*
X7113432Y13003806D01*
X7113430Y13003805D01*
X7105246Y13002728D01*
X7068217Y12987390D01*
X6977986Y12950015D01*
X6977984Y12950014D01*
X6970358Y12946855D01*
X6854526Y12857974D01*
X6765645Y12742142D01*
X6762486Y12734516D01*
X6762485Y12734514D01*
X6751688Y12708448D01*
X6709772Y12607254D01*
X6708695Y12599070D01*
X6708694Y12599068D01*
X6704342Y12566010D01*
X6690715Y12462500D01*
X400000Y12462500D01*
X400000Y13547981D01*
X966801Y13547981D01*
X967158Y13541164D01*
X967158Y13541160D01*
X972282Y13443404D01*
X976518Y13362576D01*
X978328Y13356004D01*
X978329Y13355999D01*
X1012086Y13233448D01*
X1025821Y13183583D01*
X1112410Y13019352D01*
X1232245Y12877546D01*
X1237668Y12873399D01*
X1237670Y12873398D01*
X1374315Y12768925D01*
X1374319Y12768923D01*
X1379736Y12764781D01*
X1385916Y12761899D01*
X1385918Y12761898D01*
X1541823Y12689198D01*
X1541826Y12689197D01*
X1548000Y12686318D01*
X1554648Y12684832D01*
X1554651Y12684831D01*
X1653711Y12662689D01*
X1729188Y12645818D01*
X1734876Y12645500D01*
X2421385Y12645500D01*
X2559573Y12660512D01*
X2680210Y12701111D01*
X2729064Y12717552D01*
X2729066Y12717553D01*
X2735535Y12719730D01*
X2894677Y12815351D01*
X2899634Y12820039D01*
X2899637Y12820041D01*
X3024614Y12938227D01*
X3024616Y12938229D01*
X3029572Y12942916D01*
X3133928Y13096471D01*
X3136463Y13102808D01*
X3200342Y13262516D01*
X3200343Y13262521D01*
X3202876Y13268853D01*
X3203990Y13275580D01*
X3203991Y13275585D01*
X3232084Y13445282D01*
X3232084Y13445285D01*
X3233199Y13452019D01*
X3231115Y13491793D01*
X3223839Y13630611D01*
X3223482Y13637424D01*
X3221672Y13643996D01*
X3221671Y13644001D01*
X3175992Y13809835D01*
X3174179Y13816417D01*
X3087590Y13980648D01*
X2967755Y14122454D01*
X2962330Y14126602D01*
X2825685Y14231075D01*
X2825681Y14231077D01*
X2820264Y14235219D01*
X2814084Y14238101D01*
X2814082Y14238102D01*
X2681342Y14300000D01*
X5540715Y14300000D01*
X5541793Y14291812D01*
X5556602Y14179327D01*
X5559772Y14155246D01*
X5562931Y14147620D01*
X5607945Y14038948D01*
X5615645Y14020358D01*
X5650237Y13975277D01*
X5681532Y13934493D01*
X5704526Y13904526D01*
X5711076Y13899500D01*
X5711079Y13899497D01*
X5813804Y13820673D01*
X5820357Y13815645D01*
X5955246Y13759772D01*
X6100000Y13740715D01*
X6108188Y13741793D01*
X6236566Y13758694D01*
X6244754Y13759772D01*
X6307855Y13785909D01*
X6356072Y13795500D01*
X7965544Y13795500D01*
X7980354Y13794627D01*
X8014438Y13790593D01*
X8023702Y13792285D01*
X8023705Y13792285D01*
X8072680Y13801229D01*
X8076582Y13801878D01*
X8125836Y13809284D01*
X8125839Y13809285D01*
X8135151Y13810685D01*
X8141718Y13813838D01*
X8148883Y13815147D01*
X8201467Y13842462D01*
X8204957Y13844205D01*
X8258353Y13869846D01*
X8263648Y13874741D01*
X8263787Y13874834D01*
X8270166Y13878148D01*
X8275254Y13882494D01*
X8312836Y13920076D01*
X8316402Y13923506D01*
X8342155Y13947312D01*
X8358712Y13962617D01*
X8362430Y13969017D01*
X8368037Y13975277D01*
X9001355Y14608595D01*
X9063667Y14642621D01*
X9090450Y14645500D01*
X9229360Y14645500D01*
X9297481Y14625498D01*
X9343974Y14571842D01*
X9354282Y14503054D01*
X9340715Y14400000D01*
X9341793Y14391812D01*
X9356941Y14276752D01*
X9359772Y14255246D01*
X9366873Y14238102D01*
X9404353Y14147620D01*
X9415645Y14120358D01*
X9420672Y14113807D01*
X9492378Y14020358D01*
X9504526Y14004526D01*
X9511076Y13999500D01*
X9511079Y13999497D01*
X9613804Y13920673D01*
X9620357Y13915645D01*
X9755246Y13859772D01*
X9883612Y13842872D01*
X9948538Y13814151D01*
X9956260Y13807046D01*
X10137500Y13625806D01*
X10171526Y13563494D01*
X10166461Y13492679D01*
X10123914Y13435843D01*
X10064851Y13411789D01*
X9966232Y13398806D01*
X9966230Y13398805D01*
X9958046Y13397728D01*
X9933499Y13387560D01*
X9830786Y13345015D01*
X9830784Y13345014D01*
X9823158Y13341855D01*
X9707326Y13252974D01*
X9618445Y13137142D01*
X9562572Y13002254D01*
X9561495Y12994070D01*
X9561494Y12994068D01*
X9546641Y12881245D01*
X9543515Y12857500D01*
X9544593Y12849312D01*
X9557840Y12748693D01*
X9562572Y12712746D01*
X9565731Y12705120D01*
X9614630Y12587069D01*
X9618445Y12577858D01*
X9649401Y12537515D01*
X9691495Y12482658D01*
X9707326Y12462026D01*
X9713876Y12457000D01*
X9713879Y12456997D01*
X9816604Y12378173D01*
X9823157Y12373145D01*
X9958046Y12317272D01*
X10102800Y12298215D01*
X10110988Y12299293D01*
X10239366Y12316194D01*
X10247554Y12317272D01*
X10382443Y12373145D01*
X10388996Y12378173D01*
X10491721Y12456997D01*
X10491724Y12457000D01*
X10498274Y12462026D01*
X10514106Y12482658D01*
X10556199Y12537515D01*
X10587155Y12577858D01*
X10590971Y12587069D01*
X10639869Y12705120D01*
X10643028Y12712746D01*
X10647761Y12748693D01*
X10657089Y12819551D01*
X10685811Y12884478D01*
X10745076Y12923570D01*
X10816068Y12924415D01*
X10871106Y12892200D01*
X12310460Y11452846D01*
X12344486Y11390534D01*
X12339421Y11319719D01*
X12321326Y11287046D01*
X12320676Y11286198D01*
X12315645Y11279642D01*
X12259772Y11144754D01*
X12258694Y11136568D01*
X12258694Y11136567D01*
X12253205Y11094871D01*
X12224483Y11029943D01*
X12165218Y10990851D01*
X12094227Y10990006D01*
X12051579Y11011354D01*
X11962996Y11079327D01*
X11962994Y11079328D01*
X11956443Y11084355D01*
X11839579Y11132762D01*
X11829183Y11137068D01*
X11821554Y11140228D01*
X11676800Y11159285D01*
X11668612Y11158207D01*
X11540232Y11141306D01*
X11540230Y11141305D01*
X11532046Y11140228D01*
X11523210Y11136568D01*
X11404786Y11087515D01*
X11404784Y11087514D01*
X11397158Y11084355D01*
X11281326Y10995474D01*
X11192445Y10879642D01*
X11189286Y10872016D01*
X11189285Y10872014D01*
X11158341Y10797309D01*
X11136572Y10744754D01*
X11135495Y10736570D01*
X11135494Y10736568D01*
X11127063Y10672525D01*
X11117515Y10600000D01*
X11118593Y10591812D01*
X11127978Y10520528D01*
X11136572Y10455246D01*
X11142591Y10440715D01*
X11177135Y10357320D01*
X11192445Y10320358D01*
X11236885Y10262442D01*
X11261735Y10230058D01*
X11281326Y10204526D01*
X11287876Y10199500D01*
X11287879Y10199497D01*
X11390604Y10120673D01*
X11397157Y10115645D01*
X11532046Y10059772D01*
X11676800Y10040715D01*
X11684988Y10041793D01*
X11813366Y10058694D01*
X11821554Y10059772D01*
X11956443Y10115645D01*
X11962996Y10120673D01*
X12065721Y10199497D01*
X12065724Y10199500D01*
X12072274Y10204526D01*
X12091866Y10230058D01*
X12116715Y10262442D01*
X12161155Y10320358D01*
X12176466Y10357320D01*
X12211009Y10440715D01*
X12217028Y10455246D01*
X12223595Y10505129D01*
X12252317Y10570057D01*
X12311582Y10609149D01*
X12382573Y10609994D01*
X12425221Y10588646D01*
X12512586Y10521608D01*
X12520357Y10515645D01*
X12637221Y10467238D01*
X12646408Y10463433D01*
X12655246Y10459772D01*
X12663434Y10458694D01*
X12680639Y10456429D01*
X12800000Y10440715D01*
X12808188Y10441793D01*
X12936566Y10458694D01*
X12944754Y10459772D01*
X12953593Y10463433D01*
X12962779Y10467238D01*
X13065291Y10509700D01*
X16713815Y10509700D01*
X16714893Y10501512D01*
X16721711Y10449727D01*
X16732872Y10364946D01*
X16751292Y10320477D01*
X16783788Y10242026D01*
X16788745Y10230058D01*
X16827672Y10179327D01*
X16840794Y10162227D01*
X16877626Y10114226D01*
X16884176Y10109200D01*
X16884179Y10109197D01*
X16986904Y10030373D01*
X16993457Y10025345D01*
X17128346Y9969472D01*
X17273100Y9950415D01*
X17281288Y9951493D01*
X17409666Y9968394D01*
X17417854Y9969472D01*
X17552743Y10025345D01*
X17559296Y10030373D01*
X17662021Y10109197D01*
X17662024Y10109200D01*
X17668574Y10114226D01*
X17705407Y10162227D01*
X17718528Y10179327D01*
X17757455Y10230058D01*
X17762413Y10242026D01*
X17794908Y10320477D01*
X17813328Y10364946D01*
X17824490Y10449727D01*
X17831307Y10501512D01*
X17832385Y10509700D01*
X17820497Y10600000D01*
X17814406Y10646268D01*
X17814405Y10646270D01*
X17813328Y10654454D01*
X17793249Y10702929D01*
X17760615Y10781714D01*
X17760614Y10781716D01*
X17757455Y10789342D01*
X17688287Y10879484D01*
X17673601Y10898623D01*
X17673600Y10898624D01*
X17668574Y10905174D01*
X17662024Y10910200D01*
X17662021Y10910203D01*
X17559296Y10989027D01*
X17559294Y10989028D01*
X17552743Y10994055D01*
X17417854Y11049928D01*
X17273100Y11068985D01*
X17264912Y11067907D01*
X17136532Y11051006D01*
X17136530Y11051005D01*
X17128346Y11049928D01*
X17087858Y11033157D01*
X17001086Y10997215D01*
X17001084Y10997214D01*
X16993458Y10994055D01*
X16877626Y10905174D01*
X16788745Y10789342D01*
X16785586Y10781716D01*
X16785585Y10781714D01*
X16752951Y10702929D01*
X16732872Y10654454D01*
X16731795Y10646270D01*
X16731794Y10646268D01*
X16725703Y10600000D01*
X16713815Y10509700D01*
X13065291Y10509700D01*
X13079643Y10515645D01*
X13086196Y10520673D01*
X13188921Y10599497D01*
X13188924Y10599500D01*
X13195474Y10604526D01*
X13200869Y10611556D01*
X13275111Y10708311D01*
X13284355Y10720358D01*
X13291070Y10736568D01*
X13337069Y10847620D01*
X13340228Y10855246D01*
X13342507Y10872553D01*
X13357840Y10989027D01*
X13359285Y11000000D01*
X13348842Y11079327D01*
X13341306Y11136568D01*
X13341305Y11136570D01*
X13340228Y11144754D01*
X13302826Y11235050D01*
X13287515Y11272014D01*
X13287514Y11272016D01*
X13284355Y11279642D01*
X13279327Y11286195D01*
X13279325Y11286198D01*
X13207584Y11379693D01*
X13181983Y11445913D01*
X13181686Y11462332D01*
X13182128Y11471693D01*
X13184320Y11481876D01*
X13183096Y11492218D01*
X13183096Y11492221D01*
X13180374Y11515213D01*
X13180023Y11521154D01*
X13179928Y11521146D01*
X13179500Y11526326D01*
X13179500Y11531524D01*
X13176329Y11550576D01*
X13175492Y11556453D01*
X13175284Y11558215D01*
X13169469Y11607341D01*
X13165508Y11615590D01*
X13164004Y11624626D01*
X13159056Y11633797D01*
X13139652Y11669760D01*
X13136957Y11675049D01*
X13118212Y11714085D01*
X13114780Y11721232D01*
X13111186Y11725508D01*
X13109246Y11727448D01*
X13107493Y11729359D01*
X13107444Y11729449D01*
X13107567Y11729561D01*
X13107095Y11730096D01*
X13104010Y11735814D01*
X13064413Y11772417D01*
X13060848Y11775846D01*
X12840606Y11996088D01*
X12811167Y12050000D01*
X13740715Y12050000D01*
X13741793Y12041812D01*
X13757531Y11922272D01*
X13759772Y11905246D01*
X13815645Y11770358D01*
X13842152Y11735814D01*
X13892837Y11669760D01*
X13904526Y11654526D01*
X13911076Y11649500D01*
X13911079Y11649497D01*
X14013670Y11570776D01*
X14020357Y11565645D01*
X14155246Y11509772D01*
X14300000Y11490715D01*
X14308188Y11491793D01*
X14436566Y11508694D01*
X14444754Y11509772D01*
X14579643Y11565645D01*
X14586330Y11570776D01*
X14688921Y11649497D01*
X14688924Y11649500D01*
X14695474Y11654526D01*
X14700505Y11661082D01*
X14749740Y11725245D01*
X14807078Y11767112D01*
X14877949Y11771334D01*
X14939852Y11736570D01*
X14949665Y11725245D01*
X14988182Y11675049D01*
X15011526Y11644626D01*
X15018076Y11639600D01*
X15018079Y11639597D01*
X15114455Y11565645D01*
X15127357Y11555745D01*
X15262246Y11499872D01*
X15407000Y11480815D01*
X15415188Y11481893D01*
X15543566Y11498794D01*
X15551754Y11499872D01*
X15686643Y11555745D01*
X15699545Y11565645D01*
X15795921Y11639597D01*
X15795924Y11639600D01*
X15802474Y11644626D01*
X15825819Y11675049D01*
X15886328Y11753907D01*
X15891355Y11760458D01*
X15896309Y11772416D01*
X15927422Y11847530D01*
X15947228Y11895346D01*
X15948532Y11905246D01*
X15965207Y12031912D01*
X15966285Y12040100D01*
X15959848Y12088992D01*
X15948306Y12176668D01*
X15948305Y12176670D01*
X15947228Y12184854D01*
X15909977Y12274785D01*
X15894515Y12312114D01*
X15894514Y12312116D01*
X15891355Y12319742D01*
X15802474Y12435574D01*
X15795924Y12440600D01*
X15795921Y12440603D01*
X15693196Y12519427D01*
X15693194Y12519428D01*
X15686643Y12524455D01*
X15551754Y12580328D01*
X15500551Y12587069D01*
X15415188Y12598307D01*
X15407000Y12599385D01*
X15398812Y12598307D01*
X15270432Y12581406D01*
X15270430Y12581405D01*
X15262246Y12580328D01*
X15240468Y12571307D01*
X15134986Y12527615D01*
X15134984Y12527614D01*
X15127358Y12524455D01*
X15011526Y12435574D01*
X15006503Y12429028D01*
X15006499Y12429024D01*
X14957260Y12364855D01*
X14899922Y12322988D01*
X14829051Y12318766D01*
X14767148Y12353530D01*
X14757335Y12364855D01*
X14700501Y12438923D01*
X14700500Y12438924D01*
X14695474Y12445474D01*
X14688924Y12450500D01*
X14688921Y12450503D01*
X14586196Y12529327D01*
X14586194Y12529328D01*
X14579643Y12534355D01*
X14444754Y12590228D01*
X14300000Y12609285D01*
X14291812Y12608207D01*
X14163432Y12591306D01*
X14163430Y12591305D01*
X14155246Y12590228D01*
X14123719Y12577169D01*
X14027986Y12537515D01*
X14027984Y12537514D01*
X14020358Y12534355D01*
X13904526Y12445474D01*
X13815645Y12329642D01*
X13812486Y12322016D01*
X13812485Y12322014D01*
X13794541Y12278693D01*
X13759772Y12194754D01*
X13758695Y12186570D01*
X13758694Y12186568D01*
X13758206Y12182858D01*
X13740715Y12050000D01*
X12811167Y12050000D01*
X12806580Y12058400D01*
X12811645Y12129215D01*
X12854192Y12186051D01*
X12920712Y12210862D01*
X12946145Y12210105D01*
X13000000Y12203015D01*
X13008188Y12204093D01*
X13053855Y12210105D01*
X13144754Y12222072D01*
X13279643Y12277945D01*
X13286196Y12282973D01*
X13388921Y12361797D01*
X13388924Y12361800D01*
X13395474Y12366826D01*
X13484355Y12482658D01*
X13499586Y12519427D01*
X13523503Y12577169D01*
X13540228Y12617546D01*
X13544099Y12646944D01*
X13558207Y12754112D01*
X13558207Y12754113D01*
X13559285Y12762300D01*
X13547830Y12849312D01*
X13541306Y12898868D01*
X13541305Y12898870D01*
X13540228Y12907054D01*
X13508464Y12983739D01*
X13487515Y13034314D01*
X13487514Y13034316D01*
X13484355Y13041942D01*
X13417159Y13129514D01*
X13400501Y13151223D01*
X13400500Y13151224D01*
X13395474Y13157774D01*
X13388924Y13162800D01*
X13388921Y13162803D01*
X13286196Y13241627D01*
X13286194Y13241628D01*
X13279643Y13246655D01*
X13144754Y13302528D01*
X13000000Y13321585D01*
X12976255Y13318459D01*
X12863432Y13303606D01*
X12863430Y13303605D01*
X12855246Y13302528D01*
X12812119Y13284664D01*
X12727986Y13249815D01*
X12727984Y13249814D01*
X12720358Y13246655D01*
X12604526Y13157774D01*
X12599503Y13151228D01*
X12582841Y13129514D01*
X12515645Y13041942D01*
X12512486Y13034316D01*
X12512485Y13034314D01*
X12491536Y12983739D01*
X12459772Y12907054D01*
X12458695Y12898870D01*
X12458694Y12898868D01*
X12452170Y12849312D01*
X12440715Y12762300D01*
X12446320Y12719730D01*
X12447805Y12708448D01*
X12436866Y12638299D01*
X12389738Y12585200D01*
X12321384Y12566010D01*
X12253506Y12586821D01*
X12233788Y12602906D01*
X11095586Y13741108D01*
X11061560Y13803420D01*
X11066625Y13874235D01*
X11109172Y13931071D01*
X11175692Y13955882D01*
X11210103Y13951824D01*
X11210196Y13952303D01*
X11217275Y13952025D01*
X11217446Y13951992D01*
X11224297Y13949825D01*
X11230968Y13949300D01*
X11284148Y13949300D01*
X11289094Y13949203D01*
X11346637Y13946942D01*
X11353792Y13948839D01*
X11362167Y13949300D01*
X13596778Y13949300D01*
X13664899Y13929298D01*
X13671100Y13924937D01*
X13671907Y13924471D01*
X13678457Y13919445D01*
X13686083Y13916286D01*
X13686085Y13916285D01*
X13786263Y13874790D01*
X13813346Y13863572D01*
X13821534Y13862494D01*
X13885723Y13854043D01*
X13958100Y13844515D01*
X13966288Y13845593D01*
X14094666Y13862494D01*
X14102854Y13863572D01*
X14237743Y13919445D01*
X14244296Y13924473D01*
X14347021Y14003297D01*
X14347024Y14003300D01*
X14353574Y14008326D01*
X14362807Y14020358D01*
X14385552Y14050000D01*
X15340715Y14050000D01*
X15341793Y14041812D01*
X15358319Y13916285D01*
X15359772Y13905246D01*
X15377034Y13863572D01*
X15409204Y13785909D01*
X15415645Y13770358D01*
X15504526Y13654526D01*
X15511076Y13649500D01*
X15511079Y13649497D01*
X15613804Y13570673D01*
X15620357Y13565645D01*
X15755246Y13509772D01*
X15763434Y13508694D01*
X15790665Y13505109D01*
X15900000Y13490715D01*
X15908188Y13491793D01*
X16036566Y13508694D01*
X16044754Y13509772D01*
X16179643Y13565645D01*
X16186196Y13570673D01*
X16288921Y13649497D01*
X16288924Y13649500D01*
X16295474Y13654526D01*
X16384355Y13770358D01*
X16390797Y13785909D01*
X16422966Y13863572D01*
X16440228Y13905246D01*
X16441682Y13916285D01*
X16458207Y14041812D01*
X16459285Y14050000D01*
X16450433Y14117240D01*
X16441306Y14186568D01*
X16441305Y14186570D01*
X16440228Y14194754D01*
X16400025Y14291812D01*
X16387515Y14322014D01*
X16387514Y14322016D01*
X16384355Y14329642D01*
X16295474Y14445474D01*
X16288924Y14450500D01*
X16288921Y14450503D01*
X16186196Y14529327D01*
X16186194Y14529328D01*
X16179643Y14534355D01*
X16044754Y14590228D01*
X16034827Y14591535D01*
X15908188Y14608207D01*
X15900000Y14609285D01*
X15891812Y14608207D01*
X15765171Y14591535D01*
X15734785Y14596274D01*
X15699492Y14567134D01*
X15627989Y14537516D01*
X15620358Y14534355D01*
X15504526Y14445474D01*
X15415645Y14329642D01*
X15412486Y14322016D01*
X15412485Y14322014D01*
X15399975Y14291812D01*
X15359772Y14194754D01*
X15358695Y14186570D01*
X15358694Y14186568D01*
X15349567Y14117240D01*
X15340715Y14050000D01*
X14385552Y14050000D01*
X14435030Y14114482D01*
X14442455Y14124158D01*
X14452174Y14147620D01*
X14489653Y14238102D01*
X14498328Y14259046D01*
X14506129Y14318297D01*
X14516307Y14395612D01*
X14517385Y14403800D01*
X14510989Y14452380D01*
X14499406Y14540368D01*
X14499405Y14540370D01*
X14498328Y14548554D01*
X14473172Y14609285D01*
X14445615Y14675814D01*
X14445614Y14675816D01*
X14442455Y14683442D01*
X14415324Y14718800D01*
X22235915Y14718800D01*
X22236993Y14710612D01*
X22253258Y14587068D01*
X22254972Y14574046D01*
X22265531Y14548554D01*
X22306146Y14450503D01*
X22310845Y14439158D01*
X22315872Y14432607D01*
X22375861Y14354428D01*
X22399726Y14323326D01*
X22406276Y14318300D01*
X22406279Y14318297D01*
X22509004Y14239473D01*
X22515557Y14234445D01*
X22650446Y14178572D01*
X22795200Y14159515D01*
X22894203Y14172549D01*
X22964350Y14161610D01*
X23017449Y14114482D01*
X23036639Y14046128D01*
X23019932Y13985229D01*
X23015645Y13979642D01*
X22959772Y13844754D01*
X22958695Y13836570D01*
X22958694Y13836568D01*
X22952025Y13785909D01*
X22940715Y13700000D01*
X22941793Y13691812D01*
X22957689Y13571071D01*
X22959772Y13555246D01*
X22962931Y13547620D01*
X23011352Y13430723D01*
X23015645Y13420358D01*
X23033010Y13397728D01*
X23093414Y13319008D01*
X23104526Y13304526D01*
X23111076Y13299500D01*
X23111079Y13299497D01*
X23211332Y13222570D01*
X23220357Y13215645D01*
X23355246Y13159772D01*
X23500000Y13140715D01*
X23508188Y13141793D01*
X23636566Y13158694D01*
X23644754Y13159772D01*
X23779643Y13215645D01*
X23788668Y13222570D01*
X23888921Y13299497D01*
X23888924Y13299500D01*
X23895474Y13304526D01*
X23906587Y13319008D01*
X23966990Y13397728D01*
X23984355Y13420358D01*
X23988649Y13430723D01*
X24037069Y13547620D01*
X24040228Y13555246D01*
X24042312Y13571071D01*
X24058207Y13691812D01*
X24059285Y13700000D01*
X24047975Y13785909D01*
X24041306Y13836568D01*
X24041305Y13836570D01*
X24040228Y13844754D01*
X24018330Y13897620D01*
X23987515Y13972014D01*
X23987513Y13972017D01*
X23984355Y13979642D01*
X23895474Y14095474D01*
X23888924Y14100500D01*
X23888921Y14100503D01*
X23786196Y14179327D01*
X23786194Y14179328D01*
X23779643Y14184355D01*
X23644754Y14240228D01*
X23500000Y14259285D01*
X23400997Y14246251D01*
X23330850Y14257190D01*
X23277751Y14304318D01*
X23258561Y14372672D01*
X23275268Y14433571D01*
X23279555Y14439158D01*
X23335428Y14574046D01*
X23337143Y14587068D01*
X23353407Y14710612D01*
X23354485Y14718800D01*
X23346517Y14779327D01*
X23336506Y14855368D01*
X23336505Y14855370D01*
X23335428Y14863554D01*
X23294647Y14962007D01*
X23282715Y14990814D01*
X23282714Y14990816D01*
X23279555Y14998442D01*
X23222956Y15072203D01*
X23195701Y15107723D01*
X23195700Y15107724D01*
X23190674Y15114274D01*
X23184124Y15119300D01*
X23184121Y15119303D01*
X23081396Y15198127D01*
X23081394Y15198128D01*
X23074843Y15203155D01*
X22939954Y15259028D01*
X22795200Y15278085D01*
X22787012Y15277007D01*
X22658632Y15260106D01*
X22658630Y15260105D01*
X22650446Y15259028D01*
X22602630Y15239222D01*
X22523186Y15206315D01*
X22523184Y15206314D01*
X22515558Y15203155D01*
X22399726Y15114274D01*
X22310845Y14998442D01*
X22307686Y14990816D01*
X22307685Y14990814D01*
X22295753Y14962007D01*
X22254972Y14863554D01*
X22253895Y14855370D01*
X22253894Y14855368D01*
X22243883Y14779327D01*
X22235915Y14718800D01*
X14415324Y14718800D01*
X14397978Y14741405D01*
X14358601Y14792723D01*
X14358600Y14792724D01*
X14353574Y14799274D01*
X14347024Y14804300D01*
X14347021Y14804303D01*
X14244296Y14883127D01*
X14244294Y14883128D01*
X14237743Y14888155D01*
X14102854Y14944028D01*
X13958100Y14963085D01*
X13949912Y14962007D01*
X13821532Y14945106D01*
X13821530Y14945105D01*
X13813346Y14944028D01*
X13765530Y14924222D01*
X13686086Y14891315D01*
X13686084Y14891314D01*
X13678458Y14888155D01*
X13671908Y14883129D01*
X13664755Y14878999D01*
X13663828Y14880604D01*
X13607258Y14858737D01*
X13596778Y14858300D01*
X11536650Y14858300D01*
X11468529Y14878302D01*
X11447555Y14895205D01*
X10945749Y15397011D01*
X10935894Y15408100D01*
X10921393Y15426494D01*
X10914641Y15435059D01*
X10880233Y15458840D01*
X10865906Y15468742D01*
X10862686Y15471044D01*
X10818032Y15504026D01*
X10775121Y15560587D01*
X10769601Y15631369D01*
X10803798Y15694474D01*
X10808925Y15699601D01*
X10815474Y15704626D01*
X10820497Y15711172D01*
X10820502Y15711177D01*
X10835362Y15730543D01*
X10892700Y15772410D01*
X10963571Y15776632D01*
X11025474Y15741868D01*
X11035286Y15730544D01*
X11049726Y15711726D01*
X11056276Y15706700D01*
X11056279Y15706697D01*
X11154448Y15631369D01*
X11165557Y15622845D01*
X11300446Y15566972D01*
X11445200Y15547915D01*
X11453388Y15548993D01*
X11496875Y15554718D01*
X11589954Y15566972D01*
X11724843Y15622845D01*
X11735952Y15631369D01*
X11834121Y15706697D01*
X11834124Y15706700D01*
X11840674Y15711726D01*
X11890914Y15777200D01*
X13104715Y15777200D01*
X13105793Y15769012D01*
X13122251Y15644001D01*
X13123772Y15632446D01*
X13139708Y15593973D01*
X13176062Y15506209D01*
X13179645Y15497558D01*
X13189870Y15484233D01*
X13248289Y15408100D01*
X13268526Y15381726D01*
X13275076Y15376700D01*
X13275079Y15376697D01*
X13377804Y15297873D01*
X13384357Y15292845D01*
X13519246Y15236972D01*
X13664000Y15217915D01*
X13672188Y15218993D01*
X13800566Y15235894D01*
X13808754Y15236972D01*
X13943643Y15292845D01*
X13979499Y15320358D01*
X14059474Y15381726D01*
X14061196Y15379482D01*
X14111414Y15406904D01*
X14182229Y15401839D01*
X14234804Y15362966D01*
X14234857Y15363019D01*
X14235209Y15362667D01*
X14238162Y15360484D01*
X14245726Y15350626D01*
X14252276Y15345600D01*
X14252279Y15345597D01*
X14355004Y15266773D01*
X14361557Y15261745D01*
X14496446Y15205872D01*
X14504634Y15204794D01*
X14555268Y15198128D01*
X14641200Y15186815D01*
X14649388Y15187893D01*
X14777766Y15204794D01*
X14785954Y15205872D01*
X14793582Y15209032D01*
X14793587Y15209033D01*
X14817688Y15219016D01*
X14888277Y15226605D01*
X14951764Y15194825D01*
X14982314Y15150825D01*
X15007166Y15090828D01*
X15015645Y15070358D01*
X15020672Y15063807D01*
X15098786Y14962007D01*
X15104526Y14954526D01*
X15111076Y14949500D01*
X15111079Y14949497D01*
X15213804Y14870673D01*
X15220357Y14865645D01*
X15355246Y14809772D01*
X15363434Y14808694D01*
X15396788Y14804303D01*
X15500000Y14790715D01*
X15508188Y14791793D01*
X15634828Y14808465D01*
X15665214Y14803726D01*
X15700506Y14832865D01*
X15779643Y14865645D01*
X15786196Y14870673D01*
X15888921Y14949497D01*
X15888924Y14949500D01*
X15895474Y14954526D01*
X15901215Y14962007D01*
X15939197Y15011507D01*
X15996535Y15053374D01*
X16055604Y15059725D01*
X16200000Y15040715D01*
X16208188Y15041793D01*
X16336566Y15058694D01*
X16344754Y15059772D01*
X16479643Y15115645D01*
X16486196Y15120673D01*
X16588921Y15199497D01*
X16588924Y15199500D01*
X16595474Y15204526D01*
X16622796Y15240132D01*
X16662934Y15292442D01*
X16684355Y15320358D01*
X16694810Y15345597D01*
X16737069Y15447620D01*
X16740228Y15455246D01*
X16741611Y15465745D01*
X16758207Y15591812D01*
X16759285Y15600000D01*
X16756017Y15624820D01*
X16741306Y15736568D01*
X16741305Y15736570D01*
X16740228Y15744754D01*
X16708643Y15821007D01*
X16687515Y15872014D01*
X16687514Y15872016D01*
X16684355Y15879642D01*
X16626669Y15954820D01*
X16600501Y15988923D01*
X16600500Y15988924D01*
X16595474Y15995474D01*
X16588923Y16000501D01*
X16588921Y16000503D01*
X16494051Y16073300D01*
X20600115Y16073300D01*
X20602250Y16057084D01*
X20616970Y15945275D01*
X20619172Y15928546D01*
X20634785Y15890854D01*
X20663717Y15821007D01*
X20675045Y15793658D01*
X20680072Y15787107D01*
X20751152Y15694474D01*
X20763926Y15677826D01*
X20770476Y15672800D01*
X20770479Y15672797D01*
X20870496Y15596051D01*
X20879757Y15588945D01*
X21014646Y15533072D01*
X21159400Y15514015D01*
X21167588Y15515093D01*
X21295966Y15531994D01*
X21304154Y15533072D01*
X21439043Y15588945D01*
X21448304Y15596051D01*
X21548321Y15672797D01*
X21548324Y15672800D01*
X21554874Y15677826D01*
X21567649Y15694474D01*
X21638728Y15787107D01*
X21643755Y15793658D01*
X21655084Y15821007D01*
X21684015Y15890854D01*
X21699628Y15928546D01*
X21701831Y15945275D01*
X21716550Y16057084D01*
X21718685Y16073300D01*
X21706464Y16166128D01*
X21700706Y16209868D01*
X21700705Y16209870D01*
X21699628Y16218054D01*
X21669289Y16291299D01*
X21646915Y16345314D01*
X21646914Y16345316D01*
X21643755Y16352942D01*
X21563141Y16458000D01*
X23675015Y16458000D01*
X23676093Y16449812D01*
X23691013Y16336485D01*
X23694072Y16313246D01*
X23706531Y16283168D01*
X23745883Y16188165D01*
X23749945Y16178358D01*
X23838826Y16062526D01*
X23845376Y16057500D01*
X23845379Y16057497D01*
X23948104Y15978673D01*
X23954657Y15973645D01*
X24089546Y15917772D01*
X24234300Y15898715D01*
X24242488Y15899793D01*
X24370866Y15916694D01*
X24379054Y15917772D01*
X24513943Y15973645D01*
X24520496Y15978673D01*
X24623221Y16057497D01*
X24623224Y16057500D01*
X24629774Y16062526D01*
X24718655Y16178358D01*
X24722718Y16188165D01*
X24762069Y16283168D01*
X24774528Y16313246D01*
X24777588Y16336485D01*
X24792507Y16449812D01*
X24793585Y16458000D01*
X24789501Y16489024D01*
X24775606Y16594568D01*
X24775605Y16594570D01*
X24774528Y16602754D01*
X24751070Y16659385D01*
X24721815Y16730014D01*
X24721814Y16730016D01*
X24718655Y16737642D01*
X24652937Y16823288D01*
X24634801Y16846923D01*
X24634800Y16846924D01*
X24629774Y16853474D01*
X24623224Y16858500D01*
X24623221Y16858503D01*
X24520496Y16937327D01*
X24520494Y16937328D01*
X24513943Y16942355D01*
X24379054Y16998228D01*
X24234300Y17017285D01*
X24226112Y17016207D01*
X24097732Y16999306D01*
X24097730Y16999305D01*
X24089546Y16998228D01*
X24072186Y16991037D01*
X23962286Y16945515D01*
X23962284Y16945514D01*
X23954658Y16942355D01*
X23942687Y16933169D01*
X23854112Y16865203D01*
X23838826Y16853474D01*
X23749945Y16737642D01*
X23746786Y16730016D01*
X23746785Y16730014D01*
X23717530Y16659385D01*
X23694072Y16602754D01*
X23692995Y16594570D01*
X23692994Y16594568D01*
X23679099Y16489024D01*
X23675015Y16458000D01*
X21563141Y16458000D01*
X21554874Y16468774D01*
X21548324Y16473800D01*
X21548321Y16473803D01*
X21445596Y16552627D01*
X21445594Y16552628D01*
X21439043Y16557655D01*
X21304154Y16613528D01*
X21159400Y16632585D01*
X21151212Y16631507D01*
X21022832Y16614606D01*
X21022830Y16614605D01*
X21014646Y16613528D01*
X21001337Y16608015D01*
X20887386Y16560815D01*
X20887384Y16560814D01*
X20879758Y16557655D01*
X20763926Y16468774D01*
X20675045Y16352942D01*
X20671886Y16345316D01*
X20671885Y16345314D01*
X20649511Y16291299D01*
X20619172Y16218054D01*
X20618095Y16209870D01*
X20618094Y16209868D01*
X20612336Y16166128D01*
X20600115Y16073300D01*
X16494051Y16073300D01*
X16486196Y16079327D01*
X16486194Y16079328D01*
X16479643Y16084355D01*
X16344754Y16140228D01*
X16273426Y16149618D01*
X16208499Y16178340D01*
X16169407Y16237605D01*
X16168562Y16308596D01*
X16206232Y16368775D01*
X16213157Y16374494D01*
X16271974Y16419626D01*
X16282945Y16433923D01*
X16342621Y16511695D01*
X16360855Y16535458D01*
X16370050Y16557655D01*
X16397225Y16623262D01*
X16416728Y16670346D01*
X16420435Y16698499D01*
X16434027Y16801746D01*
X16435785Y16815100D01*
X16416728Y16959854D01*
X16399472Y17001514D01*
X16391883Y17072102D01*
X16423662Y17135589D01*
X16438546Y17149121D01*
X16438928Y17149503D01*
X16445474Y17154526D01*
X16534355Y17270358D01*
X16552353Y17313807D01*
X16585882Y17394754D01*
X16590228Y17405246D01*
X16609285Y17550000D01*
X16603780Y17591812D01*
X16591306Y17686568D01*
X16591305Y17686570D01*
X16590228Y17694754D01*
X16551990Y17787068D01*
X16537515Y17822014D01*
X16537514Y17822016D01*
X16534355Y17829642D01*
X16445474Y17945474D01*
X16438924Y17950500D01*
X16438921Y17950503D01*
X16336196Y18029327D01*
X16336194Y18029328D01*
X16329643Y18034355D01*
X16194754Y18090228D01*
X16148306Y18096343D01*
X16058188Y18108207D01*
X16050000Y18109285D01*
X16041812Y18108207D01*
X15913432Y18091306D01*
X15913430Y18091305D01*
X15905246Y18090228D01*
X15873514Y18077084D01*
X15777986Y18037515D01*
X15777984Y18037514D01*
X15770358Y18034355D01*
X15654526Y17945474D01*
X15565645Y17829642D01*
X15562486Y17822016D01*
X15562485Y17822014D01*
X15548010Y17787068D01*
X15509772Y17694754D01*
X15508695Y17686570D01*
X15508694Y17686568D01*
X15496220Y17591812D01*
X15490715Y17550000D01*
X15509772Y17405246D01*
X15512931Y17397620D01*
X15512932Y17397616D01*
X15527028Y17363586D01*
X15534617Y17292996D01*
X15502837Y17229509D01*
X15487981Y17216004D01*
X15487580Y17215603D01*
X15481026Y17210574D01*
X15392145Y17094742D01*
X15388986Y17087116D01*
X15388985Y17087114D01*
X15369766Y17040715D01*
X15336272Y16959854D01*
X15335195Y16951670D01*
X15335194Y16951668D01*
X15325719Y16879696D01*
X15317215Y16815100D01*
X15318973Y16801746D01*
X15332566Y16698499D01*
X15336272Y16670346D01*
X15355775Y16623262D01*
X15382951Y16557655D01*
X15392145Y16535458D01*
X15410379Y16511695D01*
X15470056Y16433923D01*
X15481026Y16419626D01*
X15487575Y16414601D01*
X15487579Y16414597D01*
X15590304Y16335773D01*
X15596857Y16330745D01*
X15731746Y16274872D01*
X15803074Y16265482D01*
X15868000Y16236760D01*
X15907092Y16177495D01*
X15907937Y16106503D01*
X15870267Y16046325D01*
X15863331Y16040598D01*
X15811076Y16000501D01*
X15811072Y16000497D01*
X15804526Y15995474D01*
X15799503Y15988928D01*
X15760803Y15938493D01*
X15703465Y15896626D01*
X15644396Y15890275D01*
X15500000Y15909285D01*
X15491812Y15908207D01*
X15363432Y15891306D01*
X15363430Y15891305D01*
X15355246Y15890228D01*
X15323514Y15877084D01*
X15252924Y15869495D01*
X15189437Y15901274D01*
X15158886Y15945275D01*
X15128716Y16018111D01*
X15128716Y16018112D01*
X15125555Y16025742D01*
X15077910Y16087834D01*
X15041701Y16135023D01*
X15041700Y16135024D01*
X15036674Y16141574D01*
X15030124Y16146600D01*
X15030121Y16146603D01*
X14927396Y16225427D01*
X14927394Y16225428D01*
X14920843Y16230455D01*
X14785954Y16286328D01*
X14641200Y16305385D01*
X14633012Y16304307D01*
X14504632Y16287406D01*
X14504630Y16287405D01*
X14496446Y16286328D01*
X14481821Y16280270D01*
X14369186Y16233615D01*
X14369184Y16233614D01*
X14361558Y16230455D01*
X14245726Y16141574D01*
X14244004Y16143819D01*
X14193786Y16116397D01*
X14122971Y16121462D01*
X14070395Y16160333D01*
X14070343Y16160281D01*
X14069995Y16160629D01*
X14067041Y16162813D01*
X14064502Y16166122D01*
X14064500Y16166124D01*
X14059474Y16172674D01*
X14052924Y16177700D01*
X14052921Y16177703D01*
X13950196Y16256527D01*
X13950194Y16256528D01*
X13943643Y16261555D01*
X13808754Y16317428D01*
X13664000Y16336485D01*
X13655812Y16335407D01*
X13527432Y16318506D01*
X13527430Y16318505D01*
X13519246Y16317428D01*
X13471430Y16297622D01*
X13391986Y16264715D01*
X13391984Y16264714D01*
X13384358Y16261555D01*
X13337275Y16225427D01*
X13275934Y16178358D01*
X13268526Y16172674D01*
X13263503Y16166128D01*
X13248521Y16146603D01*
X13179645Y16056842D01*
X13176486Y16049216D01*
X13176485Y16049214D01*
X13156100Y16000000D01*
X13123772Y15921954D01*
X13122695Y15913770D01*
X13122694Y15913768D01*
X13111823Y15831192D01*
X13104715Y15777200D01*
X11890914Y15777200D01*
X11929555Y15827558D01*
X11947970Y15872014D01*
X11982269Y15954820D01*
X11985428Y15962446D01*
X11986903Y15973645D01*
X12003407Y16099012D01*
X12004485Y16107200D01*
X11997451Y16160629D01*
X11986506Y16243768D01*
X11986505Y16243770D01*
X11985428Y16251954D01*
X11959859Y16313682D01*
X11932715Y16379214D01*
X11932714Y16379216D01*
X11929555Y16386842D01*
X11862832Y16473797D01*
X11845701Y16496123D01*
X11845700Y16496124D01*
X11840674Y16502674D01*
X11834124Y16507700D01*
X11834121Y16507703D01*
X11731396Y16586527D01*
X11731394Y16586528D01*
X11724843Y16591555D01*
X11589954Y16647428D01*
X11485357Y16661198D01*
X11420431Y16689920D01*
X11381339Y16749185D01*
X11380494Y16820177D01*
X11401842Y16862824D01*
X11479325Y16963802D01*
X11479328Y16963807D01*
X11484355Y16970358D01*
X11494591Y16995068D01*
X11537069Y17097620D01*
X11540228Y17105246D01*
X11543773Y17132168D01*
X11558207Y17241812D01*
X11559285Y17250000D01*
X11544561Y17361842D01*
X11541306Y17386568D01*
X11541305Y17386570D01*
X11540228Y17394754D01*
X11484355Y17529642D01*
X11395474Y17645474D01*
X11388924Y17650500D01*
X11388921Y17650503D01*
X11286196Y17729327D01*
X11286194Y17729328D01*
X11279643Y17734355D01*
X11144754Y17790228D01*
X11000000Y17809285D01*
X10991812Y17808207D01*
X10863432Y17791306D01*
X10863430Y17791305D01*
X10855246Y17790228D01*
X10807430Y17770422D01*
X10727986Y17737515D01*
X10727984Y17737514D01*
X10720358Y17734355D01*
X10604526Y17645474D01*
X10515645Y17529642D01*
X10459772Y17394754D01*
X10458695Y17386570D01*
X10458694Y17386568D01*
X10455439Y17361842D01*
X10440715Y17250000D01*
X10441793Y17241812D01*
X10456228Y17132168D01*
X10459772Y17105246D01*
X10462931Y17097620D01*
X10505410Y16995068D01*
X10515645Y16970358D01*
X10538728Y16940276D01*
X10604526Y16854526D01*
X10602550Y16853010D01*
X10630543Y16801746D01*
X10625478Y16730931D01*
X10582931Y16674095D01*
X10516411Y16649284D01*
X10490976Y16650041D01*
X10454857Y16654796D01*
X10420000Y16659385D01*
X10396255Y16656259D01*
X10283432Y16641406D01*
X10283430Y16641405D01*
X10275246Y16640328D01*
X10227430Y16620522D01*
X10147986Y16587615D01*
X10147984Y16587614D01*
X10140358Y16584455D01*
X10024526Y16495574D01*
X10019503Y16489028D01*
X10019499Y16489024D01*
X9938907Y16383995D01*
X9881569Y16342128D01*
X9810698Y16337906D01*
X9748795Y16372670D01*
X9738982Y16383996D01*
X9735204Y16388920D01*
X9735200Y16388924D01*
X9730174Y16395474D01*
X9723624Y16400500D01*
X9723621Y16400503D01*
X9620896Y16479327D01*
X9620894Y16479328D01*
X9614343Y16484355D01*
X9479454Y16540228D01*
X9334700Y16559285D01*
X9326512Y16558207D01*
X9198132Y16541306D01*
X9198130Y16541305D01*
X9189946Y16540228D01*
X9162615Y16528907D01*
X9062686Y16487515D01*
X9062684Y16487514D01*
X9055058Y16484355D01*
X8939226Y16395474D01*
X8850345Y16279642D01*
X8847186Y16272016D01*
X8847185Y16272014D01*
X8827888Y16225427D01*
X8794472Y16144754D01*
X8793395Y16136570D01*
X8793394Y16136568D01*
X8782930Y16057084D01*
X8775415Y16000000D01*
X8776493Y15991812D01*
X8789867Y15890228D01*
X8794472Y15855246D01*
X8826800Y15777200D01*
X8850345Y15720358D01*
X8847690Y15719258D01*
X8861141Y15663804D01*
X8837918Y15596713D01*
X8782109Y15552828D01*
X8754017Y15545204D01*
X8724157Y15540715D01*
X8724154Y15540714D01*
X8714849Y15539315D01*
X8708282Y15536162D01*
X8701117Y15534853D01*
X8692762Y15530513D01*
X8648564Y15507554D01*
X8645023Y15505785D01*
X8600140Y15484233D01*
X8600137Y15484231D01*
X8591647Y15480154D01*
X8586357Y15475264D01*
X8586202Y15475159D01*
X8579835Y15471852D01*
X8574746Y15467506D01*
X8537164Y15429924D01*
X8533599Y15426494D01*
X8491288Y15387383D01*
X8487570Y15380983D01*
X8481963Y15374723D01*
X7848645Y14741405D01*
X7786333Y14707379D01*
X7759550Y14704500D01*
X6526482Y14704500D01*
X6458361Y14724502D01*
X6449778Y14730538D01*
X6386196Y14779327D01*
X6386194Y14779328D01*
X6379643Y14784355D01*
X6244754Y14840228D01*
X6100000Y14859285D01*
X6091812Y14858207D01*
X5963432Y14841306D01*
X5963430Y14841305D01*
X5955246Y14840228D01*
X5937473Y14832866D01*
X5827986Y14787515D01*
X5827984Y14787514D01*
X5820358Y14784355D01*
X5704526Y14695474D01*
X5699503Y14688928D01*
X5689440Y14675814D01*
X5615645Y14579642D01*
X5612486Y14572016D01*
X5612485Y14572014D01*
X5583921Y14503054D01*
X5559772Y14444754D01*
X5558695Y14436570D01*
X5558694Y14436568D01*
X5550282Y14372672D01*
X5540715Y14300000D01*
X2681342Y14300000D01*
X2658177Y14310802D01*
X2658174Y14310803D01*
X2652000Y14313682D01*
X2645352Y14315168D01*
X2645349Y14315169D01*
X2475849Y14353056D01*
X2475850Y14353056D01*
X2470812Y14354182D01*
X2465124Y14354500D01*
X1778615Y14354500D01*
X1640427Y14339488D01*
X1535922Y14304318D01*
X1470936Y14282448D01*
X1470934Y14282447D01*
X1464465Y14280270D01*
X1305323Y14184649D01*
X1300366Y14179961D01*
X1300363Y14179959D01*
X1175386Y14061773D01*
X1170428Y14057084D01*
X1066072Y13903529D01*
X1063539Y13897195D01*
X1063537Y13897192D01*
X999658Y13737484D01*
X999657Y13737479D01*
X997124Y13731147D01*
X996010Y13724420D01*
X996009Y13724415D01*
X967916Y13554718D01*
X966801Y13547981D01*
X400000Y13547981D01*
X400000Y17232601D01*
X749712Y17232601D01*
X771194Y17143463D01*
X775083Y17132168D01*
X857629Y16950618D01*
X863576Y16940276D01*
X978968Y16777603D01*
X986761Y16768575D01*
X1130831Y16630658D01*
X1140196Y16623262D01*
X1307741Y16515079D01*
X1318345Y16509583D01*
X1399579Y16476845D01*
X1455285Y16432830D01*
X1478352Y16365685D01*
X1461455Y16296729D01*
X1417375Y16251976D01*
X1386817Y16233615D01*
X1305323Y16184649D01*
X1300366Y16179961D01*
X1300363Y16179959D01*
X1175386Y16061773D01*
X1170428Y16057084D01*
X1066072Y15903529D01*
X1063539Y15897195D01*
X1063537Y15897192D01*
X999658Y15737484D01*
X999657Y15737479D01*
X997124Y15731147D01*
X996010Y15724420D01*
X996009Y15724415D01*
X967916Y15554718D01*
X966801Y15547981D01*
X967158Y15541164D01*
X967158Y15541160D01*
X972719Y15435059D01*
X976518Y15362576D01*
X978328Y15356004D01*
X978329Y15355999D01*
X1021815Y15198128D01*
X1025821Y15183583D01*
X1112410Y15019352D01*
X1232245Y14877546D01*
X1237668Y14873399D01*
X1237670Y14873398D01*
X1374315Y14768925D01*
X1374319Y14768923D01*
X1379736Y14764781D01*
X1385916Y14761899D01*
X1385918Y14761898D01*
X1541823Y14689198D01*
X1541826Y14689197D01*
X1548000Y14686318D01*
X1554648Y14684832D01*
X1554651Y14684831D01*
X1653711Y14662689D01*
X1729188Y14645818D01*
X1734876Y14645500D01*
X2421385Y14645500D01*
X2559573Y14660512D01*
X2708442Y14710612D01*
X2729064Y14717552D01*
X2729066Y14717553D01*
X2735535Y14719730D01*
X2894677Y14815351D01*
X2899634Y14820039D01*
X2899637Y14820041D01*
X3024614Y14938227D01*
X3024616Y14938229D01*
X3029572Y14942916D01*
X3133928Y15096471D01*
X3136463Y15102808D01*
X3200342Y15262516D01*
X3200343Y15262521D01*
X3202876Y15268853D01*
X3203990Y15275580D01*
X3203991Y15275585D01*
X3232084Y15445282D01*
X3232084Y15445285D01*
X3233199Y15452019D01*
X3232443Y15466458D01*
X3223839Y15630611D01*
X3223482Y15637424D01*
X3221672Y15643996D01*
X3221671Y15644001D01*
X3175992Y15809835D01*
X3174179Y15816417D01*
X3087590Y15980648D01*
X2967755Y16122454D01*
X2960202Y16128229D01*
X2825685Y16231075D01*
X2825681Y16231077D01*
X2820264Y16235219D01*
X2801931Y16243768D01*
X2800617Y16244381D01*
X2747333Y16291299D01*
X2727873Y16359577D01*
X2748416Y16427536D01*
X2796177Y16470591D01*
X2970978Y16560619D01*
X2981024Y16567069D01*
X3137857Y16690262D01*
X3146506Y16698499D01*
X3277212Y16849123D01*
X3284147Y16858847D01*
X3384010Y17031467D01*
X3388984Y17042331D01*
X3454407Y17230727D01*
X3454648Y17231716D01*
X3453180Y17242008D01*
X3439615Y17246000D01*
X764598Y17246000D01*
X751067Y17242027D01*
X749712Y17232601D01*
X400000Y17232601D01*
X400000Y17768284D01*
X745352Y17768284D01*
X746820Y17757992D01*
X760385Y17754000D01*
X3435402Y17754000D01*
X3448933Y17757973D01*
X3450288Y17767399D01*
X3428806Y17856537D01*
X3424917Y17867832D01*
X3342371Y18049382D01*
X3336424Y18059724D01*
X3221032Y18222397D01*
X3213239Y18231425D01*
X3069169Y18369342D01*
X3059804Y18376738D01*
X2892259Y18484921D01*
X2881655Y18490417D01*
X2800421Y18523155D01*
X2744715Y18567170D01*
X2721648Y18634315D01*
X2738545Y18703271D01*
X2782625Y18748024D01*
X2888825Y18811835D01*
X2894677Y18815351D01*
X2899634Y18820039D01*
X2899637Y18820041D01*
X3024614Y18938227D01*
X3024616Y18938229D01*
X3029572Y18942916D01*
X3133928Y19096471D01*
X3142342Y19117507D01*
X3200342Y19262516D01*
X3200343Y19262521D01*
X3202876Y19268853D01*
X3203990Y19275580D01*
X3203991Y19275585D01*
X3232084Y19445282D01*
X3232084Y19445285D01*
X3233199Y19452019D01*
X3229993Y19513200D01*
X16573115Y19513200D01*
X16574193Y19505012D01*
X16581170Y19452019D01*
X16592172Y19368446D01*
X16595331Y19360820D01*
X16639879Y19253273D01*
X16648045Y19233558D01*
X16736926Y19117726D01*
X16743476Y19112700D01*
X16743479Y19112697D01*
X16846204Y19033873D01*
X16852757Y19028845D01*
X16987646Y18972972D01*
X16995834Y18971894D01*
X17018234Y18968945D01*
X17132400Y18953915D01*
X17140588Y18954993D01*
X17179882Y18960166D01*
X17246566Y18968945D01*
X17268966Y18971894D01*
X17277154Y18972972D01*
X17412043Y19028845D01*
X17413807Y19030199D01*
X17480083Y19046280D01*
X17547175Y19023061D01*
X17579941Y18988774D01*
X17581787Y18985916D01*
X17585219Y18978768D01*
X17588814Y18974492D01*
X17590737Y18972569D01*
X17592509Y18970637D01*
X17592552Y18970558D01*
X17592428Y18970445D01*
X17592904Y18969905D01*
X17595990Y18964186D01*
X17603635Y18957119D01*
X17635586Y18927584D01*
X17639152Y18924154D01*
X17983595Y18579711D01*
X18017621Y18517399D01*
X18020500Y18490616D01*
X18020500Y18059064D01*
X18000498Y17990943D01*
X17994463Y17982360D01*
X17970014Y17950497D01*
X17915645Y17879642D01*
X17912486Y17872016D01*
X17912485Y17872014D01*
X17894934Y17829642D01*
X17859772Y17744754D01*
X17840715Y17600000D01*
X17841793Y17591812D01*
X17848376Y17541812D01*
X17859772Y17455246D01*
X17862931Y17447620D01*
X17898462Y17361842D01*
X17915645Y17320358D01*
X17920672Y17313807D01*
X17995719Y17216004D01*
X18004526Y17204526D01*
X18011076Y17199500D01*
X18011079Y17199497D01*
X18113804Y17120673D01*
X18120357Y17115645D01*
X18255246Y17059772D01*
X18400000Y17040715D01*
X18408188Y17041793D01*
X18536566Y17058694D01*
X18544754Y17059772D01*
X18679643Y17115645D01*
X18686196Y17120673D01*
X18788921Y17199497D01*
X18788924Y17199500D01*
X18795474Y17204526D01*
X18804282Y17216004D01*
X18879328Y17313807D01*
X18884355Y17320358D01*
X18901539Y17361842D01*
X18937069Y17447620D01*
X18940228Y17455246D01*
X18951625Y17541812D01*
X18958207Y17591812D01*
X18959285Y17600000D01*
X18940228Y17744754D01*
X18905066Y17829642D01*
X18887515Y17872014D01*
X18887514Y17872016D01*
X18884355Y17879642D01*
X18829986Y17950497D01*
X18805537Y17982360D01*
X18779937Y18048581D01*
X18779500Y18059064D01*
X18779500Y18646080D01*
X18782049Y18670027D01*
X18782128Y18671693D01*
X18784320Y18681876D01*
X18783096Y18692218D01*
X18783096Y18692221D01*
X18780374Y18715213D01*
X18780023Y18721154D01*
X18779928Y18721146D01*
X18779500Y18726326D01*
X18779500Y18731524D01*
X18776329Y18750576D01*
X18775492Y18756453D01*
X18770693Y18797003D01*
X18770692Y18797005D01*
X18769469Y18807341D01*
X18765508Y18815590D01*
X18764004Y18824626D01*
X18757954Y18835839D01*
X18739652Y18869760D01*
X18736957Y18875049D01*
X18718212Y18914085D01*
X18714780Y18921232D01*
X18711186Y18925508D01*
X18709246Y18927448D01*
X18707493Y18929359D01*
X18707444Y18929449D01*
X18707567Y18929561D01*
X18707095Y18930096D01*
X18704010Y18935814D01*
X18696366Y18942880D01*
X18696363Y18942884D01*
X18681003Y18957082D01*
X18644557Y19018010D01*
X18646837Y19088970D01*
X18687119Y19147432D01*
X18752614Y19174836D01*
X18782974Y19174529D01*
X18784007Y19174393D01*
X18784012Y19174393D01*
X18792200Y19173315D01*
X18800388Y19174393D01*
X18928766Y19191294D01*
X18936954Y19192372D01*
X19071843Y19248245D01*
X19078396Y19253273D01*
X19181121Y19332097D01*
X19181124Y19332100D01*
X19187674Y19337126D01*
X19207203Y19362576D01*
X19271528Y19446407D01*
X19276555Y19452958D01*
X19332428Y19587846D01*
X19334350Y19602441D01*
X19350407Y19724412D01*
X19350407Y19724415D01*
X19351485Y19732600D01*
X19341317Y19809835D01*
X19333506Y19869168D01*
X19333505Y19869170D01*
X19332428Y19877354D01*
X19276555Y20012242D01*
X19215221Y20092174D01*
X19192701Y20121523D01*
X19192700Y20121524D01*
X19187674Y20128074D01*
X19181124Y20133100D01*
X19181121Y20133103D01*
X19078396Y20211927D01*
X19078394Y20211928D01*
X19071843Y20216955D01*
X18936954Y20272828D01*
X18792200Y20291885D01*
X18768455Y20288759D01*
X18655632Y20273906D01*
X18655630Y20273905D01*
X18647446Y20272828D01*
X18632352Y20266576D01*
X18561763Y20258985D01*
X18498276Y20290763D01*
X18462047Y20351820D01*
X18460155Y20383554D01*
X18458207Y20383554D01*
X18458207Y20391812D01*
X18459285Y20400000D01*
X18445689Y20503276D01*
X18441306Y20536568D01*
X18441305Y20536570D01*
X18440228Y20544754D01*
X18400113Y20641600D01*
X18387515Y20672014D01*
X18387514Y20672016D01*
X18384355Y20679642D01*
X18366661Y20702701D01*
X22356500Y20702701D01*
X22373018Y20534238D01*
X22426448Y20373621D01*
X22430097Y20367596D01*
X22498139Y20255246D01*
X22514135Y20228833D01*
X22519026Y20223768D01*
X22519027Y20223767D01*
X22542762Y20199189D01*
X22631721Y20107069D01*
X22773360Y20014383D01*
X22932015Y19955380D01*
X22938996Y19954449D01*
X22938998Y19954448D01*
X23092818Y19933924D01*
X23092822Y19933924D01*
X23099799Y19932993D01*
X23106810Y19933631D01*
X23106814Y19933631D01*
X23261352Y19947695D01*
X23268373Y19948334D01*
X23429359Y20000642D01*
X23526868Y20058769D01*
X23568704Y20083708D01*
X23568706Y20083709D01*
X23574756Y20087316D01*
X23697338Y20204048D01*
X23705043Y20215645D01*
X23787110Y20339165D01*
X23787111Y20339167D01*
X23791011Y20345037D01*
X23851120Y20503276D01*
X23870769Y20643085D01*
X23874127Y20666977D01*
X23874127Y20666982D01*
X23874678Y20670900D01*
X23874974Y20692100D01*
X23857852Y20844754D01*
X23856891Y20853320D01*
X23856890Y20853323D01*
X23856106Y20860316D01*
X23800438Y21020171D01*
X23710738Y21163721D01*
X23591464Y21283831D01*
X23448544Y21374531D01*
X23415675Y21386235D01*
X23295716Y21428951D01*
X23295711Y21428952D01*
X23289081Y21431313D01*
X23282095Y21432146D01*
X23282091Y21432147D01*
X23162987Y21446349D01*
X23121001Y21451355D01*
X23113998Y21450619D01*
X23113997Y21450619D01*
X22959665Y21434399D01*
X22959661Y21434398D01*
X22952657Y21433662D01*
X22945986Y21431391D01*
X22799087Y21381383D01*
X22799084Y21381382D01*
X22792417Y21379112D01*
X22786419Y21375422D01*
X22786417Y21375421D01*
X22654243Y21294107D01*
X22654241Y21294105D01*
X22648244Y21290416D01*
X22611967Y21254891D01*
X22543166Y21187515D01*
X22527305Y21171983D01*
X22523494Y21166069D01*
X22523492Y21166067D01*
X22494539Y21121141D01*
X22435609Y21029700D01*
X22419774Y20986193D01*
X22380125Y20877260D01*
X22380124Y20877255D01*
X22377715Y20870637D01*
X22356500Y20702701D01*
X18366661Y20702701D01*
X18295474Y20795474D01*
X18288924Y20800500D01*
X18288921Y20800503D01*
X18186196Y20879327D01*
X18186194Y20879328D01*
X18179643Y20884355D01*
X18044754Y20940228D01*
X17900000Y20959285D01*
X17891812Y20958207D01*
X17763432Y20941306D01*
X17763430Y20941305D01*
X17755246Y20940228D01*
X17707430Y20920422D01*
X17627986Y20887515D01*
X17627984Y20887514D01*
X17620358Y20884355D01*
X17504526Y20795474D01*
X17415645Y20679642D01*
X17412486Y20672016D01*
X17412485Y20672014D01*
X17399887Y20641600D01*
X17359772Y20544754D01*
X17358695Y20536570D01*
X17358694Y20536568D01*
X17354311Y20503276D01*
X17340715Y20400000D01*
X17341793Y20391812D01*
X17356941Y20276752D01*
X17359772Y20255246D01*
X17362932Y20247617D01*
X17369438Y20231909D01*
X17377027Y20161319D01*
X17345247Y20097832D01*
X17284189Y20061605D01*
X17236584Y20058769D01*
X17132400Y20072485D01*
X17124212Y20071407D01*
X16995832Y20054506D01*
X16995830Y20054505D01*
X16987646Y20053428D01*
X16939830Y20033622D01*
X16860386Y20000715D01*
X16860384Y20000714D01*
X16852758Y19997555D01*
X16736926Y19908674D01*
X16731903Y19902128D01*
X16718745Y19884980D01*
X16648045Y19792842D01*
X16644886Y19785216D01*
X16644885Y19785214D01*
X16626483Y19740788D01*
X16592172Y19657954D01*
X16591095Y19649770D01*
X16591094Y19649768D01*
X16584020Y19596032D01*
X16573115Y19513200D01*
X3229993Y19513200D01*
X3229564Y19521388D01*
X3223839Y19630611D01*
X3223482Y19637424D01*
X3221672Y19643996D01*
X3221671Y19644001D01*
X3175992Y19809835D01*
X3174179Y19816417D01*
X3087590Y19980648D01*
X2967755Y20122454D01*
X2962330Y20126602D01*
X2825685Y20231075D01*
X2825681Y20231077D01*
X2820264Y20235219D01*
X2814084Y20238101D01*
X2814082Y20238102D01*
X2658177Y20310802D01*
X2658174Y20310803D01*
X2652000Y20313682D01*
X2645352Y20315168D01*
X2645349Y20315169D01*
X2511725Y20345037D01*
X2470812Y20354182D01*
X2465124Y20354500D01*
X1778615Y20354500D01*
X1775219Y20354131D01*
X1775218Y20354131D01*
X1740634Y20350374D01*
X1640427Y20339488D01*
X1556006Y20311077D01*
X1470936Y20282448D01*
X1470934Y20282447D01*
X1464465Y20280270D01*
X1305323Y20184649D01*
X1300366Y20179961D01*
X1300363Y20179959D01*
X1186714Y20072485D01*
X1170428Y20057084D01*
X1066072Y19903529D01*
X1063539Y19897195D01*
X1063537Y19897192D01*
X999658Y19737484D01*
X999657Y19737479D01*
X997124Y19731147D01*
X996010Y19724420D01*
X996009Y19724415D01*
X972138Y19580220D01*
X966801Y19547981D01*
X967158Y19541164D01*
X967158Y19541160D01*
X969053Y19505012D01*
X976518Y19362576D01*
X978328Y19356004D01*
X978329Y19355999D01*
X1013860Y19227007D01*
X1025821Y19183583D01*
X1112410Y19019352D01*
X1232245Y18877546D01*
X1237668Y18873399D01*
X1237670Y18873398D01*
X1374315Y18768925D01*
X1374319Y18768923D01*
X1379736Y18764781D01*
X1385919Y18761898D01*
X1399383Y18755619D01*
X1452667Y18708701D01*
X1472127Y18640423D01*
X1451584Y18572464D01*
X1403823Y18529409D01*
X1229022Y18439381D01*
X1218976Y18432931D01*
X1062143Y18309738D01*
X1053494Y18301501D01*
X922788Y18150877D01*
X915853Y18141153D01*
X815990Y17968533D01*
X811016Y17957669D01*
X745593Y17769273D01*
X745352Y17768284D01*
X400000Y17768284D01*
X400000Y24427300D01*
X2908315Y24427300D01*
X2909393Y24419112D01*
X2920334Y24336008D01*
X2927372Y24282546D01*
X2945718Y24238256D01*
X2973372Y24171494D01*
X2983245Y24147658D01*
X3010636Y24111961D01*
X3065311Y24040708D01*
X3072126Y24031826D01*
X3078676Y24026800D01*
X3078679Y24026797D01*
X3164894Y23960642D01*
X3187957Y23942945D01*
X3322846Y23887072D01*
X3467600Y23868015D01*
X3475788Y23869093D01*
X3604166Y23885994D01*
X3612354Y23887072D01*
X3737379Y23938859D01*
X3807967Y23946448D01*
X3871454Y23914669D01*
X3906593Y23857602D01*
X3916355Y23824001D01*
X3920392Y23817175D01*
X3996495Y23688491D01*
X3996497Y23688488D01*
X4000533Y23681664D01*
X4308595Y23373602D01*
X4342621Y23311290D01*
X4345500Y23284507D01*
X4345500Y21258822D01*
X4351040Y21214973D01*
X4356471Y21171983D01*
X4361024Y21135939D01*
X4421899Y20982186D01*
X4426557Y20975775D01*
X4426558Y20975773D01*
X4470499Y20915294D01*
X4519098Y20848403D01*
X4646514Y20742995D01*
X4796141Y20672586D01*
X4891298Y20654434D01*
X4950791Y20643085D01*
X4950793Y20643085D01*
X4958577Y20641600D01*
X5123616Y20651983D01*
X5182455Y20671101D01*
X5271397Y20700000D01*
X9340715Y20700000D01*
X9341793Y20691812D01*
X9345063Y20666977D01*
X9359772Y20555246D01*
X9415645Y20420358D01*
X9431266Y20400000D01*
X9477947Y20339165D01*
X9504526Y20304526D01*
X9511076Y20299500D01*
X9511079Y20299497D01*
X9600248Y20231075D01*
X9620357Y20215645D01*
X9755246Y20159772D01*
X9783095Y20156106D01*
X9827724Y20150230D01*
X9892652Y20121507D01*
X9931743Y20062242D01*
X9936200Y20041754D01*
X9941572Y20000946D01*
X9944731Y19993320D01*
X9991821Y19879636D01*
X9997445Y19866058D01*
X10086326Y19750226D01*
X10092876Y19745200D01*
X10092879Y19745197D01*
X10195604Y19666373D01*
X10202157Y19661345D01*
X10337046Y19605472D01*
X10481800Y19586415D01*
X10489988Y19587493D01*
X10492670Y19587846D01*
X10626554Y19605472D01*
X10761443Y19661345D01*
X10767996Y19666373D01*
X10870721Y19745197D01*
X10870724Y19745200D01*
X10877274Y19750226D01*
X10966155Y19866058D01*
X10971780Y19879636D01*
X11018869Y19993320D01*
X11022028Y20000946D01*
X11028522Y20050269D01*
X11040007Y20137512D01*
X11041085Y20145700D01*
X11034043Y20199189D01*
X11023106Y20282268D01*
X11023105Y20282270D01*
X11022028Y20290454D01*
X10995499Y20354500D01*
X10969315Y20417714D01*
X10969314Y20417716D01*
X10966155Y20425342D01*
X10877274Y20541174D01*
X10870724Y20546200D01*
X10870721Y20546203D01*
X10767996Y20625027D01*
X10767994Y20625028D01*
X10761443Y20630055D01*
X10626554Y20685928D01*
X10598705Y20689594D01*
X10554076Y20695470D01*
X10489148Y20724193D01*
X10450057Y20783458D01*
X10445600Y20803947D01*
X10441306Y20836568D01*
X10441305Y20836570D01*
X10440228Y20844754D01*
X10412275Y20912237D01*
X10387515Y20972014D01*
X10387514Y20972016D01*
X10384355Y20979642D01*
X10318991Y21064826D01*
X10300501Y21088923D01*
X10300500Y21088924D01*
X10295474Y21095474D01*
X10288924Y21100500D01*
X10288921Y21100503D01*
X10186196Y21179327D01*
X10186194Y21179328D01*
X10179643Y21184355D01*
X10044754Y21240228D01*
X9900000Y21259285D01*
X9891812Y21258207D01*
X9763432Y21241306D01*
X9763430Y21241305D01*
X9755246Y21240228D01*
X9707430Y21220422D01*
X9627986Y21187515D01*
X9627984Y21187514D01*
X9620358Y21184355D01*
X9504526Y21095474D01*
X9415645Y20979642D01*
X9412486Y20972016D01*
X9412485Y20972014D01*
X9387725Y20912237D01*
X9359772Y20844754D01*
X9358695Y20836570D01*
X9358694Y20836568D01*
X9353547Y20797471D01*
X9340715Y20700000D01*
X5271397Y20700000D01*
X5273351Y20700635D01*
X5273354Y20700636D01*
X5280887Y20703084D01*
X5287577Y20707330D01*
X5287580Y20707331D01*
X5357636Y20751790D01*
X5420510Y20791691D01*
X5428780Y20800497D01*
X5528285Y20906460D01*
X5533710Y20912237D01*
X5613375Y21057147D01*
X5629806Y21121141D01*
X5666121Y21182147D01*
X5729653Y21213835D01*
X5800064Y21206214D01*
X5925946Y21154072D01*
X6070700Y21135015D01*
X6078888Y21136093D01*
X6207266Y21152994D01*
X6215454Y21154072D01*
X6350343Y21209945D01*
X6356896Y21214973D01*
X6459621Y21293797D01*
X6459624Y21293800D01*
X6466174Y21298826D01*
X6555055Y21414658D01*
X6560976Y21428951D01*
X6607769Y21541920D01*
X6610928Y21549546D01*
X6617689Y21600897D01*
X6628907Y21686112D01*
X6629985Y21694300D01*
X6627510Y21713096D01*
X28496000Y21713096D01*
X28496000Y19965964D01*
X28496234Y19963267D01*
X28496234Y19963256D01*
X28496916Y19955380D01*
X28499780Y19922307D01*
X28500248Y19919627D01*
X28500248Y19919624D01*
X28506293Y19884980D01*
X28507225Y19879636D01*
X28507429Y19878659D01*
X28507431Y19878647D01*
X28508666Y19872724D01*
X28510628Y19863314D01*
X28513672Y19856759D01*
X28513673Y19856756D01*
X28535462Y19809835D01*
X28552369Y19773427D01*
X28556018Y19768434D01*
X28556019Y19768432D01*
X28583267Y19731147D01*
X28594259Y19716105D01*
X28624129Y19682072D01*
X28707841Y19629022D01*
X28713607Y19626796D01*
X28713610Y19626794D01*
X28744369Y19614917D01*
X28774072Y19603448D01*
X28778451Y19602442D01*
X28778456Y19602441D01*
X28817652Y19593441D01*
X28844532Y19587269D01*
X28849019Y19586896D01*
X28849020Y19586896D01*
X31699861Y19350000D01*
X28650000Y19350000D01*
X28650000Y13450000D01*
X35740678Y13450000D01*
X29351960Y13042876D01*
X29313253Y13046417D01*
X29282633Y13054108D01*
X29275033Y13054148D01*
X29275032Y13054148D01*
X29210232Y13054487D01*
X29124221Y13054938D01*
X28984085Y13021294D01*
X28962691Y13018069D01*
X28851832Y13011005D01*
X28849013Y13010565D01*
X28849004Y13010564D01*
X28811827Y13004761D01*
X28806126Y13003871D01*
X28761798Y12992740D01*
X28743445Y12987390D01*
X28710291Y12968511D01*
X28662702Y12941412D01*
X28662698Y12941409D01*
X28657324Y12938349D01*
X28603668Y12891856D01*
X28572227Y12859272D01*
X28526291Y12771455D01*
X28506289Y12703334D01*
X28505648Y12698875D01*
X28505647Y12698871D01*
X28501144Y12667554D01*
X28496000Y12631774D01*
X28496000Y10887607D01*
X28504420Y10822748D01*
X28505461Y10818807D01*
X28517277Y10774068D01*
X28520851Y10760534D01*
X28533412Y10724309D01*
X28566142Y10677043D01*
X28583935Y10651349D01*
X28589833Y10642831D01*
X28594280Y10638530D01*
X28594281Y10638528D01*
X28638831Y10595433D01*
X28638839Y10595426D01*
X28640861Y10593470D01*
X28643051Y10591700D01*
X28643054Y10591698D01*
X28658812Y10578967D01*
X28676083Y10565013D01*
X28767598Y10526974D01*
X28837214Y10513037D01*
X28841708Y10512791D01*
X28841712Y10512790D01*
X28880103Y10510685D01*
X28909400Y10509078D01*
X28913887Y10509474D01*
X28913892Y10509474D01*
X30539837Y10652940D01*
X30609453Y10639003D01*
X30660481Y10589642D01*
X30676723Y10520528D01*
X30668305Y10481658D01*
X30661406Y10463963D01*
X30660414Y10456430D01*
X30660414Y10456429D01*
X30642516Y10320477D01*
X30640729Y10306904D01*
X30647169Y10248577D01*
X30657150Y10158173D01*
X30658113Y10149447D01*
X30660723Y10142316D01*
X30660723Y10142314D01*
X30704684Y10022185D01*
X30712553Y10000681D01*
X30716789Y9994378D01*
X30716789Y9994377D01*
X30733525Y9969472D01*
X30800908Y9869195D01*
X30806527Y9864082D01*
X30806528Y9864081D01*
X30828723Y9843885D01*
X30865645Y9783245D01*
X30863922Y9712269D01*
X30826754Y9655744D01*
X30815763Y9646156D01*
X30815760Y9646153D01*
X30810039Y9641162D01*
X30718950Y9511556D01*
X30661406Y9363963D01*
X30660414Y9356430D01*
X30660414Y9356429D01*
X30641880Y9215645D01*
X30640729Y9206904D01*
X30647472Y9145832D01*
X30649925Y9123615D01*
X30658113Y9049447D01*
X30660723Y9042316D01*
X30660723Y9042314D01*
X30670629Y9015246D01*
X30712553Y8900681D01*
X30716789Y8894378D01*
X30716789Y8894377D01*
X30730612Y8873807D01*
X30800908Y8769195D01*
X30806527Y8764082D01*
X30806528Y8764081D01*
X30912460Y8667691D01*
X30918076Y8662581D01*
X31057293Y8586992D01*
X31210522Y8546793D01*
X31294477Y8545474D01*
X31361319Y8544424D01*
X31361322Y8544424D01*
X31368916Y8544305D01*
X31523332Y8579671D01*
X31609348Y8622932D01*
X31658072Y8647437D01*
X31658075Y8647439D01*
X31664855Y8650849D01*
X31769239Y8740001D01*
X31834028Y8769032D01*
X31904228Y8758427D01*
X31935868Y8737384D01*
X32007192Y8672485D01*
X32018076Y8662581D01*
X32157293Y8586992D01*
X32310522Y8546793D01*
X32394477Y8545474D01*
X32461319Y8544424D01*
X32461322Y8544424D01*
X32468916Y8544305D01*
X32623332Y8579671D01*
X32709348Y8622932D01*
X32758072Y8647437D01*
X32758075Y8647439D01*
X32764855Y8650849D01*
X32770626Y8655778D01*
X32770629Y8655780D01*
X32879536Y8748796D01*
X32879536Y8748797D01*
X32885314Y8753731D01*
X32977755Y8882376D01*
X33036842Y9029359D01*
X33054269Y9151812D01*
X33058581Y9182109D01*
X33058581Y9182112D01*
X33059162Y9186193D01*
X33059307Y9200000D01*
X33040276Y9357267D01*
X32984280Y9505454D01*
X32967053Y9530520D01*
X32898855Y9629749D01*
X32898854Y9629751D01*
X32894553Y9636008D01*
X32888883Y9641060D01*
X32888881Y9641062D01*
X32873109Y9655114D01*
X32845129Y9700000D01*
X37540715Y9700000D01*
X37541793Y9691812D01*
X37549964Y9629749D01*
X37559772Y9555246D01*
X37566855Y9538146D01*
X37604944Y9446193D01*
X37615645Y9420358D01*
X37704526Y9304526D01*
X37711076Y9299500D01*
X37711079Y9299497D01*
X37813804Y9220673D01*
X37820357Y9215645D01*
X37955246Y9159772D01*
X38100000Y9140715D01*
X38108188Y9141793D01*
X38236566Y9158694D01*
X38244754Y9159772D01*
X38379643Y9215645D01*
X38386196Y9220673D01*
X38488921Y9299497D01*
X38488924Y9299500D01*
X38495474Y9304526D01*
X38584355Y9420358D01*
X38595057Y9446193D01*
X38633145Y9538146D01*
X38640228Y9555246D01*
X38650037Y9629749D01*
X38658207Y9691812D01*
X38659285Y9700000D01*
X38648326Y9783245D01*
X38641306Y9836568D01*
X38641305Y9836570D01*
X38640228Y9844754D01*
X38598981Y9944332D01*
X38587515Y9972014D01*
X38587514Y9972016D01*
X38584355Y9979642D01*
X38504741Y10083397D01*
X38500501Y10088923D01*
X38500500Y10088924D01*
X38495474Y10095474D01*
X38488924Y10100500D01*
X38488921Y10100503D01*
X38386196Y10179327D01*
X38386194Y10179328D01*
X38379643Y10184355D01*
X38244754Y10240228D01*
X38100000Y10259285D01*
X38091812Y10258207D01*
X37963432Y10241306D01*
X37963430Y10241305D01*
X37955246Y10240228D01*
X37947446Y10236997D01*
X37827986Y10187515D01*
X37827984Y10187514D01*
X37820358Y10184355D01*
X37704526Y10095474D01*
X37615645Y9979642D01*
X37612486Y9972016D01*
X37612485Y9972014D01*
X37601019Y9944332D01*
X37559772Y9844754D01*
X37558695Y9836570D01*
X37558694Y9836568D01*
X37551674Y9783245D01*
X37540715Y9700000D01*
X32845129Y9700000D01*
X32835552Y9715364D01*
X32836531Y9786354D01*
X32875095Y9845002D01*
X32879531Y9848791D01*
X32879535Y9848795D01*
X32885314Y9853731D01*
X32977755Y9982376D01*
X33036842Y10129359D01*
X33046824Y10199497D01*
X33058581Y10282109D01*
X33058581Y10282112D01*
X33059162Y10286193D01*
X33059307Y10300000D01*
X33056844Y10320358D01*
X33052371Y10357320D01*
X33040276Y10457267D01*
X32984280Y10605454D01*
X32936019Y10675675D01*
X32913919Y10743143D01*
X32931804Y10811850D01*
X32983996Y10859980D01*
X33028784Y10872553D01*
X37133557Y11234739D01*
X37133556Y11234739D01*
X37134974Y11234864D01*
X37136356Y11235049D01*
X37136367Y11235050D01*
X37145270Y11236241D01*
X37157583Y11237887D01*
X37158927Y11238128D01*
X37158949Y11238132D01*
X37168982Y11239936D01*
X37179843Y11241888D01*
X37268398Y11275788D01*
X37328799Y11313100D01*
X37365042Y11340231D01*
X37386586Y11369010D01*
X37443422Y11411556D01*
X37487454Y11419500D01*
X38811256Y11419500D01*
X38814653Y11419869D01*
X38865097Y11425349D01*
X38865098Y11425349D01*
X38872948Y11426202D01*
X38880341Y11428974D01*
X38880343Y11428974D01*
X38925528Y11445913D01*
X39008264Y11476929D01*
X39015443Y11482309D01*
X39015446Y11482311D01*
X39109212Y11552585D01*
X39123904Y11563596D01*
X39164980Y11618404D01*
X39205189Y11672054D01*
X39205191Y11672057D01*
X39210571Y11679236D01*
X39261298Y11814552D01*
X39268000Y11876244D01*
X39268000Y12162273D01*
X39288002Y12230394D01*
X39301469Y12247794D01*
X39328381Y12276906D01*
X39331786Y12280447D01*
X40264423Y13213084D01*
X40279909Y13225592D01*
X40283134Y13228526D01*
X40291882Y13234175D01*
X40311003Y13258430D01*
X40314559Y13262431D01*
X40314459Y13262516D01*
X40317812Y13266473D01*
X40321494Y13270155D01*
X40331882Y13284691D01*
X40335401Y13289378D01*
X40364946Y13326857D01*
X40367779Y13334925D01*
X40372753Y13341885D01*
X40380792Y13368764D01*
X40386413Y13387560D01*
X40388247Y13393203D01*
X40401422Y13430723D01*
X40401423Y13430727D01*
X40404050Y13438208D01*
X40404500Y13443404D01*
X40404500Y13446111D01*
X40404597Y13448369D01*
X40404739Y13448841D01*
X40404785Y13448839D01*
X40404798Y13449038D01*
X40406567Y13454955D01*
X40404597Y13505110D01*
X40404500Y13510054D01*
X40404500Y22598743D01*
X40406606Y22618537D01*
X40406811Y22622890D01*
X40409003Y22633070D01*
X40405373Y22663740D01*
X40405058Y22669083D01*
X40404928Y22669072D01*
X40404500Y22674252D01*
X40404500Y22679451D01*
X40403647Y22684575D01*
X40403646Y22684588D01*
X40401573Y22697041D01*
X40400736Y22702916D01*
X40396355Y22739929D01*
X40395131Y22750270D01*
X40391430Y22757978D01*
X40390025Y22766417D01*
X40367371Y22808401D01*
X40364690Y22813664D01*
X40354470Y22834948D01*
X40344045Y22856658D01*
X40340689Y22860650D01*
X40338742Y22862597D01*
X40337252Y22864222D01*
X40337019Y22864654D01*
X40337055Y22864687D01*
X40336916Y22864845D01*
X40333983Y22870280D01*
X40308938Y22893432D01*
X40297119Y22904357D01*
X40293553Y22907786D01*
X39685738Y23515601D01*
X39651712Y23577913D01*
X39650090Y23622449D01*
X39653680Y23647669D01*
X39658011Y23678103D01*
X39658581Y23682109D01*
X39658581Y23682112D01*
X39659162Y23686193D01*
X39659307Y23700000D01*
X39640276Y23857267D01*
X39584280Y24005454D01*
X39569611Y24026797D01*
X39498855Y24129749D01*
X39498854Y24129751D01*
X39494553Y24136008D01*
X39376275Y24241389D01*
X39368889Y24245300D01*
X39281043Y24291812D01*
X39236274Y24315516D01*
X39082633Y24354108D01*
X39075034Y24354148D01*
X39075033Y24354148D01*
X39009181Y24354493D01*
X38924221Y24354938D01*
X38916841Y24353166D01*
X38916839Y24353166D01*
X38777563Y24319729D01*
X38777560Y24319728D01*
X38770184Y24317957D01*
X38629414Y24245300D01*
X38510039Y24141162D01*
X38502018Y24129749D01*
X38452985Y24059983D01*
X38397450Y24015751D01*
X38326818Y24008566D01*
X38263514Y24040708D01*
X38246058Y24061067D01*
X38198855Y24129749D01*
X38198854Y24129751D01*
X38194553Y24136008D01*
X38076275Y24241389D01*
X38068889Y24245300D01*
X37981043Y24291812D01*
X37936274Y24315516D01*
X37782633Y24354108D01*
X37775034Y24354148D01*
X37775033Y24354148D01*
X37709181Y24354493D01*
X37624221Y24354938D01*
X37616841Y24353166D01*
X37616839Y24353166D01*
X37477563Y24319729D01*
X37477560Y24319728D01*
X37470184Y24317957D01*
X37329414Y24245300D01*
X37210039Y24141162D01*
X37160758Y24071043D01*
X37129662Y24026797D01*
X37118950Y24011556D01*
X37118175Y24009568D01*
X37069991Y23960642D01*
X37000734Y23945021D01*
X36934026Y23969323D01*
X36919668Y23981670D01*
X36786918Y24114420D01*
X36774413Y24129902D01*
X36771477Y24133129D01*
X36765825Y24141882D01*
X36741562Y24161009D01*
X36737567Y24164559D01*
X36737483Y24164460D01*
X36733520Y24167818D01*
X36729844Y24171494D01*
X36721692Y24177320D01*
X36715348Y24181854D01*
X36710605Y24185415D01*
X36681325Y24208497D01*
X36681321Y24208499D01*
X36673143Y24214946D01*
X36665075Y24217779D01*
X36658115Y24222753D01*
X36612414Y24236420D01*
X36606765Y24238256D01*
X36569269Y24251424D01*
X36569270Y24251424D01*
X36561792Y24254050D01*
X36556596Y24254500D01*
X36553891Y24254500D01*
X36551635Y24254597D01*
X36551159Y24254740D01*
X36551161Y24254786D01*
X36550962Y24254799D01*
X36545045Y24256568D01*
X36495411Y24254618D01*
X36494876Y24254597D01*
X36489930Y24254500D01*
X36016864Y24254500D01*
X35948743Y24274502D01*
X35913025Y24309132D01*
X35898857Y24329747D01*
X35898853Y24329752D01*
X35894553Y24336008D01*
X35776275Y24441389D01*
X35768889Y24445300D01*
X35642988Y24511961D01*
X35642989Y24511961D01*
X35636274Y24515516D01*
X35482633Y24554108D01*
X35475034Y24554148D01*
X35475033Y24554148D01*
X35409181Y24554493D01*
X35324221Y24554938D01*
X35316841Y24553166D01*
X35316839Y24553166D01*
X35177563Y24519729D01*
X35177560Y24519728D01*
X35170184Y24517957D01*
X35029414Y24445300D01*
X34932472Y24360731D01*
X34867991Y24331024D01*
X34797684Y24340893D01*
X34765824Y24361604D01*
X34681946Y24436336D01*
X34676275Y24441389D01*
X34668889Y24445300D01*
X34542988Y24511961D01*
X34542989Y24511961D01*
X34536274Y24515516D01*
X34382633Y24554108D01*
X34375034Y24554148D01*
X34375033Y24554148D01*
X34309181Y24554493D01*
X34224221Y24554938D01*
X34216841Y24553166D01*
X34216839Y24553166D01*
X34077563Y24519729D01*
X34077560Y24519728D01*
X34070184Y24517957D01*
X33929414Y24445300D01*
X33810039Y24341162D01*
X33718950Y24211556D01*
X33716190Y24204476D01*
X33671028Y24088641D01*
X33661406Y24063963D01*
X33660414Y24056430D01*
X33660414Y24056429D01*
X33643664Y23929197D01*
X33640729Y23906904D01*
X33647814Y23842728D01*
X33656507Y23763995D01*
X33658113Y23749447D01*
X33660723Y23742316D01*
X33660723Y23742314D01*
X33705460Y23620065D01*
X33712553Y23600681D01*
X33716789Y23594378D01*
X33716789Y23594377D01*
X33775569Y23506904D01*
X33800908Y23469195D01*
X33806527Y23464082D01*
X33806528Y23464081D01*
X33844005Y23429980D01*
X33918076Y23362581D01*
X34057293Y23286992D01*
X34064635Y23285066D01*
X34064637Y23285065D01*
X34098010Y23276310D01*
X34155132Y23243529D01*
X34363084Y23035577D01*
X34375592Y23020091D01*
X34378526Y23016866D01*
X34384175Y23008118D01*
X34405373Y22991407D01*
X34408430Y22988997D01*
X34412433Y22985439D01*
X34412518Y22985539D01*
X34416475Y22982186D01*
X34420156Y22978505D01*
X34424388Y22975481D01*
X34424390Y22975479D01*
X34434665Y22968136D01*
X34439409Y22964574D01*
X34468675Y22941503D01*
X34468679Y22941501D01*
X34476857Y22935054D01*
X34484925Y22932221D01*
X34491885Y22927247D01*
X34501863Y22924263D01*
X34537586Y22913580D01*
X34543235Y22911744D01*
X34557202Y22906839D01*
X34588208Y22895950D01*
X34593404Y22895500D01*
X34596109Y22895500D01*
X34598365Y22895403D01*
X34598841Y22895260D01*
X34598839Y22895214D01*
X34599038Y22895201D01*
X34604955Y22893432D01*
X34655124Y22895403D01*
X34660070Y22895500D01*
X36150971Y22895500D01*
X36219092Y22875498D01*
X36240066Y22858595D01*
X37497764Y21600897D01*
X37531790Y21538585D01*
X37526725Y21467770D01*
X37484178Y21410934D01*
X37417658Y21386123D01*
X37398235Y21386235D01*
X32874506Y21762143D01*
X32808275Y21787717D01*
X32766385Y21845039D01*
X32762136Y21915908D01*
X32796876Y21977825D01*
X32803109Y21983521D01*
X32879536Y22048796D01*
X32879536Y22048797D01*
X32885314Y22053731D01*
X32977755Y22182376D01*
X33036842Y22329359D01*
X33053272Y22444807D01*
X33058581Y22482109D01*
X33058581Y22482112D01*
X33059162Y22486193D01*
X33059307Y22500000D01*
X33040276Y22657267D01*
X32984280Y22805454D01*
X32956308Y22846154D01*
X32898839Y22929772D01*
X32876739Y22997241D01*
X32894625Y23065948D01*
X32900349Y23074655D01*
X32977755Y23182376D01*
X33036842Y23329359D01*
X33059162Y23486193D01*
X33059307Y23500000D01*
X33057964Y23511103D01*
X33049879Y23577913D01*
X33040276Y23657267D01*
X32984280Y23805454D01*
X32894553Y23936008D01*
X32776275Y24041389D01*
X32768889Y24045300D01*
X32642988Y24111961D01*
X32642989Y24111961D01*
X32636274Y24115516D01*
X32482633Y24154108D01*
X32475034Y24154148D01*
X32475033Y24154148D01*
X32409181Y24154493D01*
X32324221Y24154938D01*
X32316841Y24153166D01*
X32316839Y24153166D01*
X32177563Y24119729D01*
X32177560Y24119728D01*
X32170184Y24117957D01*
X32029414Y24045300D01*
X31932472Y23960731D01*
X31867991Y23931024D01*
X31797684Y23940893D01*
X31765824Y23961604D01*
X31757161Y23969323D01*
X31676275Y24041389D01*
X31668889Y24045300D01*
X31542988Y24111961D01*
X31542989Y24111961D01*
X31536274Y24115516D01*
X31382633Y24154108D01*
X31375034Y24154148D01*
X31375033Y24154148D01*
X31309181Y24154493D01*
X31224221Y24154938D01*
X31216841Y24153166D01*
X31216839Y24153166D01*
X31077563Y24119729D01*
X31077560Y24119728D01*
X31070184Y24117957D01*
X30929414Y24045300D01*
X30810039Y23941162D01*
X30718950Y23811556D01*
X30697651Y23756927D01*
X30666917Y23678097D01*
X30661406Y23663963D01*
X30660414Y23656430D01*
X30660414Y23656429D01*
X30643280Y23526279D01*
X30640729Y23506904D01*
X30649222Y23429980D01*
X30656099Y23367691D01*
X30658113Y23349447D01*
X30660723Y23342316D01*
X30660723Y23342314D01*
X30709023Y23210328D01*
X30712553Y23200681D01*
X30716789Y23194378D01*
X30716789Y23194377D01*
X30800908Y23069195D01*
X30798109Y23067314D01*
X30821235Y23016472D01*
X30811026Y22946213D01*
X30799580Y22926280D01*
X30718950Y22811556D01*
X30695977Y22752632D01*
X30667445Y22679451D01*
X30661406Y22663963D01*
X30660414Y22656430D01*
X30660414Y22656429D01*
X30646576Y22551315D01*
X30640729Y22506904D01*
X30646862Y22451358D01*
X30654693Y22380426D01*
X30658113Y22349447D01*
X30660723Y22342316D01*
X30660723Y22342314D01*
X30706328Y22217693D01*
X30712553Y22200681D01*
X30716788Y22194378D01*
X30716792Y22194371D01*
X30750619Y22144032D01*
X30772012Y22076335D01*
X30753408Y22007820D01*
X30700716Y21960238D01*
X30635604Y21948189D01*
X28911480Y22091458D01*
X28911473Y22091458D01*
X28907467Y22091791D01*
X28842775Y22088883D01*
X28810336Y22083223D01*
X28782309Y22078333D01*
X28782306Y22078332D01*
X28780000Y22077930D01*
X28743445Y22068712D01*
X28736023Y22064486D01*
X28736024Y22064486D01*
X28662702Y22022734D01*
X28662698Y22022731D01*
X28657324Y22019671D01*
X28652647Y22015618D01*
X28606348Y21975500D01*
X28603668Y21973178D01*
X28572227Y21940594D01*
X28526291Y21852777D01*
X28506289Y21784656D01*
X28505648Y21780197D01*
X28505647Y21780193D01*
X28503052Y21762143D01*
X28496000Y21713096D01*
X6627510Y21713096D01*
X6623074Y21746793D01*
X6612006Y21830868D01*
X6612005Y21830870D01*
X6610928Y21839054D01*
X6570619Y21936368D01*
X6558215Y21966314D01*
X6558214Y21966316D01*
X6555055Y21973942D01*
X6485578Y22064486D01*
X6471201Y22083223D01*
X6471200Y22083224D01*
X6466174Y22089774D01*
X6459624Y22094800D01*
X6459621Y22094803D01*
X6356896Y22173627D01*
X6356894Y22173628D01*
X6350343Y22178655D01*
X6215454Y22234528D01*
X6206765Y22235672D01*
X6123415Y22246645D01*
X6070700Y22253585D01*
X6062512Y22252507D01*
X5934132Y22235606D01*
X5934130Y22235605D01*
X5925946Y22234528D01*
X5918317Y22231368D01*
X5828718Y22194255D01*
X5758129Y22186666D01*
X5694642Y22218445D01*
X5658414Y22279503D01*
X5654500Y22310664D01*
X5654500Y22731000D01*
X9727015Y22731000D01*
X9729105Y22715126D01*
X9744427Y22598743D01*
X9746072Y22586246D01*
X9752369Y22571043D01*
X9787516Y22486193D01*
X9801945Y22451358D01*
X9890826Y22335526D01*
X9897376Y22330500D01*
X9897379Y22330497D01*
X9999511Y22252128D01*
X10006657Y22246645D01*
X10141546Y22190772D01*
X10149734Y22189694D01*
X10202738Y22182716D01*
X10286300Y22171715D01*
X10294488Y22172793D01*
X10320383Y22176202D01*
X10369862Y22182716D01*
X10422866Y22189694D01*
X10431054Y22190772D01*
X10565943Y22246645D01*
X10573089Y22252128D01*
X10675221Y22330497D01*
X10675224Y22330500D01*
X10681774Y22335526D01*
X10736544Y22406904D01*
X17376729Y22406904D01*
X17385165Y22330497D01*
X17392773Y22261585D01*
X17394113Y22249447D01*
X17396723Y22242316D01*
X17396723Y22242314D01*
X17422559Y22171715D01*
X17448553Y22100681D01*
X17452789Y22094378D01*
X17452789Y22094377D01*
X17502990Y22019671D01*
X17536908Y21969195D01*
X17542527Y21964082D01*
X17542528Y21964081D01*
X17644562Y21871238D01*
X17654076Y21862581D01*
X17793293Y21786992D01*
X17946522Y21746793D01*
X18030477Y21745474D01*
X18097319Y21744424D01*
X18097322Y21744424D01*
X18104916Y21744305D01*
X18259332Y21779671D01*
X18400855Y21850849D01*
X18416653Y21864342D01*
X18481441Y21893372D01*
X18551641Y21882767D01*
X18571469Y21871238D01*
X18576459Y21867692D01*
X18582076Y21862581D01*
X18721293Y21786992D01*
X18874522Y21746793D01*
X18958477Y21745474D01*
X19025319Y21744424D01*
X19025322Y21744424D01*
X19032916Y21744305D01*
X19187332Y21779671D01*
X19289127Y21830868D01*
X19322072Y21847437D01*
X19322075Y21847439D01*
X19328855Y21850849D01*
X19334626Y21855778D01*
X19334629Y21855780D01*
X19443536Y21948796D01*
X19443536Y21948797D01*
X19449314Y21953731D01*
X19541755Y22082376D01*
X19566661Y22144332D01*
X19582092Y22182716D01*
X19626059Y22238460D01*
X19693184Y22261585D01*
X19747216Y22252128D01*
X19779313Y22238833D01*
X19779318Y22238832D01*
X19786946Y22235672D01*
X19795134Y22234594D01*
X19859323Y22226143D01*
X19931700Y22216615D01*
X19939888Y22217693D01*
X20068266Y22234594D01*
X20076454Y22235672D01*
X20211343Y22291545D01*
X20217896Y22296573D01*
X20320621Y22375397D01*
X20320624Y22375400D01*
X20327174Y22380426D01*
X20416055Y22496258D01*
X20423585Y22514435D01*
X20468769Y22623520D01*
X20471928Y22631146D01*
X20473543Y22643408D01*
X20489907Y22767712D01*
X20490985Y22775900D01*
X20479828Y22860650D01*
X20473006Y22912468D01*
X20473005Y22912470D01*
X20471928Y22920654D01*
X20447965Y22978505D01*
X20419215Y23047914D01*
X20419214Y23047916D01*
X20416055Y23055542D01*
X20373807Y23110600D01*
X24312915Y23110600D01*
X24313993Y23102412D01*
X24329393Y22985439D01*
X24331972Y22965846D01*
X24347533Y22928280D01*
X24381551Y22846154D01*
X24387845Y22830958D01*
X24431188Y22774472D01*
X24458263Y22739188D01*
X24476726Y22715126D01*
X24483276Y22710100D01*
X24483279Y22710097D01*
X24586004Y22631273D01*
X24592557Y22626245D01*
X24727446Y22570372D01*
X24872200Y22551315D01*
X24880388Y22552393D01*
X25008766Y22569294D01*
X25016954Y22570372D01*
X25151843Y22626245D01*
X25158396Y22631273D01*
X25261121Y22710097D01*
X25261124Y22710100D01*
X25267674Y22715126D01*
X25286138Y22739188D01*
X25313212Y22774472D01*
X25356555Y22830958D01*
X25362850Y22846154D01*
X25396867Y22928280D01*
X25412428Y22965846D01*
X25415008Y22985439D01*
X25430407Y23102412D01*
X25431485Y23110600D01*
X25424676Y23162320D01*
X25413506Y23247168D01*
X25413505Y23247170D01*
X25412428Y23255354D01*
X25378734Y23336697D01*
X25359715Y23382614D01*
X25359714Y23382616D01*
X25356555Y23390242D01*
X25275507Y23495866D01*
X25272701Y23499523D01*
X25272700Y23499524D01*
X25267674Y23506074D01*
X25261124Y23511100D01*
X25261121Y23511103D01*
X25158396Y23589927D01*
X25158394Y23589928D01*
X25151843Y23594955D01*
X25016954Y23650828D01*
X24872200Y23669885D01*
X24864012Y23668807D01*
X24735632Y23651906D01*
X24735630Y23651905D01*
X24727446Y23650828D01*
X24713439Y23645026D01*
X24600186Y23598115D01*
X24600184Y23598114D01*
X24592558Y23594955D01*
X24476726Y23506074D01*
X24471703Y23499528D01*
X24468893Y23495866D01*
X24387845Y23390242D01*
X24384686Y23382616D01*
X24384685Y23382614D01*
X24365666Y23336697D01*
X24331972Y23255354D01*
X24330895Y23247170D01*
X24330894Y23247168D01*
X24319724Y23162320D01*
X24312915Y23110600D01*
X20373807Y23110600D01*
X20347924Y23144332D01*
X20332201Y23164823D01*
X20332200Y23164824D01*
X20327174Y23171374D01*
X20320624Y23176400D01*
X20320621Y23176403D01*
X20217896Y23255227D01*
X20217894Y23255228D01*
X20211343Y23260255D01*
X20076454Y23316128D01*
X20029535Y23322305D01*
X19939888Y23334107D01*
X19931700Y23335185D01*
X19923512Y23334107D01*
X19795132Y23317206D01*
X19795130Y23317205D01*
X19786946Y23316128D01*
X19763731Y23306512D01*
X19659686Y23263415D01*
X19659684Y23263414D01*
X19652058Y23260255D01*
X19536226Y23171374D01*
X19447345Y23055542D01*
X19444184Y23047911D01*
X19444183Y23047909D01*
X19442297Y23043357D01*
X19397748Y22988077D01*
X19330384Y22965657D01*
X19266932Y22980222D01*
X19200274Y23015516D01*
X19046633Y23054108D01*
X19039034Y23054148D01*
X19039033Y23054148D01*
X18973181Y23054493D01*
X18888221Y23054938D01*
X18880841Y23053166D01*
X18880839Y23053166D01*
X18741563Y23019729D01*
X18741560Y23019728D01*
X18734184Y23017957D01*
X18593414Y22945300D01*
X18587697Y22940313D01*
X18587690Y22940308D01*
X18583383Y22936550D01*
X18518903Y22906839D01*
X18448595Y22916705D01*
X18424459Y22932395D01*
X18424185Y22932000D01*
X18417947Y22936336D01*
X18412275Y22941389D01*
X18404889Y22945300D01*
X18278988Y23011961D01*
X18278989Y23011961D01*
X18272274Y23015516D01*
X18118633Y23054108D01*
X18111034Y23054148D01*
X18111033Y23054148D01*
X18045181Y23054493D01*
X17960221Y23054938D01*
X17952841Y23053166D01*
X17952839Y23053166D01*
X17813563Y23019729D01*
X17813560Y23019728D01*
X17806184Y23017957D01*
X17665414Y22945300D01*
X17546039Y22841162D01*
X17454950Y22711556D01*
X17438386Y22669072D01*
X17401137Y22573532D01*
X17397406Y22563963D01*
X17396414Y22556430D01*
X17396414Y22556429D01*
X17383586Y22458986D01*
X17376729Y22406904D01*
X10736544Y22406904D01*
X10770655Y22451358D01*
X10785085Y22486193D01*
X10820231Y22571043D01*
X10826528Y22586246D01*
X10828174Y22598743D01*
X10843495Y22715126D01*
X10845585Y22731000D01*
X10837390Y22793245D01*
X10827606Y22867568D01*
X10827605Y22867570D01*
X10826528Y22875754D01*
X10783255Y22980223D01*
X10773815Y23003014D01*
X10773814Y23003016D01*
X10770655Y23010642D01*
X10721528Y23074665D01*
X10686801Y23119923D01*
X10686800Y23119924D01*
X10681774Y23126474D01*
X10675224Y23131500D01*
X10675221Y23131503D01*
X10572496Y23210327D01*
X10572494Y23210328D01*
X10565943Y23215355D01*
X10431054Y23271228D01*
X10382653Y23277600D01*
X12490715Y23277600D01*
X12493644Y23255354D01*
X12505892Y23162320D01*
X12509772Y23132846D01*
X12512931Y23125220D01*
X12561437Y23008118D01*
X12565645Y22997958D01*
X12594277Y22960644D01*
X12645851Y22893432D01*
X12654526Y22882126D01*
X12661076Y22877100D01*
X12661079Y22877097D01*
X12763804Y22798273D01*
X12770357Y22793245D01*
X12905246Y22737372D01*
X13050000Y22718315D01*
X13058188Y22719393D01*
X13084159Y22722812D01*
X13194754Y22737372D01*
X13329643Y22793245D01*
X13336196Y22798273D01*
X13438921Y22877097D01*
X13438924Y22877100D01*
X13445474Y22882126D01*
X13454150Y22893432D01*
X13505723Y22960644D01*
X13534355Y22997958D01*
X13538564Y23008118D01*
X13587069Y23125220D01*
X13590228Y23132846D01*
X13594109Y23162320D01*
X13606356Y23255354D01*
X13609285Y23277600D01*
X13604401Y23314700D01*
X14241815Y23314700D01*
X14242893Y23306512D01*
X14259236Y23182376D01*
X14260872Y23169946D01*
X14276796Y23131503D01*
X14312915Y23044305D01*
X14316745Y23035058D01*
X14358821Y22980223D01*
X14400216Y22926277D01*
X14405626Y22919226D01*
X14412176Y22914200D01*
X14412179Y22914197D01*
X14500854Y22846154D01*
X14521457Y22830345D01*
X14656346Y22774472D01*
X14664534Y22773394D01*
X14728723Y22764944D01*
X14801100Y22755415D01*
X14809288Y22756493D01*
X14937666Y22773394D01*
X14945854Y22774472D01*
X15080743Y22830345D01*
X15101346Y22846154D01*
X15190021Y22914197D01*
X15190024Y22914200D01*
X15196574Y22919226D01*
X15201985Y22926277D01*
X15243379Y22980223D01*
X15285455Y23035058D01*
X15289286Y23044305D01*
X15325404Y23131503D01*
X15341328Y23169946D01*
X15342965Y23182376D01*
X15359307Y23306512D01*
X15360385Y23314700D01*
X15353409Y23367691D01*
X15342406Y23451268D01*
X15342405Y23451270D01*
X15341328Y23459454D01*
X15308116Y23539635D01*
X15288615Y23586714D01*
X15288614Y23586716D01*
X15285455Y23594342D01*
X15225042Y23673074D01*
X15201601Y23703623D01*
X15201600Y23703624D01*
X15196574Y23710174D01*
X15190024Y23715200D01*
X15190021Y23715203D01*
X15087296Y23794027D01*
X15087294Y23794028D01*
X15080743Y23799055D01*
X14945854Y23854928D01*
X14928088Y23857267D01*
X14809288Y23872907D01*
X14801100Y23873985D01*
X14792912Y23872907D01*
X14664532Y23856006D01*
X14664530Y23856005D01*
X14656346Y23854928D01*
X14643790Y23849727D01*
X14529086Y23802215D01*
X14529084Y23802214D01*
X14521458Y23799055D01*
X14405626Y23710174D01*
X14316745Y23594342D01*
X14313586Y23586716D01*
X14313585Y23586714D01*
X14294084Y23539635D01*
X14260872Y23459454D01*
X14259795Y23451270D01*
X14259794Y23451268D01*
X14248791Y23367691D01*
X14241815Y23314700D01*
X13604401Y23314700D01*
X13598097Y23362581D01*
X13591306Y23414168D01*
X13591305Y23414170D01*
X13590228Y23422354D01*
X13553467Y23511103D01*
X13537515Y23549614D01*
X13537514Y23549616D01*
X13534355Y23557242D01*
X13445474Y23673074D01*
X13438924Y23678100D01*
X13438921Y23678103D01*
X13336196Y23756927D01*
X13336194Y23756928D01*
X13329643Y23761955D01*
X13194754Y23817828D01*
X13050000Y23836885D01*
X13041812Y23835807D01*
X12913432Y23818906D01*
X12913430Y23818905D01*
X12905246Y23817828D01*
X12875373Y23805454D01*
X12777986Y23765115D01*
X12777984Y23765114D01*
X12770358Y23761955D01*
X12654526Y23673074D01*
X12565645Y23557242D01*
X12562486Y23549616D01*
X12562485Y23549614D01*
X12546533Y23511103D01*
X12509772Y23422354D01*
X12508695Y23414170D01*
X12508694Y23414168D01*
X12501903Y23362581D01*
X12490715Y23277600D01*
X10382653Y23277600D01*
X10286300Y23290285D01*
X10278112Y23289207D01*
X10149732Y23272306D01*
X10149730Y23272305D01*
X10141546Y23271228D01*
X10122684Y23263415D01*
X10014286Y23218515D01*
X10014284Y23218514D01*
X10006658Y23215355D01*
X9890826Y23126474D01*
X9801945Y23010642D01*
X9798786Y23003016D01*
X9798785Y23003014D01*
X9789345Y22980223D01*
X9746072Y22875754D01*
X9744995Y22867570D01*
X9744994Y22867568D01*
X9735210Y22793245D01*
X9727015Y22731000D01*
X5654500Y22731000D01*
X5654500Y23526279D01*
X5655053Y23538020D01*
X5656774Y23545717D01*
X5656322Y23560119D01*
X5654562Y23616107D01*
X5654500Y23620065D01*
X5654500Y23648978D01*
X5653951Y23653326D01*
X5653022Y23665139D01*
X5651829Y23703081D01*
X5651829Y23703082D01*
X5651580Y23711000D01*
X5645649Y23731415D01*
X5641640Y23750774D01*
X5639970Y23763995D01*
X5639970Y23763997D01*
X5638976Y23771861D01*
X5632430Y23788394D01*
X5622090Y23814512D01*
X5618245Y23825741D01*
X5613310Y23842728D01*
X5605445Y23869799D01*
X5594623Y23888098D01*
X5585928Y23905845D01*
X5578101Y23925614D01*
X5551137Y23962727D01*
X5544622Y23972646D01*
X5525307Y24005306D01*
X5525304Y24005310D01*
X5521267Y24012136D01*
X5506238Y24027165D01*
X5493397Y24042199D01*
X5485562Y24052983D01*
X5480902Y24059397D01*
X5445538Y24088652D01*
X5436772Y24096631D01*
X5203703Y24329700D01*
X6643415Y24329700D01*
X6644493Y24321512D01*
X6658150Y24217779D01*
X6662472Y24184946D01*
X6672390Y24161003D01*
X6714477Y24059397D01*
X6718345Y24050058D01*
X6736194Y24026797D01*
X6800536Y23942945D01*
X6807226Y23934226D01*
X6813776Y23929200D01*
X6813779Y23929197D01*
X6910568Y23854928D01*
X6923057Y23845345D01*
X7057946Y23789472D01*
X7202700Y23770415D01*
X7210888Y23771493D01*
X7213684Y23771861D01*
X7347454Y23789472D01*
X7482343Y23845345D01*
X7494832Y23854928D01*
X7591621Y23929197D01*
X7591624Y23929200D01*
X7598174Y23934226D01*
X7604865Y23942945D01*
X7669206Y24026797D01*
X7687055Y24050058D01*
X7690924Y24059397D01*
X7733010Y24161003D01*
X7742928Y24184946D01*
X7747251Y24217779D01*
X7758075Y24300000D01*
X15940715Y24300000D01*
X15941793Y24291812D01*
X15958409Y24165602D01*
X15959772Y24155246D01*
X15962931Y24147620D01*
X16010895Y24031826D01*
X16015645Y24020358D01*
X16027081Y24005454D01*
X16096923Y23914435D01*
X16104526Y23904526D01*
X16111076Y23899500D01*
X16111079Y23899497D01*
X16209467Y23824001D01*
X16220357Y23815645D01*
X16355246Y23759772D01*
X16363434Y23758694D01*
X16376856Y23756927D01*
X16500000Y23740715D01*
X16508188Y23741793D01*
X16512146Y23742314D01*
X16623144Y23756927D01*
X16636566Y23758694D01*
X16644754Y23759772D01*
X16779643Y23815645D01*
X16790533Y23824001D01*
X16888921Y23899497D01*
X16888924Y23899500D01*
X16895474Y23904526D01*
X16903078Y23914435D01*
X16972919Y24005454D01*
X16984355Y24020358D01*
X16989106Y24031826D01*
X17037069Y24147620D01*
X17040228Y24155246D01*
X17041592Y24165602D01*
X17058207Y24291812D01*
X17059285Y24300000D01*
X17041448Y24435488D01*
X17041306Y24436568D01*
X17041305Y24436570D01*
X17040228Y24444754D01*
X17009172Y24519729D01*
X16987515Y24572014D01*
X16987514Y24572016D01*
X16984355Y24579642D01*
X16907284Y24680083D01*
X16900501Y24688923D01*
X16900500Y24688924D01*
X16895474Y24695474D01*
X16888924Y24700500D01*
X16888921Y24700503D01*
X16786196Y24779327D01*
X16786194Y24779328D01*
X16779643Y24784355D01*
X16644754Y24840228D01*
X16500000Y24859285D01*
X16491812Y24858207D01*
X16363432Y24841306D01*
X16363430Y24841305D01*
X16355246Y24840228D01*
X16325235Y24827797D01*
X16227986Y24787515D01*
X16227984Y24787514D01*
X16220358Y24784355D01*
X16104526Y24695474D01*
X16015645Y24579642D01*
X16012486Y24572016D01*
X16012485Y24572014D01*
X15990828Y24519729D01*
X15959772Y24444754D01*
X15958695Y24436570D01*
X15958694Y24436568D01*
X15958552Y24435488D01*
X15940715Y24300000D01*
X7758075Y24300000D01*
X7760907Y24321512D01*
X7761985Y24329700D01*
X7742928Y24474454D01*
X7702517Y24572014D01*
X7690215Y24601714D01*
X7690214Y24601716D01*
X7687055Y24609342D01*
X7612164Y24706942D01*
X7603201Y24718623D01*
X7603200Y24718624D01*
X7598174Y24725174D01*
X7591624Y24730200D01*
X7591621Y24730203D01*
X7488896Y24809027D01*
X7488894Y24809028D01*
X7482343Y24814055D01*
X7347454Y24869928D01*
X7202700Y24888985D01*
X7194512Y24887907D01*
X7066132Y24871006D01*
X7066130Y24871005D01*
X7057946Y24869928D01*
X7032747Y24859490D01*
X6930686Y24817215D01*
X6930684Y24817214D01*
X6923058Y24814055D01*
X6807226Y24725174D01*
X6718345Y24609342D01*
X6715186Y24601716D01*
X6715185Y24601714D01*
X6702883Y24572014D01*
X6662472Y24474454D01*
X6643415Y24329700D01*
X5203703Y24329700D01*
X4955484Y24577919D01*
X4857616Y24653833D01*
X4850344Y24656980D01*
X4850342Y24656981D01*
X4802084Y24677864D01*
X4747510Y24723276D01*
X4726151Y24790983D01*
X4744788Y24859490D01*
X4797504Y24907046D01*
X4852125Y24919501D01*
X5263566Y24919501D01*
X5303371Y24927418D01*
X5325626Y24931844D01*
X5325628Y24931845D01*
X5337801Y24934266D01*
X5348121Y24941161D01*
X5348122Y24941162D01*
X5411668Y24983623D01*
X5421984Y24990516D01*
X5478234Y25074699D01*
X5493000Y25148933D01*
X5492999Y26899066D01*
X5478234Y26973301D01*
X5469122Y26986939D01*
X5464670Y26993601D01*
X31557800Y26993601D01*
X31574318Y26825138D01*
X31627748Y26664521D01*
X31715435Y26519733D01*
X31720326Y26514668D01*
X31720327Y26514667D01*
X31744062Y26490089D01*
X31833021Y26397969D01*
X31974660Y26305283D01*
X32133315Y26246280D01*
X32140296Y26245349D01*
X32140298Y26245348D01*
X32294118Y26224824D01*
X32294122Y26224824D01*
X32301099Y26223893D01*
X32308110Y26224531D01*
X32308114Y26224531D01*
X32462652Y26238595D01*
X32469673Y26239234D01*
X32630659Y26291542D01*
X32776056Y26378216D01*
X32898638Y26494948D01*
X32902539Y26500819D01*
X32988410Y26630065D01*
X32988411Y26630067D01*
X32992311Y26635937D01*
X33052420Y26794176D01*
X33067161Y26899066D01*
X33075427Y26957877D01*
X33075427Y26957882D01*
X33075978Y26961800D01*
X33076274Y26983000D01*
X33069030Y27047579D01*
X33058191Y27144220D01*
X33058190Y27144223D01*
X33057406Y27151216D01*
X33001738Y27311071D01*
X32912038Y27454621D01*
X32902694Y27464031D01*
X32854191Y27512874D01*
X32792764Y27574731D01*
X32769984Y27589188D01*
X32678842Y27647028D01*
X32649844Y27665431D01*
X32616826Y27677188D01*
X32497016Y27719851D01*
X32497011Y27719852D01*
X32490381Y27722213D01*
X32483395Y27723046D01*
X32483391Y27723047D01*
X32364287Y27737249D01*
X32322301Y27742255D01*
X32315298Y27741519D01*
X32315297Y27741519D01*
X32160965Y27725299D01*
X32160961Y27725298D01*
X32153957Y27724562D01*
X32147286Y27722291D01*
X32000387Y27672283D01*
X32000384Y27672282D01*
X31993717Y27670012D01*
X31987719Y27666322D01*
X31987717Y27666321D01*
X31855543Y27585007D01*
X31855541Y27585005D01*
X31849544Y27581316D01*
X31728605Y27462883D01*
X31724794Y27456969D01*
X31724792Y27456967D01*
X31723280Y27454621D01*
X31636909Y27320600D01*
X31634498Y27313975D01*
X31581425Y27168160D01*
X31581424Y27168155D01*
X31579015Y27161537D01*
X31557800Y26993601D01*
X5464670Y26993601D01*
X5428877Y27047168D01*
X5421984Y27057484D01*
X5337801Y27113734D01*
X5263567Y27128500D01*
X4388642Y27128500D01*
X3513434Y27128499D01*
X3477682Y27121388D01*
X3451374Y27116156D01*
X3451372Y27116155D01*
X3439199Y27113734D01*
X3428879Y27106839D01*
X3428878Y27106838D01*
X3368485Y27066484D01*
X3355016Y27057484D01*
X3348123Y27047168D01*
X3317004Y27000595D01*
X3298766Y26973301D01*
X3284000Y26899067D01*
X3284001Y25148934D01*
X3291774Y25109853D01*
X3298766Y25074699D01*
X3296124Y25074173D01*
X3301793Y25021461D01*
X3270017Y24957973D01*
X3226012Y24927418D01*
X3206897Y24919500D01*
X3187958Y24911655D01*
X3129460Y24866768D01*
X3094873Y24840228D01*
X3072126Y24822774D01*
X2983245Y24706942D01*
X2980086Y24699316D01*
X2980085Y24699314D01*
X2949180Y24624703D01*
X2927372Y24572054D01*
X2926295Y24563870D01*
X2926294Y24563868D01*
X2920483Y24519729D01*
X2908315Y24427300D01*
X400000Y24427300D01*
X400000Y27881786D01*
X420002Y27949907D01*
X473658Y27996400D01*
X543932Y28006504D01*
X608512Y27977010D01*
X633433Y27947621D01*
X746194Y27763612D01*
X752277Y27755301D01*
X891713Y27594333D01*
X899080Y27587117D01*
X1062934Y27451084D01*
X1071381Y27445169D01*
X1255256Y27337721D01*
X1264542Y27333271D01*
X1413624Y27276343D01*
X1470127Y27233356D01*
X1494420Y27166645D01*
X1478790Y27097390D01*
X1428199Y27047579D01*
X1412285Y27040421D01*
X1370963Y27025176D01*
X1196510Y26921388D01*
X1192170Y26917582D01*
X1192166Y26917579D01*
X1059407Y26801151D01*
X1043892Y26787545D01*
X918220Y26628131D01*
X915531Y26623020D01*
X915529Y26623017D01*
X902573Y26598391D01*
X823703Y26448485D01*
X763507Y26254622D01*
X739648Y26053036D01*
X752924Y25850478D01*
X754345Y25844882D01*
X754346Y25844877D01*
X774619Y25765055D01*
X802892Y25653731D01*
X805309Y25648488D01*
X842510Y25567792D01*
X887877Y25469384D01*
X1005033Y25303611D01*
X1150438Y25161965D01*
X1319220Y25049188D01*
X1324523Y25046910D01*
X1324526Y25046908D01*
X1455783Y24990516D01*
X1505728Y24969058D01*
X1554717Y24957973D01*
X1698079Y24925533D01*
X1698084Y24925532D01*
X1703716Y24924258D01*
X1709487Y24924031D01*
X1709489Y24924031D01*
X1769256Y24921683D01*
X1906553Y24916288D01*
X2013841Y24931844D01*
X2101731Y24944587D01*
X2101736Y24944588D01*
X2107445Y24945416D01*
X2112909Y24947271D01*
X2112914Y24947272D01*
X2294193Y25008808D01*
X2294198Y25008810D01*
X2299665Y25010666D01*
X2476776Y25109853D01*
X2516469Y25142865D01*
X2628413Y25235969D01*
X2632845Y25239655D01*
X2762647Y25395724D01*
X2861834Y25572835D01*
X2863690Y25578302D01*
X2863692Y25578307D01*
X2925228Y25759586D01*
X2925229Y25759591D01*
X2927084Y25765055D01*
X2927912Y25770764D01*
X2927913Y25770769D01*
X2955679Y25962273D01*
X2956212Y25965947D01*
X2957732Y26024000D01*
X2939158Y26226141D01*
X2932786Y26248735D01*
X2885625Y26415954D01*
X2885624Y26415956D01*
X2884057Y26421513D01*
X2873478Y26442967D01*
X2796831Y26598391D01*
X2794276Y26603572D01*
X2672820Y26766221D01*
X2523758Y26904013D01*
X2518875Y26907094D01*
X2518871Y26907097D01*
X2356964Y27009252D01*
X2352081Y27012333D01*
X2280114Y27041045D01*
X2224255Y27084866D01*
X2200955Y27151931D01*
X2217611Y27220946D01*
X2268936Y27270000D01*
X2290598Y27278761D01*
X2340752Y27293808D01*
X2350342Y27297567D01*
X2541595Y27391261D01*
X2550445Y27396536D01*
X2723828Y27520208D01*
X2731700Y27526861D01*
X2882552Y27677188D01*
X2889230Y27685035D01*
X3013503Y27857980D01*
X3018813Y27866817D01*
X3113170Y28057733D01*
X3116969Y28067328D01*
X3133566Y28121953D01*
X3172507Y28181317D01*
X3237362Y28210204D01*
X3307538Y28199442D01*
X3360756Y28152449D01*
X3368548Y28138078D01*
X3427877Y28009384D01*
X3545033Y27843611D01*
X3690438Y27701965D01*
X3859220Y27589188D01*
X3864523Y27586910D01*
X3864526Y27586908D01*
X4040421Y27511338D01*
X4045728Y27509058D01*
X4118744Y27492536D01*
X4238079Y27465533D01*
X4238084Y27465532D01*
X4243716Y27464258D01*
X4249487Y27464031D01*
X4249489Y27464031D01*
X4309256Y27461683D01*
X4446553Y27456288D01*
X4546999Y27470852D01*
X4641731Y27484587D01*
X4641736Y27484588D01*
X4647445Y27485416D01*
X4652909Y27487271D01*
X4652914Y27487272D01*
X4834193Y27548808D01*
X4834198Y27548810D01*
X4839665Y27550666D01*
X4873714Y27569734D01*
X4917638Y27594333D01*
X5016776Y27649853D01*
X5035507Y27665431D01*
X5144196Y27755828D01*
X5172845Y27779655D01*
X5302647Y27935724D01*
X5396173Y28102727D01*
X5446907Y28152386D01*
X5516439Y28166734D01*
X5582809Y28141120D01*
X5680257Y28066345D01*
X5815146Y28010472D01*
X5959900Y27991415D01*
X5968088Y27992493D01*
X6096466Y28009394D01*
X6104654Y28010472D01*
X6239543Y28066345D01*
X6294535Y28108542D01*
X6348821Y28150197D01*
X6348824Y28150200D01*
X6355374Y28155226D01*
X6364205Y28166734D01*
X6439228Y28264507D01*
X6444255Y28271058D01*
X6461193Y28311948D01*
X6496969Y28398320D01*
X6500128Y28405946D01*
X6501956Y28419827D01*
X6518107Y28542512D01*
X6519185Y28550700D01*
X6507066Y28642756D01*
X6501206Y28687268D01*
X6501205Y28687270D01*
X6500128Y28695454D01*
X6459051Y28794622D01*
X6452432Y28810601D01*
X30840800Y28810601D01*
X30857318Y28642138D01*
X30910748Y28481521D01*
X30914397Y28475496D01*
X30987012Y28355595D01*
X30998435Y28336733D01*
X31003326Y28331668D01*
X31003327Y28331667D01*
X31027062Y28307089D01*
X31116021Y28214969D01*
X31257660Y28122283D01*
X31416315Y28063280D01*
X31423296Y28062349D01*
X31423298Y28062348D01*
X31577118Y28041824D01*
X31577122Y28041824D01*
X31584099Y28040893D01*
X31591110Y28041531D01*
X31591114Y28041531D01*
X31745652Y28055595D01*
X31752673Y28056234D01*
X31913659Y28108542D01*
X32011277Y28166734D01*
X32053004Y28191608D01*
X32053006Y28191609D01*
X32059056Y28195216D01*
X32181638Y28311948D01*
X32185539Y28317819D01*
X32271410Y28447065D01*
X32271411Y28447067D01*
X32275311Y28452937D01*
X32335420Y28611176D01*
X32346161Y28687605D01*
X32358427Y28774877D01*
X32358427Y28774882D01*
X32358978Y28778800D01*
X32359274Y28800000D01*
X32343331Y28942138D01*
X32341191Y28961220D01*
X32341190Y28961223D01*
X32340406Y28968216D01*
X32290822Y29110601D01*
X35740800Y29110601D01*
X35757318Y28942138D01*
X35810748Y28781521D01*
X35814397Y28775496D01*
X35890917Y28649147D01*
X35898435Y28636733D01*
X35903326Y28631668D01*
X35903327Y28631667D01*
X35923115Y28611176D01*
X36016021Y28514969D01*
X36157660Y28422283D01*
X36316315Y28363280D01*
X36323296Y28362349D01*
X36323298Y28362348D01*
X36477118Y28341824D01*
X36477122Y28341824D01*
X36484099Y28340893D01*
X36491110Y28341531D01*
X36491114Y28341531D01*
X36645652Y28355595D01*
X36652673Y28356234D01*
X36813659Y28408542D01*
X36903199Y28461918D01*
X36953004Y28491608D01*
X36953006Y28491609D01*
X36959056Y28495216D01*
X37081638Y28611948D01*
X37085539Y28617819D01*
X37171410Y28747065D01*
X37171411Y28747067D01*
X37175311Y28752937D01*
X37235420Y28911176D01*
X37249301Y29009944D01*
X37258427Y29074877D01*
X37258427Y29074882D01*
X37258978Y29078800D01*
X37259147Y29090928D01*
X37259219Y29096038D01*
X37259219Y29096043D01*
X37259274Y29100000D01*
X37249552Y29186680D01*
X37241191Y29261220D01*
X37241190Y29261223D01*
X37240406Y29268216D01*
X37184738Y29428071D01*
X37100687Y29562581D01*
X37098771Y29565647D01*
X37095038Y29571621D01*
X36975764Y29691731D01*
X36960398Y29701483D01*
X36896830Y29741824D01*
X36832844Y29782431D01*
X36771145Y29804401D01*
X36680016Y29836851D01*
X36680011Y29836852D01*
X36673381Y29839213D01*
X36666395Y29840046D01*
X36666391Y29840047D01*
X36547287Y29854249D01*
X36505301Y29859255D01*
X36498298Y29858519D01*
X36498297Y29858519D01*
X36343965Y29842299D01*
X36343961Y29842298D01*
X36336957Y29841562D01*
X36330286Y29839291D01*
X36183387Y29789283D01*
X36183384Y29789282D01*
X36176717Y29787012D01*
X36170719Y29783322D01*
X36170717Y29783321D01*
X36038543Y29702007D01*
X36038541Y29702005D01*
X36032544Y29698316D01*
X35911605Y29579883D01*
X35907794Y29573969D01*
X35907792Y29573967D01*
X35854254Y29490893D01*
X35819909Y29437600D01*
X35817498Y29430975D01*
X35764425Y29285160D01*
X35764424Y29285155D01*
X35762015Y29278537D01*
X35740800Y29110601D01*
X32290822Y29110601D01*
X32284738Y29128071D01*
X32195038Y29271621D01*
X32075764Y29391731D01*
X31932844Y29482431D01*
X31905442Y29492188D01*
X31780016Y29536851D01*
X31780011Y29536852D01*
X31773381Y29539213D01*
X31766395Y29540046D01*
X31766391Y29540047D01*
X31645405Y29554473D01*
X31605301Y29559255D01*
X31598298Y29558519D01*
X31598297Y29558519D01*
X31443965Y29542299D01*
X31443961Y29542298D01*
X31436957Y29541562D01*
X31430286Y29539291D01*
X31283387Y29489283D01*
X31283384Y29489282D01*
X31276717Y29487012D01*
X31270719Y29483322D01*
X31270717Y29483321D01*
X31138543Y29402007D01*
X31138541Y29402005D01*
X31132544Y29398316D01*
X31127511Y29393387D01*
X31016994Y29285160D01*
X31011605Y29279883D01*
X31007794Y29273969D01*
X31007792Y29273967D01*
X30985728Y29239730D01*
X30919909Y29137600D01*
X30907530Y29103589D01*
X30864425Y28985160D01*
X30864424Y28985155D01*
X30862015Y28978537D01*
X30840800Y28810601D01*
X6452432Y28810601D01*
X6447415Y28822714D01*
X6447414Y28822716D01*
X6444255Y28830342D01*
X6355374Y28946174D01*
X6348824Y28951200D01*
X6348821Y28951203D01*
X6246096Y29030027D01*
X6246094Y29030028D01*
X6239543Y29035055D01*
X6104654Y29090928D01*
X5959900Y29109985D01*
X5951712Y29108907D01*
X5823332Y29092006D01*
X5823330Y29092005D01*
X5815146Y29090928D01*
X5785867Y29078800D01*
X5687886Y29038215D01*
X5687884Y29038214D01*
X5680258Y29035055D01*
X5647533Y29009944D01*
X5589884Y28965709D01*
X5523663Y28940109D01*
X5454115Y28954374D01*
X5400174Y29009944D01*
X5336831Y29138391D01*
X5334276Y29143572D01*
X5212820Y29306221D01*
X5063758Y29444013D01*
X5058875Y29447094D01*
X5058871Y29447097D01*
X4896964Y29549252D01*
X4892081Y29552333D01*
X4703539Y29627554D01*
X4697879Y29628680D01*
X4697875Y29628681D01*
X4510113Y29666029D01*
X4510110Y29666029D01*
X4504446Y29667156D01*
X4498671Y29667232D01*
X4498667Y29667232D01*
X4397293Y29668559D01*
X4301471Y29669813D01*
X4295774Y29668834D01*
X4295773Y29668834D01*
X4179160Y29648796D01*
X4101410Y29635436D01*
X3910963Y29565176D01*
X3906002Y29562224D01*
X3906001Y29562224D01*
X3899609Y29558421D01*
X3736510Y29461388D01*
X3732170Y29457582D01*
X3732166Y29457579D01*
X3588233Y29331352D01*
X3583892Y29327545D01*
X3458220Y29168131D01*
X3455531Y29163020D01*
X3455529Y29163017D01*
X3366089Y28993020D01*
X3316670Y28942048D01*
X3247537Y28925885D01*
X3180641Y28949664D01*
X3140503Y29004027D01*
X3138455Y29003137D01*
X3051472Y29203186D01*
X3046605Y29212261D01*
X2930926Y29391074D01*
X2924636Y29399243D01*
X2781306Y29556760D01*
X2773773Y29563785D01*
X2606639Y29695778D01*
X2598052Y29701483D01*
X2411617Y29804401D01*
X2402205Y29808631D01*
X2287891Y29849112D01*
X2230355Y29890706D01*
X2204439Y29956804D01*
X2218373Y30026420D01*
X2267732Y30077451D01*
X2289443Y30087196D01*
X2299665Y30090666D01*
X2308951Y30095866D01*
X2374183Y30132398D01*
X2476776Y30189853D01*
X2539434Y30241965D01*
X2628413Y30315969D01*
X2632845Y30319655D01*
X2689963Y30388331D01*
X2758953Y30471282D01*
X2758955Y30471285D01*
X2762647Y30475724D01*
X2855424Y30641389D01*
X2859010Y30647792D01*
X2859011Y30647794D01*
X2861834Y30652835D01*
X2863690Y30658302D01*
X2863692Y30658307D01*
X2925228Y30839586D01*
X2925229Y30839591D01*
X2927084Y30845055D01*
X2927912Y30850764D01*
X2927913Y30850769D01*
X2955679Y31042273D01*
X2956212Y31045947D01*
X2957732Y31104000D01*
X2955064Y31133036D01*
X3279648Y31133036D01*
X3292924Y30930478D01*
X3294345Y30924882D01*
X3294346Y30924877D01*
X3336983Y30756997D01*
X3342892Y30733731D01*
X3345309Y30728488D01*
X3415514Y30576202D01*
X3427877Y30549384D01*
X3437330Y30536008D01*
X3525284Y30411556D01*
X3545033Y30383611D01*
X3549175Y30379576D01*
X3573603Y30355780D01*
X3690438Y30241965D01*
X3859220Y30129188D01*
X3864523Y30126910D01*
X3864526Y30126908D01*
X3979641Y30077451D01*
X4045728Y30049058D01*
X4100197Y30036733D01*
X4238079Y30005533D01*
X4238084Y30005532D01*
X4243716Y30004258D01*
X4249487Y30004031D01*
X4249489Y30004031D01*
X4309256Y30001683D01*
X4446553Y29996288D01*
X4554558Y30011948D01*
X4641731Y30024587D01*
X4641736Y30024588D01*
X4647445Y30025416D01*
X4652909Y30027271D01*
X4652914Y30027272D01*
X4834193Y30088808D01*
X4834198Y30088810D01*
X4839665Y30090666D01*
X4848951Y30095866D01*
X4868661Y30106904D01*
X16540729Y30106904D01*
X16547256Y30047783D01*
X16555585Y29972346D01*
X16558113Y29949447D01*
X16560723Y29942316D01*
X16560723Y29942314D01*
X16609644Y29808631D01*
X16612553Y29800681D01*
X16616789Y29794378D01*
X16616789Y29794377D01*
X16684652Y29693387D01*
X16700908Y29669195D01*
X16706527Y29664082D01*
X16706528Y29664081D01*
X16746671Y29627554D01*
X16818076Y29562581D01*
X16957293Y29486992D01*
X17110522Y29446793D01*
X17194477Y29445474D01*
X17261319Y29444424D01*
X17261322Y29444424D01*
X17268916Y29444305D01*
X17423332Y29479671D01*
X17493742Y29515083D01*
X17558072Y29547437D01*
X17558075Y29547439D01*
X17564855Y29550849D01*
X17570626Y29555778D01*
X17570629Y29555780D01*
X17679536Y29648796D01*
X17679536Y29648797D01*
X17685314Y29653731D01*
X17777755Y29782376D01*
X17836842Y29929359D01*
X17849431Y30017819D01*
X17858581Y30082109D01*
X17858581Y30082112D01*
X17859162Y30086193D01*
X17859307Y30100000D01*
X17858472Y30106904D01*
X18540729Y30106904D01*
X18547256Y30047783D01*
X18555585Y29972346D01*
X18558113Y29949447D01*
X18560723Y29942316D01*
X18560723Y29942314D01*
X18609644Y29808631D01*
X18612553Y29800681D01*
X18616789Y29794378D01*
X18616789Y29794377D01*
X18684652Y29693387D01*
X18700908Y29669195D01*
X18706527Y29664082D01*
X18706528Y29664081D01*
X18746671Y29627554D01*
X18818076Y29562581D01*
X18957293Y29486992D01*
X19110522Y29446793D01*
X19194477Y29445474D01*
X19261319Y29444424D01*
X19261322Y29444424D01*
X19268916Y29444305D01*
X19423332Y29479671D01*
X19493742Y29515083D01*
X19558072Y29547437D01*
X19558075Y29547439D01*
X19564855Y29550849D01*
X19570626Y29555778D01*
X19570629Y29555780D01*
X19679536Y29648796D01*
X19679536Y29648797D01*
X19685314Y29653731D01*
X19777755Y29782376D01*
X19836842Y29929359D01*
X19849431Y30017819D01*
X19858581Y30082109D01*
X19858581Y30082112D01*
X19859162Y30086193D01*
X19859307Y30100000D01*
X19858472Y30106904D01*
X20240729Y30106904D01*
X20247256Y30047783D01*
X20255585Y29972346D01*
X20258113Y29949447D01*
X20260723Y29942316D01*
X20260723Y29942314D01*
X20309644Y29808631D01*
X20312553Y29800681D01*
X20316789Y29794378D01*
X20316789Y29794377D01*
X20384652Y29693387D01*
X20400908Y29669195D01*
X20406527Y29664082D01*
X20406528Y29664081D01*
X20446671Y29627554D01*
X20518076Y29562581D01*
X20657293Y29486992D01*
X20810522Y29446793D01*
X20894477Y29445474D01*
X20961319Y29444424D01*
X20961322Y29444424D01*
X20968916Y29444305D01*
X21123332Y29479671D01*
X21193742Y29515083D01*
X21258072Y29547437D01*
X21258075Y29547439D01*
X21264855Y29550849D01*
X21270626Y29555778D01*
X21270629Y29555780D01*
X21379536Y29648796D01*
X21379536Y29648797D01*
X21385314Y29653731D01*
X21477755Y29782376D01*
X21536842Y29929359D01*
X21549431Y30017819D01*
X21558581Y30082109D01*
X21558581Y30082112D01*
X21559162Y30086193D01*
X21559307Y30100000D01*
X21555387Y30132398D01*
X21549442Y30181521D01*
X21540276Y30257267D01*
X21484280Y30405454D01*
X21416834Y30503589D01*
X21412015Y30510601D01*
X32940800Y30510601D01*
X32957318Y30342138D01*
X33010748Y30181521D01*
X33014397Y30175496D01*
X33090971Y30049058D01*
X33098435Y30036733D01*
X33103326Y30031668D01*
X33103327Y30031667D01*
X33127062Y30007089D01*
X33216021Y29914969D01*
X33357660Y29822283D01*
X33516315Y29763280D01*
X33523296Y29762349D01*
X33523298Y29762348D01*
X33677118Y29741824D01*
X33677122Y29741824D01*
X33684099Y29740893D01*
X33691110Y29741531D01*
X33691114Y29741531D01*
X33845652Y29755595D01*
X33852673Y29756234D01*
X34013659Y29808542D01*
X34103199Y29861918D01*
X34153004Y29891608D01*
X34153006Y29891609D01*
X34159056Y29895216D01*
X34281638Y30011948D01*
X34285539Y30017819D01*
X34371410Y30147065D01*
X34371411Y30147067D01*
X34375311Y30152937D01*
X34435420Y30311176D01*
X34447672Y30398351D01*
X34458427Y30474877D01*
X34458427Y30474882D01*
X34458978Y30478800D01*
X34459274Y30500000D01*
X34443016Y30644945D01*
X34441191Y30661220D01*
X34441190Y30661223D01*
X34440406Y30668216D01*
X34384738Y30828071D01*
X34295038Y30971621D01*
X34175764Y31091731D01*
X34156432Y31104000D01*
X34101641Y31138771D01*
X34032844Y31182431D01*
X34005442Y31192188D01*
X33880016Y31236851D01*
X33880011Y31236852D01*
X33873381Y31239213D01*
X33866395Y31240046D01*
X33866391Y31240047D01*
X33730636Y31256234D01*
X33705301Y31259255D01*
X33698298Y31258519D01*
X33698297Y31258519D01*
X33543965Y31242299D01*
X33543961Y31242298D01*
X33536957Y31241562D01*
X33530286Y31239291D01*
X33383387Y31189283D01*
X33383384Y31189282D01*
X33376717Y31187012D01*
X33370719Y31183322D01*
X33370717Y31183321D01*
X33238543Y31102007D01*
X33238541Y31102005D01*
X33232544Y31098316D01*
X33111605Y30979883D01*
X33019909Y30837600D01*
X33017498Y30830975D01*
X32964425Y30685160D01*
X32964424Y30685155D01*
X32962015Y30678537D01*
X32940800Y30510601D01*
X21412015Y30510601D01*
X21398855Y30529749D01*
X21398854Y30529751D01*
X21394553Y30536008D01*
X21276275Y30641389D01*
X21268889Y30645300D01*
X21142988Y30711961D01*
X21142989Y30711961D01*
X21136274Y30715516D01*
X20982633Y30754108D01*
X20975034Y30754148D01*
X20975033Y30754148D01*
X20909181Y30754493D01*
X20824221Y30754938D01*
X20816841Y30753166D01*
X20816839Y30753166D01*
X20677563Y30719729D01*
X20677560Y30719728D01*
X20670184Y30717957D01*
X20529414Y30645300D01*
X20410039Y30541162D01*
X20318950Y30411556D01*
X20298444Y30358960D01*
X20269634Y30285066D01*
X20261406Y30263963D01*
X20260414Y30256430D01*
X20260414Y30256429D01*
X20243363Y30126908D01*
X20240729Y30106904D01*
X19858472Y30106904D01*
X19855387Y30132398D01*
X19849442Y30181521D01*
X19840276Y30257267D01*
X19784280Y30405454D01*
X19716834Y30503589D01*
X19698855Y30529749D01*
X19698854Y30529751D01*
X19694553Y30536008D01*
X19576275Y30641389D01*
X19568889Y30645300D01*
X19442988Y30711961D01*
X19442989Y30711961D01*
X19436274Y30715516D01*
X19282633Y30754108D01*
X19275034Y30754148D01*
X19275033Y30754148D01*
X19209181Y30754493D01*
X19124221Y30754938D01*
X19116841Y30753166D01*
X19116839Y30753166D01*
X18977563Y30719729D01*
X18977560Y30719728D01*
X18970184Y30717957D01*
X18829414Y30645300D01*
X18710039Y30541162D01*
X18618950Y30411556D01*
X18598444Y30358960D01*
X18569634Y30285066D01*
X18561406Y30263963D01*
X18560414Y30256430D01*
X18560414Y30256429D01*
X18543363Y30126908D01*
X18540729Y30106904D01*
X17858472Y30106904D01*
X17855387Y30132398D01*
X17849442Y30181521D01*
X17840276Y30257267D01*
X17784280Y30405454D01*
X17716834Y30503589D01*
X17698855Y30529749D01*
X17698854Y30529751D01*
X17694553Y30536008D01*
X17576275Y30641389D01*
X17568889Y30645300D01*
X17442988Y30711961D01*
X17442989Y30711961D01*
X17436274Y30715516D01*
X17282633Y30754108D01*
X17275034Y30754148D01*
X17275033Y30754148D01*
X17209181Y30754493D01*
X17124221Y30754938D01*
X17116841Y30753166D01*
X17116839Y30753166D01*
X16977563Y30719729D01*
X16977560Y30719728D01*
X16970184Y30717957D01*
X16829414Y30645300D01*
X16710039Y30541162D01*
X16618950Y30411556D01*
X16598444Y30358960D01*
X16569634Y30285066D01*
X16561406Y30263963D01*
X16560414Y30256430D01*
X16560414Y30256429D01*
X16543363Y30126908D01*
X16540729Y30106904D01*
X4868661Y30106904D01*
X4914183Y30132398D01*
X5016776Y30189853D01*
X5079434Y30241965D01*
X5168413Y30315969D01*
X5172845Y30319655D01*
X5229963Y30388331D01*
X5298953Y30471282D01*
X5298955Y30471285D01*
X5302647Y30475724D01*
X5395424Y30641389D01*
X5399010Y30647792D01*
X5399011Y30647794D01*
X5401834Y30652835D01*
X5403690Y30658302D01*
X5403692Y30658307D01*
X5465228Y30839586D01*
X5465229Y30839591D01*
X5467084Y30845055D01*
X5467912Y30850764D01*
X5467913Y30850769D01*
X5476052Y30906904D01*
X11634729Y30906904D01*
X11652113Y30749447D01*
X11654723Y30742316D01*
X11654723Y30742314D01*
X11692051Y30640311D01*
X11706553Y30600681D01*
X11710789Y30594378D01*
X11710789Y30594377D01*
X11790521Y30475724D01*
X11794908Y30469195D01*
X11800527Y30464082D01*
X11800528Y30464081D01*
X11906460Y30367691D01*
X11912076Y30362581D01*
X12051293Y30286992D01*
X12204522Y30246793D01*
X12288477Y30245474D01*
X12355319Y30244424D01*
X12355322Y30244424D01*
X12362916Y30244305D01*
X12517332Y30279671D01*
X12658855Y30350849D01*
X12674200Y30363955D01*
X12738988Y30392984D01*
X12809188Y30382379D01*
X12829015Y30370849D01*
X12833465Y30367687D01*
X12839076Y30362581D01*
X12978293Y30286992D01*
X13131522Y30246793D01*
X13215477Y30245474D01*
X13282319Y30244424D01*
X13282322Y30244424D01*
X13289916Y30244305D01*
X13444332Y30279671D01*
X13532644Y30324087D01*
X13579072Y30347437D01*
X13579075Y30347439D01*
X13585855Y30350849D01*
X13591626Y30355778D01*
X13591629Y30355780D01*
X13700536Y30448796D01*
X13700536Y30448797D01*
X13706314Y30453731D01*
X13798755Y30582376D01*
X13857842Y30729359D01*
X13872741Y30834046D01*
X13879581Y30882109D01*
X13879581Y30882112D01*
X13880162Y30886193D01*
X13880307Y30900000D01*
X13861276Y31057267D01*
X13805280Y31205454D01*
X13766178Y31262348D01*
X13719855Y31329749D01*
X13719854Y31329751D01*
X13715553Y31336008D01*
X13597275Y31441389D01*
X13589889Y31445300D01*
X13463988Y31511961D01*
X13463989Y31511961D01*
X13457274Y31515516D01*
X13303633Y31554108D01*
X13296034Y31554148D01*
X13296033Y31554148D01*
X13230181Y31554493D01*
X13145221Y31554938D01*
X13137841Y31553166D01*
X13137839Y31553166D01*
X12998563Y31519729D01*
X12998560Y31519728D01*
X12991184Y31517957D01*
X12850414Y31445300D01*
X12841976Y31437939D01*
X12840881Y31436984D01*
X12776398Y31407278D01*
X12706091Y31417150D01*
X12682516Y31432476D01*
X12682185Y31432000D01*
X12675947Y31436336D01*
X12670275Y31441389D01*
X12662889Y31445300D01*
X12536988Y31511961D01*
X12536989Y31511961D01*
X12530274Y31515516D01*
X12376633Y31554108D01*
X12369034Y31554148D01*
X12369033Y31554148D01*
X12303181Y31554493D01*
X12218221Y31554938D01*
X12210841Y31553166D01*
X12210839Y31553166D01*
X12071563Y31519729D01*
X12071560Y31519728D01*
X12064184Y31517957D01*
X11923414Y31445300D01*
X11804039Y31341162D01*
X11712950Y31211556D01*
X11684572Y31138771D01*
X11668800Y31098316D01*
X11655406Y31063963D01*
X11654414Y31056430D01*
X11654414Y31056429D01*
X11637833Y30930478D01*
X11634729Y30906904D01*
X5476052Y30906904D01*
X5495679Y31042273D01*
X5496212Y31045947D01*
X5497732Y31104000D01*
X5485024Y31242299D01*
X5479687Y31300387D01*
X5479686Y31300390D01*
X5479158Y31306141D01*
X5475298Y31319827D01*
X5425625Y31495954D01*
X5425624Y31495956D01*
X5424057Y31501513D01*
X5421308Y31507089D01*
X5336831Y31678391D01*
X5334276Y31683572D01*
X5212820Y31846221D01*
X5063758Y31984013D01*
X5058875Y31987094D01*
X5058871Y31987097D01*
X5021619Y32010601D01*
X30640800Y32010601D01*
X30657318Y31842138D01*
X30710748Y31681521D01*
X30714397Y31675496D01*
X30788483Y31553166D01*
X30798435Y31536733D01*
X30803326Y31531668D01*
X30803327Y31531667D01*
X30837815Y31495954D01*
X30916021Y31414969D01*
X31057660Y31322283D01*
X31216315Y31263280D01*
X31223296Y31262349D01*
X31223298Y31262348D01*
X31377118Y31241824D01*
X31377122Y31241824D01*
X31384099Y31240893D01*
X31391110Y31241531D01*
X31391114Y31241531D01*
X31545652Y31255595D01*
X31552673Y31256234D01*
X31713659Y31308542D01*
X31859056Y31395216D01*
X31981638Y31511948D01*
X31985539Y31517819D01*
X32071410Y31647065D01*
X32071411Y31647067D01*
X32075311Y31652937D01*
X32135420Y31811176D01*
X32158978Y31978800D01*
X32159274Y32000000D01*
X32149263Y32089252D01*
X32141191Y32161220D01*
X32141190Y32161223D01*
X32140406Y32168216D01*
X32084738Y32328071D01*
X31995038Y32471621D01*
X31875764Y32591731D01*
X31732844Y32682431D01*
X31705442Y32692188D01*
X31580016Y32736851D01*
X31580011Y32736852D01*
X31573381Y32739213D01*
X31566395Y32740046D01*
X31566391Y32740047D01*
X31447287Y32754249D01*
X31405301Y32759255D01*
X31398298Y32758519D01*
X31398297Y32758519D01*
X31243965Y32742299D01*
X31243961Y32742298D01*
X31236957Y32741562D01*
X31230286Y32739291D01*
X31083387Y32689283D01*
X31083384Y32689282D01*
X31076717Y32687012D01*
X31070719Y32683322D01*
X31070717Y32683321D01*
X30938543Y32602007D01*
X30938541Y32602005D01*
X30932544Y32598316D01*
X30811605Y32479883D01*
X30719909Y32337600D01*
X30717498Y32330975D01*
X30664425Y32185160D01*
X30664424Y32185155D01*
X30662015Y32178537D01*
X30640800Y32010601D01*
X5021619Y32010601D01*
X4896964Y32089252D01*
X4892081Y32092333D01*
X4703539Y32167554D01*
X4697879Y32168680D01*
X4697875Y32168681D01*
X4510113Y32206029D01*
X4510110Y32206029D01*
X4504446Y32207156D01*
X4498671Y32207232D01*
X4498667Y32207232D01*
X4397293Y32208559D01*
X4301471Y32209813D01*
X4295774Y32208834D01*
X4295773Y32208834D01*
X4107107Y32176415D01*
X4101410Y32175436D01*
X3910963Y32105176D01*
X3736510Y32001388D01*
X3732170Y31997582D01*
X3732166Y31997579D01*
X3712223Y31980089D01*
X3583892Y31867545D01*
X3458220Y31708131D01*
X3455531Y31703020D01*
X3455529Y31703017D01*
X3442573Y31678391D01*
X3363703Y31528485D01*
X3303507Y31334622D01*
X3279648Y31133036D01*
X2955064Y31133036D01*
X2945024Y31242299D01*
X2939687Y31300387D01*
X2939686Y31300390D01*
X2939158Y31306141D01*
X2935298Y31319827D01*
X2885625Y31495954D01*
X2885624Y31495956D01*
X2884057Y31501513D01*
X2881308Y31507089D01*
X2796831Y31678391D01*
X2794276Y31683572D01*
X2672820Y31846221D01*
X2523758Y31984013D01*
X2518875Y31987094D01*
X2518871Y31987097D01*
X2356964Y32089252D01*
X2352081Y32092333D01*
X2163539Y32167554D01*
X2157879Y32168680D01*
X2157875Y32168681D01*
X1970113Y32206029D01*
X1970110Y32206029D01*
X1964446Y32207156D01*
X1958671Y32207232D01*
X1958667Y32207232D01*
X1857293Y32208559D01*
X1761471Y32209813D01*
X1755774Y32208834D01*
X1755773Y32208834D01*
X1567107Y32176415D01*
X1561410Y32175436D01*
X1370963Y32105176D01*
X1196510Y32001388D01*
X1192170Y31997582D01*
X1192166Y31997579D01*
X1172223Y31980089D01*
X1043892Y31867545D01*
X918220Y31708131D01*
X915531Y31703020D01*
X915529Y31703017D01*
X902573Y31678391D01*
X823703Y31528485D01*
X763507Y31334622D01*
X739648Y31133036D01*
X752924Y30930478D01*
X754345Y30924882D01*
X754346Y30924877D01*
X796983Y30756997D01*
X802892Y30733731D01*
X805309Y30728488D01*
X875514Y30576202D01*
X887877Y30549384D01*
X897330Y30536008D01*
X985284Y30411556D01*
X1005033Y30383611D01*
X1009175Y30379576D01*
X1033603Y30355780D01*
X1150438Y30241965D01*
X1319220Y30129188D01*
X1324523Y30126910D01*
X1324526Y30126908D01*
X1421454Y30085265D01*
X1476147Y30039997D01*
X1497684Y29972346D01*
X1479227Y29903790D01*
X1426636Y29856096D01*
X1410861Y29849732D01*
X1325368Y29821788D01*
X1315859Y29817791D01*
X1126963Y29719458D01*
X1118238Y29713964D01*
X947933Y29586095D01*
X940226Y29579252D01*
X793090Y29425283D01*
X786604Y29417273D01*
X666598Y29241351D01*
X661500Y29232377D01*
X640288Y29186680D01*
X593464Y29133313D01*
X525221Y29113732D01*
X457225Y29134155D01*
X411065Y29188098D01*
X400000Y29239730D01*
X400000Y35300000D01*
X28840715Y35300000D01*
X28859772Y35155246D01*
X28915645Y35020358D01*
X29004526Y34904526D01*
X29011076Y34899500D01*
X29011079Y34899497D01*
X29113804Y34820673D01*
X29120357Y34815645D01*
X29255246Y34759772D01*
X29400000Y34740715D01*
X29408188Y34741793D01*
X29536566Y34758694D01*
X29544754Y34759772D01*
X29679643Y34815645D01*
X29686196Y34820673D01*
X29788921Y34899497D01*
X29788924Y34899500D01*
X29795474Y34904526D01*
X29884355Y35020358D01*
X29940228Y35155246D01*
X29959285Y35300000D01*
X29940228Y35444754D01*
X29884355Y35579642D01*
X29795474Y35695474D01*
X29788924Y35700500D01*
X29788921Y35700503D01*
X29686196Y35779327D01*
X29686194Y35779328D01*
X29679643Y35784355D01*
X29544754Y35840228D01*
X29400000Y35859285D01*
X29391812Y35858207D01*
X29263432Y35841306D01*
X29263430Y35841305D01*
X29255246Y35840228D01*
X29207430Y35820422D01*
X29127986Y35787515D01*
X29127984Y35787514D01*
X29120358Y35784355D01*
X29004526Y35695474D01*
X28915645Y35579642D01*
X28859772Y35444754D01*
X28840715Y35300000D01*
X400000Y35300000D01*
X400000Y36500000D01*
X40240715Y36500000D01*
X40259772Y36355246D01*
X40315645Y36220358D01*
X40404526Y36104526D01*
X40411076Y36099500D01*
X40411079Y36099497D01*
X40513804Y36020673D01*
X40520357Y36015645D01*
X40655246Y35959772D01*
X40800000Y35940715D01*
X40808188Y35941793D01*
X40936566Y35958694D01*
X40944754Y35959772D01*
X41079643Y36015645D01*
X41086196Y36020673D01*
X41188921Y36099497D01*
X41188924Y36099500D01*
X41195474Y36104526D01*
X41284355Y36220358D01*
X41340228Y36355246D01*
X41349078Y36422469D01*
X41377800Y36487396D01*
X41393574Y36497800D01*
X41391488Y36498753D01*
X41353104Y36558479D01*
X41349078Y36577531D01*
X41341306Y36636568D01*
X41341305Y36636570D01*
X41340228Y36644754D01*
X41298379Y36745786D01*
X41287515Y36772014D01*
X41287514Y36772016D01*
X41284355Y36779642D01*
X41214198Y36871072D01*
X41200501Y36888923D01*
X41200500Y36888924D01*
X41195474Y36895474D01*
X41188924Y36900500D01*
X41188921Y36900503D01*
X41086196Y36979327D01*
X41086194Y36979328D01*
X41079643Y36984355D01*
X40944754Y37040228D01*
X40800000Y37059285D01*
X40791812Y37058207D01*
X40663432Y37041306D01*
X40663430Y37041305D01*
X40655246Y37040228D01*
X40644112Y37035616D01*
X40527986Y36987515D01*
X40527984Y36987514D01*
X40520358Y36984355D01*
X40404526Y36895474D01*
X40315645Y36779642D01*
X40312486Y36772016D01*
X40312485Y36772014D01*
X40301621Y36745786D01*
X40259772Y36644754D01*
X40258695Y36636570D01*
X40258694Y36636568D01*
X40249631Y36567727D01*
X40240715Y36500000D01*
X400000Y36500000D01*
X400000Y37037027D01*
X11015750Y37037027D01*
X11016914Y37028125D01*
X11016914Y37028122D01*
X11023295Y36979328D01*
X11034488Y36893735D01*
X11092689Y36761461D01*
X11185676Y36650840D01*
X11193147Y36645867D01*
X11193148Y36645866D01*
X11298501Y36575737D01*
X11298503Y36575736D01*
X11305974Y36570763D01*
X11314538Y36568087D01*
X11314541Y36568086D01*
X11374942Y36549216D01*
X11443910Y36527668D01*
X11588398Y36525020D01*
X11607930Y36530345D01*
X11719163Y36560670D01*
X11719165Y36560671D01*
X11727822Y36563031D01*
X11850972Y36638646D01*
X11863404Y36652380D01*
X11941926Y36739130D01*
X11947951Y36745786D01*
X12010960Y36875838D01*
X12034936Y37018347D01*
X12035088Y37030800D01*
X12034196Y37037027D01*
X15015750Y37037027D01*
X15016914Y37028125D01*
X15016914Y37028122D01*
X15023295Y36979328D01*
X15034488Y36893735D01*
X15092689Y36761461D01*
X15185676Y36650840D01*
X15193147Y36645867D01*
X15193148Y36645866D01*
X15298501Y36575737D01*
X15298503Y36575736D01*
X15305974Y36570763D01*
X15314538Y36568087D01*
X15314541Y36568086D01*
X15374942Y36549216D01*
X15443910Y36527668D01*
X15588398Y36525020D01*
X15607930Y36530345D01*
X15719163Y36560670D01*
X15719165Y36560671D01*
X15727822Y36563031D01*
X15850972Y36638646D01*
X15863404Y36652380D01*
X15941926Y36739130D01*
X15947951Y36745786D01*
X16010960Y36875838D01*
X16011823Y36880970D01*
X26555800Y36880970D01*
X26561527Y36873320D01*
X26746272Y36760107D01*
X26755067Y36755625D01*
X26972490Y36665566D01*
X26981875Y36662517D01*
X27210708Y36607578D01*
X27220455Y36606035D01*
X27455070Y36587570D01*
X27464930Y36587570D01*
X27699545Y36606035D01*
X27709292Y36607578D01*
X27938125Y36662517D01*
X27947510Y36665566D01*
X28164933Y36755625D01*
X28173728Y36760107D01*
X28354805Y36871072D01*
X28364267Y36881530D01*
X28360484Y36890306D01*
X27472812Y37777978D01*
X27458868Y37785592D01*
X27457035Y37785461D01*
X27450420Y37781210D01*
X26562560Y36893350D01*
X26555800Y36880970D01*
X16011823Y36880970D01*
X16034936Y37018347D01*
X16035088Y37030800D01*
X16014601Y37173852D01*
X15954788Y37305405D01*
X15948930Y37312204D01*
X15948927Y37312208D01*
X15866316Y37408082D01*
X15866313Y37408084D01*
X15860456Y37414882D01*
X15739190Y37493483D01*
X15722321Y37498528D01*
X15609338Y37532318D01*
X15609336Y37532318D01*
X15600737Y37534890D01*
X15591763Y37534945D01*
X15591761Y37534945D01*
X15528482Y37535331D01*
X15456227Y37535772D01*
X15447596Y37533305D01*
X15447594Y37533305D01*
X15325909Y37498528D01*
X15325905Y37498526D01*
X15317279Y37496061D01*
X15309692Y37491274D01*
X15309690Y37491273D01*
X15222519Y37436272D01*
X15195061Y37418947D01*
X15099399Y37310630D01*
X15037983Y37179818D01*
X15036603Y37170954D01*
X15036602Y37170951D01*
X15019048Y37058207D01*
X15015750Y37037027D01*
X12034196Y37037027D01*
X12014601Y37173852D01*
X11954788Y37305405D01*
X11948930Y37312204D01*
X11948927Y37312208D01*
X11866316Y37408082D01*
X11866313Y37408084D01*
X11860456Y37414882D01*
X11739190Y37493483D01*
X11722321Y37498528D01*
X11609338Y37532318D01*
X11609336Y37532318D01*
X11600737Y37534890D01*
X11591763Y37534945D01*
X11591761Y37534945D01*
X11528482Y37535331D01*
X11456227Y37535772D01*
X11447596Y37533305D01*
X11447594Y37533305D01*
X11325909Y37498528D01*
X11325905Y37498526D01*
X11317279Y37496061D01*
X11309692Y37491274D01*
X11309690Y37491273D01*
X11222519Y37436272D01*
X11195061Y37418947D01*
X11099399Y37310630D01*
X11037983Y37179818D01*
X11036603Y37170954D01*
X11036602Y37170951D01*
X11019048Y37058207D01*
X11015750Y37037027D01*
X400000Y37037027D01*
X400000Y37782125D01*
X420002Y37850246D01*
X436905Y37871220D01*
X1165685Y38600000D01*
X23740715Y38600000D01*
X23759772Y38455246D01*
X23762931Y38447620D01*
X23786987Y38389545D01*
X23815645Y38320358D01*
X23904526Y38204526D01*
X23911076Y38199500D01*
X23911079Y38199497D01*
X24013804Y38120673D01*
X24020357Y38115645D01*
X24155246Y38059772D01*
X24300000Y38040715D01*
X24308188Y38041793D01*
X24436566Y38058694D01*
X24444754Y38059772D01*
X24579643Y38115645D01*
X24586196Y38120673D01*
X24630840Y38154930D01*
X25897570Y38154930D01*
X25897570Y38145070D01*
X25916035Y37910455D01*
X25917578Y37900708D01*
X25972517Y37671875D01*
X25975566Y37662490D01*
X26065625Y37445067D01*
X26070107Y37436272D01*
X26181072Y37255195D01*
X26191530Y37245733D01*
X26200306Y37249516D01*
X27087978Y38137188D01*
X27094356Y38148868D01*
X27824408Y38148868D01*
X27824539Y38147035D01*
X27828790Y38140420D01*
X28658596Y37310614D01*
X28692622Y37248302D01*
X28695501Y37221520D01*
X28695501Y37074934D01*
X28698614Y37059285D01*
X28705246Y37025940D01*
X28710266Y37000699D01*
X28766516Y36916516D01*
X28850699Y36860266D01*
X28924933Y36845500D01*
X29999826Y36845500D01*
X31075066Y36845501D01*
X31110818Y36852612D01*
X31137126Y36857844D01*
X31137128Y36857845D01*
X31149301Y36860266D01*
X31159621Y36867161D01*
X31159622Y36867162D01*
X31223168Y36909623D01*
X31233484Y36916516D01*
X31289734Y37000699D01*
X31304500Y37074933D01*
X31304499Y39225066D01*
X31289734Y39299301D01*
X31233484Y39383484D01*
X31149301Y39439734D01*
X31075067Y39454500D01*
X30000174Y39454500D01*
X28924934Y39454499D01*
X28889182Y39447388D01*
X28862874Y39442156D01*
X28862872Y39442155D01*
X28850699Y39439734D01*
X28840379Y39432839D01*
X28840378Y39432838D01*
X28801186Y39406650D01*
X28766516Y39383484D01*
X28710266Y39299301D01*
X28695500Y39225067D01*
X28695500Y39078480D01*
X28675498Y39010359D01*
X28658595Y38989385D01*
X27832022Y38162812D01*
X27824408Y38148868D01*
X27094356Y38148868D01*
X27095592Y38151132D01*
X27095461Y38152965D01*
X27091210Y38159580D01*
X26203350Y39047440D01*
X26190970Y39054200D01*
X26183320Y39048473D01*
X26070107Y38863728D01*
X26065625Y38854933D01*
X25975566Y38637510D01*
X25972517Y38628125D01*
X25917578Y38399292D01*
X25916035Y38389545D01*
X25897570Y38154930D01*
X24630840Y38154930D01*
X24688921Y38199497D01*
X24688924Y38199500D01*
X24695474Y38204526D01*
X24784355Y38320358D01*
X24813014Y38389545D01*
X24837069Y38447620D01*
X24840228Y38455246D01*
X24859285Y38600000D01*
X24840228Y38744754D01*
X24784355Y38879642D01*
X24695474Y38995474D01*
X24688924Y39000500D01*
X24688921Y39000503D01*
X24586196Y39079327D01*
X24586194Y39079328D01*
X24579643Y39084355D01*
X24444754Y39140228D01*
X24300000Y39159285D01*
X24291812Y39158207D01*
X24163432Y39141306D01*
X24163430Y39141305D01*
X24155246Y39140228D01*
X24107430Y39120422D01*
X24027986Y39087515D01*
X24027984Y39087514D01*
X24020358Y39084355D01*
X23936270Y39019832D01*
X23923925Y39010359D01*
X23904526Y38995474D01*
X23815645Y38879642D01*
X23759772Y38744754D01*
X23740715Y38600000D01*
X1165685Y38600000D01*
X1984155Y39418470D01*
X26555733Y39418470D01*
X26559516Y39409694D01*
X27447188Y38522022D01*
X27461132Y38514408D01*
X27462965Y38514539D01*
X27469580Y38518790D01*
X28357440Y39406650D01*
X28364200Y39419030D01*
X28358473Y39426680D01*
X28173728Y39539893D01*
X28164933Y39544375D01*
X27947510Y39634434D01*
X27938125Y39637483D01*
X27709292Y39692422D01*
X27699545Y39693965D01*
X27464930Y39712430D01*
X27455070Y39712430D01*
X27220455Y39693965D01*
X27210708Y39692422D01*
X26981875Y39637483D01*
X26972490Y39634434D01*
X26755067Y39544375D01*
X26746272Y39539893D01*
X26565195Y39428928D01*
X26555733Y39418470D01*
X1984155Y39418470D01*
X4128780Y41563095D01*
X4191092Y41597121D01*
X4217875Y41600000D01*
X8382125Y41600000D01*
X8450246Y41579998D01*
G37*
G04 #@! TD.AperFunction*
G04 #@! TA.AperFunction,Conductor*
G36*
X27307183Y10630975D02*
G01*
X27353676Y10577319D01*
X27365062Y10524977D01*
X27365062Y8400977D01*
X28715062Y5500977D01*
X28725547Y5496783D01*
X29360034Y5242988D01*
X29415854Y5199117D01*
X29439095Y5132032D01*
X29422377Y5063032D01*
X29371008Y5014024D01*
X29313239Y5000000D01*
X29268115Y5000000D01*
X29252876Y4995525D01*
X29251671Y4994135D01*
X29250000Y4986452D01*
X29250000Y2518115D01*
X29254475Y2502876D01*
X29255865Y2501671D01*
X29263548Y2500000D01*
X29813513Y2500000D01*
X29826713Y2501300D01*
X29896466Y2488071D01*
X29947994Y2439230D01*
X29965062Y2375907D01*
X29965062Y2126977D01*
X29945060Y2058856D01*
X29891404Y2012363D01*
X29839062Y2000977D01*
X27301146Y2000977D01*
X27233025Y2020979D01*
X27183767Y2081171D01*
X26732926Y3236452D01*
X27500000Y3236452D01*
X27500000Y2686489D01*
X27501207Y2674234D01*
X27509183Y2634136D01*
X27518499Y2611645D01*
X27548915Y2566124D01*
X27566124Y2548915D01*
X27611645Y2518499D01*
X27634136Y2509183D01*
X27674234Y2501207D01*
X27686489Y2500000D01*
X28231885Y2500000D01*
X28247124Y2504475D01*
X28248329Y2505865D01*
X28250000Y2513548D01*
X28250000Y3231885D01*
X28245525Y3247124D01*
X28244135Y3248329D01*
X28236452Y3250000D01*
X27518115Y3250000D01*
X27502876Y3245525D01*
X27501671Y3244135D01*
X27500000Y3236452D01*
X26732926Y3236452D01*
X26117488Y4813511D01*
X27500000Y4813511D01*
X27500000Y4268115D01*
X27504475Y4252876D01*
X27505865Y4251671D01*
X27513548Y4250000D01*
X28231885Y4250000D01*
X28247124Y4254475D01*
X28248329Y4255865D01*
X28250000Y4263548D01*
X28250000Y4981885D01*
X28245525Y4997124D01*
X28244135Y4998329D01*
X28236452Y5000000D01*
X27686489Y5000000D01*
X27674234Y4998793D01*
X27634136Y4990817D01*
X27611645Y4981501D01*
X27566124Y4951085D01*
X27548915Y4933876D01*
X27518499Y4888355D01*
X27509183Y4865864D01*
X27501207Y4825766D01*
X27500000Y4813511D01*
X26117488Y4813511D01*
X24824158Y8127668D01*
X24815562Y8175993D01*
X24820062Y8400977D01*
X24862592Y10527497D01*
X24883952Y10595204D01*
X24938527Y10640614D01*
X24988567Y10650977D01*
X27239062Y10650977D01*
X27307183Y10630975D01*
G37*
G04 #@! TD.AperFunction*
M02*
