G04 #@! TF.GenerationSoftware,KiCad,Pcbnew,6.99.0-unknown-41f6e634c6~148~ubuntu20.04.1*
G04 #@! TF.CreationDate,2022-02-25T02:28:11-08:00*
G04 #@! TF.ProjectId,Huvud,48757675-642e-46b6-9963-61645f706362,rev?*
G04 #@! TF.SameCoordinates,PXad91980PY876bf80*
G04 #@! TF.FileFunction,Legend,Bot*
G04 #@! TF.FilePolarity,Positive*
%FSLAX46Y46*%
G04 Gerber Fmt 4.6, Leading zero omitted, Abs format (unit mm)*
G04 Created by KiCad (PCBNEW 6.99.0-unknown-41f6e634c6~148~ubuntu20.04.1) date 2022-02-25 02:28:11*
%MOMM*%
%LPD*%
G01*
G04 APERTURE LIST*
G04 Aperture macros list*
%AMRoundRect*
0 Rectangle with rounded corners*
0 $1 Rounding radius*
0 $2 $3 $4 $5 $6 $7 $8 $9 X,Y pos of 4 corners*
0 Add a 4 corners polygon primitive as box body*
4,1,4,$2,$3,$4,$5,$6,$7,$8,$9,$2,$3,0*
0 Add four circle primitives for the rounded corners*
1,1,$1+$1,$2,$3*
1,1,$1+$1,$4,$5*
1,1,$1+$1,$6,$7*
1,1,$1+$1,$8,$9*
0 Add four rect primitives between the rounded corners*
20,1,$1+$1,$2,$3,$4,$5,0*
20,1,$1+$1,$4,$5,$6,$7,0*
20,1,$1+$1,$6,$7,$8,$9,0*
20,1,$1+$1,$8,$9,$2,$3,0*%
G04 Aperture macros list end*
%ADD10C,0.130000*%
%ADD11C,0.150000*%
%ADD12C,0.300000*%
%ADD13C,0.010000*%
%ADD14C,0.100000*%
%ADD15RoundRect,0.225000X0.475000X-0.225000X0.475000X0.225000X-0.475000X0.225000X-0.475000X-0.225000X0*%
%ADD16O,1.400000X0.900000*%
%ADD17RoundRect,0.225000X-0.475000X0.225000X-0.475000X-0.225000X0.475000X-0.225000X0.475000X0.225000X0*%
%ADD18C,0.800000*%
%ADD19C,6.400000*%
%ADD20R,1.000000X1.000000*%
%ADD21O,1.000000X1.000000*%
%ADD22C,3.000000*%
%ADD23RoundRect,0.250001X-0.499999X-0.499999X0.499999X-0.499999X0.499999X0.499999X-0.499999X0.499999X0*%
%ADD24C,1.500000*%
%ADD25RoundRect,0.250000X0.725000X-0.600000X0.725000X0.600000X-0.725000X0.600000X-0.725000X-0.600000X0*%
%ADD26O,1.950000X1.700000*%
G04 APERTURE END LIST*
D10*
X1822800Y35163315D02*
X1856133Y35134743D01*
X1856133Y35134743D02*
X1956133Y35106172D01*
X1956133Y35106172D02*
X2022800Y35106172D01*
X2022800Y35106172D02*
X2122800Y35134743D01*
X2122800Y35134743D02*
X2189467Y35191886D01*
X2189467Y35191886D02*
X2222800Y35249029D01*
X2222800Y35249029D02*
X2256133Y35363315D01*
X2256133Y35363315D02*
X2256133Y35449029D01*
X2256133Y35449029D02*
X2222800Y35563315D01*
X2222800Y35563315D02*
X2189467Y35620458D01*
X2189467Y35620458D02*
X2122800Y35677600D01*
X2122800Y35677600D02*
X2022800Y35706172D01*
X2022800Y35706172D02*
X1956133Y35706172D01*
X1956133Y35706172D02*
X1856133Y35677600D01*
X1856133Y35677600D02*
X1822800Y35649029D01*
X1189467Y35106172D02*
X1522800Y35106172D01*
X1522800Y35106172D02*
X1522800Y35706172D01*
X956133Y35106172D02*
X956133Y35706172D01*
X556133Y35106172D02*
X856133Y35449029D01*
X556133Y35706172D02*
X956133Y35363315D01*
X1756133Y34134172D02*
X1989466Y34419886D01*
X2156133Y34134172D02*
X2156133Y34734172D01*
X2156133Y34734172D02*
X1889466Y34734172D01*
X1889466Y34734172D02*
X1822800Y34705600D01*
X1822800Y34705600D02*
X1789466Y34677029D01*
X1789466Y34677029D02*
X1756133Y34619886D01*
X1756133Y34619886D02*
X1756133Y34534172D01*
X1756133Y34534172D02*
X1789466Y34477029D01*
X1789466Y34477029D02*
X1822800Y34448458D01*
X1822800Y34448458D02*
X1889466Y34419886D01*
X1889466Y34419886D02*
X2156133Y34419886D01*
X1489466Y34162743D02*
X1389466Y34134172D01*
X1389466Y34134172D02*
X1222800Y34134172D01*
X1222800Y34134172D02*
X1156133Y34162743D01*
X1156133Y34162743D02*
X1122800Y34191315D01*
X1122800Y34191315D02*
X1089466Y34248458D01*
X1089466Y34248458D02*
X1089466Y34305600D01*
X1089466Y34305600D02*
X1122800Y34362743D01*
X1122800Y34362743D02*
X1156133Y34391315D01*
X1156133Y34391315D02*
X1222800Y34419886D01*
X1222800Y34419886D02*
X1356133Y34448458D01*
X1356133Y34448458D02*
X1422800Y34477029D01*
X1422800Y34477029D02*
X1456133Y34505600D01*
X1456133Y34505600D02*
X1489466Y34562743D01*
X1489466Y34562743D02*
X1489466Y34619886D01*
X1489466Y34619886D02*
X1456133Y34677029D01*
X1456133Y34677029D02*
X1422800Y34705600D01*
X1422800Y34705600D02*
X1356133Y34734172D01*
X1356133Y34734172D02*
X1189466Y34734172D01*
X1189466Y34734172D02*
X1089466Y34705600D01*
X889466Y34734172D02*
X489466Y34734172D01*
X689466Y34134172D02*
X689466Y34734172D01*
X1989467Y33762172D02*
X1556133Y33762172D01*
X1556133Y33762172D02*
X1789467Y33533600D01*
X1789467Y33533600D02*
X1689467Y33533600D01*
X1689467Y33533600D02*
X1622800Y33505029D01*
X1622800Y33505029D02*
X1589467Y33476458D01*
X1589467Y33476458D02*
X1556133Y33419315D01*
X1556133Y33419315D02*
X1556133Y33276458D01*
X1556133Y33276458D02*
X1589467Y33219315D01*
X1589467Y33219315D02*
X1622800Y33190743D01*
X1622800Y33190743D02*
X1689467Y33162172D01*
X1689467Y33162172D02*
X1889467Y33162172D01*
X1889467Y33162172D02*
X1956133Y33190743D01*
X1956133Y33190743D02*
X1989467Y33219315D01*
X1256133Y33219315D02*
X1222800Y33190743D01*
X1222800Y33190743D02*
X1256133Y33162172D01*
X1256133Y33162172D02*
X1289466Y33190743D01*
X1289466Y33190743D02*
X1256133Y33219315D01*
X1256133Y33219315D02*
X1256133Y33162172D01*
X989467Y33762172D02*
X556133Y33762172D01*
X556133Y33762172D02*
X789467Y33533600D01*
X789467Y33533600D02*
X689467Y33533600D01*
X689467Y33533600D02*
X622800Y33505029D01*
X622800Y33505029D02*
X589467Y33476458D01*
X589467Y33476458D02*
X556133Y33419315D01*
X556133Y33419315D02*
X556133Y33276458D01*
X556133Y33276458D02*
X589467Y33219315D01*
X589467Y33219315D02*
X622800Y33190743D01*
X622800Y33190743D02*
X689467Y33162172D01*
X689467Y33162172D02*
X889467Y33162172D01*
X889467Y33162172D02*
X956133Y33190743D01*
X956133Y33190743D02*
X989467Y33219315D01*
X4980399Y31600972D02*
X4980399Y32200972D01*
X4513733Y32200972D02*
X4380399Y32200972D01*
X4380399Y32200972D02*
X4313733Y32172400D01*
X4313733Y32172400D02*
X4247066Y32115258D01*
X4247066Y32115258D02*
X4213733Y32000972D01*
X4213733Y32000972D02*
X4213733Y31800972D01*
X4213733Y31800972D02*
X4247066Y31686686D01*
X4247066Y31686686D02*
X4313733Y31629543D01*
X4313733Y31629543D02*
X4380399Y31600972D01*
X4380399Y31600972D02*
X4513733Y31600972D01*
X4513733Y31600972D02*
X4580399Y31629543D01*
X4580399Y31629543D02*
X4647066Y31686686D01*
X4647066Y31686686D02*
X4680399Y31800972D01*
X4680399Y31800972D02*
X4680399Y32000972D01*
X4680399Y32000972D02*
X4647066Y32115258D01*
X4647066Y32115258D02*
X4580399Y32172400D01*
X4580399Y32172400D02*
X4513733Y32200972D01*
X5680399Y31200400D02*
X5747066Y31228972D01*
X5747066Y31228972D02*
X5847066Y31228972D01*
X5847066Y31228972D02*
X5947066Y31200400D01*
X5947066Y31200400D02*
X6013733Y31143258D01*
X6013733Y31143258D02*
X6047066Y31086115D01*
X6047066Y31086115D02*
X6080399Y30971829D01*
X6080399Y30971829D02*
X6080399Y30886115D01*
X6080399Y30886115D02*
X6047066Y30771829D01*
X6047066Y30771829D02*
X6013733Y30714686D01*
X6013733Y30714686D02*
X5947066Y30657543D01*
X5947066Y30657543D02*
X5847066Y30628972D01*
X5847066Y30628972D02*
X5780399Y30628972D01*
X5780399Y30628972D02*
X5680399Y30657543D01*
X5680399Y30657543D02*
X5647066Y30686115D01*
X5647066Y30686115D02*
X5647066Y30886115D01*
X5647066Y30886115D02*
X5780399Y30886115D01*
X5347066Y30628972D02*
X5347066Y31228972D01*
X5347066Y31228972D02*
X4947066Y30628972D01*
X4947066Y30628972D02*
X4947066Y31228972D01*
X4613733Y30628972D02*
X4613733Y31228972D01*
X4613733Y31228972D02*
X4447066Y31228972D01*
X4447066Y31228972D02*
X4347066Y31200400D01*
X4347066Y31200400D02*
X4280400Y31143258D01*
X4280400Y31143258D02*
X4247066Y31086115D01*
X4247066Y31086115D02*
X4213733Y30971829D01*
X4213733Y30971829D02*
X4213733Y30886115D01*
X4213733Y30886115D02*
X4247066Y30771829D01*
X4247066Y30771829D02*
X4280400Y30714686D01*
X4280400Y30714686D02*
X4347066Y30657543D01*
X4347066Y30657543D02*
X4447066Y30628972D01*
X4447066Y30628972D02*
X4613733Y30628972D01*
X6380399Y29971258D02*
X6280399Y29942686D01*
X6280399Y29942686D02*
X6247065Y29914115D01*
X6247065Y29914115D02*
X6213732Y29856972D01*
X6213732Y29856972D02*
X6213732Y29771258D01*
X6213732Y29771258D02*
X6247065Y29714115D01*
X6247065Y29714115D02*
X6280399Y29685543D01*
X6280399Y29685543D02*
X6347065Y29656972D01*
X6347065Y29656972D02*
X6613732Y29656972D01*
X6613732Y29656972D02*
X6613732Y30256972D01*
X6613732Y30256972D02*
X6380399Y30256972D01*
X6380399Y30256972D02*
X6313732Y30228400D01*
X6313732Y30228400D02*
X6280399Y30199829D01*
X6280399Y30199829D02*
X6247065Y30142686D01*
X6247065Y30142686D02*
X6247065Y30085543D01*
X6247065Y30085543D02*
X6280399Y30028400D01*
X6280399Y30028400D02*
X6313732Y29999829D01*
X6313732Y29999829D02*
X6380399Y29971258D01*
X6380399Y29971258D02*
X6613732Y29971258D01*
X5780399Y30256972D02*
X5647065Y30256972D01*
X5647065Y30256972D02*
X5580399Y30228400D01*
X5580399Y30228400D02*
X5513732Y30171258D01*
X5513732Y30171258D02*
X5480399Y30056972D01*
X5480399Y30056972D02*
X5480399Y29856972D01*
X5480399Y29856972D02*
X5513732Y29742686D01*
X5513732Y29742686D02*
X5580399Y29685543D01*
X5580399Y29685543D02*
X5647065Y29656972D01*
X5647065Y29656972D02*
X5780399Y29656972D01*
X5780399Y29656972D02*
X5847065Y29685543D01*
X5847065Y29685543D02*
X5913732Y29742686D01*
X5913732Y29742686D02*
X5947065Y29856972D01*
X5947065Y29856972D02*
X5947065Y30056972D01*
X5947065Y30056972D02*
X5913732Y30171258D01*
X5913732Y30171258D02*
X5847065Y30228400D01*
X5847065Y30228400D02*
X5780399Y30256972D01*
X5047066Y30256972D02*
X4913732Y30256972D01*
X4913732Y30256972D02*
X4847066Y30228400D01*
X4847066Y30228400D02*
X4780399Y30171258D01*
X4780399Y30171258D02*
X4747066Y30056972D01*
X4747066Y30056972D02*
X4747066Y29856972D01*
X4747066Y29856972D02*
X4780399Y29742686D01*
X4780399Y29742686D02*
X4847066Y29685543D01*
X4847066Y29685543D02*
X4913732Y29656972D01*
X4913732Y29656972D02*
X5047066Y29656972D01*
X5047066Y29656972D02*
X5113732Y29685543D01*
X5113732Y29685543D02*
X5180399Y29742686D01*
X5180399Y29742686D02*
X5213732Y29856972D01*
X5213732Y29856972D02*
X5213732Y30056972D01*
X5213732Y30056972D02*
X5180399Y30171258D01*
X5180399Y30171258D02*
X5113732Y30228400D01*
X5113732Y30228400D02*
X5047066Y30256972D01*
X4547066Y30256972D02*
X4147066Y30256972D01*
X4347066Y29656972D02*
X4347066Y30256972D01*
D11*
X4802380Y13708096D02*
X5183332Y13708096D01*
X5183332Y13708096D02*
X5221428Y13327143D01*
X5221428Y13327143D02*
X5183332Y13365239D01*
X5183332Y13365239D02*
X5107142Y13403334D01*
X5107142Y13403334D02*
X4916666Y13403334D01*
X4916666Y13403334D02*
X4840475Y13365239D01*
X4840475Y13365239D02*
X4802380Y13327143D01*
X4802380Y13327143D02*
X4764285Y13250953D01*
X4764285Y13250953D02*
X4764285Y13060477D01*
X4764285Y13060477D02*
X4802380Y12984286D01*
X4802380Y12984286D02*
X4840475Y12946191D01*
X4840475Y12946191D02*
X4916666Y12908096D01*
X4916666Y12908096D02*
X5107142Y12908096D01*
X5107142Y12908096D02*
X5183332Y12946191D01*
X5183332Y12946191D02*
X5221428Y12984286D01*
X4535713Y13708096D02*
X4269046Y12908096D01*
X4269046Y12908096D02*
X4002380Y13708096D01*
X5209524Y14246191D02*
X5095238Y14208096D01*
X5095238Y14208096D02*
X4904762Y14208096D01*
X4904762Y14208096D02*
X4828571Y14246191D01*
X4828571Y14246191D02*
X4790476Y14284286D01*
X4790476Y14284286D02*
X4752381Y14360477D01*
X4752381Y14360477D02*
X4752381Y14436667D01*
X4752381Y14436667D02*
X4790476Y14512858D01*
X4790476Y14512858D02*
X4828571Y14550953D01*
X4828571Y14550953D02*
X4904762Y14589048D01*
X4904762Y14589048D02*
X5057143Y14627143D01*
X5057143Y14627143D02*
X5133333Y14665239D01*
X5133333Y14665239D02*
X5171428Y14703334D01*
X5171428Y14703334D02*
X5209524Y14779524D01*
X5209524Y14779524D02*
X5209524Y14855715D01*
X5209524Y14855715D02*
X5171428Y14931905D01*
X5171428Y14931905D02*
X5133333Y14970000D01*
X5133333Y14970000D02*
X5057143Y15008096D01*
X5057143Y15008096D02*
X4866666Y15008096D01*
X4866666Y15008096D02*
X4752381Y14970000D01*
X3990476Y14208096D02*
X4447619Y14208096D01*
X4219047Y14208096D02*
X4219047Y15008096D01*
X4219047Y15008096D02*
X4295238Y14893810D01*
X4295238Y14893810D02*
X4371428Y14817620D01*
X4371428Y14817620D02*
X4447619Y14779524D01*
X14180951Y35947620D02*
X14180951Y36947620D01*
X14180951Y36947620D02*
X13942856Y36947620D01*
X13942856Y36947620D02*
X13799999Y36900000D01*
X13799999Y36900000D02*
X13704761Y36804762D01*
X13704761Y36804762D02*
X13657142Y36709524D01*
X13657142Y36709524D02*
X13609523Y36519048D01*
X13609523Y36519048D02*
X13609523Y36376191D01*
X13609523Y36376191D02*
X13657142Y36185715D01*
X13657142Y36185715D02*
X13704761Y36090477D01*
X13704761Y36090477D02*
X13799999Y35995239D01*
X13799999Y35995239D02*
X13942856Y35947620D01*
X13942856Y35947620D02*
X14180951Y35947620D01*
X13180951Y36328572D02*
X12419047Y36328572D01*
D10*
X10833333Y31428572D02*
X11166666Y31428572D01*
X11166666Y31428572D02*
X11199999Y31142858D01*
X11199999Y31142858D02*
X11166666Y31171429D01*
X11166666Y31171429D02*
X11099999Y31200000D01*
X11099999Y31200000D02*
X10933333Y31200000D01*
X10933333Y31200000D02*
X10866666Y31171429D01*
X10866666Y31171429D02*
X10833333Y31142858D01*
X10833333Y31142858D02*
X10799999Y31085715D01*
X10799999Y31085715D02*
X10799999Y30942858D01*
X10799999Y30942858D02*
X10833333Y30885715D01*
X10833333Y30885715D02*
X10866666Y30857143D01*
X10866666Y30857143D02*
X10933333Y30828572D01*
X10933333Y30828572D02*
X11099999Y30828572D01*
X11099999Y30828572D02*
X11166666Y30857143D01*
X11166666Y30857143D02*
X11199999Y30885715D01*
X10599999Y31428572D02*
X10366666Y30828572D01*
X10366666Y30828572D02*
X10133332Y31428572D01*
X11639999Y28308572D02*
X11639999Y28908572D01*
X11173333Y28908572D02*
X11039999Y28908572D01*
X11039999Y28908572D02*
X10973333Y28880000D01*
X10973333Y28880000D02*
X10906666Y28822858D01*
X10906666Y28822858D02*
X10873333Y28708572D01*
X10873333Y28708572D02*
X10873333Y28508572D01*
X10873333Y28508572D02*
X10906666Y28394286D01*
X10906666Y28394286D02*
X10973333Y28337143D01*
X10973333Y28337143D02*
X11039999Y28308572D01*
X11039999Y28308572D02*
X11173333Y28308572D01*
X11173333Y28308572D02*
X11239999Y28337143D01*
X11239999Y28337143D02*
X11306666Y28394286D01*
X11306666Y28394286D02*
X11339999Y28508572D01*
X11339999Y28508572D02*
X11339999Y28708572D01*
X11339999Y28708572D02*
X11306666Y28822858D01*
X11306666Y28822858D02*
X11239999Y28880000D01*
X11239999Y28880000D02*
X11173333Y28908572D01*
X10240000Y28908572D02*
X10573333Y28908572D01*
X10573333Y28908572D02*
X10606666Y28622858D01*
X10606666Y28622858D02*
X10573333Y28651429D01*
X10573333Y28651429D02*
X10506666Y28680000D01*
X10506666Y28680000D02*
X10340000Y28680000D01*
X10340000Y28680000D02*
X10273333Y28651429D01*
X10273333Y28651429D02*
X10240000Y28622858D01*
X10240000Y28622858D02*
X10206666Y28565715D01*
X10206666Y28565715D02*
X10206666Y28422858D01*
X10206666Y28422858D02*
X10240000Y28365715D01*
X10240000Y28365715D02*
X10273333Y28337143D01*
X10273333Y28337143D02*
X10340000Y28308572D01*
X10340000Y28308572D02*
X10506666Y28308572D01*
X10506666Y28308572D02*
X10573333Y28337143D01*
X10573333Y28337143D02*
X10606666Y28365715D01*
D11*
X5249524Y16876191D02*
X5135238Y16838096D01*
X5135238Y16838096D02*
X4944762Y16838096D01*
X4944762Y16838096D02*
X4868571Y16876191D01*
X4868571Y16876191D02*
X4830476Y16914286D01*
X4830476Y16914286D02*
X4792381Y16990477D01*
X4792381Y16990477D02*
X4792381Y17066667D01*
X4792381Y17066667D02*
X4830476Y17142858D01*
X4830476Y17142858D02*
X4868571Y17180953D01*
X4868571Y17180953D02*
X4944762Y17219048D01*
X4944762Y17219048D02*
X5097143Y17257143D01*
X5097143Y17257143D02*
X5173333Y17295239D01*
X5173333Y17295239D02*
X5211428Y17333334D01*
X5211428Y17333334D02*
X5249524Y17409524D01*
X5249524Y17409524D02*
X5249524Y17485715D01*
X5249524Y17485715D02*
X5211428Y17561905D01*
X5211428Y17561905D02*
X5173333Y17600000D01*
X5173333Y17600000D02*
X5097143Y17638096D01*
X5097143Y17638096D02*
X4906666Y17638096D01*
X4906666Y17638096D02*
X4792381Y17600000D01*
X4525714Y17638096D02*
X4030476Y17638096D01*
X4030476Y17638096D02*
X4297142Y17333334D01*
X4297142Y17333334D02*
X4182857Y17333334D01*
X4182857Y17333334D02*
X4106666Y17295239D01*
X4106666Y17295239D02*
X4068571Y17257143D01*
X4068571Y17257143D02*
X4030476Y17180953D01*
X4030476Y17180953D02*
X4030476Y16990477D01*
X4030476Y16990477D02*
X4068571Y16914286D01*
X4068571Y16914286D02*
X4106666Y16876191D01*
X4106666Y16876191D02*
X4182857Y16838096D01*
X4182857Y16838096D02*
X4411428Y16838096D01*
X4411428Y16838096D02*
X4487619Y16876191D01*
X4487619Y16876191D02*
X4525714Y16914286D01*
X17142857Y6121429D02*
X17476190Y6121429D01*
X17476190Y5597620D02*
X17476190Y6597620D01*
X17476190Y6597620D02*
X17000000Y6597620D01*
X16238095Y5645239D02*
X16333333Y5597620D01*
X16333333Y5597620D02*
X16523809Y5597620D01*
X16523809Y5597620D02*
X16619047Y5645239D01*
X16619047Y5645239D02*
X16666666Y5740477D01*
X16666666Y5740477D02*
X16666666Y6121429D01*
X16666666Y6121429D02*
X16619047Y6216667D01*
X16619047Y6216667D02*
X16523809Y6264286D01*
X16523809Y6264286D02*
X16333333Y6264286D01*
X16333333Y6264286D02*
X16238095Y6216667D01*
X16238095Y6216667D02*
X16190476Y6121429D01*
X16190476Y6121429D02*
X16190476Y6026191D01*
X16190476Y6026191D02*
X16666666Y5930953D01*
X15761904Y5597620D02*
X15761904Y6597620D01*
X15761904Y6216667D02*
X15666666Y6264286D01*
X15666666Y6264286D02*
X15476190Y6264286D01*
X15476190Y6264286D02*
X15380952Y6216667D01*
X15380952Y6216667D02*
X15333333Y6169048D01*
X15333333Y6169048D02*
X15285714Y6073810D01*
X15285714Y6073810D02*
X15285714Y5788096D01*
X15285714Y5788096D02*
X15333333Y5692858D01*
X15333333Y5692858D02*
X15380952Y5645239D01*
X15380952Y5645239D02*
X15476190Y5597620D01*
X15476190Y5597620D02*
X15666666Y5597620D01*
X15666666Y5597620D02*
X15761904Y5645239D01*
X14304761Y6502381D02*
X14257142Y6550000D01*
X14257142Y6550000D02*
X14161904Y6597620D01*
X14161904Y6597620D02*
X13923809Y6597620D01*
X13923809Y6597620D02*
X13828571Y6550000D01*
X13828571Y6550000D02*
X13780952Y6502381D01*
X13780952Y6502381D02*
X13733333Y6407143D01*
X13733333Y6407143D02*
X13733333Y6311905D01*
X13733333Y6311905D02*
X13780952Y6169048D01*
X13780952Y6169048D02*
X14352380Y5597620D01*
X14352380Y5597620D02*
X13733333Y5597620D01*
X13114285Y6597620D02*
X13019047Y6597620D01*
X13019047Y6597620D02*
X12923809Y6550000D01*
X12923809Y6550000D02*
X12876190Y6502381D01*
X12876190Y6502381D02*
X12828571Y6407143D01*
X12828571Y6407143D02*
X12780952Y6216667D01*
X12780952Y6216667D02*
X12780952Y5978572D01*
X12780952Y5978572D02*
X12828571Y5788096D01*
X12828571Y5788096D02*
X12876190Y5692858D01*
X12876190Y5692858D02*
X12923809Y5645239D01*
X12923809Y5645239D02*
X13019047Y5597620D01*
X13019047Y5597620D02*
X13114285Y5597620D01*
X13114285Y5597620D02*
X13209523Y5645239D01*
X13209523Y5645239D02*
X13257142Y5692858D01*
X13257142Y5692858D02*
X13304761Y5788096D01*
X13304761Y5788096D02*
X13352380Y5978572D01*
X13352380Y5978572D02*
X13352380Y6216667D01*
X13352380Y6216667D02*
X13304761Y6407143D01*
X13304761Y6407143D02*
X13257142Y6502381D01*
X13257142Y6502381D02*
X13209523Y6550000D01*
X13209523Y6550000D02*
X13114285Y6597620D01*
X12399999Y6502381D02*
X12352380Y6550000D01*
X12352380Y6550000D02*
X12257142Y6597620D01*
X12257142Y6597620D02*
X12019047Y6597620D01*
X12019047Y6597620D02*
X11923809Y6550000D01*
X11923809Y6550000D02*
X11876190Y6502381D01*
X11876190Y6502381D02*
X11828571Y6407143D01*
X11828571Y6407143D02*
X11828571Y6311905D01*
X11828571Y6311905D02*
X11876190Y6169048D01*
X11876190Y6169048D02*
X12447618Y5597620D01*
X12447618Y5597620D02*
X11828571Y5597620D01*
X11447618Y6502381D02*
X11399999Y6550000D01*
X11399999Y6550000D02*
X11304761Y6597620D01*
X11304761Y6597620D02*
X11066666Y6597620D01*
X11066666Y6597620D02*
X10971428Y6550000D01*
X10971428Y6550000D02*
X10923809Y6502381D01*
X10923809Y6502381D02*
X10876190Y6407143D01*
X10876190Y6407143D02*
X10876190Y6311905D01*
X10876190Y6311905D02*
X10923809Y6169048D01*
X10923809Y6169048D02*
X11495237Y5597620D01*
X11495237Y5597620D02*
X10876190Y5597620D01*
X16138095Y30300000D02*
X16233333Y30347620D01*
X16233333Y30347620D02*
X16376190Y30347620D01*
X16376190Y30347620D02*
X16519047Y30300000D01*
X16519047Y30300000D02*
X16614285Y30204762D01*
X16614285Y30204762D02*
X16661904Y30109524D01*
X16661904Y30109524D02*
X16709523Y29919048D01*
X16709523Y29919048D02*
X16709523Y29776191D01*
X16709523Y29776191D02*
X16661904Y29585715D01*
X16661904Y29585715D02*
X16614285Y29490477D01*
X16614285Y29490477D02*
X16519047Y29395239D01*
X16519047Y29395239D02*
X16376190Y29347620D01*
X16376190Y29347620D02*
X16280952Y29347620D01*
X16280952Y29347620D02*
X16138095Y29395239D01*
X16138095Y29395239D02*
X16090476Y29442858D01*
X16090476Y29442858D02*
X16090476Y29776191D01*
X16090476Y29776191D02*
X16280952Y29776191D01*
D12*
X36969998Y29319143D02*
X36969998Y30519143D01*
X36455713Y29319143D02*
X36455713Y29947715D01*
X36455713Y29947715D02*
X36512855Y30062000D01*
X36512855Y30062000D02*
X36627141Y30119143D01*
X36627141Y30119143D02*
X36798570Y30119143D01*
X36798570Y30119143D02*
X36912855Y30062000D01*
X36912855Y30062000D02*
X36969998Y30004858D01*
X36055713Y30119143D02*
X35598570Y30119143D01*
X35884284Y30519143D02*
X35884284Y29490572D01*
X35884284Y29490572D02*
X35827141Y29376286D01*
X35827141Y29376286D02*
X35712856Y29319143D01*
X35712856Y29319143D02*
X35598570Y29319143D01*
X35369999Y30119143D02*
X34912856Y30119143D01*
X35198570Y30519143D02*
X35198570Y29490572D01*
X35198570Y29490572D02*
X35141427Y29376286D01*
X35141427Y29376286D02*
X35027142Y29319143D01*
X35027142Y29319143D02*
X34912856Y29319143D01*
X34512856Y30119143D02*
X34512856Y28919143D01*
X34512856Y30062000D02*
X34398571Y30119143D01*
X34398571Y30119143D02*
X34169999Y30119143D01*
X34169999Y30119143D02*
X34055713Y30062000D01*
X34055713Y30062000D02*
X33998571Y30004858D01*
X33998571Y30004858D02*
X33941428Y29890572D01*
X33941428Y29890572D02*
X33941428Y29547715D01*
X33941428Y29547715D02*
X33998571Y29433429D01*
X33998571Y29433429D02*
X34055713Y29376286D01*
X34055713Y29376286D02*
X34169999Y29319143D01*
X34169999Y29319143D02*
X34398571Y29319143D01*
X34398571Y29319143D02*
X34512856Y29376286D01*
X33427142Y29433429D02*
X33369999Y29376286D01*
X33369999Y29376286D02*
X33427142Y29319143D01*
X33427142Y29319143D02*
X33484285Y29376286D01*
X33484285Y29376286D02*
X33427142Y29433429D01*
X33427142Y29433429D02*
X33427142Y29319143D01*
X33427142Y30062000D02*
X33369999Y30004858D01*
X33369999Y30004858D02*
X33427142Y29947715D01*
X33427142Y29947715D02*
X33484285Y30004858D01*
X33484285Y30004858D02*
X33427142Y30062000D01*
X33427142Y30062000D02*
X33427142Y29947715D01*
X31998570Y30576286D02*
X33027142Y29033429D01*
X30741427Y30576286D02*
X31769999Y29033429D01*
X29827142Y30119143D02*
X29827142Y29147715D01*
X29827142Y29147715D02*
X29884284Y29033429D01*
X29884284Y29033429D02*
X29941427Y28976286D01*
X29941427Y28976286D02*
X30055713Y28919143D01*
X30055713Y28919143D02*
X30227142Y28919143D01*
X30227142Y28919143D02*
X30341427Y28976286D01*
X29827142Y29376286D02*
X29941427Y29319143D01*
X29941427Y29319143D02*
X30169999Y29319143D01*
X30169999Y29319143D02*
X30284284Y29376286D01*
X30284284Y29376286D02*
X30341427Y29433429D01*
X30341427Y29433429D02*
X30398570Y29547715D01*
X30398570Y29547715D02*
X30398570Y29890572D01*
X30398570Y29890572D02*
X30341427Y30004858D01*
X30341427Y30004858D02*
X30284284Y30062000D01*
X30284284Y30062000D02*
X30169999Y30119143D01*
X30169999Y30119143D02*
X29941427Y30119143D01*
X29941427Y30119143D02*
X29827142Y30062000D01*
X29255713Y29319143D02*
X29255713Y30119143D01*
X29255713Y30519143D02*
X29312856Y30462000D01*
X29312856Y30462000D02*
X29255713Y30404858D01*
X29255713Y30404858D02*
X29198570Y30462000D01*
X29198570Y30462000D02*
X29255713Y30519143D01*
X29255713Y30519143D02*
X29255713Y30404858D01*
X28855713Y30119143D02*
X28398570Y30119143D01*
X28684284Y30519143D02*
X28684284Y29490572D01*
X28684284Y29490572D02*
X28627141Y29376286D01*
X28627141Y29376286D02*
X28512856Y29319143D01*
X28512856Y29319143D02*
X28398570Y29319143D01*
X27998570Y29319143D02*
X27998570Y30519143D01*
X27484285Y29319143D02*
X27484285Y29947715D01*
X27484285Y29947715D02*
X27541427Y30062000D01*
X27541427Y30062000D02*
X27655713Y30119143D01*
X27655713Y30119143D02*
X27827142Y30119143D01*
X27827142Y30119143D02*
X27941427Y30062000D01*
X27941427Y30062000D02*
X27998570Y30004858D01*
X26398571Y30119143D02*
X26398571Y29319143D01*
X26912856Y30119143D02*
X26912856Y29490572D01*
X26912856Y29490572D02*
X26855713Y29376286D01*
X26855713Y29376286D02*
X26741428Y29319143D01*
X26741428Y29319143D02*
X26569999Y29319143D01*
X26569999Y29319143D02*
X26455713Y29376286D01*
X26455713Y29376286D02*
X26398571Y29433429D01*
X25827142Y29319143D02*
X25827142Y30519143D01*
X25827142Y30062000D02*
X25712857Y30119143D01*
X25712857Y30119143D02*
X25484285Y30119143D01*
X25484285Y30119143D02*
X25369999Y30062000D01*
X25369999Y30062000D02*
X25312857Y30004858D01*
X25312857Y30004858D02*
X25255714Y29890572D01*
X25255714Y29890572D02*
X25255714Y29547715D01*
X25255714Y29547715D02*
X25312857Y29433429D01*
X25312857Y29433429D02*
X25369999Y29376286D01*
X25369999Y29376286D02*
X25484285Y29319143D01*
X25484285Y29319143D02*
X25712857Y29319143D01*
X25712857Y29319143D02*
X25827142Y29376286D01*
X24741428Y29433429D02*
X24684285Y29376286D01*
X24684285Y29376286D02*
X24741428Y29319143D01*
X24741428Y29319143D02*
X24798571Y29376286D01*
X24798571Y29376286D02*
X24741428Y29433429D01*
X24741428Y29433429D02*
X24741428Y29319143D01*
X23655714Y29376286D02*
X23769999Y29319143D01*
X23769999Y29319143D02*
X23998571Y29319143D01*
X23998571Y29319143D02*
X24112856Y29376286D01*
X24112856Y29376286D02*
X24169999Y29433429D01*
X24169999Y29433429D02*
X24227142Y29547715D01*
X24227142Y29547715D02*
X24227142Y29890572D01*
X24227142Y29890572D02*
X24169999Y30004858D01*
X24169999Y30004858D02*
X24112856Y30062000D01*
X24112856Y30062000D02*
X23998571Y30119143D01*
X23998571Y30119143D02*
X23769999Y30119143D01*
X23769999Y30119143D02*
X23655714Y30062000D01*
X22970000Y29319143D02*
X23084285Y29376286D01*
X23084285Y29376286D02*
X23141428Y29433429D01*
X23141428Y29433429D02*
X23198571Y29547715D01*
X23198571Y29547715D02*
X23198571Y29890572D01*
X23198571Y29890572D02*
X23141428Y30004858D01*
X23141428Y30004858D02*
X23084285Y30062000D01*
X23084285Y30062000D02*
X22970000Y30119143D01*
X22970000Y30119143D02*
X22798571Y30119143D01*
X22798571Y30119143D02*
X22684285Y30062000D01*
X22684285Y30062000D02*
X22627143Y30004858D01*
X22627143Y30004858D02*
X22570000Y29890572D01*
X22570000Y29890572D02*
X22570000Y29547715D01*
X22570000Y29547715D02*
X22627143Y29433429D01*
X22627143Y29433429D02*
X22684285Y29376286D01*
X22684285Y29376286D02*
X22798571Y29319143D01*
X22798571Y29319143D02*
X22970000Y29319143D01*
X22055714Y29319143D02*
X22055714Y30119143D01*
X22055714Y30004858D02*
X21998571Y30062000D01*
X21998571Y30062000D02*
X21884286Y30119143D01*
X21884286Y30119143D02*
X21712857Y30119143D01*
X21712857Y30119143D02*
X21598571Y30062000D01*
X21598571Y30062000D02*
X21541429Y29947715D01*
X21541429Y29947715D02*
X21541429Y29319143D01*
X21541429Y29947715D02*
X21484286Y30062000D01*
X21484286Y30062000D02*
X21370000Y30119143D01*
X21370000Y30119143D02*
X21198571Y30119143D01*
X21198571Y30119143D02*
X21084286Y30062000D01*
X21084286Y30062000D02*
X21027143Y29947715D01*
X21027143Y29947715D02*
X21027143Y29319143D01*
X19598571Y30576286D02*
X20627143Y29033429D01*
X39969997Y28175143D02*
X39969997Y27203715D01*
X39969997Y27203715D02*
X40027139Y27089429D01*
X40027139Y27089429D02*
X40084282Y27032286D01*
X40084282Y27032286D02*
X40198568Y26975143D01*
X40198568Y26975143D02*
X40369997Y26975143D01*
X40369997Y26975143D02*
X40484282Y27032286D01*
X39969997Y27432286D02*
X40084282Y27375143D01*
X40084282Y27375143D02*
X40312854Y27375143D01*
X40312854Y27375143D02*
X40427139Y27432286D01*
X40427139Y27432286D02*
X40484282Y27489429D01*
X40484282Y27489429D02*
X40541425Y27603715D01*
X40541425Y27603715D02*
X40541425Y27946572D01*
X40541425Y27946572D02*
X40484282Y28060858D01*
X40484282Y28060858D02*
X40427139Y28118000D01*
X40427139Y28118000D02*
X40312854Y28175143D01*
X40312854Y28175143D02*
X40084282Y28175143D01*
X40084282Y28175143D02*
X39969997Y28118000D01*
X39398568Y27375143D02*
X39398568Y28575143D01*
X38884283Y27375143D02*
X38884283Y28003715D01*
X38884283Y28003715D02*
X38941425Y28118000D01*
X38941425Y28118000D02*
X39055711Y28175143D01*
X39055711Y28175143D02*
X39227140Y28175143D01*
X39227140Y28175143D02*
X39341425Y28118000D01*
X39341425Y28118000D02*
X39398568Y28060858D01*
X37855711Y27432286D02*
X37969997Y27375143D01*
X37969997Y27375143D02*
X38198569Y27375143D01*
X38198569Y27375143D02*
X38312854Y27432286D01*
X38312854Y27432286D02*
X38369997Y27546572D01*
X38369997Y27546572D02*
X38369997Y28003715D01*
X38369997Y28003715D02*
X38312854Y28118000D01*
X38312854Y28118000D02*
X38198569Y28175143D01*
X38198569Y28175143D02*
X37969997Y28175143D01*
X37969997Y28175143D02*
X37855711Y28118000D01*
X37855711Y28118000D02*
X37798569Y28003715D01*
X37798569Y28003715D02*
X37798569Y27889429D01*
X37798569Y27889429D02*
X38369997Y27775143D01*
X37284283Y28175143D02*
X37284283Y27375143D01*
X37284283Y28060858D02*
X37227140Y28118000D01*
X37227140Y28118000D02*
X37112855Y28175143D01*
X37112855Y28175143D02*
X36941426Y28175143D01*
X36941426Y28175143D02*
X36827140Y28118000D01*
X36827140Y28118000D02*
X36769998Y28003715D01*
X36769998Y28003715D02*
X36769998Y27375143D01*
X36369998Y28175143D02*
X35912855Y28175143D01*
X36198569Y28575143D02*
X36198569Y27546572D01*
X36198569Y27546572D02*
X36141426Y27432286D01*
X36141426Y27432286D02*
X36027141Y27375143D01*
X36027141Y27375143D02*
X35912855Y27375143D01*
X35627141Y28575143D02*
X34884284Y28575143D01*
X34884284Y28575143D02*
X35284284Y28118000D01*
X35284284Y28118000D02*
X35112855Y28118000D01*
X35112855Y28118000D02*
X34998570Y28060858D01*
X34998570Y28060858D02*
X34941427Y28003715D01*
X34941427Y28003715D02*
X34884284Y27889429D01*
X34884284Y27889429D02*
X34884284Y27603715D01*
X34884284Y27603715D02*
X34941427Y27489429D01*
X34941427Y27489429D02*
X34998570Y27432286D01*
X34998570Y27432286D02*
X35112855Y27375143D01*
X35112855Y27375143D02*
X35455712Y27375143D01*
X35455712Y27375143D02*
X35569998Y27432286D01*
X35569998Y27432286D02*
X35627141Y27489429D01*
X33855713Y28575143D02*
X34084284Y28575143D01*
X34084284Y28575143D02*
X34198570Y28518000D01*
X34198570Y28518000D02*
X34255713Y28460858D01*
X34255713Y28460858D02*
X34369998Y28289429D01*
X34369998Y28289429D02*
X34427141Y28060858D01*
X34427141Y28060858D02*
X34427141Y27603715D01*
X34427141Y27603715D02*
X34369998Y27489429D01*
X34369998Y27489429D02*
X34312855Y27432286D01*
X34312855Y27432286D02*
X34198570Y27375143D01*
X34198570Y27375143D02*
X33969998Y27375143D01*
X33969998Y27375143D02*
X33855713Y27432286D01*
X33855713Y27432286D02*
X33798570Y27489429D01*
X33798570Y27489429D02*
X33741427Y27603715D01*
X33741427Y27603715D02*
X33741427Y27889429D01*
X33741427Y27889429D02*
X33798570Y28003715D01*
X33798570Y28003715D02*
X33855713Y28060858D01*
X33855713Y28060858D02*
X33969998Y28118000D01*
X33969998Y28118000D02*
X34198570Y28118000D01*
X34198570Y28118000D02*
X34312855Y28060858D01*
X34312855Y28060858D02*
X34369998Y28003715D01*
X34369998Y28003715D02*
X34427141Y27889429D01*
X32998570Y28575143D02*
X32884284Y28575143D01*
X32884284Y28575143D02*
X32769998Y28518000D01*
X32769998Y28518000D02*
X32712856Y28460858D01*
X32712856Y28460858D02*
X32655713Y28346572D01*
X32655713Y28346572D02*
X32598570Y28118000D01*
X32598570Y28118000D02*
X32598570Y27832286D01*
X32598570Y27832286D02*
X32655713Y27603715D01*
X32655713Y27603715D02*
X32712856Y27489429D01*
X32712856Y27489429D02*
X32769998Y27432286D01*
X32769998Y27432286D02*
X32884284Y27375143D01*
X32884284Y27375143D02*
X32998570Y27375143D01*
X32998570Y27375143D02*
X33112856Y27432286D01*
X33112856Y27432286D02*
X33169998Y27489429D01*
X33169998Y27489429D02*
X33227141Y27603715D01*
X33227141Y27603715D02*
X33284284Y27832286D01*
X33284284Y27832286D02*
X33284284Y28118000D01*
X33284284Y28118000D02*
X33227141Y28346572D01*
X33227141Y28346572D02*
X33169998Y28460858D01*
X33169998Y28460858D02*
X33112856Y28518000D01*
X33112856Y28518000D02*
X32998570Y28575143D01*
X31227141Y28632286D02*
X32255713Y27089429D01*
X30827141Y27375143D02*
X30827141Y28575143D01*
X30141427Y27375143D02*
X30655713Y28060858D01*
X30141427Y28575143D02*
X30827141Y27889429D01*
X29455713Y27375143D02*
X29569998Y27432286D01*
X29569998Y27432286D02*
X29627141Y27546572D01*
X29627141Y27546572D02*
X29627141Y28575143D01*
X28998570Y27375143D02*
X28998570Y28175143D01*
X28998570Y28575143D02*
X29055713Y28518000D01*
X29055713Y28518000D02*
X28998570Y28460858D01*
X28998570Y28460858D02*
X28941427Y28518000D01*
X28941427Y28518000D02*
X28998570Y28575143D01*
X28998570Y28575143D02*
X28998570Y28460858D01*
X28427141Y28175143D02*
X28427141Y26975143D01*
X28427141Y28118000D02*
X28312856Y28175143D01*
X28312856Y28175143D02*
X28084284Y28175143D01*
X28084284Y28175143D02*
X27969998Y28118000D01*
X27969998Y28118000D02*
X27912856Y28060858D01*
X27912856Y28060858D02*
X27855713Y27946572D01*
X27855713Y27946572D02*
X27855713Y27603715D01*
X27855713Y27603715D02*
X27912856Y27489429D01*
X27912856Y27489429D02*
X27969998Y27432286D01*
X27969998Y27432286D02*
X28084284Y27375143D01*
X28084284Y27375143D02*
X28312856Y27375143D01*
X28312856Y27375143D02*
X28427141Y27432286D01*
X27341427Y28175143D02*
X27341427Y26975143D01*
X27341427Y28118000D02*
X27227142Y28175143D01*
X27227142Y28175143D02*
X26998570Y28175143D01*
X26998570Y28175143D02*
X26884284Y28118000D01*
X26884284Y28118000D02*
X26827142Y28060858D01*
X26827142Y28060858D02*
X26769999Y27946572D01*
X26769999Y27946572D02*
X26769999Y27603715D01*
X26769999Y27603715D02*
X26827142Y27489429D01*
X26827142Y27489429D02*
X26884284Y27432286D01*
X26884284Y27432286D02*
X26998570Y27375143D01*
X26998570Y27375143D02*
X27227142Y27375143D01*
X27227142Y27375143D02*
X27341427Y27432286D01*
X25798570Y27432286D02*
X25912856Y27375143D01*
X25912856Y27375143D02*
X26141428Y27375143D01*
X26141428Y27375143D02*
X26255713Y27432286D01*
X26255713Y27432286D02*
X26312856Y27546572D01*
X26312856Y27546572D02*
X26312856Y28003715D01*
X26312856Y28003715D02*
X26255713Y28118000D01*
X26255713Y28118000D02*
X26141428Y28175143D01*
X26141428Y28175143D02*
X25912856Y28175143D01*
X25912856Y28175143D02*
X25798570Y28118000D01*
X25798570Y28118000D02*
X25741428Y28003715D01*
X25741428Y28003715D02*
X25741428Y27889429D01*
X25741428Y27889429D02*
X26312856Y27775143D01*
X25227142Y27375143D02*
X25227142Y28175143D01*
X25227142Y27946572D02*
X25169999Y28060858D01*
X25169999Y28060858D02*
X25112857Y28118000D01*
X25112857Y28118000D02*
X24998571Y28175143D01*
X24998571Y28175143D02*
X24884285Y28175143D01*
X24655714Y28575143D02*
X23970000Y28575143D01*
X24312857Y27375143D02*
X24312857Y28575143D01*
X23398571Y27375143D02*
X23512856Y27432286D01*
X23512856Y27432286D02*
X23569999Y27489429D01*
X23569999Y27489429D02*
X23627142Y27603715D01*
X23627142Y27603715D02*
X23627142Y27946572D01*
X23627142Y27946572D02*
X23569999Y28060858D01*
X23569999Y28060858D02*
X23512856Y28118000D01*
X23512856Y28118000D02*
X23398571Y28175143D01*
X23398571Y28175143D02*
X23227142Y28175143D01*
X23227142Y28175143D02*
X23112856Y28118000D01*
X23112856Y28118000D02*
X23055714Y28060858D01*
X23055714Y28060858D02*
X22998571Y27946572D01*
X22998571Y27946572D02*
X22998571Y27603715D01*
X22998571Y27603715D02*
X23055714Y27489429D01*
X23055714Y27489429D02*
X23112856Y27432286D01*
X23112856Y27432286D02*
X23227142Y27375143D01*
X23227142Y27375143D02*
X23398571Y27375143D01*
X22312857Y27375143D02*
X22427142Y27432286D01*
X22427142Y27432286D02*
X22484285Y27489429D01*
X22484285Y27489429D02*
X22541428Y27603715D01*
X22541428Y27603715D02*
X22541428Y27946572D01*
X22541428Y27946572D02*
X22484285Y28060858D01*
X22484285Y28060858D02*
X22427142Y28118000D01*
X22427142Y28118000D02*
X22312857Y28175143D01*
X22312857Y28175143D02*
X22141428Y28175143D01*
X22141428Y28175143D02*
X22027142Y28118000D01*
X22027142Y28118000D02*
X21970000Y28060858D01*
X21970000Y28060858D02*
X21912857Y27946572D01*
X21912857Y27946572D02*
X21912857Y27603715D01*
X21912857Y27603715D02*
X21970000Y27489429D01*
X21970000Y27489429D02*
X22027142Y27432286D01*
X22027142Y27432286D02*
X22141428Y27375143D01*
X22141428Y27375143D02*
X22312857Y27375143D01*
X21227143Y27375143D02*
X21341428Y27432286D01*
X21341428Y27432286D02*
X21398571Y27546572D01*
X21398571Y27546572D02*
X21398571Y28575143D01*
X20770000Y27375143D02*
X20770000Y28575143D01*
X20770000Y28118000D02*
X20655715Y28175143D01*
X20655715Y28175143D02*
X20427143Y28175143D01*
X20427143Y28175143D02*
X20312857Y28118000D01*
X20312857Y28118000D02*
X20255715Y28060858D01*
X20255715Y28060858D02*
X20198572Y27946572D01*
X20198572Y27946572D02*
X20198572Y27603715D01*
X20198572Y27603715D02*
X20255715Y27489429D01*
X20255715Y27489429D02*
X20312857Y27432286D01*
X20312857Y27432286D02*
X20427143Y27375143D01*
X20427143Y27375143D02*
X20655715Y27375143D01*
X20655715Y27375143D02*
X20770000Y27432286D01*
X19512858Y27375143D02*
X19627143Y27432286D01*
X19627143Y27432286D02*
X19684286Y27489429D01*
X19684286Y27489429D02*
X19741429Y27603715D01*
X19741429Y27603715D02*
X19741429Y27946572D01*
X19741429Y27946572D02*
X19684286Y28060858D01*
X19684286Y28060858D02*
X19627143Y28118000D01*
X19627143Y28118000D02*
X19512858Y28175143D01*
X19512858Y28175143D02*
X19341429Y28175143D01*
X19341429Y28175143D02*
X19227143Y28118000D01*
X19227143Y28118000D02*
X19170001Y28060858D01*
X19170001Y28060858D02*
X19112858Y27946572D01*
X19112858Y27946572D02*
X19112858Y27603715D01*
X19112858Y27603715D02*
X19170001Y27489429D01*
X19170001Y27489429D02*
X19227143Y27432286D01*
X19227143Y27432286D02*
X19341429Y27375143D01*
X19341429Y27375143D02*
X19512858Y27375143D01*
X18084287Y27375143D02*
X18084287Y28003715D01*
X18084287Y28003715D02*
X18141429Y28118000D01*
X18141429Y28118000D02*
X18255715Y28175143D01*
X18255715Y28175143D02*
X18484287Y28175143D01*
X18484287Y28175143D02*
X18598572Y28118000D01*
X18084287Y27432286D02*
X18198572Y27375143D01*
X18198572Y27375143D02*
X18484287Y27375143D01*
X18484287Y27375143D02*
X18598572Y27432286D01*
X18598572Y27432286D02*
X18655715Y27546572D01*
X18655715Y27546572D02*
X18655715Y27660858D01*
X18655715Y27660858D02*
X18598572Y27775143D01*
X18598572Y27775143D02*
X18484287Y27832286D01*
X18484287Y27832286D02*
X18198572Y27832286D01*
X18198572Y27832286D02*
X18084287Y27889429D01*
X17512858Y27375143D02*
X17512858Y28175143D01*
X17512858Y27946572D02*
X17455715Y28060858D01*
X17455715Y28060858D02*
X17398573Y28118000D01*
X17398573Y28118000D02*
X17284287Y28175143D01*
X17284287Y28175143D02*
X17170001Y28175143D01*
X16255716Y27375143D02*
X16255716Y28575143D01*
X16255716Y27432286D02*
X16370001Y27375143D01*
X16370001Y27375143D02*
X16598573Y27375143D01*
X16598573Y27375143D02*
X16712858Y27432286D01*
X16712858Y27432286D02*
X16770001Y27489429D01*
X16770001Y27489429D02*
X16827144Y27603715D01*
X16827144Y27603715D02*
X16827144Y27946572D01*
X16827144Y27946572D02*
X16770001Y28060858D01*
X16770001Y28060858D02*
X16712858Y28118000D01*
X16712858Y28118000D02*
X16598573Y28175143D01*
X16598573Y28175143D02*
X16370001Y28175143D01*
X16370001Y28175143D02*
X16255716Y28118000D01*
D10*
X11609999Y29618572D02*
X11609999Y30218572D01*
X11143333Y30218572D02*
X11009999Y30218572D01*
X11009999Y30218572D02*
X10943333Y30190000D01*
X10943333Y30190000D02*
X10876666Y30132858D01*
X10876666Y30132858D02*
X10843333Y30018572D01*
X10843333Y30018572D02*
X10843333Y29818572D01*
X10843333Y29818572D02*
X10876666Y29704286D01*
X10876666Y29704286D02*
X10943333Y29647143D01*
X10943333Y29647143D02*
X11009999Y29618572D01*
X11009999Y29618572D02*
X11143333Y29618572D01*
X11143333Y29618572D02*
X11209999Y29647143D01*
X11209999Y29647143D02*
X11276666Y29704286D01*
X11276666Y29704286D02*
X11309999Y29818572D01*
X11309999Y29818572D02*
X11309999Y30018572D01*
X11309999Y30018572D02*
X11276666Y30132858D01*
X11276666Y30132858D02*
X11209999Y30190000D01*
X11209999Y30190000D02*
X11143333Y30218572D01*
X10243333Y30018572D02*
X10243333Y29618572D01*
X10410000Y30247143D02*
X10576666Y29818572D01*
X10576666Y29818572D02*
X10143333Y29818572D01*
D11*
X4210476Y12410000D02*
X4286666Y12448096D01*
X4286666Y12448096D02*
X4400952Y12448096D01*
X4400952Y12448096D02*
X4515238Y12410000D01*
X4515238Y12410000D02*
X4591428Y12333810D01*
X4591428Y12333810D02*
X4629523Y12257620D01*
X4629523Y12257620D02*
X4667619Y12105239D01*
X4667619Y12105239D02*
X4667619Y11990953D01*
X4667619Y11990953D02*
X4629523Y11838572D01*
X4629523Y11838572D02*
X4591428Y11762381D01*
X4591428Y11762381D02*
X4515238Y11686191D01*
X4515238Y11686191D02*
X4400952Y11648096D01*
X4400952Y11648096D02*
X4324761Y11648096D01*
X4324761Y11648096D02*
X4210476Y11686191D01*
X4210476Y11686191D02*
X4172380Y11724286D01*
X4172380Y11724286D02*
X4172380Y11990953D01*
X4172380Y11990953D02*
X4324761Y11990953D01*
X5529047Y11238096D02*
X5262380Y10438096D01*
X5262380Y10438096D02*
X4995714Y11238096D01*
X4729047Y10438096D02*
X4729047Y10971429D01*
X4729047Y11238096D02*
X4767143Y11200000D01*
X4767143Y11200000D02*
X4729047Y11161905D01*
X4729047Y11161905D02*
X4690952Y11200000D01*
X4690952Y11200000D02*
X4729047Y11238096D01*
X4729047Y11238096D02*
X4729047Y11161905D01*
X4348095Y10971429D02*
X4348095Y10438096D01*
X4348095Y10895239D02*
X4310000Y10933334D01*
X4310000Y10933334D02*
X4233810Y10971429D01*
X4233810Y10971429D02*
X4119524Y10971429D01*
X4119524Y10971429D02*
X4043333Y10933334D01*
X4043333Y10933334D02*
X4005238Y10857143D01*
X4005238Y10857143D02*
X4005238Y10438096D01*
D10*
X7053332Y26460000D02*
X7119999Y26488572D01*
X7119999Y26488572D02*
X7219999Y26488572D01*
X7219999Y26488572D02*
X7319999Y26460000D01*
X7319999Y26460000D02*
X7386666Y26402858D01*
X7386666Y26402858D02*
X7419999Y26345715D01*
X7419999Y26345715D02*
X7453332Y26231429D01*
X7453332Y26231429D02*
X7453332Y26145715D01*
X7453332Y26145715D02*
X7419999Y26031429D01*
X7419999Y26031429D02*
X7386666Y25974286D01*
X7386666Y25974286D02*
X7319999Y25917143D01*
X7319999Y25917143D02*
X7219999Y25888572D01*
X7219999Y25888572D02*
X7153332Y25888572D01*
X7153332Y25888572D02*
X7053332Y25917143D01*
X7053332Y25917143D02*
X7019999Y25945715D01*
X7019999Y25945715D02*
X7019999Y26145715D01*
X7019999Y26145715D02*
X7153332Y26145715D01*
X6719999Y25888572D02*
X6719999Y26488572D01*
X6719999Y26488572D02*
X6319999Y25888572D01*
X6319999Y25888572D02*
X6319999Y26488572D01*
X5986666Y25888572D02*
X5986666Y26488572D01*
X5986666Y26488572D02*
X5819999Y26488572D01*
X5819999Y26488572D02*
X5719999Y26460000D01*
X5719999Y26460000D02*
X5653333Y26402858D01*
X5653333Y26402858D02*
X5619999Y26345715D01*
X5619999Y26345715D02*
X5586666Y26231429D01*
X5586666Y26231429D02*
X5586666Y26145715D01*
X5586666Y26145715D02*
X5619999Y26031429D01*
X5619999Y26031429D02*
X5653333Y25974286D01*
X5653333Y25974286D02*
X5719999Y25917143D01*
X5719999Y25917143D02*
X5819999Y25888572D01*
X5819999Y25888572D02*
X5986666Y25888572D01*
X7429999Y27338572D02*
X7429999Y27938572D01*
X6963333Y27938572D02*
X6829999Y27938572D01*
X6829999Y27938572D02*
X6763333Y27910000D01*
X6763333Y27910000D02*
X6696666Y27852858D01*
X6696666Y27852858D02*
X6663333Y27738572D01*
X6663333Y27738572D02*
X6663333Y27538572D01*
X6663333Y27538572D02*
X6696666Y27424286D01*
X6696666Y27424286D02*
X6763333Y27367143D01*
X6763333Y27367143D02*
X6829999Y27338572D01*
X6829999Y27338572D02*
X6963333Y27338572D01*
X6963333Y27338572D02*
X7029999Y27367143D01*
X7029999Y27367143D02*
X7096666Y27424286D01*
X7096666Y27424286D02*
X7129999Y27538572D01*
X7129999Y27538572D02*
X7129999Y27738572D01*
X7129999Y27738572D02*
X7096666Y27852858D01*
X7096666Y27852858D02*
X7029999Y27910000D01*
X7029999Y27910000D02*
X6963333Y27938572D01*
X6063333Y27938572D02*
X6196666Y27938572D01*
X6196666Y27938572D02*
X6263333Y27910000D01*
X6263333Y27910000D02*
X6296666Y27881429D01*
X6296666Y27881429D02*
X6363333Y27795715D01*
X6363333Y27795715D02*
X6396666Y27681429D01*
X6396666Y27681429D02*
X6396666Y27452858D01*
X6396666Y27452858D02*
X6363333Y27395715D01*
X6363333Y27395715D02*
X6330000Y27367143D01*
X6330000Y27367143D02*
X6263333Y27338572D01*
X6263333Y27338572D02*
X6130000Y27338572D01*
X6130000Y27338572D02*
X6063333Y27367143D01*
X6063333Y27367143D02*
X6030000Y27395715D01*
X6030000Y27395715D02*
X5996666Y27452858D01*
X5996666Y27452858D02*
X5996666Y27595715D01*
X5996666Y27595715D02*
X6030000Y27652858D01*
X6030000Y27652858D02*
X6063333Y27681429D01*
X6063333Y27681429D02*
X6130000Y27710000D01*
X6130000Y27710000D02*
X6263333Y27710000D01*
X6263333Y27710000D02*
X6330000Y27681429D01*
X6330000Y27681429D02*
X6363333Y27652858D01*
X6363333Y27652858D02*
X6396666Y27595715D01*
D11*
X5259524Y15496191D02*
X5145238Y15458096D01*
X5145238Y15458096D02*
X4954762Y15458096D01*
X4954762Y15458096D02*
X4878571Y15496191D01*
X4878571Y15496191D02*
X4840476Y15534286D01*
X4840476Y15534286D02*
X4802381Y15610477D01*
X4802381Y15610477D02*
X4802381Y15686667D01*
X4802381Y15686667D02*
X4840476Y15762858D01*
X4840476Y15762858D02*
X4878571Y15800953D01*
X4878571Y15800953D02*
X4954762Y15839048D01*
X4954762Y15839048D02*
X5107143Y15877143D01*
X5107143Y15877143D02*
X5183333Y15915239D01*
X5183333Y15915239D02*
X5221428Y15953334D01*
X5221428Y15953334D02*
X5259524Y16029524D01*
X5259524Y16029524D02*
X5259524Y16105715D01*
X5259524Y16105715D02*
X5221428Y16181905D01*
X5221428Y16181905D02*
X5183333Y16220000D01*
X5183333Y16220000D02*
X5107143Y16258096D01*
X5107143Y16258096D02*
X4916666Y16258096D01*
X4916666Y16258096D02*
X4802381Y16220000D01*
X4497619Y16181905D02*
X4459523Y16220000D01*
X4459523Y16220000D02*
X4383333Y16258096D01*
X4383333Y16258096D02*
X4192857Y16258096D01*
X4192857Y16258096D02*
X4116666Y16220000D01*
X4116666Y16220000D02*
X4078571Y16181905D01*
X4078571Y16181905D02*
X4040476Y16105715D01*
X4040476Y16105715D02*
X4040476Y16029524D01*
X4040476Y16029524D02*
X4078571Y15915239D01*
X4078571Y15915239D02*
X4535714Y15458096D01*
X4535714Y15458096D02*
X4040476Y15458096D01*
X17323808Y36897620D02*
X16990475Y35897620D01*
X16990475Y35897620D02*
X16657142Y36897620D01*
X16323808Y35897620D02*
X16323808Y36564286D01*
X16323808Y36897620D02*
X16371427Y36850000D01*
X16371427Y36850000D02*
X16323808Y36802381D01*
X16323808Y36802381D02*
X16276189Y36850000D01*
X16276189Y36850000D02*
X16323808Y36897620D01*
X16323808Y36897620D02*
X16323808Y36802381D01*
X15847618Y36564286D02*
X15847618Y35897620D01*
X15847618Y36469048D02*
X15799999Y36516667D01*
X15799999Y36516667D02*
X15704761Y36564286D01*
X15704761Y36564286D02*
X15561904Y36564286D01*
X15561904Y36564286D02*
X15466666Y36516667D01*
X15466666Y36516667D02*
X15419047Y36421429D01*
X15419047Y36421429D02*
X15419047Y35897620D01*
X13980951Y29347620D02*
X13980951Y30347620D01*
X13980951Y30347620D02*
X13742856Y30347620D01*
X13742856Y30347620D02*
X13599999Y30300000D01*
X13599999Y30300000D02*
X13504761Y30204762D01*
X13504761Y30204762D02*
X13457142Y30109524D01*
X13457142Y30109524D02*
X13409523Y29919048D01*
X13409523Y29919048D02*
X13409523Y29776191D01*
X13409523Y29776191D02*
X13457142Y29585715D01*
X13457142Y29585715D02*
X13504761Y29490477D01*
X13504761Y29490477D02*
X13599999Y29395239D01*
X13599999Y29395239D02*
X13742856Y29347620D01*
X13742856Y29347620D02*
X13980951Y29347620D01*
X12980951Y29728572D02*
X12219047Y29728572D01*
X12599999Y29347620D02*
X12599999Y30109524D01*
D13*
X21609386Y12298669D02*
X21525565Y11854045D01*
X21525565Y11854045D02*
X21216280Y11726547D01*
X21216280Y11726547D02*
X20906994Y11599049D01*
X20906994Y11599049D02*
X20535954Y11851354D01*
X20535954Y11851354D02*
X20432043Y11921604D01*
X20432043Y11921604D02*
X20338113Y11984328D01*
X20338113Y11984328D02*
X20258548Y12036662D01*
X20258548Y12036662D02*
X20197730Y12075743D01*
X20197730Y12075743D02*
X20160043Y12098707D01*
X20160043Y12098707D02*
X20149779Y12103658D01*
X20149779Y12103658D02*
X20131290Y12090924D01*
X20131290Y12090924D02*
X20091780Y12055718D01*
X20091780Y12055718D02*
X20035678Y12002538D01*
X20035678Y12002538D02*
X19967413Y11935882D01*
X19967413Y11935882D02*
X19891414Y11860246D01*
X19891414Y11860246D02*
X19812108Y11780128D01*
X19812108Y11780128D02*
X19733925Y11700026D01*
X19733925Y11700026D02*
X19661293Y11624436D01*
X19661293Y11624436D02*
X19598641Y11557855D01*
X19598641Y11557855D02*
X19550397Y11504782D01*
X19550397Y11504782D02*
X19520990Y11469713D01*
X19520990Y11469713D02*
X19513959Y11457977D01*
X19513959Y11457977D02*
X19524077Y11436340D01*
X19524077Y11436340D02*
X19552441Y11388938D01*
X19552441Y11388938D02*
X19596071Y11320407D01*
X19596071Y11320407D02*
X19651982Y11235385D01*
X19651982Y11235385D02*
X19717194Y11138507D01*
X19717194Y11138507D02*
X19754981Y11083250D01*
X19754981Y11083250D02*
X19823857Y10982352D01*
X19823857Y10982352D02*
X19885060Y10891301D01*
X19885060Y10891301D02*
X19935622Y10814630D01*
X19935622Y10814630D02*
X19972572Y10756872D01*
X19972572Y10756872D02*
X19992942Y10722557D01*
X19992942Y10722557D02*
X19996003Y10715346D01*
X19996003Y10715346D02*
X19989064Y10694852D01*
X19989064Y10694852D02*
X19970149Y10647087D01*
X19970149Y10647087D02*
X19942113Y10578768D01*
X19942113Y10578768D02*
X19907809Y10496611D01*
X19907809Y10496611D02*
X19870091Y10407330D01*
X19870091Y10407330D02*
X19831813Y10317642D01*
X19831813Y10317642D02*
X19795830Y10234262D01*
X19795830Y10234262D02*
X19764994Y10163906D01*
X19764994Y10163906D02*
X19742161Y10113290D01*
X19742161Y10113290D02*
X19730183Y10089129D01*
X19730183Y10089129D02*
X19729476Y10088178D01*
X19729476Y10088178D02*
X19710669Y10083564D01*
X19710669Y10083564D02*
X19660582Y10073272D01*
X19660582Y10073272D02*
X19584407Y10058313D01*
X19584407Y10058313D02*
X19487335Y10039699D01*
X19487335Y10039699D02*
X19374557Y10018441D01*
X19374557Y10018441D02*
X19308758Y10006182D01*
X19308758Y10006182D02*
X19188250Y9983238D01*
X19188250Y9983238D02*
X19079403Y9961405D01*
X19079403Y9961405D02*
X18987724Y9941878D01*
X18987724Y9941878D02*
X18918719Y9925852D01*
X18918719Y9925852D02*
X18877896Y9914521D01*
X18877896Y9914521D02*
X18869689Y9910926D01*
X18869689Y9910926D02*
X18861652Y9886594D01*
X18861652Y9886594D02*
X18855167Y9831641D01*
X18855167Y9831641D02*
X18850230Y9752492D01*
X18850230Y9752492D02*
X18846836Y9655574D01*
X18846836Y9655574D02*
X18844982Y9547313D01*
X18844982Y9547313D02*
X18844662Y9434135D01*
X18844662Y9434135D02*
X18845873Y9322465D01*
X18845873Y9322465D02*
X18848610Y9218732D01*
X18848610Y9218732D02*
X18852869Y9129359D01*
X18852869Y9129359D02*
X18858645Y9060774D01*
X18858645Y9060774D02*
X18865933Y9019403D01*
X18865933Y9019403D02*
X18870305Y9010790D01*
X18870305Y9010790D02*
X18896436Y9000467D01*
X18896436Y9000467D02*
X18951807Y8985708D01*
X18951807Y8985708D02*
X19029093Y8968248D01*
X19029093Y8968248D02*
X19120970Y8949820D01*
X19120970Y8949820D02*
X19153042Y8943859D01*
X19153042Y8943859D02*
X19307676Y8915534D01*
X19307676Y8915534D02*
X19429825Y8892724D01*
X19429825Y8892724D02*
X19523527Y8874520D01*
X19523527Y8874520D02*
X19592816Y8860017D01*
X19592816Y8860017D02*
X19641729Y8848308D01*
X19641729Y8848308D02*
X19674303Y8838485D01*
X19674303Y8838485D02*
X19694572Y8829644D01*
X19694572Y8829644D02*
X19706574Y8820876D01*
X19706574Y8820876D02*
X19708253Y8819143D01*
X19708253Y8819143D02*
X19725016Y8791229D01*
X19725016Y8791229D02*
X19750586Y8736905D01*
X19750586Y8736905D02*
X19782412Y8662823D01*
X19782412Y8662823D02*
X19817940Y8575635D01*
X19817940Y8575635D02*
X19854617Y8481992D01*
X19854617Y8481992D02*
X19889889Y8388548D01*
X19889889Y8388548D02*
X19921204Y8301953D01*
X19921204Y8301953D02*
X19946007Y8228860D01*
X19946007Y8228860D02*
X19961746Y8175922D01*
X19961746Y8175922D02*
X19965868Y8149789D01*
X19965868Y8149789D02*
X19965524Y8148874D01*
X19965524Y8148874D02*
X19951559Y8127514D01*
X19951559Y8127514D02*
X19919878Y8080516D01*
X19919878Y8080516D02*
X19873809Y8012773D01*
X19873809Y8012773D02*
X19816682Y7929177D01*
X19816682Y7929177D02*
X19751827Y7834618D01*
X19751827Y7834618D02*
X19733357Y7807746D01*
X19733357Y7807746D02*
X19667501Y7710325D01*
X19667501Y7710325D02*
X19609550Y7621437D01*
X19609550Y7621437D02*
X19562662Y7546188D01*
X19562662Y7546188D02*
X19529993Y7489680D01*
X19529993Y7489680D02*
X19514700Y7457019D01*
X19514700Y7457019D02*
X19513959Y7453007D01*
X19513959Y7453007D02*
X19526808Y7431916D01*
X19526808Y7431916D02*
X19562312Y7390136D01*
X19562312Y7390136D02*
X19615907Y7332155D01*
X19615907Y7332155D02*
X19683029Y7262465D01*
X19683029Y7262465D02*
X19759113Y7185555D01*
X19759113Y7185555D02*
X19839596Y7105917D01*
X19839596Y7105917D02*
X19919913Y7028039D01*
X19919913Y7028039D02*
X19995501Y6956414D01*
X19995501Y6956414D02*
X20061795Y6895530D01*
X20061795Y6895530D02*
X20114231Y6849879D01*
X20114231Y6849879D02*
X20148245Y6823950D01*
X20148245Y6823950D02*
X20157655Y6819717D01*
X20157655Y6819717D02*
X20179557Y6829688D01*
X20179557Y6829688D02*
X20224400Y6856580D01*
X20224400Y6856580D02*
X20284879Y6895864D01*
X20284879Y6895864D02*
X20331411Y6927483D01*
X20331411Y6927483D02*
X20415725Y6985502D01*
X20415725Y6985502D02*
X20515574Y7053816D01*
X20515574Y7053816D02*
X20615727Y7122021D01*
X20615727Y7122021D02*
X20669573Y7158525D01*
X20669573Y7158525D02*
X20851829Y7281800D01*
X20851829Y7281800D02*
X21004819Y7199080D01*
X21004819Y7199080D02*
X21074518Y7162841D01*
X21074518Y7162841D02*
X21133786Y7134674D01*
X21133786Y7134674D02*
X21173889Y7118609D01*
X21173889Y7118609D02*
X21184097Y7116374D01*
X21184097Y7116374D02*
X21196371Y7132878D01*
X21196371Y7132878D02*
X21220587Y7179518D01*
X21220587Y7179518D02*
X21254937Y7251991D01*
X21254937Y7251991D02*
X21297612Y7345994D01*
X21297612Y7345994D02*
X21346806Y7457226D01*
X21346806Y7457226D02*
X21400710Y7581385D01*
X21400710Y7581385D02*
X21457516Y7714168D01*
X21457516Y7714168D02*
X21515418Y7851273D01*
X21515418Y7851273D02*
X21572607Y7988398D01*
X21572607Y7988398D02*
X21627276Y8121242D01*
X21627276Y8121242D02*
X21677616Y8245502D01*
X21677616Y8245502D02*
X21721820Y8356875D01*
X21721820Y8356875D02*
X21758081Y8451061D01*
X21758081Y8451061D02*
X21784591Y8523756D01*
X21784591Y8523756D02*
X21799542Y8570659D01*
X21799542Y8570659D02*
X21801946Y8586767D01*
X21801946Y8586767D02*
X21782889Y8607314D01*
X21782889Y8607314D02*
X21741164Y8640667D01*
X21741164Y8640667D02*
X21685494Y8679898D01*
X21685494Y8679898D02*
X21680822Y8683001D01*
X21680822Y8683001D02*
X21536936Y8798177D01*
X21536936Y8798177D02*
X21420917Y8932547D01*
X21420917Y8932547D02*
X21333770Y9081816D01*
X21333770Y9081816D02*
X21276501Y9241687D01*
X21276501Y9241687D02*
X21250114Y9407863D01*
X21250114Y9407863D02*
X21255615Y9576048D01*
X21255615Y9576048D02*
X21294010Y9741945D01*
X21294010Y9741945D02*
X21366305Y9901258D01*
X21366305Y9901258D02*
X21387574Y9936113D01*
X21387574Y9936113D02*
X21498204Y10076863D01*
X21498204Y10076863D02*
X21628898Y10189886D01*
X21628898Y10189886D02*
X21775136Y10274597D01*
X21775136Y10274597D02*
X21932392Y10330406D01*
X21932392Y10330406D02*
X22096143Y10356726D01*
X22096143Y10356726D02*
X22261867Y10352970D01*
X22261867Y10352970D02*
X22425038Y10318550D01*
X22425038Y10318550D02*
X22581135Y10252877D01*
X22581135Y10252877D02*
X22725633Y10155365D01*
X22725633Y10155365D02*
X22770331Y10115787D01*
X22770331Y10115787D02*
X22884088Y9991897D01*
X22884088Y9991897D02*
X22966982Y9861476D01*
X22966982Y9861476D02*
X23023844Y9715285D01*
X23023844Y9715285D02*
X23055513Y9570512D01*
X23055513Y9570512D02*
X23063331Y9407740D01*
X23063331Y9407740D02*
X23037262Y9244160D01*
X23037262Y9244160D02*
X22979955Y9085302D01*
X22979955Y9085302D02*
X22894056Y8936694D01*
X22894056Y8936694D02*
X22782214Y8803865D01*
X22782214Y8803865D02*
X22647077Y8692344D01*
X22647077Y8692344D02*
X22629317Y8680589D01*
X22629317Y8680589D02*
X22573050Y8642092D01*
X22573050Y8642092D02*
X22530277Y8608737D01*
X22530277Y8608737D02*
X22509828Y8587440D01*
X22509828Y8587440D02*
X22509531Y8586767D01*
X22509531Y8586767D02*
X22513921Y8563729D01*
X22513921Y8563729D02*
X22531324Y8511443D01*
X22531324Y8511443D02*
X22559932Y8434210D01*
X22559932Y8434210D02*
X22597935Y8336332D01*
X22597935Y8336332D02*
X22643526Y8222109D01*
X22643526Y8222109D02*
X22694897Y8095842D01*
X22694897Y8095842D02*
X22750238Y7961833D01*
X22750238Y7961833D02*
X22807742Y7824382D01*
X22807742Y7824382D02*
X22865599Y7687792D01*
X22865599Y7687792D02*
X22922002Y7556363D01*
X22922002Y7556363D02*
X22975142Y7434395D01*
X22975142Y7434395D02*
X23023210Y7326191D01*
X23023210Y7326191D02*
X23064399Y7236051D01*
X23064399Y7236051D02*
X23096899Y7168277D01*
X23096899Y7168277D02*
X23118903Y7127170D01*
X23118903Y7127170D02*
X23127764Y7116374D01*
X23127764Y7116374D02*
X23154840Y7124781D01*
X23154840Y7124781D02*
X23205503Y7147328D01*
X23205503Y7147328D02*
X23271017Y7179987D01*
X23271017Y7179987D02*
X23307041Y7199080D01*
X23307041Y7199080D02*
X23460032Y7281800D01*
X23460032Y7281800D02*
X23642288Y7158525D01*
X23642288Y7158525D02*
X23735325Y7095372D01*
X23735325Y7095372D02*
X23837185Y7025873D01*
X23837185Y7025873D02*
X23932638Y6960435D01*
X23932638Y6960435D02*
X23980450Y6927483D01*
X23980450Y6927483D02*
X24047695Y6882327D01*
X24047695Y6882327D02*
X24104636Y6846543D01*
X24104636Y6846543D02*
X24143846Y6824662D01*
X24143846Y6824662D02*
X24156581Y6820037D01*
X24156581Y6820037D02*
X24175117Y6832515D01*
X24175117Y6832515D02*
X24216141Y6867348D01*
X24216141Y6867348D02*
X24275675Y6920922D01*
X24275675Y6920922D02*
X24349742Y6989617D01*
X24349742Y6989617D02*
X24434365Y7069819D01*
X24434365Y7069819D02*
X24487885Y7121314D01*
X24487885Y7121314D02*
X24581519Y7213314D01*
X24581519Y7213314D02*
X24662441Y7295601D01*
X24662441Y7295601D02*
X24727377Y7364655D01*
X24727377Y7364655D02*
X24773058Y7416956D01*
X24773058Y7416956D02*
X24796211Y7448984D01*
X24796211Y7448984D02*
X24798432Y7455484D01*
X24798432Y7455484D02*
X24788124Y7480206D01*
X24788124Y7480206D02*
X24759639Y7530195D01*
X24759639Y7530195D02*
X24716137Y7600388D01*
X24716137Y7600388D02*
X24660777Y7685725D01*
X24660777Y7685725D02*
X24596720Y7781144D01*
X24596720Y7781144D02*
X24578503Y7807746D01*
X24578503Y7807746D02*
X24512127Y7904433D01*
X24512127Y7904433D02*
X24452578Y7991483D01*
X24452578Y7991483D02*
X24403184Y8064005D01*
X24403184Y8064005D02*
X24367275Y8117107D01*
X24367275Y8117107D02*
X24348181Y8145897D01*
X24348181Y8145897D02*
X24346336Y8148874D01*
X24346336Y8148874D02*
X24349095Y8171818D01*
X24349095Y8171818D02*
X24363738Y8222264D01*
X24363738Y8222264D02*
X24387713Y8293559D01*
X24387713Y8293559D02*
X24418466Y8379053D01*
X24418466Y8379053D02*
X24453444Y8472093D01*
X24453444Y8472093D02*
X24490093Y8566026D01*
X24490093Y8566026D02*
X24525861Y8654201D01*
X24525861Y8654201D02*
X24558194Y8729966D01*
X24558194Y8729966D02*
X24584538Y8786669D01*
X24584538Y8786669D02*
X24602342Y8817657D01*
X24602342Y8817657D02*
X24603607Y8819143D01*
X24603607Y8819143D02*
X24614494Y8827999D01*
X24614494Y8827999D02*
X24632882Y8836757D01*
X24632882Y8836757D02*
X24662806Y8846323D01*
X24662806Y8846323D02*
X24708303Y8857604D01*
X24708303Y8857604D02*
X24773409Y8871507D01*
X24773409Y8871507D02*
X24862161Y8888937D01*
X24862161Y8888937D02*
X24978593Y8910802D01*
X24978593Y8910802D02*
X25126742Y8938009D01*
X25126742Y8938009D02*
X25158818Y8943859D01*
X25158818Y8943859D02*
X25253886Y8962226D01*
X25253886Y8962226D02*
X25336765Y8980195D01*
X25336765Y8980195D02*
X25400130Y8996031D01*
X25400130Y8996031D02*
X25436658Y9008000D01*
X25436658Y9008000D02*
X25441556Y9010790D01*
X25441556Y9010790D02*
X25449627Y9035528D01*
X25449627Y9035528D02*
X25456187Y9090810D01*
X25456187Y9090810D02*
X25461233Y9170211D01*
X25461233Y9170211D02*
X25464759Y9267304D01*
X25464759Y9267304D02*
X25466761Y9375662D01*
X25466761Y9375662D02*
X25467236Y9488860D01*
X25467236Y9488860D02*
X25466177Y9600472D01*
X25466177Y9600472D02*
X25463582Y9704071D01*
X25463582Y9704071D02*
X25459446Y9793232D01*
X25459446Y9793232D02*
X25453763Y9861528D01*
X25453763Y9861528D02*
X25446531Y9902534D01*
X25446531Y9902534D02*
X25442171Y9910926D01*
X25442171Y9910926D02*
X25417898Y9919392D01*
X25417898Y9919392D02*
X25362626Y9933165D01*
X25362626Y9933165D02*
X25281862Y9951050D01*
X25281862Y9951050D02*
X25181112Y9971852D01*
X25181112Y9971852D02*
X25065883Y9994377D01*
X25065883Y9994377D02*
X25003102Y10006182D01*
X25003102Y10006182D02*
X24883987Y10028449D01*
X24883987Y10028449D02*
X24777765Y10048621D01*
X24777765Y10048621D02*
X24689627Y10065685D01*
X24689627Y10065685D02*
X24624766Y10078631D01*
X24624766Y10078631D02*
X24588374Y10086445D01*
X24588374Y10086445D02*
X24582384Y10088178D01*
X24582384Y10088178D02*
X24572261Y10107710D01*
X24572261Y10107710D02*
X24550862Y10154757D01*
X24550862Y10154757D02*
X24521039Y10222597D01*
X24521039Y10222597D02*
X24485645Y10304509D01*
X24485645Y10304509D02*
X24447532Y10393772D01*
X24447532Y10393772D02*
X24409553Y10483665D01*
X24409553Y10483665D02*
X24374560Y10567465D01*
X24374560Y10567465D02*
X24345406Y10638453D01*
X24345406Y10638453D02*
X24324943Y10689906D01*
X24324943Y10689906D02*
X24316023Y10715103D01*
X24316023Y10715103D02*
X24315857Y10716204D01*
X24315857Y10716204D02*
X24325969Y10736081D01*
X24325969Y10736081D02*
X24354317Y10781823D01*
X24354317Y10781823D02*
X24397923Y10848883D01*
X24397923Y10848883D02*
X24453806Y10932716D01*
X24453806Y10932716D02*
X24518987Y11028774D01*
X24518987Y11028774D02*
X24556879Y11083950D01*
X24556879Y11083950D02*
X24625925Y11185119D01*
X24625925Y11185119D02*
X24687250Y11276970D01*
X24687250Y11276970D02*
X24737863Y11354856D01*
X24737863Y11354856D02*
X24774771Y11414131D01*
X24774771Y11414131D02*
X24794982Y11450149D01*
X24794982Y11450149D02*
X24797901Y11458223D01*
X24797901Y11458223D02*
X24785353Y11477016D01*
X24785353Y11477016D02*
X24750663Y11517143D01*
X24750663Y11517143D02*
X24698263Y11574107D01*
X24698263Y11574107D02*
X24632584Y11643415D01*
X24632584Y11643415D02*
X24558056Y11720569D01*
X24558056Y11720569D02*
X24479113Y11801075D01*
X24479113Y11801075D02*
X24400183Y11880437D01*
X24400183Y11880437D02*
X24325700Y11954160D01*
X24325700Y11954160D02*
X24260094Y12017748D01*
X24260094Y12017748D02*
X24207796Y12066706D01*
X24207796Y12066706D02*
X24173239Y12096539D01*
X24173239Y12096539D02*
X24161678Y12103658D01*
X24161678Y12103658D02*
X24142854Y12093647D01*
X24142854Y12093647D02*
X24097831Y12065522D01*
X24097831Y12065522D02*
X24030987Y12022146D01*
X24030987Y12022146D02*
X23946699Y11966382D01*
X23946699Y11966382D02*
X23849344Y11901094D01*
X23849344Y11901094D02*
X23775907Y11851354D01*
X23775907Y11851354D02*
X23404867Y11599049D01*
X23404867Y11599049D02*
X22786295Y11854045D01*
X22786295Y11854045D02*
X22702475Y12298669D01*
X22702475Y12298669D02*
X22618654Y12743293D01*
X22618654Y12743293D02*
X21693206Y12743293D01*
X21693206Y12743293D02*
X21609386Y12298669D01*
X21609386Y12298669D02*
X21609386Y12298669D01*
G36*
X22702475Y12298669D02*
G01*
X22786295Y11854045D01*
X23404867Y11599049D01*
X23775907Y11851354D01*
X23849344Y11901094D01*
X23946699Y11966382D01*
X24030987Y12022146D01*
X24097831Y12065522D01*
X24142854Y12093647D01*
X24161678Y12103658D01*
X24173239Y12096539D01*
X24207796Y12066706D01*
X24260094Y12017748D01*
X24325700Y11954160D01*
X24400183Y11880437D01*
X24479113Y11801075D01*
X24558056Y11720569D01*
X24632584Y11643415D01*
X24698263Y11574107D01*
X24750663Y11517143D01*
X24785353Y11477016D01*
X24797901Y11458223D01*
X24794982Y11450149D01*
X24774771Y11414131D01*
X24737863Y11354856D01*
X24687250Y11276970D01*
X24625925Y11185119D01*
X24556879Y11083950D01*
X24518987Y11028774D01*
X24453806Y10932716D01*
X24397923Y10848883D01*
X24354317Y10781823D01*
X24325969Y10736081D01*
X24315857Y10716204D01*
X24316023Y10715103D01*
X24324943Y10689906D01*
X24345406Y10638453D01*
X24374560Y10567465D01*
X24409553Y10483665D01*
X24447532Y10393772D01*
X24485645Y10304509D01*
X24521039Y10222597D01*
X24550862Y10154757D01*
X24572261Y10107710D01*
X24582384Y10088178D01*
X24588374Y10086445D01*
X24624766Y10078631D01*
X24689627Y10065685D01*
X24777765Y10048621D01*
X24883987Y10028449D01*
X25003102Y10006182D01*
X25065883Y9994377D01*
X25181112Y9971852D01*
X25281862Y9951050D01*
X25362626Y9933165D01*
X25417898Y9919392D01*
X25442171Y9910926D01*
X25446531Y9902534D01*
X25453763Y9861528D01*
X25459446Y9793232D01*
X25463582Y9704071D01*
X25466177Y9600472D01*
X25467236Y9488860D01*
X25466761Y9375662D01*
X25464759Y9267304D01*
X25461233Y9170211D01*
X25456187Y9090810D01*
X25449627Y9035528D01*
X25441556Y9010790D01*
X25436658Y9008000D01*
X25400130Y8996031D01*
X25336765Y8980195D01*
X25253886Y8962226D01*
X25158818Y8943859D01*
X25126742Y8938009D01*
X24978593Y8910802D01*
X24862161Y8888937D01*
X24773409Y8871507D01*
X24708303Y8857604D01*
X24662806Y8846323D01*
X24632882Y8836757D01*
X24614494Y8827999D01*
X24603607Y8819143D01*
X24602342Y8817657D01*
X24584538Y8786669D01*
X24558194Y8729966D01*
X24525861Y8654201D01*
X24490093Y8566026D01*
X24453444Y8472093D01*
X24418466Y8379053D01*
X24387713Y8293559D01*
X24363738Y8222264D01*
X24349095Y8171818D01*
X24346336Y8148874D01*
X24348181Y8145897D01*
X24367275Y8117107D01*
X24403184Y8064005D01*
X24452578Y7991483D01*
X24512127Y7904433D01*
X24578503Y7807746D01*
X24596720Y7781144D01*
X24660777Y7685725D01*
X24716137Y7600388D01*
X24759639Y7530195D01*
X24788124Y7480206D01*
X24798432Y7455484D01*
X24796211Y7448984D01*
X24773058Y7416956D01*
X24727377Y7364655D01*
X24662441Y7295601D01*
X24581519Y7213314D01*
X24487885Y7121314D01*
X24434365Y7069819D01*
X24349742Y6989617D01*
X24275675Y6920922D01*
X24216141Y6867348D01*
X24175117Y6832515D01*
X24156581Y6820037D01*
X24143846Y6824662D01*
X24104636Y6846543D01*
X24047695Y6882327D01*
X23980450Y6927483D01*
X23932638Y6960435D01*
X23837185Y7025873D01*
X23735325Y7095372D01*
X23642288Y7158525D01*
X23460032Y7281800D01*
X23307041Y7199080D01*
X23271017Y7179987D01*
X23205503Y7147328D01*
X23154840Y7124781D01*
X23127764Y7116374D01*
X23118903Y7127170D01*
X23096899Y7168277D01*
X23064399Y7236051D01*
X23023210Y7326191D01*
X22975142Y7434395D01*
X22922002Y7556363D01*
X22865599Y7687792D01*
X22807742Y7824382D01*
X22750238Y7961833D01*
X22694897Y8095842D01*
X22643526Y8222109D01*
X22597935Y8336332D01*
X22559932Y8434210D01*
X22531324Y8511443D01*
X22513921Y8563729D01*
X22509531Y8586767D01*
X22509828Y8587440D01*
X22530277Y8608737D01*
X22573050Y8642092D01*
X22629317Y8680589D01*
X22647077Y8692344D01*
X22782214Y8803865D01*
X22894056Y8936694D01*
X22979955Y9085302D01*
X23037262Y9244160D01*
X23063331Y9407740D01*
X23055513Y9570512D01*
X23023844Y9715285D01*
X22966982Y9861476D01*
X22884088Y9991897D01*
X22770331Y10115787D01*
X22725633Y10155365D01*
X22581135Y10252877D01*
X22425038Y10318550D01*
X22261867Y10352970D01*
X22096143Y10356726D01*
X21932392Y10330406D01*
X21775136Y10274597D01*
X21628898Y10189886D01*
X21498204Y10076863D01*
X21387574Y9936113D01*
X21366305Y9901258D01*
X21294010Y9741945D01*
X21255615Y9576048D01*
X21250114Y9407863D01*
X21276501Y9241687D01*
X21333770Y9081816D01*
X21420917Y8932547D01*
X21536936Y8798177D01*
X21680822Y8683001D01*
X21685494Y8679898D01*
X21741164Y8640667D01*
X21782889Y8607314D01*
X21801946Y8586767D01*
X21799542Y8570659D01*
X21784591Y8523756D01*
X21758081Y8451061D01*
X21721820Y8356875D01*
X21677616Y8245502D01*
X21627276Y8121242D01*
X21572607Y7988398D01*
X21515418Y7851273D01*
X21457516Y7714168D01*
X21400710Y7581385D01*
X21346806Y7457226D01*
X21297612Y7345994D01*
X21254937Y7251991D01*
X21220587Y7179518D01*
X21196371Y7132878D01*
X21184097Y7116374D01*
X21173889Y7118609D01*
X21133786Y7134674D01*
X21074518Y7162841D01*
X21004819Y7199080D01*
X20851829Y7281800D01*
X20669573Y7158525D01*
X20615727Y7122021D01*
X20515574Y7053816D01*
X20415725Y6985502D01*
X20331411Y6927483D01*
X20284879Y6895864D01*
X20224400Y6856580D01*
X20179557Y6829688D01*
X20157655Y6819717D01*
X20148245Y6823950D01*
X20114231Y6849879D01*
X20061795Y6895530D01*
X19995501Y6956414D01*
X19919913Y7028039D01*
X19839596Y7105917D01*
X19759113Y7185555D01*
X19683029Y7262465D01*
X19615907Y7332155D01*
X19562312Y7390136D01*
X19526808Y7431916D01*
X19513959Y7453007D01*
X19514700Y7457019D01*
X19529993Y7489680D01*
X19562662Y7546188D01*
X19609550Y7621437D01*
X19667501Y7710325D01*
X19733357Y7807746D01*
X19751827Y7834618D01*
X19816682Y7929177D01*
X19873809Y8012773D01*
X19919878Y8080516D01*
X19951559Y8127514D01*
X19965524Y8148874D01*
X19965868Y8149789D01*
X19961746Y8175922D01*
X19946007Y8228860D01*
X19921204Y8301953D01*
X19889889Y8388548D01*
X19854617Y8481992D01*
X19817940Y8575635D01*
X19782412Y8662823D01*
X19750586Y8736905D01*
X19725016Y8791229D01*
X19708253Y8819143D01*
X19706574Y8820876D01*
X19694572Y8829644D01*
X19674303Y8838485D01*
X19641729Y8848308D01*
X19592816Y8860017D01*
X19523527Y8874520D01*
X19429825Y8892724D01*
X19307676Y8915534D01*
X19153042Y8943859D01*
X19120970Y8949820D01*
X19029093Y8968248D01*
X18951807Y8985708D01*
X18896436Y9000467D01*
X18870305Y9010790D01*
X18865933Y9019403D01*
X18858645Y9060774D01*
X18852869Y9129359D01*
X18848610Y9218732D01*
X18845873Y9322465D01*
X18844662Y9434135D01*
X18844982Y9547313D01*
X18846836Y9655574D01*
X18850230Y9752492D01*
X18855167Y9831641D01*
X18861652Y9886594D01*
X18869689Y9910926D01*
X18877896Y9914521D01*
X18918719Y9925852D01*
X18987724Y9941878D01*
X19079403Y9961405D01*
X19188250Y9983238D01*
X19308758Y10006182D01*
X19374557Y10018441D01*
X19487335Y10039699D01*
X19584407Y10058313D01*
X19660582Y10073272D01*
X19710669Y10083564D01*
X19729476Y10088178D01*
X19730183Y10089129D01*
X19742161Y10113290D01*
X19764994Y10163906D01*
X19795830Y10234262D01*
X19831813Y10317642D01*
X19870091Y10407330D01*
X19907809Y10496611D01*
X19942113Y10578768D01*
X19970149Y10647087D01*
X19989064Y10694852D01*
X19996003Y10715346D01*
X19992942Y10722557D01*
X19972572Y10756872D01*
X19935622Y10814630D01*
X19885060Y10891301D01*
X19823857Y10982352D01*
X19754981Y11083250D01*
X19717194Y11138507D01*
X19651982Y11235385D01*
X19596071Y11320407D01*
X19552441Y11388938D01*
X19524077Y11436340D01*
X19513959Y11457977D01*
X19520990Y11469713D01*
X19550397Y11504782D01*
X19598641Y11557855D01*
X19661293Y11624436D01*
X19733925Y11700026D01*
X19812108Y11780128D01*
X19891414Y11860246D01*
X19967413Y11935882D01*
X20035678Y12002538D01*
X20091780Y12055718D01*
X20131290Y12090924D01*
X20149779Y12103658D01*
X20160043Y12098707D01*
X20197730Y12075743D01*
X20258548Y12036662D01*
X20338113Y11984328D01*
X20432043Y11921604D01*
X20535954Y11851354D01*
X20906994Y11599049D01*
X21216280Y11726547D01*
X21525565Y11854045D01*
X21609386Y12298669D01*
X21693206Y12743293D01*
X22618654Y12743293D01*
X22702475Y12298669D01*
G37*
X22702475Y12298669D02*
X22786295Y11854045D01*
X23404867Y11599049D01*
X23775907Y11851354D01*
X23849344Y11901094D01*
X23946699Y11966382D01*
X24030987Y12022146D01*
X24097831Y12065522D01*
X24142854Y12093647D01*
X24161678Y12103658D01*
X24173239Y12096539D01*
X24207796Y12066706D01*
X24260094Y12017748D01*
X24325700Y11954160D01*
X24400183Y11880437D01*
X24479113Y11801075D01*
X24558056Y11720569D01*
X24632584Y11643415D01*
X24698263Y11574107D01*
X24750663Y11517143D01*
X24785353Y11477016D01*
X24797901Y11458223D01*
X24794982Y11450149D01*
X24774771Y11414131D01*
X24737863Y11354856D01*
X24687250Y11276970D01*
X24625925Y11185119D01*
X24556879Y11083950D01*
X24518987Y11028774D01*
X24453806Y10932716D01*
X24397923Y10848883D01*
X24354317Y10781823D01*
X24325969Y10736081D01*
X24315857Y10716204D01*
X24316023Y10715103D01*
X24324943Y10689906D01*
X24345406Y10638453D01*
X24374560Y10567465D01*
X24409553Y10483665D01*
X24447532Y10393772D01*
X24485645Y10304509D01*
X24521039Y10222597D01*
X24550862Y10154757D01*
X24572261Y10107710D01*
X24582384Y10088178D01*
X24588374Y10086445D01*
X24624766Y10078631D01*
X24689627Y10065685D01*
X24777765Y10048621D01*
X24883987Y10028449D01*
X25003102Y10006182D01*
X25065883Y9994377D01*
X25181112Y9971852D01*
X25281862Y9951050D01*
X25362626Y9933165D01*
X25417898Y9919392D01*
X25442171Y9910926D01*
X25446531Y9902534D01*
X25453763Y9861528D01*
X25459446Y9793232D01*
X25463582Y9704071D01*
X25466177Y9600472D01*
X25467236Y9488860D01*
X25466761Y9375662D01*
X25464759Y9267304D01*
X25461233Y9170211D01*
X25456187Y9090810D01*
X25449627Y9035528D01*
X25441556Y9010790D01*
X25436658Y9008000D01*
X25400130Y8996031D01*
X25336765Y8980195D01*
X25253886Y8962226D01*
X25158818Y8943859D01*
X25126742Y8938009D01*
X24978593Y8910802D01*
X24862161Y8888937D01*
X24773409Y8871507D01*
X24708303Y8857604D01*
X24662806Y8846323D01*
X24632882Y8836757D01*
X24614494Y8827999D01*
X24603607Y8819143D01*
X24602342Y8817657D01*
X24584538Y8786669D01*
X24558194Y8729966D01*
X24525861Y8654201D01*
X24490093Y8566026D01*
X24453444Y8472093D01*
X24418466Y8379053D01*
X24387713Y8293559D01*
X24363738Y8222264D01*
X24349095Y8171818D01*
X24346336Y8148874D01*
X24348181Y8145897D01*
X24367275Y8117107D01*
X24403184Y8064005D01*
X24452578Y7991483D01*
X24512127Y7904433D01*
X24578503Y7807746D01*
X24596720Y7781144D01*
X24660777Y7685725D01*
X24716137Y7600388D01*
X24759639Y7530195D01*
X24788124Y7480206D01*
X24798432Y7455484D01*
X24796211Y7448984D01*
X24773058Y7416956D01*
X24727377Y7364655D01*
X24662441Y7295601D01*
X24581519Y7213314D01*
X24487885Y7121314D01*
X24434365Y7069819D01*
X24349742Y6989617D01*
X24275675Y6920922D01*
X24216141Y6867348D01*
X24175117Y6832515D01*
X24156581Y6820037D01*
X24143846Y6824662D01*
X24104636Y6846543D01*
X24047695Y6882327D01*
X23980450Y6927483D01*
X23932638Y6960435D01*
X23837185Y7025873D01*
X23735325Y7095372D01*
X23642288Y7158525D01*
X23460032Y7281800D01*
X23307041Y7199080D01*
X23271017Y7179987D01*
X23205503Y7147328D01*
X23154840Y7124781D01*
X23127764Y7116374D01*
X23118903Y7127170D01*
X23096899Y7168277D01*
X23064399Y7236051D01*
X23023210Y7326191D01*
X22975142Y7434395D01*
X22922002Y7556363D01*
X22865599Y7687792D01*
X22807742Y7824382D01*
X22750238Y7961833D01*
X22694897Y8095842D01*
X22643526Y8222109D01*
X22597935Y8336332D01*
X22559932Y8434210D01*
X22531324Y8511443D01*
X22513921Y8563729D01*
X22509531Y8586767D01*
X22509828Y8587440D01*
X22530277Y8608737D01*
X22573050Y8642092D01*
X22629317Y8680589D01*
X22647077Y8692344D01*
X22782214Y8803865D01*
X22894056Y8936694D01*
X22979955Y9085302D01*
X23037262Y9244160D01*
X23063331Y9407740D01*
X23055513Y9570512D01*
X23023844Y9715285D01*
X22966982Y9861476D01*
X22884088Y9991897D01*
X22770331Y10115787D01*
X22725633Y10155365D01*
X22581135Y10252877D01*
X22425038Y10318550D01*
X22261867Y10352970D01*
X22096143Y10356726D01*
X21932392Y10330406D01*
X21775136Y10274597D01*
X21628898Y10189886D01*
X21498204Y10076863D01*
X21387574Y9936113D01*
X21366305Y9901258D01*
X21294010Y9741945D01*
X21255615Y9576048D01*
X21250114Y9407863D01*
X21276501Y9241687D01*
X21333770Y9081816D01*
X21420917Y8932547D01*
X21536936Y8798177D01*
X21680822Y8683001D01*
X21685494Y8679898D01*
X21741164Y8640667D01*
X21782889Y8607314D01*
X21801946Y8586767D01*
X21799542Y8570659D01*
X21784591Y8523756D01*
X21758081Y8451061D01*
X21721820Y8356875D01*
X21677616Y8245502D01*
X21627276Y8121242D01*
X21572607Y7988398D01*
X21515418Y7851273D01*
X21457516Y7714168D01*
X21400710Y7581385D01*
X21346806Y7457226D01*
X21297612Y7345994D01*
X21254937Y7251991D01*
X21220587Y7179518D01*
X21196371Y7132878D01*
X21184097Y7116374D01*
X21173889Y7118609D01*
X21133786Y7134674D01*
X21074518Y7162841D01*
X21004819Y7199080D01*
X20851829Y7281800D01*
X20669573Y7158525D01*
X20615727Y7122021D01*
X20515574Y7053816D01*
X20415725Y6985502D01*
X20331411Y6927483D01*
X20284879Y6895864D01*
X20224400Y6856580D01*
X20179557Y6829688D01*
X20157655Y6819717D01*
X20148245Y6823950D01*
X20114231Y6849879D01*
X20061795Y6895530D01*
X19995501Y6956414D01*
X19919913Y7028039D01*
X19839596Y7105917D01*
X19759113Y7185555D01*
X19683029Y7262465D01*
X19615907Y7332155D01*
X19562312Y7390136D01*
X19526808Y7431916D01*
X19513959Y7453007D01*
X19514700Y7457019D01*
X19529993Y7489680D01*
X19562662Y7546188D01*
X19609550Y7621437D01*
X19667501Y7710325D01*
X19733357Y7807746D01*
X19751827Y7834618D01*
X19816682Y7929177D01*
X19873809Y8012773D01*
X19919878Y8080516D01*
X19951559Y8127514D01*
X19965524Y8148874D01*
X19965868Y8149789D01*
X19961746Y8175922D01*
X19946007Y8228860D01*
X19921204Y8301953D01*
X19889889Y8388548D01*
X19854617Y8481992D01*
X19817940Y8575635D01*
X19782412Y8662823D01*
X19750586Y8736905D01*
X19725016Y8791229D01*
X19708253Y8819143D01*
X19706574Y8820876D01*
X19694572Y8829644D01*
X19674303Y8838485D01*
X19641729Y8848308D01*
X19592816Y8860017D01*
X19523527Y8874520D01*
X19429825Y8892724D01*
X19307676Y8915534D01*
X19153042Y8943859D01*
X19120970Y8949820D01*
X19029093Y8968248D01*
X18951807Y8985708D01*
X18896436Y9000467D01*
X18870305Y9010790D01*
X18865933Y9019403D01*
X18858645Y9060774D01*
X18852869Y9129359D01*
X18848610Y9218732D01*
X18845873Y9322465D01*
X18844662Y9434135D01*
X18844982Y9547313D01*
X18846836Y9655574D01*
X18850230Y9752492D01*
X18855167Y9831641D01*
X18861652Y9886594D01*
X18869689Y9910926D01*
X18877896Y9914521D01*
X18918719Y9925852D01*
X18987724Y9941878D01*
X19079403Y9961405D01*
X19188250Y9983238D01*
X19308758Y10006182D01*
X19374557Y10018441D01*
X19487335Y10039699D01*
X19584407Y10058313D01*
X19660582Y10073272D01*
X19710669Y10083564D01*
X19729476Y10088178D01*
X19730183Y10089129D01*
X19742161Y10113290D01*
X19764994Y10163906D01*
X19795830Y10234262D01*
X19831813Y10317642D01*
X19870091Y10407330D01*
X19907809Y10496611D01*
X19942113Y10578768D01*
X19970149Y10647087D01*
X19989064Y10694852D01*
X19996003Y10715346D01*
X19992942Y10722557D01*
X19972572Y10756872D01*
X19935622Y10814630D01*
X19885060Y10891301D01*
X19823857Y10982352D01*
X19754981Y11083250D01*
X19717194Y11138507D01*
X19651982Y11235385D01*
X19596071Y11320407D01*
X19552441Y11388938D01*
X19524077Y11436340D01*
X19513959Y11457977D01*
X19520990Y11469713D01*
X19550397Y11504782D01*
X19598641Y11557855D01*
X19661293Y11624436D01*
X19733925Y11700026D01*
X19812108Y11780128D01*
X19891414Y11860246D01*
X19967413Y11935882D01*
X20035678Y12002538D01*
X20091780Y12055718D01*
X20131290Y12090924D01*
X20149779Y12103658D01*
X20160043Y12098707D01*
X20197730Y12075743D01*
X20258548Y12036662D01*
X20338113Y11984328D01*
X20432043Y11921604D01*
X20535954Y11851354D01*
X20906994Y11599049D01*
X21216280Y11726547D01*
X21525565Y11854045D01*
X21609386Y12298669D01*
X21693206Y12743293D01*
X22618654Y12743293D01*
X22702475Y12298669D01*
%LPC*%
D14*
X35000000Y13550000D02*
X23200000Y13550000D01*
X23200000Y13550000D02*
X23200000Y18950000D01*
X23200000Y18950000D02*
X35000000Y18950000D01*
X35000000Y18950000D02*
X35000000Y13550000D01*
G36*
X35000000Y13550000D02*
G01*
X23200000Y13550000D01*
X23200000Y18950000D01*
X35000000Y18950000D01*
X35000000Y13550000D01*
G37*
X35000000Y13550000D02*
X23200000Y13550000D01*
X23200000Y18950000D01*
X35000000Y18950000D01*
X35000000Y13550000D01*
D15*
X2870000Y10850000D03*
D16*
X2869999Y12099999D03*
X2869999Y13349999D03*
X2869999Y14599999D03*
X2869999Y15849999D03*
X2869999Y17099999D03*
D17*
X24250000Y4475000D03*
D16*
X24249999Y3224999D03*
D18*
X34100000Y36500000D03*
X34802944Y38197056D03*
X34802944Y34802944D03*
X36500000Y38900000D03*
D19*
X36500000Y36500000D03*
D18*
X36500000Y34100000D03*
X38197056Y38197056D03*
X38197056Y34802944D03*
X38900000Y36500000D03*
X34100000Y5500000D03*
X34802944Y7197056D03*
X34802944Y3802944D03*
X36500000Y7900000D03*
D19*
X36500000Y5500000D03*
D18*
X36500000Y3100000D03*
X38197056Y7197056D03*
X38197056Y3802944D03*
X38900000Y5500000D03*
D17*
X15650000Y4475000D03*
D16*
X15649999Y3224999D03*
D18*
X3100000Y5500000D03*
X3802944Y7197056D03*
X3802944Y3802944D03*
X5500000Y7900000D03*
D19*
X5500000Y5500000D03*
D18*
X5500000Y3100000D03*
X7197056Y7197056D03*
X7197056Y3802944D03*
X7900000Y5500000D03*
D20*
X2978199Y29726999D03*
D21*
X1708199Y29726999D03*
X2978199Y30996999D03*
X1708199Y30996999D03*
X2978199Y32266999D03*
X1708199Y32266999D03*
D18*
X3100000Y36500000D03*
X3802944Y38197056D03*
X3802944Y34802944D03*
X5500000Y38900000D03*
D19*
X5500000Y36500000D03*
D18*
X5500000Y34100000D03*
X7197056Y38197056D03*
X7197056Y34802944D03*
X7900000Y36500000D03*
D17*
X19950000Y4475000D03*
D16*
X19949999Y3224999D03*
D22*
X28700000Y39020000D03*
D23*
X28700000Y34700000D03*
D24*
X28700000Y31700000D03*
D25*
X38038500Y12524000D03*
D26*
X38038499Y15023999D03*
X38038499Y17523999D03*
X38038499Y20023999D03*
D17*
X28550000Y4475000D03*
D16*
X28549999Y3224999D03*
D15*
X8750000Y26240000D03*
D16*
X8749999Y27489999D03*
X8749999Y28739999D03*
X8749999Y29989999D03*
X8749999Y31239999D03*
D22*
X14795000Y39015000D03*
D23*
X13295000Y34695000D03*
D24*
X16295000Y34695000D03*
X13295000Y31695000D03*
X16295000Y31695000D03*
D17*
X11350000Y4475000D03*
D16*
X11349999Y3224999D03*
M02*
