M48
; DRILL file {KiCad 5.99.0-unknown-e8102d85dc~128~ubuntu20.04.1} date Sun May 23 19:45:19 2021
; FORMAT={-:-/ absolute / metric / decimal}
; #@! TF.CreationDate,2021-05-23T19:45:19-07:00
; #@! TF.GenerationSoftware,Kicad,Pcbnew,5.99.0-unknown-e8102d85dc~128~ubuntu20.04.1
; #@! TF.FileFunction,Plated,1,4,PTH
FMAT,2
METRIC
; #@! TA.AperFunction,Plated,PTH,ViaDrill
T1C0.300
; #@! TA.AperFunction,Plated,PTH,ViaDrill
T2C0.500
; #@! TA.AperFunction,Plated,PTH,ComponentDrill
T3C0.500
; #@! TA.AperFunction,Plated,PTH,ComponentDrill
T4C0.750
; #@! TA.AperFunction,Plated,PTH,ComponentDrill
T5C0.950
; #@! TA.AperFunction,Plated,PTH,ComponentDrill
T6C1.000
; #@! TA.AperFunction,Plated,PTH,ComponentDrill
T7C1.100
; #@! TA.AperFunction,Plated,PTH,ComponentDrill
T8C3.200
%
G90
G05
T1
X1.1Y36.5
X1.1Y21.2
X1.5Y4.0
X2.95Y21.7
X3.691Y24.095
X4.1Y9.35
X5.0Y20.5
X5.0Y11.4
X5.05Y16.2
X5.05Y12.9
X5.4Y15.0
X5.5Y40.8
X5.5Y1.0
X5.66Y25.029
X5.8Y23.2
X5.9Y22.034
X7.2Y12.8
X7.25Y10.75
X7.6Y15.0
X7.75Y40.8
X8.3Y33.9
X8.424Y26.531
X8.5Y24.184
X9.2Y10.4
X9.25Y31.25
X9.384Y13.099
X9.387Y12.243
X9.4Y6.6
X9.417Y24.141
X9.6Y11.1
X9.881Y27.217
X10.015Y26.319
X10.1Y27.9
X10.25Y23.0
X10.329Y23.92
X10.4Y16.073
X10.728Y20.958
X10.913Y18.769
X11.711Y26.679
X12.347Y22.826
X12.493Y31.507
X12.493Y31.507
X12.5Y26.6
X13.007Y30.993
X13.007Y30.993
X13.285Y21.747
X13.9Y10.15
X13.9Y5.9
X13.999Y21.895
X14.0Y1.0
X14.133Y20.56
X14.343Y21.255
X14.45Y18.45
X14.5Y32.75
X14.603Y19.92
X14.673Y13.3
X14.75Y27.55
X14.95Y6.15
X15.041Y21.053
X15.1Y16.35
X15.344Y20.393
X15.45Y27.2
X15.492Y19.681
X15.5Y29.75
X15.55Y21.6
X16.0Y19.1
X16.073Y13.9
X16.632Y13.193
X16.8Y13.9
X16.95Y29.9
X17.25Y34.0
X17.5Y25.6
X17.716Y17.423
X17.895Y18.347
X18.1Y36.7
X18.25Y10.55
X18.44Y17.349
X18.45Y12.15
X18.482Y22.254
X18.5Y21.4
X18.5Y18.75
X18.5Y9.4
X18.55Y10.0
X18.75Y29.9
X19.15Y12.05
X19.2Y34.05
X19.3Y11.35
X19.55Y14.95
X19.7Y22.8
X19.7Y13.4
X19.737Y15.787
X19.8Y25.6
X20.0Y41.0
X20.45Y29.85
X20.5Y4.84
X20.5Y2.5
X20.65Y22.9
X20.663Y14.062
X20.8Y34.05
X21.5Y14.0
X22.1Y29.75
X22.177Y25.6
X22.3Y20.15
X22.5Y14.6
X22.8Y41.0
X23.3Y33.6
X23.35Y11.25
X23.35Y10.65
X23.35Y10.0
X23.35Y9.4
X23.454Y18.45
X24.3Y38.6
X24.5Y16.25
X25.25Y32.0
X25.25Y29.0
X25.35Y20.05
X25.7Y38.3
X25.7Y35.8
X26.25Y32.0
X26.25Y29.0
X26.9Y17.9
X26.9Y16.9
X26.9Y15.9
X26.9Y14.9
X27.25Y32.0
X27.25Y29.0
X27.9Y17.9
X27.9Y16.9
X27.9Y15.9
X27.9Y14.9
X28.0Y41.0
X28.1Y10.725
X28.15Y9.05
X28.216Y23.816
X28.35Y22.1
X28.9Y23.8
X28.9Y17.9
X28.9Y16.9
X28.9Y15.9
X28.9Y14.9
X28.9Y9.075
X29.4Y41.0
X29.4Y35.3
X29.9Y17.9
X29.9Y16.9
X29.9Y15.9
X29.9Y14.9
X30.25Y32.5
X31.5Y32.5
X31.5Y28.5
X32.75Y32.5
X33.0Y40.5
X33.75Y28.5
X34.5Y30.5
X35.2Y10.8
X35.2Y10.1
X35.3Y22.7
X35.3Y22.0
X36.0Y22.7
X36.0Y22.0
X36.0Y10.8
X36.0Y10.1
X36.0Y1.0
X36.5Y28.75
X41.0Y36.5
X41.0Y5.5
T2
X29.25Y21.35
X29.25Y20.35
X29.25Y12.25
X29.25Y11.25
X30.25Y21.35
X30.25Y20.35
X30.25Y12.25
X30.25Y11.25
X31.35Y23.55
X31.35Y22.55
X31.35Y10.0
X31.35Y9.0
X32.35Y23.55
X32.35Y22.55
X32.35Y10.0
X32.35Y9.0
T3
X3.1Y36.5
X3.1Y5.5
X3.803Y38.197
X3.803Y34.803
X3.803Y7.197
X3.803Y3.803
X5.5Y38.9
X5.5Y34.1
X5.5Y7.9
X5.5Y3.1
X7.197Y38.197
X7.197Y34.803
X7.197Y7.197
X7.197Y3.803
X7.9Y36.5
X7.9Y5.5
X34.1Y36.5
X34.1Y5.5
X34.803Y38.197
X34.803Y34.803
X34.803Y7.197
X34.803Y3.803
X36.5Y38.9
X36.5Y34.1
X36.5Y7.9
X36.5Y3.1
X38.197Y38.197
X38.197Y34.803
X38.197Y7.197
X38.197Y3.803
X38.9Y36.5
X38.9Y5.5
T4
X2.1Y19.5
X2.1Y17.5
X2.1Y15.5
X2.1Y13.5
X2.1Y11.5
X10.85Y4.5
X10.85Y2.5
X17.05Y4.5
X17.05Y2.5
X23.25Y4.5
X23.25Y2.5
T5
X38.038Y20.024
X38.038Y17.524
X38.038Y15.024
X38.038Y12.524
T6
X1.848Y31.104
X1.848Y28.564
X1.848Y26.024
X4.388Y31.104
X4.388Y28.564
X4.388Y26.024
T7
X27.46Y38.15
X28.75Y3.75
X30.0Y38.15
X31.29Y3.75
T8
X5.5Y36.5
X5.5Y5.5
X36.5Y36.5
X36.5Y5.5
T0
M30
