G04 #@! TF.GenerationSoftware,KiCad,Pcbnew,5.99.0-unknown-eb819a3b25~139~ubuntu20.04.1*
G04 #@! TF.CreationDate,2021-10-10T12:59:26-07:00*
G04 #@! TF.ProjectId,Huvud,48757675-642e-46b6-9963-61645f706362,rev?*
G04 #@! TF.SameCoordinates,PXad91980PY876bf80*
G04 #@! TF.FileFunction,Copper,L3,Inr*
G04 #@! TF.FilePolarity,Positive*
%FSLAX46Y46*%
G04 Gerber Fmt 4.6, Leading zero omitted, Abs format (unit mm)*
G04 Created by KiCad (PCBNEW 5.99.0-unknown-eb819a3b25~139~ubuntu20.04.1) date 2021-10-10 12:59:26*
%MOMM*%
%LPD*%
G01*
G04 APERTURE LIST*
G04 Aperture macros list*
%AMRoundRect*
0 Rectangle with rounded corners*
0 $1 Rounding radius*
0 $2 $3 $4 $5 $6 $7 $8 $9 X,Y pos of 4 corners*
0 Add a 4 corners polygon primitive as box body*
4,1,4,$2,$3,$4,$5,$6,$7,$8,$9,$2,$3,0*
0 Add four circle primitives for the rounded corners*
1,1,$1+$1,$2,$3*
1,1,$1+$1,$4,$5*
1,1,$1+$1,$6,$7*
1,1,$1+$1,$8,$9*
0 Add four rect primitives between the rounded corners*
20,1,$1+$1,$2,$3,$4,$5,0*
20,1,$1+$1,$4,$5,$6,$7,0*
20,1,$1+$1,$6,$7,$8,$9,0*
20,1,$1+$1,$8,$9,$2,$3,0*%
G04 Aperture macros list end*
G04 #@! TA.AperFunction,ComponentPad*
%ADD10RoundRect,0.225000X0.475000X-0.225000X0.475000X0.225000X-0.475000X0.225000X-0.475000X-0.225000X0*%
G04 #@! TD*
G04 #@! TA.AperFunction,ComponentPad*
%ADD11O,1.400000X0.900000*%
G04 #@! TD*
G04 #@! TA.AperFunction,ComponentPad*
%ADD12RoundRect,0.225000X-0.475000X0.225000X-0.475000X-0.225000X0.475000X-0.225000X0.475000X0.225000X0*%
G04 #@! TD*
G04 #@! TA.AperFunction,ComponentPad*
%ADD13C,0.800000*%
G04 #@! TD*
G04 #@! TA.AperFunction,ComponentPad*
%ADD14C,6.400000*%
G04 #@! TD*
G04 #@! TA.AperFunction,ComponentPad*
%ADD15R,1.000000X1.000000*%
G04 #@! TD*
G04 #@! TA.AperFunction,ComponentPad*
%ADD16O,1.000000X1.000000*%
G04 #@! TD*
G04 #@! TA.AperFunction,ComponentPad*
%ADD17RoundRect,0.250001X-0.499999X-0.499999X0.499999X-0.499999X0.499999X0.499999X-0.499999X0.499999X0*%
G04 #@! TD*
G04 #@! TA.AperFunction,ComponentPad*
%ADD18C,1.500000*%
G04 #@! TD*
G04 #@! TA.AperFunction,ComponentPad*
%ADD19RoundRect,0.250000X0.725000X-0.600000X0.725000X0.600000X-0.725000X0.600000X-0.725000X-0.600000X0*%
G04 #@! TD*
G04 #@! TA.AperFunction,ComponentPad*
%ADD20O,1.950000X1.700000*%
G04 #@! TD*
G04 #@! TA.AperFunction,ViaPad*
%ADD21C,0.600000*%
G04 #@! TD*
G04 #@! TA.AperFunction,ViaPad*
%ADD22C,0.800000*%
G04 #@! TD*
G04 #@! TA.AperFunction,ViaPad*
%ADD23C,1.000000*%
G04 #@! TD*
G04 #@! TA.AperFunction,Conductor*
%ADD24C,0.500000*%
G04 #@! TD*
G04 #@! TA.AperFunction,Conductor*
%ADD25C,0.350000*%
G04 #@! TD*
G04 #@! TA.AperFunction,Conductor*
%ADD26C,0.300000*%
G04 #@! TD*
G04 #@! TA.AperFunction,Conductor*
%ADD27C,0.152400*%
G04 #@! TD*
G04 #@! TA.AperFunction,Conductor*
%ADD28C,0.800000*%
G04 #@! TD*
G04 APERTURE END LIST*
D10*
X2870000Y10850000D03*
D11*
X2870000Y12100000D03*
X2870000Y13350000D03*
X2870000Y14600000D03*
X2870000Y15850000D03*
X2870000Y17100000D03*
D12*
X24250000Y4475000D03*
D11*
X24250000Y3225000D03*
D13*
X36500000Y34100000D03*
X34802944Y38197056D03*
X36500000Y38900000D03*
X34100000Y36500000D03*
X38900000Y36500000D03*
X38197056Y38197056D03*
X34802944Y34802944D03*
D14*
X36500000Y36500000D03*
D13*
X38197056Y34802944D03*
X38197056Y3802944D03*
X36500000Y3100000D03*
X36500000Y7900000D03*
X38197056Y7197056D03*
X38900000Y5500000D03*
X34802944Y3802944D03*
X34802944Y7197056D03*
D14*
X36500000Y5500000D03*
D13*
X34100000Y5500000D03*
D12*
X15650000Y4475000D03*
D11*
X15650000Y3225000D03*
D13*
X3100000Y5500000D03*
X3802944Y3802944D03*
X7900000Y5500000D03*
X5500000Y7900000D03*
D14*
X5500000Y5500000D03*
D13*
X3802944Y7197056D03*
X7197056Y7197056D03*
X5500000Y3100000D03*
X7197056Y3802944D03*
D15*
X3250000Y24850000D03*
D16*
X1980000Y24850000D03*
X3250000Y26120000D03*
X1980000Y26120000D03*
X3250000Y27390000D03*
X1980000Y27390000D03*
D13*
X5500000Y38900000D03*
X7197056Y34802944D03*
X7900000Y36500000D03*
X7197056Y38197056D03*
D14*
X5500000Y36500000D03*
D13*
X3802944Y38197056D03*
X5500000Y34100000D03*
X3802944Y34802944D03*
X3100000Y36500000D03*
D12*
X19950000Y4475000D03*
D11*
X19950000Y3225000D03*
D17*
X28700000Y34700000D03*
D18*
X28700000Y31700000D03*
D19*
X38038500Y12524000D03*
D20*
X38038500Y15024000D03*
X38038500Y17524000D03*
X38038500Y20024000D03*
D12*
X28550000Y4475000D03*
D11*
X28550000Y3225000D03*
D17*
X13295000Y34695000D03*
D18*
X16295000Y34695000D03*
X13295000Y31695000D03*
X16295000Y31695000D03*
D12*
X11350000Y4475000D03*
D11*
X11350000Y3225000D03*
D21*
X16200000Y9000000D03*
X13100000Y6200000D03*
X12100000Y11600000D03*
X13302998Y13787653D03*
X15000000Y13200000D03*
X9600000Y8100000D03*
D22*
X28400000Y15100000D03*
D21*
X11000000Y23700000D03*
D22*
X27200000Y17600000D03*
X29500000Y16400000D03*
D21*
X27400000Y9900000D03*
D22*
X13800000Y20000000D03*
D21*
X36050000Y10150000D03*
X7400000Y27100000D03*
X21750000Y20250000D03*
X6500000Y13000000D03*
X36100000Y21900000D03*
X16300000Y13900000D03*
X5800000Y31800000D03*
X27600000Y23000000D03*
D22*
X28400000Y17600000D03*
D21*
X4300000Y25900000D03*
X1500000Y10200000D03*
X24700000Y13300000D03*
D22*
X27200000Y15200000D03*
D21*
X1800000Y17800000D03*
X19750000Y13250000D03*
X5000000Y1500000D03*
X2700000Y22400000D03*
X34100000Y28200000D03*
D22*
X28400000Y16400000D03*
D21*
X23550000Y9250000D03*
X7250000Y1500000D03*
X14400000Y25100000D03*
X5600000Y24100000D03*
X12450000Y28100000D03*
X1900000Y19400000D03*
X22000000Y12750000D03*
X20250000Y8500000D03*
X18400000Y8700000D03*
X6800000Y22600000D03*
X2500000Y8500000D03*
X7950000Y19750000D03*
X1250000Y35250000D03*
X8500000Y40250000D03*
X4700000Y27300000D03*
X6900000Y15600000D03*
D22*
X29500000Y17600000D03*
D21*
X12000000Y40250000D03*
X19307500Y26392500D03*
X22800000Y15500000D03*
X35350000Y10750000D03*
D22*
X24700000Y28635000D03*
D21*
X35450000Y21950000D03*
D22*
X27200000Y16400000D03*
D21*
X36100000Y22550000D03*
X23000000Y17800000D03*
D22*
X25580000Y28645000D03*
D21*
X35450000Y22600000D03*
D22*
X29500000Y15100000D03*
X23750000Y28645000D03*
D21*
X8700000Y32100000D03*
X27750000Y25000000D03*
X16400000Y24350000D03*
X17800000Y27900000D03*
X36050000Y10800000D03*
X34000000Y30800000D03*
X35350000Y10100000D03*
X1500000Y15000000D03*
X36500000Y26000000D03*
X19300000Y11400000D03*
X40750000Y34750000D03*
X25500000Y40250000D03*
X34500000Y40500000D03*
X32250000Y27250000D03*
D22*
X32400000Y23500000D03*
X31300000Y9200000D03*
X31300000Y22500000D03*
D21*
X32200000Y3300000D03*
X31750000Y39250000D03*
D22*
X32400000Y9200000D03*
D21*
X39000000Y32000000D03*
X26750000Y2350000D03*
X20750000Y40250000D03*
D22*
X31300000Y10300000D03*
D23*
X24300000Y21600000D03*
D22*
X32400000Y10300000D03*
D21*
X33000000Y1500000D03*
D22*
X32400000Y22500000D03*
X31300000Y23500000D03*
D21*
X25748400Y13493800D03*
X6900000Y16800000D03*
X21000000Y24450000D03*
X6100000Y16600000D03*
X4279700Y24905000D03*
X9750000Y26750000D03*
X10937031Y29763103D03*
X23813900Y23813900D03*
X4767400Y20899300D03*
X12500000Y25000000D03*
D23*
X15908600Y10288200D03*
D21*
X25000000Y31250000D03*
X26000000Y31250000D03*
X26000000Y30500000D03*
X25000000Y30500000D03*
X25250000Y22500000D03*
X19000000Y17500000D03*
X20099639Y21000638D03*
X10509700Y18097400D03*
X22940979Y16285372D03*
X27642300Y12751300D03*
X20845100Y18140900D03*
X10489500Y20057100D03*
X12053300Y23479300D03*
X22644536Y14790327D03*
X15123300Y15459900D03*
X24088800Y16397800D03*
X16133500Y16499000D03*
X4004000Y28996000D03*
X18600000Y21863500D03*
X11500000Y30500000D03*
X9500000Y32500000D03*
X12013715Y31013715D03*
X18600000Y21136500D03*
X9500000Y33250000D03*
X14487100Y23307100D03*
X22250000Y11250000D03*
X11448500Y17239100D03*
X17027000Y14514700D03*
D22*
X29200000Y12400000D03*
X30200000Y11300000D03*
X30200000Y12400000D03*
D21*
X38706200Y23454100D03*
D22*
X29200000Y11300000D03*
D21*
X37691000Y23288300D03*
X35297400Y23559700D03*
D22*
X29200000Y21300000D03*
D21*
X34265500Y23257400D03*
D22*
X29200000Y20300000D03*
X30200000Y21300000D03*
X30200000Y20300000D03*
D21*
X9450000Y18272200D03*
X10657700Y11569600D03*
X4378100Y17132300D03*
X6482600Y21313000D03*
X15015700Y16688600D03*
X16140800Y17412400D03*
X3259733Y21936853D03*
X6600000Y11508000D03*
X15876700Y15442300D03*
X14900000Y11300000D03*
X10447000Y18898500D03*
X5300000Y18550000D03*
X22050000Y26700000D03*
X17184300Y19627700D03*
X8876700Y13390600D03*
X8962683Y14315463D03*
X17225600Y17816400D03*
X9600000Y15200000D03*
X17219200Y18588700D03*
D24*
X4569600Y9150400D02*
X2870000Y10850000D01*
X18266944Y5773100D02*
X14889644Y9150400D01*
X19077000Y5773100D02*
X18266944Y5773100D01*
X14889644Y9150400D02*
X4569600Y9150400D01*
D25*
X2500000Y23800000D02*
X4300000Y23800000D01*
X2400000Y23900000D02*
X2500000Y23800000D01*
D26*
X25300000Y13900000D02*
X22700000Y13900000D01*
D25*
X23813900Y23813900D02*
X22613900Y23813900D01*
D26*
X25748400Y13493800D02*
X25706200Y13493800D01*
D25*
X1980000Y24850000D02*
X1980000Y24320000D01*
X1980000Y24320000D02*
X2400000Y23900000D01*
D26*
X25706200Y13493800D02*
X25300000Y13900000D01*
D27*
X25250000Y22500000D02*
X22309929Y22500000D01*
X19000000Y19190071D02*
X19000000Y17500000D01*
X22309929Y22500000D02*
X19000000Y19190071D01*
X13046099Y20633799D02*
X19732800Y20633799D01*
X10509700Y18097400D02*
X13046099Y20633799D01*
X19732800Y20633799D02*
X20099639Y21000638D01*
X24799404Y14899404D02*
X25494196Y14899404D01*
X25494196Y14899404D02*
X27642300Y12751300D01*
X22940979Y16285372D02*
X23413436Y16285372D01*
X23413436Y16285372D02*
X24799404Y14899404D01*
X7571128Y28139800D02*
X2729800Y28139800D01*
X2729800Y28139800D02*
X1980000Y27390000D01*
X12053300Y23479300D02*
X12053300Y23657628D01*
X12053300Y23657628D02*
X7571128Y28139800D01*
X15123300Y15459900D02*
X15641400Y15978000D01*
X15641400Y15978000D02*
X20522000Y15978000D01*
X21709673Y14790327D02*
X20522000Y15978000D01*
X22644536Y14790327D02*
X21709673Y14790327D01*
X16422573Y16788073D02*
X16133500Y16499000D01*
X24088800Y16397800D02*
X23698527Y16788073D01*
X23698527Y16788073D02*
X16422573Y16788073D01*
X37691000Y23288300D02*
X36859900Y22457200D01*
X36859900Y21259900D02*
X36400000Y20800000D01*
X36400000Y20800000D02*
X36400000Y16300000D01*
X36859900Y22457200D02*
X36859900Y21259900D01*
X37676000Y15024000D02*
X38038500Y15024000D01*
X36400000Y16300000D02*
X37676000Y15024000D01*
X12537101Y12102701D02*
X7194701Y12102701D01*
X7194701Y12102701D02*
X6600000Y11508000D01*
X15876700Y15442300D02*
X12537101Y12102701D01*
D28*
X22050000Y29850000D02*
X22050000Y26700000D01*
X14350000Y33000000D02*
X14650000Y32700000D01*
X14800000Y31000000D02*
X15550000Y30250000D01*
X13850000Y33000000D02*
X14350000Y33000000D01*
D25*
X5300000Y18550000D02*
X3750000Y18550000D01*
D28*
X21650000Y30250000D02*
X22050000Y29850000D01*
X15550000Y30250000D02*
X21650000Y30250000D01*
X14650000Y32700000D02*
X14800000Y32550000D01*
X14800000Y32550000D02*
X14800000Y31000000D01*
D27*
X8459982Y13807318D02*
X8876700Y13390600D01*
X17184300Y19627700D02*
X15168500Y19627700D01*
X8459982Y14770910D02*
X8459982Y13807318D01*
X9391773Y15702701D02*
X8459982Y14770910D01*
X11243501Y15702701D02*
X9391773Y15702701D01*
X15168500Y19627700D02*
X11243501Y15702701D01*
X17225600Y17816400D02*
X17109400Y17932600D01*
X15517500Y17932600D02*
X11900363Y14315463D01*
X11900363Y14315463D02*
X8962683Y14315463D01*
X17109400Y17932600D02*
X15517500Y17932600D01*
X11443000Y15200000D02*
X9600000Y15200000D01*
X14831700Y18588700D02*
X11549200Y15306200D01*
X11549200Y15306200D02*
X11443000Y15200000D01*
X17219200Y18588700D02*
X14831700Y18588700D01*
G04 #@! TA.AperFunction,Conductor*
G36*
X14392121Y41579998D02*
G01*
X14438614Y41526342D01*
X14450000Y41474000D01*
X14450000Y40836555D01*
X14429998Y40768434D01*
X14376342Y40721941D01*
X14359942Y40715790D01*
X14359858Y40715765D01*
X14351726Y40713637D01*
X14280595Y40697542D01*
X14235591Y40680041D01*
X14225188Y40676509D01*
X14213296Y40673043D01*
X14183324Y40664308D01*
X14183318Y40664306D01*
X14178838Y40663000D01*
X14174597Y40661045D01*
X14174592Y40661043D01*
X14112611Y40632469D01*
X14105527Y40629462D01*
X14061519Y40612348D01*
X14037550Y40603027D01*
X14033495Y40600709D01*
X14033486Y40600705D01*
X13995624Y40579065D01*
X13985853Y40574032D01*
X13942016Y40553823D01*
X13881014Y40513829D01*
X13874483Y40509826D01*
X13811145Y40473625D01*
X13773227Y40443733D01*
X13764325Y40437324D01*
X13723933Y40410842D01*
X13720453Y40407736D01*
X13720440Y40407726D01*
X13669506Y40362264D01*
X13663637Y40357339D01*
X13606353Y40312180D01*
X13573270Y40277011D01*
X13565405Y40269350D01*
X13529379Y40237196D01*
X13526386Y40233597D01*
X13482747Y40181127D01*
X13477648Y40175364D01*
X13427674Y40122239D01*
X13425012Y40118401D01*
X13425005Y40118393D01*
X13400150Y40082564D01*
X13393497Y40073815D01*
X13362629Y40036700D01*
X13360206Y40032707D01*
X13324792Y39974347D01*
X13320613Y39967911D01*
X13279032Y39907973D01*
X13257670Y39864654D01*
X13252398Y39855045D01*
X13227345Y39813760D01*
X13210023Y39772450D01*
X13199143Y39746505D01*
X13195952Y39739503D01*
X13171893Y39690715D01*
X13163694Y39674090D01*
X13162272Y39669647D01*
X13162271Y39669645D01*
X13148975Y39628108D01*
X13145170Y39617796D01*
X13128308Y39577585D01*
X13128306Y39577578D01*
X13126500Y39573272D01*
X13115360Y39529405D01*
X13108551Y39502595D01*
X13106430Y39495197D01*
X13085619Y39430184D01*
X13084193Y39425728D01*
X13083442Y39421115D01*
X13083441Y39421112D01*
X13076432Y39378072D01*
X13074194Y39367312D01*
X13062310Y39320520D01*
X13061841Y39315866D01*
X13061841Y39315864D01*
X13055005Y39247973D01*
X13054000Y39240342D01*
X13043027Y39172968D01*
X13043026Y39172954D01*
X13042275Y39168344D01*
X13041936Y39142409D01*
X13041643Y39120067D01*
X13041020Y39109092D01*
X13036183Y39061056D01*
X13036407Y39056390D01*
X13036407Y39056386D01*
X13039683Y38988201D01*
X13039817Y38980520D01*
X13038862Y38907590D01*
X13045371Y38859764D01*
X13046376Y38848824D01*
X13048694Y38800581D01*
X13049606Y38795998D01*
X13049606Y38795995D01*
X13062926Y38729034D01*
X13064195Y38721447D01*
X13074028Y38649196D01*
X13075336Y38644709D01*
X13075336Y38644708D01*
X13087534Y38602859D01*
X13090147Y38592182D01*
X13098656Y38549402D01*
X13098658Y38549395D01*
X13099569Y38544815D01*
X13101149Y38540416D01*
X13101149Y38540414D01*
X13124217Y38476165D01*
X13126595Y38468845D01*
X13136457Y38435011D01*
X13147000Y38398838D01*
X13167217Y38354984D01*
X13171371Y38344829D01*
X13186110Y38303778D01*
X13186113Y38303772D01*
X13187690Y38299379D01*
X13189904Y38295259D01*
X13189906Y38295254D01*
X13222213Y38235127D01*
X13225647Y38228241D01*
X13256177Y38162016D01*
X13258742Y38158104D01*
X13282647Y38121643D01*
X13288258Y38112212D01*
X13311120Y38069664D01*
X13354759Y38011225D01*
X13359173Y38004920D01*
X13396588Y37947852D01*
X13396592Y37947847D01*
X13399158Y37943933D01*
X13431313Y37907907D01*
X13438254Y37899413D01*
X13467149Y37860717D01*
X13518943Y37809372D01*
X13524227Y37803804D01*
X13572804Y37749379D01*
X13609643Y37718740D01*
X13609920Y37718510D01*
X13618057Y37711119D01*
X13649025Y37680420D01*
X13649033Y37680413D01*
X13652348Y37677127D01*
X13656114Y37674365D01*
X13656116Y37674364D01*
X13711159Y37634005D01*
X13717223Y37629267D01*
X13769696Y37585626D01*
X13769700Y37585623D01*
X13773300Y37582629D01*
X13795606Y37569093D01*
X13814564Y37557589D01*
X13823701Y37551484D01*
X13858876Y37525693D01*
X13858881Y37525690D01*
X13862649Y37522927D01*
X13927196Y37488967D01*
X13933893Y37485178D01*
X13992243Y37449770D01*
X13992247Y37449768D01*
X13996240Y37447345D01*
X14040761Y37428676D01*
X14050701Y37423989D01*
X14093433Y37401506D01*
X14162316Y37377451D01*
X14169437Y37374717D01*
X14236728Y37346500D01*
X14283544Y37334611D01*
X14294046Y37331450D01*
X14339629Y37315531D01*
X14344212Y37314661D01*
X14344219Y37314659D01*
X14347506Y37314035D01*
X14348557Y37313497D01*
X14348739Y37313448D01*
X14348729Y37313409D01*
X14410699Y37281676D01*
X14446366Y37220289D01*
X14450000Y37190247D01*
X14450000Y35540543D01*
X14429998Y35472422D01*
X14376342Y35425929D01*
X14306068Y35415825D01*
X14241488Y35445319D01*
X14223174Y35464978D01*
X14160785Y35548224D01*
X14155404Y35555404D01*
X14134977Y35570713D01*
X14046946Y35636689D01*
X14046943Y35636691D01*
X14039764Y35642071D01*
X13998442Y35657562D01*
X13911842Y35690026D01*
X13911841Y35690026D01*
X13904447Y35692798D01*
X13896597Y35693651D01*
X13896596Y35693651D01*
X13846152Y35699131D01*
X13846151Y35699131D01*
X13842755Y35699500D01*
X13295081Y35699500D01*
X12747246Y35699499D01*
X12743852Y35699130D01*
X12743846Y35699130D01*
X12693411Y35693652D01*
X12693407Y35693651D01*
X12685553Y35692798D01*
X12550236Y35642071D01*
X12543057Y35636691D01*
X12543054Y35636689D01*
X12455023Y35570713D01*
X12434596Y35555404D01*
X12429215Y35548224D01*
X12353311Y35446946D01*
X12353309Y35446943D01*
X12347929Y35439764D01*
X12297202Y35304447D01*
X12290500Y35242755D01*
X12290501Y34147246D01*
X12290870Y34143852D01*
X12290870Y34143846D01*
X12295038Y34105479D01*
X12297202Y34085553D01*
X12347929Y33950236D01*
X12353309Y33943057D01*
X12353311Y33943054D01*
X12403437Y33876172D01*
X12434596Y33834596D01*
X12441776Y33829215D01*
X12543054Y33753311D01*
X12543057Y33753309D01*
X12550236Y33747929D01*
X12558639Y33744779D01*
X12678158Y33699974D01*
X12678159Y33699974D01*
X12685553Y33697202D01*
X12693403Y33696349D01*
X12693404Y33696349D01*
X12743839Y33690870D01*
X12747245Y33690500D01*
X13294919Y33690500D01*
X13842754Y33690501D01*
X13846148Y33690870D01*
X13846154Y33690870D01*
X13896589Y33696348D01*
X13896593Y33696349D01*
X13904447Y33697202D01*
X14039764Y33747929D01*
X14046943Y33753309D01*
X14046946Y33753311D01*
X14148224Y33829215D01*
X14155404Y33834596D01*
X14223175Y33925022D01*
X14280033Y33967537D01*
X14350851Y33972563D01*
X14413145Y33938503D01*
X14447135Y33876172D01*
X14450000Y33849457D01*
X14450000Y32167850D01*
X14429998Y32099729D01*
X14376342Y32053236D01*
X14306068Y32043132D01*
X14241488Y32072626D01*
X14212749Y32108696D01*
X14138611Y32248129D01*
X14138609Y32248132D01*
X14135717Y32253571D01*
X14011212Y32406230D01*
X13897863Y32500000D01*
X13864177Y32527868D01*
X13864174Y32527870D01*
X13859427Y32531797D01*
X13686143Y32625492D01*
X13497960Y32683744D01*
X13491835Y32684388D01*
X13491834Y32684388D01*
X13308176Y32703691D01*
X13308174Y32703691D01*
X13302047Y32704335D01*
X13220018Y32696870D01*
X13112004Y32687040D01*
X13112001Y32687039D01*
X13105865Y32686481D01*
X13099959Y32684743D01*
X13099955Y32684742D01*
X12989999Y32652380D01*
X12916887Y32630862D01*
X12911427Y32628008D01*
X12911428Y32628008D01*
X12747772Y32542451D01*
X12747768Y32542448D01*
X12742312Y32539596D01*
X12588788Y32416160D01*
X12462163Y32265255D01*
X12455740Y32253571D01*
X12371038Y32099497D01*
X12367262Y32092629D01*
X12365398Y32086754D01*
X12365397Y32086751D01*
X12351560Y32043132D01*
X12307697Y31904858D01*
X12307011Y31898741D01*
X12307010Y31898737D01*
X12306250Y31891958D01*
X12278781Y31826491D01*
X12220278Y31786267D01*
X12181035Y31780000D01*
X9839576Y31780000D01*
X9771455Y31800002D01*
X9724962Y31853658D01*
X9714858Y31923932D01*
X9744352Y31988512D01*
X9774767Y32013625D01*
X9779643Y32015645D01*
X9786193Y32020671D01*
X9888921Y32099497D01*
X9888924Y32099500D01*
X9895474Y32104526D01*
X9984355Y32220358D01*
X9991070Y32236568D01*
X10037069Y32347620D01*
X10040228Y32355246D01*
X10048248Y32416160D01*
X10058207Y32491812D01*
X10059285Y32500000D01*
X10053696Y32542451D01*
X10041306Y32636568D01*
X10041305Y32636570D01*
X10040228Y32644754D01*
X9984355Y32779642D01*
X9970040Y32798298D01*
X9944440Y32864515D01*
X9958704Y32934064D01*
X9970036Y32951697D01*
X9984355Y32970358D01*
X10040228Y33105246D01*
X10048903Y33171136D01*
X10058207Y33241812D01*
X10059285Y33250000D01*
X10055615Y33277874D01*
X10041306Y33386568D01*
X10041305Y33386570D01*
X10040228Y33394754D01*
X9984355Y33529642D01*
X9895474Y33645474D01*
X9888924Y33650500D01*
X9888921Y33650503D01*
X9786196Y33729327D01*
X9786194Y33729328D01*
X9779643Y33734355D01*
X9644754Y33790228D01*
X9500000Y33809285D01*
X9491812Y33808207D01*
X9363432Y33791306D01*
X9363430Y33791305D01*
X9355246Y33790228D01*
X9307430Y33770422D01*
X9227986Y33737515D01*
X9227984Y33737514D01*
X9220358Y33734355D01*
X9104526Y33645474D01*
X9015645Y33529642D01*
X8959772Y33394754D01*
X8958695Y33386570D01*
X8958694Y33386568D01*
X8944385Y33277874D01*
X8940715Y33250000D01*
X8941793Y33241812D01*
X8951098Y33171136D01*
X8959772Y33105246D01*
X9015645Y32970358D01*
X9029960Y32951702D01*
X9055560Y32885485D01*
X9041296Y32815936D01*
X9029964Y32798303D01*
X9015645Y32779642D01*
X9012487Y32772017D01*
X8988464Y32714022D01*
X8943915Y32658742D01*
X8876552Y32636321D01*
X8845740Y32639820D01*
X8844754Y32640228D01*
X8700000Y32659285D01*
X8691812Y32658207D01*
X8563432Y32641306D01*
X8563430Y32641305D01*
X8555246Y32640228D01*
X8547619Y32637069D01*
X8547620Y32637069D01*
X8427986Y32587515D01*
X8427984Y32587514D01*
X8420358Y32584355D01*
X8304526Y32495474D01*
X8215645Y32379642D01*
X8212486Y32372016D01*
X8212485Y32372014D01*
X8198010Y32337068D01*
X8159772Y32244754D01*
X8158695Y32236570D01*
X8158694Y32236568D01*
X8143841Y32123745D01*
X8140715Y32100000D01*
X8141793Y32091812D01*
X8146872Y32053236D01*
X8159772Y31955246D01*
X8162931Y31947621D01*
X8165070Y31939636D01*
X8161864Y31938777D01*
X8167779Y31883587D01*
X8135978Y31820111D01*
X8074908Y31783904D01*
X8043788Y31780000D01*
X6472417Y31780000D01*
X6404296Y31800002D01*
X6357803Y31853658D01*
X6347495Y31889554D01*
X6341306Y31936568D01*
X6341305Y31936570D01*
X6340228Y31944754D01*
X6284355Y32079642D01*
X6195474Y32195474D01*
X6188924Y32200500D01*
X6188921Y32200503D01*
X6086196Y32279327D01*
X6086194Y32279328D01*
X6079643Y32284355D01*
X5944754Y32340228D01*
X5800000Y32359285D01*
X5791812Y32358207D01*
X5663432Y32341306D01*
X5663430Y32341305D01*
X5655246Y32340228D01*
X5607430Y32320422D01*
X5527986Y32287515D01*
X5527984Y32287514D01*
X5520358Y32284355D01*
X5404526Y32195474D01*
X5315645Y32079642D01*
X5259772Y31944754D01*
X5258695Y31936570D01*
X5258694Y31936568D01*
X5252505Y31889554D01*
X5223783Y31824627D01*
X5164518Y31785535D01*
X5127583Y31780000D01*
X4000000Y31780000D01*
X4000000Y29665257D01*
X3979998Y29597136D01*
X3926342Y29550643D01*
X3890446Y29540335D01*
X3876959Y29538560D01*
X3867433Y29537306D01*
X3867432Y29537306D01*
X3859246Y29536228D01*
X3851619Y29533069D01*
X3851620Y29533069D01*
X3731986Y29483515D01*
X3731984Y29483514D01*
X3724358Y29480355D01*
X3608526Y29391474D01*
X3519645Y29275642D01*
X3463772Y29140754D01*
X3444715Y28996000D01*
X3463772Y28851246D01*
X3519645Y28716358D01*
X3524672Y28709807D01*
X3552758Y28673204D01*
X3578358Y28606983D01*
X3564093Y28537434D01*
X3514492Y28486639D01*
X3452795Y28470500D01*
X2749749Y28470500D01*
X2738768Y28470979D01*
X2711509Y28473364D01*
X2711508Y28473364D01*
X2700533Y28474324D01*
X2663461Y28464391D01*
X2652745Y28462016D01*
X2614949Y28455351D01*
X2605403Y28449840D01*
X2601914Y28448570D01*
X2598535Y28446994D01*
X2587883Y28444140D01*
X2556439Y28422122D01*
X2547183Y28416226D01*
X2513951Y28397039D01*
X2506866Y28388596D01*
X2506863Y28388593D01*
X2489278Y28367636D01*
X2481852Y28359532D01*
X2281822Y28159502D01*
X2219510Y28125476D01*
X2163951Y28125927D01*
X2160018Y28126850D01*
X2153381Y28129213D01*
X2146389Y28130047D01*
X2146388Y28130047D01*
X2069341Y28139234D01*
X1985301Y28149255D01*
X1978298Y28148519D01*
X1978297Y28148519D01*
X1823965Y28132299D01*
X1823961Y28132298D01*
X1816957Y28131562D01*
X1810286Y28129291D01*
X1663387Y28079283D01*
X1663384Y28079282D01*
X1656717Y28077012D01*
X1650719Y28073322D01*
X1650717Y28073321D01*
X1518543Y27992007D01*
X1518541Y27992005D01*
X1512544Y27988316D01*
X1391605Y27869883D01*
X1299909Y27727600D01*
X1297498Y27720975D01*
X1244425Y27575160D01*
X1244424Y27575155D01*
X1242015Y27568537D01*
X1220800Y27400601D01*
X1237318Y27232138D01*
X1290748Y27071521D01*
X1294397Y27065496D01*
X1321734Y27020358D01*
X1378435Y26926733D01*
X1383326Y26921668D01*
X1383327Y26921667D01*
X1460142Y26842123D01*
X1493074Y26779226D01*
X1486774Y26708510D01*
X1457663Y26664573D01*
X1445322Y26652487D01*
X1391605Y26599883D01*
X1299909Y26457600D01*
X1297498Y26450975D01*
X1244425Y26305160D01*
X1244424Y26305155D01*
X1242015Y26298537D01*
X1220800Y26130601D01*
X1237318Y25962138D01*
X1290748Y25801521D01*
X1378435Y25656733D01*
X1383326Y25651668D01*
X1383327Y25651667D01*
X1460142Y25572123D01*
X1493074Y25509226D01*
X1486774Y25438510D01*
X1457663Y25394573D01*
X1426607Y25364159D01*
X1391605Y25329883D01*
X1387794Y25323969D01*
X1387792Y25323967D01*
X1336743Y25244754D01*
X1299909Y25187600D01*
X1297498Y25180975D01*
X1244425Y25035160D01*
X1244424Y25035155D01*
X1242015Y25028537D01*
X1220800Y24860601D01*
X1237318Y24692138D01*
X1290748Y24531521D01*
X1378435Y24386733D01*
X1383326Y24381668D01*
X1383327Y24381667D01*
X1450466Y24312143D01*
X1496021Y24264969D01*
X1517975Y24250602D01*
X1564023Y24196567D01*
X1564328Y24195755D01*
X1564850Y24192283D01*
X1567831Y24186076D01*
X1569067Y24179306D01*
X1573407Y24170950D01*
X1573410Y24170943D01*
X1594821Y24129727D01*
X1596559Y24126250D01*
X1620757Y24075859D01*
X1625429Y24070804D01*
X1628603Y24064695D01*
X1632717Y24059879D01*
X1668142Y24024454D01*
X1671571Y24020888D01*
X1708425Y23981019D01*
X1714549Y23977462D01*
X1720157Y23972438D01*
X2119114Y23573481D01*
X2119117Y23573479D01*
X2172982Y23519614D01*
X2182837Y23508525D01*
X2202666Y23483372D01*
X2248620Y23451612D01*
X2251825Y23449321D01*
X2296754Y23416135D01*
X2303251Y23413853D01*
X2308912Y23409941D01*
X2317887Y23407103D01*
X2317886Y23407103D01*
X2362146Y23393105D01*
X2365897Y23391853D01*
X2409723Y23376463D01*
X2409728Y23376462D01*
X2418610Y23373343D01*
X2425490Y23373073D01*
X2432053Y23370997D01*
X2438367Y23370500D01*
X2488484Y23370500D01*
X2493430Y23370403D01*
X2547663Y23368272D01*
X2554506Y23370087D01*
X2562019Y23370500D01*
X3874000Y23370500D01*
X3942121Y23350498D01*
X3988614Y23296842D01*
X4000000Y23244500D01*
X4000000Y22232115D01*
X3979998Y22163994D01*
X3926342Y22117501D01*
X3856068Y22107397D01*
X3791488Y22136891D01*
X3757591Y22183897D01*
X3747249Y22208864D01*
X3747249Y22208865D01*
X3744088Y22216495D01*
X3655207Y22332327D01*
X3648657Y22337353D01*
X3648654Y22337356D01*
X3545929Y22416180D01*
X3545927Y22416181D01*
X3539376Y22421208D01*
X3404487Y22477081D01*
X3396299Y22478159D01*
X3332525Y22486555D01*
X3267598Y22515278D01*
X3232563Y22563259D01*
X3187516Y22672011D01*
X3187516Y22672012D01*
X3184355Y22679642D01*
X3095474Y22795474D01*
X3088924Y22800500D01*
X3088921Y22800503D01*
X2986196Y22879327D01*
X2986194Y22879328D01*
X2979643Y22884355D01*
X2844754Y22940228D01*
X2700000Y22959285D01*
X2691812Y22958207D01*
X2563432Y22941306D01*
X2563430Y22941305D01*
X2555246Y22940228D01*
X2507430Y22920422D01*
X2427986Y22887515D01*
X2427984Y22887514D01*
X2420358Y22884355D01*
X2304526Y22795474D01*
X2215645Y22679642D01*
X2159772Y22544754D01*
X2158695Y22536570D01*
X2158694Y22536568D01*
X2153148Y22494442D01*
X2140715Y22400000D01*
X2159772Y22255246D01*
X2162931Y22247620D01*
X2208797Y22136891D01*
X2215645Y22120358D01*
X2304526Y22004526D01*
X2311076Y21999500D01*
X2311079Y21999497D01*
X2392718Y21936853D01*
X2420357Y21915645D01*
X2555246Y21859772D01*
X2563434Y21858694D01*
X2627208Y21850298D01*
X2692135Y21821575D01*
X2727170Y21773594D01*
X2775378Y21657211D01*
X2780405Y21650660D01*
X2824924Y21592642D01*
X2864259Y21541379D01*
X2870809Y21536353D01*
X2870812Y21536350D01*
X2972157Y21458585D01*
X2980090Y21452498D01*
X3114979Y21396625D01*
X3259733Y21377568D01*
X3267921Y21378646D01*
X3396299Y21395547D01*
X3404487Y21396625D01*
X3539376Y21452498D01*
X3547309Y21458585D01*
X3648654Y21536350D01*
X3648657Y21536353D01*
X3655207Y21541379D01*
X3694543Y21592642D01*
X3739061Y21650660D01*
X3744088Y21657211D01*
X3757591Y21689809D01*
X3802139Y21745090D01*
X3869503Y21767511D01*
X3938294Y21749953D01*
X3986672Y21697991D01*
X4000000Y21641591D01*
X4000000Y17593188D01*
X3979998Y17525067D01*
X3973963Y17516484D01*
X3929772Y17458893D01*
X3872434Y17417026D01*
X3801563Y17412804D01*
X3739660Y17447568D01*
X3717844Y17477807D01*
X3710445Y17492142D01*
X3710441Y17492148D01*
X3706958Y17498896D01*
X3693951Y17513807D01*
X3599861Y17621664D01*
X3594865Y17627391D01*
X3455357Y17725438D01*
X3359488Y17762816D01*
X3303569Y17784618D01*
X3303566Y17784619D01*
X3296489Y17787378D01*
X3288956Y17788370D01*
X3288955Y17788370D01*
X3170523Y17803962D01*
X3170522Y17803962D01*
X3166436Y17804500D01*
X2577244Y17804500D01*
X2540058Y17800000D01*
X2485904Y17793447D01*
X2415873Y17805120D01*
X2363271Y17852802D01*
X2345845Y17902088D01*
X2341306Y17936568D01*
X2341305Y17936570D01*
X2340228Y17944754D01*
X2284355Y18079642D01*
X2195474Y18195474D01*
X2188924Y18200500D01*
X2188921Y18200503D01*
X2086196Y18279327D01*
X2086194Y18279328D01*
X2079643Y18284355D01*
X1944754Y18340228D01*
X1800000Y18359285D01*
X1791812Y18358207D01*
X1663432Y18341306D01*
X1663430Y18341305D01*
X1655246Y18340228D01*
X1634081Y18331461D01*
X1527986Y18287515D01*
X1527984Y18287514D01*
X1520358Y18284355D01*
X1404526Y18195474D01*
X1315645Y18079642D01*
X1259772Y17944754D01*
X1240715Y17800000D01*
X1241793Y17791812D01*
X1253627Y17701926D01*
X1259772Y17655246D01*
X1262931Y17647620D01*
X1308290Y17538115D01*
X1315645Y17520358D01*
X1337296Y17492142D01*
X1398836Y17411942D01*
X1404526Y17404526D01*
X1411076Y17399500D01*
X1411079Y17399497D01*
X1488320Y17340228D01*
X1520357Y17315645D01*
X1655246Y17259772D01*
X1663434Y17258694D01*
X1800000Y17240715D01*
X1799747Y17238795D01*
X1857658Y17221791D01*
X1904151Y17168135D01*
X1915535Y17115134D01*
X1915227Y17056162D01*
X1915029Y17018432D01*
X1916801Y17011052D01*
X1916801Y17011050D01*
X1920541Y16995474D01*
X1954835Y16852627D01*
X1975312Y16812953D01*
X2010513Y16744754D01*
X2033042Y16701104D01*
X2038034Y16695382D01*
X2038035Y16695380D01*
X2051614Y16679815D01*
X2145135Y16572609D01*
X2151021Y16568472D01*
X2188172Y16508171D01*
X2186820Y16437188D01*
X2151543Y16382924D01*
X2150684Y16382334D01*
X2141182Y16371669D01*
X2042305Y16260693D01*
X2042303Y16260690D01*
X2037252Y16255021D01*
X1957462Y16104324D01*
X1955612Y16096959D01*
X1930121Y15995474D01*
X1915922Y15938946D01*
X1915029Y15768432D01*
X1916801Y15761052D01*
X1916801Y15761050D01*
X1947982Y15631171D01*
X1944435Y15560263D01*
X1903115Y15502529D01*
X1837141Y15476299D01*
X1777246Y15485348D01*
X1644754Y15540228D01*
X1500000Y15559285D01*
X1491812Y15558207D01*
X1363432Y15541306D01*
X1363430Y15541305D01*
X1355246Y15540228D01*
X1307430Y15520422D01*
X1227986Y15487515D01*
X1227984Y15487514D01*
X1220358Y15484355D01*
X1104526Y15395474D01*
X1015645Y15279642D01*
X1012486Y15272016D01*
X1012485Y15272014D01*
X994635Y15228920D01*
X959772Y15144754D01*
X958695Y15136570D01*
X958694Y15136568D01*
X957486Y15127391D01*
X940715Y15000000D01*
X941793Y14991812D01*
X958259Y14866742D01*
X959772Y14855246D01*
X1015645Y14720358D01*
X1104526Y14604526D01*
X1111076Y14599500D01*
X1111079Y14599497D01*
X1213804Y14520673D01*
X1220357Y14515645D01*
X1355246Y14459772D01*
X1500000Y14440715D01*
X1508188Y14441793D01*
X1636566Y14458694D01*
X1644754Y14459772D01*
X1767094Y14510447D01*
X1837684Y14518036D01*
X1901171Y14486257D01*
X1937830Y14423453D01*
X1953061Y14360013D01*
X1953063Y14360007D01*
X1954835Y14352627D01*
X1958316Y14345883D01*
X2020398Y14225601D01*
X2033867Y14155894D01*
X2007512Y14089970D01*
X1990429Y14072142D01*
X1927504Y14018210D01*
X1918756Y14009024D01*
X1807289Y13865320D01*
X1800565Y13854560D01*
X1720268Y13691375D01*
X1715845Y13679481D01*
X1700749Y13621530D01*
X1701183Y13607436D01*
X1709364Y13604000D01*
X2998000Y13604000D01*
X3066121Y13583998D01*
X3112614Y13530342D01*
X3124000Y13478000D01*
X3124000Y13222000D01*
X3103998Y13153879D01*
X3050342Y13107386D01*
X2998000Y13096000D01*
X1710771Y13096000D01*
X1697240Y13092027D01*
X1696363Y13085925D01*
X1752310Y12933864D01*
X1757877Y12922451D01*
X1853708Y12767892D01*
X1861460Y12757826D01*
X1986411Y12625694D01*
X1989152Y12623328D01*
X1990234Y12621651D01*
X1990795Y12621058D01*
X1990684Y12620953D01*
X2027649Y12563675D01*
X2027783Y12492678D01*
X2018174Y12468989D01*
X1972051Y12381877D01*
X1957462Y12354324D01*
X1915922Y12188946D01*
X1915029Y12018432D01*
X1916801Y12011052D01*
X1916801Y12011050D01*
X1948486Y11879074D01*
X1954835Y11852627D01*
X1958316Y11845883D01*
X2010513Y11744754D01*
X2033042Y11701104D01*
X2100138Y11624191D01*
X2101078Y11623113D01*
X2130786Y11558631D01*
X2120916Y11488324D01*
X2081695Y11439459D01*
X2059637Y11422927D01*
X2059634Y11422924D01*
X2052456Y11417544D01*
X2047077Y11410367D01*
X1975465Y11314817D01*
X1975463Y11314814D01*
X1970083Y11307635D01*
X1966933Y11299231D01*
X1966932Y11299230D01*
X1960484Y11282028D01*
X1921870Y11179024D01*
X1915500Y11120389D01*
X1915501Y10904526D01*
X1915501Y10816653D01*
X1895499Y10748533D01*
X1841844Y10702040D01*
X1771570Y10691935D01*
X1741287Y10700243D01*
X1644754Y10740228D01*
X1500000Y10759285D01*
X1491812Y10758207D01*
X1363432Y10741306D01*
X1363430Y10741305D01*
X1355246Y10740228D01*
X1347619Y10737069D01*
X1347620Y10737069D01*
X1227986Y10687515D01*
X1227984Y10687514D01*
X1220358Y10684355D01*
X1104526Y10595474D01*
X1015645Y10479642D01*
X959772Y10344754D01*
X940715Y10200000D01*
X941793Y10191812D01*
X952749Y10108595D01*
X959772Y10055246D01*
X1015645Y9920358D01*
X1104526Y9804526D01*
X1111076Y9799500D01*
X1111079Y9799497D01*
X1213804Y9720673D01*
X1220357Y9715645D01*
X1355246Y9659772D01*
X1500000Y9640715D01*
X1508188Y9641793D01*
X1636566Y9658694D01*
X1644754Y9659772D01*
X1779643Y9715645D01*
X1786196Y9720673D01*
X1888921Y9799497D01*
X1888924Y9799500D01*
X1895474Y9804526D01*
X1984355Y9920358D01*
X2040228Y10055246D01*
X2043449Y10079713D01*
X2072170Y10144641D01*
X2131435Y10183734D01*
X2202426Y10184580D01*
X2212599Y10181251D01*
X2283578Y10154643D01*
X2283580Y10154642D01*
X2290976Y10151870D01*
X2298826Y10151017D01*
X2298827Y10151017D01*
X2346214Y10145869D01*
X2349611Y10145500D01*
X2808839Y10145500D01*
X2876960Y10125498D01*
X2897934Y10108595D01*
X3963095Y9043434D01*
X3997121Y8981122D01*
X4000000Y8954339D01*
X4000000Y8826000D01*
X3979998Y8757879D01*
X3926342Y8711386D01*
X3874000Y8700000D01*
X3101534Y8700000D01*
X3033413Y8720002D01*
X2994536Y8766531D01*
X2991644Y8764861D01*
X2987516Y8772011D01*
X2984355Y8779642D01*
X2895474Y8895474D01*
X2888924Y8900500D01*
X2888921Y8900503D01*
X2786196Y8979327D01*
X2786194Y8979328D01*
X2779643Y8984355D01*
X2644754Y9040228D01*
X2500000Y9059285D01*
X2491812Y9058207D01*
X2363432Y9041306D01*
X2363430Y9041305D01*
X2355246Y9040228D01*
X2307430Y9020422D01*
X2227986Y8987515D01*
X2227984Y8987514D01*
X2220358Y8984355D01*
X2104526Y8895474D01*
X2015645Y8779642D01*
X2012484Y8772011D01*
X2008356Y8764861D01*
X2005695Y8766397D01*
X1970347Y8722515D01*
X1898466Y8700000D01*
X526000Y8700000D01*
X457879Y8720002D01*
X411386Y8773658D01*
X400000Y8826000D01*
X400000Y19400000D01*
X1340715Y19400000D01*
X1359772Y19255246D01*
X1415645Y19120358D01*
X1504526Y19004526D01*
X1511076Y18999500D01*
X1511079Y18999497D01*
X1613804Y18920673D01*
X1620357Y18915645D01*
X1755246Y18859772D01*
X1900000Y18840715D01*
X1908188Y18841793D01*
X2036566Y18858694D01*
X2044754Y18859772D01*
X2179643Y18915645D01*
X2186196Y18920673D01*
X2288921Y18999497D01*
X2288924Y18999500D01*
X2295474Y19004526D01*
X2384355Y19120358D01*
X2440228Y19255246D01*
X2459285Y19400000D01*
X2450022Y19470358D01*
X2441306Y19536568D01*
X2441305Y19536570D01*
X2440228Y19544754D01*
X2384355Y19679642D01*
X2295474Y19795474D01*
X2288924Y19800500D01*
X2288921Y19800503D01*
X2186196Y19879327D01*
X2186194Y19879328D01*
X2179643Y19884355D01*
X2044754Y19940228D01*
X1900000Y19959285D01*
X1891812Y19958207D01*
X1763432Y19941306D01*
X1763430Y19941305D01*
X1755246Y19940228D01*
X1735479Y19932040D01*
X1627986Y19887515D01*
X1627984Y19887514D01*
X1620358Y19884355D01*
X1504526Y19795474D01*
X1415645Y19679642D01*
X1359772Y19544754D01*
X1358695Y19536570D01*
X1358694Y19536568D01*
X1349978Y19470358D01*
X1340715Y19400000D01*
X400000Y19400000D01*
X400000Y35250000D01*
X690715Y35250000D01*
X709772Y35105246D01*
X765645Y34970358D01*
X854526Y34854526D01*
X861076Y34849500D01*
X861079Y34849497D01*
X963804Y34770673D01*
X970357Y34765645D01*
X1105246Y34709772D01*
X1250000Y34690715D01*
X1258188Y34691793D01*
X1386566Y34708694D01*
X1394754Y34709772D01*
X1529643Y34765645D01*
X1536196Y34770673D01*
X1638921Y34849497D01*
X1638924Y34849500D01*
X1645474Y34854526D01*
X1734355Y34970358D01*
X1790228Y35105246D01*
X1809285Y35250000D01*
X1802117Y35304447D01*
X1791306Y35386568D01*
X1791305Y35386570D01*
X1790228Y35394754D01*
X1734355Y35529642D01*
X1645474Y35645474D01*
X1638924Y35650500D01*
X1638921Y35650503D01*
X1536196Y35729327D01*
X1536194Y35729328D01*
X1529643Y35734355D01*
X1394754Y35790228D01*
X1250000Y35809285D01*
X1241812Y35808207D01*
X1113432Y35791306D01*
X1113430Y35791305D01*
X1105246Y35790228D01*
X1061897Y35772272D01*
X977986Y35737515D01*
X977984Y35737514D01*
X970358Y35734355D01*
X854526Y35645474D01*
X765645Y35529642D01*
X709772Y35394754D01*
X708695Y35386570D01*
X708694Y35386568D01*
X697883Y35304447D01*
X690715Y35250000D01*
X400000Y35250000D01*
X400000Y36512076D01*
X2040447Y36512076D01*
X2059378Y36138376D01*
X2118557Y35768906D01*
X2217293Y35407989D01*
X2354430Y35059846D01*
X2528365Y34728550D01*
X2530262Y34725726D01*
X2530265Y34725722D01*
X2553789Y34690715D01*
X2737061Y34417976D01*
X2739256Y34415370D01*
X2739260Y34415364D01*
X2758961Y34391969D01*
X2978079Y34131759D01*
X3248598Y33873245D01*
X3545455Y33645459D01*
X3865176Y33451065D01*
X4204021Y33292339D01*
X4207239Y33291237D01*
X4207242Y33291236D01*
X4554803Y33172239D01*
X4554811Y33172237D01*
X4558026Y33171136D01*
X4923051Y33088874D01*
X5010200Y33078944D01*
X5291442Y33046900D01*
X5291450Y33046900D01*
X5294825Y33046515D01*
X5298229Y33046497D01*
X5298232Y33046497D01*
X5501556Y33045433D01*
X5668999Y33044556D01*
X5672385Y33044906D01*
X5672387Y33044906D01*
X6037805Y33082668D01*
X6037814Y33082669D01*
X6041197Y33083019D01*
X6044530Y33083733D01*
X6044533Y33083734D01*
X6224820Y33122384D01*
X6407063Y33161454D01*
X6762318Y33278944D01*
X7102807Y33434113D01*
X7274729Y33536193D01*
X7421601Y33623399D01*
X7421606Y33623402D01*
X7424546Y33625148D01*
X7454354Y33647528D01*
X7583879Y33744779D01*
X7723771Y33849813D01*
X7996983Y34105479D01*
X8240985Y34389158D01*
X8448980Y34691793D01*
X8450992Y34694720D01*
X8450997Y34694727D01*
X8452922Y34697529D01*
X8454534Y34700523D01*
X8454539Y34700531D01*
X8628694Y35023973D01*
X8630316Y35026985D01*
X8771091Y35373673D01*
X8779269Y35402380D01*
X8847546Y35642071D01*
X8873601Y35733537D01*
X8936647Y36102366D01*
X8938850Y36138376D01*
X8959380Y36474052D01*
X8959490Y36475848D01*
X8959574Y36500000D01*
X8939339Y36873632D01*
X8878870Y37242893D01*
X8778875Y37603463D01*
X8775627Y37611627D01*
X8641783Y37947961D01*
X8641779Y37947969D01*
X8640523Y37951126D01*
X8465434Y38281812D01*
X8463534Y38284618D01*
X8463530Y38284625D01*
X8287367Y38544815D01*
X8255654Y38591655D01*
X8013639Y38877030D01*
X7742219Y39134598D01*
X7739512Y39136660D01*
X7739504Y39136667D01*
X7447281Y39359280D01*
X7444569Y39361346D01*
X7222683Y39495197D01*
X7127100Y39552857D01*
X7127096Y39552859D01*
X7124172Y39554623D01*
X7121082Y39556057D01*
X7121077Y39556060D01*
X6787871Y39710728D01*
X6787869Y39710729D01*
X6784775Y39712165D01*
X6781540Y39713260D01*
X6781535Y39713262D01*
X6433583Y39831037D01*
X6430348Y39832132D01*
X6065038Y39913119D01*
X5892253Y39932195D01*
X5696500Y39953807D01*
X5696495Y39953807D01*
X5693119Y39954180D01*
X5689720Y39954186D01*
X5689719Y39954186D01*
X5512987Y39954494D01*
X5318940Y39954833D01*
X5180079Y39939993D01*
X4950263Y39915433D01*
X4950257Y39915432D01*
X4946879Y39915071D01*
X4581289Y39835359D01*
X4226446Y39716631D01*
X4223353Y39715209D01*
X4223352Y39715208D01*
X4209190Y39708694D01*
X3886501Y39560273D01*
X3883567Y39558517D01*
X3883565Y39558516D01*
X3874110Y39552857D01*
X3565431Y39368117D01*
X3266991Y39142409D01*
X3264509Y39140070D01*
X3264503Y39140065D01*
X3131788Y39015000D01*
X2994674Y38885790D01*
X2992462Y38883200D01*
X2992461Y38883199D01*
X2788770Y38644708D01*
X2751664Y38601262D01*
X2749736Y38598435D01*
X2749734Y38598433D01*
X2567031Y38330600D01*
X2540804Y38292153D01*
X2539197Y38289143D01*
X2539195Y38289140D01*
X2389156Y38008142D01*
X2364561Y37962079D01*
X2363288Y37958911D01*
X2363287Y37958910D01*
X2230772Y37629267D01*
X2224997Y37614902D01*
X2166300Y37406082D01*
X2131510Y37282310D01*
X2123744Y37254683D01*
X2061986Y36885635D01*
X2040447Y36512076D01*
X400000Y36512076D01*
X400000Y37658601D01*
X401551Y37678312D01*
X403435Y37690207D01*
X404986Y37699999D01*
X403435Y37709793D01*
X403435Y37719708D01*
X404201Y37719708D01*
X403811Y37735393D01*
X406569Y37761011D01*
X412311Y37787368D01*
X427427Y37832717D01*
X438646Y37857244D01*
X451815Y37879402D01*
X461533Y37891711D01*
X460922Y37892170D01*
X464749Y37897273D01*
X468971Y37902141D01*
X473990Y37907010D01*
X475233Y37909361D01*
X476456Y37910771D01*
X2815685Y40250000D01*
X7940715Y40250000D01*
X7941793Y40241812D01*
X7950173Y40178162D01*
X7959772Y40105246D01*
X8015645Y39970358D01*
X8104526Y39854526D01*
X8111076Y39849500D01*
X8111079Y39849497D01*
X8213804Y39770673D01*
X8220357Y39765645D01*
X8355246Y39709772D01*
X8500000Y39690715D01*
X8508188Y39691793D01*
X8636566Y39708694D01*
X8644754Y39709772D01*
X8779643Y39765645D01*
X8786196Y39770673D01*
X8888921Y39849497D01*
X8888924Y39849500D01*
X8895474Y39854526D01*
X8984355Y39970358D01*
X9040228Y40105246D01*
X9049828Y40178162D01*
X9058207Y40241812D01*
X9059285Y40250000D01*
X11440715Y40250000D01*
X11441793Y40241812D01*
X11450173Y40178162D01*
X11459772Y40105246D01*
X11515645Y39970358D01*
X11604526Y39854526D01*
X11611076Y39849500D01*
X11611079Y39849497D01*
X11713804Y39770673D01*
X11720357Y39765645D01*
X11855246Y39709772D01*
X12000000Y39690715D01*
X12008188Y39691793D01*
X12136566Y39708694D01*
X12144754Y39709772D01*
X12279643Y39765645D01*
X12286196Y39770673D01*
X12388921Y39849497D01*
X12388924Y39849500D01*
X12395474Y39854526D01*
X12484355Y39970358D01*
X12540228Y40105246D01*
X12549828Y40178162D01*
X12558207Y40241812D01*
X12559285Y40250000D01*
X12544842Y40359709D01*
X12541306Y40386568D01*
X12541305Y40386570D01*
X12540228Y40394754D01*
X12491777Y40511725D01*
X12487515Y40522014D01*
X12487514Y40522016D01*
X12484355Y40529642D01*
X12439915Y40587558D01*
X12400501Y40638923D01*
X12400500Y40638924D01*
X12395474Y40645474D01*
X12388924Y40650500D01*
X12388921Y40650503D01*
X12286196Y40729327D01*
X12286194Y40729328D01*
X12279643Y40734355D01*
X12144754Y40790228D01*
X12000000Y40809285D01*
X11991812Y40808207D01*
X11863432Y40791306D01*
X11863430Y40791305D01*
X11855246Y40790228D01*
X11809159Y40771138D01*
X11727986Y40737515D01*
X11727984Y40737514D01*
X11720358Y40734355D01*
X11604526Y40645474D01*
X11515645Y40529642D01*
X11512486Y40522016D01*
X11512485Y40522014D01*
X11508223Y40511725D01*
X11459772Y40394754D01*
X11458695Y40386570D01*
X11458694Y40386568D01*
X11455158Y40359709D01*
X11440715Y40250000D01*
X9059285Y40250000D01*
X9044842Y40359709D01*
X9041306Y40386568D01*
X9041305Y40386570D01*
X9040228Y40394754D01*
X8991777Y40511725D01*
X8987515Y40522014D01*
X8987514Y40522016D01*
X8984355Y40529642D01*
X8939915Y40587558D01*
X8900501Y40638923D01*
X8900500Y40638924D01*
X8895474Y40645474D01*
X8888924Y40650500D01*
X8888921Y40650503D01*
X8786196Y40729327D01*
X8786194Y40729328D01*
X8779643Y40734355D01*
X8644754Y40790228D01*
X8500000Y40809285D01*
X8491812Y40808207D01*
X8363432Y40791306D01*
X8363430Y40791305D01*
X8355246Y40790228D01*
X8309159Y40771138D01*
X8227986Y40737515D01*
X8227984Y40737514D01*
X8220358Y40734355D01*
X8104526Y40645474D01*
X8015645Y40529642D01*
X8012486Y40522016D01*
X8012485Y40522014D01*
X8008223Y40511725D01*
X7959772Y40394754D01*
X7958695Y40386570D01*
X7958694Y40386568D01*
X7955158Y40359709D01*
X7940715Y40250000D01*
X2815685Y40250000D01*
X4089229Y41523544D01*
X4090639Y41524767D01*
X4092990Y41526010D01*
X4097859Y41531029D01*
X4102727Y41535251D01*
X4107830Y41539078D01*
X4108289Y41538467D01*
X4120599Y41548186D01*
X4142756Y41561354D01*
X4167283Y41572573D01*
X4212632Y41587689D01*
X4238989Y41593431D01*
X4264607Y41596189D01*
X4280292Y41595799D01*
X4280292Y41596565D01*
X4290207Y41596565D01*
X4300001Y41595014D01*
X4321690Y41598449D01*
X4341399Y41600000D01*
X14324000Y41600000D01*
X14392121Y41579998D01*
G37*
G04 #@! TD.AperFunction*
G04 #@! TA.AperFunction,Conductor*
G36*
X37678310Y41598449D02*
G01*
X37699999Y41595014D01*
X37709794Y41596566D01*
X37719710Y41596566D01*
X37719710Y41595380D01*
X37735309Y41595636D01*
X37769759Y41591378D01*
X37799732Y41583855D01*
X37850778Y41564121D01*
X37878017Y41549526D01*
X37906375Y41529501D01*
X37917715Y41518786D01*
X37918542Y41519695D01*
X37925882Y41513022D01*
X37932083Y41505289D01*
X37940369Y41499851D01*
X37941675Y41498664D01*
X37959676Y41483998D01*
X39434228Y40005621D01*
X41523322Y37911106D01*
X41524663Y37909558D01*
X41526010Y37907010D01*
X41531395Y37901786D01*
X41534909Y37897729D01*
X41539074Y37892176D01*
X41538462Y37891717D01*
X41548185Y37879402D01*
X41561354Y37857244D01*
X41572573Y37832717D01*
X41587689Y37787368D01*
X41593431Y37761011D01*
X41596189Y37735393D01*
X41595799Y37719708D01*
X41596565Y37719708D01*
X41596565Y37709793D01*
X41595014Y37699999D01*
X41596565Y37690207D01*
X41598449Y37678312D01*
X41600000Y37658601D01*
X41600000Y4341399D01*
X41598449Y4321690D01*
X41595014Y4300001D01*
X41596565Y4290207D01*
X41596565Y4280292D01*
X41595799Y4280292D01*
X41596189Y4264607D01*
X41593431Y4238989D01*
X41587689Y4212632D01*
X41572573Y4167283D01*
X41561354Y4142756D01*
X41548186Y4120599D01*
X41538467Y4108289D01*
X41539078Y4107830D01*
X41535251Y4102727D01*
X41531029Y4097859D01*
X41526010Y4092990D01*
X41524767Y4090639D01*
X41523544Y4089229D01*
X37910771Y476456D01*
X37909361Y475233D01*
X37907010Y473990D01*
X37902141Y468971D01*
X37897273Y464749D01*
X37892170Y460922D01*
X37891711Y461533D01*
X37879402Y451815D01*
X37857244Y438646D01*
X37832717Y427427D01*
X37787368Y412311D01*
X37761011Y406569D01*
X37735393Y403811D01*
X37719708Y404201D01*
X37719708Y403435D01*
X37709793Y403435D01*
X37699999Y404986D01*
X37678310Y401551D01*
X37658601Y400000D01*
X18556000Y400000D01*
X18487879Y420002D01*
X18441386Y473658D01*
X18430000Y526000D01*
X18430000Y2814925D01*
X18830080Y2814925D01*
X18832309Y2808866D01*
X18837880Y2797445D01*
X18933708Y2642892D01*
X18941460Y2632826D01*
X19066408Y2500697D01*
X19076026Y2492395D01*
X19224987Y2388092D01*
X19236081Y2381892D01*
X19402980Y2309668D01*
X19415083Y2305829D01*
X19532264Y2281348D01*
X19546325Y2282471D01*
X19550000Y2292578D01*
X19550000Y2295411D01*
X20350000Y2295411D01*
X20354216Y2281052D01*
X20366696Y2278992D01*
X20387278Y2281082D01*
X20399715Y2283635D01*
X20573244Y2338016D01*
X20584932Y2343025D01*
X20743979Y2431187D01*
X20754412Y2438438D01*
X20892491Y2556785D01*
X20901244Y2565976D01*
X21012711Y2709680D01*
X21019435Y2720440D01*
X21062887Y2808746D01*
X21063958Y2814925D01*
X23130080Y2814925D01*
X23132309Y2808866D01*
X23137880Y2797445D01*
X23233708Y2642892D01*
X23241460Y2632826D01*
X23366408Y2500697D01*
X23376026Y2492395D01*
X23524987Y2388092D01*
X23536081Y2381892D01*
X23702980Y2309668D01*
X23715083Y2305829D01*
X23832264Y2281348D01*
X23846325Y2282471D01*
X23850000Y2292578D01*
X23850000Y2295411D01*
X24650000Y2295411D01*
X24654216Y2281052D01*
X24666696Y2278992D01*
X24687278Y2281082D01*
X24699715Y2283635D01*
X24873244Y2338016D01*
X24884932Y2343025D01*
X25043979Y2431187D01*
X25054412Y2438438D01*
X25192491Y2556785D01*
X25201244Y2565976D01*
X25312711Y2709680D01*
X25319435Y2720440D01*
X25362887Y2808746D01*
X25363958Y2814925D01*
X27430080Y2814925D01*
X27432309Y2808866D01*
X27437880Y2797445D01*
X27533708Y2642892D01*
X27541460Y2632826D01*
X27666408Y2500697D01*
X27676026Y2492395D01*
X27824987Y2388092D01*
X27836081Y2381892D01*
X28002980Y2309668D01*
X28015083Y2305829D01*
X28132264Y2281348D01*
X28146325Y2282471D01*
X28150000Y2292578D01*
X28150000Y2295411D01*
X28950000Y2295411D01*
X28954216Y2281052D01*
X28966696Y2278992D01*
X28987278Y2281082D01*
X28999715Y2283635D01*
X29173244Y2338016D01*
X29184932Y2343025D01*
X29343979Y2431187D01*
X29354412Y2438438D01*
X29492491Y2556785D01*
X29501244Y2565976D01*
X29612711Y2709680D01*
X29619435Y2720440D01*
X29662887Y2808746D01*
X29665296Y2822640D01*
X29662115Y2824816D01*
X29660957Y2825000D01*
X28968115Y2825000D01*
X28952876Y2820525D01*
X28951671Y2819135D01*
X28950000Y2811452D01*
X28950000Y2295411D01*
X28150000Y2295411D01*
X28150000Y2806885D01*
X28145525Y2822124D01*
X28144135Y2823329D01*
X28136452Y2825000D01*
X27444488Y2825000D01*
X27430957Y2821027D01*
X27430080Y2814925D01*
X25363958Y2814925D01*
X25365296Y2822640D01*
X25362115Y2824816D01*
X25360957Y2825000D01*
X24668115Y2825000D01*
X24652876Y2820525D01*
X24651671Y2819135D01*
X24650000Y2811452D01*
X24650000Y2295411D01*
X23850000Y2295411D01*
X23850000Y2806885D01*
X23845525Y2822124D01*
X23844135Y2823329D01*
X23836452Y2825000D01*
X23144488Y2825000D01*
X23130957Y2821027D01*
X23130080Y2814925D01*
X21063958Y2814925D01*
X21065296Y2822640D01*
X21062115Y2824816D01*
X21060957Y2825000D01*
X20368115Y2825000D01*
X20352876Y2820525D01*
X20351671Y2819135D01*
X20350000Y2811452D01*
X20350000Y2295411D01*
X19550000Y2295411D01*
X19550000Y2806885D01*
X19545525Y2822124D01*
X19544135Y2823329D01*
X19536452Y2825000D01*
X18844488Y2825000D01*
X18830957Y2821027D01*
X18830080Y2814925D01*
X18430000Y2814925D01*
X18430000Y3627360D01*
X18834704Y3627360D01*
X18837885Y3625184D01*
X18839043Y3625000D01*
X21055512Y3625000D01*
X21063550Y3627360D01*
X23134704Y3627360D01*
X23137885Y3625184D01*
X23139043Y3625000D01*
X25355512Y3625000D01*
X25363550Y3627360D01*
X27434704Y3627360D01*
X27437885Y3625184D01*
X27439043Y3625000D01*
X29655512Y3625000D01*
X29669043Y3628973D01*
X29669920Y3635075D01*
X29667691Y3641134D01*
X29662120Y3652555D01*
X29566292Y3807108D01*
X29563255Y3811052D01*
X29537538Y3877228D01*
X29552732Y3945408D01*
X29552157Y3945646D01*
X29553517Y3948930D01*
X29609808Y4084827D01*
X29609808Y4084828D01*
X29612967Y4092455D01*
X29628500Y4210441D01*
X29628499Y4739558D01*
X29626891Y4751778D01*
X29614045Y4849358D01*
X29614045Y4849360D01*
X29612967Y4857545D01*
X29552157Y5004354D01*
X29455422Y5130422D01*
X29329354Y5227157D01*
X29255949Y5257562D01*
X29190175Y5284807D01*
X29190172Y5284808D01*
X29182545Y5287967D01*
X29174357Y5289045D01*
X29068646Y5302962D01*
X29068645Y5302962D01*
X29064559Y5303500D01*
X28550063Y5303500D01*
X28035442Y5303499D01*
X28031358Y5302961D01*
X28031352Y5302961D01*
X27925642Y5289045D01*
X27925640Y5289045D01*
X27917455Y5287967D01*
X27770646Y5227157D01*
X27644578Y5130422D01*
X27547843Y5004354D01*
X27544683Y4996724D01*
X27490193Y4865175D01*
X27490192Y4865172D01*
X27487033Y4857545D01*
X27471500Y4739559D01*
X27471501Y4210442D01*
X27472039Y4206358D01*
X27472039Y4206352D01*
X27485009Y4107830D01*
X27487033Y4092455D01*
X27506449Y4045580D01*
X27544683Y3953276D01*
X27547843Y3945646D01*
X27549034Y3944094D01*
X27565081Y3877933D01*
X27538784Y3806708D01*
X27487289Y3740320D01*
X27480565Y3729560D01*
X27437113Y3641254D01*
X27434704Y3627360D01*
X25363550Y3627360D01*
X25369043Y3628973D01*
X25369920Y3635075D01*
X25367691Y3641134D01*
X25362120Y3652555D01*
X25266292Y3807108D01*
X25263255Y3811052D01*
X25237538Y3877228D01*
X25252732Y3945408D01*
X25252157Y3945646D01*
X25253517Y3948930D01*
X25309808Y4084827D01*
X25309808Y4084828D01*
X25312967Y4092455D01*
X25328500Y4210441D01*
X25328499Y4739558D01*
X25326891Y4751778D01*
X25314045Y4849358D01*
X25314045Y4849360D01*
X25312967Y4857545D01*
X25252157Y5004354D01*
X25155422Y5130422D01*
X25029354Y5227157D01*
X24955949Y5257562D01*
X24890175Y5284807D01*
X24890172Y5284808D01*
X24882545Y5287967D01*
X24874357Y5289045D01*
X24768646Y5302962D01*
X24768645Y5302962D01*
X24764559Y5303500D01*
X24250063Y5303500D01*
X23735442Y5303499D01*
X23731358Y5302961D01*
X23731352Y5302961D01*
X23625642Y5289045D01*
X23625640Y5289045D01*
X23617455Y5287967D01*
X23470646Y5227157D01*
X23344578Y5130422D01*
X23247843Y5004354D01*
X23244683Y4996724D01*
X23190193Y4865175D01*
X23190192Y4865172D01*
X23187033Y4857545D01*
X23171500Y4739559D01*
X23171501Y4210442D01*
X23172039Y4206358D01*
X23172039Y4206352D01*
X23185009Y4107830D01*
X23187033Y4092455D01*
X23206449Y4045580D01*
X23244683Y3953276D01*
X23247843Y3945646D01*
X23249034Y3944094D01*
X23265081Y3877933D01*
X23238784Y3806708D01*
X23187289Y3740320D01*
X23180565Y3729560D01*
X23137113Y3641254D01*
X23134704Y3627360D01*
X21063550Y3627360D01*
X21069043Y3628973D01*
X21069920Y3635075D01*
X21067691Y3641134D01*
X21062120Y3652555D01*
X20966292Y3807108D01*
X20963255Y3811052D01*
X20937538Y3877228D01*
X20952732Y3945408D01*
X20952157Y3945646D01*
X20953517Y3948930D01*
X21009808Y4084827D01*
X21009808Y4084828D01*
X21012967Y4092455D01*
X21028500Y4210441D01*
X21028499Y4739558D01*
X21026891Y4751778D01*
X21014045Y4849358D01*
X21014045Y4849360D01*
X21012967Y4857545D01*
X20952157Y5004354D01*
X20855422Y5130422D01*
X20729354Y5227157D01*
X20655949Y5257562D01*
X20590175Y5284807D01*
X20590172Y5284808D01*
X20582545Y5287967D01*
X20574357Y5289045D01*
X20468646Y5302962D01*
X20468645Y5302962D01*
X20464559Y5303500D01*
X19950063Y5303500D01*
X19435442Y5303499D01*
X19431358Y5302961D01*
X19431352Y5302961D01*
X19325642Y5289045D01*
X19325640Y5289045D01*
X19317455Y5287967D01*
X19170646Y5227157D01*
X19044578Y5130422D01*
X18947843Y5004354D01*
X18944683Y4996724D01*
X18890193Y4865175D01*
X18890192Y4865172D01*
X18887033Y4857545D01*
X18871500Y4739559D01*
X18871501Y4210442D01*
X18872039Y4206358D01*
X18872039Y4206352D01*
X18885009Y4107830D01*
X18887033Y4092455D01*
X18906449Y4045580D01*
X18944683Y3953276D01*
X18947843Y3945646D01*
X18949034Y3944094D01*
X18965081Y3877933D01*
X18938784Y3806708D01*
X18887289Y3740320D01*
X18880565Y3729560D01*
X18837113Y3641254D01*
X18834704Y3627360D01*
X18430000Y3627360D01*
X18430000Y5500000D01*
X32916589Y5500000D01*
X32936219Y5125432D01*
X32994895Y4754967D01*
X33091974Y4392665D01*
X33226391Y4042495D01*
X33227889Y4039555D01*
X33385840Y3729560D01*
X33396675Y3708295D01*
X33600960Y3393724D01*
X33837007Y3102230D01*
X34102230Y2837007D01*
X34393724Y2600960D01*
X34708294Y2396675D01*
X35042495Y2226391D01*
X35392665Y2091974D01*
X35754967Y1994895D01*
X35951798Y1963720D01*
X36122184Y1936733D01*
X36122192Y1936732D01*
X36125432Y1936219D01*
X36500000Y1916589D01*
X36874568Y1936219D01*
X36877808Y1936732D01*
X36877816Y1936733D01*
X37048202Y1963720D01*
X37245033Y1994895D01*
X37607335Y2091974D01*
X37957505Y2226391D01*
X38291706Y2396675D01*
X38606276Y2600960D01*
X38897770Y2837007D01*
X39162993Y3102230D01*
X39399040Y3393724D01*
X39603325Y3708295D01*
X39614161Y3729560D01*
X39772111Y4039555D01*
X39773609Y4042495D01*
X39908026Y4392665D01*
X40005105Y4754967D01*
X40063781Y5125432D01*
X40083411Y5500000D01*
X40063781Y5874568D01*
X40005105Y6245033D01*
X39908026Y6607335D01*
X39773609Y6957505D01*
X39603325Y7291705D01*
X39399040Y7606276D01*
X39162993Y7897770D01*
X38897770Y8162993D01*
X38606276Y8399040D01*
X38291706Y8603325D01*
X37957505Y8773609D01*
X37607335Y8908026D01*
X37245033Y9005105D01*
X37048202Y9036280D01*
X36877816Y9063267D01*
X36877808Y9063268D01*
X36874568Y9063781D01*
X36500000Y9083411D01*
X36125432Y9063781D01*
X36122192Y9063268D01*
X36122184Y9063267D01*
X35951798Y9036280D01*
X35754967Y9005105D01*
X35392665Y8908026D01*
X35042495Y8773609D01*
X35039555Y8772111D01*
X34711234Y8604823D01*
X34711227Y8604819D01*
X34708295Y8603325D01*
X34393724Y8399040D01*
X34102230Y8162993D01*
X33837007Y7897770D01*
X33600960Y7606276D01*
X33396675Y7291705D01*
X33226391Y6957505D01*
X33091974Y6607335D01*
X32994895Y6245033D01*
X32936219Y5874568D01*
X32916589Y5500000D01*
X18430000Y5500000D01*
X18430000Y7524000D01*
X18450002Y7592121D01*
X18503658Y7638614D01*
X18556000Y7650000D01*
X24000000Y7650000D01*
X24000000Y8683921D01*
X24020002Y8752042D01*
X24044169Y8779731D01*
X24053110Y8787367D01*
X24148941Y8920730D01*
X24161510Y8951995D01*
X24207360Y9066052D01*
X24207360Y9066053D01*
X24210194Y9073102D01*
X24224661Y9174755D01*
X24232752Y9231602D01*
X24232752Y9231606D01*
X24233333Y9235686D01*
X24233483Y9250000D01*
X24232851Y9255229D01*
X24223119Y9335643D01*
X24213754Y9413034D01*
X24155705Y9566655D01*
X24110966Y9631751D01*
X24066990Y9695736D01*
X24066989Y9695737D01*
X24062688Y9701995D01*
X24042179Y9720268D01*
X24004625Y9780516D01*
X24000000Y9814342D01*
X24000000Y9907157D01*
X26716554Y9907157D01*
X26734575Y9743926D01*
X26737184Y9736795D01*
X26737185Y9736793D01*
X26752210Y9695736D01*
X26791012Y9589705D01*
X26795249Y9583399D01*
X26795251Y9583396D01*
X26806501Y9566655D01*
X26882607Y9453398D01*
X26888225Y9448286D01*
X26998450Y9347988D01*
X26998454Y9347985D01*
X27004071Y9342874D01*
X27010744Y9339251D01*
X27010748Y9339248D01*
X27141720Y9268137D01*
X27148393Y9264514D01*
X27307241Y9222841D01*
X27392283Y9221505D01*
X27463845Y9220380D01*
X27463848Y9220380D01*
X27471443Y9220261D01*
X27631522Y9256924D01*
X27778234Y9330712D01*
X27883221Y9420380D01*
X27897338Y9432437D01*
X27897339Y9432438D01*
X27903110Y9437367D01*
X27998941Y9570730D01*
X28060194Y9723102D01*
X28083333Y9885686D01*
X28083483Y9900000D01*
X28079980Y9928953D01*
X28064666Y10055494D01*
X28063754Y10063034D01*
X28047081Y10107157D01*
X34666554Y10107157D01*
X34667388Y10099607D01*
X34680524Y9980623D01*
X34684575Y9943926D01*
X34687184Y9936795D01*
X34687185Y9936793D01*
X34699152Y9904093D01*
X34741012Y9789705D01*
X34745249Y9783399D01*
X34745251Y9783396D01*
X34780714Y9730623D01*
X34832607Y9653398D01*
X34838225Y9648286D01*
X34948450Y9547988D01*
X34948454Y9547985D01*
X34954071Y9542874D01*
X34960744Y9539251D01*
X34960748Y9539248D01*
X35087589Y9470380D01*
X35098393Y9464514D01*
X35257241Y9422841D01*
X35342283Y9421505D01*
X35413845Y9420380D01*
X35413848Y9420380D01*
X35421443Y9420261D01*
X35581522Y9456924D01*
X35691739Y9512357D01*
X35761582Y9525095D01*
X35793243Y9517310D01*
X35798393Y9514514D01*
X35957241Y9472841D01*
X36042283Y9471505D01*
X36113845Y9470380D01*
X36113848Y9470380D01*
X36121443Y9470261D01*
X36281522Y9506924D01*
X36428234Y9580712D01*
X36553110Y9687367D01*
X36648941Y9820730D01*
X36673412Y9881602D01*
X36707360Y9966052D01*
X36707360Y9966053D01*
X36710194Y9973102D01*
X36733333Y10135686D01*
X36733483Y10150000D01*
X36732524Y10157930D01*
X36719875Y10262448D01*
X36713754Y10313034D01*
X36710900Y10320587D01*
X36668999Y10431474D01*
X36663631Y10502267D01*
X36669957Y10523008D01*
X36696948Y10590151D01*
X36710194Y10623102D01*
X36713664Y10647486D01*
X36732752Y10781602D01*
X36732752Y10781606D01*
X36733333Y10785686D01*
X36733483Y10800000D01*
X36730093Y10828019D01*
X36720834Y10904528D01*
X36713754Y10963034D01*
X36655705Y11116655D01*
X36596465Y11202850D01*
X36566990Y11245736D01*
X36566989Y11245737D01*
X36562688Y11251995D01*
X36557017Y11257048D01*
X36445744Y11356190D01*
X36445740Y11356193D01*
X36440073Y11361242D01*
X36313810Y11428094D01*
X36301647Y11434534D01*
X36301646Y11434534D01*
X36294938Y11438086D01*
X36135663Y11478094D01*
X36128065Y11478134D01*
X36128063Y11478134D01*
X36057307Y11478504D01*
X35971442Y11478953D01*
X35964063Y11477181D01*
X35964059Y11477181D01*
X35863654Y11453075D01*
X35811757Y11440616D01*
X35805005Y11437131D01*
X35710029Y11388111D01*
X35640322Y11374642D01*
X35607086Y11382446D01*
X35601648Y11384533D01*
X35594938Y11388086D01*
X35435663Y11428094D01*
X35428065Y11428134D01*
X35428063Y11428134D01*
X35357307Y11428504D01*
X35271442Y11428953D01*
X35264063Y11427181D01*
X35264059Y11427181D01*
X35180655Y11407157D01*
X35111757Y11390616D01*
X34965826Y11315296D01*
X34960106Y11310306D01*
X34960103Y11310304D01*
X34847798Y11212334D01*
X34847795Y11212331D01*
X34842073Y11207339D01*
X34809928Y11161601D01*
X34753238Y11080939D01*
X34747644Y11072980D01*
X34687990Y10919975D01*
X34686999Y10912448D01*
X34667545Y10764688D01*
X34667545Y10764684D01*
X34666554Y10757157D01*
X34673266Y10696360D01*
X34682132Y10616058D01*
X34684575Y10593926D01*
X34687184Y10586795D01*
X34687185Y10586793D01*
X34731018Y10467015D01*
X34735644Y10396170D01*
X34730085Y10377945D01*
X34690749Y10277052D01*
X34687990Y10269975D01*
X34686999Y10262448D01*
X34667545Y10114688D01*
X34667545Y10114684D01*
X34666554Y10107157D01*
X28047081Y10107157D01*
X28005705Y10216655D01*
X27955977Y10289010D01*
X27916990Y10345736D01*
X27916989Y10345737D01*
X27912688Y10351995D01*
X27901084Y10362334D01*
X27795744Y10456190D01*
X27795740Y10456193D01*
X27790073Y10461242D01*
X27672487Y10523500D01*
X27651647Y10534534D01*
X27651646Y10534534D01*
X27644938Y10538086D01*
X27485663Y10578094D01*
X27478065Y10578134D01*
X27478063Y10578134D01*
X27407307Y10578504D01*
X27321442Y10578953D01*
X27314063Y10577181D01*
X27314059Y10577181D01*
X27240181Y10559444D01*
X27161757Y10540616D01*
X27015826Y10465296D01*
X27010106Y10460306D01*
X27010103Y10460304D01*
X26897798Y10362334D01*
X26897795Y10362331D01*
X26892073Y10357339D01*
X26876873Y10335712D01*
X26813875Y10246074D01*
X26797644Y10222980D01*
X26737990Y10069975D01*
X26736999Y10062448D01*
X26717545Y9914688D01*
X26717545Y9914684D01*
X26716554Y9907157D01*
X24000000Y9907157D01*
X24000000Y12734551D01*
X24020002Y12802672D01*
X24073658Y12849165D01*
X24143932Y12859269D01*
X24210798Y12827746D01*
X24304071Y12742874D01*
X24310744Y12739251D01*
X24310748Y12739248D01*
X24441720Y12668137D01*
X24448393Y12664514D01*
X24607241Y12622841D01*
X24692283Y12621505D01*
X24763845Y12620380D01*
X24763848Y12620380D01*
X24771443Y12620261D01*
X24931522Y12656924D01*
X25078234Y12730712D01*
X25163338Y12803398D01*
X25197338Y12832437D01*
X25197339Y12832438D01*
X25203110Y12837367D01*
X25207539Y12843530D01*
X25207544Y12843536D01*
X25231540Y12876930D01*
X25287534Y12920578D01*
X25358238Y12927024D01*
X25393981Y12914136D01*
X25496793Y12858314D01*
X25655641Y12816641D01*
X25740683Y12815305D01*
X25812245Y12814180D01*
X25812248Y12814180D01*
X25819843Y12814061D01*
X25979922Y12850724D01*
X26126634Y12924512D01*
X26225451Y13008910D01*
X26245738Y13026237D01*
X26245739Y13026238D01*
X26251510Y13031167D01*
X26347341Y13164530D01*
X26350175Y13171581D01*
X26350491Y13172155D01*
X26400834Y13222216D01*
X26470250Y13237112D01*
X26536700Y13212115D01*
X26550003Y13200554D01*
X26923439Y12827118D01*
X26957465Y12764806D01*
X26959583Y12751850D01*
X26975584Y12606924D01*
X26976875Y12595226D01*
X26979484Y12588095D01*
X26979485Y12588093D01*
X27001634Y12527569D01*
X27033312Y12441005D01*
X27037549Y12434699D01*
X27037551Y12434696D01*
X27046936Y12420730D01*
X27124907Y12304698D01*
X27130525Y12299586D01*
X27240750Y12199288D01*
X27240754Y12199285D01*
X27246371Y12194174D01*
X27253044Y12190551D01*
X27253048Y12190548D01*
X27384020Y12119437D01*
X27390693Y12115814D01*
X27549541Y12074141D01*
X27634583Y12072805D01*
X27706145Y12071680D01*
X27706148Y12071680D01*
X27713743Y12071561D01*
X27873822Y12108224D01*
X28020534Y12182012D01*
X28145410Y12288667D01*
X28199535Y12363990D01*
X28255530Y12407638D01*
X28326233Y12414084D01*
X28389198Y12381281D01*
X28424432Y12319645D01*
X28427257Y12302761D01*
X28428035Y12294831D01*
X28433694Y12237117D01*
X28488824Y12071390D01*
X28492471Y12065368D01*
X28492472Y12065366D01*
X28510241Y12036026D01*
X28578100Y11923978D01*
X28579300Y11921996D01*
X28578952Y11921785D01*
X28603139Y11859546D01*
X28588995Y11789973D01*
X28583508Y11780593D01*
X28498276Y11648339D01*
X28495867Y11641719D01*
X28495865Y11641716D01*
X28469754Y11569975D01*
X28438540Y11484216D01*
X28416650Y11310938D01*
X28433694Y11137117D01*
X28435918Y11130432D01*
X28435918Y11130431D01*
X28455632Y11071170D01*
X28488824Y10971390D01*
X28492471Y10965368D01*
X28492472Y10965366D01*
X28545152Y10878382D01*
X28579300Y10821996D01*
X28700625Y10696360D01*
X28749291Y10664514D01*
X28823340Y10616058D01*
X28846771Y10600725D01*
X28853375Y10598269D01*
X28853377Y10598268D01*
X28907516Y10578134D01*
X29010472Y10539845D01*
X29017457Y10538913D01*
X29176612Y10517677D01*
X29176616Y10517677D01*
X29183593Y10516746D01*
X29190604Y10517384D01*
X29190608Y10517384D01*
X29350512Y10531936D01*
X29350515Y10531937D01*
X29357530Y10532575D01*
X29392181Y10543834D01*
X29516941Y10584371D01*
X29516943Y10584372D01*
X29523637Y10586547D01*
X29636443Y10653793D01*
X29705195Y10671492D01*
X29769949Y10650996D01*
X29846771Y10600725D01*
X29853375Y10598269D01*
X29853377Y10598268D01*
X29907516Y10578134D01*
X30010472Y10539845D01*
X30017457Y10538913D01*
X30176612Y10517677D01*
X30176616Y10517677D01*
X30183593Y10516746D01*
X30190604Y10517384D01*
X30190608Y10517384D01*
X30350512Y10531936D01*
X30350515Y10531937D01*
X30357530Y10532575D01*
X30392181Y10543834D01*
X30516941Y10584371D01*
X30516943Y10584372D01*
X30523637Y10586547D01*
X30597570Y10630620D01*
X30667607Y10672370D01*
X30667609Y10672371D01*
X30673659Y10675978D01*
X30800139Y10796423D01*
X30877226Y10912448D01*
X30892891Y10936026D01*
X30892892Y10936028D01*
X30896792Y10941898D01*
X30958813Y11105170D01*
X30977156Y11235686D01*
X30982570Y11274203D01*
X30982570Y11274206D01*
X30983121Y11278125D01*
X30983426Y11300000D01*
X30963957Y11473567D01*
X30952635Y11506081D01*
X30921057Y11596758D01*
X30906519Y11638507D01*
X30814936Y11785070D01*
X30795801Y11853437D01*
X30816843Y11921565D01*
X30817130Y11921996D01*
X30896792Y12041898D01*
X30958813Y12205170D01*
X30979252Y12350594D01*
X30982570Y12374203D01*
X30982570Y12374206D01*
X30983121Y12378125D01*
X30983426Y12400000D01*
X30963957Y12573567D01*
X30947697Y12620261D01*
X30926645Y12680712D01*
X30906519Y12738507D01*
X30831059Y12859269D01*
X30817699Y12880649D01*
X30813966Y12886623D01*
X30805501Y12895148D01*
X30695860Y13005557D01*
X30690898Y13010554D01*
X30680193Y13017348D01*
X30618117Y13056742D01*
X30543431Y13104139D01*
X30511509Y13115506D01*
X30385531Y13160365D01*
X30385526Y13160366D01*
X30378896Y13162727D01*
X30371908Y13163560D01*
X30371905Y13163561D01*
X30254334Y13177580D01*
X30205469Y13183407D01*
X30198467Y13182671D01*
X30198465Y13182671D01*
X30038771Y13165886D01*
X30038769Y13165886D01*
X30031771Y13165150D01*
X29866433Y13108865D01*
X29765700Y13046893D01*
X29697202Y13028235D01*
X29632166Y13047826D01*
X29618117Y13056742D01*
X29543431Y13104139D01*
X29511509Y13115506D01*
X29385531Y13160365D01*
X29385526Y13160366D01*
X29378896Y13162727D01*
X29371908Y13163560D01*
X29371905Y13163561D01*
X29254334Y13177580D01*
X29205469Y13183407D01*
X29198467Y13182671D01*
X29198465Y13182671D01*
X29038771Y13165886D01*
X29038769Y13165886D01*
X29031771Y13165150D01*
X28866433Y13108865D01*
X28842150Y13093926D01*
X28723677Y13021041D01*
X28723674Y13021039D01*
X28717675Y13017348D01*
X28592888Y12895148D01*
X28589069Y12889223D01*
X28589068Y12889221D01*
X28569150Y12858314D01*
X28552474Y12832437D01*
X28542422Y12816840D01*
X28488708Y12770415D01*
X28418421Y12760400D01*
X28353878Y12789975D01*
X28315570Y12849750D01*
X28311424Y12869958D01*
X28309093Y12889221D01*
X28306054Y12914334D01*
X28248005Y13067955D01*
X28215324Y13115506D01*
X28159290Y13197036D01*
X28159289Y13197037D01*
X28154988Y13203295D01*
X28135946Y13220261D01*
X28038044Y13307490D01*
X28038040Y13307493D01*
X28032373Y13312542D01*
X27887238Y13389386D01*
X27727963Y13429394D01*
X27720365Y13429434D01*
X27720363Y13429434D01*
X27658417Y13429758D01*
X27590401Y13450116D01*
X27569985Y13466657D01*
X26760488Y14276154D01*
X26726464Y14338465D01*
X26731529Y14409281D01*
X26774076Y14466116D01*
X26840596Y14490927D01*
X26893504Y14483345D01*
X27010472Y14439845D01*
X27017457Y14438913D01*
X27176612Y14417677D01*
X27176616Y14417677D01*
X27183593Y14416746D01*
X27190604Y14417384D01*
X27190608Y14417384D01*
X27350512Y14431936D01*
X27350515Y14431937D01*
X27357530Y14432575D01*
X27403239Y14447427D01*
X27516941Y14484371D01*
X27516943Y14484372D01*
X27523637Y14486547D01*
X27588299Y14525093D01*
X27667604Y14572368D01*
X27667607Y14572370D01*
X27673659Y14575978D01*
X27673742Y14575840D01*
X27736956Y14599899D01*
X27806430Y14585271D01*
X27837420Y14561811D01*
X27900625Y14496360D01*
X27918005Y14484987D01*
X28020866Y14417677D01*
X28046771Y14400725D01*
X28053375Y14398269D01*
X28053377Y14398268D01*
X28075198Y14390153D01*
X28210472Y14339845D01*
X28217457Y14338913D01*
X28376612Y14317677D01*
X28376616Y14317677D01*
X28383593Y14316746D01*
X28390604Y14317384D01*
X28390608Y14317384D01*
X28550512Y14331936D01*
X28550515Y14331937D01*
X28557530Y14332575D01*
X28587466Y14342302D01*
X28716941Y14384371D01*
X28716943Y14384372D01*
X28723637Y14386547D01*
X28780273Y14420309D01*
X28867607Y14472370D01*
X28867609Y14472371D01*
X28873659Y14475978D01*
X28876515Y14478697D01*
X28941722Y14503513D01*
X29011195Y14488883D01*
X29020534Y14483332D01*
X29073760Y14448502D01*
X29120866Y14417677D01*
X29146771Y14400725D01*
X29153375Y14398269D01*
X29153377Y14398268D01*
X29175198Y14390153D01*
X29310472Y14339845D01*
X29317457Y14338913D01*
X29476612Y14317677D01*
X29476616Y14317677D01*
X29483593Y14316746D01*
X29490604Y14317384D01*
X29490608Y14317384D01*
X29650512Y14331936D01*
X29650515Y14331937D01*
X29657530Y14332575D01*
X29687466Y14342302D01*
X29816941Y14384371D01*
X29816943Y14384372D01*
X29823637Y14386547D01*
X29880273Y14420309D01*
X29967607Y14472370D01*
X29967609Y14472371D01*
X29973659Y14475978D01*
X30100139Y14596423D01*
X30183569Y14721996D01*
X30192891Y14736026D01*
X30192892Y14736028D01*
X30196792Y14741898D01*
X30258813Y14905170D01*
X30283121Y15078125D01*
X30283426Y15100000D01*
X30263957Y15273567D01*
X30261560Y15280452D01*
X30223120Y15390835D01*
X30206519Y15438507D01*
X30113966Y15586623D01*
X30039791Y15661318D01*
X30005984Y15723749D01*
X30011296Y15794547D01*
X30042305Y15841347D01*
X30095032Y15891558D01*
X30095039Y15891566D01*
X30100139Y15896423D01*
X30185317Y16024626D01*
X30192891Y16036026D01*
X30192892Y16036028D01*
X30196792Y16041898D01*
X30258813Y16205170D01*
X30273997Y16313206D01*
X30282570Y16374203D01*
X30282570Y16374206D01*
X30283121Y16378125D01*
X30283426Y16400000D01*
X30263957Y16573567D01*
X30257815Y16591206D01*
X30213368Y16718840D01*
X30206519Y16738507D01*
X30113966Y16886623D01*
X30090829Y16909923D01*
X30057022Y16972352D01*
X30062334Y17043150D01*
X30090719Y17085990D01*
X30090508Y17086167D01*
X30092071Y17088030D01*
X30093346Y17089955D01*
X30100139Y17096423D01*
X30166879Y17196875D01*
X30192891Y17236026D01*
X30192892Y17236028D01*
X30196792Y17241898D01*
X30258813Y17405170D01*
X30283121Y17578125D01*
X30283426Y17600000D01*
X30263957Y17773567D01*
X30261560Y17780452D01*
X30208837Y17931850D01*
X30206519Y17938507D01*
X30113966Y18086623D01*
X30105501Y18095148D01*
X30021296Y18179943D01*
X29990898Y18210554D01*
X29980193Y18217348D01*
X29913881Y18259430D01*
X29843431Y18304139D01*
X29815625Y18314040D01*
X29685531Y18360365D01*
X29685526Y18360366D01*
X29678896Y18362727D01*
X29671908Y18363560D01*
X29671905Y18363561D01*
X29554334Y18377580D01*
X29505469Y18383407D01*
X29498467Y18382671D01*
X29498465Y18382671D01*
X29338771Y18365886D01*
X29338769Y18365886D01*
X29331771Y18365150D01*
X29166433Y18308865D01*
X29017675Y18217348D01*
X29016433Y18219367D01*
X28960799Y18197302D01*
X28891129Y18210962D01*
X28881722Y18216377D01*
X28743431Y18304139D01*
X28715625Y18314040D01*
X28585531Y18360365D01*
X28585526Y18360366D01*
X28578896Y18362727D01*
X28571908Y18363560D01*
X28571905Y18363561D01*
X28454334Y18377580D01*
X28405469Y18383407D01*
X28398467Y18382671D01*
X28398465Y18382671D01*
X28238771Y18365886D01*
X28238769Y18365886D01*
X28231771Y18365150D01*
X28066433Y18308865D01*
X28011225Y18274901D01*
X27923677Y18221041D01*
X27923674Y18221039D01*
X27917675Y18217348D01*
X27912644Y18212421D01*
X27912641Y18212419D01*
X27888678Y18188953D01*
X27826012Y18155583D01*
X27755254Y18161391D01*
X27711115Y18190195D01*
X27695860Y18205557D01*
X27690898Y18210554D01*
X27680193Y18217348D01*
X27613881Y18259430D01*
X27543431Y18304139D01*
X27515625Y18314040D01*
X27385531Y18360365D01*
X27385526Y18360366D01*
X27378896Y18362727D01*
X27371908Y18363560D01*
X27371905Y18363561D01*
X27254334Y18377580D01*
X27205469Y18383407D01*
X27198467Y18382671D01*
X27198465Y18382671D01*
X27038771Y18365886D01*
X27038769Y18365886D01*
X27031771Y18365150D01*
X26866433Y18308865D01*
X26811225Y18274901D01*
X26723677Y18221041D01*
X26723674Y18221039D01*
X26717675Y18217348D01*
X26592888Y18095148D01*
X26589069Y18089223D01*
X26589068Y18089221D01*
X26528371Y17995038D01*
X26498276Y17948339D01*
X26495867Y17941719D01*
X26495865Y17941716D01*
X26459548Y17841935D01*
X26438540Y17784216D01*
X26416650Y17610938D01*
X26433694Y17437117D01*
X26488824Y17271390D01*
X26492471Y17265368D01*
X26492472Y17265366D01*
X26562094Y17150407D01*
X26579300Y17121996D01*
X26611577Y17088572D01*
X26644509Y17025678D01*
X26638210Y16954961D01*
X26609098Y16911022D01*
X26599283Y16901410D01*
X26592888Y16895148D01*
X26589071Y16889225D01*
X26510139Y16766746D01*
X26498276Y16748339D01*
X26495867Y16741719D01*
X26495865Y16741716D01*
X26447733Y16609474D01*
X26438540Y16584216D01*
X26416650Y16410938D01*
X26433694Y16237117D01*
X26488824Y16071390D01*
X26492471Y16065368D01*
X26492472Y16065366D01*
X26575505Y15928263D01*
X26579300Y15921996D01*
X26611577Y15888572D01*
X26644509Y15825678D01*
X26638210Y15754961D01*
X26609098Y15711022D01*
X26592888Y15695148D01*
X26498276Y15548339D01*
X26495867Y15541719D01*
X26495865Y15541716D01*
X26460476Y15444484D01*
X26438540Y15384216D01*
X26416650Y15210938D01*
X26433694Y15037117D01*
X26435918Y15030432D01*
X26435918Y15030431D01*
X26481871Y14892292D01*
X26484394Y14821340D01*
X26448157Y14760288D01*
X26384665Y14728518D01*
X26314077Y14736119D01*
X26273218Y14763425D01*
X25840090Y15196553D01*
X25830235Y15207642D01*
X25822123Y15217932D01*
X25808975Y15234610D01*
X25766162Y15264200D01*
X25760227Y15268302D01*
X25757034Y15270584D01*
X25709367Y15305791D01*
X25702491Y15308206D01*
X25696496Y15312349D01*
X25687518Y15315188D01*
X25687515Y15315190D01*
X25654469Y15325641D01*
X25639995Y15330219D01*
X25636254Y15331467D01*
X25589252Y15347973D01*
X25589248Y15347974D01*
X25580360Y15351095D01*
X25573161Y15351378D01*
X25572976Y15351414D01*
X25566130Y15353579D01*
X25559459Y15354104D01*
X25506254Y15354104D01*
X25501307Y15354201D01*
X25443736Y15356463D01*
X25436580Y15354566D01*
X25428192Y15354104D01*
X25039937Y15354104D01*
X24971816Y15374106D01*
X24950842Y15391009D01*
X24587972Y15753879D01*
X24553946Y15816191D01*
X24559011Y15887006D01*
X24584321Y15928263D01*
X24586131Y15930231D01*
X24591910Y15935167D01*
X24687741Y16068530D01*
X24691578Y16078073D01*
X24746160Y16213852D01*
X24746160Y16213853D01*
X24748994Y16220902D01*
X24765001Y16333373D01*
X24771552Y16379402D01*
X24771552Y16379406D01*
X24772133Y16383486D01*
X24772283Y16397800D01*
X24771541Y16403938D01*
X24759798Y16500973D01*
X24752554Y16560834D01*
X24694505Y16714455D01*
X24682550Y16731850D01*
X24605790Y16843536D01*
X24605789Y16843537D01*
X24601488Y16849795D01*
X24560154Y16886623D01*
X24484544Y16953990D01*
X24484540Y16953993D01*
X24478873Y16959042D01*
X24333738Y17035886D01*
X24174463Y17075894D01*
X24166865Y17075934D01*
X24166863Y17075934D01*
X24132451Y17076114D01*
X24125341Y17076151D01*
X24057326Y17096509D01*
X24011114Y17150407D01*
X24000000Y17202149D01*
X24000000Y20310938D01*
X28416650Y20310938D01*
X28433694Y20137117D01*
X28488824Y19971390D01*
X28492471Y19965368D01*
X28492472Y19965366D01*
X28569393Y19838355D01*
X28579300Y19821996D01*
X28700625Y19696360D01*
X28765676Y19653792D01*
X28809012Y19625434D01*
X28846771Y19600725D01*
X28853375Y19598269D01*
X28853377Y19598268D01*
X28884894Y19586547D01*
X29010472Y19539845D01*
X29017457Y19538913D01*
X29176612Y19517677D01*
X29176616Y19517677D01*
X29183593Y19516746D01*
X29190604Y19517384D01*
X29190608Y19517384D01*
X29350512Y19531936D01*
X29350515Y19531937D01*
X29357530Y19532575D01*
X29424001Y19554173D01*
X29516941Y19584371D01*
X29516943Y19584372D01*
X29523637Y19586547D01*
X29636443Y19653793D01*
X29705195Y19671492D01*
X29769949Y19650996D01*
X29846771Y19600725D01*
X29853375Y19598269D01*
X29853377Y19598268D01*
X29884894Y19586547D01*
X30010472Y19539845D01*
X30017457Y19538913D01*
X30176612Y19517677D01*
X30176616Y19517677D01*
X30183593Y19516746D01*
X30190604Y19517384D01*
X30190608Y19517384D01*
X30350512Y19531936D01*
X30350515Y19531937D01*
X30357530Y19532575D01*
X30424001Y19554173D01*
X30516941Y19584371D01*
X30516943Y19584372D01*
X30523637Y19586547D01*
X30673659Y19675978D01*
X30800139Y19796423D01*
X30896792Y19941898D01*
X30958813Y20105170D01*
X30983121Y20278125D01*
X30983426Y20300000D01*
X30963957Y20473567D01*
X30906519Y20638507D01*
X30847139Y20733535D01*
X30828003Y20801904D01*
X30849043Y20870030D01*
X30896792Y20941898D01*
X30958813Y21105170D01*
X30973514Y21209768D01*
X30982570Y21274203D01*
X30982570Y21274206D01*
X30983121Y21278125D01*
X30983426Y21300000D01*
X30963957Y21473567D01*
X30954590Y21500467D01*
X30933203Y21561880D01*
X30906519Y21638507D01*
X30813966Y21786623D01*
X30805501Y21795148D01*
X30695860Y21905557D01*
X30690898Y21910554D01*
X30680193Y21917348D01*
X30569774Y21987421D01*
X30543431Y22004139D01*
X30508144Y22016704D01*
X30385531Y22060365D01*
X30385526Y22060366D01*
X30378896Y22062727D01*
X30371908Y22063560D01*
X30371905Y22063561D01*
X30254334Y22077580D01*
X30205469Y22083407D01*
X30198467Y22082671D01*
X30198465Y22082671D01*
X30038771Y22065886D01*
X30038769Y22065886D01*
X30031771Y22065150D01*
X29866433Y22008865D01*
X29765700Y21946893D01*
X29697202Y21928235D01*
X29632166Y21947826D01*
X29617463Y21957157D01*
X29543431Y22004139D01*
X29508144Y22016704D01*
X29385531Y22060365D01*
X29385526Y22060366D01*
X29378896Y22062727D01*
X29371908Y22063560D01*
X29371905Y22063561D01*
X29254334Y22077580D01*
X29205469Y22083407D01*
X29198467Y22082671D01*
X29198465Y22082671D01*
X29038771Y22065886D01*
X29038769Y22065886D01*
X29031771Y22065150D01*
X28866433Y22008865D01*
X28811225Y21974901D01*
X28723677Y21921041D01*
X28723674Y21921039D01*
X28717675Y21917348D01*
X28592888Y21795148D01*
X28589069Y21789223D01*
X28589068Y21789221D01*
X28517863Y21678732D01*
X28498276Y21648339D01*
X28495867Y21641719D01*
X28495865Y21641716D01*
X28447817Y21509704D01*
X28438540Y21484216D01*
X28416650Y21310938D01*
X28433694Y21137117D01*
X28435918Y21130432D01*
X28435918Y21130431D01*
X28438381Y21123026D01*
X28488824Y20971390D01*
X28492471Y20965368D01*
X28492472Y20965366D01*
X28553480Y20864630D01*
X28571659Y20796001D01*
X28551616Y20731107D01*
X28498276Y20648339D01*
X28495867Y20641719D01*
X28495865Y20641716D01*
X28468545Y20566655D01*
X28438540Y20484216D01*
X28416650Y20310938D01*
X24000000Y20310938D01*
X24000000Y21919300D01*
X24020002Y21987421D01*
X24073658Y22033914D01*
X24126000Y22045300D01*
X24692761Y22045300D01*
X24760882Y22025298D01*
X24777561Y22012493D01*
X24848450Y21947988D01*
X24848454Y21947985D01*
X24854071Y21942874D01*
X24860744Y21939251D01*
X24860748Y21939248D01*
X24987079Y21870657D01*
X24998393Y21864514D01*
X25157241Y21822841D01*
X25242283Y21821505D01*
X25313845Y21820380D01*
X25313848Y21820380D01*
X25321443Y21820261D01*
X25481522Y21856924D01*
X25628234Y21930712D01*
X25753110Y22037367D01*
X25848941Y22170730D01*
X25855273Y22186480D01*
X25907360Y22316052D01*
X25907360Y22316053D01*
X25910194Y22323102D01*
X25933333Y22485686D01*
X25933483Y22500000D01*
X25913754Y22663034D01*
X25855705Y22816655D01*
X25841970Y22836639D01*
X25766990Y22945736D01*
X25766989Y22945737D01*
X25762688Y22951995D01*
X25756690Y22957339D01*
X25700776Y23007157D01*
X26916554Y23007157D01*
X26923184Y22947105D01*
X26931954Y22867669D01*
X26934575Y22843926D01*
X26937184Y22836795D01*
X26937185Y22836793D01*
X26942512Y22822237D01*
X26991012Y22689705D01*
X26995249Y22683399D01*
X26995251Y22683396D01*
X27019969Y22646613D01*
X27082607Y22553398D01*
X27088225Y22548286D01*
X27198450Y22447988D01*
X27198454Y22447985D01*
X27204071Y22442874D01*
X27210744Y22439251D01*
X27210748Y22439248D01*
X27341720Y22368137D01*
X27348393Y22364514D01*
X27507241Y22322841D01*
X27592283Y22321505D01*
X27663845Y22320380D01*
X27663848Y22320380D01*
X27671443Y22320261D01*
X27831522Y22356924D01*
X27978234Y22430712D01*
X28061216Y22501586D01*
X28097338Y22532437D01*
X28097339Y22532438D01*
X28103110Y22537367D01*
X28198941Y22670730D01*
X28212874Y22705388D01*
X28257360Y22816052D01*
X28257360Y22816053D01*
X28260194Y22823102D01*
X28283333Y22985686D01*
X28283483Y23000000D01*
X28281558Y23015913D01*
X28275160Y23068779D01*
X28263754Y23163034D01*
X28225391Y23264557D01*
X33582054Y23264557D01*
X33589925Y23193265D01*
X33598161Y23118664D01*
X33600075Y23101326D01*
X33602684Y23094195D01*
X33602685Y23094193D01*
X33613260Y23065296D01*
X33656512Y22947105D01*
X33660749Y22940799D01*
X33660751Y22940796D01*
X33678953Y22913709D01*
X33748107Y22810798D01*
X33753725Y22805686D01*
X33863950Y22705388D01*
X33863954Y22705385D01*
X33869571Y22700274D01*
X33876244Y22696651D01*
X33876248Y22696648D01*
X33999109Y22629941D01*
X34013893Y22621914D01*
X34172741Y22580241D01*
X34257783Y22578905D01*
X34329345Y22577780D01*
X34329348Y22577780D01*
X34336943Y22577661D01*
X34497022Y22614324D01*
X34589667Y22660919D01*
X34659510Y22673657D01*
X34725154Y22646613D01*
X34765756Y22588372D01*
X34771519Y22562181D01*
X34780416Y22481602D01*
X34784575Y22443926D01*
X34787184Y22436795D01*
X34787185Y22436793D01*
X34815164Y22360337D01*
X34828930Y22322722D01*
X34831018Y22317015D01*
X34835644Y22246170D01*
X34830085Y22227945D01*
X34806425Y22167259D01*
X34787990Y22119975D01*
X34786999Y22112448D01*
X34767545Y21964688D01*
X34767545Y21964684D01*
X34766554Y21957157D01*
X34771493Y21912419D01*
X34782694Y21810968D01*
X34784575Y21793926D01*
X34787184Y21786795D01*
X34787185Y21786793D01*
X34795199Y21764895D01*
X34841012Y21639705D01*
X34932607Y21503398D01*
X34938225Y21498286D01*
X35048450Y21397988D01*
X35048454Y21397985D01*
X35054071Y21392874D01*
X35060744Y21389251D01*
X35060748Y21389248D01*
X35177415Y21325904D01*
X35198393Y21314514D01*
X35357241Y21272841D01*
X35442283Y21271505D01*
X35513845Y21270380D01*
X35513848Y21270380D01*
X35521443Y21270261D01*
X35614562Y21291588D01*
X35674123Y21305229D01*
X35674126Y21305230D01*
X35681522Y21306924D01*
X35683130Y21307733D01*
X35751535Y21311840D01*
X35783467Y21299765D01*
X35841717Y21268138D01*
X35841722Y21268136D01*
X35848393Y21264514D01*
X35894188Y21252500D01*
X35944475Y21239307D01*
X36005290Y21202673D01*
X36036645Y21138975D01*
X36028586Y21068438D01*
X36013856Y21042577D01*
X35993613Y21015171D01*
X35991198Y21008295D01*
X35987055Y21002300D01*
X35984216Y20993322D01*
X35984214Y20993319D01*
X35969190Y20945813D01*
X35967937Y20942058D01*
X35951431Y20895056D01*
X35951430Y20895052D01*
X35948309Y20886164D01*
X35948026Y20878965D01*
X35947990Y20878780D01*
X35945825Y20871934D01*
X35945300Y20865263D01*
X35945300Y20812058D01*
X35945203Y20807111D01*
X35942941Y20749540D01*
X35944838Y20742384D01*
X35945300Y20733996D01*
X35945300Y16334466D01*
X35944427Y16319656D01*
X35940391Y16285556D01*
X35942083Y16276292D01*
X35942083Y16276291D01*
X35951035Y16227277D01*
X35951685Y16223371D01*
X35958190Y16180105D01*
X35960492Y16164790D01*
X35963647Y16158221D01*
X35964956Y16151051D01*
X35969300Y16142689D01*
X35992274Y16098462D01*
X35994043Y16094921D01*
X36009677Y16062364D01*
X36019679Y16041534D01*
X36024570Y16036244D01*
X36024675Y16036087D01*
X36027985Y16029715D01*
X36032331Y16024626D01*
X36069941Y15987016D01*
X36073370Y15983451D01*
X36112491Y15941130D01*
X36118893Y15937411D01*
X36125154Y15931803D01*
X36674249Y15382708D01*
X36708275Y15320396D01*
X36707673Y15264200D01*
X36698794Y15227214D01*
X36693266Y15204188D01*
X36691408Y15171958D01*
X36682659Y15020215D01*
X36680643Y14985256D01*
X36706988Y14767548D01*
X36771470Y14557946D01*
X36774040Y14552966D01*
X36774042Y14552962D01*
X36869479Y14368057D01*
X36872050Y14363076D01*
X37005549Y14189097D01*
X37009694Y14185326D01*
X37009697Y14185322D01*
X37070103Y14130357D01*
X37167748Y14041507D01*
X37172504Y14038524D01*
X37172506Y14038522D01*
X37264553Y13980781D01*
X37311631Y13927638D01*
X37322503Y13857478D01*
X37293719Y13792579D01*
X37234416Y13753544D01*
X37220603Y13750184D01*
X37214400Y13749696D01*
X37194540Y13743926D01*
X37069522Y13707605D01*
X37069521Y13707604D01*
X37061909Y13705393D01*
X37055087Y13701358D01*
X37055086Y13701358D01*
X36932047Y13628593D01*
X36925226Y13624559D01*
X36812941Y13512274D01*
X36808907Y13505453D01*
X36739497Y13388086D01*
X36732107Y13375591D01*
X36729896Y13367979D01*
X36729895Y13367978D01*
X36713789Y13312542D01*
X36687804Y13223100D01*
X36687299Y13216681D01*
X36685193Y13189929D01*
X36685192Y13189916D01*
X36685000Y13187470D01*
X36685000Y11860530D01*
X36685192Y11858084D01*
X36685193Y11858071D01*
X36686800Y11837656D01*
X36687804Y11824900D01*
X36732107Y11672409D01*
X36736142Y11665587D01*
X36736142Y11665586D01*
X36756093Y11631850D01*
X36812941Y11535726D01*
X36925226Y11423441D01*
X36932047Y11419407D01*
X36981882Y11389935D01*
X37061909Y11342607D01*
X37069521Y11340396D01*
X37069522Y11340395D01*
X37169200Y11311436D01*
X37214400Y11298304D01*
X37227156Y11297300D01*
X37247571Y11295693D01*
X37247584Y11295692D01*
X37250030Y11295500D01*
X38826970Y11295500D01*
X38829416Y11295692D01*
X38829429Y11295693D01*
X38849844Y11297300D01*
X38862600Y11298304D01*
X38907800Y11311436D01*
X39007478Y11340395D01*
X39007479Y11340396D01*
X39015091Y11342607D01*
X39095119Y11389935D01*
X39144953Y11419407D01*
X39151774Y11423441D01*
X39264059Y11535726D01*
X39320907Y11631850D01*
X39340858Y11665586D01*
X39340858Y11665587D01*
X39344893Y11672409D01*
X39389196Y11824900D01*
X39390200Y11837656D01*
X39391807Y11858071D01*
X39391808Y11858084D01*
X39392000Y11860530D01*
X39392000Y13187470D01*
X39391808Y13189916D01*
X39391807Y13189929D01*
X39389701Y13216681D01*
X39389196Y13223100D01*
X39363211Y13312542D01*
X39347105Y13367978D01*
X39347104Y13367979D01*
X39344893Y13375591D01*
X39337504Y13388086D01*
X39268093Y13505453D01*
X39264059Y13512274D01*
X39151774Y13624559D01*
X39144953Y13628593D01*
X39021914Y13701358D01*
X39021913Y13701358D01*
X39015091Y13705393D01*
X39007479Y13707604D01*
X39007478Y13707605D01*
X38882460Y13743926D01*
X38862600Y13749696D01*
X38859681Y13749926D01*
X38797395Y13781272D01*
X38761300Y13842409D01*
X38763987Y13913355D01*
X38809927Y13975628D01*
X38817099Y13980781D01*
X38897454Y14038522D01*
X38964914Y14086996D01*
X38964919Y14087001D01*
X38969472Y14090272D01*
X39122083Y14247755D01*
X39236266Y14417677D01*
X39241262Y14425112D01*
X39241262Y14425113D01*
X39244394Y14429773D01*
X39252616Y14448502D01*
X39303012Y14563308D01*
X39332540Y14630575D01*
X39383734Y14843812D01*
X39392368Y14993555D01*
X39396034Y15057137D01*
X39396034Y15057140D01*
X39396357Y15062744D01*
X39370012Y15280452D01*
X39305530Y15490054D01*
X39300837Y15499148D01*
X39207521Y15679943D01*
X39207520Y15679944D01*
X39204950Y15684924D01*
X39071451Y15858903D01*
X39067306Y15862674D01*
X39067303Y15862678D01*
X38913405Y16002714D01*
X38909252Y16006493D01*
X38723482Y16123026D01*
X38718272Y16125120D01*
X38718267Y16125123D01*
X38640659Y16156321D01*
X38584914Y16200287D01*
X38561789Y16267412D01*
X38578626Y16336384D01*
X38633410Y16386954D01*
X38791385Y16462304D01*
X38951317Y16577226D01*
X38964913Y16586996D01*
X38969472Y16590272D01*
X39122083Y16747755D01*
X39244394Y16929773D01*
X39258802Y16962594D01*
X39307724Y17074043D01*
X39332540Y17130575D01*
X39383734Y17343812D01*
X39392614Y17497824D01*
X39396034Y17557137D01*
X39396034Y17557140D01*
X39396357Y17562744D01*
X39370012Y17780452D01*
X39305530Y17990054D01*
X39258771Y18080649D01*
X39207521Y18179943D01*
X39207520Y18179944D01*
X39204950Y18184924D01*
X39071451Y18358903D01*
X39067306Y18362674D01*
X39067303Y18362678D01*
X38913405Y18502714D01*
X38909252Y18506493D01*
X38723482Y18623026D01*
X38718272Y18625120D01*
X38718267Y18625123D01*
X38640659Y18656321D01*
X38584914Y18700287D01*
X38561789Y18767412D01*
X38578626Y18836384D01*
X38633410Y18886954D01*
X38643316Y18891679D01*
X38791385Y18962304D01*
X38969472Y19090272D01*
X39122083Y19247755D01*
X39244394Y19429773D01*
X39332540Y19630575D01*
X39378496Y19821996D01*
X39382424Y19838355D01*
X39382424Y19838356D01*
X39383734Y19843812D01*
X39390203Y19956004D01*
X39396034Y20057137D01*
X39396034Y20057140D01*
X39396357Y20062744D01*
X39370012Y20280452D01*
X39305530Y20490054D01*
X39204950Y20684924D01*
X39071451Y20858903D01*
X39067306Y20862674D01*
X39067303Y20862678D01*
X38913405Y21002714D01*
X38909252Y21006493D01*
X38723482Y21123026D01*
X38689965Y21136500D01*
X38580071Y21180677D01*
X38520011Y21204821D01*
X38514519Y21205958D01*
X38514517Y21205959D01*
X38367089Y21236490D01*
X38305271Y21249292D01*
X38300660Y21249558D01*
X38300659Y21249558D01*
X38251454Y21252395D01*
X38251450Y21252395D01*
X38249631Y21252500D01*
X37857857Y21252500D01*
X37855070Y21252251D01*
X37855064Y21252251D01*
X37786721Y21246151D01*
X37695072Y21237972D01*
X37689658Y21236491D01*
X37689653Y21236490D01*
X37488965Y21181587D01*
X37483548Y21180105D01*
X37483451Y21180461D01*
X37415697Y21175682D01*
X37353418Y21209768D01*
X37319454Y21272113D01*
X37317755Y21291603D01*
X37317623Y21291588D01*
X37316589Y21300952D01*
X37316959Y21310360D01*
X37315062Y21317516D01*
X37314600Y21325904D01*
X37314600Y22216667D01*
X37334602Y22284788D01*
X37351505Y22305762D01*
X37618250Y22572507D01*
X37680562Y22606533D01*
X37709322Y22609396D01*
X37729707Y22609075D01*
X37754846Y22608680D01*
X37754849Y22608680D01*
X37762443Y22608561D01*
X37922522Y22645224D01*
X38069234Y22719012D01*
X38157931Y22794767D01*
X38188338Y22820737D01*
X38188339Y22820738D01*
X38194110Y22825667D01*
X38198751Y22832125D01*
X38198958Y22832286D01*
X38203685Y22837427D01*
X38204542Y22836639D01*
X38254747Y22875770D01*
X38325451Y22882214D01*
X38361192Y22869326D01*
X38454593Y22818614D01*
X38613441Y22776941D01*
X38698483Y22775605D01*
X38770045Y22774480D01*
X38770048Y22774480D01*
X38777643Y22774361D01*
X38937722Y22811024D01*
X39084434Y22884812D01*
X39198095Y22981888D01*
X39203538Y22986537D01*
X39203539Y22986538D01*
X39209310Y22991467D01*
X39305141Y23124830D01*
X39320264Y23162448D01*
X39363560Y23270152D01*
X39363560Y23270153D01*
X39366394Y23277202D01*
X39382493Y23390323D01*
X39388952Y23435702D01*
X39388952Y23435706D01*
X39389533Y23439786D01*
X39389683Y23454100D01*
X39369954Y23617134D01*
X39311905Y23770755D01*
X39241801Y23872757D01*
X39223190Y23899836D01*
X39223189Y23899837D01*
X39218888Y23906095D01*
X39212641Y23911661D01*
X39101944Y24010290D01*
X39101940Y24010293D01*
X39096273Y24015342D01*
X38951138Y24092186D01*
X38791863Y24132194D01*
X38784265Y24132234D01*
X38784263Y24132234D01*
X38713507Y24132604D01*
X38627642Y24133053D01*
X38620263Y24131281D01*
X38620259Y24131281D01*
X38519854Y24107175D01*
X38467957Y24094716D01*
X38322026Y24019396D01*
X38316306Y24014406D01*
X38316303Y24014404D01*
X38215407Y23926386D01*
X38198273Y23911439D01*
X38193907Y23905227D01*
X38189281Y23900089D01*
X38128835Y23862849D01*
X38057851Y23864201D01*
X38036687Y23873044D01*
X37942651Y23922832D01*
X37942649Y23922833D01*
X37935938Y23926386D01*
X37776663Y23966394D01*
X37769065Y23966434D01*
X37769063Y23966434D01*
X37698307Y23966804D01*
X37612442Y23967253D01*
X37605063Y23965481D01*
X37605059Y23965481D01*
X37520526Y23945186D01*
X37452757Y23928916D01*
X37306826Y23853596D01*
X37301106Y23848606D01*
X37301103Y23848604D01*
X37188798Y23750634D01*
X37188795Y23750631D01*
X37183073Y23745639D01*
X37156989Y23708525D01*
X37097412Y23623755D01*
X37088644Y23611280D01*
X37028990Y23458275D01*
X37027999Y23450748D01*
X37008613Y23303498D01*
X37007554Y23295457D01*
X37007221Y23295501D01*
X36987795Y23231821D01*
X36971613Y23211955D01*
X36775570Y23015913D01*
X36713258Y22981888D01*
X36642442Y22986953D01*
X36602659Y23010931D01*
X36490073Y23111242D01*
X36363810Y23178094D01*
X36351647Y23184534D01*
X36351646Y23184534D01*
X36344938Y23188086D01*
X36185663Y23228094D01*
X36178065Y23228134D01*
X36178063Y23228134D01*
X36144796Y23228308D01*
X36078891Y23228652D01*
X36010877Y23249010D01*
X35964665Y23302907D01*
X35954929Y23373233D01*
X35956193Y23379318D01*
X35957594Y23382802D01*
X35980733Y23545386D01*
X35980883Y23559700D01*
X35979785Y23568779D01*
X35967504Y23670261D01*
X35961154Y23722734D01*
X35903105Y23876355D01*
X35878840Y23911661D01*
X35814390Y24005436D01*
X35814389Y24005437D01*
X35810088Y24011695D01*
X35801445Y24019396D01*
X35693144Y24115890D01*
X35693140Y24115893D01*
X35687473Y24120942D01*
X35576153Y24179882D01*
X35549047Y24194234D01*
X35549046Y24194234D01*
X35542338Y24197786D01*
X35383063Y24237794D01*
X35375465Y24237834D01*
X35375463Y24237834D01*
X35304707Y24238204D01*
X35218842Y24238653D01*
X35211463Y24236881D01*
X35211459Y24236881D01*
X35111054Y24212775D01*
X35059157Y24200316D01*
X34913226Y24124996D01*
X34907506Y24120006D01*
X34907503Y24120004D01*
X34795198Y24022034D01*
X34795195Y24022031D01*
X34789473Y24017039D01*
X34752578Y23964543D01*
X34715412Y23911661D01*
X34659877Y23867430D01*
X34589245Y23860244D01*
X34553366Y23872757D01*
X34517147Y23891934D01*
X34517146Y23891934D01*
X34510438Y23895486D01*
X34351163Y23935494D01*
X34343565Y23935534D01*
X34343563Y23935534D01*
X34272807Y23935904D01*
X34186942Y23936353D01*
X34179563Y23934581D01*
X34179559Y23934581D01*
X34084092Y23911661D01*
X34027257Y23898016D01*
X33881326Y23822696D01*
X33875606Y23817706D01*
X33875603Y23817704D01*
X33763298Y23719734D01*
X33763295Y23719731D01*
X33757573Y23714739D01*
X33731177Y23677181D01*
X33698131Y23630161D01*
X33663144Y23580380D01*
X33603490Y23427375D01*
X33602499Y23419848D01*
X33583045Y23272088D01*
X33583045Y23272084D01*
X33582054Y23264557D01*
X28225391Y23264557D01*
X28205705Y23316655D01*
X28159825Y23383411D01*
X28116990Y23445736D01*
X28116989Y23445737D01*
X28112688Y23451995D01*
X28097700Y23465349D01*
X27995744Y23556190D01*
X27995740Y23556193D01*
X27990073Y23561242D01*
X27872005Y23623755D01*
X27851647Y23634534D01*
X27851646Y23634534D01*
X27844938Y23638086D01*
X27685663Y23678094D01*
X27678065Y23678134D01*
X27678063Y23678134D01*
X27607307Y23678504D01*
X27521442Y23678953D01*
X27514063Y23677181D01*
X27514059Y23677181D01*
X27413654Y23653075D01*
X27361757Y23640616D01*
X27215826Y23565296D01*
X27210106Y23560306D01*
X27210103Y23560304D01*
X27097798Y23462334D01*
X27097795Y23462331D01*
X27092073Y23457339D01*
X27082636Y23443911D01*
X27014060Y23346337D01*
X26997644Y23322980D01*
X26937990Y23169975D01*
X26936999Y23162448D01*
X26917545Y23014688D01*
X26917545Y23014684D01*
X26916554Y23007157D01*
X25700776Y23007157D01*
X25645744Y23056190D01*
X25645740Y23056193D01*
X25640073Y23061242D01*
X25519975Y23124830D01*
X25501647Y23134534D01*
X25501646Y23134534D01*
X25494938Y23138086D01*
X25335663Y23178094D01*
X25328065Y23178134D01*
X25328063Y23178134D01*
X25257307Y23178504D01*
X25171442Y23178953D01*
X25164063Y23177181D01*
X25164059Y23177181D01*
X25073728Y23155494D01*
X25011757Y23140616D01*
X24865826Y23065296D01*
X24860106Y23060306D01*
X24860103Y23060304D01*
X24774642Y22985751D01*
X24710160Y22956043D01*
X24691813Y22954700D01*
X24146655Y22954700D01*
X24078534Y22974702D01*
X24032041Y23028358D01*
X24021937Y23098632D01*
X24051431Y23163212D01*
X24090041Y23193265D01*
X24185351Y23241200D01*
X24185354Y23241202D01*
X24192134Y23244612D01*
X24283812Y23322913D01*
X24311238Y23346337D01*
X24311239Y23346338D01*
X24317010Y23351267D01*
X24412841Y23484630D01*
X24445269Y23565296D01*
X24471260Y23629952D01*
X24471260Y23629953D01*
X24474094Y23637002D01*
X24492231Y23764439D01*
X24496652Y23795502D01*
X24496652Y23795506D01*
X24497233Y23799586D01*
X24497383Y23813900D01*
X24494132Y23840770D01*
X24485553Y23911661D01*
X24477654Y23976934D01*
X24419605Y24130555D01*
X24376051Y24193926D01*
X24330890Y24259636D01*
X24330889Y24259637D01*
X24326588Y24265895D01*
X24318499Y24273102D01*
X24209644Y24370090D01*
X24209640Y24370093D01*
X24203973Y24375142D01*
X24197265Y24378694D01*
X24197263Y24378695D01*
X24067041Y24447643D01*
X24016198Y24497196D01*
X24000000Y24558998D01*
X24000000Y25007157D01*
X27066554Y25007157D01*
X27084575Y24843926D01*
X27087184Y24836795D01*
X27087185Y24836793D01*
X27104417Y24789705D01*
X27141012Y24689705D01*
X27145249Y24683399D01*
X27145251Y24683396D01*
X27156501Y24666655D01*
X27232607Y24553398D01*
X27238225Y24548286D01*
X27348450Y24447988D01*
X27348454Y24447985D01*
X27354071Y24442874D01*
X27360744Y24439251D01*
X27360748Y24439248D01*
X27488123Y24370090D01*
X27498393Y24364514D01*
X27657241Y24322841D01*
X27742283Y24321505D01*
X27813845Y24320380D01*
X27813848Y24320380D01*
X27821443Y24320261D01*
X27981522Y24356924D01*
X28128234Y24430712D01*
X28253110Y24537367D01*
X28348941Y24670730D01*
X28410194Y24823102D01*
X28424661Y24924755D01*
X28432752Y24981602D01*
X28432752Y24981606D01*
X28433333Y24985686D01*
X28433483Y25000000D01*
X28429980Y25028953D01*
X28423114Y25085686D01*
X28413754Y25163034D01*
X28355705Y25316655D01*
X28282630Y25422980D01*
X28266990Y25445736D01*
X28266989Y25445737D01*
X28262688Y25451995D01*
X28251084Y25462334D01*
X28145744Y25556190D01*
X28145740Y25556193D01*
X28140073Y25561242D01*
X27994938Y25638086D01*
X27835663Y25678094D01*
X27828065Y25678134D01*
X27828063Y25678134D01*
X27757307Y25678504D01*
X27671442Y25678953D01*
X27664063Y25677181D01*
X27664059Y25677181D01*
X27597670Y25661242D01*
X27511757Y25640616D01*
X27365826Y25565296D01*
X27360106Y25560306D01*
X27360103Y25560304D01*
X27247798Y25462334D01*
X27247795Y25462331D01*
X27242073Y25457339D01*
X27226825Y25435643D01*
X27176835Y25364514D01*
X27147644Y25322980D01*
X27087990Y25169975D01*
X27086999Y25162448D01*
X27067545Y25014688D01*
X27067545Y25014684D01*
X27066554Y25007157D01*
X24000000Y25007157D01*
X24000000Y26007157D01*
X35816554Y26007157D01*
X35834575Y25843926D01*
X35837184Y25836795D01*
X35837185Y25836793D01*
X35844775Y25816052D01*
X35891012Y25689705D01*
X35895249Y25683399D01*
X35895251Y25683396D01*
X35937490Y25620539D01*
X35982607Y25553398D01*
X35988225Y25548286D01*
X36098450Y25447988D01*
X36098454Y25447985D01*
X36104071Y25442874D01*
X36110744Y25439251D01*
X36110748Y25439248D01*
X36173887Y25404967D01*
X36248393Y25364514D01*
X36407241Y25322841D01*
X36492283Y25321505D01*
X36563845Y25320380D01*
X36563848Y25320380D01*
X36571443Y25320261D01*
X36731522Y25356924D01*
X36878234Y25430712D01*
X37003110Y25537367D01*
X37098941Y25670730D01*
X37101902Y25678094D01*
X37157360Y25816052D01*
X37157360Y25816053D01*
X37160194Y25823102D01*
X37177670Y25945898D01*
X37182752Y25981602D01*
X37182752Y25981606D01*
X37183333Y25985686D01*
X37183483Y26000000D01*
X37163754Y26163034D01*
X37105705Y26316655D01*
X37057957Y26386129D01*
X37016990Y26445736D01*
X37016989Y26445737D01*
X37012688Y26451995D01*
X36959112Y26499730D01*
X36895744Y26556190D01*
X36895740Y26556193D01*
X36890073Y26561242D01*
X36744938Y26638086D01*
X36585663Y26678094D01*
X36578065Y26678134D01*
X36578063Y26678134D01*
X36507307Y26678504D01*
X36421442Y26678953D01*
X36414063Y26677181D01*
X36414059Y26677181D01*
X36326186Y26656084D01*
X36261757Y26640616D01*
X36115826Y26565296D01*
X36110106Y26560306D01*
X36110103Y26560304D01*
X35997798Y26462334D01*
X35997795Y26462331D01*
X35992073Y26457339D01*
X35897644Y26322980D01*
X35837990Y26169975D01*
X35836999Y26162448D01*
X35817545Y26014688D01*
X35817545Y26014684D01*
X35816554Y26007157D01*
X24000000Y26007157D01*
X24000000Y27817805D01*
X24020002Y27885926D01*
X24072277Y27931105D01*
X24073637Y27931547D01*
X24152279Y27978427D01*
X24221034Y27996127D01*
X24285788Y27975631D01*
X24319869Y27953329D01*
X24346771Y27935725D01*
X24353375Y27933269D01*
X24353377Y27933268D01*
X24384894Y27921547D01*
X24510472Y27874845D01*
X24517457Y27873913D01*
X24676612Y27852677D01*
X24676616Y27852677D01*
X24683593Y27851746D01*
X24690604Y27852384D01*
X24690608Y27852384D01*
X24850512Y27866936D01*
X24850515Y27866937D01*
X24857530Y27867575D01*
X24910681Y27884845D01*
X25016941Y27919371D01*
X25016943Y27919372D01*
X25023637Y27921547D01*
X25081643Y27956125D01*
X25150396Y27973825D01*
X25215150Y27953329D01*
X25220872Y27949585D01*
X25226771Y27945725D01*
X25233375Y27943269D01*
X25233377Y27943268D01*
X25297635Y27919371D01*
X25390472Y27884845D01*
X25397457Y27883913D01*
X25556612Y27862677D01*
X25556616Y27862677D01*
X25563593Y27861746D01*
X25570604Y27862384D01*
X25570608Y27862384D01*
X25730512Y27876936D01*
X25730515Y27876937D01*
X25737530Y27877575D01*
X25762493Y27885686D01*
X25896941Y27929371D01*
X25896943Y27929372D01*
X25903637Y27931547D01*
X26053659Y28020978D01*
X26180139Y28141423D01*
X26223812Y28207157D01*
X33416554Y28207157D01*
X33434575Y28043926D01*
X33437184Y28036795D01*
X33437185Y28036793D01*
X33442973Y28020978D01*
X33491012Y27889705D01*
X33495249Y27883399D01*
X33495251Y27883396D01*
X33532650Y27827742D01*
X33582607Y27753398D01*
X33588225Y27748286D01*
X33698450Y27647988D01*
X33698454Y27647985D01*
X33704071Y27642874D01*
X33710744Y27639251D01*
X33710748Y27639248D01*
X33836944Y27570730D01*
X33848393Y27564514D01*
X34007241Y27522841D01*
X34092283Y27521505D01*
X34163845Y27520380D01*
X34163848Y27520380D01*
X34171443Y27520261D01*
X34331522Y27556924D01*
X34478234Y27630712D01*
X34603110Y27737367D01*
X34698941Y27870730D01*
X34704954Y27885686D01*
X34757360Y28016052D01*
X34757360Y28016053D01*
X34760194Y28023102D01*
X34776342Y28136564D01*
X34782752Y28181602D01*
X34782752Y28181606D01*
X34783333Y28185686D01*
X34783483Y28200000D01*
X34763754Y28363034D01*
X34705705Y28516655D01*
X34662889Y28578953D01*
X34616990Y28645736D01*
X34616989Y28645737D01*
X34612688Y28651995D01*
X34510231Y28743282D01*
X34495744Y28756190D01*
X34495740Y28756193D01*
X34490073Y28761242D01*
X34344938Y28838086D01*
X34185663Y28878094D01*
X34178065Y28878134D01*
X34178063Y28878134D01*
X34107307Y28878504D01*
X34021442Y28878953D01*
X34014063Y28877181D01*
X34014059Y28877181D01*
X33913654Y28853075D01*
X33861757Y28840616D01*
X33715826Y28765296D01*
X33710106Y28760306D01*
X33710103Y28760304D01*
X33597798Y28662334D01*
X33597795Y28662331D01*
X33592073Y28657339D01*
X33583401Y28645000D01*
X33508261Y28538086D01*
X33497644Y28522980D01*
X33437990Y28369975D01*
X33436999Y28362448D01*
X33417545Y28214688D01*
X33417545Y28214684D01*
X33416554Y28207157D01*
X26223812Y28207157D01*
X26243351Y28236565D01*
X26272891Y28281026D01*
X26272892Y28281028D01*
X26276792Y28286898D01*
X26338813Y28450170D01*
X26363121Y28623125D01*
X26363426Y28645000D01*
X26343957Y28818567D01*
X26286519Y28983507D01*
X26193966Y29131623D01*
X26185501Y29140148D01*
X26075860Y29250557D01*
X26070898Y29255554D01*
X26062032Y29261181D01*
X25991724Y29305799D01*
X25923431Y29349139D01*
X25840563Y29378647D01*
X25765531Y29405365D01*
X25765526Y29405366D01*
X25758896Y29407727D01*
X25751908Y29408560D01*
X25751905Y29408561D01*
X25634334Y29422580D01*
X25585469Y29428407D01*
X25578467Y29427671D01*
X25578465Y29427671D01*
X25418771Y29410886D01*
X25418769Y29410886D01*
X25411771Y29410150D01*
X25325003Y29380612D01*
X25253103Y29356136D01*
X25253100Y29356135D01*
X25246433Y29353865D01*
X25200910Y29325859D01*
X25198633Y29324458D01*
X25130132Y29305799D01*
X25065094Y29325391D01*
X25049384Y29335361D01*
X25049385Y29335361D01*
X25043431Y29339139D01*
X25002199Y29353821D01*
X24885531Y29395365D01*
X24885526Y29395366D01*
X24878896Y29397727D01*
X24871908Y29398560D01*
X24871905Y29398561D01*
X24754334Y29412580D01*
X24705469Y29418407D01*
X24698467Y29417671D01*
X24698465Y29417671D01*
X24538771Y29400886D01*
X24538769Y29400886D01*
X24531771Y29400150D01*
X24468606Y29378647D01*
X24373103Y29346136D01*
X24373100Y29346135D01*
X24366433Y29343865D01*
X24360435Y29340175D01*
X24360433Y29340174D01*
X24299091Y29302436D01*
X24230590Y29283778D01*
X24165555Y29303368D01*
X24161725Y29305799D01*
X24148884Y29313948D01*
X24099374Y29345368D01*
X24099371Y29345370D01*
X24093431Y29349139D01*
X24083735Y29352591D01*
X24082041Y29353821D01*
X24080466Y29354589D01*
X24080601Y29354866D01*
X24026271Y29394283D01*
X24000469Y29460425D01*
X24000000Y29471291D01*
X24000000Y30507157D01*
X24316554Y30507157D01*
X24325565Y30425541D01*
X24332271Y30364799D01*
X24334575Y30343926D01*
X24337184Y30336795D01*
X24337185Y30336793D01*
X24344775Y30316052D01*
X24391012Y30189705D01*
X24395249Y30183399D01*
X24395251Y30183396D01*
X24413040Y30156924D01*
X24482607Y30053398D01*
X24488225Y30048286D01*
X24598450Y29947988D01*
X24598454Y29947985D01*
X24604071Y29942874D01*
X24610744Y29939251D01*
X24610748Y29939248D01*
X24741720Y29868137D01*
X24748393Y29864514D01*
X24907241Y29822841D01*
X24992283Y29821505D01*
X25063845Y29820380D01*
X25063848Y29820380D01*
X25071443Y29820261D01*
X25231522Y29856924D01*
X25378234Y29930712D01*
X25384005Y29935641D01*
X25384008Y29935643D01*
X25417153Y29963952D01*
X25481943Y29992983D01*
X25552143Y29982378D01*
X25583783Y29961334D01*
X25604071Y29942874D01*
X25610744Y29939251D01*
X25610748Y29939248D01*
X25741720Y29868137D01*
X25748393Y29864514D01*
X25907241Y29822841D01*
X25992283Y29821505D01*
X26063845Y29820380D01*
X26063848Y29820380D01*
X26071443Y29820261D01*
X26231522Y29856924D01*
X26378234Y29930712D01*
X26455368Y29996591D01*
X26497338Y30032437D01*
X26497339Y30032438D01*
X26503110Y30037367D01*
X26598941Y30170730D01*
X26606088Y30188507D01*
X26657360Y30316052D01*
X26657360Y30316053D01*
X26660194Y30323102D01*
X26674661Y30424755D01*
X26682752Y30481602D01*
X26682752Y30481606D01*
X26683333Y30485686D01*
X26683483Y30500000D01*
X26663754Y30663034D01*
X26605705Y30816655D01*
X26604272Y30818740D01*
X26590859Y30886257D01*
X26599447Y30921989D01*
X26660194Y31073102D01*
X26683333Y31235686D01*
X26683483Y31250000D01*
X26681991Y31262334D01*
X26670021Y31361242D01*
X26663754Y31413034D01*
X26605705Y31566655D01*
X26512688Y31701995D01*
X26498909Y31714272D01*
X26481630Y31729667D01*
X27567053Y31729667D01*
X27580618Y31522707D01*
X27631671Y31321685D01*
X27718503Y31133333D01*
X27838205Y30963958D01*
X27842339Y30959931D01*
X27942441Y30862416D01*
X27986769Y30819233D01*
X27991565Y30816028D01*
X27991568Y30816026D01*
X28070684Y30763163D01*
X28159219Y30704006D01*
X28164522Y30701728D01*
X28164525Y30701726D01*
X28344473Y30624414D01*
X28349780Y30622134D01*
X28423521Y30605448D01*
X28546433Y30577636D01*
X28546438Y30577635D01*
X28552070Y30576361D01*
X28557841Y30576134D01*
X28557843Y30576134D01*
X28619612Y30573707D01*
X28759314Y30568218D01*
X28861943Y30583099D01*
X28958858Y30597150D01*
X28958863Y30597151D01*
X28964572Y30597979D01*
X28970040Y30599835D01*
X29155497Y30662789D01*
X29155502Y30662791D01*
X29160969Y30664647D01*
X29170771Y30670136D01*
X29236981Y30707216D01*
X29341928Y30765989D01*
X29391427Y30807157D01*
X33316554Y30807157D01*
X33320691Y30769687D01*
X33333298Y30655494D01*
X33334575Y30643926D01*
X33337184Y30636795D01*
X33337185Y30636793D01*
X33358834Y30577636D01*
X33391012Y30489705D01*
X33395249Y30483399D01*
X33395251Y30483396D01*
X33411388Y30459382D01*
X33482607Y30353398D01*
X33488225Y30348286D01*
X33598450Y30247988D01*
X33598454Y30247985D01*
X33604071Y30242874D01*
X33610744Y30239251D01*
X33610748Y30239248D01*
X33736944Y30170730D01*
X33748393Y30164514D01*
X33907241Y30122841D01*
X33992283Y30121505D01*
X34063845Y30120380D01*
X34063848Y30120380D01*
X34071443Y30120261D01*
X34231522Y30156924D01*
X34378234Y30230712D01*
X34503110Y30337367D01*
X34598941Y30470730D01*
X34604759Y30485201D01*
X34657360Y30616052D01*
X34657360Y30616053D01*
X34660194Y30623102D01*
X34683333Y30785686D01*
X34683483Y30800000D01*
X34682328Y30809549D01*
X34674382Y30875209D01*
X34663754Y30963034D01*
X34605705Y31116655D01*
X34597085Y31129197D01*
X34516990Y31245736D01*
X34516989Y31245737D01*
X34512688Y31251995D01*
X34507017Y31257048D01*
X34395744Y31356190D01*
X34395740Y31356193D01*
X34390073Y31361242D01*
X34244938Y31438086D01*
X34085663Y31478094D01*
X34078065Y31478134D01*
X34078063Y31478134D01*
X34007307Y31478504D01*
X33921442Y31478953D01*
X33914063Y31477181D01*
X33914059Y31477181D01*
X33837307Y31458754D01*
X33761757Y31440616D01*
X33615826Y31365296D01*
X33610106Y31360306D01*
X33610103Y31360304D01*
X33497798Y31262334D01*
X33497795Y31262331D01*
X33492073Y31257339D01*
X33397644Y31122980D01*
X33337990Y30969975D01*
X33336999Y30962448D01*
X33317545Y30814688D01*
X33317545Y30814684D01*
X33316554Y30807157D01*
X29391427Y30807157D01*
X29501389Y30898611D01*
X29634011Y31058072D01*
X29735353Y31239031D01*
X29737209Y31244498D01*
X29737211Y31244503D01*
X29800165Y31429960D01*
X29800165Y31429961D01*
X29802021Y31435428D01*
X29802849Y31441137D01*
X29802850Y31441142D01*
X29822256Y31574987D01*
X29831782Y31640686D01*
X29833335Y31700000D01*
X29814357Y31906534D01*
X29808900Y31925885D01*
X29759627Y32100592D01*
X29759626Y32100594D01*
X29758059Y32106151D01*
X29742058Y32138599D01*
X29668882Y32286985D01*
X29666327Y32292166D01*
X29656664Y32305107D01*
X29545685Y32453725D01*
X29545684Y32453726D01*
X29542232Y32458349D01*
X29389931Y32599135D01*
X29214523Y32709809D01*
X29021885Y32786664D01*
X29016228Y32787789D01*
X29016222Y32787791D01*
X28824133Y32825999D01*
X28824131Y32825999D01*
X28818466Y32827126D01*
X28812691Y32827202D01*
X28812687Y32827202D01*
X28708848Y32828561D01*
X28611080Y32829841D01*
X28605383Y32828862D01*
X28605382Y32828862D01*
X28412368Y32795697D01*
X28412367Y32795697D01*
X28406671Y32794718D01*
X28212087Y32722931D01*
X28033842Y32616887D01*
X28029502Y32613081D01*
X28029498Y32613078D01*
X27978073Y32567979D01*
X27877908Y32480136D01*
X27749505Y32317258D01*
X27746816Y32312147D01*
X27746814Y32312144D01*
X27716315Y32254175D01*
X27652935Y32133709D01*
X27591431Y31935634D01*
X27567053Y31729667D01*
X26481630Y31729667D01*
X26395744Y31806190D01*
X26395740Y31806193D01*
X26390073Y31811242D01*
X26244938Y31888086D01*
X26085663Y31928094D01*
X26078065Y31928134D01*
X26078063Y31928134D01*
X26007307Y31928504D01*
X25921442Y31928953D01*
X25914063Y31927181D01*
X25914059Y31927181D01*
X25851223Y31912095D01*
X25761757Y31890616D01*
X25615826Y31815296D01*
X25610104Y31810304D01*
X25610098Y31810300D01*
X25583168Y31786807D01*
X25518686Y31757098D01*
X25448379Y31766967D01*
X25416523Y31787676D01*
X25390073Y31811242D01*
X25244938Y31888086D01*
X25085663Y31928094D01*
X25078065Y31928134D01*
X25078063Y31928134D01*
X25007307Y31928504D01*
X24921442Y31928953D01*
X24914063Y31927181D01*
X24914059Y31927181D01*
X24851223Y31912095D01*
X24761757Y31890616D01*
X24615826Y31815296D01*
X24610106Y31810306D01*
X24610103Y31810304D01*
X24497798Y31712334D01*
X24497795Y31712331D01*
X24492073Y31707339D01*
X24483401Y31695000D01*
X24445229Y31640686D01*
X24397644Y31572980D01*
X24337990Y31419975D01*
X24336999Y31412448D01*
X24317545Y31264688D01*
X24317545Y31264684D01*
X24316554Y31257157D01*
X24325565Y31175541D01*
X24332850Y31109552D01*
X24334575Y31093926D01*
X24337184Y31086795D01*
X24337185Y31086793D01*
X24358564Y31028373D01*
X24391012Y30939705D01*
X24395250Y30933398D01*
X24395864Y30932193D01*
X24408968Y30862416D01*
X24397013Y30823226D01*
X24397644Y30822980D01*
X24337990Y30669975D01*
X24336999Y30662448D01*
X24317545Y30514688D01*
X24317545Y30514684D01*
X24316554Y30507157D01*
X24000000Y30507157D01*
X24000000Y32500000D01*
X17136080Y32500000D01*
X17067959Y32520002D01*
X17050551Y32533476D01*
X16989176Y32590211D01*
X16984931Y32594135D01*
X16980048Y32597216D01*
X16980044Y32597219D01*
X16814406Y32701728D01*
X16814407Y32701728D01*
X16809523Y32704809D01*
X16616885Y32781664D01*
X16611228Y32782789D01*
X16611222Y32782791D01*
X16419133Y32820999D01*
X16419131Y32820999D01*
X16413466Y32822126D01*
X16407691Y32822202D01*
X16407687Y32822202D01*
X16303848Y32823561D01*
X16206080Y32824841D01*
X16200383Y32823862D01*
X16200382Y32823862D01*
X16007368Y32790697D01*
X16007367Y32790697D01*
X16001671Y32789718D01*
X15807087Y32717931D01*
X15802126Y32714979D01*
X15802125Y32714979D01*
X15739962Y32677996D01*
X15671191Y32660356D01*
X15603801Y32682697D01*
X15559188Y32737925D01*
X15556545Y32744851D01*
X15553431Y32753795D01*
X15549271Y32768597D01*
X15543996Y32792997D01*
X15543994Y32793002D01*
X15542507Y32799881D01*
X15539531Y32806264D01*
X15524960Y32837512D01*
X15520165Y32849321D01*
X15519903Y32850074D01*
X15506519Y32888507D01*
X15489564Y32915641D01*
X15482225Y32929157D01*
X15471669Y32951793D01*
X15468694Y32958173D01*
X15443252Y32990973D01*
X15435963Y33001421D01*
X15413966Y33036623D01*
X15386416Y33064366D01*
X15385866Y33064954D01*
X15385364Y33065601D01*
X15360347Y33090618D01*
X15357823Y33093160D01*
X15293301Y33158135D01*
X15293293Y33158142D01*
X15290898Y33160554D01*
X15289895Y33161191D01*
X15288724Y33162241D01*
X14906823Y33544142D01*
X14905895Y33545079D01*
X14882561Y33568907D01*
X15740212Y33568907D01*
X15743954Y33563908D01*
X15858113Y33510674D01*
X15868405Y33506928D01*
X16070401Y33452804D01*
X16081196Y33450901D01*
X16289525Y33432674D01*
X16300475Y33432674D01*
X16508804Y33450901D01*
X16519599Y33452804D01*
X16721595Y33506928D01*
X16731887Y33510674D01*
X16839422Y33560819D01*
X16850005Y33570138D01*
X16848198Y33576117D01*
X16307812Y34116503D01*
X16293868Y34124117D01*
X16292035Y34123986D01*
X16285420Y34119735D01*
X15746972Y33581287D01*
X15740212Y33568907D01*
X14882561Y33568907D01*
X14875500Y33576117D01*
X14863977Y33587885D01*
X14830606Y33650549D01*
X14828000Y33676042D01*
X14828000Y33849457D01*
X14825845Y33889764D01*
X14822980Y33916479D01*
X14819779Y33939581D01*
X14778999Y34057142D01*
X14745009Y34119473D01*
X14742805Y34122563D01*
X14742801Y34122570D01*
X14723414Y34149756D01*
X14700000Y34222913D01*
X14700000Y34689525D01*
X15032674Y34689525D01*
X15050901Y34481196D01*
X15052804Y34470401D01*
X15106928Y34268405D01*
X15110674Y34258113D01*
X15160819Y34150578D01*
X15170138Y34139995D01*
X15176117Y34141802D01*
X15716503Y34682188D01*
X15722881Y34693868D01*
X16865883Y34693868D01*
X16866014Y34692035D01*
X16870265Y34685420D01*
X17408713Y34146972D01*
X17421093Y34140212D01*
X17426092Y34143954D01*
X17430266Y34152904D01*
X27442000Y34152904D01*
X27442337Y34146389D01*
X27452256Y34050797D01*
X27455150Y34037398D01*
X27506588Y33883217D01*
X27512762Y33870038D01*
X27598063Y33732193D01*
X27607099Y33720792D01*
X27721830Y33606261D01*
X27733241Y33597249D01*
X27871245Y33512182D01*
X27884423Y33506038D01*
X28038716Y33454861D01*
X28052081Y33451995D01*
X28146439Y33442328D01*
X28152855Y33442000D01*
X28281885Y33442000D01*
X28297124Y33446475D01*
X28298329Y33447865D01*
X28300000Y33455548D01*
X28300000Y33460115D01*
X29100000Y33460115D01*
X29104475Y33444876D01*
X29105865Y33443671D01*
X29113548Y33442000D01*
X29247096Y33442000D01*
X29253611Y33442337D01*
X29349203Y33452256D01*
X29362602Y33455150D01*
X29516783Y33506588D01*
X29529962Y33512762D01*
X29667807Y33598063D01*
X29679208Y33607099D01*
X29793739Y33721830D01*
X29802751Y33733241D01*
X29887818Y33871245D01*
X29893962Y33884423D01*
X29945139Y34038716D01*
X29948005Y34052081D01*
X29957672Y34146439D01*
X29958000Y34152855D01*
X29958000Y34281885D01*
X29953525Y34297124D01*
X29952135Y34298329D01*
X29944452Y34300000D01*
X29118115Y34300000D01*
X29102876Y34295525D01*
X29101671Y34294135D01*
X29100000Y34286452D01*
X29100000Y33460115D01*
X28300000Y33460115D01*
X28300000Y34281885D01*
X28295525Y34297124D01*
X28294135Y34298329D01*
X28286452Y34300000D01*
X27460115Y34300000D01*
X27444876Y34295525D01*
X27443671Y34294135D01*
X27442000Y34286452D01*
X27442000Y34152904D01*
X17430266Y34152904D01*
X17479326Y34258113D01*
X17483072Y34268405D01*
X17537196Y34470401D01*
X17539099Y34481196D01*
X17557326Y34689525D01*
X17557326Y34700475D01*
X17539099Y34908804D01*
X17537196Y34919599D01*
X17484004Y35118115D01*
X27442000Y35118115D01*
X27446475Y35102876D01*
X27447865Y35101671D01*
X27455548Y35100000D01*
X28281885Y35100000D01*
X28297124Y35104475D01*
X28298329Y35105865D01*
X28300000Y35113548D01*
X28300000Y35118115D01*
X29100000Y35118115D01*
X29104475Y35102876D01*
X29105865Y35101671D01*
X29113548Y35100000D01*
X29939885Y35100000D01*
X29955124Y35104475D01*
X29956329Y35105865D01*
X29958000Y35113548D01*
X29958000Y35247096D01*
X29957663Y35253611D01*
X29947744Y35349203D01*
X29944850Y35362602D01*
X29893412Y35516783D01*
X29887238Y35529962D01*
X29801937Y35667807D01*
X29792901Y35679208D01*
X29678170Y35793739D01*
X29666759Y35802751D01*
X29528755Y35887818D01*
X29515577Y35893962D01*
X29361284Y35945139D01*
X29347919Y35948005D01*
X29253561Y35957672D01*
X29247144Y35958000D01*
X29118115Y35958000D01*
X29102876Y35953525D01*
X29101671Y35952135D01*
X29100000Y35944452D01*
X29100000Y35118115D01*
X28300000Y35118115D01*
X28300000Y35939885D01*
X28295525Y35955124D01*
X28294135Y35956329D01*
X28286452Y35958000D01*
X28152904Y35958000D01*
X28146389Y35957663D01*
X28050797Y35947744D01*
X28037398Y35944850D01*
X27883217Y35893412D01*
X27870038Y35887238D01*
X27732193Y35801937D01*
X27720792Y35792901D01*
X27606261Y35678170D01*
X27597249Y35666759D01*
X27512182Y35528755D01*
X27506038Y35515577D01*
X27454861Y35361284D01*
X27451995Y35347919D01*
X27442328Y35253561D01*
X27442000Y35247144D01*
X27442000Y35118115D01*
X17484004Y35118115D01*
X17483072Y35121595D01*
X17479326Y35131887D01*
X17429181Y35239422D01*
X17419862Y35250005D01*
X17413883Y35248198D01*
X16873497Y34707812D01*
X16865883Y34693868D01*
X15722881Y34693868D01*
X15724117Y34696132D01*
X15723986Y34697965D01*
X15719735Y34704580D01*
X15181287Y35243028D01*
X15168907Y35249788D01*
X15163908Y35246046D01*
X15110674Y35131887D01*
X15106928Y35121595D01*
X15052804Y34919599D01*
X15050901Y34908804D01*
X15032674Y34700475D01*
X15032674Y34689525D01*
X14700000Y34689525D01*
X14700000Y35162903D01*
X14720002Y35231024D01*
X14732107Y35246820D01*
X14732401Y35247255D01*
X14738456Y35253933D01*
X14792687Y35365928D01*
X14812689Y35434049D01*
X14813330Y35438504D01*
X14827361Y35536095D01*
X14827361Y35536102D01*
X14828000Y35540543D01*
X14828000Y35819862D01*
X15739995Y35819862D01*
X15741802Y35813883D01*
X16282188Y35273497D01*
X16296132Y35265883D01*
X16297965Y35266014D01*
X16304580Y35270265D01*
X16843028Y35808713D01*
X16849788Y35821093D01*
X16846046Y35826092D01*
X16731887Y35879326D01*
X16721595Y35883072D01*
X16519599Y35937196D01*
X16508804Y35939099D01*
X16300475Y35957326D01*
X16289525Y35957326D01*
X16081196Y35939099D01*
X16070401Y35937196D01*
X15868405Y35883072D01*
X15858113Y35879326D01*
X15750578Y35829181D01*
X15739995Y35819862D01*
X14828000Y35819862D01*
X14828000Y36500000D01*
X32916589Y36500000D01*
X32936219Y36125432D01*
X32994895Y35754967D01*
X33091974Y35392665D01*
X33093159Y35389577D01*
X33093160Y35389575D01*
X33119292Y35321499D01*
X33226391Y35042495D01*
X33396675Y34708295D01*
X33600960Y34393724D01*
X33837007Y34102230D01*
X34102230Y33837007D01*
X34393724Y33600960D01*
X34708294Y33396675D01*
X35042495Y33226391D01*
X35392665Y33091974D01*
X35754967Y32994895D01*
X35951703Y32963735D01*
X36122184Y32936733D01*
X36122192Y32936732D01*
X36125432Y32936219D01*
X36500000Y32916589D01*
X36874568Y32936219D01*
X36877808Y32936732D01*
X36877816Y32936733D01*
X37048297Y32963735D01*
X37245033Y32994895D01*
X37607335Y33091974D01*
X37957505Y33226391D01*
X38291706Y33396675D01*
X38606276Y33600960D01*
X38897770Y33837007D01*
X39162993Y34102230D01*
X39399040Y34393724D01*
X39603325Y34708295D01*
X39773609Y35042495D01*
X39880708Y35321499D01*
X39906840Y35389575D01*
X39906841Y35389577D01*
X39908026Y35392665D01*
X40005105Y35754967D01*
X40063781Y36125432D01*
X40083411Y36500000D01*
X40063781Y36874568D01*
X40005105Y37245033D01*
X39908026Y37607335D01*
X39893826Y37644329D01*
X39801514Y37884809D01*
X39773609Y37957505D01*
X39720711Y38061323D01*
X39604823Y38288766D01*
X39604819Y38288773D01*
X39603325Y38291705D01*
X39399040Y38606276D01*
X39162993Y38897770D01*
X38897770Y39162993D01*
X38606276Y39399040D01*
X38291706Y39603325D01*
X37957505Y39773609D01*
X37607335Y39908026D01*
X37245033Y40005105D01*
X37048202Y40036280D01*
X36877816Y40063267D01*
X36877808Y40063268D01*
X36874568Y40063781D01*
X36500000Y40083411D01*
X36125432Y40063781D01*
X36122192Y40063268D01*
X36122184Y40063267D01*
X35951798Y40036280D01*
X35754967Y40005105D01*
X35392665Y39908026D01*
X35042495Y39773609D01*
X35039555Y39772111D01*
X34711234Y39604823D01*
X34711227Y39604819D01*
X34708295Y39603325D01*
X34393724Y39399040D01*
X34102230Y39162993D01*
X33837007Y38897770D01*
X33600960Y38606276D01*
X33396675Y38291705D01*
X33395181Y38288773D01*
X33395177Y38288766D01*
X33279289Y38061323D01*
X33226391Y37957505D01*
X33198486Y37884809D01*
X33106175Y37644329D01*
X33091974Y37607335D01*
X32994895Y37245033D01*
X32936219Y36874568D01*
X32916589Y36500000D01*
X14828000Y36500000D01*
X14828000Y37013595D01*
X14848002Y37081716D01*
X14901658Y37128209D01*
X14951029Y37139560D01*
X14966038Y37139914D01*
X14972234Y37140060D01*
X15054219Y37153706D01*
X15230257Y37183007D01*
X15230261Y37183008D01*
X15234647Y37183738D01*
X15238888Y37185079D01*
X15238891Y37185080D01*
X15484042Y37262611D01*
X15484044Y37262612D01*
X15488288Y37263954D01*
X15492299Y37265880D01*
X15492304Y37265882D01*
X15724077Y37377178D01*
X15724078Y37377179D01*
X15728096Y37379108D01*
X15874422Y37476880D01*
X15945579Y37524425D01*
X15945583Y37524428D01*
X15949287Y37526903D01*
X15952604Y37529874D01*
X15952608Y37529877D01*
X16144128Y37701417D01*
X16144129Y37701418D01*
X16147446Y37704389D01*
X16155558Y37714039D01*
X16315748Y37904608D01*
X16315750Y37904611D01*
X16318620Y37908025D01*
X16321739Y37913025D01*
X16457030Y38129958D01*
X16457032Y38129961D01*
X16459394Y38133749D01*
X16461605Y38138749D01*
X16527926Y38288766D01*
X16566959Y38377056D01*
X16615007Y38547421D01*
X16637957Y38628796D01*
X16637958Y38628800D01*
X16639168Y38633091D01*
X16674582Y38896747D01*
X16678298Y39015000D01*
X16673756Y39079156D01*
X26817631Y39079156D01*
X26817806Y39074704D01*
X26824666Y38900114D01*
X26828075Y38813338D01*
X26875869Y38551643D01*
X26960060Y38299293D01*
X26962052Y38295306D01*
X26962053Y38295304D01*
X27073370Y38072523D01*
X27078966Y38061323D01*
X27230217Y37842482D01*
X27233239Y37839213D01*
X27407778Y37650397D01*
X27407783Y37650392D01*
X27410794Y37647135D01*
X27617094Y37479180D01*
X27620912Y37476881D01*
X27620914Y37476880D01*
X27779201Y37381584D01*
X27845001Y37341969D01*
X27935154Y37303794D01*
X28085869Y37239974D01*
X28085873Y37239973D01*
X28089967Y37238239D01*
X28094259Y37237101D01*
X28094262Y37237100D01*
X28197073Y37209840D01*
X28347105Y37170060D01*
X28351529Y37169536D01*
X28351531Y37169536D01*
X28457722Y37156968D01*
X28611285Y37138793D01*
X28877234Y37145060D01*
X28976623Y37161603D01*
X29135257Y37188007D01*
X29135261Y37188008D01*
X29139647Y37188738D01*
X29143888Y37190079D01*
X29143891Y37190080D01*
X29389042Y37267611D01*
X29389044Y37267612D01*
X29393288Y37268954D01*
X29397299Y37270880D01*
X29397304Y37270882D01*
X29629077Y37382178D01*
X29629078Y37382179D01*
X29633096Y37384108D01*
X29771939Y37476880D01*
X29850579Y37529425D01*
X29850583Y37529428D01*
X29854287Y37531903D01*
X29857604Y37534874D01*
X29857608Y37534877D01*
X30049128Y37706417D01*
X30049129Y37706418D01*
X30052446Y37709389D01*
X30063967Y37723095D01*
X30220748Y37909608D01*
X30220750Y37909611D01*
X30223620Y37913025D01*
X30248083Y37952249D01*
X30362030Y38134958D01*
X30362032Y38134961D01*
X30364394Y38138749D01*
X30471959Y38382056D01*
X30534414Y38603504D01*
X30542957Y38633796D01*
X30542958Y38633800D01*
X30544168Y38638091D01*
X30579582Y38901747D01*
X30583298Y39020000D01*
X30564510Y39285359D01*
X30509762Y39539649D01*
X30509456Y39541071D01*
X30508519Y39545423D01*
X30496945Y39576798D01*
X30417985Y39790827D01*
X30416444Y39795004D01*
X30290121Y40029122D01*
X30192722Y40160990D01*
X30134720Y40239518D01*
X30134718Y40239521D01*
X30132071Y40243104D01*
X30128952Y40246273D01*
X30128948Y40246277D01*
X30019509Y40357448D01*
X29945447Y40432683D01*
X29941907Y40435385D01*
X29737515Y40591372D01*
X29737511Y40591374D01*
X29733974Y40594074D01*
X29501869Y40724059D01*
X29497711Y40725667D01*
X29497706Y40725670D01*
X29257921Y40818436D01*
X29257915Y40818438D01*
X29253766Y40820043D01*
X29249434Y40821047D01*
X29249431Y40821048D01*
X29142833Y40845756D01*
X28994613Y40880111D01*
X28729582Y40903066D01*
X28725147Y40902822D01*
X28725143Y40902822D01*
X28617135Y40896878D01*
X28463960Y40888448D01*
X28459597Y40887580D01*
X28459596Y40887580D01*
X28207415Y40837418D01*
X28207410Y40837417D01*
X28203048Y40836549D01*
X27952052Y40748405D01*
X27715979Y40625776D01*
X27712352Y40623184D01*
X27712347Y40623181D01*
X27503168Y40473698D01*
X27499541Y40471106D01*
X27307054Y40287483D01*
X27304298Y40283988D01*
X27304297Y40283986D01*
X27146177Y40083411D01*
X27142361Y40078571D01*
X27140129Y40074729D01*
X27140126Y40074724D01*
X27010984Y39852391D01*
X27010981Y39852385D01*
X27008746Y39848537D01*
X27007072Y39844404D01*
X26910550Y39606103D01*
X26910547Y39606095D01*
X26908877Y39601971D01*
X26844746Y39343794D01*
X26817631Y39079156D01*
X16673756Y39079156D01*
X16659510Y39280359D01*
X16603519Y39540423D01*
X16601675Y39545423D01*
X16512985Y39785827D01*
X16511444Y39790004D01*
X16385121Y40024122D01*
X16311265Y40124115D01*
X16229720Y40234518D01*
X16229718Y40234521D01*
X16227071Y40238104D01*
X16223952Y40241273D01*
X16223948Y40241277D01*
X16109587Y40357448D01*
X16040447Y40427683D01*
X16036907Y40430385D01*
X15832515Y40586372D01*
X15832511Y40586374D01*
X15828974Y40589074D01*
X15596869Y40719059D01*
X15592711Y40720667D01*
X15592706Y40720670D01*
X15352921Y40813436D01*
X15352915Y40813438D01*
X15348766Y40815043D01*
X15344434Y40816047D01*
X15344431Y40816048D01*
X15237833Y40840756D01*
X15089613Y40875111D01*
X14943126Y40887799D01*
X14876987Y40913603D01*
X14835297Y40971071D01*
X14828000Y41013328D01*
X14828000Y41474000D01*
X14848002Y41542121D01*
X14901658Y41588614D01*
X14954000Y41600000D01*
X37658601Y41600000D01*
X37678310Y41598449D01*
G37*
G04 #@! TD.AperFunction*
G04 #@! TA.AperFunction,Conductor*
G36*
X5321904Y31499998D02*
G01*
X5353746Y31470704D01*
X5390093Y31423336D01*
X5404526Y31404526D01*
X5411076Y31399500D01*
X5411079Y31399497D01*
X5513804Y31320673D01*
X5520357Y31315645D01*
X5655246Y31259772D01*
X5800000Y31240715D01*
X5808188Y31241793D01*
X5936566Y31258694D01*
X5944754Y31259772D01*
X6079643Y31315645D01*
X6086196Y31320673D01*
X6188921Y31399497D01*
X6188924Y31399500D01*
X6195474Y31404526D01*
X6209908Y31423336D01*
X6246254Y31470704D01*
X6303592Y31512571D01*
X6346217Y31520000D01*
X11447766Y31520000D01*
X11515887Y31499998D01*
X11562380Y31446342D01*
X11572484Y31376068D01*
X11547729Y31317296D01*
X11529360Y31293357D01*
X11526201Y31285731D01*
X11526200Y31285729D01*
X11476646Y31166096D01*
X11473487Y31158469D01*
X11472409Y31150281D01*
X11472351Y31149842D01*
X11472199Y31149499D01*
X11470272Y31142306D01*
X11469150Y31142607D01*
X11443630Y31084914D01*
X11384366Y31045822D01*
X11363873Y31041364D01*
X11363434Y31041306D01*
X11355246Y31040228D01*
X11347621Y31037069D01*
X11347619Y31037069D01*
X11227986Y30987515D01*
X11227984Y30987514D01*
X11220358Y30984355D01*
X11104526Y30895474D01*
X11015645Y30779642D01*
X11012486Y30772016D01*
X11012485Y30772014D01*
X10986461Y30709186D01*
X10959772Y30644754D01*
X10958695Y30636570D01*
X10958694Y30636568D01*
X10951331Y30580635D01*
X10940715Y30500000D01*
X10941793Y30491812D01*
X10958259Y30366742D01*
X10959772Y30355246D01*
X10966942Y30337937D01*
X11004399Y30247509D01*
X11015645Y30220358D01*
X11027480Y30204934D01*
X11093552Y30118828D01*
X11104526Y30104526D01*
X11111076Y30099500D01*
X11111079Y30099497D01*
X11213804Y30020673D01*
X11220357Y30015645D01*
X11355246Y29959772D01*
X11500000Y29940715D01*
X11508188Y29941793D01*
X11636566Y29958694D01*
X11644754Y29959772D01*
X11779643Y30015645D01*
X11786196Y30020673D01*
X11888921Y30099497D01*
X11888924Y30099500D01*
X11895474Y30104526D01*
X11906449Y30118828D01*
X11972520Y30204934D01*
X11984355Y30220358D01*
X11995602Y30247509D01*
X12037069Y30347619D01*
X12037069Y30347621D01*
X12040228Y30355246D01*
X12041364Y30363873D01*
X12041516Y30364216D01*
X12043443Y30371409D01*
X12044565Y30371108D01*
X12070085Y30428801D01*
X12129349Y30467893D01*
X12149842Y30472351D01*
X12150278Y30472408D01*
X12150282Y30472409D01*
X12158469Y30473487D01*
X12293358Y30529360D01*
X12299911Y30534388D01*
X12402636Y30613212D01*
X12402639Y30613215D01*
X12409189Y30618241D01*
X12498070Y30734073D01*
X12501320Y30741919D01*
X12530300Y30811879D01*
X12574848Y30867160D01*
X12642212Y30889580D01*
X12711003Y30872021D01*
X12715343Y30869230D01*
X12718945Y30866165D01*
X12786220Y30828566D01*
X12862038Y30786193D01*
X12890904Y30770060D01*
X13078255Y30709186D01*
X13273862Y30685861D01*
X13279997Y30686333D01*
X13279999Y30686333D01*
X13339801Y30690935D01*
X13470274Y30700974D01*
X13660009Y30753950D01*
X13665513Y30756730D01*
X13830341Y30839990D01*
X13830343Y30839991D01*
X13835842Y30842769D01*
X13956246Y30936840D01*
X14022239Y30963017D01*
X14091910Y30949360D01*
X14143137Y30900204D01*
X14158825Y30853345D01*
X14161024Y30835939D01*
X14163943Y30828567D01*
X14163943Y30828566D01*
X14177910Y30793288D01*
X14181755Y30782059D01*
X14194555Y30738001D01*
X14198592Y30731175D01*
X14205377Y30719702D01*
X14214072Y30701955D01*
X14221899Y30682186D01*
X14236777Y30661708D01*
X14248861Y30645076D01*
X14255378Y30635154D01*
X14274693Y30602494D01*
X14274696Y30602490D01*
X14278733Y30595664D01*
X14293762Y30580635D01*
X14306602Y30565602D01*
X14319098Y30548403D01*
X14354462Y30519148D01*
X14363228Y30511169D01*
X15029545Y29844852D01*
X15037465Y29836148D01*
X15041691Y29829490D01*
X15047468Y29824065D01*
X15093037Y29781273D01*
X15095879Y29778518D01*
X15116316Y29758081D01*
X15119770Y29755402D01*
X15128795Y29747694D01*
X15162237Y29716290D01*
X15180867Y29706048D01*
X15197384Y29695198D01*
X15214184Y29682167D01*
X15253261Y29665257D01*
X15256288Y29663947D01*
X15266937Y29658730D01*
X15307147Y29636625D01*
X15327742Y29631337D01*
X15346437Y29624936D01*
X15356423Y29620615D01*
X15365949Y29616493D01*
X15411260Y29609317D01*
X15422883Y29606909D01*
X15459640Y29597471D01*
X15459641Y29597471D01*
X15467317Y29595500D01*
X15488574Y29595500D01*
X15508284Y29593949D01*
X15529278Y29590624D01*
X15537170Y29591370D01*
X15574948Y29594941D01*
X15586805Y29595500D01*
X21269500Y29595500D01*
X21337621Y29575498D01*
X21384114Y29521842D01*
X21395500Y29469500D01*
X21395500Y26658822D01*
X21401939Y26607855D01*
X21409826Y26545425D01*
X21411024Y26535939D01*
X21471899Y26382186D01*
X21476557Y26375775D01*
X21476558Y26375773D01*
X21520498Y26315295D01*
X21569098Y26248403D01*
X21696514Y26142995D01*
X21846141Y26072586D01*
X21941298Y26054434D01*
X22000791Y26043085D01*
X22000793Y26043085D01*
X22008577Y26041600D01*
X22173616Y26051983D01*
X22237025Y26072586D01*
X22323351Y26100635D01*
X22323354Y26100636D01*
X22330887Y26103084D01*
X22337577Y26107330D01*
X22337580Y26107331D01*
X22439526Y26172028D01*
X22470510Y26191691D01*
X22480722Y26202565D01*
X22578285Y26306460D01*
X22583710Y26312237D01*
X22663375Y26457147D01*
X22704500Y26617317D01*
X22704500Y29768479D01*
X22705053Y29780220D01*
X22706774Y29787917D01*
X22704562Y29858307D01*
X22704500Y29862265D01*
X22704500Y29891178D01*
X22703951Y29895526D01*
X22703022Y29907339D01*
X22701972Y29940715D01*
X22701580Y29953200D01*
X22695649Y29973616D01*
X22691640Y29992975D01*
X22689970Y30006195D01*
X22689969Y30006197D01*
X22688976Y30014061D01*
X22686057Y30021434D01*
X22672087Y30056720D01*
X22668242Y30067949D01*
X22657655Y30104387D01*
X22655444Y30111999D01*
X22651408Y30118824D01*
X22651406Y30118828D01*
X22644624Y30130297D01*
X22635928Y30148047D01*
X22631021Y30160441D01*
X22631018Y30160446D01*
X22628101Y30167814D01*
X22623440Y30174230D01*
X22623438Y30174233D01*
X22601133Y30204934D01*
X22594616Y30214855D01*
X22575305Y30247509D01*
X22575303Y30247512D01*
X22571267Y30254336D01*
X22556238Y30269365D01*
X22543397Y30284399D01*
X22535562Y30295183D01*
X22530902Y30301597D01*
X22495538Y30330852D01*
X22486772Y30338831D01*
X22170455Y30655148D01*
X22162535Y30663852D01*
X22158309Y30670510D01*
X22106962Y30718728D01*
X22104121Y30721482D01*
X22083684Y30741919D01*
X22080226Y30744601D01*
X22071204Y30752307D01*
X22043541Y30778284D01*
X22037763Y30783710D01*
X22019133Y30793952D01*
X22002616Y30804802D01*
X21992082Y30812973D01*
X21992081Y30812974D01*
X21985816Y30817833D01*
X21943714Y30836052D01*
X21933054Y30841274D01*
X21923435Y30846562D01*
X21892853Y30863375D01*
X21872258Y30868663D01*
X21853572Y30875060D01*
X21834051Y30883508D01*
X21826221Y30884748D01*
X21826218Y30884749D01*
X21799829Y30888928D01*
X21788729Y30890686D01*
X21777121Y30893090D01*
X21746596Y30900928D01*
X21740360Y30902529D01*
X21740359Y30902529D01*
X21732683Y30904500D01*
X21711426Y30904500D01*
X21691716Y30906051D01*
X21678552Y30908136D01*
X21678551Y30908136D01*
X21670722Y30909376D01*
X21662830Y30908630D01*
X21625052Y30905059D01*
X21613195Y30904500D01*
X17214880Y30904500D01*
X17146759Y30924502D01*
X17100266Y30978158D01*
X17090162Y31048432D01*
X17114486Y31101869D01*
X17112214Y31103472D01*
X17115764Y31108505D01*
X17119793Y31113172D01*
X17217096Y31284456D01*
X17266767Y31433772D01*
X17307248Y31492096D01*
X17372836Y31519276D01*
X17386325Y31520000D01*
X22898314Y31520000D01*
X22966435Y31499998D01*
X23012928Y31446342D01*
X23024312Y31393316D01*
X22978497Y22956016D01*
X22958125Y22888005D01*
X22904218Y22841804D01*
X22852499Y22830700D01*
X22329867Y22830700D01*
X22318886Y22831179D01*
X22291639Y22833563D01*
X22291637Y22833563D01*
X22280662Y22834523D01*
X22270018Y22831671D01*
X22270016Y22831671D01*
X22243611Y22824596D01*
X22232882Y22822217D01*
X22205932Y22817465D01*
X22205931Y22817465D01*
X22195078Y22815551D01*
X22185533Y22810040D01*
X22182043Y22808770D01*
X22178664Y22807194D01*
X22168012Y22804340D01*
X22136568Y22782322D01*
X22127312Y22776426D01*
X22094080Y22757239D01*
X22086995Y22748796D01*
X22086992Y22748793D01*
X22069407Y22727836D01*
X22061981Y22719732D01*
X20702319Y21360070D01*
X20640007Y21326044D01*
X20569192Y21331109D01*
X20513261Y21372461D01*
X20500140Y21389561D01*
X20500139Y21389562D01*
X20495113Y21396112D01*
X20488563Y21401138D01*
X20488560Y21401141D01*
X20385835Y21479965D01*
X20385833Y21479966D01*
X20379282Y21484993D01*
X20244393Y21540866D01*
X20099639Y21559923D01*
X20091451Y21558845D01*
X19963071Y21541944D01*
X19963069Y21541943D01*
X19954885Y21540866D01*
X19920116Y21526464D01*
X19827625Y21488153D01*
X19827623Y21488152D01*
X19819997Y21484993D01*
X19704165Y21396112D01*
X19615284Y21280280D01*
X19612125Y21272654D01*
X19612124Y21272652D01*
X19585700Y21208859D01*
X19559411Y21145392D01*
X19558334Y21137208D01*
X19558333Y21137206D01*
X19550019Y21074053D01*
X19521297Y21009125D01*
X19462031Y20970034D01*
X19425097Y20964499D01*
X19280316Y20964499D01*
X19212195Y20984501D01*
X19165702Y21038157D01*
X19155394Y21106945D01*
X19158207Y21128312D01*
X19159285Y21136500D01*
X19144357Y21249889D01*
X19141306Y21273068D01*
X19141305Y21273070D01*
X19140228Y21281254D01*
X19103629Y21369612D01*
X19087515Y21408514D01*
X19087514Y21408516D01*
X19084355Y21416142D01*
X19079330Y21422691D01*
X19079327Y21422696D01*
X19078863Y21423300D01*
X19078630Y21423902D01*
X19075199Y21429845D01*
X19076126Y21430380D01*
X19053265Y21489521D01*
X19067533Y21559070D01*
X19078863Y21576700D01*
X19079327Y21577304D01*
X19079330Y21577309D01*
X19084355Y21583858D01*
X19087994Y21592642D01*
X19132465Y21700005D01*
X19140228Y21718746D01*
X19144632Y21752193D01*
X19158207Y21855312D01*
X19159285Y21863500D01*
X19151939Y21919300D01*
X19141306Y22000068D01*
X19141305Y22000070D01*
X19140228Y22008254D01*
X19104746Y22093915D01*
X19087515Y22135514D01*
X19087514Y22135516D01*
X19084355Y22143142D01*
X18995474Y22258974D01*
X18988924Y22264000D01*
X18988921Y22264003D01*
X18886196Y22342827D01*
X18886194Y22342828D01*
X18879643Y22347855D01*
X18744754Y22403728D01*
X18600000Y22422785D01*
X18576255Y22419659D01*
X18463432Y22404806D01*
X18463430Y22404805D01*
X18455246Y22403728D01*
X18425199Y22391282D01*
X18327986Y22351015D01*
X18327984Y22351014D01*
X18320358Y22347855D01*
X18204526Y22258974D01*
X18115645Y22143142D01*
X18112486Y22135516D01*
X18112485Y22135514D01*
X18095254Y22093915D01*
X18059772Y22008254D01*
X18058695Y22000070D01*
X18058694Y22000068D01*
X18048061Y21919300D01*
X18040715Y21863500D01*
X18041793Y21855312D01*
X18055369Y21752193D01*
X18059772Y21718746D01*
X18067535Y21700005D01*
X18112007Y21592642D01*
X18115645Y21583858D01*
X18120670Y21577309D01*
X18120673Y21577304D01*
X18121137Y21576700D01*
X18121370Y21576098D01*
X18124801Y21570155D01*
X18123874Y21569620D01*
X18146735Y21510479D01*
X18132467Y21440930D01*
X18121137Y21423300D01*
X18120673Y21422696D01*
X18120670Y21422691D01*
X18115645Y21416142D01*
X18112486Y21408516D01*
X18112485Y21408514D01*
X18096371Y21369612D01*
X18059772Y21281254D01*
X18058695Y21273070D01*
X18058694Y21273068D01*
X18055643Y21249889D01*
X18040715Y21136500D01*
X18041793Y21128312D01*
X18044606Y21106945D01*
X18033667Y21036797D01*
X17986539Y20983698D01*
X17919684Y20964499D01*
X13066048Y20964499D01*
X13055067Y20964978D01*
X13027808Y20967363D01*
X13027807Y20967363D01*
X13016832Y20968323D01*
X12979760Y20958390D01*
X12969046Y20956015D01*
X12963716Y20955075D01*
X12942102Y20951264D01*
X12942101Y20951264D01*
X12931248Y20949350D01*
X12921703Y20943839D01*
X12918210Y20942568D01*
X12914832Y20940993D01*
X12904183Y20938139D01*
X12895152Y20931815D01*
X12895149Y20931814D01*
X12872744Y20916126D01*
X12863474Y20910221D01*
X12830250Y20891038D01*
X12823166Y20882595D01*
X12823163Y20882593D01*
X12805577Y20861635D01*
X12798151Y20853531D01*
X11116053Y19171433D01*
X11053741Y19137407D01*
X10982926Y19142472D01*
X10926995Y19183824D01*
X10847501Y19287423D01*
X10847500Y19287424D01*
X10842474Y19293974D01*
X10835924Y19299000D01*
X10835921Y19299003D01*
X10752353Y19363127D01*
X10710486Y19420465D01*
X10706264Y19491336D01*
X10741029Y19553239D01*
X10763901Y19570574D01*
X10769143Y19572745D01*
X10794853Y19592473D01*
X10878421Y19656597D01*
X10878424Y19656600D01*
X10884974Y19661626D01*
X10924343Y19712932D01*
X10952786Y19750000D01*
X10973855Y19777458D01*
X10992432Y19822305D01*
X11014877Y19876494D01*
X11029728Y19912346D01*
X11032440Y19932942D01*
X11047707Y20048912D01*
X11048785Y20057100D01*
X11038012Y20138928D01*
X11030806Y20193668D01*
X11030805Y20193670D01*
X11029728Y20201854D01*
X10994431Y20287068D01*
X10977015Y20329114D01*
X10977014Y20329116D01*
X10973855Y20336742D01*
X10884974Y20452574D01*
X10878424Y20457600D01*
X10878421Y20457603D01*
X10775696Y20536427D01*
X10775694Y20536428D01*
X10769143Y20541455D01*
X10634254Y20597328D01*
X10489500Y20616385D01*
X10481312Y20615307D01*
X10352932Y20598406D01*
X10352930Y20598405D01*
X10344746Y20597328D01*
X10296930Y20577522D01*
X10217486Y20544615D01*
X10217484Y20544614D01*
X10209858Y20541455D01*
X10094026Y20452574D01*
X10005145Y20336742D01*
X10001986Y20329116D01*
X10001985Y20329114D01*
X9984569Y20287068D01*
X9949272Y20201854D01*
X9948195Y20193670D01*
X9948194Y20193668D01*
X9940988Y20138928D01*
X9930215Y20057100D01*
X9931293Y20048912D01*
X9946561Y19932942D01*
X9949272Y19912346D01*
X9964123Y19876494D01*
X9986569Y19822305D01*
X10005145Y19777458D01*
X10026214Y19750000D01*
X10054658Y19712932D01*
X10094026Y19661626D01*
X10100576Y19656600D01*
X10100579Y19656597D01*
X10184147Y19592473D01*
X10226014Y19535135D01*
X10230236Y19464264D01*
X10195471Y19402361D01*
X10172599Y19385026D01*
X10167358Y19382855D01*
X10160811Y19377831D01*
X10160807Y19377829D01*
X10082785Y19317960D01*
X10051526Y19293974D01*
X10046503Y19287428D01*
X10030926Y19267128D01*
X9962645Y19178142D01*
X9959486Y19170516D01*
X9959485Y19170514D01*
X9941839Y19127912D01*
X9906772Y19043254D01*
X9905695Y19035070D01*
X9905694Y19035068D01*
X9897238Y18970835D01*
X9887715Y18898500D01*
X9888793Y18890312D01*
X9888793Y18882054D01*
X9886014Y18882054D01*
X9877178Y18825351D01*
X9830056Y18772247D01*
X9761704Y18753050D01*
X9714972Y18762632D01*
X9602383Y18809268D01*
X9594754Y18812428D01*
X9450000Y18831485D01*
X9441812Y18830407D01*
X9313432Y18813506D01*
X9313430Y18813505D01*
X9305246Y18812428D01*
X9257430Y18792622D01*
X9177986Y18759715D01*
X9177984Y18759714D01*
X9170358Y18756555D01*
X9054526Y18667674D01*
X8965645Y18551842D01*
X8962486Y18544216D01*
X8962485Y18544214D01*
X8942339Y18495578D01*
X8909772Y18416954D01*
X8908695Y18408770D01*
X8908694Y18408768D01*
X8902211Y18359523D01*
X8890715Y18272200D01*
X8891793Y18264012D01*
X8908001Y18140900D01*
X8909772Y18127446D01*
X8920067Y18102593D01*
X8961301Y18003046D01*
X8965645Y17992558D01*
X9002326Y17944754D01*
X9045280Y17888776D01*
X9054526Y17876726D01*
X9061076Y17871700D01*
X9061079Y17871697D01*
X9154516Y17800000D01*
X9170357Y17787845D01*
X9305246Y17731972D01*
X9450000Y17712915D01*
X9458188Y17713993D01*
X9586566Y17730894D01*
X9594754Y17731972D01*
X9729643Y17787845D01*
X9797645Y17840025D01*
X9833407Y17867466D01*
X9899627Y17893067D01*
X9969176Y17878802D01*
X10019230Y17830504D01*
X10022187Y17825382D01*
X10025345Y17817758D01*
X10030368Y17811212D01*
X10030369Y17811210D01*
X10105996Y17712651D01*
X10114226Y17701926D01*
X10120776Y17696900D01*
X10120779Y17696897D01*
X10188733Y17644754D01*
X10230057Y17613045D01*
X10364946Y17557172D01*
X10509700Y17538115D01*
X10517888Y17539193D01*
X10557334Y17544386D01*
X10654454Y17557172D01*
X10766464Y17603568D01*
X10837051Y17611157D01*
X10900538Y17579378D01*
X10936766Y17518320D01*
X10934232Y17447369D01*
X10931089Y17438942D01*
X10914305Y17398420D01*
X10908272Y17383854D01*
X10907195Y17375670D01*
X10907194Y17375668D01*
X10896545Y17294775D01*
X10889215Y17239100D01*
X10890293Y17230912D01*
X10905448Y17115800D01*
X10908272Y17094346D01*
X10915386Y17077171D01*
X10960507Y16968242D01*
X10964145Y16959458D01*
X10993330Y16921424D01*
X11046096Y16852658D01*
X11053026Y16843626D01*
X11059576Y16838600D01*
X11059579Y16838597D01*
X11124271Y16788957D01*
X11168857Y16754745D01*
X11303746Y16698872D01*
X11448500Y16679815D01*
X11451948Y16680269D01*
X11517944Y16660891D01*
X11564437Y16607235D01*
X11574541Y16536961D01*
X11545047Y16472381D01*
X11538918Y16465798D01*
X11143426Y16070306D01*
X11081114Y16036280D01*
X11054331Y16033401D01*
X9411711Y16033401D01*
X9400730Y16033880D01*
X9373483Y16036264D01*
X9373481Y16036264D01*
X9362506Y16037224D01*
X9351862Y16034372D01*
X9351860Y16034372D01*
X9325455Y16027297D01*
X9314726Y16024918D01*
X9287776Y16020166D01*
X9287775Y16020166D01*
X9276922Y16018252D01*
X9267377Y16012741D01*
X9263887Y16011471D01*
X9260508Y16009895D01*
X9249856Y16007041D01*
X9218412Y15985023D01*
X9209156Y15979127D01*
X9194739Y15970803D01*
X9175924Y15959940D01*
X9168839Y15951497D01*
X9168836Y15951494D01*
X9151251Y15930537D01*
X9143825Y15922433D01*
X8240250Y15018858D01*
X8232146Y15011432D01*
X8211188Y14993846D01*
X8211186Y14993843D01*
X8202743Y14986759D01*
X8192945Y14969789D01*
X8183560Y14953534D01*
X8177655Y14944265D01*
X8161967Y14921860D01*
X8161966Y14921857D01*
X8155642Y14912826D01*
X8152788Y14902177D01*
X8151213Y14898799D01*
X8149942Y14895306D01*
X8144431Y14885761D01*
X8142517Y14874908D01*
X8142517Y14874907D01*
X8137767Y14847967D01*
X8135391Y14837249D01*
X8125458Y14800177D01*
X8126418Y14789202D01*
X8126418Y14789201D01*
X8128803Y14761942D01*
X8129282Y14750961D01*
X8129282Y13827267D01*
X8128803Y13816286D01*
X8126618Y13791306D01*
X8125458Y13778051D01*
X8135391Y13740979D01*
X8137766Y13730265D01*
X8144431Y13692467D01*
X8149942Y13682922D01*
X8151213Y13679429D01*
X8152788Y13676051D01*
X8155642Y13665402D01*
X8161966Y13656371D01*
X8161967Y13656368D01*
X8177655Y13633963D01*
X8183560Y13624694D01*
X8202743Y13591469D01*
X8211186Y13584385D01*
X8211188Y13584382D01*
X8232146Y13566796D01*
X8240250Y13559370D01*
X8284135Y13515485D01*
X8318161Y13453173D01*
X8319962Y13409945D01*
X8317415Y13390600D01*
X8318493Y13382412D01*
X8334818Y13258413D01*
X8336472Y13245846D01*
X8392345Y13110958D01*
X8407789Y13090831D01*
X8461249Y13021161D01*
X8481226Y12995126D01*
X8487776Y12990100D01*
X8487779Y12990097D01*
X8587202Y12913807D01*
X8597057Y12906245D01*
X8731946Y12850372D01*
X8876700Y12831315D01*
X8884888Y12832393D01*
X9013266Y12849294D01*
X9021454Y12850372D01*
X9156343Y12906245D01*
X9166198Y12913807D01*
X9265621Y12990097D01*
X9265624Y12990100D01*
X9272174Y12995126D01*
X9292152Y13021161D01*
X9345611Y13090831D01*
X9361055Y13110958D01*
X9416928Y13245846D01*
X9418583Y13258413D01*
X9434907Y13382412D01*
X9435985Y13390600D01*
X9425267Y13472014D01*
X9418006Y13527168D01*
X9418005Y13527170D01*
X9416928Y13535354D01*
X9385004Y13612425D01*
X9364215Y13662614D01*
X9364214Y13662616D01*
X9361055Y13670242D01*
X9316066Y13728873D01*
X9290466Y13795094D01*
X9304731Y13864642D01*
X9339324Y13905538D01*
X9358157Y13919989D01*
X9370035Y13935469D01*
X9427373Y13977335D01*
X9469996Y13984763D01*
X11880414Y13984763D01*
X11891395Y13984284D01*
X11918654Y13981899D01*
X11918655Y13981899D01*
X11929630Y13980939D01*
X11966702Y13990872D01*
X11977416Y13993247D01*
X11996499Y13996612D01*
X12004360Y13997998D01*
X12004361Y13997998D01*
X12015214Y13999912D01*
X12024759Y14005423D01*
X12028252Y14006694D01*
X12031630Y14008269D01*
X12042279Y14011123D01*
X12051310Y14017447D01*
X12051313Y14017448D01*
X12073718Y14033136D01*
X12082987Y14039041D01*
X12092882Y14044754D01*
X12116212Y14058224D01*
X12123296Y14066667D01*
X12123299Y14066669D01*
X12140885Y14087627D01*
X12148311Y14095731D01*
X14399442Y16346862D01*
X14461754Y16380888D01*
X14532569Y16375823D01*
X14588499Y16334472D01*
X14605341Y16312524D01*
X14620226Y16293126D01*
X14626776Y16288100D01*
X14626779Y16288097D01*
X14724166Y16213369D01*
X14736057Y16204245D01*
X14784566Y16184152D01*
X14826112Y16166943D01*
X14881393Y16122395D01*
X14903814Y16055031D01*
X14886256Y15986240D01*
X14843846Y15944333D01*
X14843658Y15944255D01*
X14837112Y15939232D01*
X14837110Y15939231D01*
X14749512Y15872014D01*
X14727826Y15855374D01*
X14638945Y15739542D01*
X14635786Y15731916D01*
X14635785Y15731914D01*
X14606592Y15661435D01*
X14583072Y15604654D01*
X14581995Y15596470D01*
X14581994Y15596468D01*
X14575054Y15543754D01*
X14564015Y15459900D01*
X14565093Y15451712D01*
X14581382Y15327986D01*
X14583072Y15315146D01*
X14600050Y15274159D01*
X14630127Y15201547D01*
X14638945Y15180258D01*
X14675718Y15132334D01*
X14696409Y15105370D01*
X14727826Y15064426D01*
X14785471Y15020193D01*
X14827335Y14962859D01*
X14831557Y14891988D01*
X14797859Y14831139D01*
X13992940Y14026220D01*
X13930628Y13992194D01*
X13859813Y13997259D01*
X13802977Y14039806D01*
X13795453Y14052981D01*
X13794643Y14052513D01*
X13790513Y14059667D01*
X13787353Y14067295D01*
X13718282Y14157310D01*
X13703499Y14176576D01*
X13703498Y14176577D01*
X13698472Y14183127D01*
X13691922Y14188153D01*
X13691919Y14188156D01*
X13589194Y14266980D01*
X13589192Y14266981D01*
X13582641Y14272008D01*
X13447752Y14327881D01*
X13302998Y14346938D01*
X13291992Y14345489D01*
X13166430Y14328959D01*
X13166428Y14328958D01*
X13158244Y14327881D01*
X13117490Y14311000D01*
X13030984Y14275168D01*
X13030982Y14275167D01*
X13023356Y14272008D01*
X12907524Y14183127D01*
X12818643Y14067295D01*
X12815484Y14059669D01*
X12815483Y14059667D01*
X12793541Y14006694D01*
X12762770Y13932407D01*
X12761693Y13924223D01*
X12761692Y13924221D01*
X12756810Y13887134D01*
X12743713Y13787653D01*
X12744791Y13779465D01*
X12760175Y13662614D01*
X12762770Y13642899D01*
X12775393Y13612425D01*
X12812843Y13522014D01*
X12818643Y13508011D01*
X12846622Y13471548D01*
X12902453Y13398788D01*
X12907524Y13392179D01*
X12914074Y13387153D01*
X12914077Y13387150D01*
X13016802Y13308326D01*
X13023355Y13303298D01*
X13030984Y13300138D01*
X13038139Y13296007D01*
X13036372Y13292946D01*
X13079011Y13258413D01*
X13101266Y13190995D01*
X13083540Y13122247D01*
X13064431Y13097711D01*
X12437026Y12470306D01*
X12374714Y12436280D01*
X12347931Y12433401D01*
X7214650Y12433401D01*
X7203669Y12433880D01*
X7176410Y12436265D01*
X7176409Y12436265D01*
X7165434Y12437225D01*
X7128362Y12427292D01*
X7117648Y12424917D01*
X7101801Y12422123D01*
X7090704Y12420166D01*
X7090703Y12420166D01*
X7079850Y12418252D01*
X7070305Y12412741D01*
X7066812Y12411470D01*
X7063434Y12409895D01*
X7052785Y12407041D01*
X7043752Y12400716D01*
X7043750Y12400715D01*
X7042255Y12399669D01*
X7039548Y12398756D01*
X7033764Y12396059D01*
X7033463Y12396704D01*
X6981445Y12379164D01*
X6971579Y12351718D01*
X6966340Y12345030D01*
X6954180Y12330538D01*
X6946753Y12322433D01*
X6724885Y12100565D01*
X6662573Y12066539D01*
X6619345Y12064738D01*
X6600000Y12067285D01*
X6591812Y12066207D01*
X6463432Y12049306D01*
X6463430Y12049305D01*
X6455246Y12048228D01*
X6447619Y12045069D01*
X6447620Y12045069D01*
X6327986Y11995515D01*
X6327984Y11995514D01*
X6320358Y11992355D01*
X6204526Y11903474D01*
X6115645Y11787642D01*
X6112486Y11780016D01*
X6112485Y11780014D01*
X6091490Y11729328D01*
X6059772Y11652754D01*
X6058695Y11644570D01*
X6058694Y11644568D01*
X6048825Y11569600D01*
X6040715Y11508000D01*
X6041793Y11499812D01*
X6058516Y11372789D01*
X6059772Y11363246D01*
X6062931Y11355620D01*
X6111829Y11237571D01*
X6115645Y11228358D01*
X6120672Y11221807D01*
X6199413Y11119190D01*
X6204526Y11112526D01*
X6211076Y11107500D01*
X6211079Y11107497D01*
X6312385Y11029762D01*
X6320357Y11023645D01*
X6455246Y10967772D01*
X6463434Y10966694D01*
X6527623Y10958243D01*
X6600000Y10948715D01*
X6608188Y10949793D01*
X6610627Y10950114D01*
X6672377Y10958243D01*
X6736566Y10966694D01*
X6744754Y10967772D01*
X6879643Y11023645D01*
X6887615Y11029762D01*
X6988921Y11107497D01*
X6988924Y11107500D01*
X6995474Y11112526D01*
X7000588Y11119190D01*
X7079328Y11221807D01*
X7084355Y11228358D01*
X7088172Y11237571D01*
X7137069Y11355620D01*
X7140228Y11363246D01*
X7141485Y11372789D01*
X7158207Y11499812D01*
X7159285Y11508000D01*
X7156738Y11527344D01*
X7167676Y11597491D01*
X7192565Y11632885D01*
X7294776Y11735096D01*
X7357088Y11769122D01*
X7383871Y11772001D01*
X9981386Y11772001D01*
X10049507Y11751999D01*
X10096000Y11698343D01*
X10106308Y11629555D01*
X10098415Y11569600D01*
X10099493Y11561412D01*
X10115929Y11436568D01*
X10117472Y11424846D01*
X10120631Y11417220D01*
X10168619Y11301368D01*
X10173345Y11289958D01*
X10204006Y11250000D01*
X10233873Y11211077D01*
X10262226Y11174126D01*
X10268776Y11169100D01*
X10268779Y11169097D01*
X10371504Y11090273D01*
X10378057Y11085245D01*
X10482959Y11041793D01*
X10502406Y11033738D01*
X10512946Y11029372D01*
X10521134Y11028294D01*
X10556447Y11023645D01*
X10657700Y11010315D01*
X10665888Y11011393D01*
X10669512Y11011870D01*
X10758953Y11023645D01*
X10794266Y11028294D01*
X10802454Y11029372D01*
X10812995Y11033738D01*
X10832441Y11041793D01*
X10937343Y11085245D01*
X10943896Y11090273D01*
X11046621Y11169097D01*
X11046624Y11169100D01*
X11053174Y11174126D01*
X11081528Y11211077D01*
X11111394Y11250000D01*
X11142055Y11289958D01*
X11146782Y11301368D01*
X11194769Y11417220D01*
X11197928Y11424846D01*
X11199472Y11436568D01*
X11215907Y11561412D01*
X11216985Y11569600D01*
X11209092Y11629555D01*
X11220032Y11699704D01*
X11267160Y11752802D01*
X11334014Y11772001D01*
X11419684Y11772001D01*
X11487805Y11751999D01*
X11534298Y11698343D01*
X11544606Y11629555D01*
X11540715Y11600000D01*
X11541793Y11591812D01*
X11556617Y11479213D01*
X11559772Y11455246D01*
X11615645Y11320358D01*
X11659326Y11263432D01*
X11683375Y11232091D01*
X11704526Y11204526D01*
X11711076Y11199500D01*
X11711079Y11199497D01*
X11804274Y11127986D01*
X11820357Y11115645D01*
X11955246Y11059772D01*
X12100000Y11040715D01*
X12108188Y11041793D01*
X12236566Y11058694D01*
X12244754Y11059772D01*
X12379643Y11115645D01*
X12395726Y11127986D01*
X12488921Y11199497D01*
X12488924Y11199500D01*
X12495474Y11204526D01*
X12516626Y11232091D01*
X12540674Y11263432D01*
X12584355Y11320358D01*
X12640228Y11455246D01*
X12643384Y11479213D01*
X12658207Y11591812D01*
X12659285Y11600000D01*
X12647020Y11693164D01*
X12657959Y11763313D01*
X12699672Y11812823D01*
X12710456Y11820374D01*
X12719725Y11826279D01*
X12721118Y11827083D01*
X12752950Y11845462D01*
X12760034Y11853905D01*
X12760037Y11853907D01*
X12777623Y11874865D01*
X12785049Y11882969D01*
X14229590Y13327510D01*
X14291902Y13361536D01*
X14362717Y13356471D01*
X14419553Y13313924D01*
X14444364Y13247404D01*
X14443607Y13221970D01*
X14440715Y13200000D01*
X14441793Y13191812D01*
X14458142Y13067631D01*
X14459772Y13055246D01*
X14462931Y13047620D01*
X14505610Y12944585D01*
X14515645Y12920358D01*
X14520672Y12913807D01*
X14590113Y12823310D01*
X14604526Y12804526D01*
X14611076Y12799500D01*
X14611079Y12799497D01*
X14713804Y12720673D01*
X14720357Y12715645D01*
X14855246Y12659772D01*
X15000000Y12640715D01*
X15008188Y12641793D01*
X15136566Y12658694D01*
X15144754Y12659772D01*
X15279643Y12715645D01*
X15286196Y12720673D01*
X15388921Y12799497D01*
X15388924Y12799500D01*
X15395474Y12804526D01*
X15409888Y12823310D01*
X15479328Y12913807D01*
X15484355Y12920358D01*
X15494391Y12944585D01*
X15537069Y13047620D01*
X15540228Y13055246D01*
X15541859Y13067631D01*
X15558207Y13191812D01*
X15559285Y13200000D01*
X15553044Y13247404D01*
X15552702Y13250000D01*
X19190715Y13250000D01*
X19191793Y13241812D01*
X19208016Y13118586D01*
X19209772Y13105246D01*
X19212931Y13097620D01*
X19257469Y12990097D01*
X19265645Y12970358D01*
X19304011Y12920358D01*
X19341049Y12872090D01*
X19354526Y12854526D01*
X19361076Y12849500D01*
X19361079Y12849497D01*
X19459755Y12773780D01*
X19470357Y12765645D01*
X19605246Y12709772D01*
X19613434Y12708694D01*
X19646522Y12704338D01*
X19750000Y12690715D01*
X19758188Y12691793D01*
X19886566Y12708694D01*
X19894754Y12709772D01*
X19991873Y12750000D01*
X21440715Y12750000D01*
X21441793Y12741812D01*
X21456821Y12627665D01*
X21459772Y12605246D01*
X21468337Y12584568D01*
X21503017Y12500845D01*
X21515645Y12470358D01*
X21543257Y12434373D01*
X21596382Y12365140D01*
X21604526Y12354526D01*
X21611076Y12349500D01*
X21611079Y12349497D01*
X21713804Y12270673D01*
X21720357Y12265645D01*
X21855246Y12209772D01*
X22000000Y12190715D01*
X22008188Y12191793D01*
X22136566Y12208694D01*
X22144754Y12209772D01*
X22279643Y12265645D01*
X22286196Y12270673D01*
X22388921Y12349497D01*
X22388924Y12349500D01*
X22395474Y12354526D01*
X22403619Y12365140D01*
X22456743Y12434373D01*
X22484355Y12470358D01*
X22496984Y12500845D01*
X22531663Y12584568D01*
X22540228Y12605246D01*
X22543180Y12627665D01*
X22558207Y12741812D01*
X22559285Y12750000D01*
X22552408Y12802239D01*
X22541306Y12886568D01*
X22541305Y12886570D01*
X22540228Y12894754D01*
X22511625Y12963807D01*
X22487515Y13022014D01*
X22487514Y13022016D01*
X22484355Y13029642D01*
X22395474Y13145474D01*
X22388924Y13150500D01*
X22388921Y13150503D01*
X22286196Y13229327D01*
X22286194Y13229328D01*
X22279643Y13234355D01*
X22144754Y13290228D01*
X22124109Y13292946D01*
X22008188Y13308207D01*
X22000000Y13309285D01*
X21991812Y13308207D01*
X21863432Y13291306D01*
X21863430Y13291305D01*
X21855246Y13290228D01*
X21827548Y13278755D01*
X21727986Y13237515D01*
X21727984Y13237514D01*
X21720358Y13234355D01*
X21604526Y13145474D01*
X21515645Y13029642D01*
X21512486Y13022016D01*
X21512485Y13022014D01*
X21488375Y12963807D01*
X21459772Y12894754D01*
X21458695Y12886570D01*
X21458694Y12886568D01*
X21447592Y12802239D01*
X21440715Y12750000D01*
X19991873Y12750000D01*
X20029643Y12765645D01*
X20040245Y12773780D01*
X20138921Y12849497D01*
X20138924Y12849500D01*
X20145474Y12854526D01*
X20158952Y12872090D01*
X20195989Y12920358D01*
X20234355Y12970358D01*
X20242532Y12990097D01*
X20287069Y13097620D01*
X20290228Y13105246D01*
X20291985Y13118586D01*
X20308207Y13241812D01*
X20309285Y13250000D01*
X20297342Y13340715D01*
X20291306Y13386568D01*
X20291305Y13386570D01*
X20290228Y13394754D01*
X20266030Y13453173D01*
X20237515Y13522014D01*
X20237514Y13522016D01*
X20234355Y13529642D01*
X20187345Y13590907D01*
X20150501Y13638923D01*
X20150500Y13638924D01*
X20145474Y13645474D01*
X20138924Y13650500D01*
X20138921Y13650503D01*
X20036196Y13729327D01*
X20036194Y13729328D01*
X20029643Y13734355D01*
X19894754Y13790228D01*
X19750000Y13809285D01*
X19741812Y13808207D01*
X19613432Y13791306D01*
X19613430Y13791305D01*
X19605246Y13790228D01*
X19567503Y13774594D01*
X19477986Y13737515D01*
X19477984Y13737514D01*
X19470358Y13734355D01*
X19354526Y13645474D01*
X19265645Y13529642D01*
X19262486Y13522016D01*
X19262485Y13522014D01*
X19233970Y13453173D01*
X19209772Y13394754D01*
X19208695Y13386570D01*
X19208694Y13386568D01*
X19202658Y13340715D01*
X19190715Y13250000D01*
X15552702Y13250000D01*
X15541306Y13336568D01*
X15541305Y13336570D01*
X15540228Y13344754D01*
X15501685Y13437805D01*
X15487515Y13472014D01*
X15487514Y13472016D01*
X15484355Y13479642D01*
X15418159Y13565910D01*
X15400501Y13588923D01*
X15400500Y13588924D01*
X15395474Y13595474D01*
X15388924Y13600500D01*
X15388921Y13600503D01*
X15286196Y13679327D01*
X15286194Y13679328D01*
X15279643Y13684355D01*
X15158933Y13734355D01*
X15152383Y13737068D01*
X15144754Y13740228D01*
X15000000Y13759285D01*
X14991812Y13758207D01*
X14991810Y13758207D01*
X14978030Y13756393D01*
X14907881Y13767333D01*
X14854783Y13814462D01*
X14835594Y13882816D01*
X14840863Y13900000D01*
X15740715Y13900000D01*
X15741793Y13891812D01*
X15758636Y13763877D01*
X15759772Y13755246D01*
X15770121Y13730261D01*
X15810010Y13633963D01*
X15815645Y13620358D01*
X15830880Y13600503D01*
X15895999Y13515639D01*
X15904526Y13504526D01*
X15911076Y13499500D01*
X15911079Y13499497D01*
X16013804Y13420673D01*
X16020357Y13415645D01*
X16155246Y13359772D01*
X16300000Y13340715D01*
X16308188Y13341793D01*
X16330680Y13344754D01*
X16444754Y13359772D01*
X16579643Y13415645D01*
X16586196Y13420673D01*
X16688921Y13499497D01*
X16688924Y13499500D01*
X16695474Y13504526D01*
X16704002Y13515639D01*
X16769120Y13600503D01*
X16784355Y13620358D01*
X16789991Y13633963D01*
X16829879Y13730261D01*
X16840228Y13755246D01*
X16841365Y13763877D01*
X16850215Y13831108D01*
X16852867Y13851253D01*
X16881589Y13916179D01*
X16940854Y13955271D01*
X16994233Y13959728D01*
X17018809Y13956493D01*
X17018812Y13956493D01*
X17027000Y13955415D01*
X17035188Y13956493D01*
X17163566Y13973394D01*
X17171754Y13974472D01*
X17306643Y14030345D01*
X17318973Y14039806D01*
X17415921Y14114197D01*
X17415924Y14114200D01*
X17422474Y14119226D01*
X17436694Y14137757D01*
X17484477Y14200030D01*
X17511355Y14235058D01*
X17517192Y14249148D01*
X17555890Y14342575D01*
X17567228Y14369946D01*
X17569846Y14389827D01*
X17585207Y14506512D01*
X17586285Y14514700D01*
X17569341Y14643403D01*
X17568306Y14651268D01*
X17568305Y14651270D01*
X17567228Y14659454D01*
X17543953Y14715645D01*
X17514515Y14786714D01*
X17514514Y14786716D01*
X17511355Y14794342D01*
X17443101Y14883293D01*
X17427501Y14903623D01*
X17427500Y14903624D01*
X17422474Y14910174D01*
X17415924Y14915200D01*
X17415921Y14915203D01*
X17313196Y14994027D01*
X17313194Y14994028D01*
X17306643Y14999055D01*
X17171754Y15054928D01*
X17027000Y15073985D01*
X17018812Y15072907D01*
X16890432Y15056006D01*
X16890430Y15056005D01*
X16882246Y15054928D01*
X16850545Y15041797D01*
X16754986Y15002215D01*
X16754984Y15002214D01*
X16747358Y14999055D01*
X16631526Y14910174D01*
X16626503Y14903628D01*
X16611778Y14884438D01*
X16542645Y14794342D01*
X16539486Y14786716D01*
X16539485Y14786714D01*
X16510047Y14715645D01*
X16486772Y14659454D01*
X16485695Y14651270D01*
X16485694Y14651268D01*
X16484659Y14643403D01*
X16474525Y14566423D01*
X16474133Y14563448D01*
X16445411Y14498521D01*
X16386146Y14459429D01*
X16332767Y14454972D01*
X16308191Y14458207D01*
X16308188Y14458207D01*
X16300000Y14459285D01*
X16291812Y14458207D01*
X16163432Y14441306D01*
X16163430Y14441305D01*
X16155246Y14440228D01*
X16147619Y14437069D01*
X16147620Y14437069D01*
X16027986Y14387515D01*
X16027984Y14387514D01*
X16020358Y14384355D01*
X15980066Y14353438D01*
X15911719Y14300993D01*
X15904526Y14295474D01*
X15815645Y14179642D01*
X15812486Y14172016D01*
X15812485Y14172014D01*
X15782435Y14099466D01*
X15759772Y14044754D01*
X15758695Y14036570D01*
X15758694Y14036568D01*
X15748578Y13959728D01*
X15740715Y13900000D01*
X14840863Y13900000D01*
X14856406Y13950694D01*
X14872490Y13970410D01*
X15751815Y14849735D01*
X15814127Y14883761D01*
X15857355Y14885562D01*
X15876700Y14883015D01*
X15884888Y14884093D01*
X15894353Y14885339D01*
X15957649Y14893672D01*
X16013266Y14900994D01*
X16021454Y14902072D01*
X16156343Y14957945D01*
X16162896Y14962973D01*
X16265621Y15041797D01*
X16265624Y15041800D01*
X16272174Y15046826D01*
X16361055Y15162658D01*
X16367930Y15179254D01*
X16413769Y15289920D01*
X16416928Y15297546D01*
X16419253Y15315202D01*
X16434907Y15434112D01*
X16435985Y15442300D01*
X16432590Y15468088D01*
X16427750Y15504854D01*
X16438690Y15575003D01*
X16485818Y15628101D01*
X16552672Y15647300D01*
X20332830Y15647300D01*
X20400951Y15627298D01*
X20421925Y15610395D01*
X21461725Y14570595D01*
X21469151Y14562491D01*
X21486736Y14541534D01*
X21486739Y14541531D01*
X21493824Y14533088D01*
X21503371Y14527576D01*
X21527056Y14513901D01*
X21536312Y14508005D01*
X21567756Y14485987D01*
X21578408Y14483133D01*
X21581787Y14481557D01*
X21585276Y14480287D01*
X21594822Y14474776D01*
X21632618Y14468111D01*
X21643334Y14465736D01*
X21680406Y14455803D01*
X21691381Y14456763D01*
X21691382Y14456763D01*
X21718641Y14459148D01*
X21729622Y14459627D01*
X22137223Y14459627D01*
X22205344Y14439625D01*
X22237183Y14410334D01*
X22249062Y14394853D01*
X22255612Y14389827D01*
X22340458Y14324722D01*
X22364893Y14305972D01*
X22499782Y14250099D01*
X22644536Y14231042D01*
X22788097Y14249942D01*
X22858246Y14239003D01*
X22911344Y14191874D01*
X22930540Y14124338D01*
X22917169Y11661890D01*
X22896798Y11593881D01*
X22842891Y11547680D01*
X22772563Y11537958D01*
X22708144Y11567801D01*
X22691210Y11585871D01*
X22650502Y11638922D01*
X22650500Y11638924D01*
X22645474Y11645474D01*
X22638924Y11650500D01*
X22638921Y11650503D01*
X22536196Y11729327D01*
X22536194Y11729328D01*
X22529643Y11734355D01*
X22394754Y11790228D01*
X22364637Y11794193D01*
X22258188Y11808207D01*
X22250000Y11809285D01*
X22241812Y11808207D01*
X22113432Y11791306D01*
X22113430Y11791305D01*
X22105246Y11790228D01*
X22078929Y11779327D01*
X21977986Y11737515D01*
X21977984Y11737514D01*
X21970358Y11734355D01*
X21854526Y11645474D01*
X21765645Y11529642D01*
X21762486Y11522016D01*
X21762485Y11522014D01*
X21753289Y11499812D01*
X21709772Y11394754D01*
X21708695Y11386570D01*
X21708694Y11386568D01*
X21695757Y11288301D01*
X21690715Y11250000D01*
X21691793Y11241812D01*
X21705266Y11139476D01*
X21709772Y11105246D01*
X21712931Y11097620D01*
X21762281Y10978480D01*
X21765645Y10970358D01*
X21803770Y10920673D01*
X21820019Y10899497D01*
X21854526Y10854526D01*
X21861076Y10849500D01*
X21861079Y10849497D01*
X21963133Y10771188D01*
X21970357Y10765645D01*
X22105246Y10709772D01*
X22250000Y10690715D01*
X22258188Y10691793D01*
X22386566Y10708694D01*
X22394754Y10709772D01*
X22529643Y10765645D01*
X22536867Y10771188D01*
X22638921Y10849497D01*
X22638924Y10849500D01*
X22645474Y10854526D01*
X22650505Y10861082D01*
X22686697Y10908247D01*
X22744035Y10950114D01*
X22814906Y10954336D01*
X22876809Y10919571D01*
X22910090Y10856859D01*
X22912657Y10830862D01*
X22909574Y10263077D01*
X22900680Y8625316D01*
X22880308Y8557305D01*
X22826401Y8511104D01*
X22774682Y8500000D01*
X20919784Y8500000D01*
X20851663Y8520002D01*
X20805170Y8573658D01*
X20794862Y8609554D01*
X20791306Y8636568D01*
X20791305Y8636570D01*
X20790228Y8644754D01*
X20767134Y8700508D01*
X20737515Y8772014D01*
X20737514Y8772016D01*
X20734355Y8779642D01*
X20678541Y8852380D01*
X20650501Y8888923D01*
X20650500Y8888924D01*
X20645474Y8895474D01*
X20638924Y8900500D01*
X20638921Y8900503D01*
X20536196Y8979327D01*
X20536194Y8979328D01*
X20529643Y8984355D01*
X20394754Y9040228D01*
X20250000Y9059285D01*
X20241812Y9058207D01*
X20113432Y9041306D01*
X20113430Y9041305D01*
X20105246Y9040228D01*
X20057430Y9020422D01*
X19977986Y8987515D01*
X19977984Y8987514D01*
X19970358Y8984355D01*
X19854526Y8895474D01*
X19765645Y8779642D01*
X19762486Y8772016D01*
X19762485Y8772014D01*
X19732866Y8700508D01*
X19709772Y8644754D01*
X19708695Y8636570D01*
X19708694Y8636568D01*
X19705138Y8609554D01*
X19676416Y8544627D01*
X19617151Y8505535D01*
X19580216Y8500000D01*
X19076630Y8500000D01*
X19008509Y8520002D01*
X18962016Y8573658D01*
X18951708Y8642446D01*
X18958207Y8691812D01*
X18959285Y8700000D01*
X18955601Y8727986D01*
X18941306Y8836568D01*
X18941305Y8836570D01*
X18940228Y8844754D01*
X18884355Y8979642D01*
X18795474Y9095474D01*
X18788924Y9100500D01*
X18788921Y9100503D01*
X18686196Y9179327D01*
X18686194Y9179328D01*
X18679643Y9184355D01*
X18544754Y9240228D01*
X18400000Y9259285D01*
X18391812Y9258207D01*
X18263432Y9241306D01*
X18263430Y9241305D01*
X18255246Y9240228D01*
X18234750Y9231738D01*
X18127986Y9187515D01*
X18127984Y9187514D01*
X18120358Y9184355D01*
X18004526Y9095474D01*
X17915645Y8979642D01*
X17859772Y8844754D01*
X17858695Y8836570D01*
X17858694Y8836568D01*
X17844399Y8727986D01*
X17840715Y8700000D01*
X17841793Y8691812D01*
X17848292Y8642446D01*
X17837353Y8572297D01*
X17790224Y8519199D01*
X17723370Y8500000D01*
X16770772Y8500000D01*
X16702651Y8520002D01*
X16656158Y8573658D01*
X16646054Y8643932D01*
X16670808Y8702703D01*
X16679329Y8713808D01*
X16684355Y8720358D01*
X16690061Y8734132D01*
X16737069Y8847620D01*
X16740228Y8855246D01*
X16744663Y8888928D01*
X16758207Y8991812D01*
X16759285Y9000000D01*
X16746716Y9095474D01*
X16741306Y9136568D01*
X16741305Y9136570D01*
X16740228Y9144754D01*
X16715127Y9205352D01*
X16687515Y9272014D01*
X16687514Y9272016D01*
X16684355Y9279642D01*
X16595474Y9395474D01*
X16588924Y9400500D01*
X16588921Y9400503D01*
X16486196Y9479327D01*
X16486194Y9479328D01*
X16479643Y9484355D01*
X16434841Y9502912D01*
X16379561Y9547460D01*
X16357140Y9614823D01*
X16374698Y9683615D01*
X16396168Y9710567D01*
X16432085Y9744771D01*
X16490238Y9800148D01*
X16496309Y9809285D01*
X16580010Y9935265D01*
X16580011Y9935267D01*
X16583911Y9941137D01*
X16644020Y10099376D01*
X16660557Y10217041D01*
X16667027Y10263077D01*
X16667027Y10263082D01*
X16667578Y10267000D01*
X16667874Y10288200D01*
X16649006Y10456416D01*
X16593338Y10616271D01*
X16503638Y10759821D01*
X16384364Y10879931D01*
X16241444Y10970631D01*
X16160379Y10999497D01*
X16088616Y11025051D01*
X16088611Y11025052D01*
X16081981Y11027413D01*
X16074995Y11028246D01*
X16074991Y11028247D01*
X15955887Y11042449D01*
X15913901Y11047455D01*
X15906898Y11046719D01*
X15906897Y11046719D01*
X15752565Y11030499D01*
X15752561Y11030498D01*
X15745557Y11029762D01*
X15727588Y11023645D01*
X15593154Y10977880D01*
X15522222Y10974862D01*
X15460918Y11010672D01*
X15428706Y11073941D01*
X15435527Y11139476D01*
X15434930Y11139636D01*
X15435933Y11143380D01*
X15436141Y11145377D01*
X15437067Y11147614D01*
X15437069Y11147620D01*
X15440228Y11155246D01*
X15442052Y11169097D01*
X15456159Y11276255D01*
X15459285Y11300000D01*
X15449115Y11377252D01*
X15446120Y11400000D01*
X18740715Y11400000D01*
X18741793Y11391812D01*
X18756065Y11283407D01*
X18759772Y11255246D01*
X18773623Y11221807D01*
X18807660Y11139636D01*
X18815645Y11120358D01*
X18838730Y11090273D01*
X18892378Y11020358D01*
X18904526Y11004526D01*
X18911076Y10999500D01*
X18911079Y10999497D01*
X18988307Y10940238D01*
X19020357Y10915645D01*
X19155246Y10859772D01*
X19163434Y10858694D01*
X19195094Y10854526D01*
X19300000Y10840715D01*
X19308188Y10841793D01*
X19436566Y10858694D01*
X19444754Y10859772D01*
X19579643Y10915645D01*
X19611693Y10940238D01*
X19688921Y10999497D01*
X19688924Y10999500D01*
X19695474Y11004526D01*
X19707623Y11020358D01*
X19761270Y11090273D01*
X19784355Y11120358D01*
X19792341Y11139636D01*
X19826377Y11221807D01*
X19840228Y11255246D01*
X19843936Y11283407D01*
X19858207Y11391812D01*
X19859285Y11400000D01*
X19843222Y11522014D01*
X19841306Y11536568D01*
X19841305Y11536570D01*
X19840228Y11544754D01*
X19801222Y11638922D01*
X19787515Y11672014D01*
X19787514Y11672016D01*
X19784355Y11679642D01*
X19728834Y11751999D01*
X19700501Y11788923D01*
X19700500Y11788924D01*
X19695474Y11795474D01*
X19688924Y11800500D01*
X19688921Y11800503D01*
X19586196Y11879327D01*
X19586194Y11879328D01*
X19579643Y11884355D01*
X19444754Y11940228D01*
X19300000Y11959285D01*
X19291812Y11958207D01*
X19163432Y11941306D01*
X19163430Y11941305D01*
X19155246Y11940228D01*
X19107430Y11920422D01*
X19027986Y11887515D01*
X19027984Y11887514D01*
X19020358Y11884355D01*
X18904526Y11795474D01*
X18815645Y11679642D01*
X18812486Y11672016D01*
X18812485Y11672014D01*
X18798778Y11638922D01*
X18759772Y11544754D01*
X18758695Y11536570D01*
X18758694Y11536568D01*
X18756778Y11522014D01*
X18740715Y11400000D01*
X15446120Y11400000D01*
X15441306Y11436568D01*
X15441305Y11436570D01*
X15440228Y11444754D01*
X15405066Y11529642D01*
X15387515Y11572014D01*
X15387514Y11572016D01*
X15384355Y11579642D01*
X15329986Y11650497D01*
X15300501Y11688923D01*
X15300500Y11688924D01*
X15295474Y11695474D01*
X15288924Y11700500D01*
X15288921Y11700503D01*
X15186196Y11779327D01*
X15186194Y11779328D01*
X15179643Y11784355D01*
X15044754Y11840228D01*
X15004998Y11845462D01*
X14908188Y11858207D01*
X14900000Y11859285D01*
X14891812Y11858207D01*
X14763432Y11841306D01*
X14763430Y11841305D01*
X14755246Y11840228D01*
X14715400Y11823723D01*
X14627986Y11787515D01*
X14627984Y11787514D01*
X14620358Y11784355D01*
X14504526Y11695474D01*
X14499503Y11688928D01*
X14480168Y11663730D01*
X14415645Y11579642D01*
X14412486Y11572016D01*
X14412485Y11572014D01*
X14394934Y11529642D01*
X14359772Y11444754D01*
X14358695Y11436570D01*
X14358694Y11436568D01*
X14350885Y11377252D01*
X14340715Y11300000D01*
X14343841Y11276255D01*
X14357949Y11169097D01*
X14359772Y11155246D01*
X14362931Y11147620D01*
X14412358Y11028294D01*
X14415645Y11020358D01*
X14447414Y10978956D01*
X14492982Y10919571D01*
X14504526Y10904526D01*
X14511076Y10899500D01*
X14511079Y10899497D01*
X14607794Y10825285D01*
X14620357Y10815645D01*
X14728929Y10770673D01*
X14742456Y10765070D01*
X14755246Y10759772D01*
X14900000Y10740715D01*
X14908188Y10741793D01*
X15036566Y10758694D01*
X15044754Y10759772D01*
X15052381Y10762931D01*
X15052384Y10762932D01*
X15053986Y10763596D01*
X15055447Y10763753D01*
X15060362Y10765070D01*
X15060567Y10764304D01*
X15124576Y10771188D01*
X15188064Y10739410D01*
X15224293Y10678353D01*
X15220609Y10604095D01*
X15173025Y10473360D01*
X15173024Y10473355D01*
X15170615Y10466737D01*
X15149400Y10298801D01*
X15165918Y10130338D01*
X15219348Y9969721D01*
X15222997Y9963696D01*
X15271128Y9884223D01*
X15307035Y9824933D01*
X15311926Y9819868D01*
X15311927Y9819867D01*
X15331040Y9800075D01*
X15424621Y9703169D01*
X15566260Y9610483D01*
X15572864Y9608027D01*
X15720091Y9553274D01*
X15776967Y9510781D01*
X15801841Y9444285D01*
X15786816Y9374896D01*
X15776133Y9358472D01*
X15720675Y9286198D01*
X15720673Y9286195D01*
X15715645Y9279642D01*
X15712484Y9272011D01*
X15710043Y9267783D01*
X15658661Y9218789D01*
X15588947Y9205352D01*
X15523036Y9231738D01*
X15511828Y9241687D01*
X15296321Y9457194D01*
X15288779Y9466634D01*
X15288399Y9466311D01*
X15282581Y9473147D01*
X15277791Y9480739D01*
X15237784Y9516072D01*
X15232098Y9521417D01*
X15220764Y9532751D01*
X15212489Y9538953D01*
X15204644Y9545340D01*
X15195661Y9553274D01*
X15169474Y9576401D01*
X15161352Y9580214D01*
X15158551Y9582054D01*
X15144556Y9590463D01*
X15141593Y9592085D01*
X15134408Y9597470D01*
X15125998Y9600623D01*
X15125996Y9600624D01*
X15090462Y9613946D01*
X15081146Y9617871D01*
X15079734Y9618534D01*
X15038662Y9637817D01*
X15029788Y9639199D01*
X15026561Y9640185D01*
X15010778Y9644325D01*
X15007500Y9645046D01*
X14999092Y9648198D01*
X14985335Y9649220D01*
X14952287Y9651676D01*
X14942240Y9652830D01*
X14933758Y9654151D01*
X14933755Y9654151D01*
X14928947Y9654900D01*
X14913582Y9654900D01*
X14904245Y9655246D01*
X14888163Y9656441D01*
X14854977Y9658907D01*
X14846202Y9657034D01*
X14837506Y9656441D01*
X14822906Y9654900D01*
X4830761Y9654900D01*
X4762640Y9674902D01*
X4741666Y9691805D01*
X3886009Y10547462D01*
X3851983Y10609774D01*
X3849106Y10637241D01*
X3850101Y10820673D01*
X3850460Y10886622D01*
X3870830Y10954631D01*
X3924737Y11000832D01*
X3956971Y11010201D01*
X3956952Y11010301D01*
X3957992Y11010498D01*
X3958524Y11010653D01*
X3962490Y11011223D01*
X4006555Y11021636D01*
X4024527Y11031870D01*
X4087298Y11067614D01*
X4087302Y11067617D01*
X4092676Y11070677D01*
X4127104Y11100509D01*
X4144209Y11115330D01*
X4144214Y11115335D01*
X4146332Y11117170D01*
X4177773Y11149754D01*
X4223709Y11237571D01*
X4243711Y11305692D01*
X4246917Y11327986D01*
X4253358Y11372789D01*
X4254000Y11377252D01*
X4254000Y11749148D01*
X4249669Y11795852D01*
X4241149Y11841398D01*
X4236762Y11860669D01*
X4192843Y11949512D01*
X4149569Y12005796D01*
X4141622Y12014418D01*
X4110161Y12078064D01*
X4118105Y12148614D01*
X4146519Y12189715D01*
X4146332Y12189896D01*
X4147433Y12191037D01*
X4177773Y12222480D01*
X4223709Y12310297D01*
X4243711Y12378418D01*
X4246248Y12396059D01*
X4249714Y12420166D01*
X4254000Y12449978D01*
X4254000Y12568557D01*
X4243903Y12639460D01*
X4240541Y12651027D01*
X4225043Y12704338D01*
X4225042Y12704340D01*
X4224267Y12707007D01*
X4208109Y12748569D01*
X4165123Y12804526D01*
X4151503Y12822256D01*
X4151502Y12822257D01*
X4147734Y12827162D01*
X4094331Y12873944D01*
X4057749Y12900625D01*
X4049270Y12903668D01*
X4049268Y12903669D01*
X4014474Y12916155D01*
X3964469Y12934101D01*
X3958349Y12935015D01*
X3957513Y12935225D01*
X3896330Y12971240D01*
X3881808Y13000000D01*
X5940715Y13000000D01*
X5941793Y12991812D01*
X5954993Y12891550D01*
X5959772Y12855246D01*
X5973437Y12822256D01*
X6007424Y12740206D01*
X6015645Y12720358D01*
X6044939Y12682181D01*
X6097361Y12613864D01*
X6104526Y12604526D01*
X6111076Y12599500D01*
X6111079Y12599497D01*
X6200535Y12530855D01*
X6220357Y12515645D01*
X6355246Y12459772D01*
X6500000Y12440715D01*
X6508188Y12441793D01*
X6636566Y12458694D01*
X6644754Y12459772D01*
X6779643Y12515645D01*
X6793114Y12525982D01*
X6859284Y12551564D01*
X6871571Y12581561D01*
X6883496Y12593249D01*
X6883084Y12593661D01*
X6888921Y12599498D01*
X6895474Y12604526D01*
X6902640Y12613864D01*
X6955061Y12682181D01*
X6984355Y12720358D01*
X6992577Y12740206D01*
X7026563Y12822256D01*
X7040228Y12855246D01*
X7045008Y12891550D01*
X7058207Y12991812D01*
X7059285Y13000000D01*
X7045429Y13105246D01*
X7041306Y13136568D01*
X7041305Y13136570D01*
X7040228Y13144754D01*
X7012235Y13212334D01*
X6987515Y13272014D01*
X6987514Y13272016D01*
X6984355Y13279642D01*
X6906630Y13380935D01*
X6900501Y13388923D01*
X6900500Y13388924D01*
X6895474Y13395474D01*
X6888924Y13400500D01*
X6888921Y13400503D01*
X6786196Y13479327D01*
X6786194Y13479328D01*
X6779643Y13484355D01*
X6644754Y13540228D01*
X6500000Y13559285D01*
X6491812Y13558207D01*
X6363432Y13541306D01*
X6363430Y13541305D01*
X6355246Y13540228D01*
X6323717Y13527168D01*
X6227986Y13487515D01*
X6227984Y13487514D01*
X6220358Y13484355D01*
X6104526Y13395474D01*
X6015645Y13279642D01*
X6012486Y13272016D01*
X6012485Y13272014D01*
X5987765Y13212334D01*
X5959772Y13144754D01*
X5958695Y13136570D01*
X5958694Y13136568D01*
X5954571Y13105246D01*
X5940715Y13000000D01*
X3881808Y13000000D01*
X3864330Y13034616D01*
X3862251Y13058103D01*
X3863609Y13308207D01*
X3865423Y13642381D01*
X3885794Y13710391D01*
X3939702Y13756592D01*
X3962597Y13763877D01*
X3962490Y13764328D01*
X4006555Y13774741D01*
X4026457Y13786074D01*
X4087298Y13820719D01*
X4087302Y13820722D01*
X4092676Y13823782D01*
X4130683Y13856715D01*
X4144209Y13868435D01*
X4144214Y13868440D01*
X4146332Y13870275D01*
X4177773Y13902859D01*
X4223709Y13990676D01*
X4243711Y14058797D01*
X4244720Y14065811D01*
X4251676Y14114197D01*
X4254000Y14130357D01*
X4254000Y14249148D01*
X4249669Y14295852D01*
X4241149Y14341398D01*
X4236762Y14360669D01*
X4192843Y14449512D01*
X4149569Y14505796D01*
X4142099Y14513901D01*
X4141622Y14514418D01*
X4110161Y14578064D01*
X4118105Y14648614D01*
X4146519Y14689715D01*
X4146332Y14689896D01*
X4147433Y14691037D01*
X4177773Y14722480D01*
X4223709Y14810297D01*
X4243711Y14878418D01*
X4244480Y14883761D01*
X4252962Y14942761D01*
X4254000Y14949978D01*
X4254000Y15499148D01*
X4249669Y15545852D01*
X4241149Y15591398D01*
X4239191Y15600000D01*
X6340715Y15600000D01*
X6342003Y15590214D01*
X6357891Y15469536D01*
X6359772Y15455246D01*
X6368526Y15434112D01*
X6404749Y15346664D01*
X6415645Y15320358D01*
X6420672Y15313807D01*
X6497012Y15214319D01*
X6504526Y15204526D01*
X6511076Y15199500D01*
X6511079Y15199497D01*
X6613343Y15121027D01*
X6620357Y15115645D01*
X6755246Y15059772D01*
X6763434Y15058694D01*
X6816043Y15051768D01*
X6900000Y15040715D01*
X6908188Y15041793D01*
X6908219Y15041797D01*
X6983957Y15051768D01*
X7036566Y15058694D01*
X7044754Y15059772D01*
X7179643Y15115645D01*
X7186657Y15121027D01*
X7288921Y15199497D01*
X7288924Y15199500D01*
X7295474Y15204526D01*
X7302989Y15214319D01*
X7379328Y15313807D01*
X7384355Y15320358D01*
X7395252Y15346664D01*
X7431474Y15434112D01*
X7440228Y15455246D01*
X7442110Y15469536D01*
X7457997Y15590214D01*
X7459285Y15600000D01*
X7445538Y15704419D01*
X7441306Y15736568D01*
X7441305Y15736570D01*
X7440228Y15744754D01*
X7395277Y15853274D01*
X7387515Y15872014D01*
X7387514Y15872016D01*
X7384355Y15879642D01*
X7338259Y15939715D01*
X7300501Y15988923D01*
X7300500Y15988924D01*
X7295474Y15995474D01*
X7288924Y16000500D01*
X7288921Y16000503D01*
X7186196Y16079327D01*
X7186194Y16079328D01*
X7179643Y16084355D01*
X7044754Y16140228D01*
X6900000Y16159285D01*
X6891812Y16158207D01*
X6763432Y16141306D01*
X6763430Y16141305D01*
X6755246Y16140228D01*
X6712194Y16122395D01*
X6627986Y16087515D01*
X6627984Y16087514D01*
X6620358Y16084355D01*
X6504526Y15995474D01*
X6499503Y15988928D01*
X6486882Y15972480D01*
X6415645Y15879642D01*
X6412486Y15872016D01*
X6412485Y15872014D01*
X6404723Y15853274D01*
X6359772Y15744754D01*
X6358695Y15736570D01*
X6358694Y15736568D01*
X6354462Y15704419D01*
X6340715Y15600000D01*
X4239191Y15600000D01*
X4236762Y15610669D01*
X4192843Y15699512D01*
X4149569Y15755796D01*
X4141622Y15764418D01*
X4110161Y15828064D01*
X4118105Y15898614D01*
X4146519Y15939715D01*
X4146332Y15939896D01*
X4147433Y15941037D01*
X4177773Y15972480D01*
X4223709Y16060297D01*
X4243711Y16128418D01*
X4245509Y16140919D01*
X4249250Y16166943D01*
X4254000Y16199978D01*
X4254000Y16448093D01*
X4274002Y16516214D01*
X4327658Y16562707D01*
X4376196Y16573266D01*
X4378100Y16573015D01*
X4386288Y16574093D01*
X4514666Y16590994D01*
X4522854Y16592072D01*
X4657743Y16647945D01*
X4664296Y16652973D01*
X4767021Y16731797D01*
X4767024Y16731800D01*
X4773574Y16736826D01*
X4862455Y16852658D01*
X4872768Y16877554D01*
X4915169Y16979920D01*
X4918328Y16987546D01*
X4925998Y17045802D01*
X4936307Y17124112D01*
X4937385Y17132300D01*
X4925523Y17222402D01*
X4919406Y17268868D01*
X4919405Y17268870D01*
X4918328Y17277054D01*
X4886424Y17354076D01*
X4865615Y17404314D01*
X4865614Y17404316D01*
X4862455Y17411942D01*
X4801169Y17491812D01*
X4778601Y17521223D01*
X4778600Y17521224D01*
X4773574Y17527774D01*
X4767024Y17532800D01*
X4767021Y17532803D01*
X4664296Y17611627D01*
X4664294Y17611628D01*
X4657743Y17616655D01*
X4522854Y17672528D01*
X4378100Y17691585D01*
X4376877Y17691424D01*
X4311879Y17710509D01*
X4265386Y17764165D01*
X4254000Y17816507D01*
X4254000Y17994500D01*
X4274002Y18062621D01*
X4327658Y18109114D01*
X4380000Y18120500D01*
X4906098Y18120500D01*
X4974219Y18100498D01*
X4982802Y18094462D01*
X5020357Y18065645D01*
X5155246Y18009772D01*
X5300000Y17990715D01*
X5308188Y17991793D01*
X5322317Y17993653D01*
X5444754Y18009772D01*
X5579643Y18065645D01*
X5586197Y18070674D01*
X5688921Y18149497D01*
X5688924Y18149500D01*
X5695474Y18154526D01*
X5726895Y18195474D01*
X5774872Y18258000D01*
X5784355Y18270358D01*
X5789767Y18283422D01*
X5831134Y18383291D01*
X5840228Y18405246D01*
X5841770Y18416954D01*
X5858207Y18541812D01*
X5859285Y18550000D01*
X5850040Y18620227D01*
X5841306Y18686568D01*
X5841305Y18686570D01*
X5840228Y18694754D01*
X5816081Y18753050D01*
X5787515Y18822014D01*
X5787514Y18822016D01*
X5784355Y18829642D01*
X5695474Y18945474D01*
X5688924Y18950500D01*
X5688921Y18950503D01*
X5586196Y19029327D01*
X5586193Y19029329D01*
X5579643Y19034355D01*
X5444754Y19090228D01*
X5300000Y19109285D01*
X5291812Y19108207D01*
X5163432Y19091306D01*
X5163430Y19091305D01*
X5155246Y19090228D01*
X5020358Y19034355D01*
X5013808Y19029329D01*
X4982803Y19005538D01*
X4916583Y18979937D01*
X4906099Y18979500D01*
X4380000Y18979500D01*
X4311879Y18999502D01*
X4265386Y19053158D01*
X4254000Y19105500D01*
X4254000Y19750000D01*
X7390715Y19750000D01*
X7391793Y19741812D01*
X7408578Y19614319D01*
X7409772Y19605246D01*
X7423457Y19572207D01*
X7462295Y19478446D01*
X7465645Y19470358D01*
X7493448Y19434124D01*
X7544245Y19367925D01*
X7554526Y19354526D01*
X7561076Y19349500D01*
X7561079Y19349497D01*
X7663804Y19270673D01*
X7670357Y19265645D01*
X7805246Y19209772D01*
X7950000Y19190715D01*
X7958188Y19191793D01*
X8086566Y19208694D01*
X8094754Y19209772D01*
X8229643Y19265645D01*
X8236196Y19270673D01*
X8338921Y19349497D01*
X8338924Y19349500D01*
X8345474Y19354526D01*
X8355756Y19367925D01*
X8406552Y19434124D01*
X8434355Y19470358D01*
X8437706Y19478446D01*
X8476543Y19572207D01*
X8490228Y19605246D01*
X8491423Y19614319D01*
X8508207Y19741812D01*
X8509285Y19750000D01*
X8490228Y19894754D01*
X8459023Y19970089D01*
X8437515Y20022014D01*
X8437514Y20022016D01*
X8434355Y20029642D01*
X8345474Y20145474D01*
X8338924Y20150500D01*
X8338921Y20150503D01*
X8236196Y20229327D01*
X8236194Y20229328D01*
X8229643Y20234355D01*
X8094754Y20290228D01*
X7950000Y20309285D01*
X7941812Y20308207D01*
X7813432Y20291306D01*
X7813430Y20291305D01*
X7805246Y20290228D01*
X7770709Y20275922D01*
X7677986Y20237515D01*
X7677984Y20237514D01*
X7670358Y20234355D01*
X7554526Y20145474D01*
X7465645Y20029642D01*
X7462486Y20022016D01*
X7462485Y20022014D01*
X7440977Y19970089D01*
X7409772Y19894754D01*
X7390715Y19750000D01*
X4254000Y19750000D01*
X4254000Y21313000D01*
X5923315Y21313000D01*
X5924393Y21304812D01*
X5938223Y21199764D01*
X5942372Y21168246D01*
X5998245Y21033358D01*
X6003272Y21026807D01*
X6067911Y20942568D01*
X6087126Y20917526D01*
X6093676Y20912500D01*
X6093679Y20912497D01*
X6186182Y20841517D01*
X6202957Y20828645D01*
X6337846Y20772772D01*
X6482600Y20753715D01*
X6490788Y20754793D01*
X6619166Y20771694D01*
X6627354Y20772772D01*
X6762243Y20828645D01*
X6779018Y20841517D01*
X6871521Y20912497D01*
X6871524Y20912500D01*
X6878074Y20917526D01*
X6897290Y20942568D01*
X6961928Y21026807D01*
X6966955Y21033358D01*
X7022828Y21168246D01*
X7026978Y21199764D01*
X7040807Y21304812D01*
X7041885Y21313000D01*
X7034057Y21372461D01*
X7023906Y21449568D01*
X7023905Y21449570D01*
X7022828Y21457754D01*
X6994367Y21526464D01*
X6970115Y21585014D01*
X6970114Y21585016D01*
X6966955Y21592642D01*
X6904769Y21673685D01*
X6883101Y21701923D01*
X6883100Y21701924D01*
X6878074Y21708474D01*
X6871524Y21713500D01*
X6871521Y21713503D01*
X6768796Y21792327D01*
X6768794Y21792328D01*
X6762243Y21797355D01*
X6754614Y21800515D01*
X6747459Y21804646D01*
X6748524Y21806491D01*
X6702062Y21843936D01*
X6679643Y21911300D01*
X6697203Y21980090D01*
X6749167Y22028467D01*
X6800030Y22040486D01*
X6800000Y22040715D01*
X6808188Y22041793D01*
X6814440Y22042616D01*
X6944754Y22059772D01*
X7079643Y22115645D01*
X7108142Y22137513D01*
X7188921Y22199497D01*
X7188924Y22199500D01*
X7195474Y22204526D01*
X7232231Y22252428D01*
X7279328Y22313807D01*
X7284355Y22320358D01*
X7293173Y22341645D01*
X7326129Y22421208D01*
X7340228Y22455246D01*
X7341652Y22466057D01*
X7358207Y22591812D01*
X7359285Y22600000D01*
X7350122Y22669603D01*
X7341306Y22736568D01*
X7341305Y22736570D01*
X7340228Y22744754D01*
X7315462Y22804545D01*
X7287515Y22872014D01*
X7287514Y22872016D01*
X7284355Y22879642D01*
X7212544Y22973228D01*
X7200501Y22988923D01*
X7200500Y22988924D01*
X7195474Y22995474D01*
X7188924Y23000500D01*
X7188921Y23000503D01*
X7086196Y23079327D01*
X7086194Y23079328D01*
X7079643Y23084355D01*
X6944754Y23140228D01*
X6800000Y23159285D01*
X6791812Y23158207D01*
X6663432Y23141306D01*
X6663430Y23141305D01*
X6655246Y23140228D01*
X6631761Y23130500D01*
X6527986Y23087515D01*
X6527984Y23087514D01*
X6520358Y23084355D01*
X6404526Y22995474D01*
X6315645Y22879642D01*
X6312486Y22872016D01*
X6312485Y22872014D01*
X6284538Y22804545D01*
X6259772Y22744754D01*
X6258695Y22736570D01*
X6258694Y22736568D01*
X6249878Y22669603D01*
X6240715Y22600000D01*
X6241793Y22591812D01*
X6258349Y22466057D01*
X6259772Y22455246D01*
X6273871Y22421208D01*
X6306828Y22341645D01*
X6315645Y22320358D01*
X6320672Y22313807D01*
X6367770Y22252428D01*
X6404526Y22204526D01*
X6411076Y22199500D01*
X6411079Y22199497D01*
X6491858Y22137513D01*
X6520357Y22115645D01*
X6527986Y22112485D01*
X6535141Y22108354D01*
X6534076Y22106509D01*
X6580538Y22069064D01*
X6602957Y22001700D01*
X6585397Y21932910D01*
X6533433Y21884533D01*
X6482570Y21872514D01*
X6482600Y21872285D01*
X6474412Y21871207D01*
X6346032Y21854306D01*
X6346030Y21854305D01*
X6337846Y21853228D01*
X6290030Y21833422D01*
X6210586Y21800515D01*
X6210584Y21800514D01*
X6202958Y21797355D01*
X6087126Y21708474D01*
X6082103Y21701928D01*
X6077841Y21696373D01*
X5998245Y21592642D01*
X5995086Y21585016D01*
X5995085Y21585014D01*
X5970833Y21526464D01*
X5942372Y21457754D01*
X5941295Y21449570D01*
X5941294Y21449568D01*
X5931143Y21372461D01*
X5923315Y21313000D01*
X4254000Y21313000D01*
X4254000Y21641591D01*
X4247192Y21700005D01*
X4233864Y21756405D01*
X4224658Y21786754D01*
X4174055Y21868673D01*
X4155273Y21937137D01*
X4177711Y22004553D01*
X4177773Y22004617D01*
X4223709Y22092434D01*
X4243711Y22160555D01*
X4244555Y22166421D01*
X4253358Y22227652D01*
X4254000Y22232115D01*
X4254000Y23244500D01*
X4253171Y23252210D01*
X4248558Y23295126D01*
X4248557Y23295133D01*
X4248196Y23298490D01*
X4246323Y23307100D01*
X4237170Y23349178D01*
X4237168Y23349185D01*
X4236810Y23350832D01*
X4229616Y23377055D01*
X4191684Y23443668D01*
X4183638Y23457798D01*
X4183635Y23457802D01*
X4180575Y23463176D01*
X4145784Y23503327D01*
X4135922Y23514709D01*
X4135917Y23514714D01*
X4134082Y23516832D01*
X4101498Y23548273D01*
X4013681Y23594209D01*
X4007743Y23595952D01*
X4002004Y23598270D01*
X4002765Y23600156D01*
X3950894Y23633497D01*
X3921406Y23698080D01*
X3920127Y23716679D01*
X3922209Y24100000D01*
X5040715Y24100000D01*
X5059772Y23955246D01*
X5062931Y23947620D01*
X5108931Y23836568D01*
X5115645Y23820358D01*
X5141681Y23786427D01*
X5195201Y23716679D01*
X5204526Y23704526D01*
X5211076Y23699500D01*
X5211079Y23699497D01*
X5309316Y23624117D01*
X5320357Y23615645D01*
X5455246Y23559772D01*
X5600000Y23540715D01*
X5608188Y23541793D01*
X5625758Y23544106D01*
X5744754Y23559772D01*
X5879643Y23615645D01*
X5890684Y23624117D01*
X5988921Y23699497D01*
X5988924Y23699500D01*
X5995474Y23704526D01*
X6004800Y23716679D01*
X6058319Y23786427D01*
X6084355Y23820358D01*
X6091070Y23836568D01*
X6137069Y23947620D01*
X6140228Y23955246D01*
X6159285Y24100000D01*
X6156159Y24123745D01*
X6141306Y24236568D01*
X6141305Y24236570D01*
X6140228Y24244754D01*
X6109530Y24318865D01*
X6087515Y24372014D01*
X6087514Y24372016D01*
X6084355Y24379642D01*
X5995474Y24495474D01*
X5988924Y24500500D01*
X5988921Y24500503D01*
X5886196Y24579327D01*
X5886194Y24579328D01*
X5879643Y24584355D01*
X5744754Y24640228D01*
X5600000Y24659285D01*
X5591812Y24658207D01*
X5463432Y24641306D01*
X5463430Y24641305D01*
X5455246Y24640228D01*
X5411274Y24622014D01*
X5327986Y24587515D01*
X5327984Y24587514D01*
X5320358Y24584355D01*
X5204526Y24495474D01*
X5115645Y24379642D01*
X5112486Y24372016D01*
X5112485Y24372014D01*
X5090470Y24318865D01*
X5059772Y24244754D01*
X5058695Y24236570D01*
X5058694Y24236568D01*
X5043841Y24123745D01*
X5040715Y24100000D01*
X3922209Y24100000D01*
X3922275Y24112200D01*
X3943508Y24181517D01*
X3982839Y24240380D01*
X3989734Y24250699D01*
X4004500Y24324933D01*
X4004499Y25237074D01*
X4024501Y25305195D01*
X4078157Y25351688D01*
X4148431Y25361792D01*
X4152270Y25361005D01*
X4155246Y25359772D01*
X4300000Y25340715D01*
X4308188Y25341793D01*
X4436566Y25358694D01*
X4444754Y25359772D01*
X4579643Y25415645D01*
X4586196Y25420673D01*
X4688921Y25499497D01*
X4688924Y25499500D01*
X4695474Y25504526D01*
X4784355Y25620358D01*
X4840228Y25755246D01*
X4846409Y25802192D01*
X4858207Y25891812D01*
X4859285Y25900000D01*
X4855221Y25930872D01*
X4841306Y26036568D01*
X4841305Y26036570D01*
X4840228Y26044754D01*
X4814732Y26106307D01*
X4787515Y26172014D01*
X4787514Y26172016D01*
X4784355Y26179642D01*
X4705338Y26282619D01*
X4700501Y26288923D01*
X4700500Y26288924D01*
X4695474Y26295474D01*
X4688924Y26300500D01*
X4688921Y26300503D01*
X4586196Y26379327D01*
X4586194Y26379328D01*
X4579643Y26384355D01*
X4444754Y26440228D01*
X4436566Y26441306D01*
X4332231Y26455042D01*
X4267303Y26483764D01*
X4228212Y26543030D01*
X4227781Y26615460D01*
X4243711Y26669713D01*
X4250360Y26715955D01*
X4279852Y26780531D01*
X4339578Y26818915D01*
X4410574Y26818915D01*
X4423294Y26814428D01*
X4547616Y26762932D01*
X4547619Y26762931D01*
X4555246Y26759772D01*
X4700000Y26740715D01*
X4708188Y26741793D01*
X4836566Y26758694D01*
X4844754Y26759772D01*
X4979643Y26815645D01*
X5018629Y26845560D01*
X5088921Y26899497D01*
X5088924Y26899500D01*
X5095474Y26904526D01*
X5114690Y26929568D01*
X5158527Y26986698D01*
X5184355Y27020358D01*
X5192855Y27040877D01*
X5237069Y27147620D01*
X5240228Y27155246D01*
X5259285Y27300000D01*
X5251000Y27362932D01*
X5241306Y27436568D01*
X5241305Y27436570D01*
X5240228Y27444754D01*
X5219219Y27495474D01*
X5187515Y27572014D01*
X5187514Y27572016D01*
X5184355Y27579642D01*
X5163826Y27606396D01*
X5138226Y27672617D01*
X5152491Y27742165D01*
X5202092Y27792961D01*
X5263789Y27809100D01*
X7042067Y27809100D01*
X7110188Y27789098D01*
X7156681Y27735442D01*
X7166785Y27665168D01*
X7137291Y27600588D01*
X7118771Y27583137D01*
X7014070Y27502797D01*
X7004526Y27495474D01*
X6915645Y27379642D01*
X6859772Y27244754D01*
X6840715Y27100000D01*
X6859772Y26955246D01*
X6868653Y26933806D01*
X6894326Y26871827D01*
X6915645Y26820358D01*
X7004526Y26704526D01*
X7011076Y26699500D01*
X7011079Y26699497D01*
X7107847Y26625244D01*
X7120357Y26615645D01*
X7255246Y26559772D01*
X7400000Y26540715D01*
X7408188Y26541793D01*
X7423464Y26543804D01*
X7544754Y26559772D01*
X7679643Y26615645D01*
X7692153Y26625244D01*
X7788921Y26699497D01*
X7788924Y26699500D01*
X7795474Y26704526D01*
X7884355Y26820358D01*
X7905675Y26871827D01*
X7931347Y26933806D01*
X7940228Y26955246D01*
X7947337Y27009245D01*
X7976059Y27074172D01*
X8035324Y27113264D01*
X8106316Y27114109D01*
X8161354Y27081894D01*
X10826397Y24416851D01*
X10860423Y24354539D01*
X10855358Y24283724D01*
X10812811Y24226888D01*
X10785521Y24211348D01*
X10727993Y24187518D01*
X10727990Y24187516D01*
X10720358Y24184355D01*
X10604526Y24095474D01*
X10515645Y23979642D01*
X10512486Y23972016D01*
X10512485Y23972014D01*
X10503158Y23949497D01*
X10459772Y23844754D01*
X10458695Y23836570D01*
X10458694Y23836568D01*
X10446928Y23747190D01*
X10440715Y23700000D01*
X10441793Y23691812D01*
X10457709Y23570918D01*
X10459772Y23555246D01*
X10466628Y23538694D01*
X10505990Y23443668D01*
X10515645Y23420358D01*
X10554705Y23369454D01*
X10575210Y23342732D01*
X10604526Y23304526D01*
X10611076Y23299500D01*
X10611079Y23299497D01*
X10713804Y23220673D01*
X10720357Y23215645D01*
X10855246Y23159772D01*
X10863434Y23158694D01*
X10906434Y23153033D01*
X11000000Y23140715D01*
X11008188Y23141793D01*
X11017729Y23143049D01*
X11093566Y23153033D01*
X11136566Y23158694D01*
X11144754Y23159772D01*
X11279643Y23215645D01*
X11291723Y23224914D01*
X11363871Y23280276D01*
X11430091Y23305877D01*
X11499640Y23291613D01*
X11550436Y23242012D01*
X11556983Y23228534D01*
X11565783Y23207291D01*
X11568945Y23199658D01*
X11603427Y23154720D01*
X11624315Y23127499D01*
X11657826Y23083826D01*
X11664376Y23078800D01*
X11664379Y23078797D01*
X11767104Y22999973D01*
X11773657Y22994945D01*
X11908546Y22939072D01*
X12053300Y22920015D01*
X12061488Y22921093D01*
X12189866Y22937994D01*
X12198054Y22939072D01*
X12332943Y22994945D01*
X12339496Y22999973D01*
X12442221Y23078797D01*
X12442224Y23078800D01*
X12448774Y23083826D01*
X12482286Y23127499D01*
X12503173Y23154720D01*
X12537655Y23199658D01*
X12548117Y23224914D01*
X12582159Y23307100D01*
X13927815Y23307100D01*
X13928893Y23298912D01*
X13945518Y23172634D01*
X13946872Y23162346D01*
X13960063Y23130500D01*
X13999143Y23036155D01*
X14002745Y23027458D01*
X14030118Y22991785D01*
X14084362Y22921093D01*
X14091626Y22911626D01*
X14098176Y22906600D01*
X14098179Y22906597D01*
X14200904Y22827773D01*
X14207457Y22822745D01*
X14342346Y22766872D01*
X14487100Y22747815D01*
X14495288Y22748893D01*
X14623666Y22765794D01*
X14631854Y22766872D01*
X14766743Y22822745D01*
X14773296Y22827773D01*
X14876021Y22906597D01*
X14876024Y22906600D01*
X14882574Y22911626D01*
X14889839Y22921093D01*
X14944082Y22991785D01*
X14971455Y23027458D01*
X14975058Y23036155D01*
X15014137Y23130500D01*
X15027328Y23162346D01*
X15028683Y23172634D01*
X15045307Y23298912D01*
X15046385Y23307100D01*
X15038176Y23369454D01*
X15028406Y23443668D01*
X15028405Y23443670D01*
X15027328Y23451854D01*
X14996487Y23526311D01*
X14974615Y23579114D01*
X14974614Y23579116D01*
X14971455Y23586742D01*
X14919618Y23654297D01*
X14887601Y23696023D01*
X14887600Y23696024D01*
X14882574Y23702574D01*
X14876024Y23707600D01*
X14876021Y23707603D01*
X14773296Y23786427D01*
X14773294Y23786428D01*
X14766743Y23791455D01*
X14631854Y23847328D01*
X14487100Y23866385D01*
X14478912Y23865307D01*
X14350532Y23848406D01*
X14350530Y23848405D01*
X14342346Y23847328D01*
X14295651Y23827986D01*
X14215086Y23794615D01*
X14215084Y23794614D01*
X14207458Y23791455D01*
X14091626Y23702574D01*
X14002745Y23586742D01*
X13999586Y23579116D01*
X13999585Y23579114D01*
X13977713Y23526311D01*
X13946872Y23451854D01*
X13945795Y23443670D01*
X13945794Y23443668D01*
X13936024Y23369454D01*
X13927815Y23307100D01*
X12582159Y23307100D01*
X12590369Y23326920D01*
X12593528Y23334546D01*
X12595455Y23349178D01*
X12611507Y23471112D01*
X12612585Y23479300D01*
X12607830Y23515422D01*
X12594606Y23615868D01*
X12594605Y23615870D01*
X12593528Y23624054D01*
X12566898Y23688344D01*
X12540815Y23751314D01*
X12540814Y23751316D01*
X12537655Y23758942D01*
X12484676Y23827986D01*
X12453801Y23868223D01*
X12453800Y23868224D01*
X12448774Y23874774D01*
X12442224Y23879800D01*
X12442221Y23879803D01*
X12339496Y23958627D01*
X12339494Y23958628D01*
X12332943Y23963655D01*
X12198054Y24019528D01*
X12189866Y24020606D01*
X12181890Y24022743D01*
X12182649Y24025574D01*
X12130657Y24048569D01*
X12122927Y24055681D01*
X11828608Y24350000D01*
X15840715Y24350000D01*
X15841793Y24341812D01*
X15855697Y24236202D01*
X15859772Y24205246D01*
X15869601Y24181517D01*
X15905242Y24095474D01*
X15915645Y24070358D01*
X16004526Y23954526D01*
X16011076Y23949500D01*
X16011079Y23949497D01*
X16113804Y23870673D01*
X16120357Y23865645D01*
X16255246Y23809772D01*
X16400000Y23790715D01*
X16408188Y23791793D01*
X16536566Y23808694D01*
X16544754Y23809772D01*
X16679643Y23865645D01*
X16686196Y23870673D01*
X16788921Y23949497D01*
X16788924Y23949500D01*
X16795474Y23954526D01*
X16884355Y24070358D01*
X16894759Y24095474D01*
X16930399Y24181517D01*
X16940228Y24205246D01*
X16944304Y24236202D01*
X16958207Y24341812D01*
X16959285Y24350000D01*
X16940228Y24494754D01*
X16913296Y24559772D01*
X16887515Y24622014D01*
X16887514Y24622016D01*
X16884355Y24629642D01*
X16830310Y24700075D01*
X16800501Y24738923D01*
X16800500Y24738924D01*
X16795474Y24745474D01*
X16788924Y24750500D01*
X16788921Y24750503D01*
X16686196Y24829327D01*
X16686194Y24829328D01*
X16679643Y24834355D01*
X16544754Y24890228D01*
X16400000Y24909285D01*
X16391812Y24908207D01*
X16263432Y24891306D01*
X16263430Y24891305D01*
X16255246Y24890228D01*
X16207430Y24870422D01*
X16127986Y24837515D01*
X16127984Y24837514D01*
X16120358Y24834355D01*
X16004526Y24745474D01*
X15915645Y24629642D01*
X15912486Y24622016D01*
X15912485Y24622014D01*
X15886704Y24559772D01*
X15859772Y24494754D01*
X15840715Y24350000D01*
X11828608Y24350000D01*
X11078608Y25100000D01*
X13840715Y25100000D01*
X13841793Y25091812D01*
X13858036Y24968436D01*
X13859772Y24955246D01*
X13878810Y24909285D01*
X13888013Y24887068D01*
X13915645Y24820358D01*
X13920672Y24813807D01*
X13973106Y24745474D01*
X14004526Y24704526D01*
X14011076Y24699500D01*
X14011079Y24699497D01*
X14113804Y24620673D01*
X14120357Y24615645D01*
X14255246Y24559772D01*
X14400000Y24540715D01*
X14408188Y24541793D01*
X14536566Y24558694D01*
X14544754Y24559772D01*
X14679643Y24615645D01*
X14686196Y24620673D01*
X14788921Y24699497D01*
X14788924Y24699500D01*
X14795474Y24704526D01*
X14826895Y24745474D01*
X14879328Y24813807D01*
X14884355Y24820358D01*
X14911988Y24887068D01*
X14921190Y24909285D01*
X14940228Y24955246D01*
X14941965Y24968436D01*
X14958207Y25091812D01*
X14959285Y25100000D01*
X14948399Y25182688D01*
X14941306Y25236568D01*
X14941305Y25236570D01*
X14940228Y25244754D01*
X14920422Y25292570D01*
X14887515Y25372014D01*
X14887514Y25372016D01*
X14884355Y25379642D01*
X14795474Y25495474D01*
X14788924Y25500500D01*
X14788921Y25500503D01*
X14686196Y25579327D01*
X14686194Y25579328D01*
X14679643Y25584355D01*
X14544754Y25640228D01*
X14400000Y25659285D01*
X14391812Y25658207D01*
X14263432Y25641306D01*
X14263430Y25641305D01*
X14255246Y25640228D01*
X14223417Y25627044D01*
X14127986Y25587515D01*
X14127984Y25587514D01*
X14120358Y25584355D01*
X14004526Y25495474D01*
X13915645Y25379642D01*
X13912486Y25372016D01*
X13912485Y25372014D01*
X13879578Y25292570D01*
X13859772Y25244754D01*
X13858695Y25236570D01*
X13858694Y25236568D01*
X13851601Y25182688D01*
X13840715Y25100000D01*
X11078608Y25100000D01*
X9786108Y26392500D01*
X18748215Y26392500D01*
X18749293Y26384312D01*
X18762534Y26283738D01*
X18767272Y26247746D01*
X18779799Y26217503D01*
X18817273Y26127035D01*
X18823145Y26112858D01*
X18912026Y25997026D01*
X18918576Y25992000D01*
X18918579Y25991997D01*
X19010257Y25921650D01*
X19027857Y25908145D01*
X19162746Y25852272D01*
X19307500Y25833215D01*
X19315688Y25834293D01*
X19444066Y25851194D01*
X19452254Y25852272D01*
X19587143Y25908145D01*
X19604743Y25921650D01*
X19696421Y25991997D01*
X19696424Y25992000D01*
X19702974Y25997026D01*
X19791855Y26112858D01*
X19797728Y26127035D01*
X19835201Y26217503D01*
X19847728Y26247746D01*
X19852467Y26283738D01*
X19865707Y26384312D01*
X19866785Y26392500D01*
X19854770Y26483764D01*
X19848806Y26529068D01*
X19848805Y26529070D01*
X19847728Y26537254D01*
X19816566Y26612485D01*
X19795015Y26664514D01*
X19795014Y26664516D01*
X19791855Y26672142D01*
X19724614Y26759772D01*
X19708001Y26781423D01*
X19708000Y26781424D01*
X19702974Y26787974D01*
X19696424Y26793000D01*
X19696421Y26793003D01*
X19593696Y26871827D01*
X19593694Y26871828D01*
X19587143Y26876855D01*
X19452254Y26932728D01*
X19307500Y26951785D01*
X19299312Y26950707D01*
X19170932Y26933806D01*
X19170930Y26933805D01*
X19162746Y26932728D01*
X19128595Y26918582D01*
X19035486Y26880015D01*
X19035484Y26880014D01*
X19027858Y26876855D01*
X18912026Y26787974D01*
X18823145Y26672142D01*
X18819986Y26664516D01*
X18819985Y26664514D01*
X18798434Y26612485D01*
X18767272Y26537254D01*
X18766195Y26529070D01*
X18766194Y26529068D01*
X18760230Y26483764D01*
X18748215Y26392500D01*
X9786108Y26392500D01*
X8078608Y28100000D01*
X11890715Y28100000D01*
X11891793Y28091812D01*
X11903592Y28002191D01*
X11909772Y27955246D01*
X11965645Y27820358D01*
X11989632Y27789098D01*
X12044133Y27718071D01*
X12054526Y27704526D01*
X12061076Y27699500D01*
X12061079Y27699497D01*
X12138320Y27640228D01*
X12170357Y27615645D01*
X12305246Y27559772D01*
X12450000Y27540715D01*
X12458188Y27541793D01*
X12586566Y27558694D01*
X12594754Y27559772D01*
X12729643Y27615645D01*
X12761680Y27640228D01*
X12838921Y27699497D01*
X12838924Y27699500D01*
X12845474Y27704526D01*
X12855868Y27718071D01*
X12910368Y27789098D01*
X12934355Y27820358D01*
X12967344Y27900000D01*
X17240715Y27900000D01*
X17241793Y27891812D01*
X17257287Y27774125D01*
X17259772Y27755246D01*
X17315645Y27620358D01*
X17404526Y27504526D01*
X17411076Y27499500D01*
X17411079Y27499497D01*
X17513804Y27420673D01*
X17520357Y27415645D01*
X17655246Y27359772D01*
X17800000Y27340715D01*
X17808188Y27341793D01*
X17936566Y27358694D01*
X17944754Y27359772D01*
X18079643Y27415645D01*
X18086196Y27420673D01*
X18188921Y27499497D01*
X18188924Y27499500D01*
X18195474Y27504526D01*
X18284355Y27620358D01*
X18340228Y27755246D01*
X18342714Y27774125D01*
X18358207Y27891812D01*
X18359285Y27900000D01*
X18346766Y27995091D01*
X18341306Y28036568D01*
X18341305Y28036570D01*
X18340228Y28044754D01*
X18284355Y28179642D01*
X18237906Y28240176D01*
X18200501Y28288923D01*
X18200500Y28288924D01*
X18195474Y28295474D01*
X18188924Y28300500D01*
X18188921Y28300503D01*
X18086196Y28379327D01*
X18086194Y28379328D01*
X18079643Y28384355D01*
X17944754Y28440228D01*
X17800000Y28459285D01*
X17776255Y28456159D01*
X17663432Y28441306D01*
X17663430Y28441305D01*
X17655246Y28440228D01*
X17611547Y28422127D01*
X17527986Y28387515D01*
X17527984Y28387514D01*
X17520358Y28384355D01*
X17404526Y28295474D01*
X17315645Y28179642D01*
X17259772Y28044754D01*
X17258695Y28036570D01*
X17258694Y28036568D01*
X17253234Y27995091D01*
X17240715Y27900000D01*
X12967344Y27900000D01*
X12990228Y27955246D01*
X12996409Y28002191D01*
X13008207Y28091812D01*
X13009285Y28100000D01*
X12997938Y28186193D01*
X12991306Y28236568D01*
X12991305Y28236570D01*
X12990228Y28244754D01*
X12967136Y28300503D01*
X12937515Y28372014D01*
X12937514Y28372016D01*
X12934355Y28379642D01*
X12881930Y28447964D01*
X12850501Y28488923D01*
X12850500Y28488924D01*
X12845474Y28495474D01*
X12838924Y28500500D01*
X12838921Y28500503D01*
X12736196Y28579327D01*
X12736194Y28579328D01*
X12729643Y28584355D01*
X12594754Y28640228D01*
X12450000Y28659285D01*
X12441812Y28658207D01*
X12313432Y28641306D01*
X12313430Y28641305D01*
X12305246Y28640228D01*
X12283434Y28631193D01*
X12177986Y28587515D01*
X12177984Y28587514D01*
X12170358Y28584355D01*
X12054526Y28495474D01*
X11965645Y28379642D01*
X11962486Y28372016D01*
X11962485Y28372014D01*
X11932864Y28300503D01*
X11909772Y28244754D01*
X11908695Y28236570D01*
X11908694Y28236568D01*
X11902062Y28186193D01*
X11890715Y28100000D01*
X8078608Y28100000D01*
X7819076Y28359532D01*
X7811650Y28367636D01*
X7794064Y28388594D01*
X7794061Y28388596D01*
X7786977Y28397039D01*
X7753753Y28416222D01*
X7744483Y28422127D01*
X7722078Y28437815D01*
X7722075Y28437816D01*
X7713044Y28444140D01*
X7702395Y28446994D01*
X7699017Y28448569D01*
X7695524Y28449840D01*
X7685979Y28455351D01*
X7675126Y28457265D01*
X7675125Y28457265D01*
X7655269Y28460766D01*
X7648181Y28462016D01*
X7637467Y28464391D01*
X7600395Y28474324D01*
X7589420Y28473364D01*
X7589419Y28473364D01*
X7562160Y28470979D01*
X7551179Y28470500D01*
X4555205Y28470500D01*
X4487084Y28490502D01*
X4440591Y28544158D01*
X4430487Y28614432D01*
X4455242Y28673204D01*
X4483328Y28709807D01*
X4488355Y28716358D01*
X4544228Y28851246D01*
X4563285Y28996000D01*
X4544228Y29140754D01*
X4523705Y29190300D01*
X4491515Y29268014D01*
X4491514Y29268016D01*
X4488355Y29275642D01*
X4399474Y29391474D01*
X4392924Y29396500D01*
X4392921Y29396503D01*
X4291417Y29474390D01*
X4249549Y29531728D01*
X4245497Y29593440D01*
X4243711Y29593697D01*
X4247441Y29619639D01*
X4254000Y29665257D01*
X4254000Y31394000D01*
X4274002Y31462121D01*
X4327658Y31508614D01*
X4380000Y31520000D01*
X5253783Y31520000D01*
X5321904Y31499998D01*
G37*
G04 #@! TD.AperFunction*
M02*
