G04 #@! TF.GenerationSoftware,KiCad,Pcbnew,6.99.0-unknown-41f6e634c6~148~ubuntu20.04.1*
G04 #@! TF.CreationDate,2022-02-25T02:28:11-08:00*
G04 #@! TF.ProjectId,Huvud,48757675-642e-46b6-9963-61645f706362,rev?*
G04 #@! TF.SameCoordinates,PXad91980PY876bf80*
G04 #@! TF.FileFunction,Soldermask,Bot*
G04 #@! TF.FilePolarity,Negative*
%FSLAX46Y46*%
G04 Gerber Fmt 4.6, Leading zero omitted, Abs format (unit mm)*
G04 Created by KiCad (PCBNEW 6.99.0-unknown-41f6e634c6~148~ubuntu20.04.1) date 2022-02-25 02:28:11*
%MOMM*%
%LPD*%
G01*
G04 APERTURE LIST*
G04 Aperture macros list*
%AMRoundRect*
0 Rectangle with rounded corners*
0 $1 Rounding radius*
0 $2 $3 $4 $5 $6 $7 $8 $9 X,Y pos of 4 corners*
0 Add a 4 corners polygon primitive as box body*
4,1,4,$2,$3,$4,$5,$6,$7,$8,$9,$2,$3,0*
0 Add four circle primitives for the rounded corners*
1,1,$1+$1,$2,$3*
1,1,$1+$1,$4,$5*
1,1,$1+$1,$6,$7*
1,1,$1+$1,$8,$9*
0 Add four rect primitives between the rounded corners*
20,1,$1+$1,$2,$3,$4,$5,0*
20,1,$1+$1,$4,$5,$6,$7,0*
20,1,$1+$1,$6,$7,$8,$9,0*
20,1,$1+$1,$8,$9,$2,$3,0*%
G04 Aperture macros list end*
%ADD10C,0.100000*%
%ADD11RoundRect,0.225000X0.475000X-0.225000X0.475000X0.225000X-0.475000X0.225000X-0.475000X-0.225000X0*%
%ADD12O,1.400000X0.900000*%
%ADD13RoundRect,0.225000X-0.475000X0.225000X-0.475000X-0.225000X0.475000X-0.225000X0.475000X0.225000X0*%
%ADD14C,0.800000*%
%ADD15C,6.400000*%
%ADD16R,1.000000X1.000000*%
%ADD17O,1.000000X1.000000*%
%ADD18C,3.000000*%
%ADD19RoundRect,0.250001X-0.499999X-0.499999X0.499999X-0.499999X0.499999X0.499999X-0.499999X0.499999X0*%
%ADD20C,1.500000*%
%ADD21RoundRect,0.250000X0.725000X-0.600000X0.725000X0.600000X-0.725000X0.600000X-0.725000X-0.600000X0*%
%ADD22O,1.950000X1.700000*%
G04 APERTURE END LIST*
D10*
X35000000Y13550000D02*
X23200000Y13550000D01*
X23200000Y13550000D02*
X23200000Y18950000D01*
X23200000Y18950000D02*
X35000000Y18950000D01*
X35000000Y18950000D02*
X35000000Y13550000D01*
G36*
X35000000Y13550000D02*
G01*
X23200000Y13550000D01*
X23200000Y18950000D01*
X35000000Y18950000D01*
X35000000Y13550000D01*
G37*
X35000000Y13550000D02*
X23200000Y13550000D01*
X23200000Y18950000D01*
X35000000Y18950000D01*
X35000000Y13550000D01*
D11*
X2870000Y10850000D03*
D12*
X2869999Y12099999D03*
X2869999Y13349999D03*
X2869999Y14599999D03*
X2869999Y15849999D03*
X2869999Y17099999D03*
D13*
X24250000Y4475000D03*
D12*
X24249999Y3224999D03*
D14*
X34100000Y36500000D03*
X34802944Y38197056D03*
X34802944Y34802944D03*
X36500000Y38900000D03*
D15*
X36500000Y36500000D03*
D14*
X36500000Y34100000D03*
X38197056Y38197056D03*
X38197056Y34802944D03*
X38900000Y36500000D03*
X34100000Y5500000D03*
X34802944Y7197056D03*
X34802944Y3802944D03*
X36500000Y7900000D03*
D15*
X36500000Y5500000D03*
D14*
X36500000Y3100000D03*
X38197056Y7197056D03*
X38197056Y3802944D03*
X38900000Y5500000D03*
D13*
X15650000Y4475000D03*
D12*
X15649999Y3224999D03*
D14*
X3100000Y5500000D03*
X3802944Y7197056D03*
X3802944Y3802944D03*
X5500000Y7900000D03*
D15*
X5500000Y5500000D03*
D14*
X5500000Y3100000D03*
X7197056Y7197056D03*
X7197056Y3802944D03*
X7900000Y5500000D03*
D16*
X2978199Y29726999D03*
D17*
X1708199Y29726999D03*
X2978199Y30996999D03*
X1708199Y30996999D03*
X2978199Y32266999D03*
X1708199Y32266999D03*
D14*
X3100000Y36500000D03*
X3802944Y38197056D03*
X3802944Y34802944D03*
X5500000Y38900000D03*
D15*
X5500000Y36500000D03*
D14*
X5500000Y34100000D03*
X7197056Y38197056D03*
X7197056Y34802944D03*
X7900000Y36500000D03*
D13*
X19950000Y4475000D03*
D12*
X19949999Y3224999D03*
D18*
X28700000Y39020000D03*
D19*
X28700000Y34700000D03*
D20*
X28700000Y31700000D03*
D21*
X38038500Y12524000D03*
D22*
X38038499Y15023999D03*
X38038499Y17523999D03*
X38038499Y20023999D03*
D13*
X28550000Y4475000D03*
D12*
X28549999Y3224999D03*
D11*
X8750000Y26240000D03*
D12*
X8749999Y27489999D03*
X8749999Y28739999D03*
X8749999Y29989999D03*
X8749999Y31239999D03*
D18*
X14795000Y39015000D03*
D19*
X13295000Y34695000D03*
D20*
X16295000Y34695000D03*
X13295000Y31695000D03*
X16295000Y31695000D03*
D13*
X11350000Y4475000D03*
D12*
X11349999Y3224999D03*
M02*
