M48
; DRILL file {KiCad 6.99.0-unknown-41f6e634c6~148~ubuntu20.04.1} date Fri 25 Feb 2022 02:28:13 AM PST
; FORMAT={-:-/ absolute / inch / decimal}
; #@! TF.CreationDate,2022-02-25T02:28:13-08:00
; #@! TF.GenerationSoftware,Kicad,Pcbnew,6.99.0-unknown-41f6e634c6~148~ubuntu20.04.1
; #@! TF.FileFunction,Plated,1,4,PTH
FMAT,2
INCH
; #@! TA.AperFunction,Plated,PTH,ViaDrill
T1C0.0118
; #@! TA.AperFunction,Plated,PTH,ComponentDrill
T2C0.0138
; #@! TA.AperFunction,Plated,PTH,ViaDrill
T3C0.0157
; #@! TA.AperFunction,Plated,PTH,ViaDrill
T4C0.0197
; #@! TA.AperFunction,Plated,PTH,ComponentDrill
T5C0.0197
; #@! TA.AperFunction,Plated,PTH,ComponentDrill
T6C0.0236
; #@! TA.AperFunction,Plated,PTH,ComponentDrill
T7C0.0256
; #@! TA.AperFunction,Plated,PTH,ComponentDrill
T8C0.0374
; #@! TA.AperFunction,Plated,PTH,ComponentDrill
T9C0.0402
; #@! TA.AperFunction,Plated,PTH,ComponentDrill
T10C0.1260
%
G90
G05
T1
X0.0366Y0.7506
X0.0786Y1.0286
X0.0842Y1.1226
X0.0866Y1.0806
X0.1189Y1.0502
X0.139Y0.9583
X0.1626Y0.7226
X0.1849Y1.0509
X0.1866Y0.9466
X0.1886Y0.5426
X0.1886Y0.4686
X0.1926Y0.5806
X0.2066Y0.3706
X0.2586Y0.6466
X0.2593Y0.6848
X0.2606Y0.6106
X0.2801Y0.7528
X0.2886Y0.3726
X0.3106Y0.3426
X0.3157Y0.8945
X0.3259Y0.7173
X0.3346Y0.5786
X0.3682Y0.3118
X0.3795Y0.7254
X0.3807Y0.7976
X0.3976Y0.8244
X0.4Y0.7756
X0.4008Y0.6858
X0.4121Y1.2783
X0.4226Y0.4106
X0.4407Y1.2783
X0.4469Y0.9362
X0.452Y0.9898
X0.4535Y1.0201
X0.4543Y1.0524
X0.4606Y0.3926
X0.4846Y0.7679
X0.4854Y1.1776
X0.5028Y0.5295
X0.5066Y0.3926
X0.5174Y0.5029
X0.5249Y0.9646
X0.5311Y1.061
X0.5613Y0.9383
X0.5675Y0.8987
X0.5681Y0.5208
X0.5706Y0.3496
X0.5717Y1.0291
X0.5865Y0.9229
X0.5906Y1.1806
X0.5927Y0.9555
X0.593Y0.4269
X0.5967Y0.5203
X0.6172Y0.9911
X0.6321Y0.9666
X0.6426Y0.3886
X0.6537Y0.9099
X0.6559Y0.5512
X0.6591Y0.5169
X0.6819Y0.9227
X0.6986Y0.3706
X0.6988Y0.552
X0.7264Y0.961
X0.7301Y0.9095
X0.7352Y0.8455
X0.7382Y0.5925
X0.7598Y1.2567
X0.7795Y0.9547
X0.7854Y1.0665
X0.7969Y1.1933
X0.7996Y1.4787
X0.815Y0.7382
X0.828Y1.2441
X0.8315Y1.3165
X0.8362Y0.5811
X0.8394Y1.0098
X0.8634Y0.639
X0.8686Y0.3706
X0.8711Y0.8533
X0.8743Y0.8999
X0.8749Y0.7082
X0.8749Y0.6796
X0.8764Y0.5841
X0.8894Y0.9819
X0.8972Y1.4795
X0.9106Y0.5806
X0.9224Y1.0094
X0.9286Y0.6366
X0.9426Y0.5246
X0.9586Y0.8426
X0.9646Y1.1386
X0.9646Y0.6366
X0.9661Y1.0709
X0.9726Y0.6646
X0.9806Y1.2346
X0.9806Y1.2046
X0.9906Y1.1386
X1.0006Y0.5266
X1.0039Y1.5846
X1.0066Y1.2346
X1.0066Y1.2046
X1.0086Y0.4066
X1.0166Y1.1386
X1.0268Y0.9665
X1.0286Y0.5506
X1.0326Y1.2346
X1.0326Y1.2046
X1.0486Y1.0466
X1.0512Y0.8819
X1.0586Y0.4646
X1.0693Y0.9661
X1.0878Y1.126
X1.0966Y0.4726
X1.1246Y0.9326
X1.1266Y0.9966
X1.1426Y0.3646
X1.1586Y1.0486
X1.1586Y0.9526
X1.25Y1.5453
X1.2606Y1.1586
X1.3386Y1.1126
X1.3406Y1.2026
X1.349Y0.9156
X1.3666Y1.0046
X1.3897Y0.9275
X1.3917Y0.4232
X1.3917Y0.3976
X1.3957Y0.8898
X1.3957Y0.8642
X1.4193Y0.4252
X1.4193Y0.3996
X1.4213Y0.8878
X1.4213Y0.8622
X1.4386Y1.0266
X1.4666Y1.6046
X1.4839Y0.9169
X1.5026Y1.0026
X1.5239Y0.9234
T2
X0.5324Y0.7761
X0.5324Y0.7259
X0.5324Y0.6757
X0.5826Y0.7761
X0.5826Y0.7259
X0.5826Y0.6757
X0.6328Y0.7761
X0.6328Y0.7259
X0.6328Y0.6757
T3
X1.0709Y0.6929
X1.0709Y0.6457
X1.0709Y0.5984
X1.1181Y0.6929
X1.1181Y0.6457
X1.1181Y0.5945
X1.1496Y0.8386
X1.1496Y0.7992
X1.1496Y0.4882
X1.1496Y0.4449
X1.1614Y0.6929
X1.1614Y0.6457
X1.1614Y0.5945
X1.189Y0.8386
X1.189Y0.7992
X1.189Y0.4882
X1.189Y0.4449
T4
X1.2323Y0.9252
X1.2323Y0.8858
X1.2323Y0.4055
X1.2323Y0.3622
X1.2756Y0.9252
X1.2756Y0.8858
X1.2756Y0.4055
X1.2756Y0.3622
T5
X0.122Y1.437
X0.122Y0.2165
X0.1497Y1.5038
X0.1497Y1.3702
X0.1497Y0.2833
X0.1497Y0.1497
X0.2165Y1.5315
X0.2165Y1.3425
X0.2165Y0.311
X0.2165Y0.122
X0.2833Y1.5038
X0.2833Y1.3702
X0.2833Y0.2833
X0.2833Y0.1497
X0.311Y1.437
X0.311Y0.2165
X1.3425Y1.437
X1.3425Y0.2165
X1.3702Y1.5038
X1.3702Y1.3702
X1.3702Y0.2833
X1.3702Y0.1497
X1.437Y1.5315
X1.437Y1.3425
X1.437Y0.311
X1.437Y0.122
X1.5038Y1.5038
X1.5038Y1.3702
X1.5038Y0.2833
X1.5038Y0.1497
X1.5315Y1.437
X1.5315Y0.2165
T6
X0.113Y0.6732
X0.113Y0.624
X0.113Y0.5748
X0.113Y0.5256
X0.113Y0.4764
X0.113Y0.4272
X0.3445Y1.2299
X0.3445Y1.1807
X0.3445Y1.1315
X0.3445Y1.0823
X0.3445Y1.0331
X0.4469Y0.1762
X0.4469Y0.127
X0.6161Y0.1762
X0.6161Y0.127
X0.7854Y0.1762
X0.7854Y0.127
X0.9547Y0.1762
X0.9547Y0.127
X1.124Y0.1762
X1.124Y0.127
T7
X0.0673Y1.2704
X0.0673Y1.2204
X0.0673Y1.1704
X0.1173Y1.2704
X0.1173Y1.2204
X0.1173Y1.1704
T8
X1.4976Y0.7883
X1.4976Y0.6899
X1.4976Y0.5915
X1.4976Y0.4931
T9
X0.5234Y1.3659
X0.5234Y1.2478
X0.6415Y1.3659
X0.6415Y1.2478
X1.1299Y1.3661
X1.1299Y1.248
T10
X0.2165Y1.437
X0.2165Y0.2165
X1.437Y1.437
X1.437Y0.2165
T0
M30
