G04 #@! TF.GenerationSoftware,KiCad,Pcbnew,5.99.0-unknown-293f207356~131~ubuntu20.04.1*
G04 #@! TF.CreationDate,2021-07-30T20:50:04-07:00*
G04 #@! TF.ProjectId,Huvud,48757675-642e-46b6-9963-61645f706362,rev?*
G04 #@! TF.SameCoordinates,PXad91980PY876bf80*
G04 #@! TF.FileFunction,Copper,L2,Inr*
G04 #@! TF.FilePolarity,Positive*
%FSLAX46Y46*%
G04 Gerber Fmt 4.6, Leading zero omitted, Abs format (unit mm)*
G04 Created by KiCad (PCBNEW 5.99.0-unknown-293f207356~131~ubuntu20.04.1) date 2021-07-30 20:50:04*
%MOMM*%
%LPD*%
G01*
G04 APERTURE LIST*
G04 Aperture macros list*
%AMRoundRect*
0 Rectangle with rounded corners*
0 $1 Rounding radius*
0 $2 $3 $4 $5 $6 $7 $8 $9 X,Y pos of 4 corners*
0 Add a 4 corners polygon primitive as box body*
4,1,4,$2,$3,$4,$5,$6,$7,$8,$9,$2,$3,0*
0 Add four circle primitives for the rounded corners*
1,1,$1+$1,$2,$3*
1,1,$1+$1,$4,$5*
1,1,$1+$1,$6,$7*
1,1,$1+$1,$8,$9*
0 Add four rect primitives between the rounded corners*
20,1,$1+$1,$2,$3,$4,$5,0*
20,1,$1+$1,$4,$5,$6,$7,0*
20,1,$1+$1,$6,$7,$8,$9,0*
20,1,$1+$1,$8,$9,$2,$3,0*%
G04 Aperture macros list end*
G04 #@! TA.AperFunction,ComponentPad*
%ADD10RoundRect,0.250000X0.625000X-0.350000X0.625000X0.350000X-0.625000X0.350000X-0.625000X-0.350000X0*%
G04 #@! TD*
G04 #@! TA.AperFunction,ComponentPad*
%ADD11O,1.750000X1.200000*%
G04 #@! TD*
G04 #@! TA.AperFunction,ComponentPad*
%ADD12C,0.800000*%
G04 #@! TD*
G04 #@! TA.AperFunction,ComponentPad*
%ADD13C,6.400000*%
G04 #@! TD*
G04 #@! TA.AperFunction,ComponentPad*
%ADD14R,1.700000X1.700000*%
G04 #@! TD*
G04 #@! TA.AperFunction,ComponentPad*
%ADD15O,1.700000X1.700000*%
G04 #@! TD*
G04 #@! TA.AperFunction,ComponentPad*
%ADD16R,2.100000X2.100000*%
G04 #@! TD*
G04 #@! TA.AperFunction,ComponentPad*
%ADD17C,2.100000*%
G04 #@! TD*
G04 #@! TA.AperFunction,ComponentPad*
%ADD18RoundRect,0.250000X0.725000X-0.600000X0.725000X0.600000X-0.725000X0.600000X-0.725000X-0.600000X0*%
G04 #@! TD*
G04 #@! TA.AperFunction,ComponentPad*
%ADD19O,1.950000X1.700000*%
G04 #@! TD*
G04 #@! TA.AperFunction,ViaPad*
%ADD20C,0.600000*%
G04 #@! TD*
G04 #@! TA.AperFunction,ViaPad*
%ADD21C,0.800000*%
G04 #@! TD*
G04 #@! TA.AperFunction,ViaPad*
%ADD22C,1.000000*%
G04 #@! TD*
G04 #@! TA.AperFunction,Conductor*
%ADD23C,0.200000*%
G04 #@! TD*
G04 APERTURE END LIST*
D10*
X2100000Y11500000D03*
D11*
X2100000Y13500000D03*
X2100000Y15500000D03*
X2100000Y17500000D03*
X2100000Y19500000D03*
D10*
X23250000Y2500000D03*
D11*
X23250000Y4500000D03*
D12*
X36500000Y34100000D03*
X34802944Y38197056D03*
X36500000Y38900000D03*
X34100000Y36500000D03*
X38900000Y36500000D03*
X38197056Y38197056D03*
X34802944Y34802944D03*
D13*
X36500000Y36500000D03*
D12*
X38197056Y34802944D03*
X38197056Y3802944D03*
X36500000Y3100000D03*
X36500000Y7900000D03*
X38197056Y7197056D03*
X38900000Y5500000D03*
X34802944Y3802944D03*
X34802944Y7197056D03*
D13*
X36500000Y5500000D03*
D12*
X34100000Y5500000D03*
D10*
X10850000Y2500000D03*
D11*
X10850000Y4500000D03*
D12*
X3100000Y5500000D03*
X3802944Y3802944D03*
X7900000Y5500000D03*
X5500000Y7900000D03*
D13*
X5500000Y5500000D03*
D12*
X3802944Y7197056D03*
X7197056Y7197056D03*
X5500000Y3100000D03*
X7197056Y3802944D03*
D14*
X4388500Y26024000D03*
D15*
X1848500Y26024000D03*
X4388500Y28564000D03*
X1848500Y28564000D03*
X4388500Y31104000D03*
X1848500Y31104000D03*
D12*
X5500000Y38900000D03*
X7197056Y34802944D03*
X7900000Y36500000D03*
X7197056Y38197056D03*
D13*
X5500000Y36500000D03*
D12*
X3802944Y38197056D03*
X5500000Y34100000D03*
X3802944Y34802944D03*
X3100000Y36500000D03*
D10*
X17050000Y2500000D03*
D11*
X17050000Y4500000D03*
D16*
X28750000Y3750000D03*
D17*
X31290000Y3750000D03*
D18*
X38038500Y12524000D03*
D19*
X38038500Y15024000D03*
X38038500Y17524000D03*
X38038500Y20024000D03*
D16*
X30000000Y38150000D03*
D17*
X27460000Y38150000D03*
D20*
X9900000Y14400000D03*
X12800000Y11000000D03*
D21*
X28400000Y16400000D03*
X17600000Y8900000D03*
X12700000Y21100000D03*
X13700000Y21100000D03*
X5600000Y1200000D03*
X18200000Y10700000D03*
D20*
X23400000Y10700000D03*
D21*
X19200000Y34100000D03*
D20*
X25700000Y35800000D03*
D21*
X7700000Y1200000D03*
D20*
X25600000Y13800000D03*
X7750000Y40800000D03*
X5500000Y11000000D03*
X23400000Y9300000D03*
D21*
X14700000Y25000000D03*
X35700000Y22200000D03*
X28400000Y15100000D03*
D20*
X23500000Y18300000D03*
X7500000Y15100000D03*
D21*
X14900000Y21100000D03*
D20*
X1100000Y36500000D03*
D21*
X38200000Y26700000D03*
D20*
X3300000Y21900000D03*
X18100000Y36700000D03*
D21*
X13700000Y18900000D03*
X28400000Y17600000D03*
X11400000Y24300000D03*
D20*
X21800000Y11300000D03*
X9100000Y24100000D03*
D21*
X12200000Y28300000D03*
X14900000Y20000000D03*
X34700000Y26600000D03*
X27200000Y15200000D03*
X35700000Y10500000D03*
X27200000Y16400000D03*
D20*
X6100000Y17800000D03*
X5500000Y40800000D03*
X22800000Y41000000D03*
X5500000Y12900000D03*
X6900000Y21700000D03*
D21*
X14900000Y18900000D03*
D20*
X23400000Y10000000D03*
D21*
X13700000Y20000000D03*
X12700000Y20000000D03*
X29500000Y17600000D03*
X21200000Y34100000D03*
X28400000Y9100000D03*
X1200000Y5100000D03*
X29500000Y16400000D03*
D20*
X25700000Y38300000D03*
D21*
X29500000Y15100000D03*
X17200000Y34100000D03*
X8200000Y31400000D03*
X12700000Y18900000D03*
X27200000Y17600000D03*
D20*
X20000000Y41000000D03*
X15800000Y11000000D03*
X7500000Y27600000D03*
X27300000Y41000000D03*
D21*
X32400000Y22500000D03*
D20*
X32100000Y6400000D03*
X33000000Y40800000D03*
X40700000Y8200000D03*
D21*
X31300000Y10300000D03*
D22*
X36500000Y29100000D03*
D20*
X40800000Y36500000D03*
X29700000Y40800000D03*
D21*
X31300000Y9200000D03*
X32400000Y23500000D03*
D20*
X36200000Y1200000D03*
X24300000Y38600000D03*
X38100000Y9700000D03*
D22*
X31600000Y28800000D03*
D21*
X31300000Y22500000D03*
X32400000Y10300000D03*
D22*
X32317000Y26983000D03*
D21*
X31300000Y23500000D03*
X32400000Y9200000D03*
D22*
X33700000Y30500000D03*
D20*
X33300000Y1800000D03*
D22*
X23115700Y20692100D03*
D20*
X29400000Y35300000D03*
D22*
X31400000Y32000000D03*
D20*
X19931700Y22775900D03*
X5000000Y21300000D03*
X6100000Y14300000D03*
X7202700Y24329700D03*
X13958100Y14403800D03*
X24872200Y23110600D03*
X4521800Y24086000D03*
X13050000Y23277600D03*
X5959900Y28550700D03*
X26000000Y9300000D03*
X25200000Y9300000D03*
X26000000Y10300000D03*
X25200000Y10300000D03*
X11676800Y10600000D03*
X10420000Y16100100D03*
X14641200Y15746100D03*
X18792200Y19732600D03*
X21589700Y9160000D03*
X11000000Y17250000D03*
X17900000Y20400000D03*
X18400000Y17600000D03*
X24234300Y16458000D03*
X10481800Y20145700D03*
X15500000Y15350000D03*
X22795200Y14718800D03*
X21159400Y16073300D03*
X16200000Y15600000D03*
X16500000Y24300000D03*
D21*
X12294000Y30900000D03*
X18036000Y22400000D03*
X13221000Y30900000D03*
X18964000Y22400000D03*
D20*
X11445200Y16107200D03*
X15407000Y12040100D03*
X13664000Y15777200D03*
X13000000Y12762300D03*
D21*
X29200000Y12400000D03*
X30200000Y11300000D03*
X39000000Y23700000D03*
X30200000Y12400000D03*
X29200000Y11300000D03*
X37700000Y23700000D03*
X35400000Y23900000D03*
X29200000Y21300000D03*
X34300000Y23900000D03*
X30200000Y20300000D03*
X30200000Y21300000D03*
X29200000Y20300000D03*
D20*
X17273100Y10509700D03*
X18550000Y9682900D03*
X3467600Y24427300D03*
X9900000Y20700000D03*
X15876500Y16815100D03*
X10286300Y22731000D03*
X6070700Y21694300D03*
X16050000Y17550000D03*
X15900000Y14050000D03*
X7250000Y12462500D03*
X10102800Y12857500D03*
X17132400Y19513200D03*
X14300000Y12050000D03*
X7250000Y10637500D03*
X9334700Y16000000D03*
X9440400Y10709400D03*
D21*
X19200000Y30100000D03*
X17200000Y30100000D03*
X20900000Y30100000D03*
D20*
X23500000Y13700000D03*
X14801100Y23314700D03*
D23*
X18792200Y18742200D02*
X16300000Y16250000D01*
X14796100Y15746100D02*
X14641200Y15746100D01*
X15300000Y16250000D02*
X14796100Y15746100D01*
X16300000Y16250000D02*
X15300000Y16250000D01*
X18792200Y19732600D02*
X18792200Y18742200D01*
X12294000Y30900000D02*
X15258000Y27936000D01*
X18336000Y22700000D02*
X18036000Y22400000D01*
X16232000Y27936000D02*
X18336000Y25832000D01*
X15258000Y27936000D02*
X16232000Y27936000D01*
X18336000Y25832000D02*
X18336000Y22700000D01*
X13221000Y30900000D02*
X13221000Y30435000D01*
X18664000Y22700000D02*
X18964000Y22400000D01*
X18664000Y25968000D02*
X18664000Y22700000D01*
X13221000Y30435000D02*
X15393000Y28264000D01*
X16368000Y28264000D02*
X18664000Y25968000D01*
X15393000Y28264000D02*
X16368000Y28264000D01*
X13000000Y15113200D02*
X13000000Y12762300D01*
X13664000Y15777200D02*
X13000000Y15113200D01*
X16179100Y21320900D02*
X18000000Y19500000D01*
X16415100Y16815100D02*
X18000000Y18400000D01*
X14610800Y22731000D02*
X10286300Y22731000D01*
X15876500Y16815100D02*
X16415100Y16815100D01*
X18000000Y18400000D02*
X18000000Y19500000D01*
X16020900Y21320900D02*
X16179100Y21320900D01*
X16020900Y21320900D02*
X14610800Y22731000D01*
X13278900Y12212300D02*
X7500200Y12212300D01*
X7500200Y12212300D02*
X7250000Y12462500D01*
X15166700Y13316700D02*
X15900000Y14050000D01*
X14383300Y13316700D02*
X13278900Y12212300D01*
X14383300Y13316700D02*
X15166700Y13316700D01*
X10102800Y12933200D02*
X10102800Y12857500D01*
X16682800Y19513200D02*
X10102800Y12933200D01*
X17132400Y19513200D02*
X16682800Y19513200D01*
X13423600Y11663700D02*
X13236300Y11663700D01*
X8276200Y11663700D02*
X7250000Y10637500D01*
X13236300Y11663700D02*
X8276200Y11663700D01*
X13236300Y11663700D02*
X13913700Y11663700D01*
X13913700Y11663700D02*
X14300000Y12050000D01*
X22886050Y16786050D02*
X18586200Y21085900D01*
X18586200Y21085900D02*
X17029900Y21085900D01*
X17029900Y21085900D02*
X14801100Y23314700D01*
X23500000Y16172100D02*
X23500000Y13700000D01*
X22886050Y16786050D02*
X23500000Y16172100D01*
G04 #@! TA.AperFunction,Conductor*
G36*
X14264030Y11203095D02*
G01*
X14297396Y11140427D01*
X14300000Y11114944D01*
X14300000Y2226000D01*
X14279998Y2157879D01*
X14226342Y2111386D01*
X14174000Y2100000D01*
X12359000Y2100000D01*
X12290879Y2120002D01*
X12244386Y2173658D01*
X12233000Y2226000D01*
X12233000Y2227885D01*
X12228525Y2243124D01*
X12227135Y2244329D01*
X12219452Y2246000D01*
X9485116Y2246000D01*
X9469877Y2241525D01*
X9468672Y2240135D01*
X9467001Y2232452D01*
X9467001Y2226000D01*
X9446999Y2157879D01*
X9393343Y2111386D01*
X9341001Y2100000D01*
X9026000Y2100000D01*
X8957879Y2120002D01*
X8911386Y2173658D01*
X8900000Y2226000D01*
X8900000Y2897145D01*
X9467000Y2897145D01*
X9467000Y2772115D01*
X9471475Y2756876D01*
X9472865Y2755671D01*
X9480548Y2754000D01*
X12214884Y2754000D01*
X12230123Y2758475D01*
X12231328Y2759865D01*
X12232999Y2767548D01*
X12232999Y2897095D01*
X12232662Y2903614D01*
X12222743Y2999206D01*
X12219851Y3012600D01*
X12168412Y3166784D01*
X12162239Y3179962D01*
X12076937Y3317807D01*
X12067901Y3329208D01*
X11953171Y3443739D01*
X11941760Y3452751D01*
X11803758Y3537816D01*
X11788118Y3545109D01*
X11734833Y3592026D01*
X11715372Y3660303D01*
X11735914Y3728263D01*
X11759371Y3754972D01*
X11765356Y3760101D01*
X11837256Y3821727D01*
X11894291Y3895256D01*
X11955182Y3973756D01*
X11955184Y3973759D01*
X11959094Y3978800D01*
X12000734Y4063422D01*
X12044041Y4151434D01*
X12046860Y4157163D01*
X12096968Y4349531D01*
X12107372Y4548046D01*
X12077646Y4744598D01*
X12009005Y4931158D01*
X12005647Y4936574D01*
X12005645Y4936578D01*
X11907616Y5094683D01*
X11907613Y5094687D01*
X11904253Y5100106D01*
X11767669Y5244539D01*
X11604832Y5358559D01*
X11422395Y5437507D01*
X11227809Y5478158D01*
X11222967Y5478412D01*
X11222962Y5478412D01*
X11221283Y5478500D01*
X10525324Y5478500D01*
X10451826Y5471034D01*
X10383580Y5464102D01*
X10383579Y5464102D01*
X10377231Y5463457D01*
X10187540Y5404012D01*
X10013677Y5307638D01*
X9862744Y5178273D01*
X9858837Y5173236D01*
X9858835Y5173234D01*
X9744818Y5026244D01*
X9744816Y5026241D01*
X9740906Y5021200D01*
X9738088Y5015474D01*
X9738086Y5015470D01*
X9693654Y4925172D01*
X9653140Y4842837D01*
X9603032Y4650469D01*
X9592628Y4451954D01*
X9622354Y4255402D01*
X9690995Y4068842D01*
X9694353Y4063426D01*
X9694355Y4063422D01*
X9792384Y3905317D01*
X9792387Y3905313D01*
X9795747Y3899894D01*
X9932331Y3755461D01*
X9936765Y3752356D01*
X9975072Y3692994D01*
X9975206Y3621998D01*
X9936934Y3562200D01*
X9907695Y3543169D01*
X9895044Y3537243D01*
X9757193Y3451937D01*
X9745792Y3442901D01*
X9631261Y3328171D01*
X9622249Y3316760D01*
X9537184Y3178757D01*
X9531037Y3165576D01*
X9479862Y3011290D01*
X9476995Y2997914D01*
X9467328Y2903562D01*
X9467000Y2897145D01*
X8900000Y2897145D01*
X8900000Y4348565D01*
X8906167Y4387501D01*
X8906847Y4389593D01*
X8908026Y4392665D01*
X9005105Y4754967D01*
X9059770Y5100106D01*
X9063267Y5122184D01*
X9063268Y5122192D01*
X9063781Y5125432D01*
X9083411Y5500000D01*
X9063781Y5874568D01*
X9005105Y6245033D01*
X8908026Y6607335D01*
X8906847Y6610407D01*
X8906167Y6612499D01*
X8900000Y6651435D01*
X8900000Y10018928D01*
X8920002Y10087049D01*
X8973658Y10133542D01*
X9043932Y10143646D01*
X9086121Y10129659D01*
X9182117Y10077538D01*
X9182122Y10077536D01*
X9188793Y10073914D01*
X9347641Y10032241D01*
X9432683Y10030905D01*
X9504245Y10029780D01*
X9504248Y10029780D01*
X9511843Y10029661D01*
X9671922Y10066324D01*
X9818634Y10140112D01*
X9943510Y10246767D01*
X10039341Y10380130D01*
X10062120Y10436793D01*
X10097760Y10525452D01*
X10097760Y10525453D01*
X10100594Y10532502D01*
X10123733Y10695086D01*
X10123883Y10709400D01*
X10104154Y10872434D01*
X10050410Y11014662D01*
X10045042Y11085455D01*
X10078799Y11147913D01*
X10140965Y11182205D01*
X10168276Y11185200D01*
X11016175Y11185200D01*
X11084296Y11165198D01*
X11130789Y11111542D01*
X11140893Y11041268D01*
X11119263Y10986750D01*
X11074444Y10922980D01*
X11014790Y10769975D01*
X11013799Y10762448D01*
X10994345Y10614688D01*
X10994345Y10614684D01*
X10993354Y10607157D01*
X11011375Y10443926D01*
X11013984Y10436795D01*
X11013985Y10436793D01*
X11034721Y10380130D01*
X11067812Y10289705D01*
X11072049Y10283399D01*
X11072051Y10283396D01*
X11084706Y10264564D01*
X11159407Y10153398D01*
X11165025Y10148286D01*
X11275250Y10047988D01*
X11275254Y10047985D01*
X11280871Y10042874D01*
X11287544Y10039251D01*
X11287548Y10039248D01*
X11418520Y9968137D01*
X11425193Y9964514D01*
X11584041Y9922841D01*
X11669083Y9921505D01*
X11740645Y9920380D01*
X11740648Y9920380D01*
X11748243Y9920261D01*
X11908322Y9956924D01*
X12055034Y10030712D01*
X12179910Y10137367D01*
X12275741Y10270730D01*
X12319720Y10380130D01*
X12334160Y10416052D01*
X12334160Y10416053D01*
X12336994Y10423102D01*
X12360133Y10585686D01*
X12360283Y10600000D01*
X12340554Y10763034D01*
X12282505Y10916655D01*
X12233586Y10987833D01*
X12211486Y11055303D01*
X12229372Y11124009D01*
X12281563Y11172140D01*
X12337426Y11185200D01*
X13845987Y11185200D01*
X13857181Y11183949D01*
X13857228Y11184537D01*
X13866174Y11183817D01*
X13874930Y11181836D01*
X13925253Y11184958D01*
X13933055Y11185200D01*
X13948062Y11185200D01*
X13957515Y11186553D01*
X13967561Y11187582D01*
X14002771Y11189767D01*
X14011732Y11190323D01*
X14020178Y11193372D01*
X14026116Y11194602D01*
X14034674Y11196735D01*
X14040497Y11198438D01*
X14049380Y11199710D01*
X14089660Y11218025D01*
X14099014Y11221833D01*
X14131217Y11233458D01*
X14202081Y11237775D01*
X14264030Y11203095D01*
G37*
G04 #@! TD.AperFunction*
G04 #@! TA.AperFunction,Conductor*
G36*
X10989166Y15597017D02*
G01*
X11020806Y15575974D01*
X11043650Y15555188D01*
X11043654Y15555185D01*
X11049271Y15550074D01*
X11193593Y15471714D01*
X11352441Y15430041D01*
X11437483Y15428705D01*
X11509045Y15427580D01*
X11509048Y15427580D01*
X11516643Y15427461D01*
X11524047Y15429157D01*
X11524049Y15429157D01*
X11613375Y15449615D01*
X11684242Y15445325D01*
X11741540Y15403403D01*
X11767077Y15337159D01*
X11752746Y15267624D01*
X11730599Y15237700D01*
X10056095Y13563196D01*
X9996414Y13529772D01*
X9864557Y13498116D01*
X9718626Y13422796D01*
X9712906Y13417806D01*
X9712903Y13417804D01*
X9600598Y13319834D01*
X9600595Y13319831D01*
X9594873Y13314839D01*
X9563128Y13269670D01*
X9523602Y13213430D01*
X9500444Y13180480D01*
X9440790Y13027475D01*
X9439799Y13019948D01*
X9420345Y12872188D01*
X9420345Y12872184D01*
X9419354Y12864657D01*
X9422175Y12839106D01*
X9423111Y12830627D01*
X9410705Y12760722D01*
X9362475Y12708622D01*
X9297872Y12690800D01*
X9026000Y12690800D01*
X8957879Y12710802D01*
X8911386Y12764458D01*
X8900000Y12816800D01*
X8900000Y15252584D01*
X8920002Y15320705D01*
X8973658Y15367198D01*
X9043932Y15377302D01*
X9072386Y15369735D01*
X9076416Y15368139D01*
X9083093Y15364514D01*
X9241941Y15322841D01*
X9326983Y15321505D01*
X9398545Y15320380D01*
X9398548Y15320380D01*
X9406143Y15320261D01*
X9566222Y15356924D01*
X9712934Y15430712D01*
X9837810Y15537367D01*
X9840833Y15541574D01*
X9900784Y15577650D01*
X9971750Y15575555D01*
X10012016Y15552142D01*
X10012261Y15552487D01*
X10016032Y15549807D01*
X10017499Y15548954D01*
X10018450Y15548088D01*
X10018454Y15548085D01*
X10024071Y15542974D01*
X10030744Y15539351D01*
X10030748Y15539348D01*
X10161720Y15468237D01*
X10168393Y15464614D01*
X10327241Y15422941D01*
X10412283Y15421605D01*
X10483845Y15420480D01*
X10483848Y15420480D01*
X10491443Y15420361D01*
X10651522Y15457024D01*
X10798234Y15530812D01*
X10804007Y15535743D01*
X10804012Y15535746D01*
X10854177Y15578591D01*
X10918966Y15607622D01*
X10989166Y15597017D01*
G37*
G04 #@! TD.AperFunction*
G04 #@! TA.AperFunction,Conductor*
G36*
X8450246Y41579998D02*
G01*
X8471220Y41563095D01*
X9272358Y40761957D01*
X9272359Y40761955D01*
X9361955Y40672359D01*
X9370789Y40667858D01*
X9381519Y40662391D01*
X9398381Y40652057D01*
X9408113Y40644986D01*
X9408117Y40644984D01*
X9416141Y40639154D01*
X9437021Y40632370D01*
X9455289Y40624803D01*
X9466014Y40619338D01*
X9466016Y40619337D01*
X9474852Y40614835D01*
X9484646Y40613284D01*
X9484649Y40613283D01*
X9496529Y40611402D01*
X9515759Y40606785D01*
X9527210Y40603064D01*
X9527216Y40603063D01*
X9536646Y40599999D01*
X9663354Y40599999D01*
X9663356Y40600000D01*
X17563354Y40600000D01*
X17584247Y40606788D01*
X17603457Y40611400D01*
X17605936Y40611792D01*
X17615352Y40613283D01*
X17615355Y40613284D01*
X17625148Y40614835D01*
X17633984Y40619337D01*
X17633986Y40619338D01*
X17644707Y40624801D01*
X17662974Y40632368D01*
X17683860Y40639154D01*
X17701620Y40652057D01*
X17718478Y40662389D01*
X17738045Y40672359D01*
X17827641Y40761955D01*
X17827642Y40761957D01*
X18628780Y41563095D01*
X18691092Y41597121D01*
X18717875Y41600000D01*
X29253237Y41600000D01*
X29321358Y41579998D01*
X29367851Y41526342D01*
X29377955Y41456068D01*
X29348461Y41391488D01*
X29324059Y41369788D01*
X29322574Y41368779D01*
X29315826Y41365296D01*
X29310106Y41360306D01*
X29310103Y41360304D01*
X29197798Y41262334D01*
X29197795Y41262331D01*
X29192073Y41257339D01*
X29097644Y41122980D01*
X29037990Y40969975D01*
X29036999Y40962448D01*
X29017545Y40814688D01*
X29017545Y40814684D01*
X29016554Y40807157D01*
X29025565Y40725541D01*
X29033034Y40657888D01*
X29034575Y40643926D01*
X29037184Y40636795D01*
X29037185Y40636793D01*
X29043573Y40619338D01*
X29091012Y40489705D01*
X29095249Y40483399D01*
X29095251Y40483396D01*
X29107906Y40464564D01*
X29182607Y40353398D01*
X29188225Y40348286D01*
X29298450Y40247988D01*
X29298454Y40247985D01*
X29304071Y40242874D01*
X29310744Y40239251D01*
X29310748Y40239248D01*
X29441720Y40168137D01*
X29448393Y40164514D01*
X29607241Y40122841D01*
X29692283Y40121505D01*
X29763845Y40120380D01*
X29763848Y40120380D01*
X29771443Y40120261D01*
X29931522Y40156924D01*
X30078234Y40230712D01*
X30203110Y40337367D01*
X30298941Y40470730D01*
X30360194Y40623102D01*
X30383333Y40785686D01*
X30383483Y40800000D01*
X30363754Y40963034D01*
X30305705Y41116655D01*
X30212688Y41251995D01*
X30201084Y41262334D01*
X30095744Y41356190D01*
X30095740Y41356193D01*
X30090073Y41361242D01*
X30083365Y41364794D01*
X30077120Y41369134D01*
X30078593Y41371253D01*
X30036582Y41412195D01*
X30020598Y41481369D01*
X30044549Y41548203D01*
X30100832Y41591479D01*
X30146382Y41600000D01*
X32553237Y41600000D01*
X32621358Y41579998D01*
X32667851Y41526342D01*
X32677955Y41456068D01*
X32648461Y41391488D01*
X32624059Y41369788D01*
X32622574Y41368779D01*
X32615826Y41365296D01*
X32610106Y41360306D01*
X32610103Y41360304D01*
X32497798Y41262334D01*
X32497795Y41262331D01*
X32492073Y41257339D01*
X32397644Y41122980D01*
X32337990Y40969975D01*
X32336999Y40962448D01*
X32317545Y40814688D01*
X32317545Y40814684D01*
X32316554Y40807157D01*
X32325565Y40725541D01*
X32333034Y40657888D01*
X32334575Y40643926D01*
X32337184Y40636795D01*
X32337185Y40636793D01*
X32343573Y40619338D01*
X32391012Y40489705D01*
X32395249Y40483399D01*
X32395251Y40483396D01*
X32407906Y40464564D01*
X32482607Y40353398D01*
X32488225Y40348286D01*
X32598450Y40247988D01*
X32598454Y40247985D01*
X32604071Y40242874D01*
X32610744Y40239251D01*
X32610748Y40239248D01*
X32741720Y40168137D01*
X32748393Y40164514D01*
X32907241Y40122841D01*
X32992283Y40121505D01*
X33063845Y40120380D01*
X33063848Y40120380D01*
X33071443Y40120261D01*
X33231522Y40156924D01*
X33378234Y40230712D01*
X33503110Y40337367D01*
X33598941Y40470730D01*
X33660194Y40623102D01*
X33683333Y40785686D01*
X33683483Y40800000D01*
X33663754Y40963034D01*
X33605705Y41116655D01*
X33512688Y41251995D01*
X33501084Y41262334D01*
X33395744Y41356190D01*
X33395740Y41356193D01*
X33390073Y41361242D01*
X33383365Y41364794D01*
X33377120Y41369134D01*
X33378593Y41371253D01*
X33336582Y41412195D01*
X33320598Y41481369D01*
X33344549Y41548203D01*
X33400832Y41591479D01*
X33446382Y41600000D01*
X37782125Y41600000D01*
X37850246Y41579998D01*
X37871220Y41563095D01*
X41563095Y37871220D01*
X41597121Y37808908D01*
X41600000Y37782125D01*
X41600000Y36939740D01*
X41579998Y36871619D01*
X41526342Y36825126D01*
X41456068Y36815022D01*
X41391488Y36844516D01*
X41370160Y36868373D01*
X41316990Y36945736D01*
X41316989Y36945737D01*
X41312688Y36951995D01*
X41258754Y37000049D01*
X41195744Y37056190D01*
X41195740Y37056193D01*
X41190073Y37061242D01*
X41044938Y37138086D01*
X40885663Y37178094D01*
X40878065Y37178134D01*
X40878063Y37178134D01*
X40807307Y37178504D01*
X40721442Y37178953D01*
X40714063Y37177181D01*
X40714059Y37177181D01*
X40613654Y37153075D01*
X40561757Y37140616D01*
X40415826Y37065296D01*
X40410106Y37060306D01*
X40410103Y37060304D01*
X40297798Y36962334D01*
X40297795Y36962331D01*
X40292073Y36957339D01*
X40279704Y36939740D01*
X40212780Y36844516D01*
X40197644Y36822980D01*
X40137990Y36669975D01*
X40136999Y36662448D01*
X40117545Y36514688D01*
X40117545Y36514684D01*
X40116554Y36507157D01*
X40134575Y36343926D01*
X40137184Y36336795D01*
X40137185Y36336793D01*
X40159334Y36276269D01*
X40191012Y36189705D01*
X40195249Y36183399D01*
X40195251Y36183396D01*
X40229259Y36132788D01*
X40282607Y36053398D01*
X40288225Y36048286D01*
X40398450Y35947988D01*
X40398454Y35947985D01*
X40404071Y35942874D01*
X40410744Y35939251D01*
X40410748Y35939248D01*
X40540538Y35868779D01*
X40548393Y35864514D01*
X40707241Y35822841D01*
X40792283Y35821505D01*
X40863845Y35820380D01*
X40863848Y35820380D01*
X40871443Y35820261D01*
X41031522Y35856924D01*
X41178234Y35930712D01*
X41303110Y36037367D01*
X41307539Y36043530D01*
X41307544Y36043536D01*
X41371678Y36132788D01*
X41427672Y36176436D01*
X41498376Y36182882D01*
X41561340Y36150079D01*
X41596574Y36088443D01*
X41600000Y36059262D01*
X41600000Y8427738D01*
X41579998Y8359617D01*
X41526342Y8313124D01*
X41456068Y8303020D01*
X41391488Y8332514D01*
X41356134Y8383200D01*
X41308389Y8509552D01*
X41305705Y8516655D01*
X41263364Y8578261D01*
X41216990Y8645736D01*
X41216989Y8645737D01*
X41212688Y8651995D01*
X41206690Y8657339D01*
X41095744Y8756190D01*
X41095740Y8756193D01*
X41090073Y8761242D01*
X40970477Y8824564D01*
X40951647Y8834534D01*
X40951646Y8834534D01*
X40944938Y8838086D01*
X40785663Y8878094D01*
X40778065Y8878134D01*
X40778063Y8878134D01*
X40707307Y8878504D01*
X40621442Y8878953D01*
X40614063Y8877181D01*
X40614059Y8877181D01*
X40541264Y8859704D01*
X40461757Y8840616D01*
X40315826Y8765296D01*
X40310106Y8760306D01*
X40310103Y8760304D01*
X40197798Y8662334D01*
X40197795Y8662331D01*
X40192073Y8657339D01*
X40153794Y8602874D01*
X40134892Y8575978D01*
X40097644Y8522980D01*
X40037990Y8369975D01*
X40036999Y8362448D01*
X40017545Y8214688D01*
X40017545Y8214684D01*
X40016554Y8207157D01*
X40034575Y8043926D01*
X40037184Y8036795D01*
X40037185Y8036793D01*
X40045018Y8015388D01*
X40091012Y7889705D01*
X40095249Y7883399D01*
X40095251Y7883396D01*
X40107906Y7864564D01*
X40182607Y7753398D01*
X40188225Y7748286D01*
X40298450Y7647988D01*
X40298454Y7647985D01*
X40304071Y7642874D01*
X40310744Y7639251D01*
X40310748Y7639248D01*
X40441720Y7568137D01*
X40448393Y7564514D01*
X40607241Y7522841D01*
X40692283Y7521505D01*
X40763845Y7520380D01*
X40763848Y7520380D01*
X40771443Y7520261D01*
X40931522Y7556924D01*
X41078234Y7630712D01*
X41203110Y7737367D01*
X41298941Y7870730D01*
X41357093Y8015388D01*
X41401059Y8071133D01*
X41468184Y8094258D01*
X41537156Y8077421D01*
X41586076Y8025969D01*
X41600000Y7968392D01*
X41600000Y4217875D01*
X41579998Y4149754D01*
X41563095Y4128780D01*
X37871220Y436905D01*
X37808908Y402879D01*
X37782125Y400000D01*
X36646668Y400000D01*
X36578547Y420002D01*
X36532054Y473658D01*
X36521950Y543932D01*
X36551444Y608512D01*
X36574588Y628878D01*
X36578234Y630712D01*
X36592474Y642874D01*
X36697338Y732437D01*
X36697339Y732438D01*
X36703110Y737367D01*
X36798941Y870730D01*
X36860194Y1023102D01*
X36880320Y1164514D01*
X36882752Y1181602D01*
X36882752Y1181606D01*
X36883333Y1185686D01*
X36883483Y1200000D01*
X36880180Y1227300D01*
X36875425Y1266593D01*
X36863754Y1363034D01*
X36805705Y1516655D01*
X36797085Y1529197D01*
X36716990Y1645736D01*
X36716989Y1645737D01*
X36712688Y1651995D01*
X36633400Y1722639D01*
X36595744Y1756190D01*
X36595740Y1756193D01*
X36590073Y1761242D01*
X36444938Y1838086D01*
X36285663Y1878094D01*
X36278065Y1878134D01*
X36278063Y1878134D01*
X36207307Y1878504D01*
X36121442Y1878953D01*
X36114063Y1877181D01*
X36114059Y1877181D01*
X36013654Y1853075D01*
X35961757Y1840616D01*
X35815826Y1765296D01*
X35810106Y1760306D01*
X35810103Y1760304D01*
X35697798Y1662334D01*
X35697795Y1662331D01*
X35692073Y1657339D01*
X35683687Y1645407D01*
X35628157Y1566395D01*
X35597644Y1522980D01*
X35537990Y1369975D01*
X35536999Y1362448D01*
X35517545Y1214688D01*
X35517545Y1214684D01*
X35516554Y1207157D01*
X35534575Y1043926D01*
X35537184Y1036795D01*
X35537185Y1036793D01*
X35544775Y1016052D01*
X35591012Y889705D01*
X35595249Y883399D01*
X35595251Y883396D01*
X35607906Y864564D01*
X35682607Y753398D01*
X35688225Y748286D01*
X35798450Y647988D01*
X35798454Y647985D01*
X35804071Y642874D01*
X35810748Y639249D01*
X35810749Y639248D01*
X35815385Y636731D01*
X35865707Y586648D01*
X35880963Y517310D01*
X35856311Y450731D01*
X35799576Y408049D01*
X35755263Y400000D01*
X4217875Y400000D01*
X4149754Y420002D01*
X4128780Y436905D01*
X436905Y4128780D01*
X402879Y4191092D01*
X400000Y4217875D01*
X400000Y17232601D01*
X749712Y17232601D01*
X771194Y17143463D01*
X775083Y17132168D01*
X857629Y16950618D01*
X863576Y16940276D01*
X978968Y16777603D01*
X986761Y16768575D01*
X1130831Y16630658D01*
X1140196Y16623262D01*
X1283564Y16530690D01*
X1329942Y16476934D01*
X1339895Y16406639D01*
X1310263Y16342122D01*
X1276303Y16314637D01*
X1263677Y16307638D01*
X1112744Y16178273D01*
X1108837Y16173236D01*
X1108835Y16173234D01*
X994818Y16026244D01*
X994816Y16026241D01*
X990906Y16021200D01*
X988088Y16015474D01*
X988086Y16015470D01*
X912903Y15862678D01*
X903140Y15842837D01*
X853032Y15650469D01*
X850387Y15600000D01*
X844344Y15484692D01*
X842628Y15451954D01*
X872354Y15255402D01*
X940995Y15068842D01*
X944353Y15063426D01*
X944355Y15063422D01*
X1042384Y14905317D01*
X1042387Y14905313D01*
X1045747Y14899894D01*
X1050133Y14895256D01*
X1175832Y14762334D01*
X1182331Y14755461D01*
X1187561Y14751799D01*
X1187562Y14751798D01*
X1213712Y14733488D01*
X1345168Y14641441D01*
X1351028Y14638905D01*
X1351030Y14638904D01*
X1402581Y14616596D01*
X1457156Y14571185D01*
X1478516Y14503478D01*
X1459880Y14434971D01*
X1413627Y14390757D01*
X1370146Y14366655D01*
X1263677Y14307638D01*
X1258829Y14303482D01*
X1258828Y14303482D01*
X1254307Y14299607D01*
X1112744Y14178273D01*
X1108837Y14173236D01*
X1108835Y14173234D01*
X994818Y14026244D01*
X994816Y14026241D01*
X990906Y14021200D01*
X988088Y14015474D01*
X988086Y14015470D01*
X937839Y13913355D01*
X903140Y13842837D01*
X853032Y13650469D01*
X850048Y13593531D01*
X844394Y13485643D01*
X842628Y13451954D01*
X872354Y13255402D01*
X940995Y13068842D01*
X944353Y13063426D01*
X944355Y13063422D01*
X1042384Y12905317D01*
X1042387Y12905313D01*
X1045747Y12899894D01*
X1055232Y12889864D01*
X1160639Y12778400D01*
X1182331Y12755461D01*
X1297764Y12674634D01*
X1306053Y12668830D01*
X1350381Y12613373D01*
X1357690Y12542754D01*
X1325659Y12479393D01*
X1268936Y12444620D01*
X1262477Y12442743D01*
X1223409Y12431393D01*
X1216587Y12427358D01*
X1216586Y12427358D01*
X1097203Y12356755D01*
X1086726Y12350559D01*
X974441Y12238274D01*
X893607Y12101591D01*
X891396Y12093979D01*
X891395Y12093978D01*
X878179Y12048488D01*
X849304Y11949100D01*
X848799Y11942681D01*
X846693Y11915929D01*
X846692Y11915916D01*
X846500Y11913470D01*
X846500Y11086530D01*
X846692Y11084084D01*
X846693Y11084071D01*
X847986Y11067642D01*
X849304Y11050900D01*
X851101Y11044715D01*
X890079Y10910554D01*
X893607Y10898409D01*
X897642Y10891587D01*
X897642Y10891586D01*
X959717Y10786623D01*
X974441Y10761726D01*
X1086726Y10649441D01*
X1223409Y10568607D01*
X1231021Y10566396D01*
X1231022Y10566395D01*
X1313951Y10542302D01*
X1375900Y10524304D01*
X1388656Y10523300D01*
X1409071Y10521693D01*
X1409084Y10521692D01*
X1411530Y10521500D01*
X2788470Y10521500D01*
X2790916Y10521692D01*
X2790929Y10521693D01*
X2811344Y10523300D01*
X2824100Y10524304D01*
X2886049Y10542302D01*
X2968978Y10566395D01*
X2968979Y10566396D01*
X2976591Y10568607D01*
X3113274Y10649441D01*
X3225559Y10761726D01*
X3240283Y10786623D01*
X3302358Y10891586D01*
X3302358Y10891587D01*
X3306393Y10898409D01*
X3309922Y10910554D01*
X3348899Y11044715D01*
X3350696Y11050900D01*
X3352014Y11067642D01*
X3353307Y11084071D01*
X3353308Y11084084D01*
X3353500Y11086530D01*
X3353500Y11913470D01*
X3353308Y11915916D01*
X3353307Y11915929D01*
X3351201Y11942681D01*
X3350696Y11949100D01*
X3321821Y12048488D01*
X3308605Y12093978D01*
X3308604Y12093979D01*
X3306393Y12101591D01*
X3225559Y12238274D01*
X3113274Y12350559D01*
X3102797Y12356755D01*
X2983414Y12427358D01*
X2983413Y12427358D01*
X2976591Y12431393D01*
X2968979Y12433604D01*
X2968978Y12433605D01*
X2931948Y12444363D01*
X2892342Y12469657D01*
X6566554Y12469657D01*
X6573811Y12403926D01*
X6580322Y12344953D01*
X6584575Y12306426D01*
X6641012Y12152205D01*
X6732607Y12015898D01*
X6738225Y12010786D01*
X6848450Y11910488D01*
X6848454Y11910485D01*
X6854071Y11905374D01*
X6860744Y11901751D01*
X6860748Y11901748D01*
X6990464Y11831319D01*
X6998393Y11827014D01*
X7157241Y11785341D01*
X7259232Y11783739D01*
X7301484Y11775735D01*
X7309491Y11772734D01*
X7318799Y11768812D01*
X7358861Y11750002D01*
X7367729Y11748621D01*
X7373523Y11746850D01*
X7382058Y11744611D01*
X7387985Y11743308D01*
X7396392Y11740156D01*
X7402931Y11739670D01*
X7464099Y11706091D01*
X7497984Y11643702D01*
X7492760Y11572898D01*
X7463899Y11528101D01*
X7289009Y11353211D01*
X7226697Y11319185D01*
X7199257Y11316308D01*
X7189101Y11316361D01*
X7171442Y11316453D01*
X7164062Y11314681D01*
X7164060Y11314681D01*
X7086403Y11296037D01*
X7011757Y11278116D01*
X6865826Y11202796D01*
X6860106Y11197806D01*
X6860103Y11197804D01*
X6747798Y11099834D01*
X6747795Y11099831D01*
X6742073Y11094839D01*
X6719613Y11062881D01*
X6652254Y10967039D01*
X6647644Y10960480D01*
X6587990Y10807475D01*
X6586999Y10799948D01*
X6567545Y10652188D01*
X6567545Y10652184D01*
X6566554Y10644657D01*
X6573210Y10584371D01*
X6583034Y10495386D01*
X6584575Y10481426D01*
X6587184Y10474295D01*
X6587185Y10474293D01*
X6594065Y10455494D01*
X6641012Y10327205D01*
X6645249Y10320899D01*
X6645251Y10320896D01*
X6676628Y10274203D01*
X6732607Y10190898D01*
X6738225Y10185786D01*
X6848450Y10085488D01*
X6848454Y10085485D01*
X6854071Y10080374D01*
X6860744Y10076751D01*
X6860748Y10076748D01*
X6991396Y10005813D01*
X6998393Y10002014D01*
X7157241Y9960341D01*
X7242283Y9959005D01*
X7313845Y9957880D01*
X7313848Y9957880D01*
X7321443Y9957761D01*
X7481522Y9994424D01*
X7628234Y10068212D01*
X7753110Y10174867D01*
X7848941Y10308230D01*
X7852839Y10317925D01*
X7907360Y10453552D01*
X7907360Y10453553D01*
X7910194Y10460602D01*
X7930886Y10605991D01*
X7960285Y10670612D01*
X7966533Y10677331D01*
X8437497Y11148295D01*
X8499809Y11182321D01*
X8526592Y11185200D01*
X8713263Y11185200D01*
X8781384Y11165198D01*
X8827877Y11111542D01*
X8837981Y11041268D01*
X8830657Y11013432D01*
X8778390Y10879375D01*
X8777399Y10871848D01*
X8757945Y10724088D01*
X8757945Y10724084D01*
X8756954Y10716557D01*
X8764192Y10650995D01*
X8771548Y10584371D01*
X8774975Y10553326D01*
X8776449Y10549298D01*
X8772609Y10479816D01*
X8728607Y10420736D01*
X8726121Y10419216D01*
X8672465Y10372723D01*
X8669926Y10369923D01*
X8669923Y10369920D01*
X8625470Y10320896D01*
X8611544Y10305538D01*
X8557313Y10193543D01*
X8550382Y10169937D01*
X8538782Y10130431D01*
X8537311Y10125422D01*
X8536671Y10120974D01*
X8536670Y10120967D01*
X8522639Y10023376D01*
X8522639Y10023369D01*
X8522000Y10018928D01*
X8522000Y6651435D01*
X8526654Y6592301D01*
X8532821Y6553365D01*
X8533398Y6550963D01*
X8533399Y6550957D01*
X8543327Y6509614D01*
X8538625Y6508485D01*
X8538669Y6508366D01*
X8542906Y6509501D01*
X8633150Y6172709D01*
X8635892Y6159809D01*
X8686304Y5841521D01*
X8687682Y5828404D01*
X8704546Y5506594D01*
X8704546Y5493406D01*
X8687682Y5171598D01*
X8686304Y5158482D01*
X8664561Y5021200D01*
X8635891Y4840190D01*
X8633149Y4827290D01*
X8542906Y4490499D01*
X8538906Y4491571D01*
X8538875Y4491455D01*
X8543327Y4490386D01*
X8532821Y4446635D01*
X8526654Y4407699D01*
X8522000Y4348565D01*
X8522000Y2226000D01*
X8530638Y2145652D01*
X8531356Y2142352D01*
X8531356Y2142351D01*
X8536326Y2119506D01*
X8542024Y2093310D01*
X8560816Y2032292D01*
X8564927Y2025567D01*
X8621685Y1932710D01*
X8625712Y1926121D01*
X8672205Y1872465D01*
X8675005Y1869926D01*
X8675008Y1869923D01*
X8708080Y1839935D01*
X8739390Y1811544D01*
X8851385Y1757313D01*
X8888799Y1746327D01*
X8915183Y1738580D01*
X8915187Y1738579D01*
X8919506Y1737311D01*
X8923954Y1736671D01*
X8923961Y1736670D01*
X9021552Y1722639D01*
X9021559Y1722639D01*
X9026000Y1722000D01*
X9341001Y1722000D01*
X9344347Y1722360D01*
X9344352Y1722360D01*
X9417985Y1730276D01*
X9417991Y1730277D01*
X9421349Y1730638D01*
X9424650Y1731356D01*
X9471109Y1741462D01*
X9471116Y1741464D01*
X9473691Y1742024D01*
X9534709Y1760816D01*
X9541431Y1764925D01*
X9541436Y1764927D01*
X9568566Y1781511D01*
X9637120Y1799973D01*
X9704773Y1778441D01*
X9723566Y1760851D01*
X9724441Y1761726D01*
X9836726Y1649441D01*
X9843547Y1645407D01*
X9868546Y1630623D01*
X9973409Y1568607D01*
X9981021Y1566396D01*
X9981022Y1566395D01*
X10080700Y1537436D01*
X10125900Y1524304D01*
X10138656Y1523300D01*
X10159071Y1521693D01*
X10159084Y1521692D01*
X10161530Y1521500D01*
X11538470Y1521500D01*
X11540916Y1521692D01*
X11540929Y1521693D01*
X11561344Y1523300D01*
X11574100Y1524304D01*
X11619300Y1537436D01*
X11718978Y1566395D01*
X11718979Y1566396D01*
X11726591Y1568607D01*
X11831455Y1630623D01*
X11856453Y1645407D01*
X11863274Y1649441D01*
X11975559Y1761726D01*
X11977565Y1759720D01*
X12024173Y1793368D01*
X12095066Y1797207D01*
X12121066Y1787974D01*
X12184385Y1757313D01*
X12221799Y1746327D01*
X12248183Y1738580D01*
X12248187Y1738579D01*
X12252506Y1737311D01*
X12256954Y1736671D01*
X12256961Y1736670D01*
X12354552Y1722639D01*
X12354559Y1722639D01*
X12359000Y1722000D01*
X14174000Y1722000D01*
X14177346Y1722360D01*
X14177351Y1722360D01*
X14250984Y1730276D01*
X14250990Y1730277D01*
X14254348Y1730638D01*
X14257649Y1731356D01*
X14304108Y1741462D01*
X14304115Y1741464D01*
X14306690Y1742024D01*
X14367708Y1760816D01*
X14443523Y1807157D01*
X14469428Y1822991D01*
X14469431Y1822993D01*
X14473879Y1825712D01*
X14527535Y1872205D01*
X14530363Y1875323D01*
X14582399Y1932710D01*
X14582400Y1932711D01*
X14588456Y1939390D01*
X14642687Y2051385D01*
X14655755Y2095892D01*
X14661420Y2115183D01*
X14661421Y2115187D01*
X14662689Y2119506D01*
X14663330Y2123961D01*
X14677361Y2221552D01*
X14677361Y2221559D01*
X14678000Y2226000D01*
X14678000Y4451954D01*
X15792628Y4451954D01*
X15822354Y4255402D01*
X15890995Y4068842D01*
X15894353Y4063426D01*
X15894355Y4063422D01*
X15992384Y3905317D01*
X15992387Y3905313D01*
X15995747Y3899894D01*
X16000133Y3895256D01*
X16074950Y3816140D01*
X16132331Y3755461D01*
X16252721Y3671163D01*
X16256053Y3668830D01*
X16300381Y3613373D01*
X16307690Y3542754D01*
X16275659Y3479393D01*
X16218936Y3444620D01*
X16212477Y3442743D01*
X16173409Y3431393D01*
X16036726Y3350559D01*
X15924441Y3238274D01*
X15843607Y3101591D01*
X15799304Y2949100D01*
X15798799Y2942681D01*
X15796693Y2915929D01*
X15796692Y2915916D01*
X15796500Y2913470D01*
X15796500Y2086530D01*
X15796692Y2084084D01*
X15796693Y2084071D01*
X15798300Y2063656D01*
X15799304Y2050900D01*
X15804710Y2032292D01*
X15833642Y1932710D01*
X15843607Y1898409D01*
X15847642Y1891587D01*
X15847642Y1891586D01*
X15884580Y1829127D01*
X15924441Y1761726D01*
X16036726Y1649441D01*
X16043547Y1645407D01*
X16068546Y1630623D01*
X16173409Y1568607D01*
X16181021Y1566396D01*
X16181022Y1566395D01*
X16280700Y1537436D01*
X16325900Y1524304D01*
X16338656Y1523300D01*
X16359071Y1521693D01*
X16359084Y1521692D01*
X16361530Y1521500D01*
X17738470Y1521500D01*
X17740916Y1521692D01*
X17740929Y1521693D01*
X17761344Y1523300D01*
X17774100Y1524304D01*
X17819300Y1537436D01*
X17918978Y1566395D01*
X17918979Y1566396D01*
X17926591Y1568607D01*
X18031455Y1630623D01*
X18056453Y1645407D01*
X18063274Y1649441D01*
X18175559Y1761726D01*
X18215420Y1829127D01*
X18252358Y1891586D01*
X18252358Y1891587D01*
X18256393Y1898409D01*
X18266359Y1932710D01*
X18295290Y2032292D01*
X18300696Y2050900D01*
X18301700Y2063656D01*
X18303307Y2084071D01*
X18303308Y2084084D01*
X18303500Y2086530D01*
X18303500Y2913470D01*
X18303308Y2915916D01*
X18303307Y2915929D01*
X18301201Y2942681D01*
X18300696Y2949100D01*
X18256393Y3101591D01*
X18175559Y3238274D01*
X18063274Y3350559D01*
X17926591Y3431393D01*
X17918979Y3433604D01*
X17918978Y3433605D01*
X17881948Y3444363D01*
X17822113Y3482576D01*
X17792435Y3547072D01*
X17802338Y3617375D01*
X17848678Y3671163D01*
X17856015Y3675562D01*
X17857992Y3676658D01*
X17886323Y3692362D01*
X18037256Y3821727D01*
X18041165Y3826766D01*
X18155182Y3973756D01*
X18155184Y3973759D01*
X18159094Y3978800D01*
X18200734Y4063422D01*
X18244041Y4151434D01*
X18246860Y4157163D01*
X18296968Y4349531D01*
X18302336Y4451954D01*
X21992628Y4451954D01*
X22022354Y4255402D01*
X22090995Y4068842D01*
X22094353Y4063426D01*
X22094355Y4063422D01*
X22192384Y3905317D01*
X22192387Y3905313D01*
X22195747Y3899894D01*
X22200133Y3895256D01*
X22274950Y3816140D01*
X22332331Y3755461D01*
X22452721Y3671163D01*
X22456053Y3668830D01*
X22500381Y3613373D01*
X22507690Y3542754D01*
X22475659Y3479393D01*
X22418936Y3444620D01*
X22412477Y3442743D01*
X22373409Y3431393D01*
X22236726Y3350559D01*
X22124441Y3238274D01*
X22043607Y3101591D01*
X21999304Y2949100D01*
X21998799Y2942681D01*
X21996693Y2915929D01*
X21996692Y2915916D01*
X21996500Y2913470D01*
X21996500Y2086530D01*
X21996692Y2084084D01*
X21996693Y2084071D01*
X21998300Y2063656D01*
X21999304Y2050900D01*
X22004710Y2032292D01*
X22033642Y1932710D01*
X22043607Y1898409D01*
X22047642Y1891587D01*
X22047642Y1891586D01*
X22084580Y1829127D01*
X22124441Y1761726D01*
X22236726Y1649441D01*
X22243547Y1645407D01*
X22268546Y1630623D01*
X22373409Y1568607D01*
X22381021Y1566396D01*
X22381022Y1566395D01*
X22480700Y1537436D01*
X22525900Y1524304D01*
X22538656Y1523300D01*
X22559071Y1521693D01*
X22559084Y1521692D01*
X22561530Y1521500D01*
X23938470Y1521500D01*
X23940916Y1521692D01*
X23940929Y1521693D01*
X23961344Y1523300D01*
X23974100Y1524304D01*
X24019300Y1537436D01*
X24118978Y1566395D01*
X24118979Y1566396D01*
X24126591Y1568607D01*
X24231455Y1630623D01*
X24256453Y1645407D01*
X24263274Y1649441D01*
X24375559Y1761726D01*
X24402427Y1807157D01*
X32616554Y1807157D01*
X32621231Y1764794D01*
X32632543Y1662334D01*
X32634575Y1643926D01*
X32637184Y1636795D01*
X32637185Y1636793D01*
X32644775Y1616052D01*
X32691012Y1489705D01*
X32695249Y1483399D01*
X32695251Y1483396D01*
X32707906Y1464564D01*
X32782607Y1353398D01*
X32788225Y1348286D01*
X32898450Y1247988D01*
X32898454Y1247985D01*
X32904071Y1242874D01*
X32910744Y1239251D01*
X32910748Y1239248D01*
X33041720Y1168137D01*
X33048393Y1164514D01*
X33207241Y1122841D01*
X33292283Y1121505D01*
X33363845Y1120380D01*
X33363848Y1120380D01*
X33371443Y1120261D01*
X33531522Y1156924D01*
X33678234Y1230712D01*
X33803110Y1337367D01*
X33898941Y1470730D01*
X33914548Y1509552D01*
X33957360Y1616052D01*
X33957360Y1616053D01*
X33960194Y1623102D01*
X33979295Y1757313D01*
X33982752Y1781602D01*
X33982752Y1781606D01*
X33983333Y1785686D01*
X33983483Y1800000D01*
X33978651Y1839935D01*
X33975045Y1869729D01*
X33963754Y1963034D01*
X33905705Y2116655D01*
X33830554Y2226000D01*
X33816990Y2245736D01*
X33816989Y2245737D01*
X33812688Y2251995D01*
X33738517Y2318080D01*
X33695744Y2356190D01*
X33695740Y2356193D01*
X33690073Y2361242D01*
X33544938Y2438086D01*
X33385663Y2478094D01*
X33378065Y2478134D01*
X33378063Y2478134D01*
X33307307Y2478504D01*
X33221442Y2478953D01*
X33214063Y2477181D01*
X33214059Y2477181D01*
X33123649Y2455475D01*
X33061757Y2440616D01*
X32915826Y2365296D01*
X32910106Y2360306D01*
X32910103Y2360304D01*
X32797798Y2262334D01*
X32797795Y2262331D01*
X32792073Y2257339D01*
X32697644Y2122980D01*
X32637990Y1969975D01*
X32636999Y1962448D01*
X32617545Y1814688D01*
X32617545Y1814684D01*
X32616554Y1807157D01*
X24402427Y1807157D01*
X24415420Y1829127D01*
X24452358Y1891586D01*
X24452358Y1891587D01*
X24456393Y1898409D01*
X24466359Y1932710D01*
X24495290Y2032292D01*
X24500696Y2050900D01*
X24501700Y2063656D01*
X24503307Y2084071D01*
X24503308Y2084084D01*
X24503500Y2086530D01*
X24503500Y2913470D01*
X24503308Y2915916D01*
X24503307Y2915929D01*
X24501201Y2942681D01*
X24500696Y2949100D01*
X24456393Y3101591D01*
X24375559Y3238274D01*
X24263274Y3350559D01*
X24126591Y3431393D01*
X24118979Y3433604D01*
X24118978Y3433605D01*
X24081948Y3444363D01*
X24022113Y3482576D01*
X23992435Y3547072D01*
X24002338Y3617375D01*
X24048678Y3671163D01*
X24056015Y3675562D01*
X24057992Y3676658D01*
X24086323Y3692362D01*
X24237256Y3821727D01*
X24241165Y3826766D01*
X24355182Y3973756D01*
X24355184Y3973759D01*
X24359094Y3978800D01*
X24400734Y4063422D01*
X24444041Y4151434D01*
X24446860Y4157163D01*
X24496968Y4349531D01*
X24507372Y4548046D01*
X24477646Y4744598D01*
X24444061Y4835878D01*
X27321500Y4835878D01*
X27321500Y2664122D01*
X27322170Y2659573D01*
X27322170Y2659568D01*
X27323259Y2652173D01*
X27332451Y2589730D01*
X27387986Y2476620D01*
X27395356Y2469263D01*
X27449285Y2415428D01*
X27477165Y2387596D01*
X27532998Y2360304D01*
X27581152Y2336766D01*
X27590372Y2332259D01*
X27600047Y2330848D01*
X27600049Y2330847D01*
X27659596Y2322160D01*
X27659600Y2322160D01*
X27664122Y2321500D01*
X29835878Y2321500D01*
X29840427Y2322170D01*
X29840432Y2322170D01*
X29900585Y2331025D01*
X29900587Y2331026D01*
X29910270Y2332451D01*
X29940453Y2347270D01*
X29976144Y2364794D01*
X30023380Y2387986D01*
X30090752Y2455475D01*
X30105048Y2469796D01*
X30105048Y2469797D01*
X30112404Y2477165D01*
X30167741Y2590372D01*
X30168935Y2598553D01*
X30207702Y2657040D01*
X30272693Y2685617D01*
X30342817Y2674520D01*
X30369344Y2657602D01*
X30451097Y2589730D01*
X30467838Y2575831D01*
X30472290Y2573229D01*
X30472295Y2573226D01*
X30569386Y2516491D01*
X30670650Y2457317D01*
X30890095Y2373519D01*
X30895163Y2372488D01*
X30895166Y2372487D01*
X30955048Y2360304D01*
X31120280Y2326687D01*
X31125453Y2326497D01*
X31125456Y2326497D01*
X31349859Y2318269D01*
X31349863Y2318269D01*
X31355023Y2318080D01*
X31360143Y2318736D01*
X31360145Y2318736D01*
X31454687Y2330847D01*
X31588020Y2347927D01*
X31592969Y2349412D01*
X31592975Y2349413D01*
X31808063Y2413943D01*
X31808062Y2413943D01*
X31813013Y2415428D01*
X31939034Y2477165D01*
X32019309Y2516491D01*
X32019314Y2516494D01*
X32023960Y2518770D01*
X32028170Y2521773D01*
X32028175Y2521776D01*
X32210984Y2652173D01*
X32210989Y2652177D01*
X32215196Y2655178D01*
X32381586Y2820988D01*
X32446266Y2910999D01*
X32515642Y3007545D01*
X32515646Y3007551D01*
X32518660Y3011746D01*
X32622738Y3222332D01*
X32691024Y3447088D01*
X32691699Y3452214D01*
X32721248Y3676658D01*
X32721248Y3676662D01*
X32721685Y3679979D01*
X32723396Y3750000D01*
X32704149Y3984111D01*
X32646923Y4211934D01*
X32584320Y4355911D01*
X32555317Y4422615D01*
X32555315Y4422618D01*
X32553257Y4427352D01*
X32425665Y4624580D01*
X32311004Y4750591D01*
X32271052Y4794497D01*
X32271050Y4794498D01*
X32267574Y4798319D01*
X32263523Y4801518D01*
X32263519Y4801522D01*
X32087284Y4940704D01*
X32087280Y4940706D01*
X32083229Y4943906D01*
X31877582Y5057429D01*
X31872713Y5059153D01*
X31872709Y5059155D01*
X31661030Y5134115D01*
X31661026Y5134116D01*
X31656155Y5135841D01*
X31651062Y5136748D01*
X31651059Y5136749D01*
X31429983Y5176129D01*
X31429977Y5176130D01*
X31424894Y5177035D01*
X31352445Y5177920D01*
X31195181Y5179841D01*
X31195179Y5179841D01*
X31190011Y5179904D01*
X30957813Y5144373D01*
X30734537Y5071395D01*
X30729949Y5069007D01*
X30729945Y5069005D01*
X30530766Y4965319D01*
X30526177Y4962930D01*
X30522044Y4959827D01*
X30522041Y4959825D01*
X30448176Y4904365D01*
X30363776Y4840996D01*
X30297293Y4816090D01*
X30227897Y4831082D01*
X30177623Y4881212D01*
X30168747Y4902133D01*
X30167549Y4910270D01*
X30160233Y4925172D01*
X30116604Y5014031D01*
X30112014Y5023380D01*
X30040587Y5094683D01*
X30030204Y5105048D01*
X30030203Y5105048D01*
X30022835Y5112404D01*
X29928572Y5158481D01*
X29918413Y5163447D01*
X29918412Y5163447D01*
X29909628Y5167741D01*
X29899953Y5169152D01*
X29899951Y5169153D01*
X29840404Y5177840D01*
X29840400Y5177840D01*
X29835878Y5178500D01*
X27664122Y5178500D01*
X27659573Y5177830D01*
X27659568Y5177830D01*
X27599415Y5168975D01*
X27599413Y5168974D01*
X27589730Y5167549D01*
X27580942Y5163234D01*
X27580941Y5163234D01*
X27544119Y5145155D01*
X27476620Y5112014D01*
X27387596Y5022835D01*
X27358314Y4962930D01*
X27349015Y4943906D01*
X27332259Y4909628D01*
X27330848Y4899953D01*
X27330847Y4899951D01*
X27322247Y4840996D01*
X27321500Y4835878D01*
X24444061Y4835878D01*
X24409005Y4931158D01*
X24405647Y4936574D01*
X24405645Y4936578D01*
X24307616Y5094683D01*
X24307613Y5094687D01*
X24304253Y5100106D01*
X24249050Y5158481D01*
X24172058Y5239898D01*
X24172057Y5239899D01*
X24167669Y5244539D01*
X24004832Y5358559D01*
X23822395Y5437507D01*
X23627809Y5478158D01*
X23622967Y5478412D01*
X23622962Y5478412D01*
X23621283Y5478500D01*
X22925324Y5478500D01*
X22851826Y5471034D01*
X22783580Y5464102D01*
X22783579Y5464102D01*
X22777231Y5463457D01*
X22587540Y5404012D01*
X22413677Y5307638D01*
X22262744Y5178273D01*
X22258837Y5173236D01*
X22258835Y5173234D01*
X22144818Y5026244D01*
X22144816Y5026241D01*
X22140906Y5021200D01*
X22138088Y5015474D01*
X22138086Y5015470D01*
X22093654Y4925172D01*
X22053140Y4842837D01*
X22003032Y4650469D01*
X21992628Y4451954D01*
X18302336Y4451954D01*
X18307372Y4548046D01*
X18277646Y4744598D01*
X18209005Y4931158D01*
X18205647Y4936574D01*
X18205645Y4936578D01*
X18107616Y5094683D01*
X18107613Y5094687D01*
X18104253Y5100106D01*
X18049050Y5158481D01*
X17972058Y5239898D01*
X17972057Y5239899D01*
X17967669Y5244539D01*
X17804832Y5358559D01*
X17622395Y5437507D01*
X17427809Y5478158D01*
X17422967Y5478412D01*
X17422962Y5478412D01*
X17421283Y5478500D01*
X16725324Y5478500D01*
X16651826Y5471034D01*
X16583580Y5464102D01*
X16583579Y5464102D01*
X16577231Y5463457D01*
X16387540Y5404012D01*
X16213677Y5307638D01*
X16062744Y5178273D01*
X16058837Y5173236D01*
X16058835Y5173234D01*
X15944818Y5026244D01*
X15944816Y5026241D01*
X15940906Y5021200D01*
X15938088Y5015474D01*
X15938086Y5015470D01*
X15893654Y4925172D01*
X15853140Y4842837D01*
X15803032Y4650469D01*
X15792628Y4451954D01*
X14678000Y4451954D01*
X14678000Y6407157D01*
X31416554Y6407157D01*
X31434575Y6243926D01*
X31437184Y6236795D01*
X31437185Y6236793D01*
X31444775Y6216052D01*
X31491012Y6089705D01*
X31495249Y6083399D01*
X31495251Y6083396D01*
X31507906Y6064564D01*
X31582607Y5953398D01*
X31588225Y5948286D01*
X31698450Y5847988D01*
X31698454Y5847985D01*
X31704071Y5842874D01*
X31710744Y5839251D01*
X31710748Y5839248D01*
X31841720Y5768137D01*
X31848393Y5764514D01*
X32007241Y5722841D01*
X32092283Y5721505D01*
X32163845Y5720380D01*
X32163848Y5720380D01*
X32171443Y5720261D01*
X32331522Y5756924D01*
X32478234Y5830712D01*
X32603110Y5937367D01*
X32698941Y6070730D01*
X32734751Y6159809D01*
X32757360Y6216052D01*
X32757360Y6216053D01*
X32760194Y6223102D01*
X32783333Y6385686D01*
X32783483Y6400000D01*
X32763754Y6563034D01*
X32705705Y6716655D01*
X32612688Y6851995D01*
X32601084Y6862334D01*
X32495744Y6956190D01*
X32495740Y6956193D01*
X32490073Y6961242D01*
X32344938Y7038086D01*
X32185663Y7078094D01*
X32178065Y7078134D01*
X32178063Y7078134D01*
X32107307Y7078504D01*
X32021442Y7078953D01*
X32014063Y7077181D01*
X32014059Y7077181D01*
X31913654Y7053075D01*
X31861757Y7040616D01*
X31715826Y6965296D01*
X31710106Y6960306D01*
X31710103Y6960304D01*
X31597798Y6862334D01*
X31597795Y6862331D01*
X31592073Y6857339D01*
X31497644Y6722980D01*
X31437990Y6569975D01*
X31436999Y6562448D01*
X31417545Y6414688D01*
X31417545Y6414684D01*
X31416554Y6407157D01*
X14678000Y6407157D01*
X14678000Y10516857D01*
X16589654Y10516857D01*
X16595206Y10466568D01*
X16606767Y10361853D01*
X16607675Y10353626D01*
X16610284Y10346495D01*
X16610285Y10346493D01*
X16625858Y10303938D01*
X16664112Y10199405D01*
X16668349Y10193099D01*
X16668351Y10193096D01*
X16703870Y10140239D01*
X16755707Y10063098D01*
X16761325Y10057986D01*
X16871550Y9957688D01*
X16871554Y9957685D01*
X16877171Y9952574D01*
X16883844Y9948951D01*
X16883848Y9948948D01*
X17014820Y9877837D01*
X17021493Y9874214D01*
X17180341Y9832541D01*
X17265383Y9831205D01*
X17336945Y9830080D01*
X17336948Y9830080D01*
X17344543Y9829961D01*
X17504622Y9866624D01*
X17651334Y9940412D01*
X17657105Y9945341D01*
X17657108Y9945343D01*
X17681505Y9966181D01*
X17746295Y9995213D01*
X17816495Y9984609D01*
X17869818Y9937735D01*
X17889334Y9869473D01*
X17887193Y9852980D01*
X17887990Y9852875D01*
X17867545Y9697588D01*
X17867545Y9697584D01*
X17866554Y9690057D01*
X17873967Y9622909D01*
X17883475Y9536793D01*
X17884575Y9526826D01*
X17887184Y9519695D01*
X17887185Y9519693D01*
X17894775Y9498952D01*
X17941012Y9372605D01*
X17945249Y9366299D01*
X17945251Y9366296D01*
X17974716Y9322448D01*
X18032607Y9236298D01*
X18038225Y9231186D01*
X18148450Y9130888D01*
X18148454Y9130885D01*
X18154071Y9125774D01*
X18160744Y9122151D01*
X18160748Y9122148D01*
X18283999Y9055229D01*
X18298393Y9047414D01*
X18457241Y9005741D01*
X18542283Y9004405D01*
X18613845Y9003280D01*
X18613848Y9003280D01*
X18621443Y9003161D01*
X18781522Y9039824D01*
X18928234Y9113612D01*
X18990926Y9167157D01*
X20906254Y9167157D01*
X20912542Y9110200D01*
X20923368Y9012145D01*
X20924275Y9003926D01*
X20926884Y8996795D01*
X20926885Y8996793D01*
X20933843Y8977779D01*
X20980712Y8849705D01*
X20984949Y8843399D01*
X20984951Y8843396D01*
X20997606Y8824564D01*
X21072307Y8713398D01*
X21077925Y8708286D01*
X21188150Y8607988D01*
X21188154Y8607985D01*
X21193771Y8602874D01*
X21200444Y8599251D01*
X21200448Y8599248D01*
X21329468Y8529197D01*
X21338093Y8524514D01*
X21496941Y8482841D01*
X21581983Y8481505D01*
X21653545Y8480380D01*
X21653548Y8480380D01*
X21661143Y8480261D01*
X21821222Y8516924D01*
X21967934Y8590712D01*
X22092810Y8697367D01*
X22188641Y8830730D01*
X22192342Y8839935D01*
X22247060Y8976052D01*
X22247060Y8976053D01*
X22249894Y8983102D01*
X22268468Y9113612D01*
X22272452Y9141602D01*
X22272452Y9141606D01*
X22273033Y9145686D01*
X22273183Y9160000D01*
X22271465Y9174203D01*
X22261118Y9259704D01*
X22253454Y9323034D01*
X22195405Y9476655D01*
X22102388Y9611995D01*
X22090059Y9622980D01*
X21985444Y9716190D01*
X21985440Y9716193D01*
X21979773Y9721242D01*
X21834638Y9798086D01*
X21675363Y9838094D01*
X21667765Y9838134D01*
X21667763Y9838134D01*
X21597007Y9838504D01*
X21511142Y9838953D01*
X21503763Y9837181D01*
X21503759Y9837181D01*
X21403354Y9813075D01*
X21351457Y9800616D01*
X21205526Y9725296D01*
X21199806Y9720306D01*
X21199803Y9720304D01*
X21087498Y9622334D01*
X21087495Y9622331D01*
X21081773Y9617339D01*
X21041761Y9560408D01*
X21030178Y9543926D01*
X20987344Y9482980D01*
X20927690Y9329975D01*
X20926699Y9322448D01*
X20907245Y9174688D01*
X20907245Y9174684D01*
X20906254Y9167157D01*
X18990926Y9167157D01*
X19033977Y9203926D01*
X19047338Y9215337D01*
X19047339Y9215338D01*
X19053110Y9220267D01*
X19148941Y9353630D01*
X19153337Y9364564D01*
X19207360Y9498952D01*
X19207360Y9498953D01*
X19210194Y9506002D01*
X19233333Y9668586D01*
X19233483Y9682900D01*
X19231913Y9695880D01*
X19219745Y9796423D01*
X19213754Y9845934D01*
X19155705Y9999555D01*
X19105129Y10073143D01*
X19066990Y10128636D01*
X19066989Y10128637D01*
X19062688Y10134895D01*
X19052552Y10143926D01*
X18945744Y10239090D01*
X18945740Y10239093D01*
X18940073Y10244142D01*
X18827159Y10303926D01*
X18821057Y10307157D01*
X24516554Y10307157D01*
X24523119Y10247694D01*
X24532543Y10162334D01*
X24534575Y10143926D01*
X24537184Y10136795D01*
X24537185Y10136793D01*
X24542977Y10120967D01*
X24591012Y9989705D01*
X24595249Y9983399D01*
X24595251Y9983396D01*
X24626428Y9937000D01*
X24671360Y9870136D01*
X24671933Y9869283D01*
X24693326Y9801586D01*
X24674722Y9733070D01*
X24670448Y9726570D01*
X24597644Y9622980D01*
X24537990Y9469975D01*
X24536999Y9462448D01*
X24517545Y9314688D01*
X24517545Y9314684D01*
X24516554Y9307157D01*
X24523681Y9242604D01*
X24532844Y9159607D01*
X24534575Y9143926D01*
X24537184Y9136795D01*
X24537185Y9136793D01*
X24543864Y9118543D01*
X24591012Y8989705D01*
X24595249Y8983399D01*
X24595251Y8983396D01*
X24607906Y8964564D01*
X24682607Y8853398D01*
X24688225Y8848286D01*
X24798450Y8747988D01*
X24798454Y8747985D01*
X24804071Y8742874D01*
X24810744Y8739251D01*
X24810748Y8739248D01*
X24941720Y8668137D01*
X24948393Y8664514D01*
X25107241Y8622841D01*
X25192283Y8621505D01*
X25263845Y8620380D01*
X25263848Y8620380D01*
X25271443Y8620261D01*
X25431522Y8656924D01*
X25453817Y8668137D01*
X25544428Y8713709D01*
X25614273Y8726447D01*
X25661164Y8711875D01*
X25741720Y8668137D01*
X25748393Y8664514D01*
X25907241Y8622841D01*
X25992283Y8621505D01*
X26063845Y8620380D01*
X26063848Y8620380D01*
X26071443Y8620261D01*
X26231522Y8656924D01*
X26378234Y8730712D01*
X26503110Y8837367D01*
X26598941Y8970730D01*
X26603915Y8983102D01*
X26657360Y9116052D01*
X26657360Y9116053D01*
X26660194Y9123102D01*
X26677202Y9242604D01*
X26682752Y9281602D01*
X26682752Y9281606D01*
X26683333Y9285686D01*
X26683483Y9300000D01*
X26663754Y9463034D01*
X26605705Y9616655D01*
X26528172Y9729465D01*
X26506073Y9796933D01*
X26523958Y9865640D01*
X26529690Y9874357D01*
X26532191Y9877837D01*
X26598941Y9970730D01*
X26604521Y9984609D01*
X26657360Y10116052D01*
X26657360Y10116053D01*
X26660194Y10123102D01*
X26675026Y10227318D01*
X26682752Y10281602D01*
X26682752Y10281606D01*
X26683333Y10285686D01*
X26683483Y10300000D01*
X26682160Y10310938D01*
X26664666Y10455494D01*
X26663754Y10463034D01*
X26605705Y10616655D01*
X26591379Y10637500D01*
X26516990Y10745736D01*
X26516989Y10745737D01*
X26512688Y10751995D01*
X26506690Y10757339D01*
X26395744Y10856190D01*
X26395740Y10856193D01*
X26390073Y10861242D01*
X26244938Y10938086D01*
X26085663Y10978094D01*
X26078065Y10978134D01*
X26078063Y10978134D01*
X26007307Y10978504D01*
X25921442Y10978953D01*
X25914063Y10977181D01*
X25914059Y10977181D01*
X25849557Y10961695D01*
X25761757Y10940616D01*
X25657440Y10886774D01*
X25587736Y10873306D01*
X25540696Y10887385D01*
X25444938Y10938086D01*
X25285663Y10978094D01*
X25278065Y10978134D01*
X25278063Y10978134D01*
X25207307Y10978504D01*
X25121442Y10978953D01*
X25114063Y10977181D01*
X25114059Y10977181D01*
X25049557Y10961695D01*
X24961757Y10940616D01*
X24815826Y10865296D01*
X24810106Y10860306D01*
X24810103Y10860304D01*
X24697798Y10762334D01*
X24697795Y10762331D01*
X24692073Y10757339D01*
X24668704Y10724088D01*
X24607573Y10637107D01*
X24597644Y10622980D01*
X24537990Y10469975D01*
X24536999Y10462448D01*
X24517545Y10314688D01*
X24517545Y10314684D01*
X24516554Y10307157D01*
X18821057Y10307157D01*
X18801647Y10317434D01*
X18801646Y10317434D01*
X18794938Y10320986D01*
X18635663Y10360994D01*
X18628065Y10361034D01*
X18628063Y10361034D01*
X18557307Y10361404D01*
X18471442Y10361853D01*
X18464063Y10360081D01*
X18464059Y10360081D01*
X18363654Y10335975D01*
X18311757Y10323516D01*
X18165826Y10248196D01*
X18160106Y10243206D01*
X18160103Y10243204D01*
X18141893Y10227318D01*
X18077411Y10197610D01*
X18007104Y10207480D01*
X17953293Y10253794D01*
X17933065Y10321847D01*
X17934321Y10340021D01*
X17935243Y10346493D01*
X17956433Y10495386D01*
X17956583Y10509700D01*
X17955731Y10516746D01*
X17944500Y10609552D01*
X17936854Y10672734D01*
X17878805Y10826355D01*
X17854828Y10861242D01*
X17790090Y10955436D01*
X17790089Y10955437D01*
X17785788Y10961695D01*
X17774184Y10972034D01*
X17668844Y11065890D01*
X17668840Y11065893D01*
X17663173Y11070942D01*
X17518038Y11147786D01*
X17358763Y11187794D01*
X17351165Y11187834D01*
X17351163Y11187834D01*
X17280407Y11188204D01*
X17194542Y11188653D01*
X17187163Y11186881D01*
X17187159Y11186881D01*
X17096845Y11165198D01*
X17034857Y11150316D01*
X16888926Y11074996D01*
X16883206Y11070006D01*
X16883203Y11070004D01*
X16770898Y10972034D01*
X16770895Y10972031D01*
X16765173Y10967039D01*
X16747849Y10942389D01*
X16683660Y10851057D01*
X16670744Y10832680D01*
X16611090Y10679675D01*
X16610099Y10672148D01*
X16590645Y10524388D01*
X16590645Y10524384D01*
X16589654Y10516857D01*
X14678000Y10516857D01*
X14678000Y11114944D01*
X14676042Y11153370D01*
X14673438Y11178853D01*
X14672510Y11185943D01*
X14671447Y11194055D01*
X14670654Y11200110D01*
X14638449Y11296037D01*
X14632710Y11313132D01*
X14632709Y11313134D01*
X14631051Y11318073D01*
X14628601Y11322675D01*
X14627951Y11324184D01*
X14619382Y11394661D01*
X14650277Y11458583D01*
X14672822Y11477990D01*
X14678234Y11480712D01*
X14690087Y11490835D01*
X14736083Y11530120D01*
X14766735Y11556299D01*
X14831524Y11585330D01*
X14901724Y11574725D01*
X14933362Y11553684D01*
X15011071Y11482974D01*
X15017744Y11479351D01*
X15017748Y11479348D01*
X15148720Y11408237D01*
X15155393Y11404614D01*
X15314241Y11362941D01*
X15399283Y11361605D01*
X15470845Y11360480D01*
X15470848Y11360480D01*
X15478443Y11360361D01*
X15638522Y11397024D01*
X15785234Y11470812D01*
X15910110Y11577467D01*
X16005941Y11710830D01*
X16029249Y11768809D01*
X16064360Y11856152D01*
X16064360Y11856153D01*
X16067194Y11863202D01*
X16090333Y12025786D01*
X16090483Y12040100D01*
X16070754Y12203134D01*
X16012705Y12356755D01*
X15985707Y12396037D01*
X15975466Y12410938D01*
X28416650Y12410938D01*
X28433694Y12237117D01*
X28488824Y12071390D01*
X28492471Y12065368D01*
X28492472Y12065366D01*
X28516443Y12025786D01*
X28578100Y11923978D01*
X28579300Y11921996D01*
X28578952Y11921785D01*
X28603139Y11859546D01*
X28588995Y11789973D01*
X28583508Y11780593D01*
X28498276Y11648339D01*
X28495867Y11641719D01*
X28495865Y11641716D01*
X28459771Y11542547D01*
X28438540Y11484216D01*
X28416650Y11310938D01*
X28433694Y11137117D01*
X28435918Y11130432D01*
X28435918Y11130431D01*
X28456805Y11067642D01*
X28488824Y10971390D01*
X28492471Y10965368D01*
X28492472Y10965366D01*
X28572830Y10832680D01*
X28579300Y10821996D01*
X28700625Y10696360D01*
X28739972Y10670612D01*
X28838727Y10605989D01*
X28846771Y10600725D01*
X28853375Y10598269D01*
X28853377Y10598268D01*
X28884894Y10586547D01*
X29010472Y10539845D01*
X29017457Y10538913D01*
X29176612Y10517677D01*
X29176616Y10517677D01*
X29183593Y10516746D01*
X29190604Y10517384D01*
X29190608Y10517384D01*
X29350512Y10531936D01*
X29350515Y10531937D01*
X29357530Y10532575D01*
X29413328Y10550705D01*
X29516941Y10584371D01*
X29516943Y10584372D01*
X29523637Y10586547D01*
X29636443Y10653793D01*
X29705195Y10671492D01*
X29769949Y10650996D01*
X29799207Y10631850D01*
X29838727Y10605989D01*
X29846771Y10600725D01*
X29853375Y10598269D01*
X29853377Y10598268D01*
X29884894Y10586547D01*
X30010472Y10539845D01*
X30017457Y10538913D01*
X30176612Y10517677D01*
X30176616Y10517677D01*
X30183593Y10516746D01*
X30190604Y10517384D01*
X30190608Y10517384D01*
X30350512Y10531936D01*
X30350515Y10531937D01*
X30357530Y10532575D01*
X30364229Y10534752D01*
X30371134Y10536169D01*
X30371407Y10534840D01*
X30434805Y10536648D01*
X30495601Y10499983D01*
X30526924Y10436269D01*
X30527775Y10399001D01*
X30516650Y10310938D01*
X30533694Y10137117D01*
X30588824Y9971390D01*
X30592471Y9965368D01*
X30592472Y9965366D01*
X30606685Y9941898D01*
X30678100Y9823978D01*
X30679300Y9821996D01*
X30678952Y9821785D01*
X30703139Y9759546D01*
X30688995Y9689973D01*
X30683508Y9680593D01*
X30598276Y9548339D01*
X30595867Y9541719D01*
X30595865Y9541716D01*
X30572185Y9476655D01*
X30538540Y9384216D01*
X30516650Y9210938D01*
X30533694Y9037117D01*
X30535918Y9030432D01*
X30535918Y9030431D01*
X30538737Y9021957D01*
X30588824Y8871390D01*
X30592471Y8865368D01*
X30592472Y8865366D01*
X30663562Y8747983D01*
X30679300Y8721996D01*
X30800625Y8596360D01*
X30806521Y8592502D01*
X30924607Y8515229D01*
X30946771Y8500725D01*
X30953375Y8498269D01*
X30953377Y8498268D01*
X31001477Y8480380D01*
X31110472Y8439845D01*
X31117457Y8438913D01*
X31276612Y8417677D01*
X31276616Y8417677D01*
X31283593Y8416746D01*
X31290604Y8417384D01*
X31290608Y8417384D01*
X31450512Y8431936D01*
X31450515Y8431937D01*
X31457530Y8432575D01*
X31487466Y8442302D01*
X31616941Y8484371D01*
X31616943Y8484372D01*
X31623637Y8486547D01*
X31773659Y8575978D01*
X31776515Y8578697D01*
X31841722Y8603513D01*
X31911195Y8588883D01*
X31920534Y8583332D01*
X31931772Y8575978D01*
X32024607Y8515229D01*
X32046771Y8500725D01*
X32053375Y8498269D01*
X32053377Y8498268D01*
X32101477Y8480380D01*
X32210472Y8439845D01*
X32217457Y8438913D01*
X32376612Y8417677D01*
X32376616Y8417677D01*
X32383593Y8416746D01*
X32390604Y8417384D01*
X32390608Y8417384D01*
X32550512Y8431936D01*
X32550515Y8431937D01*
X32557530Y8432575D01*
X32587466Y8442302D01*
X32716941Y8484371D01*
X32716943Y8484372D01*
X32723637Y8486547D01*
X32873659Y8575978D01*
X33000139Y8696423D01*
X33063351Y8791565D01*
X33092891Y8836026D01*
X33092892Y8836028D01*
X33096792Y8841898D01*
X33158813Y9005170D01*
X33178167Y9142874D01*
X33182570Y9174203D01*
X33182570Y9174206D01*
X33183121Y9178125D01*
X33183426Y9200000D01*
X33163957Y9373567D01*
X33106519Y9538507D01*
X33014936Y9685070D01*
X33008754Y9707157D01*
X37416554Y9707157D01*
X37421263Y9664502D01*
X37433434Y9554265D01*
X37434575Y9543926D01*
X37437184Y9536795D01*
X37437185Y9536793D01*
X37443443Y9519693D01*
X37491012Y9389705D01*
X37495249Y9383399D01*
X37495251Y9383396D01*
X37531041Y9330136D01*
X37582607Y9253398D01*
X37588225Y9248286D01*
X37698450Y9147988D01*
X37698454Y9147985D01*
X37704071Y9142874D01*
X37710744Y9139251D01*
X37710748Y9139248D01*
X37764249Y9110200D01*
X37848393Y9064514D01*
X38007241Y9022841D01*
X38092283Y9021505D01*
X38163845Y9020380D01*
X38163848Y9020380D01*
X38171443Y9020261D01*
X38331522Y9056924D01*
X38478234Y9130712D01*
X38572166Y9210938D01*
X38597338Y9232437D01*
X38597339Y9232438D01*
X38603110Y9237367D01*
X38698941Y9370730D01*
X38702564Y9379741D01*
X38757360Y9516052D01*
X38757360Y9516053D01*
X38760194Y9523102D01*
X38780318Y9664502D01*
X38782752Y9681602D01*
X38782752Y9681606D01*
X38783333Y9685686D01*
X38783483Y9700000D01*
X38780913Y9721242D01*
X38768772Y9821565D01*
X38763754Y9863034D01*
X38705705Y10016655D01*
X38677299Y10057986D01*
X38616990Y10145736D01*
X38616989Y10145737D01*
X38612688Y10151995D01*
X38592551Y10169937D01*
X38495744Y10256190D01*
X38495740Y10256193D01*
X38490073Y10261242D01*
X38354918Y10332802D01*
X38351647Y10334534D01*
X38351646Y10334534D01*
X38344938Y10338086D01*
X38185663Y10378094D01*
X38178065Y10378134D01*
X38178063Y10378134D01*
X38107307Y10378504D01*
X38021442Y10378953D01*
X38014063Y10377181D01*
X38014059Y10377181D01*
X37913654Y10353075D01*
X37861757Y10340616D01*
X37715826Y10265296D01*
X37710106Y10260306D01*
X37710103Y10260304D01*
X37597798Y10162334D01*
X37597795Y10162331D01*
X37592073Y10157339D01*
X37568011Y10123102D01*
X37514573Y10047067D01*
X37497644Y10022980D01*
X37437990Y9869975D01*
X37436999Y9862448D01*
X37417545Y9714688D01*
X37417545Y9714684D01*
X37416554Y9707157D01*
X33008754Y9707157D01*
X32995801Y9753437D01*
X33016843Y9821565D01*
X33017130Y9821996D01*
X33096792Y9941898D01*
X33158813Y10105170D01*
X33179404Y10251679D01*
X33182570Y10274203D01*
X33182570Y10274206D01*
X33183121Y10278125D01*
X33183426Y10300000D01*
X33163957Y10473567D01*
X33106519Y10638507D01*
X33013966Y10786623D01*
X32986235Y10814549D01*
X32895860Y10905557D01*
X32890898Y10910554D01*
X32880193Y10917348D01*
X32810312Y10961695D01*
X32743431Y11004139D01*
X32664121Y11032380D01*
X32585531Y11060365D01*
X32585526Y11060366D01*
X32578896Y11062727D01*
X32571908Y11063560D01*
X32571905Y11063561D01*
X32446796Y11078479D01*
X32405469Y11083407D01*
X32398467Y11082671D01*
X32398465Y11082671D01*
X32238771Y11065886D01*
X32238769Y11065886D01*
X32231771Y11065150D01*
X32066433Y11008865D01*
X31917675Y10917348D01*
X31916433Y10919367D01*
X31860799Y10897302D01*
X31791129Y10910962D01*
X31781722Y10916377D01*
X31643431Y11004139D01*
X31564121Y11032380D01*
X31485531Y11060365D01*
X31485526Y11060366D01*
X31478896Y11062727D01*
X31471908Y11063560D01*
X31471905Y11063561D01*
X31346796Y11078479D01*
X31305469Y11083407D01*
X31298467Y11082671D01*
X31298465Y11082671D01*
X31258584Y11078479D01*
X31131771Y11065150D01*
X31125100Y11062879D01*
X31124440Y11062734D01*
X31053614Y11067642D01*
X30996683Y11110062D01*
X30971724Y11176526D01*
X30972609Y11203331D01*
X30982570Y11274204D01*
X30982570Y11274205D01*
X30983121Y11278125D01*
X30983426Y11300000D01*
X30963957Y11473567D01*
X30906519Y11638507D01*
X30814936Y11785070D01*
X30795801Y11853437D01*
X30816843Y11921565D01*
X30817130Y11921996D01*
X30848914Y11969835D01*
X30892891Y12036026D01*
X30892892Y12036028D01*
X30896792Y12041898D01*
X30958813Y12205170D01*
X30983121Y12378125D01*
X30983426Y12400000D01*
X30963957Y12573567D01*
X30954613Y12600401D01*
X30922588Y12692362D01*
X30906519Y12738507D01*
X30813966Y12886623D01*
X30805501Y12895148D01*
X30695860Y13005557D01*
X30690898Y13010554D01*
X30680193Y13017348D01*
X30589618Y13074828D01*
X30543431Y13104139D01*
X30515625Y13114040D01*
X30385531Y13160365D01*
X30385526Y13160366D01*
X30378896Y13162727D01*
X30371908Y13163560D01*
X30371905Y13163561D01*
X30254334Y13177580D01*
X30205469Y13183407D01*
X30198467Y13182671D01*
X30198465Y13182671D01*
X30038771Y13165886D01*
X30038769Y13165886D01*
X30031771Y13165150D01*
X29866433Y13108865D01*
X29765700Y13046893D01*
X29697202Y13028235D01*
X29632166Y13047826D01*
X29608905Y13062588D01*
X29543431Y13104139D01*
X29515625Y13114040D01*
X29385531Y13160365D01*
X29385526Y13160366D01*
X29378896Y13162727D01*
X29371908Y13163560D01*
X29371905Y13163561D01*
X29254334Y13177580D01*
X29205469Y13183407D01*
X29198467Y13182671D01*
X29198465Y13182671D01*
X29038771Y13165886D01*
X29038769Y13165886D01*
X29031771Y13165150D01*
X28866433Y13108865D01*
X28847202Y13097034D01*
X28723677Y13021041D01*
X28723674Y13021039D01*
X28717675Y13017348D01*
X28592888Y12895148D01*
X28589069Y12889223D01*
X28589068Y12889221D01*
X28517649Y12778400D01*
X28498276Y12748339D01*
X28495867Y12741719D01*
X28495865Y12741716D01*
X28442825Y12595988D01*
X28438540Y12584216D01*
X28416650Y12410938D01*
X15975466Y12410938D01*
X15923990Y12485836D01*
X15923989Y12485837D01*
X15919688Y12492095D01*
X15908577Y12501995D01*
X15802744Y12596290D01*
X15802740Y12596293D01*
X15797073Y12601342D01*
X15669609Y12668830D01*
X15658647Y12674634D01*
X15658646Y12674634D01*
X15651938Y12678186D01*
X15505587Y12714948D01*
X15444393Y12750942D01*
X15412372Y12814308D01*
X15419693Y12884926D01*
X15454042Y12932609D01*
X15460673Y12938322D01*
X15468580Y12944601D01*
X15474758Y12949115D01*
X15474760Y12949117D01*
X15478690Y12951988D01*
X15488824Y12962122D01*
X15495671Y12968480D01*
X15524189Y12993053D01*
X15530988Y12998911D01*
X15535870Y13006443D01*
X15541770Y13013206D01*
X15541841Y13013144D01*
X15550296Y13023594D01*
X15860388Y13333686D01*
X15922700Y13367712D01*
X15951462Y13370575D01*
X15954410Y13370529D01*
X15963846Y13370380D01*
X15963849Y13370380D01*
X15971443Y13370261D01*
X16131522Y13406924D01*
X16278234Y13480712D01*
X16403110Y13587367D01*
X16498941Y13720730D01*
X16505998Y13738283D01*
X16557360Y13866052D01*
X16557360Y13866053D01*
X16560194Y13873102D01*
X16581137Y14020256D01*
X16582752Y14031602D01*
X16582752Y14031606D01*
X16583333Y14035686D01*
X16583483Y14050000D01*
X16563754Y14213034D01*
X16505705Y14366655D01*
X16494194Y14383404D01*
X16416990Y14495736D01*
X16416989Y14495737D01*
X16412688Y14501995D01*
X16406690Y14507339D01*
X16295744Y14606190D01*
X16295740Y14606193D01*
X16290073Y14611242D01*
X16152984Y14683826D01*
X16102141Y14733379D01*
X16086159Y14802553D01*
X16110112Y14869387D01*
X16166396Y14912661D01*
X16213922Y14921165D01*
X16232433Y14920874D01*
X16263845Y14920380D01*
X16263848Y14920380D01*
X16271443Y14920261D01*
X16431522Y14956924D01*
X16578234Y15030712D01*
X16703110Y15137367D01*
X16798941Y15270730D01*
X16802308Y15279104D01*
X16857360Y15416052D01*
X16857360Y15416053D01*
X16860194Y15423102D01*
X16883333Y15585686D01*
X16883483Y15600000D01*
X16882332Y15609517D01*
X16866189Y15742912D01*
X16863754Y15763034D01*
X16805705Y15916655D01*
X16801402Y15922915D01*
X16801400Y15922920D01*
X16798929Y15926516D01*
X16797937Y15929544D01*
X16797884Y15929646D01*
X16797901Y15929655D01*
X16776831Y15993986D01*
X16794719Y16062692D01*
X16808588Y16080457D01*
X20475954Y16080457D01*
X20484120Y16006493D01*
X20493098Y15925172D01*
X20493975Y15917226D01*
X20496584Y15910095D01*
X20496585Y15910093D01*
X20505658Y15885300D01*
X20550412Y15763005D01*
X20554649Y15756699D01*
X20554651Y15756696D01*
X20596890Y15693839D01*
X20642007Y15626698D01*
X20647625Y15621586D01*
X20757850Y15521288D01*
X20757854Y15521285D01*
X20763471Y15516174D01*
X20770144Y15512551D01*
X20770148Y15512548D01*
X20901120Y15441437D01*
X20907793Y15437814D01*
X21066641Y15396141D01*
X21151683Y15394805D01*
X21223245Y15393680D01*
X21223248Y15393680D01*
X21230843Y15393561D01*
X21390922Y15430224D01*
X21537634Y15504012D01*
X21650021Y15600000D01*
X21656738Y15605737D01*
X21656739Y15605738D01*
X21662510Y15610667D01*
X21758341Y15744030D01*
X21762950Y15755494D01*
X21816760Y15889352D01*
X21816760Y15889353D01*
X21819594Y15896402D01*
X21836170Y16012874D01*
X21842152Y16054902D01*
X21842152Y16054906D01*
X21842733Y16058986D01*
X21842883Y16073300D01*
X21841229Y16086974D01*
X21829958Y16180105D01*
X21823154Y16236334D01*
X21765105Y16389955D01*
X21742478Y16422877D01*
X21676390Y16519036D01*
X21676389Y16519037D01*
X21672088Y16525295D01*
X21660006Y16536060D01*
X21555144Y16629490D01*
X21555140Y16629493D01*
X21549473Y16634542D01*
X21404338Y16711386D01*
X21245063Y16751394D01*
X21237465Y16751434D01*
X21237463Y16751434D01*
X21166707Y16751804D01*
X21080842Y16752253D01*
X21073463Y16750481D01*
X21073459Y16750481D01*
X21008328Y16734844D01*
X20921157Y16713916D01*
X20775226Y16638596D01*
X20769506Y16633606D01*
X20769503Y16633604D01*
X20657198Y16535634D01*
X20657195Y16535631D01*
X20651473Y16530639D01*
X20637156Y16510268D01*
X20575737Y16422877D01*
X20557044Y16396280D01*
X20497390Y16243275D01*
X20496399Y16235748D01*
X20476945Y16087988D01*
X20476945Y16087984D01*
X20475954Y16080457D01*
X16808588Y16080457D01*
X16813676Y16086974D01*
X17796301Y17069600D01*
X17858613Y17103625D01*
X17929428Y17098561D01*
X17970196Y17073698D01*
X17998450Y17047988D01*
X17998454Y17047985D01*
X18004071Y17042874D01*
X18010744Y17039251D01*
X18010748Y17039248D01*
X18110524Y16985075D01*
X18148393Y16964514D01*
X18307241Y16922841D01*
X18392283Y16921505D01*
X18463845Y16920380D01*
X18463848Y16920380D01*
X18471443Y16920261D01*
X18631522Y16956924D01*
X18778234Y17030712D01*
X18861087Y17101476D01*
X18897338Y17132437D01*
X18897339Y17132438D01*
X18903110Y17137367D01*
X18998941Y17270730D01*
X19060194Y17423102D01*
X19081525Y17572980D01*
X19082752Y17581602D01*
X19082752Y17581606D01*
X19083333Y17585686D01*
X19083483Y17600000D01*
X19063754Y17763034D01*
X19005705Y17916655D01*
X18917464Y18045046D01*
X18895364Y18112515D01*
X18913249Y18181222D01*
X18932209Y18205508D01*
X19082665Y18355964D01*
X19091468Y18362998D01*
X19091086Y18363447D01*
X19097923Y18369266D01*
X19105515Y18374056D01*
X19138904Y18411862D01*
X19144250Y18417549D01*
X19154848Y18428147D01*
X19157532Y18431728D01*
X19157538Y18431735D01*
X19160570Y18435781D01*
X19166952Y18443620D01*
X19190307Y18470065D01*
X19196247Y18476791D01*
X19200062Y18484917D01*
X19203386Y18489978D01*
X19207925Y18497531D01*
X19210844Y18502862D01*
X19216231Y18510050D01*
X19231773Y18551510D01*
X19235683Y18560787D01*
X19254498Y18600861D01*
X19255879Y18609729D01*
X19257650Y18615523D01*
X19259889Y18624059D01*
X19261192Y18629984D01*
X19264344Y18638392D01*
X19267624Y18682527D01*
X19268775Y18692559D01*
X19270700Y18704920D01*
X19270700Y18719247D01*
X19271046Y18728584D01*
X19273836Y18766132D01*
X19274501Y18775080D01*
X19272628Y18783856D01*
X19272017Y18792813D01*
X19272111Y18792819D01*
X19270700Y18806186D01*
X19270700Y19195426D01*
X19290702Y19263547D01*
X19295533Y19269807D01*
X19295310Y19269967D01*
X19388608Y19399805D01*
X19444602Y19443452D01*
X19515305Y19449898D01*
X19580025Y19415373D01*
X22521325Y16474074D01*
X22521338Y16474060D01*
X22766605Y16228794D01*
X22984595Y16010804D01*
X23018620Y15948491D01*
X23021500Y15921708D01*
X23021500Y15521126D01*
X23001498Y15453005D01*
X22947842Y15406512D01*
X22882343Y15396522D01*
X22880863Y15396894D01*
X22873268Y15396934D01*
X22873266Y15396934D01*
X22800210Y15397316D01*
X22716642Y15397753D01*
X22709263Y15395981D01*
X22709259Y15395981D01*
X22608854Y15371875D01*
X22556957Y15359416D01*
X22411026Y15284096D01*
X22405306Y15279106D01*
X22405303Y15279104D01*
X22292998Y15181134D01*
X22292995Y15181131D01*
X22287273Y15176139D01*
X22269910Y15151434D01*
X22207578Y15062744D01*
X22192844Y15041780D01*
X22133190Y14888775D01*
X22132199Y14881248D01*
X22112745Y14733488D01*
X22112745Y14733484D01*
X22111754Y14725957D01*
X22117618Y14672841D01*
X22124027Y14614794D01*
X22129775Y14562726D01*
X22132384Y14555595D01*
X22132385Y14555593D01*
X22150044Y14507339D01*
X22186212Y14408505D01*
X22190449Y14402199D01*
X22190451Y14402196D01*
X22222235Y14354897D01*
X22277807Y14272198D01*
X22283425Y14267086D01*
X22393650Y14166788D01*
X22393654Y14166785D01*
X22399271Y14161674D01*
X22405944Y14158051D01*
X22405948Y14158048D01*
X22536920Y14086937D01*
X22543593Y14083314D01*
X22702441Y14041641D01*
X22718176Y14041394D01*
X22722475Y14041326D01*
X22790273Y14020256D01*
X22835916Y13965876D01*
X22844914Y13895452D01*
X22842535Y13884005D01*
X22840750Y13877054D01*
X22837990Y13869975D01*
X22836999Y13862446D01*
X22836998Y13862443D01*
X22817545Y13714688D01*
X22817545Y13714684D01*
X22816554Y13707157D01*
X22823517Y13644089D01*
X22833423Y13554364D01*
X22834575Y13543926D01*
X22837184Y13536795D01*
X22837185Y13536793D01*
X22844775Y13516052D01*
X22891012Y13389705D01*
X22895249Y13383399D01*
X22895251Y13383396D01*
X22918008Y13349531D01*
X22982607Y13253398D01*
X22988225Y13248286D01*
X23098450Y13147988D01*
X23098454Y13147985D01*
X23104071Y13142874D01*
X23110744Y13139251D01*
X23110748Y13139248D01*
X23188498Y13097034D01*
X23248393Y13064514D01*
X23407241Y13022841D01*
X23492283Y13021505D01*
X23563845Y13020380D01*
X23563848Y13020380D01*
X23571443Y13020261D01*
X23731522Y13056924D01*
X23878234Y13130712D01*
X24003110Y13237367D01*
X24098941Y13370730D01*
X24112810Y13405229D01*
X24157360Y13516052D01*
X24157360Y13516053D01*
X24160194Y13523102D01*
X24180320Y13664514D01*
X24182752Y13681602D01*
X24182752Y13681606D01*
X24183333Y13685686D01*
X24183483Y13700000D01*
X24182831Y13705393D01*
X24173648Y13781272D01*
X24163754Y13863034D01*
X24105705Y14016655D01*
X24088533Y14041641D01*
X24016990Y14145736D01*
X24016989Y14145737D01*
X24012688Y14151995D01*
X24009406Y14154919D01*
X23979940Y14218011D01*
X23978500Y14237006D01*
X23978500Y15660294D01*
X23998502Y15728415D01*
X24052158Y15774908D01*
X24122432Y15785012D01*
X24132103Y15783055D01*
X24134192Y15782769D01*
X24141541Y15780841D01*
X24226583Y15779505D01*
X24298145Y15778380D01*
X24298148Y15778380D01*
X24305743Y15778261D01*
X24465822Y15814924D01*
X24612534Y15888712D01*
X24697176Y15961004D01*
X24731638Y15990437D01*
X24731639Y15990438D01*
X24737410Y15995367D01*
X24833241Y16128730D01*
X24844333Y16156321D01*
X24891660Y16274052D01*
X24891660Y16274053D01*
X24894494Y16281102D01*
X24911987Y16404012D01*
X24917052Y16439602D01*
X24917052Y16439606D01*
X24917633Y16443686D01*
X24917783Y16458000D01*
X24898054Y16621034D01*
X24840005Y16774655D01*
X24812591Y16814542D01*
X24751290Y16903736D01*
X24751289Y16903737D01*
X24746988Y16909995D01*
X24735384Y16920334D01*
X24630044Y17014190D01*
X24630040Y17014193D01*
X24624373Y17019242D01*
X24479238Y17096086D01*
X24319963Y17136094D01*
X24312365Y17136134D01*
X24312363Y17136134D01*
X24241607Y17136504D01*
X24155742Y17136953D01*
X24148363Y17135181D01*
X24148359Y17135181D01*
X24047954Y17111075D01*
X23996057Y17098616D01*
X23850126Y17023296D01*
X23844406Y17018306D01*
X23844403Y17018304D01*
X23732098Y16920334D01*
X23732095Y16920331D01*
X23726373Y16915339D01*
X23722006Y16909125D01*
X23691668Y16865959D01*
X23636133Y16821728D01*
X23565501Y16814542D01*
X23499486Y16849315D01*
X19656701Y20692100D01*
X22232361Y20692100D01*
X22233051Y20685535D01*
X22247935Y20543926D01*
X22251664Y20508443D01*
X22308730Y20332814D01*
X22401064Y20172886D01*
X22405482Y20167979D01*
X22405483Y20167978D01*
X22505285Y20057137D01*
X22524631Y20035651D01*
X22529973Y20031770D01*
X22529975Y20031768D01*
X22667448Y19931888D01*
X22674030Y19927106D01*
X22680058Y19924422D01*
X22680060Y19924421D01*
X22821548Y19861427D01*
X22842733Y19851995D01*
X22933049Y19832798D01*
X23016909Y19814972D01*
X23016914Y19814972D01*
X23023366Y19813600D01*
X23208034Y19813600D01*
X23214486Y19814972D01*
X23214491Y19814972D01*
X23298351Y19832798D01*
X23388667Y19851995D01*
X23409852Y19861427D01*
X23551340Y19924421D01*
X23551342Y19924422D01*
X23557370Y19927106D01*
X23563952Y19931888D01*
X23701425Y20031768D01*
X23701427Y20031770D01*
X23706769Y20035651D01*
X23726115Y20057137D01*
X23825917Y20167978D01*
X23825918Y20167979D01*
X23830336Y20172886D01*
X23922670Y20332814D01*
X23979736Y20508443D01*
X23983466Y20543926D01*
X23998349Y20685535D01*
X23999039Y20692100D01*
X23994684Y20733535D01*
X23980427Y20869187D01*
X23980426Y20869191D01*
X23979736Y20875757D01*
X23922670Y21051386D01*
X23830336Y21211314D01*
X23807668Y21236490D01*
X23740634Y21310938D01*
X28416650Y21310938D01*
X28433694Y21137117D01*
X28435918Y21130432D01*
X28435918Y21130431D01*
X28437721Y21125012D01*
X28488824Y20971390D01*
X28492471Y20965368D01*
X28492472Y20965366D01*
X28553480Y20864630D01*
X28571659Y20796001D01*
X28551616Y20731107D01*
X28498276Y20648339D01*
X28495867Y20641719D01*
X28495865Y20641716D01*
X28457676Y20536793D01*
X28438540Y20484216D01*
X28416650Y20310938D01*
X28433694Y20137117D01*
X28488824Y19971390D01*
X28492471Y19965368D01*
X28492472Y19965366D01*
X28573854Y19830989D01*
X28579300Y19821996D01*
X28700625Y19696360D01*
X28761305Y19656652D01*
X28809012Y19625434D01*
X28846771Y19600725D01*
X28853375Y19598269D01*
X28853377Y19598268D01*
X28921321Y19573000D01*
X29010472Y19539845D01*
X29017457Y19538913D01*
X29176612Y19517677D01*
X29176616Y19517677D01*
X29183593Y19516746D01*
X29190604Y19517384D01*
X29190608Y19517384D01*
X29350512Y19531936D01*
X29350515Y19531937D01*
X29357530Y19532575D01*
X29400833Y19546645D01*
X29516941Y19584371D01*
X29516943Y19584372D01*
X29523637Y19586547D01*
X29636443Y19653793D01*
X29705195Y19671492D01*
X29769949Y19650996D01*
X29846771Y19600725D01*
X29853375Y19598269D01*
X29853377Y19598268D01*
X29921321Y19573000D01*
X30010472Y19539845D01*
X30017457Y19538913D01*
X30176612Y19517677D01*
X30176616Y19517677D01*
X30183593Y19516746D01*
X30190604Y19517384D01*
X30190608Y19517384D01*
X30350512Y19531936D01*
X30350515Y19531937D01*
X30357530Y19532575D01*
X30400833Y19546645D01*
X30516941Y19584371D01*
X30516943Y19584372D01*
X30523637Y19586547D01*
X30620165Y19644089D01*
X30667607Y19672370D01*
X30667609Y19672371D01*
X30673659Y19675978D01*
X30800139Y19796423D01*
X30882548Y19920459D01*
X30892891Y19936026D01*
X30892892Y19936028D01*
X30896792Y19941898D01*
X30913262Y19985256D01*
X36680643Y19985256D01*
X36706988Y19767548D01*
X36771470Y19557946D01*
X36774040Y19552966D01*
X36774042Y19552962D01*
X36830565Y19443452D01*
X36872050Y19363076D01*
X37005549Y19189097D01*
X37009694Y19185326D01*
X37009697Y19185322D01*
X37046940Y19151434D01*
X37167748Y19041507D01*
X37353518Y18924974D01*
X37358728Y18922880D01*
X37358733Y18922877D01*
X37436341Y18891679D01*
X37492086Y18847713D01*
X37515211Y18780588D01*
X37498374Y18711616D01*
X37443590Y18661046D01*
X37285615Y18585696D01*
X37107528Y18457728D01*
X36954917Y18300245D01*
X36832606Y18118227D01*
X36830347Y18113081D01*
X36830346Y18113079D01*
X36829540Y18111242D01*
X36744460Y17917425D01*
X36693266Y17704188D01*
X36692943Y17698583D01*
X36686434Y17585686D01*
X36680643Y17485256D01*
X36706988Y17267548D01*
X36771470Y17057946D01*
X36774040Y17052966D01*
X36774042Y17052962D01*
X36844154Y16917123D01*
X36872050Y16863076D01*
X37005549Y16689097D01*
X37009694Y16685326D01*
X37009697Y16685322D01*
X37139656Y16567069D01*
X37167748Y16541507D01*
X37353518Y16424974D01*
X37358728Y16422880D01*
X37358733Y16422877D01*
X37436341Y16391679D01*
X37492086Y16347713D01*
X37515211Y16280588D01*
X37498374Y16211616D01*
X37443590Y16161046D01*
X37285615Y16085696D01*
X37107528Y15957728D01*
X36954917Y15800245D01*
X36832606Y15618227D01*
X36830347Y15613081D01*
X36830346Y15613079D01*
X36826174Y15603575D01*
X36744460Y15417425D01*
X36693266Y15204188D01*
X36690911Y15163341D01*
X36685794Y15074586D01*
X36680643Y14985256D01*
X36706988Y14767548D01*
X36771470Y14557946D01*
X36774040Y14552966D01*
X36774042Y14552962D01*
X36853157Y14399680D01*
X36872050Y14363076D01*
X37005549Y14189097D01*
X37009694Y14185326D01*
X37009697Y14185322D01*
X37123919Y14081388D01*
X37167748Y14041507D01*
X37172504Y14038524D01*
X37172506Y14038522D01*
X37264553Y13980781D01*
X37311631Y13927638D01*
X37322503Y13857478D01*
X37293719Y13792579D01*
X37234416Y13753544D01*
X37220603Y13750184D01*
X37214400Y13749696D01*
X37166030Y13735643D01*
X37069522Y13707605D01*
X37069521Y13707604D01*
X37061909Y13705393D01*
X37055087Y13701358D01*
X37055086Y13701358D01*
X36985723Y13660337D01*
X36925226Y13624559D01*
X36812941Y13512274D01*
X36732107Y13375591D01*
X36687804Y13223100D01*
X36687299Y13216681D01*
X36685193Y13189929D01*
X36685192Y13189916D01*
X36685000Y13187470D01*
X36685000Y11860530D01*
X36685192Y11858084D01*
X36685193Y11858071D01*
X36686800Y11837656D01*
X36687804Y11824900D01*
X36689601Y11818715D01*
X36720945Y11710830D01*
X36732107Y11672409D01*
X36736142Y11665587D01*
X36736142Y11665586D01*
X36791171Y11572537D01*
X36812941Y11535726D01*
X36925226Y11423441D01*
X36932047Y11419407D01*
X37043979Y11353211D01*
X37061909Y11342607D01*
X37069521Y11340396D01*
X37069522Y11340395D01*
X37146355Y11318073D01*
X37214400Y11298304D01*
X37227156Y11297300D01*
X37247571Y11295693D01*
X37247584Y11295692D01*
X37250030Y11295500D01*
X38826970Y11295500D01*
X38829416Y11295692D01*
X38829429Y11295693D01*
X38849844Y11297300D01*
X38862600Y11298304D01*
X38930645Y11318073D01*
X39007478Y11340395D01*
X39007479Y11340396D01*
X39015091Y11342607D01*
X39033022Y11353211D01*
X39144953Y11419407D01*
X39151774Y11423441D01*
X39264059Y11535726D01*
X39285829Y11572537D01*
X39340858Y11665586D01*
X39340858Y11665587D01*
X39344893Y11672409D01*
X39356056Y11710830D01*
X39387399Y11818715D01*
X39389196Y11824900D01*
X39390200Y11837656D01*
X39391807Y11858071D01*
X39391808Y11858084D01*
X39392000Y11860530D01*
X39392000Y13187470D01*
X39391808Y13189916D01*
X39391807Y13189929D01*
X39389701Y13216681D01*
X39389196Y13223100D01*
X39344893Y13375591D01*
X39264059Y13512274D01*
X39151774Y13624559D01*
X39091277Y13660337D01*
X39021914Y13701358D01*
X39021913Y13701358D01*
X39015091Y13705393D01*
X39007479Y13707604D01*
X39007478Y13707605D01*
X38910970Y13735643D01*
X38862600Y13749696D01*
X38859681Y13749926D01*
X38797395Y13781272D01*
X38761300Y13842409D01*
X38763987Y13913355D01*
X38809927Y13975628D01*
X38812921Y13977779D01*
X38875825Y14022980D01*
X38964914Y14086996D01*
X38964919Y14087001D01*
X38969472Y14090272D01*
X39122083Y14247755D01*
X39229691Y14407893D01*
X39241262Y14425112D01*
X39241262Y14425113D01*
X39244394Y14429773D01*
X39262042Y14469975D01*
X39284659Y14521500D01*
X39332540Y14630575D01*
X39383734Y14843812D01*
X39391568Y14979679D01*
X39396034Y15057137D01*
X39396034Y15057140D01*
X39396357Y15062744D01*
X39370012Y15280452D01*
X39305530Y15490054D01*
X39292049Y15516174D01*
X39207521Y15679943D01*
X39207520Y15679944D01*
X39204950Y15684924D01*
X39071451Y15858903D01*
X39067306Y15862674D01*
X39067303Y15862678D01*
X38913405Y16002714D01*
X38909252Y16006493D01*
X38723482Y16123026D01*
X38718272Y16125120D01*
X38718267Y16125123D01*
X38640659Y16156321D01*
X38584914Y16200287D01*
X38561789Y16267412D01*
X38578626Y16336384D01*
X38633410Y16386954D01*
X38652822Y16396213D01*
X38791385Y16462304D01*
X38969472Y16590272D01*
X39122083Y16747755D01*
X39239736Y16922841D01*
X39241262Y16925112D01*
X39241262Y16925113D01*
X39244394Y16929773D01*
X39249005Y16940276D01*
X39292450Y17039248D01*
X39332540Y17130575D01*
X39383734Y17343812D01*
X39396357Y17562744D01*
X39370012Y17780452D01*
X39305530Y17990054D01*
X39302598Y17995736D01*
X39207521Y18179943D01*
X39207520Y18179944D01*
X39204950Y18184924D01*
X39071451Y18358903D01*
X39067306Y18362674D01*
X39067303Y18362678D01*
X38913405Y18502714D01*
X38909252Y18506493D01*
X38723482Y18623026D01*
X38718272Y18625120D01*
X38718267Y18625123D01*
X38640659Y18656321D01*
X38584914Y18700287D01*
X38561789Y18767412D01*
X38578626Y18836384D01*
X38633410Y18886954D01*
X38643316Y18891679D01*
X38791385Y18962304D01*
X38969472Y19090272D01*
X39122083Y19247755D01*
X39244394Y19429773D01*
X39251358Y19445636D01*
X39308764Y19576412D01*
X39332540Y19630575D01*
X39378496Y19821996D01*
X39382424Y19838355D01*
X39382424Y19838356D01*
X39383734Y19843812D01*
X39389769Y19948488D01*
X39396034Y20057137D01*
X39396034Y20057140D01*
X39396357Y20062744D01*
X39370012Y20280452D01*
X39305530Y20490054D01*
X39204950Y20684924D01*
X39071451Y20858903D01*
X39067306Y20862674D01*
X39067303Y20862678D01*
X38913405Y21002714D01*
X38909252Y21006493D01*
X38723482Y21123026D01*
X38706276Y21129943D01*
X38525217Y21202728D01*
X38520011Y21204821D01*
X38514519Y21205958D01*
X38514517Y21205959D01*
X38360613Y21237831D01*
X38305271Y21249292D01*
X38300660Y21249558D01*
X38300659Y21249558D01*
X38251454Y21252395D01*
X38251450Y21252395D01*
X38249631Y21252500D01*
X37857857Y21252500D01*
X37855070Y21252251D01*
X37855064Y21252251D01*
X37786721Y21246151D01*
X37695072Y21237972D01*
X37689658Y21236491D01*
X37689653Y21236490D01*
X37566243Y21202728D01*
X37483548Y21180105D01*
X37478490Y21177693D01*
X37478486Y21177691D01*
X37408116Y21144126D01*
X37285615Y21085696D01*
X37107528Y20957728D01*
X36954917Y20800245D01*
X36832606Y20618227D01*
X36830347Y20613081D01*
X36830346Y20613079D01*
X36803304Y20551476D01*
X36744460Y20417425D01*
X36693266Y20204188D01*
X36689013Y20130431D01*
X36681015Y19991700D01*
X36680643Y19985256D01*
X30913262Y19985256D01*
X30958813Y20105170D01*
X30978401Y20244539D01*
X30982570Y20274203D01*
X30982570Y20274206D01*
X30983121Y20278125D01*
X30983426Y20300000D01*
X30963957Y20473567D01*
X30906519Y20638507D01*
X30847139Y20733535D01*
X30828003Y20801904D01*
X30849043Y20870030D01*
X30896792Y20941898D01*
X30958813Y21105170D01*
X30980038Y21256190D01*
X30982570Y21274203D01*
X30982570Y21274206D01*
X30983121Y21278125D01*
X30983426Y21300000D01*
X30963957Y21473567D01*
X30923694Y21589187D01*
X30920180Y21660097D01*
X30955562Y21721649D01*
X31018604Y21754301D01*
X31086602Y21748722D01*
X31110472Y21739845D01*
X31117457Y21738913D01*
X31276612Y21717677D01*
X31276616Y21717677D01*
X31283593Y21716746D01*
X31290604Y21717384D01*
X31290608Y21717384D01*
X31450512Y21731936D01*
X31450515Y21731937D01*
X31457530Y21732575D01*
X31507225Y21748722D01*
X31616941Y21784371D01*
X31616943Y21784372D01*
X31623637Y21786547D01*
X31729735Y21849794D01*
X31767607Y21872370D01*
X31767609Y21872371D01*
X31773659Y21875978D01*
X31776515Y21878697D01*
X31841722Y21903513D01*
X31911195Y21888883D01*
X31920534Y21883332D01*
X32046771Y21800725D01*
X32053375Y21798269D01*
X32053377Y21798268D01*
X32123015Y21772370D01*
X32210472Y21739845D01*
X32217457Y21738913D01*
X32376612Y21717677D01*
X32376616Y21717677D01*
X32383593Y21716746D01*
X32390604Y21717384D01*
X32390608Y21717384D01*
X32550512Y21731936D01*
X32550515Y21731937D01*
X32557530Y21732575D01*
X32607225Y21748722D01*
X32716941Y21784371D01*
X32716943Y21784372D01*
X32723637Y21786547D01*
X32829735Y21849794D01*
X32867607Y21872370D01*
X32867609Y21872371D01*
X32873659Y21875978D01*
X33000139Y21996423D01*
X33089637Y22131129D01*
X33092891Y22136026D01*
X33092892Y22136028D01*
X33096792Y22141898D01*
X33158813Y22305170D01*
X33183121Y22478125D01*
X33183426Y22500000D01*
X33163957Y22673567D01*
X33106519Y22838507D01*
X33047139Y22933535D01*
X33028003Y23001904D01*
X33049043Y23070030D01*
X33096792Y23141898D01*
X33158813Y23305170D01*
X33175865Y23426500D01*
X33182570Y23474203D01*
X33182570Y23474206D01*
X33183121Y23478125D01*
X33183426Y23500000D01*
X33163957Y23673567D01*
X33160991Y23682086D01*
X33131829Y23765825D01*
X33106519Y23838507D01*
X33061259Y23910938D01*
X33516650Y23910938D01*
X33533694Y23737117D01*
X33535918Y23730432D01*
X33535918Y23730431D01*
X33557846Y23664514D01*
X33588824Y23571390D01*
X33592471Y23565368D01*
X33592472Y23565366D01*
X33672579Y23433094D01*
X33679300Y23421996D01*
X33800625Y23296360D01*
X33868627Y23251861D01*
X33914816Y23221636D01*
X33946771Y23200725D01*
X33953375Y23198269D01*
X33953377Y23198268D01*
X34007680Y23178073D01*
X34110472Y23139845D01*
X34117457Y23138913D01*
X34276612Y23117677D01*
X34276616Y23117677D01*
X34283593Y23116746D01*
X34290604Y23117384D01*
X34290608Y23117384D01*
X34450512Y23131936D01*
X34450515Y23131937D01*
X34457530Y23132575D01*
X34506505Y23148488D01*
X34616941Y23184371D01*
X34616943Y23184372D01*
X34623637Y23186547D01*
X34695695Y23229502D01*
X34767607Y23272370D01*
X34767609Y23272371D01*
X34773659Y23275978D01*
X34776515Y23278697D01*
X34841722Y23303513D01*
X34911195Y23288883D01*
X34920534Y23283332D01*
X34968627Y23251861D01*
X35014816Y23221636D01*
X35046771Y23200725D01*
X35053375Y23198269D01*
X35053377Y23198268D01*
X35107680Y23178073D01*
X35210472Y23139845D01*
X35217457Y23138913D01*
X35376612Y23117677D01*
X35376616Y23117677D01*
X35383593Y23116746D01*
X35390604Y23117384D01*
X35390608Y23117384D01*
X35550512Y23131936D01*
X35550515Y23131937D01*
X35557530Y23132575D01*
X35606505Y23148488D01*
X35716941Y23184371D01*
X35716943Y23184372D01*
X35723637Y23186547D01*
X35795695Y23229502D01*
X35867607Y23272370D01*
X35867609Y23272371D01*
X35873659Y23275978D01*
X36000139Y23396423D01*
X36088139Y23528874D01*
X36092891Y23536026D01*
X36092892Y23536028D01*
X36096792Y23541898D01*
X36158813Y23705170D01*
X36159624Y23710938D01*
X36916650Y23710938D01*
X36933694Y23537117D01*
X36935918Y23530432D01*
X36935918Y23530431D01*
X36944321Y23505170D01*
X36988824Y23371390D01*
X36992471Y23365368D01*
X36992472Y23365366D01*
X37067859Y23240888D01*
X37079300Y23221996D01*
X37200625Y23096360D01*
X37224348Y23080836D01*
X37328901Y23012419D01*
X37346771Y23000725D01*
X37353375Y22998269D01*
X37353377Y22998268D01*
X37375198Y22990153D01*
X37510472Y22939845D01*
X37517457Y22938913D01*
X37676612Y22917677D01*
X37676616Y22917677D01*
X37683593Y22916746D01*
X37690604Y22917384D01*
X37690608Y22917384D01*
X37850512Y22931936D01*
X37850515Y22931937D01*
X37857530Y22932575D01*
X37948324Y22962076D01*
X38016941Y22984371D01*
X38016943Y22984372D01*
X38023637Y22986547D01*
X38154623Y23064630D01*
X38167607Y23072370D01*
X38167609Y23072371D01*
X38173659Y23075978D01*
X38263631Y23161657D01*
X38326756Y23194149D01*
X38397427Y23187356D01*
X38441160Y23157938D01*
X38500625Y23096360D01*
X38524348Y23080836D01*
X38628901Y23012419D01*
X38646771Y23000725D01*
X38653375Y22998269D01*
X38653377Y22998268D01*
X38675198Y22990153D01*
X38810472Y22939845D01*
X38817457Y22938913D01*
X38976612Y22917677D01*
X38976616Y22917677D01*
X38983593Y22916746D01*
X38990604Y22917384D01*
X38990608Y22917384D01*
X39150512Y22931936D01*
X39150515Y22931937D01*
X39157530Y22932575D01*
X39248324Y22962076D01*
X39316941Y22984371D01*
X39316943Y22984372D01*
X39323637Y22986547D01*
X39454623Y23064630D01*
X39467607Y23072370D01*
X39467609Y23072371D01*
X39473659Y23075978D01*
X39600139Y23196423D01*
X39663801Y23292242D01*
X39692891Y23336026D01*
X39692892Y23336028D01*
X39696792Y23341898D01*
X39758813Y23505170D01*
X39774732Y23618437D01*
X39782570Y23674203D01*
X39782570Y23674206D01*
X39783121Y23678125D01*
X39783298Y23690835D01*
X39783371Y23696037D01*
X39783371Y23696041D01*
X39783426Y23700000D01*
X39763957Y23873567D01*
X39760991Y23882086D01*
X39735357Y23955694D01*
X39706519Y24038507D01*
X39613966Y24186623D01*
X39605501Y24195148D01*
X39544937Y24256136D01*
X39490898Y24310554D01*
X39480193Y24317348D01*
X39380445Y24380649D01*
X39343431Y24404139D01*
X39279491Y24426907D01*
X39185531Y24460365D01*
X39185526Y24460366D01*
X39178896Y24462727D01*
X39171908Y24463560D01*
X39171905Y24463561D01*
X39054334Y24477580D01*
X39005469Y24483407D01*
X38998467Y24482671D01*
X38998465Y24482671D01*
X38838771Y24465886D01*
X38838769Y24465886D01*
X38831771Y24465150D01*
X38666433Y24408865D01*
X38620569Y24380649D01*
X38523677Y24321041D01*
X38523674Y24321039D01*
X38517675Y24317348D01*
X38437979Y24239305D01*
X38375316Y24205936D01*
X38304558Y24211742D01*
X38260418Y24240546D01*
X38190898Y24310554D01*
X38180193Y24317348D01*
X38080445Y24380649D01*
X38043431Y24404139D01*
X37979491Y24426907D01*
X37885531Y24460365D01*
X37885526Y24460366D01*
X37878896Y24462727D01*
X37871908Y24463560D01*
X37871905Y24463561D01*
X37754334Y24477580D01*
X37705469Y24483407D01*
X37698467Y24482671D01*
X37698465Y24482671D01*
X37538771Y24465886D01*
X37538769Y24465886D01*
X37531771Y24465150D01*
X37366433Y24408865D01*
X37320569Y24380649D01*
X37223677Y24321041D01*
X37223674Y24321039D01*
X37217675Y24317348D01*
X37092888Y24195148D01*
X37089069Y24189223D01*
X37089068Y24189221D01*
X37014534Y24073567D01*
X36998276Y24048339D01*
X36995867Y24041719D01*
X36995865Y24041716D01*
X36940949Y23890835D01*
X36938540Y23884216D01*
X36916650Y23710938D01*
X36159624Y23710938D01*
X36182433Y23873231D01*
X36182570Y23874203D01*
X36182570Y23874206D01*
X36183121Y23878125D01*
X36183426Y23900000D01*
X36163957Y24073567D01*
X36159628Y24086000D01*
X36117861Y24205936D01*
X36106519Y24238507D01*
X36013966Y24386623D01*
X36005501Y24395148D01*
X35945575Y24455494D01*
X35890898Y24510554D01*
X35880193Y24517348D01*
X35833590Y24546923D01*
X35743431Y24604139D01*
X35708282Y24616655D01*
X35585531Y24660365D01*
X35585526Y24660366D01*
X35578896Y24662727D01*
X35571908Y24663560D01*
X35571905Y24663561D01*
X35454334Y24677580D01*
X35405469Y24683407D01*
X35398467Y24682671D01*
X35398465Y24682671D01*
X35238771Y24665886D01*
X35238769Y24665886D01*
X35231771Y24665150D01*
X35066433Y24608865D01*
X34917675Y24517348D01*
X34916433Y24519367D01*
X34860799Y24497302D01*
X34791129Y24510962D01*
X34781722Y24516377D01*
X34643431Y24604139D01*
X34608282Y24616655D01*
X34485531Y24660365D01*
X34485526Y24660366D01*
X34478896Y24662727D01*
X34471908Y24663560D01*
X34471905Y24663561D01*
X34354334Y24677580D01*
X34305469Y24683407D01*
X34298467Y24682671D01*
X34298465Y24682671D01*
X34138771Y24665886D01*
X34138769Y24665886D01*
X34131771Y24665150D01*
X33966433Y24608865D01*
X33947594Y24597275D01*
X33823677Y24521041D01*
X33823674Y24521039D01*
X33817675Y24517348D01*
X33692888Y24395148D01*
X33689069Y24389223D01*
X33689068Y24389221D01*
X33617891Y24278776D01*
X33598276Y24248339D01*
X33595867Y24241719D01*
X33595865Y24241716D01*
X33543303Y24097302D01*
X33538540Y24084216D01*
X33516650Y23910938D01*
X33061259Y23910938D01*
X33013966Y23986623D01*
X33005501Y23995148D01*
X32919372Y24081880D01*
X32890898Y24110554D01*
X32880193Y24117348D01*
X32826415Y24151476D01*
X32743431Y24204139D01*
X32715625Y24214040D01*
X32585531Y24260365D01*
X32585526Y24260366D01*
X32578896Y24262727D01*
X32571908Y24263560D01*
X32571905Y24263561D01*
X32454334Y24277580D01*
X32405469Y24283407D01*
X32398467Y24282671D01*
X32398465Y24282671D01*
X32238771Y24265886D01*
X32238769Y24265886D01*
X32231771Y24265150D01*
X32066433Y24208865D01*
X31917675Y24117348D01*
X31916433Y24119367D01*
X31860799Y24097302D01*
X31791129Y24110962D01*
X31781722Y24116377D01*
X31643431Y24204139D01*
X31615625Y24214040D01*
X31485531Y24260365D01*
X31485526Y24260366D01*
X31478896Y24262727D01*
X31471908Y24263560D01*
X31471905Y24263561D01*
X31354334Y24277580D01*
X31305469Y24283407D01*
X31298467Y24282671D01*
X31298465Y24282671D01*
X31138771Y24265886D01*
X31138769Y24265886D01*
X31131771Y24265150D01*
X30966433Y24208865D01*
X30920569Y24180649D01*
X30823677Y24121041D01*
X30823674Y24121039D01*
X30817675Y24117348D01*
X30692888Y23995148D01*
X30689069Y23989223D01*
X30689068Y23989221D01*
X30618354Y23879494D01*
X30598276Y23848339D01*
X30595867Y23841719D01*
X30595865Y23841716D01*
X30542179Y23694214D01*
X30538540Y23684216D01*
X30516650Y23510938D01*
X30533694Y23337117D01*
X30535918Y23330432D01*
X30535918Y23330431D01*
X30545566Y23301428D01*
X30588824Y23171390D01*
X30592471Y23165368D01*
X30592472Y23165366D01*
X30653480Y23064630D01*
X30671659Y22996001D01*
X30651616Y22931107D01*
X30598276Y22848339D01*
X30595867Y22841719D01*
X30595865Y22841716D01*
X30568202Y22765711D01*
X30538540Y22684216D01*
X30516650Y22510938D01*
X30533694Y22337117D01*
X30562228Y22251342D01*
X30576493Y22208459D01*
X30579015Y22137508D01*
X30542778Y22076455D01*
X30479286Y22044686D01*
X30414669Y22049989D01*
X30378896Y22062727D01*
X30371908Y22063560D01*
X30371905Y22063561D01*
X30250201Y22078073D01*
X30205469Y22083407D01*
X30198467Y22082671D01*
X30198465Y22082671D01*
X30038771Y22065886D01*
X30038769Y22065886D01*
X30031771Y22065150D01*
X29866433Y22008865D01*
X29765700Y21946893D01*
X29697202Y21928235D01*
X29632166Y21947826D01*
X29585910Y21977181D01*
X29543431Y22004139D01*
X29506527Y22017280D01*
X29385531Y22060365D01*
X29385526Y22060366D01*
X29378896Y22062727D01*
X29371908Y22063560D01*
X29371905Y22063561D01*
X29250201Y22078073D01*
X29205469Y22083407D01*
X29198467Y22082671D01*
X29198465Y22082671D01*
X29038771Y22065886D01*
X29038769Y22065886D01*
X29031771Y22065150D01*
X28866433Y22008865D01*
X28846209Y21996423D01*
X28723677Y21921041D01*
X28723674Y21921039D01*
X28717675Y21917348D01*
X28592888Y21795148D01*
X28589069Y21789223D01*
X28589068Y21789221D01*
X28502095Y21654265D01*
X28498276Y21648339D01*
X28495867Y21641719D01*
X28495865Y21641716D01*
X28440949Y21490835D01*
X28438540Y21484216D01*
X28416650Y21310938D01*
X23740634Y21310938D01*
X23711191Y21343638D01*
X23711190Y21343639D01*
X23706769Y21348549D01*
X23656891Y21384788D01*
X23562712Y21453213D01*
X23562711Y21453214D01*
X23557370Y21457094D01*
X23551342Y21459778D01*
X23551340Y21459779D01*
X23394698Y21529520D01*
X23394697Y21529520D01*
X23388667Y21532205D01*
X23298351Y21551402D01*
X23214491Y21569228D01*
X23214486Y21569228D01*
X23208034Y21570600D01*
X23023366Y21570600D01*
X23016914Y21569228D01*
X23016909Y21569228D01*
X22933049Y21551402D01*
X22842733Y21532205D01*
X22836703Y21529520D01*
X22836702Y21529520D01*
X22680061Y21459779D01*
X22680059Y21459778D01*
X22674031Y21457094D01*
X22668690Y21453214D01*
X22668689Y21453213D01*
X22529975Y21352432D01*
X22529973Y21352430D01*
X22524631Y21348549D01*
X22520210Y21343639D01*
X22520209Y21343638D01*
X22423733Y21236490D01*
X22401064Y21211314D01*
X22308730Y21051386D01*
X22251664Y20875757D01*
X22250974Y20869191D01*
X22250973Y20869187D01*
X22236716Y20733535D01*
X22232361Y20692100D01*
X19656701Y20692100D01*
X18972434Y21376367D01*
X18965400Y21385170D01*
X18964951Y21384788D01*
X18959135Y21391622D01*
X18954344Y21399215D01*
X18947615Y21405158D01*
X18941797Y21411994D01*
X18943312Y21413283D01*
X18911623Y21463636D01*
X18912297Y21534629D01*
X18951246Y21593988D01*
X19021428Y21623465D01*
X19121530Y21632575D01*
X19170046Y21648339D01*
X19280941Y21684371D01*
X19280943Y21684372D01*
X19287637Y21686547D01*
X19375482Y21738913D01*
X19431607Y21772370D01*
X19431609Y21772371D01*
X19437659Y21775978D01*
X19564139Y21896423D01*
X19660792Y22041898D01*
X19661825Y22044618D01*
X19709626Y22094878D01*
X19778600Y22111703D01*
X19804738Y22107714D01*
X19838941Y22098741D01*
X19923983Y22097405D01*
X19995545Y22096280D01*
X19995548Y22096280D01*
X20003143Y22096161D01*
X20163222Y22132824D01*
X20309934Y22206612D01*
X20434810Y22313267D01*
X20530641Y22446630D01*
X20539041Y22467524D01*
X20589060Y22591952D01*
X20589060Y22591953D01*
X20591894Y22599002D01*
X20612205Y22741716D01*
X20614452Y22757502D01*
X20614452Y22757506D01*
X20615033Y22761586D01*
X20615183Y22775900D01*
X20595454Y22938934D01*
X20537405Y23092555D01*
X20520084Y23117757D01*
X24188754Y23117757D01*
X24193765Y23072370D01*
X24202842Y22990153D01*
X24206775Y22954526D01*
X24209384Y22947395D01*
X24209385Y22947393D01*
X24223783Y22908049D01*
X24263212Y22800305D01*
X24267449Y22793999D01*
X24267451Y22793996D01*
X24294150Y22754265D01*
X24354807Y22663998D01*
X24360425Y22658886D01*
X24470650Y22558588D01*
X24470654Y22558585D01*
X24476271Y22553474D01*
X24482944Y22549851D01*
X24482948Y22549848D01*
X24574758Y22500000D01*
X24620593Y22475114D01*
X24779441Y22433441D01*
X24864483Y22432105D01*
X24936045Y22430980D01*
X24936048Y22430980D01*
X24943643Y22430861D01*
X25103722Y22467524D01*
X25250434Y22541312D01*
X25375310Y22647967D01*
X25471141Y22781330D01*
X25498079Y22848339D01*
X25529560Y22926652D01*
X25529560Y22926653D01*
X25532394Y22933702D01*
X25555533Y23096286D01*
X25555683Y23110600D01*
X25554940Y23116746D01*
X25546756Y23184371D01*
X25535954Y23273634D01*
X25477905Y23427255D01*
X25463243Y23448588D01*
X25389190Y23556336D01*
X25389189Y23556337D01*
X25384888Y23562595D01*
X25357326Y23587152D01*
X25267944Y23666790D01*
X25267940Y23666793D01*
X25262273Y23671842D01*
X25128115Y23742874D01*
X25123847Y23745134D01*
X25123846Y23745134D01*
X25117138Y23748686D01*
X24957863Y23788694D01*
X24950265Y23788734D01*
X24950263Y23788734D01*
X24879507Y23789104D01*
X24793642Y23789553D01*
X24786263Y23787781D01*
X24786259Y23787781D01*
X24694808Y23765825D01*
X24633957Y23751216D01*
X24488026Y23675896D01*
X24482306Y23670906D01*
X24482303Y23670904D01*
X24369998Y23572934D01*
X24369995Y23572931D01*
X24364273Y23567939D01*
X24350603Y23548488D01*
X24274390Y23440048D01*
X24269844Y23433580D01*
X24210190Y23280575D01*
X24209199Y23273048D01*
X24189745Y23125288D01*
X24189745Y23125284D01*
X24188754Y23117757D01*
X20520084Y23117757D01*
X20492468Y23157938D01*
X20448690Y23221636D01*
X20448689Y23221637D01*
X20444388Y23227895D01*
X20417613Y23251751D01*
X20327444Y23332090D01*
X20327440Y23332093D01*
X20321773Y23337142D01*
X20191228Y23406261D01*
X20183347Y23410434D01*
X20183346Y23410434D01*
X20176638Y23413986D01*
X20017363Y23453994D01*
X20009765Y23454034D01*
X20009763Y23454034D01*
X19939007Y23454404D01*
X19853142Y23454853D01*
X19845763Y23453081D01*
X19845759Y23453081D01*
X19762509Y23433094D01*
X19693457Y23416516D01*
X19547526Y23341196D01*
X19541806Y23336206D01*
X19541803Y23336204D01*
X19429498Y23238234D01*
X19429495Y23238231D01*
X19423773Y23233239D01*
X19419408Y23227029D01*
X19419405Y23227025D01*
X19383006Y23175234D01*
X19327471Y23131002D01*
X19256839Y23123817D01*
X19237661Y23128983D01*
X19226232Y23133053D01*
X19168770Y23174745D01*
X19142969Y23240888D01*
X19142500Y23251751D01*
X19142500Y25900287D01*
X19143751Y25911481D01*
X19143163Y25911528D01*
X19143883Y25920474D01*
X19145864Y25929230D01*
X19142742Y25979553D01*
X19142500Y25987355D01*
X19142500Y26002362D01*
X19141147Y26011815D01*
X19140118Y26021861D01*
X19137933Y26057071D01*
X19137377Y26066032D01*
X19134328Y26074478D01*
X19133098Y26080416D01*
X19130965Y26088974D01*
X19129262Y26094797D01*
X19127990Y26103680D01*
X19109677Y26143958D01*
X19105865Y26153321D01*
X19093884Y26186509D01*
X19090836Y26194953D01*
X19085541Y26202201D01*
X19082699Y26207546D01*
X19078254Y26215152D01*
X19074976Y26220277D01*
X19071259Y26228453D01*
X19042375Y26261975D01*
X19036090Y26269890D01*
X19031581Y26276062D01*
X19031579Y26276064D01*
X19028711Y26279990D01*
X19018585Y26290116D01*
X19012227Y26296963D01*
X18987648Y26325488D01*
X18981789Y26332288D01*
X18974255Y26337171D01*
X18967493Y26343070D01*
X18967555Y26343141D01*
X18957105Y26351596D01*
X16754234Y28554467D01*
X16747200Y28563270D01*
X16746751Y28562888D01*
X16740935Y28569722D01*
X16736144Y28577315D01*
X16725740Y28586504D01*
X16698339Y28610703D01*
X16692651Y28616050D01*
X16682053Y28626648D01*
X16678472Y28629332D01*
X16678465Y28629338D01*
X16674419Y28632370D01*
X16666580Y28638752D01*
X16640135Y28662107D01*
X16633409Y28668047D01*
X16625283Y28671862D01*
X16620222Y28675186D01*
X16612669Y28679725D01*
X16607338Y28682644D01*
X16600150Y28688031D01*
X16558690Y28703573D01*
X16549413Y28707483D01*
X16509339Y28726298D01*
X16500471Y28727679D01*
X16494677Y28729450D01*
X16486141Y28731689D01*
X16480216Y28732992D01*
X16471808Y28736144D01*
X16427673Y28739424D01*
X16417641Y28740575D01*
X16405280Y28742500D01*
X16390953Y28742500D01*
X16381616Y28742846D01*
X16367283Y28743911D01*
X16335120Y28746301D01*
X16326344Y28744428D01*
X16317387Y28743817D01*
X16317381Y28743911D01*
X16304014Y28742500D01*
X15643311Y28742500D01*
X15575190Y28762502D01*
X15554236Y28779384D01*
X15540179Y28793435D01*
X15533611Y28800000D01*
X30716661Y28800000D01*
X30717351Y28793435D01*
X30734881Y28626648D01*
X30735964Y28616343D01*
X30793030Y28440714D01*
X30885364Y28280786D01*
X31008931Y28143551D01*
X31014273Y28139670D01*
X31014275Y28139668D01*
X31152988Y28038887D01*
X31158330Y28035006D01*
X31164358Y28032322D01*
X31164360Y28032321D01*
X31321002Y27962580D01*
X31327033Y27959895D01*
X31417350Y27940697D01*
X31501209Y27922872D01*
X31501214Y27922872D01*
X31507666Y27921500D01*
X31692334Y27921500D01*
X31698792Y27922873D01*
X31698795Y27922873D01*
X31708745Y27924988D01*
X31779536Y27919588D01*
X31836169Y27876772D01*
X31860664Y27810135D01*
X31845244Y27740833D01*
X31809005Y27699806D01*
X31788675Y27685035D01*
X31725931Y27639449D01*
X31721510Y27634539D01*
X31721509Y27634538D01*
X31621679Y27523665D01*
X31602364Y27502214D01*
X31510030Y27342286D01*
X31452964Y27166657D01*
X31452274Y27160091D01*
X31452273Y27160087D01*
X31444783Y27088821D01*
X31433661Y26983000D01*
X31434351Y26976435D01*
X31451616Y26812169D01*
X31452964Y26799343D01*
X31489562Y26686707D01*
X31507714Y26630843D01*
X31510030Y26623714D01*
X31602364Y26463786D01*
X31606782Y26458879D01*
X31606783Y26458878D01*
X31703380Y26351596D01*
X31725931Y26326551D01*
X31731273Y26322670D01*
X31731275Y26322668D01*
X31795423Y26276062D01*
X31875330Y26218006D01*
X31881358Y26215322D01*
X31881360Y26215321D01*
X32038002Y26145580D01*
X32044033Y26142895D01*
X32134349Y26123698D01*
X32218209Y26105872D01*
X32218214Y26105872D01*
X32224666Y26104500D01*
X32409334Y26104500D01*
X32415786Y26105872D01*
X32415791Y26105872D01*
X32499651Y26123698D01*
X32589967Y26142895D01*
X32595998Y26145580D01*
X32752640Y26215321D01*
X32752642Y26215322D01*
X32758670Y26218006D01*
X32838577Y26276062D01*
X32902725Y26322668D01*
X32902727Y26322670D01*
X32908069Y26326551D01*
X32930620Y26351596D01*
X33027217Y26458878D01*
X33027218Y26458879D01*
X33031636Y26463786D01*
X33123970Y26623714D01*
X33126287Y26630843D01*
X33144438Y26686707D01*
X33181036Y26799343D01*
X33182385Y26812169D01*
X33199649Y26976435D01*
X33200339Y26983000D01*
X33189217Y27088821D01*
X33181727Y27160087D01*
X33181726Y27160091D01*
X33181036Y27166657D01*
X33123970Y27342286D01*
X33031636Y27502214D01*
X33012322Y27523665D01*
X32912491Y27634538D01*
X32912490Y27634539D01*
X32908069Y27639449D01*
X32899693Y27645535D01*
X32764012Y27744113D01*
X32764011Y27744114D01*
X32758670Y27747994D01*
X32752642Y27750678D01*
X32752640Y27750679D01*
X32595998Y27820420D01*
X32595997Y27820420D01*
X32589967Y27823105D01*
X32499650Y27842303D01*
X32415791Y27860128D01*
X32415786Y27860128D01*
X32409334Y27861500D01*
X32224666Y27861500D01*
X32218208Y27860127D01*
X32218205Y27860127D01*
X32208255Y27858012D01*
X32137464Y27863412D01*
X32080831Y27906228D01*
X32056336Y27972865D01*
X32071756Y28042167D01*
X32107995Y28083194D01*
X32123186Y28094231D01*
X32191069Y28143551D01*
X32314636Y28280786D01*
X32406970Y28440714D01*
X32464036Y28616343D01*
X32465120Y28626648D01*
X32482649Y28793435D01*
X32483339Y28800000D01*
X32475602Y28873613D01*
X32464727Y28977087D01*
X32464726Y28977091D01*
X32464036Y28983657D01*
X32426234Y29100000D01*
X35616661Y29100000D01*
X35617351Y29093435D01*
X35629580Y28977087D01*
X35635964Y28916343D01*
X35673767Y28800000D01*
X35685951Y28762502D01*
X35693030Y28740714D01*
X35785364Y28580786D01*
X35789782Y28575879D01*
X35789783Y28575878D01*
X35816163Y28546580D01*
X35908931Y28443551D01*
X36058330Y28335006D01*
X36064358Y28332322D01*
X36064360Y28332321D01*
X36191134Y28275878D01*
X36227033Y28259895D01*
X36317349Y28240698D01*
X36401209Y28222872D01*
X36401214Y28222872D01*
X36407666Y28221500D01*
X36592334Y28221500D01*
X36598786Y28222872D01*
X36598791Y28222872D01*
X36682651Y28240698D01*
X36772967Y28259895D01*
X36808866Y28275878D01*
X36935640Y28332321D01*
X36935642Y28332322D01*
X36941670Y28335006D01*
X37091069Y28443551D01*
X37183837Y28546580D01*
X37210217Y28575878D01*
X37210218Y28575879D01*
X37214636Y28580786D01*
X37306970Y28740714D01*
X37314050Y28762502D01*
X37326233Y28800000D01*
X37364036Y28916343D01*
X37370421Y28977087D01*
X37382649Y29093435D01*
X37383339Y29100000D01*
X37381658Y29115996D01*
X37364727Y29277087D01*
X37364726Y29277091D01*
X37364036Y29283657D01*
X37306970Y29459286D01*
X37214636Y29619214D01*
X37201054Y29634299D01*
X37095491Y29751538D01*
X37095490Y29751539D01*
X37091069Y29756449D01*
X37079244Y29765041D01*
X36947012Y29861113D01*
X36947011Y29861114D01*
X36941670Y29864994D01*
X36935642Y29867678D01*
X36935640Y29867679D01*
X36778998Y29937420D01*
X36778997Y29937420D01*
X36772967Y29940105D01*
X36682651Y29959302D01*
X36598791Y29977128D01*
X36598786Y29977128D01*
X36592334Y29978500D01*
X36407666Y29978500D01*
X36401214Y29977128D01*
X36401209Y29977128D01*
X36317349Y29959302D01*
X36227033Y29940105D01*
X36221003Y29937420D01*
X36221002Y29937420D01*
X36064361Y29867679D01*
X36064359Y29867678D01*
X36058331Y29864994D01*
X36052990Y29861114D01*
X36052989Y29861113D01*
X35914275Y29760332D01*
X35914273Y29760330D01*
X35908931Y29756449D01*
X35904510Y29751539D01*
X35904509Y29751538D01*
X35798947Y29634299D01*
X35785364Y29619214D01*
X35693030Y29459286D01*
X35635964Y29283657D01*
X35635274Y29277091D01*
X35635273Y29277087D01*
X35618342Y29115996D01*
X35616661Y29100000D01*
X32426234Y29100000D01*
X32413784Y29138316D01*
X32409011Y29153005D01*
X32409010Y29153006D01*
X32406970Y29159286D01*
X32314636Y29319214D01*
X32293848Y29342302D01*
X32195491Y29451538D01*
X32195490Y29451539D01*
X32191069Y29456449D01*
X32157504Y29480836D01*
X32047012Y29561113D01*
X32047011Y29561114D01*
X32041670Y29564994D01*
X32035642Y29567678D01*
X32035640Y29567679D01*
X31878998Y29637420D01*
X31878997Y29637420D01*
X31872967Y29640105D01*
X31779863Y29659895D01*
X31698791Y29677128D01*
X31698786Y29677128D01*
X31692334Y29678500D01*
X31507666Y29678500D01*
X31501214Y29677128D01*
X31501209Y29677128D01*
X31420137Y29659895D01*
X31327033Y29640105D01*
X31321003Y29637420D01*
X31321002Y29637420D01*
X31164361Y29567679D01*
X31164359Y29567678D01*
X31158331Y29564994D01*
X31152990Y29561114D01*
X31152989Y29561113D01*
X31014275Y29460332D01*
X31014273Y29460330D01*
X31008931Y29456449D01*
X31004510Y29451539D01*
X31004509Y29451538D01*
X30906153Y29342302D01*
X30885364Y29319214D01*
X30793030Y29159286D01*
X30790990Y29153006D01*
X30790989Y29153005D01*
X30786216Y29138316D01*
X30735964Y28983657D01*
X30735274Y28977091D01*
X30735273Y28977087D01*
X30724398Y28873613D01*
X30716661Y28800000D01*
X15533611Y28800000D01*
X14222068Y30110938D01*
X16416650Y30110938D01*
X16433694Y29937117D01*
X16488824Y29771390D01*
X16492471Y29765368D01*
X16492472Y29765366D01*
X16575167Y29628821D01*
X16579300Y29621996D01*
X16700625Y29496360D01*
X16846771Y29400725D01*
X16853375Y29398269D01*
X16853377Y29398268D01*
X16875198Y29390153D01*
X17010472Y29339845D01*
X17017457Y29338913D01*
X17176612Y29317677D01*
X17176616Y29317677D01*
X17183593Y29316746D01*
X17190604Y29317384D01*
X17190608Y29317384D01*
X17350512Y29331936D01*
X17350515Y29331937D01*
X17357530Y29332575D01*
X17431720Y29356681D01*
X17516941Y29384371D01*
X17516943Y29384372D01*
X17523637Y29386547D01*
X17588617Y29425283D01*
X17667607Y29472370D01*
X17667609Y29472371D01*
X17673659Y29475978D01*
X17800139Y29596423D01*
X17866150Y29695778D01*
X17892891Y29736026D01*
X17892892Y29736028D01*
X17896792Y29741898D01*
X17958813Y29905170D01*
X17976877Y30033699D01*
X17982570Y30074203D01*
X17982570Y30074206D01*
X17983121Y30078125D01*
X17983426Y30100000D01*
X17982199Y30110938D01*
X18416650Y30110938D01*
X18433694Y29937117D01*
X18488824Y29771390D01*
X18492471Y29765368D01*
X18492472Y29765366D01*
X18575167Y29628821D01*
X18579300Y29621996D01*
X18700625Y29496360D01*
X18846771Y29400725D01*
X18853375Y29398269D01*
X18853377Y29398268D01*
X18875198Y29390153D01*
X19010472Y29339845D01*
X19017457Y29338913D01*
X19176612Y29317677D01*
X19176616Y29317677D01*
X19183593Y29316746D01*
X19190604Y29317384D01*
X19190608Y29317384D01*
X19350512Y29331936D01*
X19350515Y29331937D01*
X19357530Y29332575D01*
X19431720Y29356681D01*
X19516941Y29384371D01*
X19516943Y29384372D01*
X19523637Y29386547D01*
X19588617Y29425283D01*
X19667607Y29472370D01*
X19667609Y29472371D01*
X19673659Y29475978D01*
X19800139Y29596423D01*
X19866150Y29695778D01*
X19892891Y29736026D01*
X19892892Y29736028D01*
X19896792Y29741898D01*
X19932059Y29834739D01*
X19974948Y29891317D01*
X20041617Y29915726D01*
X20110898Y29900216D01*
X20160797Y29849712D01*
X20169401Y29829777D01*
X20188824Y29771390D01*
X20192471Y29765368D01*
X20192472Y29765366D01*
X20275167Y29628821D01*
X20279300Y29621996D01*
X20400625Y29496360D01*
X20546771Y29400725D01*
X20553375Y29398269D01*
X20553377Y29398268D01*
X20575198Y29390153D01*
X20710472Y29339845D01*
X20717457Y29338913D01*
X20876612Y29317677D01*
X20876616Y29317677D01*
X20883593Y29316746D01*
X20890604Y29317384D01*
X20890608Y29317384D01*
X21050512Y29331936D01*
X21050515Y29331937D01*
X21057530Y29332575D01*
X21131720Y29356681D01*
X21216941Y29384371D01*
X21216943Y29384372D01*
X21223637Y29386547D01*
X21288617Y29425283D01*
X21367607Y29472370D01*
X21367609Y29472371D01*
X21373659Y29475978D01*
X21500139Y29596423D01*
X21566150Y29695778D01*
X21592891Y29736026D01*
X21592892Y29736028D01*
X21596792Y29741898D01*
X21658813Y29905170D01*
X21676877Y30033699D01*
X21682570Y30074203D01*
X21682570Y30074206D01*
X21683121Y30078125D01*
X21683426Y30100000D01*
X21663957Y30273567D01*
X21606519Y30438507D01*
X21568094Y30500000D01*
X32816661Y30500000D01*
X32817351Y30493435D01*
X32830530Y30368046D01*
X32835964Y30316343D01*
X32893030Y30140714D01*
X32985364Y29980786D01*
X32989782Y29975879D01*
X32989783Y29975878D01*
X33104509Y29848462D01*
X33108931Y29843551D01*
X33114273Y29839670D01*
X33114275Y29839668D01*
X33239778Y29748485D01*
X33258330Y29735006D01*
X33264358Y29732322D01*
X33264360Y29732321D01*
X33421002Y29662580D01*
X33427033Y29659895D01*
X33513682Y29641477D01*
X33601209Y29622872D01*
X33601214Y29622872D01*
X33607666Y29621500D01*
X33792334Y29621500D01*
X33798786Y29622872D01*
X33798791Y29622872D01*
X33886318Y29641477D01*
X33972967Y29659895D01*
X33978998Y29662580D01*
X34135640Y29732321D01*
X34135642Y29732322D01*
X34141670Y29735006D01*
X34160222Y29748485D01*
X34285725Y29839668D01*
X34285727Y29839670D01*
X34291069Y29843551D01*
X34295491Y29848462D01*
X34410217Y29975878D01*
X34410218Y29975879D01*
X34414636Y29980786D01*
X34506970Y30140714D01*
X34564036Y30316343D01*
X34569471Y30368046D01*
X34582649Y30493435D01*
X34583339Y30500000D01*
X34564036Y30683657D01*
X34506970Y30859286D01*
X34414636Y31019214D01*
X34291069Y31156449D01*
X34282631Y31162580D01*
X34147012Y31261113D01*
X34147011Y31261114D01*
X34141670Y31264994D01*
X34135642Y31267678D01*
X34135640Y31267679D01*
X33978998Y31337420D01*
X33978997Y31337420D01*
X33972967Y31340105D01*
X33882651Y31359302D01*
X33798791Y31377128D01*
X33798786Y31377128D01*
X33792334Y31378500D01*
X33607666Y31378500D01*
X33601214Y31377128D01*
X33601209Y31377128D01*
X33517350Y31359303D01*
X33427033Y31340105D01*
X33421003Y31337420D01*
X33421002Y31337420D01*
X33264361Y31267679D01*
X33264359Y31267678D01*
X33258331Y31264994D01*
X33252990Y31261114D01*
X33252989Y31261113D01*
X33114275Y31160332D01*
X33114273Y31160330D01*
X33108931Y31156449D01*
X32985364Y31019214D01*
X32893030Y30859286D01*
X32835964Y30683657D01*
X32816661Y30500000D01*
X21568094Y30500000D01*
X21513966Y30586623D01*
X21505501Y30595148D01*
X21411368Y30689940D01*
X21390898Y30710554D01*
X21380193Y30717348D01*
X21331106Y30748499D01*
X21243431Y30804139D01*
X21215625Y30814040D01*
X21085531Y30860365D01*
X21085526Y30860366D01*
X21078896Y30862727D01*
X21071908Y30863560D01*
X21071905Y30863561D01*
X20949765Y30878125D01*
X20905469Y30883407D01*
X20898467Y30882671D01*
X20898465Y30882671D01*
X20738771Y30865886D01*
X20738769Y30865886D01*
X20731771Y30865150D01*
X20566433Y30808865D01*
X20511225Y30774901D01*
X20423677Y30721041D01*
X20423674Y30721039D01*
X20417675Y30717348D01*
X20292888Y30595148D01*
X20289069Y30589223D01*
X20289068Y30589221D01*
X20235800Y30506565D01*
X20198276Y30448339D01*
X20195867Y30441719D01*
X20195865Y30441716D01*
X20168448Y30366388D01*
X20126354Y30309217D01*
X20060032Y30283879D01*
X19990541Y30298420D01*
X19939942Y30348223D01*
X19931056Y30368046D01*
X19908837Y30431850D01*
X19906519Y30438507D01*
X19813966Y30586623D01*
X19805501Y30595148D01*
X19711368Y30689940D01*
X19690898Y30710554D01*
X19680193Y30717348D01*
X19631106Y30748499D01*
X19543431Y30804139D01*
X19515625Y30814040D01*
X19385531Y30860365D01*
X19385526Y30860366D01*
X19378896Y30862727D01*
X19371908Y30863560D01*
X19371905Y30863561D01*
X19249765Y30878125D01*
X19205469Y30883407D01*
X19198467Y30882671D01*
X19198465Y30882671D01*
X19038771Y30865886D01*
X19038769Y30865886D01*
X19031771Y30865150D01*
X18866433Y30808865D01*
X18811225Y30774901D01*
X18723677Y30721041D01*
X18723674Y30721039D01*
X18717675Y30717348D01*
X18592888Y30595148D01*
X18589069Y30589223D01*
X18589068Y30589221D01*
X18535800Y30506565D01*
X18498276Y30448339D01*
X18495867Y30441719D01*
X18495865Y30441716D01*
X18446987Y30307424D01*
X18438540Y30284216D01*
X18416650Y30110938D01*
X17982199Y30110938D01*
X17963957Y30273567D01*
X17906519Y30438507D01*
X17813966Y30586623D01*
X17805501Y30595148D01*
X17711368Y30689940D01*
X17690898Y30710554D01*
X17680193Y30717348D01*
X17631106Y30748499D01*
X17543431Y30804139D01*
X17515625Y30814040D01*
X17385531Y30860365D01*
X17385526Y30860366D01*
X17378896Y30862727D01*
X17371908Y30863560D01*
X17371905Y30863561D01*
X17249765Y30878125D01*
X17205469Y30883407D01*
X17198467Y30882671D01*
X17198465Y30882671D01*
X17038771Y30865886D01*
X17038769Y30865886D01*
X17031771Y30865150D01*
X16866433Y30808865D01*
X16811225Y30774901D01*
X16723677Y30721041D01*
X16723674Y30721039D01*
X16717675Y30717348D01*
X16592888Y30595148D01*
X16589069Y30589223D01*
X16589068Y30589221D01*
X16535800Y30506565D01*
X16498276Y30448339D01*
X16495867Y30441719D01*
X16495865Y30441716D01*
X16446987Y30307424D01*
X16438540Y30284216D01*
X16416650Y30110938D01*
X14222068Y30110938D01*
X13939149Y30393727D01*
X13905110Y30456031D01*
X13910158Y30526848D01*
X13914844Y30537461D01*
X13917792Y30541898D01*
X13979813Y30705170D01*
X13994706Y30811136D01*
X14003570Y30874203D01*
X14003570Y30874206D01*
X14004121Y30878125D01*
X14004426Y30900000D01*
X13984957Y31073567D01*
X13927519Y31238507D01*
X13834966Y31386623D01*
X13826501Y31395148D01*
X13762595Y31459501D01*
X13711898Y31510554D01*
X13701193Y31517348D01*
X13648102Y31551040D01*
X13564431Y31604139D01*
X13536625Y31614040D01*
X13406531Y31660365D01*
X13406526Y31660366D01*
X13399896Y31662727D01*
X13392908Y31663560D01*
X13392905Y31663561D01*
X13275334Y31677580D01*
X13226469Y31683407D01*
X13219467Y31682671D01*
X13219465Y31682671D01*
X13059771Y31665886D01*
X13059769Y31665886D01*
X13052771Y31665150D01*
X12980990Y31640714D01*
X12894103Y31611136D01*
X12894100Y31611135D01*
X12887433Y31608865D01*
X12881435Y31605175D01*
X12881433Y31605174D01*
X12823768Y31569698D01*
X12755267Y31551040D01*
X12690233Y31570630D01*
X12684029Y31574567D01*
X12637431Y31604139D01*
X12609625Y31614040D01*
X12479531Y31660365D01*
X12479526Y31660366D01*
X12472896Y31662727D01*
X12465908Y31663560D01*
X12465905Y31663561D01*
X12348334Y31677580D01*
X12299469Y31683407D01*
X12292467Y31682671D01*
X12292465Y31682671D01*
X12132771Y31665886D01*
X12132769Y31665886D01*
X12125771Y31665150D01*
X11960433Y31608865D01*
X11905225Y31574901D01*
X11817677Y31521041D01*
X11817674Y31521039D01*
X11811675Y31517348D01*
X11686888Y31395148D01*
X11683069Y31389223D01*
X11683068Y31389221D01*
X11649685Y31337420D01*
X11592276Y31248339D01*
X11589867Y31241719D01*
X11589865Y31241716D01*
X11539741Y31104000D01*
X11532540Y31084216D01*
X11510650Y30910938D01*
X11527694Y30737117D01*
X11529918Y30730432D01*
X11529918Y30730431D01*
X11535910Y30712419D01*
X11582824Y30571390D01*
X11586471Y30565368D01*
X11586472Y30565366D01*
X11663301Y30438507D01*
X11673300Y30421996D01*
X11794625Y30296360D01*
X11940771Y30200725D01*
X11947375Y30198269D01*
X11947377Y30198268D01*
X12022621Y30170285D01*
X12104472Y30139845D01*
X12111457Y30138913D01*
X12270613Y30117677D01*
X12270616Y30117677D01*
X12277593Y30116746D01*
X12284604Y30117384D01*
X12331519Y30121653D01*
X12401172Y30107906D01*
X12432032Y30085266D01*
X14871764Y27645535D01*
X14878798Y27636732D01*
X14879247Y27637114D01*
X14885066Y27630277D01*
X14889856Y27622685D01*
X14921959Y27594333D01*
X14927661Y27589297D01*
X14933349Y27583950D01*
X14943947Y27573352D01*
X14947528Y27570668D01*
X14947535Y27570662D01*
X14951581Y27567630D01*
X14959420Y27561248D01*
X14992591Y27531953D01*
X15000717Y27528138D01*
X15005778Y27524814D01*
X15013331Y27520275D01*
X15018662Y27517356D01*
X15025850Y27511969D01*
X15067310Y27496427D01*
X15076587Y27492517D01*
X15116661Y27473702D01*
X15125529Y27472321D01*
X15131323Y27470550D01*
X15139859Y27468311D01*
X15145784Y27467008D01*
X15154192Y27463856D01*
X15198327Y27460576D01*
X15208359Y27459425D01*
X15220720Y27457500D01*
X15235047Y27457500D01*
X15244385Y27457154D01*
X15290880Y27453699D01*
X15299656Y27455572D01*
X15308613Y27456183D01*
X15308619Y27456089D01*
X15321986Y27457500D01*
X15981608Y27457500D01*
X16049729Y27437498D01*
X16070703Y27420595D01*
X17820595Y25670704D01*
X17854620Y25608392D01*
X17857500Y25581609D01*
X17857500Y23251861D01*
X17837498Y23183740D01*
X17783842Y23137247D01*
X17772109Y23132585D01*
X17702433Y23108865D01*
X17675348Y23092202D01*
X17559677Y23021041D01*
X17559674Y23021039D01*
X17553675Y23017348D01*
X17428888Y22895148D01*
X17425069Y22889223D01*
X17425068Y22889221D01*
X17349383Y22771780D01*
X17334276Y22748339D01*
X17331867Y22741719D01*
X17331865Y22741716D01*
X17295949Y22643037D01*
X17274540Y22584216D01*
X17252650Y22410938D01*
X17269694Y22237117D01*
X17324824Y22071390D01*
X17328471Y22065368D01*
X17328472Y22065366D01*
X17411522Y21928235D01*
X17415300Y21921996D01*
X17536625Y21796360D01*
X17542522Y21792501D01*
X17547946Y21788014D01*
X17546048Y21785719D01*
X17583477Y21741803D01*
X17593006Y21671449D01*
X17562986Y21607112D01*
X17502948Y21569218D01*
X17468439Y21564400D01*
X17280291Y21564400D01*
X17212170Y21584402D01*
X17191196Y21601305D01*
X15516282Y23276219D01*
X15482256Y23338531D01*
X15480290Y23350177D01*
X15475282Y23391564D01*
X15464854Y23477734D01*
X15406805Y23631355D01*
X15373220Y23680221D01*
X15318090Y23760436D01*
X15318089Y23760437D01*
X15313788Y23766695D01*
X15307190Y23772574D01*
X15196844Y23870890D01*
X15196840Y23870893D01*
X15191173Y23875942D01*
X15046038Y23952786D01*
X14886763Y23992794D01*
X14879165Y23992834D01*
X14879163Y23992834D01*
X14808407Y23993204D01*
X14722542Y23993653D01*
X14715163Y23991881D01*
X14715159Y23991881D01*
X14627061Y23970730D01*
X14562857Y23955316D01*
X14416926Y23879996D01*
X14411206Y23875006D01*
X14411203Y23875004D01*
X14298898Y23777034D01*
X14298895Y23777031D01*
X14293173Y23772039D01*
X14261730Y23727300D01*
X14211078Y23655229D01*
X14198744Y23637680D01*
X14139090Y23484675D01*
X14138099Y23477148D01*
X14121192Y23348728D01*
X14117654Y23321857D01*
X14115039Y23322201D01*
X14097991Y23266287D01*
X14043857Y23220351D01*
X13992703Y23209500D01*
X13853395Y23209500D01*
X13785274Y23229502D01*
X13738781Y23283158D01*
X13728308Y23320363D01*
X13726278Y23337142D01*
X13713754Y23440634D01*
X13655705Y23594255D01*
X13639085Y23618437D01*
X13566990Y23723336D01*
X13566989Y23723337D01*
X13562688Y23729595D01*
X13542333Y23747731D01*
X13445744Y23833790D01*
X13445740Y23833793D01*
X13440073Y23838842D01*
X13324564Y23900000D01*
X13301647Y23912134D01*
X13301646Y23912134D01*
X13294938Y23915686D01*
X13135663Y23955694D01*
X13128065Y23955734D01*
X13128063Y23955734D01*
X13057307Y23956104D01*
X12971442Y23956553D01*
X12964063Y23954781D01*
X12964059Y23954781D01*
X12863654Y23930675D01*
X12811757Y23918216D01*
X12665826Y23842896D01*
X12660106Y23837906D01*
X12660103Y23837904D01*
X12547798Y23739934D01*
X12547795Y23739931D01*
X12542073Y23734939D01*
X12516522Y23698584D01*
X12461560Y23620380D01*
X12447644Y23600580D01*
X12387990Y23447575D01*
X12386999Y23440048D01*
X12371069Y23319053D01*
X12342346Y23254126D01*
X12283081Y23215035D01*
X12246147Y23209500D01*
X10817229Y23209500D01*
X10749108Y23229502D01*
X10733414Y23241420D01*
X10676373Y23292242D01*
X10531238Y23369086D01*
X10371963Y23409094D01*
X10364365Y23409134D01*
X10364363Y23409134D01*
X10293607Y23409504D01*
X10207742Y23409953D01*
X10200363Y23408181D01*
X10200359Y23408181D01*
X10131146Y23391564D01*
X10048057Y23371616D01*
X9902126Y23296296D01*
X9896406Y23291306D01*
X9896403Y23291304D01*
X9784098Y23193334D01*
X9784095Y23193331D01*
X9778373Y23188339D01*
X9757007Y23157938D01*
X9695226Y23070032D01*
X9683944Y23053980D01*
X9624290Y22900975D01*
X9623299Y22893448D01*
X9603845Y22745688D01*
X9603845Y22745684D01*
X9602854Y22738157D01*
X9608809Y22684216D01*
X9619119Y22590835D01*
X9620875Y22574926D01*
X9623484Y22567795D01*
X9623485Y22567793D01*
X9641732Y22517932D01*
X9677312Y22420705D01*
X9681549Y22414399D01*
X9681551Y22414396D01*
X9723790Y22351539D01*
X9768907Y22284398D01*
X9774525Y22279286D01*
X9884750Y22178988D01*
X9884754Y22178985D01*
X9890371Y22173874D01*
X9897044Y22170251D01*
X9897048Y22170248D01*
X10028020Y22099137D01*
X10034693Y22095514D01*
X10193541Y22053841D01*
X10278583Y22052505D01*
X10350145Y22051380D01*
X10350148Y22051380D01*
X10357743Y22051261D01*
X10517822Y22087924D01*
X10664534Y22161712D01*
X10670305Y22166641D01*
X10670308Y22166643D01*
X10735486Y22222311D01*
X10800276Y22251342D01*
X10817317Y22252500D01*
X14360408Y22252500D01*
X14428529Y22232498D01*
X14449503Y22215595D01*
X15634665Y21030433D01*
X15641697Y21021631D01*
X15642147Y21022014D01*
X15647966Y21015176D01*
X15652756Y21007585D01*
X15659483Y21001644D01*
X15659489Y21001637D01*
X15690552Y20974204D01*
X15696240Y20968858D01*
X15706847Y20958251D01*
X15710441Y20955558D01*
X15710443Y20955556D01*
X15714486Y20952526D01*
X15722330Y20946140D01*
X15733774Y20936033D01*
X15755491Y20916853D01*
X15763621Y20913036D01*
X15768689Y20909707D01*
X15776250Y20905164D01*
X15781564Y20902255D01*
X15788750Y20896869D01*
X15797159Y20893716D01*
X15797162Y20893715D01*
X15830189Y20881333D01*
X15839502Y20877409D01*
X15879561Y20858602D01*
X15888425Y20857222D01*
X15894203Y20855455D01*
X15902773Y20853207D01*
X15908689Y20851906D01*
X15917093Y20848756D01*
X15932490Y20847612D01*
X15998937Y20822617D01*
X16012243Y20811055D01*
X16361751Y20461548D01*
X16629634Y20193665D01*
X16663659Y20131352D01*
X16658595Y20060537D01*
X16616048Y20003701D01*
X16583324Y19986056D01*
X16578568Y19984339D01*
X16561828Y19980165D01*
X16556006Y19978462D01*
X16547120Y19977190D01*
X16513400Y19961858D01*
X16506844Y19958877D01*
X16497477Y19955064D01*
X16455848Y19940036D01*
X16448598Y19934739D01*
X16443236Y19931888D01*
X16435637Y19927447D01*
X16430520Y19924175D01*
X16422347Y19920459D01*
X16415548Y19914601D01*
X16415547Y19914600D01*
X16388828Y19891577D01*
X16380907Y19885288D01*
X16374749Y19880789D01*
X16370810Y19877911D01*
X16360684Y19867785D01*
X16353838Y19861428D01*
X16318512Y19830989D01*
X16313629Y19823455D01*
X16307730Y19816693D01*
X16307659Y19816755D01*
X16299204Y19806305D01*
X12319710Y15826811D01*
X12257398Y15792785D01*
X12186583Y15797850D01*
X12129747Y15840397D01*
X12104936Y15906917D01*
X12105872Y15933659D01*
X12127952Y16088802D01*
X12127952Y16088806D01*
X12128533Y16092886D01*
X12128683Y16107200D01*
X12121087Y16169975D01*
X12116047Y16211616D01*
X12108954Y16270234D01*
X12050905Y16423855D01*
X12040082Y16439602D01*
X11962190Y16552936D01*
X11962189Y16552937D01*
X11957888Y16559195D01*
X11951605Y16564793D01*
X11840944Y16663390D01*
X11840940Y16663393D01*
X11835273Y16668442D01*
X11709860Y16734844D01*
X11696847Y16741734D01*
X11696846Y16741734D01*
X11690138Y16745286D01*
X11682741Y16747144D01*
X11682719Y16747157D01*
X11675680Y16749859D01*
X11676130Y16751032D01*
X11621546Y16783139D01*
X11589525Y16846504D01*
X11596845Y16917123D01*
X11597830Y16919184D01*
X11598941Y16920730D01*
X11602577Y16929773D01*
X11657360Y17066052D01*
X11657360Y17066053D01*
X11660194Y17073102D01*
X11683333Y17235686D01*
X11683483Y17250000D01*
X11682009Y17262186D01*
X11664666Y17405494D01*
X11663754Y17413034D01*
X11605705Y17566655D01*
X11582788Y17600000D01*
X11516990Y17695736D01*
X11516989Y17695737D01*
X11512688Y17701995D01*
X11501084Y17712334D01*
X11395744Y17806190D01*
X11395740Y17806193D01*
X11390073Y17811242D01*
X11244938Y17888086D01*
X11085663Y17928094D01*
X11078065Y17928134D01*
X11078063Y17928134D01*
X11007307Y17928504D01*
X10921442Y17928953D01*
X10914063Y17927181D01*
X10914059Y17927181D01*
X10850590Y17911943D01*
X10761757Y17890616D01*
X10615826Y17815296D01*
X10610106Y17810306D01*
X10610103Y17810304D01*
X10497798Y17712334D01*
X10497795Y17712331D01*
X10492073Y17707339D01*
X10452061Y17650408D01*
X10403704Y17581602D01*
X10397644Y17572980D01*
X10337990Y17419975D01*
X10336999Y17412448D01*
X10317545Y17264688D01*
X10317545Y17264684D01*
X10316554Y17257157D01*
X10319472Y17230727D01*
X10329920Y17136094D01*
X10334575Y17093926D01*
X10337184Y17086795D01*
X10337185Y17086793D01*
X10391012Y16939705D01*
X10388931Y16938944D01*
X10400000Y16880024D01*
X10373302Y16814238D01*
X10315276Y16773330D01*
X10304043Y16770074D01*
X10181757Y16740716D01*
X10035826Y16665396D01*
X10030106Y16660406D01*
X10030103Y16660404D01*
X9958829Y16598227D01*
X9912073Y16557439D01*
X9911983Y16557542D01*
X9854706Y16522254D01*
X9783722Y16523605D01*
X9737693Y16549730D01*
X9724773Y16561242D01*
X9718069Y16564791D01*
X9718067Y16564793D01*
X9586347Y16634534D01*
X9586346Y16634534D01*
X9579638Y16638086D01*
X9420363Y16678094D01*
X9412765Y16678134D01*
X9412763Y16678134D01*
X9342007Y16678504D01*
X9256142Y16678953D01*
X9248763Y16677181D01*
X9248759Y16677181D01*
X9165780Y16657259D01*
X9096457Y16640616D01*
X8950526Y16565296D01*
X8944806Y16560306D01*
X8944803Y16560304D01*
X8832498Y16462334D01*
X8832495Y16462331D01*
X8826773Y16457339D01*
X8789294Y16404012D01*
X8749727Y16347713D01*
X8732344Y16322980D01*
X8699952Y16239898D01*
X8676640Y16180105D01*
X8672690Y16169975D01*
X8671699Y16162448D01*
X8652245Y16014688D01*
X8652245Y16014684D01*
X8651254Y16007157D01*
X8656711Y15957728D01*
X8668113Y15854452D01*
X8669275Y15843926D01*
X8671884Y15836795D01*
X8671885Y15836793D01*
X8706241Y15742912D01*
X8710867Y15672067D01*
X8676000Y15609517D01*
X8675326Y15608858D01*
X8672465Y15606379D01*
X8669926Y15603579D01*
X8669922Y15603575D01*
X8617601Y15545874D01*
X8611544Y15539194D01*
X8557313Y15427199D01*
X8537311Y15359078D01*
X8536671Y15354630D01*
X8536670Y15354623D01*
X8522639Y15257032D01*
X8522639Y15257025D01*
X8522000Y15252584D01*
X8522000Y12816800D01*
X8501998Y12748679D01*
X8448342Y12702186D01*
X8396000Y12690800D01*
X7976176Y12690800D01*
X7908055Y12710802D01*
X7861562Y12764458D01*
X7858431Y12771972D01*
X7858389Y12772053D01*
X7855705Y12779155D01*
X7813702Y12840269D01*
X7766990Y12908236D01*
X7766989Y12908237D01*
X7762688Y12914495D01*
X7751084Y12924834D01*
X7645744Y13018690D01*
X7645740Y13018693D01*
X7640073Y13023742D01*
X7494938Y13100586D01*
X7335663Y13140594D01*
X7328065Y13140634D01*
X7328063Y13140634D01*
X7257307Y13141004D01*
X7171442Y13141453D01*
X7164063Y13139681D01*
X7164059Y13139681D01*
X7063654Y13115575D01*
X7011757Y13103116D01*
X6865826Y13027796D01*
X6860106Y13022806D01*
X6860103Y13022804D01*
X6747798Y12924834D01*
X6747795Y12924831D01*
X6742073Y12919839D01*
X6717536Y12884926D01*
X6656518Y12798106D01*
X6647644Y12785480D01*
X6587990Y12632475D01*
X6586999Y12624948D01*
X6567545Y12477188D01*
X6567545Y12477184D01*
X6566554Y12469657D01*
X2892342Y12469657D01*
X2872113Y12482576D01*
X2842435Y12547072D01*
X2852338Y12617375D01*
X2898678Y12671163D01*
X2906015Y12675562D01*
X2910749Y12678186D01*
X2936323Y12692362D01*
X3087256Y12821727D01*
X3091165Y12826766D01*
X3205182Y12973756D01*
X3205184Y12973759D01*
X3209094Y12978800D01*
X3216108Y12993053D01*
X3294041Y13151434D01*
X3296860Y13157163D01*
X3346968Y13349531D01*
X3355140Y13505453D01*
X3357038Y13541664D01*
X3357038Y13541669D01*
X3357372Y13548046D01*
X3327646Y13744598D01*
X3259005Y13931158D01*
X3255647Y13936574D01*
X3255645Y13936578D01*
X3157616Y14094683D01*
X3157613Y14094687D01*
X3154253Y14100106D01*
X3047462Y14213034D01*
X3022058Y14239898D01*
X3022057Y14239899D01*
X3017669Y14244539D01*
X2928241Y14307157D01*
X5416554Y14307157D01*
X5420414Y14272198D01*
X5433498Y14153684D01*
X5434575Y14143926D01*
X5437184Y14136795D01*
X5437185Y14136793D01*
X5450611Y14100106D01*
X5491012Y13989705D01*
X5495249Y13983399D01*
X5495251Y13983396D01*
X5534377Y13925172D01*
X5582607Y13853398D01*
X5588225Y13848286D01*
X5698450Y13747988D01*
X5698454Y13747985D01*
X5704071Y13742874D01*
X5710744Y13739251D01*
X5710748Y13739248D01*
X5841720Y13668137D01*
X5848393Y13664514D01*
X6007241Y13622841D01*
X6092283Y13621505D01*
X6163845Y13620380D01*
X6163848Y13620380D01*
X6171443Y13620261D01*
X6331522Y13656924D01*
X6478234Y13730712D01*
X6603110Y13837367D01*
X6698941Y13970730D01*
X6702982Y13980781D01*
X6757360Y14116052D01*
X6757360Y14116053D01*
X6760194Y14123102D01*
X6776405Y14237006D01*
X6782752Y14281602D01*
X6782752Y14281606D01*
X6783333Y14285686D01*
X6783483Y14300000D01*
X6763754Y14463034D01*
X6705705Y14616655D01*
X6676048Y14659806D01*
X6616990Y14745736D01*
X6616989Y14745737D01*
X6612688Y14751995D01*
X6566807Y14792874D01*
X6495744Y14856190D01*
X6495740Y14856193D01*
X6490073Y14861242D01*
X6344938Y14938086D01*
X6185663Y14978094D01*
X6178065Y14978134D01*
X6178063Y14978134D01*
X6107307Y14978504D01*
X6021442Y14978953D01*
X6014063Y14977181D01*
X6014059Y14977181D01*
X5922624Y14955229D01*
X5861757Y14940616D01*
X5715826Y14865296D01*
X5710106Y14860306D01*
X5710103Y14860304D01*
X5597798Y14762334D01*
X5597795Y14762331D01*
X5592073Y14757339D01*
X5560621Y14712587D01*
X5502982Y14630575D01*
X5497644Y14622980D01*
X5437990Y14469975D01*
X5436999Y14462448D01*
X5417545Y14314688D01*
X5417545Y14314684D01*
X5416554Y14307157D01*
X2928241Y14307157D01*
X2854832Y14358559D01*
X2848972Y14361095D01*
X2848970Y14361096D01*
X2797419Y14383404D01*
X2742844Y14428815D01*
X2721484Y14496522D01*
X2740120Y14565029D01*
X2786373Y14609243D01*
X2851066Y14645103D01*
X2936323Y14692362D01*
X3087256Y14821727D01*
X3113682Y14855795D01*
X3205182Y14973756D01*
X3205184Y14973759D01*
X3209094Y14978800D01*
X3216618Y14994089D01*
X3294041Y15151434D01*
X3296860Y15157163D01*
X3346968Y15349531D01*
X3354594Y15495038D01*
X3357038Y15541664D01*
X3357038Y15541669D01*
X3357372Y15548046D01*
X3327646Y15744598D01*
X3259005Y15931158D01*
X3255647Y15936574D01*
X3255645Y15936578D01*
X3157616Y16094683D01*
X3157613Y16094687D01*
X3154253Y16100106D01*
X3080334Y16178273D01*
X3022058Y16239898D01*
X3022057Y16239899D01*
X3017669Y16244539D01*
X3010881Y16249292D01*
X2908714Y16320831D01*
X2864386Y16376289D01*
X2857077Y16446908D01*
X2889108Y16510268D01*
X2923293Y16536060D01*
X2970978Y16560619D01*
X2981024Y16567069D01*
X3137857Y16690262D01*
X3146506Y16698499D01*
X3277212Y16849123D01*
X3284147Y16858847D01*
X3384010Y17031467D01*
X3388984Y17042331D01*
X3454407Y17230727D01*
X3454648Y17231716D01*
X3453180Y17242008D01*
X3439615Y17246000D01*
X764598Y17246000D01*
X751067Y17242027D01*
X749712Y17232601D01*
X400000Y17232601D01*
X400000Y17768284D01*
X745352Y17768284D01*
X746820Y17757992D01*
X760385Y17754000D01*
X3435402Y17754000D01*
X3448933Y17757973D01*
X3450288Y17767399D01*
X3428806Y17856537D01*
X3424917Y17867832D01*
X3342371Y18049382D01*
X3336424Y18059724D01*
X3221032Y18222397D01*
X3213239Y18231425D01*
X3069169Y18369342D01*
X3059804Y18376738D01*
X2916436Y18469310D01*
X2870058Y18523066D01*
X2860105Y18593361D01*
X2889737Y18657878D01*
X2923697Y18685363D01*
X2936323Y18692362D01*
X3087256Y18821727D01*
X3096450Y18833580D01*
X3205182Y18973756D01*
X3205184Y18973759D01*
X3209094Y18978800D01*
X3241810Y19045286D01*
X3294041Y19151434D01*
X3296860Y19157163D01*
X3346968Y19349531D01*
X3354903Y19500929D01*
X3357038Y19541664D01*
X3357038Y19541669D01*
X3357372Y19548046D01*
X3327646Y19744598D01*
X3259005Y19931158D01*
X3255647Y19936574D01*
X3255645Y19936578D01*
X3157616Y20094683D01*
X3157613Y20094687D01*
X3154253Y20100106D01*
X3017669Y20244539D01*
X2854832Y20358559D01*
X2672395Y20437507D01*
X2477809Y20478158D01*
X2472967Y20478412D01*
X2472962Y20478412D01*
X2471283Y20478500D01*
X1775324Y20478500D01*
X1701826Y20471034D01*
X1633580Y20464102D01*
X1633579Y20464102D01*
X1627231Y20463457D01*
X1437540Y20404012D01*
X1263677Y20307638D01*
X1258829Y20303482D01*
X1258828Y20303482D01*
X1250142Y20296037D01*
X1112744Y20178273D01*
X1108837Y20173236D01*
X1108835Y20173234D01*
X994818Y20026244D01*
X994816Y20026241D01*
X990906Y20021200D01*
X988088Y20015474D01*
X988086Y20015470D01*
X907646Y19851995D01*
X903140Y19842837D01*
X853032Y19650469D01*
X851720Y19625434D01*
X845195Y19500929D01*
X842628Y19451954D01*
X872354Y19255402D01*
X940995Y19068842D01*
X944353Y19063426D01*
X944355Y19063422D01*
X1042384Y18905317D01*
X1042387Y18905313D01*
X1045747Y18899894D01*
X1050133Y18895256D01*
X1164886Y18773909D01*
X1182331Y18755461D01*
X1187561Y18751799D01*
X1187562Y18751798D01*
X1291286Y18679169D01*
X1335614Y18623711D01*
X1342923Y18553092D01*
X1310892Y18489732D01*
X1276707Y18463940D01*
X1229022Y18439381D01*
X1218976Y18432931D01*
X1062143Y18309738D01*
X1053494Y18301501D01*
X922788Y18150877D01*
X915853Y18141153D01*
X815990Y17968533D01*
X811016Y17957669D01*
X745593Y17769273D01*
X745352Y17768284D01*
X400000Y17768284D01*
X400000Y21307157D01*
X4316554Y21307157D01*
X4323046Y21248355D01*
X4332543Y21162334D01*
X4334575Y21143926D01*
X4337184Y21136795D01*
X4337185Y21136793D01*
X4342223Y21123026D01*
X4391012Y20989705D01*
X4395249Y20983399D01*
X4395251Y20983396D01*
X4423137Y20941898D01*
X4482607Y20853398D01*
X4488225Y20848286D01*
X4598450Y20747988D01*
X4598454Y20747985D01*
X4604071Y20742874D01*
X4610744Y20739251D01*
X4610748Y20739248D01*
X4710802Y20684924D01*
X4748393Y20664514D01*
X4907241Y20622841D01*
X4992283Y20621505D01*
X5063845Y20620380D01*
X5063848Y20620380D01*
X5071443Y20620261D01*
X5231522Y20656924D01*
X5331400Y20707157D01*
X9216554Y20707157D01*
X9234575Y20543926D01*
X9237184Y20536795D01*
X9237185Y20536793D01*
X9254004Y20490835D01*
X9291012Y20389705D01*
X9295249Y20383399D01*
X9295251Y20383396D01*
X9310238Y20361094D01*
X9382607Y20253398D01*
X9388225Y20248286D01*
X9498450Y20147988D01*
X9498454Y20147985D01*
X9504071Y20142874D01*
X9510744Y20139251D01*
X9510748Y20139248D01*
X9641381Y20068321D01*
X9648393Y20064514D01*
X9655734Y20062588D01*
X9655737Y20062587D01*
X9740184Y20040433D01*
X9801000Y20003799D01*
X9826536Y19961859D01*
X9872812Y19835405D01*
X9877049Y19829099D01*
X9877051Y19829096D01*
X9886047Y19815709D01*
X9964407Y19699098D01*
X9970025Y19693986D01*
X10080250Y19593688D01*
X10080254Y19593685D01*
X10085871Y19588574D01*
X10092544Y19584951D01*
X10092548Y19584948D01*
X10216448Y19517677D01*
X10230193Y19510214D01*
X10389041Y19468541D01*
X10474083Y19467205D01*
X10545645Y19466080D01*
X10545648Y19466080D01*
X10553243Y19465961D01*
X10713322Y19502624D01*
X10860034Y19576412D01*
X10984910Y19683067D01*
X11080741Y19816430D01*
X11091749Y19843812D01*
X11139160Y19961752D01*
X11139160Y19961753D01*
X11141994Y19968802D01*
X11157379Y20076901D01*
X11164552Y20127302D01*
X11164552Y20127306D01*
X11165133Y20131386D01*
X11165283Y20145700D01*
X11145554Y20308734D01*
X11087505Y20462355D01*
X11060148Y20502160D01*
X10998790Y20591436D01*
X10998789Y20591437D01*
X10994488Y20597695D01*
X10969161Y20620261D01*
X10877544Y20701890D01*
X10877540Y20701893D01*
X10871873Y20706942D01*
X10726738Y20783786D01*
X10719379Y20785635D01*
X10719375Y20785636D01*
X10643634Y20804661D01*
X10582438Y20840657D01*
X10556464Y20882327D01*
X10508389Y21009552D01*
X10505705Y21016655D01*
X10423136Y21136793D01*
X10416990Y21145736D01*
X10416989Y21145737D01*
X10412688Y21151995D01*
X10383848Y21177691D01*
X10295744Y21256190D01*
X10295740Y21256193D01*
X10290073Y21261242D01*
X10144938Y21338086D01*
X9985663Y21378094D01*
X9978065Y21378134D01*
X9978063Y21378134D01*
X9907307Y21378504D01*
X9821442Y21378953D01*
X9814063Y21377181D01*
X9814059Y21377181D01*
X9737765Y21358864D01*
X9661757Y21340616D01*
X9515826Y21265296D01*
X9510106Y21260306D01*
X9510103Y21260304D01*
X9397798Y21162334D01*
X9397795Y21162331D01*
X9392073Y21157339D01*
X9366955Y21121600D01*
X9313194Y21045105D01*
X9297644Y21022980D01*
X9237990Y20869975D01*
X9236999Y20862448D01*
X9217545Y20714688D01*
X9217545Y20714684D01*
X9216554Y20707157D01*
X5331400Y20707157D01*
X5378234Y20730712D01*
X5460949Y20801358D01*
X5497338Y20832437D01*
X5497339Y20832438D01*
X5503110Y20837367D01*
X5598941Y20970730D01*
X5614703Y21009938D01*
X5658666Y21065680D01*
X5725790Y21088806D01*
X5791729Y21073671D01*
X5819093Y21058814D01*
X5977941Y21017141D01*
X6062983Y21015805D01*
X6134545Y21014680D01*
X6134548Y21014680D01*
X6142143Y21014561D01*
X6302222Y21051224D01*
X6448934Y21125012D01*
X6549980Y21211314D01*
X6568038Y21226737D01*
X6568039Y21226738D01*
X6573810Y21231667D01*
X6669641Y21365030D01*
X6674199Y21376367D01*
X6728060Y21510352D01*
X6728060Y21510353D01*
X6730894Y21517402D01*
X6747195Y21631938D01*
X6753452Y21675902D01*
X6753452Y21675906D01*
X6754033Y21679986D01*
X6754183Y21694300D01*
X6750874Y21721649D01*
X6743011Y21786623D01*
X6734454Y21857334D01*
X6676405Y22010955D01*
X6626610Y22083407D01*
X6587690Y22140036D01*
X6587689Y22140037D01*
X6583388Y22146295D01*
X6566085Y22161712D01*
X6466444Y22250490D01*
X6466440Y22250493D01*
X6460773Y22255542D01*
X6315638Y22332386D01*
X6156363Y22372394D01*
X6148765Y22372434D01*
X6148763Y22372434D01*
X6078007Y22372804D01*
X5992142Y22373253D01*
X5984763Y22371481D01*
X5984759Y22371481D01*
X5884354Y22347375D01*
X5832457Y22334916D01*
X5686526Y22259596D01*
X5680806Y22254606D01*
X5680803Y22254604D01*
X5568498Y22156634D01*
X5568495Y22156631D01*
X5562773Y22151639D01*
X5534706Y22111703D01*
X5481522Y22036030D01*
X5468344Y22017280D01*
X5455895Y21985350D01*
X5412515Y21929148D01*
X5345637Y21905321D01*
X5279544Y21919764D01*
X5251651Y21934533D01*
X5251642Y21934536D01*
X5244938Y21938086D01*
X5085663Y21978094D01*
X5078065Y21978134D01*
X5078063Y21978134D01*
X5007307Y21978504D01*
X4921442Y21978953D01*
X4914063Y21977181D01*
X4914059Y21977181D01*
X4813654Y21953075D01*
X4761757Y21940616D01*
X4615826Y21865296D01*
X4610106Y21860306D01*
X4610103Y21860304D01*
X4497798Y21762334D01*
X4497795Y21762331D01*
X4492073Y21757339D01*
X4466990Y21721649D01*
X4403940Y21631938D01*
X4397644Y21622980D01*
X4337990Y21469975D01*
X4336999Y21462448D01*
X4317545Y21314688D01*
X4317545Y21314684D01*
X4316554Y21307157D01*
X400000Y21307157D01*
X400000Y25726249D01*
X420002Y25794370D01*
X473658Y25840863D01*
X543932Y25850967D01*
X608512Y25821473D01*
X647707Y25758860D01*
X689678Y25602223D01*
X692000Y25597243D01*
X692001Y25597241D01*
X752348Y25467828D01*
X780524Y25407404D01*
X903819Y25231319D01*
X1055819Y25079319D01*
X1231903Y24956024D01*
X1236881Y24953703D01*
X1236884Y24953701D01*
X1421741Y24867501D01*
X1426723Y24865178D01*
X1432031Y24863756D01*
X1432033Y24863755D01*
X1629043Y24810966D01*
X1629045Y24810966D01*
X1634358Y24809542D01*
X1848500Y24790807D01*
X2062642Y24809542D01*
X2067955Y24810966D01*
X2067957Y24810966D01*
X2264967Y24863755D01*
X2264969Y24863756D01*
X2270277Y24865178D01*
X2275259Y24867501D01*
X2460116Y24953701D01*
X2460119Y24953703D01*
X2465097Y24956024D01*
X2641181Y25079319D01*
X2793181Y25231319D01*
X2916476Y25407404D01*
X2919805Y25414543D01*
X2920501Y25415334D01*
X2921554Y25417157D01*
X2921920Y25416945D01*
X2966723Y25467828D01*
X3035000Y25487289D01*
X3102960Y25466747D01*
X3149025Y25412724D01*
X3160000Y25361293D01*
X3160000Y25138122D01*
X3160670Y25133572D01*
X3160670Y25133569D01*
X3161395Y25128648D01*
X3151530Y25058340D01*
X3105220Y25004527D01*
X3094527Y24998326D01*
X3090177Y24996081D01*
X3090173Y24996079D01*
X3083426Y24992596D01*
X3077706Y24987606D01*
X3077703Y24987604D01*
X2965398Y24889634D01*
X2965395Y24889631D01*
X2959673Y24884639D01*
X2942570Y24860304D01*
X2870001Y24757048D01*
X2865244Y24750280D01*
X2824431Y24645600D01*
X2808669Y24605171D01*
X2805590Y24597275D01*
X2804599Y24589748D01*
X2785145Y24441988D01*
X2785145Y24441984D01*
X2784154Y24434457D01*
X2788449Y24395552D01*
X2800579Y24285686D01*
X2802175Y24271226D01*
X2804784Y24264095D01*
X2804785Y24264093D01*
X2823943Y24211742D01*
X2858612Y24117005D01*
X2862849Y24110699D01*
X2862851Y24110696D01*
X2892504Y24066568D01*
X2950207Y23980698D01*
X2955825Y23975586D01*
X3066050Y23875288D01*
X3066054Y23875285D01*
X3071671Y23870174D01*
X3078344Y23866551D01*
X3078348Y23866548D01*
X3204266Y23798181D01*
X3215993Y23791814D01*
X3374841Y23750141D01*
X3459883Y23748805D01*
X3531445Y23747680D01*
X3531448Y23747680D01*
X3539043Y23747561D01*
X3699122Y23784224D01*
X3755317Y23812487D01*
X3825161Y23825225D01*
X3890805Y23798181D01*
X3916512Y23770198D01*
X3940401Y23734648D01*
X4004407Y23639398D01*
X4010025Y23634286D01*
X4120250Y23533988D01*
X4120254Y23533985D01*
X4125871Y23528874D01*
X4132544Y23525251D01*
X4132548Y23525248D01*
X4262275Y23454813D01*
X4270193Y23450514D01*
X4429041Y23408841D01*
X4514083Y23407505D01*
X4585645Y23406380D01*
X4585648Y23406380D01*
X4593243Y23406261D01*
X4753322Y23442924D01*
X4888554Y23510938D01*
X4893250Y23513300D01*
X4900034Y23516712D01*
X4989941Y23593500D01*
X5019138Y23618437D01*
X5019139Y23618438D01*
X5024910Y23623367D01*
X5120741Y23756730D01*
X5124204Y23765343D01*
X5179160Y23902052D01*
X5179160Y23902053D01*
X5181994Y23909102D01*
X5205133Y24071686D01*
X5205212Y24079242D01*
X5205240Y24081880D01*
X5205240Y24081883D01*
X5205283Y24086000D01*
X5203916Y24097302D01*
X5193829Y24180649D01*
X5185554Y24249034D01*
X5152368Y24336857D01*
X6519254Y24336857D01*
X6525155Y24283407D01*
X6534324Y24200360D01*
X6537275Y24173626D01*
X6539884Y24166495D01*
X6539885Y24166493D01*
X6550754Y24136793D01*
X6593712Y24019405D01*
X6597949Y24013099D01*
X6597951Y24013096D01*
X6623157Y23975586D01*
X6685307Y23883098D01*
X6690925Y23877986D01*
X6801150Y23777688D01*
X6801154Y23777685D01*
X6806771Y23772574D01*
X6813444Y23768951D01*
X6813448Y23768948D01*
X6940436Y23700000D01*
X6951093Y23694214D01*
X7109941Y23652541D01*
X7194983Y23651205D01*
X7266545Y23650080D01*
X7266548Y23650080D01*
X7274143Y23649961D01*
X7434222Y23686624D01*
X7580934Y23760412D01*
X7681588Y23846379D01*
X7700038Y23862137D01*
X7700039Y23862138D01*
X7705810Y23867067D01*
X7801641Y24000430D01*
X7823283Y24054265D01*
X7860060Y24145752D01*
X7860060Y24145753D01*
X7862894Y24152802D01*
X7878539Y24262727D01*
X7884862Y24307157D01*
X15816554Y24307157D01*
X15822971Y24249034D01*
X15832765Y24160323D01*
X15834575Y24143926D01*
X15837184Y24136795D01*
X15837185Y24136793D01*
X15844654Y24116383D01*
X15891012Y23989705D01*
X15895249Y23983399D01*
X15895251Y23983396D01*
X15937490Y23920539D01*
X15982607Y23853398D01*
X15988225Y23848286D01*
X16098450Y23747988D01*
X16098454Y23747985D01*
X16104071Y23742874D01*
X16110744Y23739251D01*
X16110748Y23739248D01*
X16228354Y23675394D01*
X16248393Y23664514D01*
X16407241Y23622841D01*
X16492283Y23621505D01*
X16563845Y23620380D01*
X16563848Y23620380D01*
X16571443Y23620261D01*
X16731522Y23656924D01*
X16878234Y23730712D01*
X16957229Y23798181D01*
X16997338Y23832437D01*
X16997339Y23832438D01*
X17003110Y23837367D01*
X17098941Y23970730D01*
X17102929Y23980649D01*
X17157360Y24116052D01*
X17157360Y24116053D01*
X17160194Y24123102D01*
X17175671Y24231850D01*
X17182752Y24281602D01*
X17182752Y24281606D01*
X17183333Y24285686D01*
X17183483Y24300000D01*
X17182116Y24311302D01*
X17175425Y24366593D01*
X17163754Y24463034D01*
X17105705Y24616655D01*
X17092634Y24635674D01*
X17016990Y24745736D01*
X17016989Y24745737D01*
X17012688Y24751995D01*
X16999109Y24764094D01*
X16895744Y24856190D01*
X16895740Y24856193D01*
X16890073Y24861242D01*
X16744938Y24938086D01*
X16585663Y24978094D01*
X16578065Y24978134D01*
X16578063Y24978134D01*
X16507307Y24978504D01*
X16421442Y24978953D01*
X16414063Y24977181D01*
X16414059Y24977181D01*
X16339077Y24959179D01*
X16261757Y24940616D01*
X16115826Y24865296D01*
X16110106Y24860306D01*
X16110103Y24860304D01*
X15997798Y24762334D01*
X15997795Y24762331D01*
X15992073Y24757339D01*
X15956458Y24706664D01*
X15913542Y24645600D01*
X15897644Y24622980D01*
X15837990Y24469975D01*
X15836999Y24462448D01*
X15817545Y24314688D01*
X15817545Y24314684D01*
X15816554Y24307157D01*
X7884862Y24307157D01*
X7885452Y24311302D01*
X7885452Y24311306D01*
X7886033Y24315386D01*
X7886183Y24329700D01*
X7866454Y24492734D01*
X7808405Y24646355D01*
X7796580Y24663561D01*
X7719690Y24775436D01*
X7719689Y24775437D01*
X7715388Y24781695D01*
X7705161Y24790807D01*
X7598444Y24885890D01*
X7598440Y24885893D01*
X7592773Y24890942D01*
X7447638Y24967786D01*
X7288363Y25007794D01*
X7280765Y25007834D01*
X7280763Y25007834D01*
X7210007Y25008204D01*
X7124142Y25008653D01*
X7116763Y25006881D01*
X7116759Y25006881D01*
X7016354Y24982775D01*
X6964457Y24970316D01*
X6818526Y24894996D01*
X6812806Y24890006D01*
X6812803Y24890004D01*
X6700498Y24792034D01*
X6700495Y24792031D01*
X6694773Y24787039D01*
X6654761Y24730108D01*
X6638285Y24706664D01*
X6600344Y24652680D01*
X6540690Y24499675D01*
X6539699Y24492148D01*
X6520245Y24344388D01*
X6520245Y24344384D01*
X6519254Y24336857D01*
X5152368Y24336857D01*
X5127505Y24402655D01*
X5086410Y24462448D01*
X5038790Y24531736D01*
X5038789Y24531737D01*
X5034488Y24537995D01*
X4992479Y24575424D01*
X4954923Y24635674D01*
X4955904Y24706664D01*
X4995108Y24765855D01*
X5060090Y24794453D01*
X5076298Y24795500D01*
X5274378Y24795500D01*
X5278927Y24796170D01*
X5278932Y24796170D01*
X5339085Y24805025D01*
X5339087Y24805026D01*
X5348770Y24806451D01*
X5461880Y24861986D01*
X5534302Y24934534D01*
X5543548Y24943796D01*
X5543548Y24943797D01*
X5550904Y24951165D01*
X5584183Y25019246D01*
X5601947Y25055587D01*
X5601947Y25055588D01*
X5606241Y25064372D01*
X5617000Y25138122D01*
X5617000Y26909878D01*
X5606049Y26984270D01*
X5550514Y27097380D01*
X5487698Y27160087D01*
X5468704Y27179048D01*
X5468703Y27179048D01*
X5461335Y27186404D01*
X5385535Y27223456D01*
X5356913Y27237447D01*
X5356912Y27237447D01*
X5348128Y27241741D01*
X5338453Y27243152D01*
X5338451Y27243153D01*
X5278904Y27251840D01*
X5278900Y27251840D01*
X5274378Y27252500D01*
X5051208Y27252500D01*
X4983087Y27272502D01*
X4936594Y27326158D01*
X4926490Y27396432D01*
X4955984Y27461012D01*
X4995434Y27490790D01*
X4995344Y27490946D01*
X4996607Y27491675D01*
X4997958Y27492695D01*
X5000116Y27493701D01*
X5000119Y27493703D01*
X5005097Y27496024D01*
X5181181Y27619319D01*
X5333181Y27771319D01*
X5445006Y27931023D01*
X5500463Y27975351D01*
X5571082Y27982660D01*
X5608341Y27969483D01*
X5700237Y27919588D01*
X5708293Y27915214D01*
X5867141Y27873541D01*
X5952183Y27872205D01*
X6023745Y27871080D01*
X6023748Y27871080D01*
X6031343Y27870961D01*
X6191422Y27907624D01*
X6338134Y27981412D01*
X6463010Y28088067D01*
X6558841Y28221430D01*
X6573753Y28258523D01*
X6617260Y28366752D01*
X6617260Y28366753D01*
X6620094Y28373802D01*
X6643233Y28536386D01*
X6643383Y28550700D01*
X6641723Y28564422D01*
X6629901Y28662107D01*
X6623654Y28713734D01*
X6565605Y28867355D01*
X6485673Y28983657D01*
X6476890Y28996436D01*
X6476889Y28996437D01*
X6472588Y29002695D01*
X6407454Y29060728D01*
X6355644Y29106890D01*
X6355640Y29106893D01*
X6349973Y29111942D01*
X6238653Y29170882D01*
X6211547Y29185234D01*
X6211546Y29185234D01*
X6204838Y29188786D01*
X6045563Y29228794D01*
X6037965Y29228834D01*
X6037963Y29228834D01*
X5967207Y29229204D01*
X5881342Y29229653D01*
X5873963Y29227881D01*
X5873959Y29227881D01*
X5773554Y29203775D01*
X5721657Y29191316D01*
X5670684Y29165007D01*
X5618970Y29138316D01*
X5549263Y29124847D01*
X5483340Y29151203D01*
X5457335Y29181198D01*
X5456476Y29180596D01*
X5388913Y29277087D01*
X5333181Y29356681D01*
X5181181Y29508681D01*
X5005097Y29631976D01*
X5000119Y29634297D01*
X5000116Y29634299D01*
X4816747Y29719805D01*
X4763462Y29766722D01*
X4744001Y29835000D01*
X4764543Y29902959D01*
X4816747Y29948195D01*
X5000116Y30033701D01*
X5000119Y30033703D01*
X5005097Y30036024D01*
X5181181Y30159319D01*
X5333181Y30311319D01*
X5456476Y30487404D01*
X5459289Y30493435D01*
X5544999Y30677241D01*
X5545000Y30677243D01*
X5547322Y30682223D01*
X5553575Y30705557D01*
X5601534Y30884543D01*
X5601534Y30884545D01*
X5602958Y30889858D01*
X5621693Y31104000D01*
X5602958Y31318142D01*
X5599479Y31331127D01*
X5548745Y31520467D01*
X5548744Y31520469D01*
X5547322Y31525777D01*
X5510300Y31605171D01*
X5458799Y31715615D01*
X5458797Y31715618D01*
X5456476Y31720596D01*
X5333181Y31896681D01*
X5229862Y32000000D01*
X30516661Y32000000D01*
X30535964Y31816343D01*
X30593030Y31640714D01*
X30685364Y31480786D01*
X30689782Y31475879D01*
X30689783Y31475878D01*
X30804509Y31348462D01*
X30808931Y31343551D01*
X30814273Y31339670D01*
X30814275Y31339668D01*
X30952988Y31238887D01*
X30958330Y31235006D01*
X30964358Y31232322D01*
X30964360Y31232321D01*
X31121002Y31162580D01*
X31127033Y31159895D01*
X31217349Y31140698D01*
X31301209Y31122872D01*
X31301214Y31122872D01*
X31307666Y31121500D01*
X31492334Y31121500D01*
X31498786Y31122872D01*
X31498791Y31122872D01*
X31582651Y31140698D01*
X31672967Y31159895D01*
X31678998Y31162580D01*
X31835640Y31232321D01*
X31835642Y31232322D01*
X31841670Y31235006D01*
X31847012Y31238887D01*
X31985725Y31339668D01*
X31985727Y31339670D01*
X31991069Y31343551D01*
X31995491Y31348462D01*
X32110217Y31475878D01*
X32110218Y31475879D01*
X32114636Y31480786D01*
X32206970Y31640714D01*
X32264036Y31816343D01*
X32283339Y32000000D01*
X32278632Y32044786D01*
X32264727Y32177087D01*
X32264726Y32177091D01*
X32264036Y32183657D01*
X32206970Y32359286D01*
X32114636Y32519214D01*
X31991069Y32656449D01*
X31841670Y32764994D01*
X31835642Y32767678D01*
X31835640Y32767679D01*
X31678998Y32837420D01*
X31678997Y32837420D01*
X31672967Y32840105D01*
X31582650Y32859303D01*
X31498791Y32877128D01*
X31498786Y32877128D01*
X31492334Y32878500D01*
X31307666Y32878500D01*
X31301214Y32877128D01*
X31301209Y32877128D01*
X31217350Y32859303D01*
X31127033Y32840105D01*
X31121003Y32837420D01*
X31121002Y32837420D01*
X30964361Y32767679D01*
X30964359Y32767678D01*
X30958331Y32764994D01*
X30952990Y32761114D01*
X30952989Y32761113D01*
X30814275Y32660332D01*
X30814273Y32660330D01*
X30808931Y32656449D01*
X30685364Y32519214D01*
X30593030Y32359286D01*
X30535964Y32183657D01*
X30535274Y32177091D01*
X30535273Y32177087D01*
X30521368Y32044786D01*
X30516661Y32000000D01*
X5229862Y32000000D01*
X5181181Y32048681D01*
X5005097Y32171976D01*
X5000119Y32174297D01*
X5000116Y32174299D01*
X4815259Y32260499D01*
X4815258Y32260500D01*
X4810277Y32262822D01*
X4804969Y32264244D01*
X4804967Y32264245D01*
X4607957Y32317034D01*
X4607955Y32317034D01*
X4602642Y32318458D01*
X4388500Y32337193D01*
X4174358Y32318458D01*
X4169045Y32317034D01*
X4169043Y32317034D01*
X3972033Y32264245D01*
X3972031Y32264244D01*
X3966723Y32262822D01*
X3961743Y32260500D01*
X3961741Y32260499D01*
X3776885Y32174299D01*
X3776882Y32174297D01*
X3771904Y32171976D01*
X3595819Y32048681D01*
X3443819Y31896681D01*
X3320524Y31720596D01*
X3318203Y31715618D01*
X3318201Y31715615D01*
X3232695Y31532247D01*
X3185777Y31478962D01*
X3117500Y31459501D01*
X3049540Y31480043D01*
X3004305Y31532247D01*
X2918799Y31715615D01*
X2918797Y31715618D01*
X2916476Y31720596D01*
X2793181Y31896681D01*
X2641181Y32048681D01*
X2465097Y32171976D01*
X2460119Y32174297D01*
X2460116Y32174299D01*
X2275259Y32260499D01*
X2275258Y32260500D01*
X2270277Y32262822D01*
X2264969Y32264244D01*
X2264967Y32264245D01*
X2067957Y32317034D01*
X2067955Y32317034D01*
X2062642Y32318458D01*
X1848500Y32337193D01*
X1634358Y32318458D01*
X1629045Y32317034D01*
X1629043Y32317034D01*
X1432033Y32264245D01*
X1432031Y32264244D01*
X1426723Y32262822D01*
X1421743Y32260500D01*
X1421741Y32260499D01*
X1236885Y32174299D01*
X1236882Y32174297D01*
X1231904Y32171976D01*
X1055819Y32048681D01*
X903819Y31896681D01*
X780524Y31720596D01*
X778203Y31715618D01*
X778201Y31715615D01*
X726700Y31605171D01*
X689678Y31525777D01*
X688256Y31520469D01*
X688255Y31520467D01*
X647707Y31369140D01*
X610755Y31308517D01*
X546894Y31277496D01*
X476400Y31285924D01*
X421653Y31331127D01*
X400000Y31401751D01*
X400000Y35307157D01*
X28716554Y35307157D01*
X28734575Y35143926D01*
X28737184Y35136795D01*
X28737185Y35136793D01*
X28744775Y35116052D01*
X28791012Y34989705D01*
X28795249Y34983399D01*
X28795251Y34983396D01*
X28807906Y34964564D01*
X28882607Y34853398D01*
X28888225Y34848286D01*
X28998450Y34747988D01*
X28998454Y34747985D01*
X29004071Y34742874D01*
X29010744Y34739251D01*
X29010748Y34739248D01*
X29141720Y34668137D01*
X29148393Y34664514D01*
X29307241Y34622841D01*
X29392283Y34621505D01*
X29463845Y34620380D01*
X29463848Y34620380D01*
X29471443Y34620261D01*
X29631522Y34656924D01*
X29778234Y34730712D01*
X29903110Y34837367D01*
X29998941Y34970730D01*
X30060194Y35123102D01*
X30083333Y35285686D01*
X30083483Y35300000D01*
X30063754Y35463034D01*
X30005705Y35616655D01*
X29912688Y35751995D01*
X29836069Y35820261D01*
X29795744Y35856190D01*
X29795740Y35856193D01*
X29790073Y35861242D01*
X29678753Y35920182D01*
X29651647Y35934534D01*
X29651646Y35934534D01*
X29644938Y35938086D01*
X29485663Y35978094D01*
X29478065Y35978134D01*
X29478063Y35978134D01*
X29407307Y35978504D01*
X29321442Y35978953D01*
X29314063Y35977181D01*
X29314059Y35977181D01*
X29213654Y35953075D01*
X29161757Y35940616D01*
X29015826Y35865296D01*
X29010106Y35860306D01*
X29010103Y35860304D01*
X28897798Y35762334D01*
X28897795Y35762331D01*
X28892073Y35757339D01*
X28797644Y35622980D01*
X28737990Y35469975D01*
X28736999Y35462448D01*
X28717545Y35314688D01*
X28717545Y35314684D01*
X28716554Y35307157D01*
X400000Y35307157D01*
X400000Y37037430D01*
X10892319Y37037430D01*
X10909012Y36886227D01*
X10911621Y36879096D01*
X10911622Y36879094D01*
X10956806Y36755625D01*
X10961290Y36743371D01*
X10965526Y36737068D01*
X10965526Y36737067D01*
X11015668Y36662448D01*
X11046134Y36617109D01*
X11051753Y36611996D01*
X11051754Y36611995D01*
X11058304Y36606035D01*
X11158648Y36514730D01*
X11292334Y36442144D01*
X11439476Y36403542D01*
X11518195Y36402305D01*
X11583981Y36401271D01*
X11583984Y36401271D01*
X11591579Y36401152D01*
X11644855Y36413354D01*
X11732457Y36433417D01*
X11732461Y36433418D01*
X11739860Y36435113D01*
X11875761Y36503464D01*
X11991435Y36602259D01*
X12002106Y36617109D01*
X12075770Y36719623D01*
X12075771Y36719625D01*
X12080204Y36725794D01*
X12108168Y36795356D01*
X12134111Y36859893D01*
X12136943Y36866938D01*
X12158377Y37017541D01*
X12158516Y37030800D01*
X12157714Y37037430D01*
X14892319Y37037430D01*
X14909012Y36886227D01*
X14911621Y36879096D01*
X14911622Y36879094D01*
X14956806Y36755625D01*
X14961290Y36743371D01*
X14965526Y36737068D01*
X14965526Y36737067D01*
X15015668Y36662448D01*
X15046134Y36617109D01*
X15051753Y36611996D01*
X15051754Y36611995D01*
X15058304Y36606035D01*
X15158648Y36514730D01*
X15292334Y36442144D01*
X15439476Y36403542D01*
X15518195Y36402305D01*
X15583981Y36401271D01*
X15583984Y36401271D01*
X15591579Y36401152D01*
X15644855Y36413354D01*
X15732457Y36433417D01*
X15732461Y36433418D01*
X15739860Y36435113D01*
X15875761Y36503464D01*
X15991435Y36602259D01*
X16002106Y36617109D01*
X16075770Y36719623D01*
X16075771Y36719625D01*
X16080204Y36725794D01*
X16108168Y36795356D01*
X16134111Y36859893D01*
X16136943Y36866938D01*
X16158377Y37017541D01*
X16158516Y37030800D01*
X16140241Y37181819D01*
X16116090Y37245733D01*
X16089154Y37317018D01*
X16089153Y37317021D01*
X16086470Y37324120D01*
X16000307Y37449487D01*
X15958627Y37486623D01*
X15892399Y37545631D01*
X15892395Y37545634D01*
X15886728Y37550683D01*
X15752288Y37621865D01*
X15604750Y37658924D01*
X15597152Y37658964D01*
X15597150Y37658964D01*
X15532355Y37659303D01*
X15452631Y37659720D01*
X15445252Y37657948D01*
X15445248Y37657948D01*
X15312092Y37625980D01*
X15312089Y37625979D01*
X15304713Y37624208D01*
X15169536Y37554438D01*
X15054903Y37454437D01*
X14967433Y37329979D01*
X14964674Y37322904D01*
X14964673Y37322901D01*
X14914935Y37195330D01*
X14912175Y37188250D01*
X14911183Y37180717D01*
X14911183Y37180716D01*
X14894789Y37056190D01*
X14892319Y37037430D01*
X12157714Y37037430D01*
X12140241Y37181819D01*
X12116090Y37245733D01*
X12089154Y37317018D01*
X12089153Y37317021D01*
X12086470Y37324120D01*
X12000307Y37449487D01*
X11958627Y37486623D01*
X11892399Y37545631D01*
X11892395Y37545634D01*
X11886728Y37550683D01*
X11752288Y37621865D01*
X11604750Y37658924D01*
X11597152Y37658964D01*
X11597150Y37658964D01*
X11532355Y37659303D01*
X11452631Y37659720D01*
X11445252Y37657948D01*
X11445248Y37657948D01*
X11312092Y37625980D01*
X11312089Y37625979D01*
X11304713Y37624208D01*
X11169536Y37554438D01*
X11054903Y37454437D01*
X10967433Y37329979D01*
X10964674Y37322904D01*
X10964673Y37322901D01*
X10914935Y37195330D01*
X10912175Y37188250D01*
X10911183Y37180717D01*
X10911183Y37180716D01*
X10894789Y37056190D01*
X10892319Y37037430D01*
X400000Y37037430D01*
X400000Y37782125D01*
X420002Y37850246D01*
X436905Y37871220D01*
X1172842Y38607157D01*
X23616554Y38607157D01*
X23634575Y38443926D01*
X23637184Y38436795D01*
X23637185Y38436793D01*
X23644775Y38416052D01*
X23691012Y38289705D01*
X23695249Y38283399D01*
X23695251Y38283396D01*
X23707906Y38264564D01*
X23782607Y38153398D01*
X23788225Y38148286D01*
X23898450Y38047988D01*
X23898454Y38047985D01*
X23904071Y38042874D01*
X23910744Y38039251D01*
X23910748Y38039248D01*
X24041720Y37968137D01*
X24048393Y37964514D01*
X24207241Y37922841D01*
X24292283Y37921505D01*
X24363845Y37920380D01*
X24363848Y37920380D01*
X24371443Y37920261D01*
X24531522Y37956924D01*
X24678234Y38030712D01*
X24766347Y38105968D01*
X24797338Y38132437D01*
X24797339Y38132438D01*
X24803110Y38137367D01*
X24815730Y38154930D01*
X25897570Y38154930D01*
X25897570Y38145070D01*
X25916035Y37910455D01*
X25917578Y37900708D01*
X25972517Y37671875D01*
X25975566Y37662490D01*
X26065625Y37445067D01*
X26070107Y37436272D01*
X26181072Y37255195D01*
X26191530Y37245733D01*
X26200306Y37249516D01*
X27087978Y38137188D01*
X27095592Y38151132D01*
X27095461Y38152965D01*
X27091210Y38159580D01*
X26203350Y39047440D01*
X26190970Y39054200D01*
X26183320Y39048473D01*
X26070107Y38863728D01*
X26065625Y38854933D01*
X25975566Y38637510D01*
X25972517Y38628125D01*
X25917578Y38399292D01*
X25916035Y38389545D01*
X25897570Y38154930D01*
X24815730Y38154930D01*
X24898941Y38270730D01*
X24921820Y38327642D01*
X24957360Y38416052D01*
X24957360Y38416053D01*
X24960194Y38423102D01*
X24983333Y38585686D01*
X24983483Y38600000D01*
X24963754Y38763034D01*
X24905705Y38916655D01*
X24812688Y39051995D01*
X24801084Y39062334D01*
X24695744Y39156190D01*
X24695740Y39156193D01*
X24690073Y39161242D01*
X24544938Y39238086D01*
X24385663Y39278094D01*
X24378065Y39278134D01*
X24378063Y39278134D01*
X24307307Y39278504D01*
X24221442Y39278953D01*
X24214063Y39277181D01*
X24214059Y39277181D01*
X24113654Y39253075D01*
X24061757Y39240616D01*
X23915826Y39165296D01*
X23910106Y39160306D01*
X23910103Y39160304D01*
X23797798Y39062334D01*
X23797795Y39062331D01*
X23792073Y39057339D01*
X23697644Y38922980D01*
X23637990Y38769975D01*
X23636999Y38762448D01*
X23617545Y38614688D01*
X23617545Y38614684D01*
X23616554Y38607157D01*
X1172842Y38607157D01*
X1984155Y39418470D01*
X26555733Y39418470D01*
X26559516Y39409694D01*
X27730115Y38239095D01*
X27764141Y38176783D01*
X27759076Y38105968D01*
X27730115Y38060905D01*
X26562560Y36893350D01*
X26555800Y36880970D01*
X26561527Y36873320D01*
X26746272Y36760107D01*
X26755067Y36755625D01*
X26972490Y36665566D01*
X26981875Y36662517D01*
X27210708Y36607578D01*
X27220455Y36606035D01*
X27455070Y36587570D01*
X27464930Y36587570D01*
X27699545Y36606035D01*
X27709292Y36607578D01*
X27938125Y36662517D01*
X27947510Y36665566D01*
X28164933Y36755625D01*
X28173728Y36760107D01*
X28374376Y36883065D01*
X28382361Y36888866D01*
X28434820Y36933670D01*
X28499610Y36962700D01*
X28569810Y36952095D01*
X28623132Y36905220D01*
X28629748Y36893400D01*
X28637986Y36876620D01*
X28727165Y36787596D01*
X28783401Y36760107D01*
X28831152Y36736766D01*
X28840372Y36732259D01*
X28850047Y36730848D01*
X28850049Y36730847D01*
X28909596Y36722160D01*
X28909600Y36722160D01*
X28914122Y36721500D01*
X31085878Y36721500D01*
X31090427Y36722170D01*
X31090432Y36722170D01*
X31150585Y36731025D01*
X31150587Y36731026D01*
X31160270Y36732451D01*
X31273380Y36787986D01*
X31362404Y36877165D01*
X31417741Y36990372D01*
X31428500Y37064122D01*
X31428500Y39235878D01*
X31417549Y39310270D01*
X31362014Y39423380D01*
X31272835Y39512404D01*
X31204754Y39545683D01*
X31168413Y39563447D01*
X31168412Y39563447D01*
X31159628Y39567741D01*
X31149953Y39569152D01*
X31149951Y39569153D01*
X31090404Y39577840D01*
X31090400Y39577840D01*
X31085878Y39578500D01*
X28914122Y39578500D01*
X28909573Y39577830D01*
X28909568Y39577830D01*
X28849415Y39568975D01*
X28849413Y39568974D01*
X28839730Y39567549D01*
X28726620Y39512014D01*
X28637596Y39422835D01*
X28633024Y39413483D01*
X28633024Y39413482D01*
X28629789Y39406863D01*
X28581904Y39354446D01*
X28513282Y39336238D01*
X28445709Y39358021D01*
X28434758Y39366383D01*
X28382361Y39411134D01*
X28374376Y39416935D01*
X28173728Y39539893D01*
X28164933Y39544375D01*
X27947510Y39634434D01*
X27938125Y39637483D01*
X27709292Y39692422D01*
X27699545Y39693965D01*
X27464930Y39712430D01*
X27455070Y39712430D01*
X27220455Y39693965D01*
X27210708Y39692422D01*
X26981875Y39637483D01*
X26972490Y39634434D01*
X26755067Y39544375D01*
X26746272Y39539893D01*
X26565195Y39428928D01*
X26555733Y39418470D01*
X1984155Y39418470D01*
X4128780Y41563095D01*
X4191092Y41597121D01*
X4217875Y41600000D01*
X8382125Y41600000D01*
X8450246Y41579998D01*
G37*
G04 #@! TD.AperFunction*
M02*
