G04 #@! TF.GenerationSoftware,KiCad,Pcbnew,5.99.0-unknown-293f207356~131~ubuntu20.04.1*
G04 #@! TF.CreationDate,2021-07-30T20:50:04-07:00*
G04 #@! TF.ProjectId,Huvud,48757675-642e-46b6-9963-61645f706362,rev?*
G04 #@! TF.SameCoordinates,PXad91980PY876bf80*
G04 #@! TF.FileFunction,Soldermask,Bot*
G04 #@! TF.FilePolarity,Negative*
%FSLAX46Y46*%
G04 Gerber Fmt 4.6, Leading zero omitted, Abs format (unit mm)*
G04 Created by KiCad (PCBNEW 5.99.0-unknown-293f207356~131~ubuntu20.04.1) date 2021-07-30 20:50:04*
%MOMM*%
%LPD*%
G01*
G04 APERTURE LIST*
G04 Aperture macros list*
%AMRoundRect*
0 Rectangle with rounded corners*
0 $1 Rounding radius*
0 $2 $3 $4 $5 $6 $7 $8 $9 X,Y pos of 4 corners*
0 Add a 4 corners polygon primitive as box body*
4,1,4,$2,$3,$4,$5,$6,$7,$8,$9,$2,$3,0*
0 Add four circle primitives for the rounded corners*
1,1,$1+$1,$2,$3*
1,1,$1+$1,$4,$5*
1,1,$1+$1,$6,$7*
1,1,$1+$1,$8,$9*
0 Add four rect primitives between the rounded corners*
20,1,$1+$1,$2,$3,$4,$5,0*
20,1,$1+$1,$4,$5,$6,$7,0*
20,1,$1+$1,$6,$7,$8,$9,0*
20,1,$1+$1,$8,$9,$2,$3,0*%
G04 Aperture macros list end*
%ADD10C,0.100000*%
%ADD11RoundRect,0.250000X0.625000X-0.350000X0.625000X0.350000X-0.625000X0.350000X-0.625000X-0.350000X0*%
%ADD12O,1.750000X1.200000*%
%ADD13C,0.800000*%
%ADD14C,6.400000*%
%ADD15C,0.500000*%
%ADD16R,1.700000X1.700000*%
%ADD17O,1.700000X1.700000*%
%ADD18R,2.100000X2.100000*%
%ADD19C,2.100000*%
%ADD20RoundRect,0.250000X0.725000X-0.600000X0.725000X0.600000X-0.725000X0.600000X-0.725000X-0.600000X0*%
%ADD21O,1.950000X1.700000*%
G04 APERTURE END LIST*
D10*
X32450000Y13550000D02*
X23200000Y13550000D01*
X23200000Y13550000D02*
X23200000Y18950000D01*
X23200000Y18950000D02*
X32450000Y18950000D01*
X32450000Y18950000D02*
X32450000Y13550000D01*
G36*
X32450000Y13550000D02*
G01*
X23200000Y13550000D01*
X23200000Y18950000D01*
X32450000Y18950000D01*
X32450000Y13550000D01*
G37*
X32450000Y13550000D02*
X23200000Y13550000D01*
X23200000Y18950000D01*
X32450000Y18950000D01*
X32450000Y13550000D01*
D11*
X2100000Y11500000D03*
D12*
X2100000Y13500000D03*
X2100000Y15500000D03*
X2100000Y17500000D03*
X2100000Y19500000D03*
D11*
X23250000Y2500000D03*
D12*
X23250000Y4500000D03*
D13*
X36500000Y34100000D03*
X34802944Y38197056D03*
X36500000Y38900000D03*
X34100000Y36500000D03*
X38900000Y36500000D03*
X38197056Y38197056D03*
X34802944Y34802944D03*
D14*
X36500000Y36500000D03*
D13*
X38197056Y34802944D03*
X38197056Y3802944D03*
X36500000Y3100000D03*
X36500000Y7900000D03*
X38197056Y7197056D03*
X38900000Y5500000D03*
X34802944Y3802944D03*
X34802944Y7197056D03*
D14*
X36500000Y5500000D03*
D13*
X34100000Y5500000D03*
D11*
X10850000Y2500000D03*
D12*
X10850000Y4500000D03*
D15*
X11525400Y37030800D03*
X15525400Y37030800D03*
D13*
X3100000Y5500000D03*
X3802944Y3802944D03*
X7900000Y5500000D03*
X5500000Y7900000D03*
D14*
X5500000Y5500000D03*
D13*
X3802944Y7197056D03*
X7197056Y7197056D03*
X5500000Y3100000D03*
X7197056Y3802944D03*
D16*
X4388500Y26024000D03*
D17*
X1848500Y26024000D03*
X4388500Y28564000D03*
X1848500Y28564000D03*
X4388500Y31104000D03*
X1848500Y31104000D03*
D13*
X5500000Y38900000D03*
X7197056Y34802944D03*
X7900000Y36500000D03*
X7197056Y38197056D03*
D14*
X5500000Y36500000D03*
D13*
X3802944Y38197056D03*
X5500000Y34100000D03*
X3802944Y34802944D03*
X3100000Y36500000D03*
D11*
X17050000Y2500000D03*
D12*
X17050000Y4500000D03*
D18*
X28750000Y3750000D03*
D19*
X31290000Y3750000D03*
D20*
X38038500Y12524000D03*
D21*
X38038500Y15024000D03*
X38038500Y17524000D03*
X38038500Y20024000D03*
D18*
X30000000Y38150000D03*
D19*
X27460000Y38150000D03*
M02*
