G04 #@! TF.GenerationSoftware,KiCad,Pcbnew,5.99.0-unknown-eb819a3b25~139~ubuntu20.04.1*
G04 #@! TF.CreationDate,2021-10-10T12:59:26-07:00*
G04 #@! TF.ProjectId,Huvud,48757675-642e-46b6-9963-61645f706362,rev?*
G04 #@! TF.SameCoordinates,PXad91980PY876bf80*
G04 #@! TF.FileFunction,Copper,L4,Bot*
G04 #@! TF.FilePolarity,Positive*
%FSLAX46Y46*%
G04 Gerber Fmt 4.6, Leading zero omitted, Abs format (unit mm)*
G04 Created by KiCad (PCBNEW 5.99.0-unknown-eb819a3b25~139~ubuntu20.04.1) date 2021-10-10 12:59:26*
%MOMM*%
%LPD*%
G01*
G04 APERTURE LIST*
G04 Aperture macros list*
%AMRoundRect*
0 Rectangle with rounded corners*
0 $1 Rounding radius*
0 $2 $3 $4 $5 $6 $7 $8 $9 X,Y pos of 4 corners*
0 Add a 4 corners polygon primitive as box body*
4,1,4,$2,$3,$4,$5,$6,$7,$8,$9,$2,$3,0*
0 Add four circle primitives for the rounded corners*
1,1,$1+$1,$2,$3*
1,1,$1+$1,$4,$5*
1,1,$1+$1,$6,$7*
1,1,$1+$1,$8,$9*
0 Add four rect primitives between the rounded corners*
20,1,$1+$1,$2,$3,$4,$5,0*
20,1,$1+$1,$4,$5,$6,$7,0*
20,1,$1+$1,$6,$7,$8,$9,0*
20,1,$1+$1,$8,$9,$2,$3,0*%
G04 Aperture macros list end*
G04 #@! TA.AperFunction,ComponentPad*
%ADD10RoundRect,0.225000X0.475000X-0.225000X0.475000X0.225000X-0.475000X0.225000X-0.475000X-0.225000X0*%
G04 #@! TD*
G04 #@! TA.AperFunction,ComponentPad*
%ADD11O,1.400000X0.900000*%
G04 #@! TD*
G04 #@! TA.AperFunction,ComponentPad*
%ADD12RoundRect,0.225000X-0.475000X0.225000X-0.475000X-0.225000X0.475000X-0.225000X0.475000X0.225000X0*%
G04 #@! TD*
G04 #@! TA.AperFunction,ComponentPad*
%ADD13C,0.800000*%
G04 #@! TD*
G04 #@! TA.AperFunction,ComponentPad*
%ADD14C,6.400000*%
G04 #@! TD*
G04 #@! TA.AperFunction,ComponentPad*
%ADD15R,1.000000X1.000000*%
G04 #@! TD*
G04 #@! TA.AperFunction,ComponentPad*
%ADD16O,1.000000X1.000000*%
G04 #@! TD*
G04 #@! TA.AperFunction,ComponentPad*
%ADD17RoundRect,0.250001X-0.499999X-0.499999X0.499999X-0.499999X0.499999X0.499999X-0.499999X0.499999X0*%
G04 #@! TD*
G04 #@! TA.AperFunction,ComponentPad*
%ADD18C,1.500000*%
G04 #@! TD*
G04 #@! TA.AperFunction,ComponentPad*
%ADD19RoundRect,0.250000X0.725000X-0.600000X0.725000X0.600000X-0.725000X0.600000X-0.725000X-0.600000X0*%
G04 #@! TD*
G04 #@! TA.AperFunction,ComponentPad*
%ADD20O,1.950000X1.700000*%
G04 #@! TD*
G04 #@! TA.AperFunction,ViaPad*
%ADD21C,0.600000*%
G04 #@! TD*
G04 #@! TA.AperFunction,ViaPad*
%ADD22C,0.800000*%
G04 #@! TD*
G04 #@! TA.AperFunction,ViaPad*
%ADD23C,1.000000*%
G04 #@! TD*
G04 #@! TA.AperFunction,Conductor*
%ADD24C,0.152400*%
G04 #@! TD*
G04 #@! TA.AperFunction,Conductor*
%ADD25C,0.800000*%
G04 #@! TD*
G04 APERTURE END LIST*
D10*
X2870000Y10850000D03*
D11*
X2870000Y12100000D03*
X2870000Y13350000D03*
X2870000Y14600000D03*
X2870000Y15850000D03*
X2870000Y17100000D03*
D12*
X24250000Y4475000D03*
D11*
X24250000Y3225000D03*
D13*
X36500000Y34100000D03*
X34802944Y38197056D03*
X36500000Y38900000D03*
X34100000Y36500000D03*
X38900000Y36500000D03*
X38197056Y38197056D03*
X34802944Y34802944D03*
D14*
X36500000Y36500000D03*
D13*
X38197056Y34802944D03*
X38197056Y3802944D03*
X36500000Y3100000D03*
X36500000Y7900000D03*
X38197056Y7197056D03*
X38900000Y5500000D03*
X34802944Y3802944D03*
X34802944Y7197056D03*
D14*
X36500000Y5500000D03*
D13*
X34100000Y5500000D03*
D12*
X15650000Y4475000D03*
D11*
X15650000Y3225000D03*
D13*
X3100000Y5500000D03*
X3802944Y3802944D03*
X7900000Y5500000D03*
X5500000Y7900000D03*
D14*
X5500000Y5500000D03*
D13*
X3802944Y7197056D03*
X7197056Y7197056D03*
X5500000Y3100000D03*
X7197056Y3802944D03*
D15*
X3250000Y24850000D03*
D16*
X1980000Y24850000D03*
X3250000Y26120000D03*
X1980000Y26120000D03*
X3250000Y27390000D03*
X1980000Y27390000D03*
D13*
X5500000Y38900000D03*
X7197056Y34802944D03*
X7900000Y36500000D03*
X7197056Y38197056D03*
D14*
X5500000Y36500000D03*
D13*
X3802944Y38197056D03*
X5500000Y34100000D03*
X3802944Y34802944D03*
X3100000Y36500000D03*
D12*
X19950000Y4475000D03*
D11*
X19950000Y3225000D03*
D17*
X28700000Y34700000D03*
D18*
X28700000Y31700000D03*
D19*
X38038500Y12524000D03*
D20*
X38038500Y15024000D03*
X38038500Y17524000D03*
X38038500Y20024000D03*
D12*
X28550000Y4475000D03*
D11*
X28550000Y3225000D03*
D17*
X13295000Y34695000D03*
D18*
X16295000Y34695000D03*
X13295000Y31695000D03*
X16295000Y31695000D03*
D12*
X11350000Y4475000D03*
D11*
X11350000Y3225000D03*
D21*
X16200000Y9000000D03*
X13100000Y6200000D03*
X12100000Y11600000D03*
X13302998Y13787653D03*
X15000000Y13200000D03*
X9600000Y8100000D03*
D22*
X28400000Y15100000D03*
D21*
X11000000Y23700000D03*
D22*
X27200000Y17600000D03*
X29500000Y16400000D03*
D21*
X27400000Y9900000D03*
D22*
X13800000Y20000000D03*
D21*
X36050000Y10150000D03*
X7400000Y27100000D03*
X21750000Y20250000D03*
X6500000Y13000000D03*
X36100000Y21900000D03*
X16300000Y13900000D03*
X5800000Y31800000D03*
X27600000Y23000000D03*
D22*
X28400000Y17600000D03*
D21*
X4300000Y25900000D03*
X1500000Y10200000D03*
X24700000Y13300000D03*
D22*
X27200000Y15200000D03*
D21*
X1800000Y17800000D03*
X19750000Y13250000D03*
X5000000Y1500000D03*
X2700000Y22400000D03*
X34100000Y28200000D03*
D22*
X28400000Y16400000D03*
D21*
X23550000Y9250000D03*
X7250000Y1500000D03*
X14400000Y25100000D03*
X5600000Y24100000D03*
X12450000Y28100000D03*
X1900000Y19400000D03*
X22000000Y12750000D03*
X20250000Y8500000D03*
X18400000Y8700000D03*
X6800000Y22600000D03*
X2500000Y8500000D03*
X7950000Y19750000D03*
X1250000Y35250000D03*
X8500000Y40250000D03*
X4700000Y27300000D03*
X6900000Y15600000D03*
D22*
X29500000Y17600000D03*
D21*
X12000000Y40250000D03*
X19307500Y26392500D03*
X22800000Y15500000D03*
X35350000Y10750000D03*
D22*
X24700000Y28635000D03*
D21*
X35450000Y21950000D03*
D22*
X27200000Y16400000D03*
D21*
X36100000Y22550000D03*
X23000000Y17800000D03*
D22*
X25580000Y28645000D03*
D21*
X35450000Y22600000D03*
D22*
X29500000Y15100000D03*
X23750000Y28645000D03*
D21*
X8700000Y32100000D03*
X27750000Y25000000D03*
X16400000Y24350000D03*
X17800000Y27900000D03*
X36050000Y10800000D03*
X34000000Y30800000D03*
X35350000Y10100000D03*
X1500000Y15000000D03*
X36500000Y26000000D03*
X19300000Y11400000D03*
X40750000Y34750000D03*
X25500000Y40250000D03*
X34500000Y40500000D03*
X32250000Y27250000D03*
D22*
X32400000Y23500000D03*
X31300000Y9200000D03*
X31300000Y22500000D03*
D21*
X32200000Y3300000D03*
X31750000Y39250000D03*
D22*
X32400000Y9200000D03*
D21*
X39000000Y32000000D03*
X26750000Y2350000D03*
X20750000Y40250000D03*
D22*
X31300000Y10300000D03*
D23*
X24300000Y21600000D03*
D22*
X32400000Y10300000D03*
D21*
X33000000Y1500000D03*
D22*
X32400000Y22500000D03*
X31300000Y23500000D03*
D21*
X25748400Y13493800D03*
X6900000Y16800000D03*
X21000000Y24450000D03*
X6100000Y16600000D03*
X4279700Y24905000D03*
X9750000Y26750000D03*
X10937031Y29763103D03*
X23813900Y23813900D03*
X4767400Y20899300D03*
X12500000Y25000000D03*
D23*
X15908600Y10288200D03*
D21*
X25000000Y31250000D03*
X26000000Y31250000D03*
X26000000Y30500000D03*
X25000000Y30500000D03*
X25250000Y22500000D03*
X19000000Y17500000D03*
X20099639Y21000638D03*
X10509700Y18097400D03*
X22940979Y16285372D03*
X27642300Y12751300D03*
X20845100Y18140900D03*
X10489500Y20057100D03*
X12053300Y23479300D03*
X22644536Y14790327D03*
X15123300Y15459900D03*
X24088800Y16397800D03*
X16133500Y16499000D03*
X4004000Y28996000D03*
X18600000Y21863500D03*
X11500000Y30500000D03*
X9500000Y32500000D03*
X12013715Y31013715D03*
X18600000Y21136500D03*
X9500000Y33250000D03*
X14487100Y23307100D03*
X22250000Y11250000D03*
X11448500Y17239100D03*
X17027000Y14514700D03*
D22*
X29200000Y12400000D03*
X30200000Y11300000D03*
X30200000Y12400000D03*
D21*
X38706200Y23454100D03*
D22*
X29200000Y11300000D03*
D21*
X37691000Y23288300D03*
X35297400Y23559700D03*
D22*
X29200000Y21300000D03*
D21*
X34265500Y23257400D03*
D22*
X29200000Y20300000D03*
X30200000Y21300000D03*
X30200000Y20300000D03*
D21*
X9450000Y18272200D03*
X10657700Y11569600D03*
X4378100Y17132300D03*
X6482600Y21313000D03*
X15015700Y16688600D03*
X16140800Y17412400D03*
X3259733Y21936853D03*
X6600000Y11508000D03*
X15876700Y15442300D03*
X14900000Y11300000D03*
X10447000Y18898500D03*
X5300000Y18550000D03*
X22050000Y26700000D03*
X17184300Y19627700D03*
X8876700Y13390600D03*
X8962683Y14315463D03*
X17225600Y17816400D03*
X9600000Y15200000D03*
X17219200Y18588700D03*
D24*
X11500000Y30500000D02*
X9500000Y32500000D01*
X9500000Y33250000D02*
X9750000Y33250000D01*
X9750000Y33250000D02*
X11986285Y31013715D01*
X11986285Y31013715D02*
X12013715Y31013715D01*
D25*
X36724000Y12524000D02*
X36700000Y12500000D01*
X38038000Y12524000D02*
X36724000Y12524000D01*
X38038000Y20024000D02*
X36676000Y20024000D01*
G04 #@! TA.AperFunction,Conductor*
G36*
X36998742Y13255613D02*
G01*
X37048553Y13205022D01*
X37063500Y13145497D01*
X37063500Y12942115D01*
X37067975Y12926876D01*
X37069365Y12925671D01*
X37077048Y12924000D01*
X38312500Y12924000D01*
X38380621Y12903998D01*
X38427114Y12850342D01*
X38438500Y12798000D01*
X38438500Y12250000D01*
X38418498Y12181879D01*
X38364842Y12135386D01*
X38312500Y12124000D01*
X37081615Y12124000D01*
X37066376Y12119525D01*
X37065171Y12118135D01*
X37063500Y12110452D01*
X37063500Y11905563D01*
X37064707Y11893309D01*
X37075585Y11838623D01*
X37084898Y11816138D01*
X37126367Y11754076D01*
X37143576Y11736867D01*
X37171576Y11718158D01*
X37217104Y11663681D01*
X37225952Y11593238D01*
X37195310Y11529194D01*
X37134909Y11491882D01*
X37112649Y11487881D01*
X28887075Y10762095D01*
X28817459Y10776032D01*
X28766431Y10825393D01*
X28750000Y10887607D01*
X28750000Y12631774D01*
X28770002Y12699895D01*
X28823658Y12746388D01*
X28867986Y12757519D01*
X36929488Y13271242D01*
X36998742Y13255613D01*
G37*
G04 #@! TD.AperFunction*
G04 #@! TA.AperFunction,Conductor*
G36*
X37707467Y21105663D02*
G01*
X37773697Y21080089D01*
X37815587Y21022767D01*
X37819836Y20951898D01*
X37785096Y20889981D01*
X37729584Y20860003D01*
X37729899Y20859067D01*
X37724466Y20857239D01*
X37724091Y20857036D01*
X37723436Y20856892D01*
X37561333Y20802338D01*
X37549011Y20796645D01*
X37402413Y20708559D01*
X37391599Y20700351D01*
X37267334Y20582839D01*
X37258542Y20572508D01*
X37164035Y20433447D01*
X37163399Y20426780D01*
X37168215Y20424000D01*
X38088500Y20424000D01*
X38088500Y19624000D01*
X37181592Y19624000D01*
X37168061Y19620027D01*
X37167645Y19617129D01*
X37168519Y19614437D01*
X37201480Y19551921D01*
X37209067Y19540671D01*
X37319461Y19410038D01*
X37329287Y19400681D01*
X37374341Y19366235D01*
X37416309Y19308970D01*
X37420654Y19238106D01*
X37385998Y19176143D01*
X37323344Y19142752D01*
X37287378Y19140571D01*
X28865566Y19840397D01*
X28799335Y19865971D01*
X28757445Y19923293D01*
X28750000Y19965964D01*
X28750000Y21713096D01*
X28770002Y21781217D01*
X28823658Y21827710D01*
X28886433Y21838663D01*
X37707467Y21105663D01*
G37*
G04 #@! TD.AperFunction*
G04 #@! TA.AperFunction,Conductor*
G36*
X37676214Y41598781D02*
G01*
X37699999Y41595014D01*
X37707694Y41596233D01*
X37715488Y41596233D01*
X37715488Y41595830D01*
X37731532Y41596103D01*
X37764898Y41591979D01*
X37773069Y41590969D01*
X37796624Y41585056D01*
X37853889Y41562917D01*
X37875295Y41551448D01*
X37909483Y41527306D01*
X37921172Y41516310D01*
X37921443Y41516608D01*
X37927213Y41511362D01*
X37932083Y41505289D01*
X37938590Y41501019D01*
X37938592Y41501017D01*
X37941936Y41498823D01*
X37957711Y41485968D01*
X39400308Y40039629D01*
X41104915Y38330600D01*
X41522991Y37911439D01*
X41524730Y37909431D01*
X41526010Y37907010D01*
X41531121Y37902052D01*
X41532102Y37900919D01*
X41536281Y37895346D01*
X41536228Y37895306D01*
X41546353Y37882485D01*
X41562836Y37854752D01*
X41571653Y37835477D01*
X41588609Y37784608D01*
X41593120Y37763899D01*
X41596573Y37731824D01*
X41596166Y37715485D01*
X41596233Y37715485D01*
X41596233Y37707696D01*
X41595014Y37699999D01*
X41596233Y37692303D01*
X41598781Y37676215D01*
X41600000Y37660728D01*
X41600000Y4339272D01*
X41598781Y4323786D01*
X41595014Y4300001D01*
X41596233Y4292304D01*
X41596233Y4284515D01*
X41596166Y4284515D01*
X41596573Y4268176D01*
X41593120Y4236101D01*
X41588609Y4215392D01*
X41571653Y4164523D01*
X41562837Y4145249D01*
X41546353Y4117515D01*
X41536225Y4104689D01*
X41536278Y4104649D01*
X41532445Y4099538D01*
X41530776Y4097614D01*
X41526010Y4092990D01*
X41524829Y4090756D01*
X41523247Y4088932D01*
X37911068Y476753D01*
X37909244Y475171D01*
X37907010Y473990D01*
X37902386Y469224D01*
X37900462Y467555D01*
X37895351Y463722D01*
X37895311Y463775D01*
X37882485Y453647D01*
X37854752Y437164D01*
X37835477Y428347D01*
X37784608Y411391D01*
X37763899Y406880D01*
X37731824Y403427D01*
X37715485Y403834D01*
X37715485Y403767D01*
X37707696Y403767D01*
X37699999Y404986D01*
X37676215Y401219D01*
X37660728Y400000D01*
X4339272Y400000D01*
X4323785Y401219D01*
X4300001Y404986D01*
X4292304Y403767D01*
X4284515Y403767D01*
X4284515Y403834D01*
X4268176Y403427D01*
X4236101Y406880D01*
X4215392Y411391D01*
X4164523Y428347D01*
X4145248Y437164D01*
X4117515Y453647D01*
X4104689Y463775D01*
X4104649Y463722D01*
X4099538Y467555D01*
X4097614Y469224D01*
X4092990Y473990D01*
X4090756Y475171D01*
X4088932Y476753D01*
X3059508Y1506177D01*
X32494391Y1506177D01*
X32495306Y1499180D01*
X32495306Y1499179D01*
X32496814Y1487646D01*
X32512980Y1364021D01*
X32515821Y1357565D01*
X32515821Y1357564D01*
X32523586Y1339918D01*
X32570720Y1232797D01*
X32583792Y1217246D01*
X32658431Y1128451D01*
X32658434Y1128449D01*
X32662970Y1123052D01*
X32668841Y1119144D01*
X32668842Y1119143D01*
X32681143Y1110955D01*
X32782313Y1043610D01*
X32882920Y1012179D01*
X32912425Y1002961D01*
X32912426Y1002961D01*
X32919157Y1000858D01*
X32990828Y999544D01*
X33055445Y998359D01*
X33055447Y998359D01*
X33062499Y998230D01*
X33069302Y1000085D01*
X33069304Y1000085D01*
X33144503Y1020587D01*
X33200817Y1035940D01*
X33322991Y1110955D01*
X33330403Y1119143D01*
X33414468Y1212018D01*
X33419200Y1217246D01*
X33481710Y1346267D01*
X33485875Y1371018D01*
X33504862Y1483876D01*
X33504862Y1483880D01*
X33505496Y1487646D01*
X33505647Y1500000D01*
X33485323Y1641918D01*
X33425984Y1772428D01*
X33365582Y1842528D01*
X33337005Y1875693D01*
X33337004Y1875694D01*
X33332400Y1881037D01*
X33212095Y1959015D01*
X33074739Y2000093D01*
X32991497Y2000602D01*
X32938427Y2000926D01*
X32938426Y2000926D01*
X32931376Y2000969D01*
X32924599Y1999032D01*
X32924598Y1999032D01*
X32800309Y1963510D01*
X32800307Y1963509D01*
X32793529Y1961572D01*
X32672280Y1885070D01*
X32667613Y1879786D01*
X32667611Y1879784D01*
X32582044Y1782897D01*
X32582042Y1782895D01*
X32577377Y1777612D01*
X32516447Y1647837D01*
X32494391Y1506177D01*
X3059508Y1506177D01*
X2209508Y2356177D01*
X26244391Y2356177D01*
X26245306Y2349180D01*
X26245306Y2349179D01*
X26246814Y2337646D01*
X26262980Y2214021D01*
X26265821Y2207565D01*
X26265821Y2207564D01*
X26273586Y2189918D01*
X26320720Y2082797D01*
X26333792Y2067246D01*
X26408431Y1978451D01*
X26408434Y1978449D01*
X26412970Y1973052D01*
X26418841Y1969144D01*
X26418842Y1969143D01*
X26430216Y1961572D01*
X26532313Y1893610D01*
X26632920Y1862179D01*
X26662425Y1852961D01*
X26662426Y1852961D01*
X26669157Y1850858D01*
X26740828Y1849544D01*
X26805445Y1848359D01*
X26805447Y1848359D01*
X26812499Y1848230D01*
X26819302Y1850085D01*
X26819304Y1850085D01*
X26894503Y1870587D01*
X26950817Y1885940D01*
X27072991Y1960955D01*
X27080403Y1969143D01*
X27164468Y2062018D01*
X27169200Y2067246D01*
X27231710Y2196267D01*
X27235875Y2221018D01*
X27254862Y2333876D01*
X27254862Y2333880D01*
X27255496Y2337646D01*
X27255647Y2350000D01*
X27235323Y2491918D01*
X27213543Y2539820D01*
X27178905Y2616004D01*
X27178904Y2616005D01*
X27175984Y2622428D01*
X27082400Y2731037D01*
X26962095Y2809015D01*
X26824739Y2850093D01*
X26741497Y2850602D01*
X26688427Y2850926D01*
X26688426Y2850926D01*
X26681376Y2850969D01*
X26674599Y2849032D01*
X26674598Y2849032D01*
X26550309Y2813510D01*
X26550307Y2813509D01*
X26543529Y2811572D01*
X26422280Y2735070D01*
X26417613Y2729786D01*
X26417611Y2729784D01*
X26332044Y2632897D01*
X26332042Y2632895D01*
X26327377Y2627612D01*
X26266447Y2497837D01*
X26244391Y2356177D01*
X2209508Y2356177D01*
X1340685Y3225000D01*
X10494318Y3225000D01*
X10514956Y3068238D01*
X10575464Y2922159D01*
X10671718Y2796718D01*
X10797159Y2700464D01*
X10943238Y2639956D01*
X11060639Y2624500D01*
X11639361Y2624500D01*
X11756762Y2639956D01*
X11902841Y2700464D01*
X12028282Y2796718D01*
X12124536Y2922159D01*
X12185044Y3068238D01*
X12205682Y3225000D01*
X14794318Y3225000D01*
X14814956Y3068238D01*
X14875464Y2922159D01*
X14971718Y2796718D01*
X15097159Y2700464D01*
X15243238Y2639956D01*
X15360639Y2624500D01*
X15939361Y2624500D01*
X16056762Y2639956D01*
X16202841Y2700464D01*
X16328282Y2796718D01*
X16424536Y2922159D01*
X16485044Y3068238D01*
X16505682Y3225000D01*
X16500262Y3266170D01*
X19045624Y3266170D01*
X19048214Y3225000D01*
X19051611Y3171018D01*
X19055944Y3102140D01*
X19057867Y3096222D01*
X19057867Y3096221D01*
X19078475Y3032797D01*
X19106732Y2945829D01*
X19110070Y2940570D01*
X19110070Y2940569D01*
X19125021Y2917010D01*
X19194798Y2807060D01*
X19199334Y2802800D01*
X19199336Y2802798D01*
X19281445Y2725693D01*
X19314607Y2694552D01*
X19458632Y2615373D01*
X19617823Y2574500D01*
X20240925Y2574500D01*
X20330887Y2585865D01*
X20356877Y2589148D01*
X20356878Y2589148D01*
X20363058Y2589929D01*
X20515871Y2650432D01*
X20648837Y2747037D01*
X20652803Y2751832D01*
X20652806Y2751834D01*
X20699112Y2807809D01*
X20753600Y2873674D01*
X20773993Y2917010D01*
X20790341Y2951753D01*
X20823579Y3022387D01*
X20854376Y3183830D01*
X20849196Y3266170D01*
X23345624Y3266170D01*
X23348214Y3225000D01*
X23351611Y3171018D01*
X23355944Y3102140D01*
X23357867Y3096222D01*
X23357867Y3096221D01*
X23378475Y3032797D01*
X23406732Y2945829D01*
X23410070Y2940570D01*
X23410070Y2940569D01*
X23425021Y2917010D01*
X23494798Y2807060D01*
X23499334Y2802800D01*
X23499336Y2802798D01*
X23581445Y2725693D01*
X23614607Y2694552D01*
X23758632Y2615373D01*
X23917823Y2574500D01*
X24540925Y2574500D01*
X24630887Y2585865D01*
X24656877Y2589148D01*
X24656878Y2589148D01*
X24663058Y2589929D01*
X24815871Y2650432D01*
X24948837Y2747037D01*
X24952803Y2751832D01*
X24952806Y2751834D01*
X24999112Y2807809D01*
X25053600Y2873674D01*
X25073993Y2917010D01*
X25090341Y2951753D01*
X25123579Y3022387D01*
X25154376Y3183830D01*
X25149196Y3266170D01*
X27645624Y3266170D01*
X27648214Y3225000D01*
X27651611Y3171018D01*
X27655944Y3102140D01*
X27657867Y3096222D01*
X27657867Y3096221D01*
X27678475Y3032797D01*
X27706732Y2945829D01*
X27710070Y2940570D01*
X27710070Y2940569D01*
X27725021Y2917010D01*
X27794798Y2807060D01*
X27799334Y2802800D01*
X27799336Y2802798D01*
X27881445Y2725693D01*
X27914607Y2694552D01*
X28058632Y2615373D01*
X28217823Y2574500D01*
X28840925Y2574500D01*
X28930887Y2585865D01*
X28956877Y2589148D01*
X28956878Y2589148D01*
X28963058Y2589929D01*
X29115871Y2650432D01*
X29248837Y2747037D01*
X29252803Y2751832D01*
X29252806Y2751834D01*
X29299112Y2807809D01*
X29353600Y2873674D01*
X29373993Y2917010D01*
X29390341Y2951753D01*
X29423579Y3022387D01*
X29454376Y3183830D01*
X29446829Y3303791D01*
X29446679Y3306177D01*
X31694391Y3306177D01*
X31695306Y3299180D01*
X31695306Y3299179D01*
X31710390Y3183830D01*
X31712980Y3164021D01*
X31715821Y3157565D01*
X31715821Y3157564D01*
X31755126Y3068238D01*
X31770720Y3032797D01*
X31788187Y3012018D01*
X31858431Y2928451D01*
X31858434Y2928449D01*
X31862970Y2923052D01*
X31868841Y2919144D01*
X31868842Y2919143D01*
X31881143Y2910955D01*
X31982313Y2843610D01*
X32082478Y2812317D01*
X32112425Y2802961D01*
X32112426Y2802961D01*
X32119157Y2800858D01*
X32190828Y2799544D01*
X32255445Y2798359D01*
X32255447Y2798359D01*
X32262499Y2798230D01*
X32269302Y2800085D01*
X32269304Y2800085D01*
X32344503Y2820587D01*
X32400817Y2835940D01*
X32522991Y2910955D01*
X32530403Y2919143D01*
X32614468Y3012018D01*
X32619200Y3017246D01*
X32681710Y3146267D01*
X32685875Y3171018D01*
X32704862Y3283876D01*
X32704862Y3283880D01*
X32705496Y3287646D01*
X32705647Y3300000D01*
X32685323Y3441918D01*
X32625984Y3572428D01*
X32561554Y3647202D01*
X32537005Y3675693D01*
X32537004Y3675694D01*
X32532400Y3681037D01*
X32412095Y3759015D01*
X32274739Y3800093D01*
X32191497Y3800602D01*
X32138427Y3800926D01*
X32138426Y3800926D01*
X32131376Y3800969D01*
X32124599Y3799032D01*
X32124598Y3799032D01*
X32000309Y3763510D01*
X32000307Y3763509D01*
X31993529Y3761572D01*
X31872280Y3685070D01*
X31867613Y3679786D01*
X31867611Y3679784D01*
X31782044Y3582897D01*
X31782042Y3582895D01*
X31777377Y3577612D01*
X31774381Y3571230D01*
X31774380Y3571229D01*
X31771927Y3566004D01*
X31716447Y3447837D01*
X31715362Y3440868D01*
X31715361Y3440865D01*
X31713298Y3427613D01*
X31694391Y3306177D01*
X29446679Y3306177D01*
X29444447Y3341649D01*
X29444447Y3341651D01*
X29444056Y3347860D01*
X29411572Y3447837D01*
X29395193Y3498247D01*
X29395192Y3498248D01*
X29393268Y3504171D01*
X29378247Y3527841D01*
X29350711Y3571229D01*
X29305202Y3642940D01*
X29300666Y3647200D01*
X29300664Y3647202D01*
X29185393Y3755448D01*
X29186287Y3756400D01*
X29154270Y3800460D01*
X29154265Y3861646D01*
X29190225Y3911148D01*
X29204791Y3919927D01*
X29235807Y3935155D01*
X29246610Y3940459D01*
X29334927Y4028931D01*
X29362930Y4086218D01*
X29386453Y4134340D01*
X29386454Y4134342D01*
X29389826Y4141241D01*
X29400500Y4214410D01*
X29400500Y4735590D01*
X29389635Y4809396D01*
X29334541Y4921610D01*
X29246069Y5009927D01*
X29159867Y5052064D01*
X29140660Y5061453D01*
X29140658Y5061454D01*
X29133759Y5064826D01*
X29096560Y5070253D01*
X29064135Y5074983D01*
X29064133Y5074983D01*
X29060590Y5075500D01*
X28039410Y5075500D01*
X28008672Y5070975D01*
X27973217Y5065756D01*
X27973215Y5065755D01*
X27965604Y5064635D01*
X27853390Y5009541D01*
X27765073Y4921069D01*
X27761482Y4913722D01*
X27713861Y4816301D01*
X27710174Y4808759D01*
X27699500Y4735590D01*
X27699500Y4214410D01*
X27710365Y4140604D01*
X27765459Y4028390D01*
X27853931Y3940073D01*
X27895145Y3919927D01*
X27899492Y3917802D01*
X27943467Y3875260D01*
X27954039Y3814995D01*
X27927169Y3760025D01*
X27914205Y3748766D01*
X27868950Y3715886D01*
X27851163Y3702963D01*
X27847197Y3698168D01*
X27847194Y3698166D01*
X27828603Y3675693D01*
X27746400Y3576326D01*
X27743749Y3570693D01*
X27743748Y3570691D01*
X27723585Y3527841D01*
X27676421Y3427613D01*
X27645624Y3266170D01*
X25149196Y3266170D01*
X25146829Y3303791D01*
X25144447Y3341649D01*
X25144447Y3341651D01*
X25144056Y3347860D01*
X25111572Y3447837D01*
X25095193Y3498247D01*
X25095192Y3498248D01*
X25093268Y3504171D01*
X25078247Y3527841D01*
X25050711Y3571229D01*
X25005202Y3642940D01*
X25000666Y3647200D01*
X25000664Y3647202D01*
X24919924Y3723021D01*
X24890448Y3776638D01*
X24898116Y3837341D01*
X24942750Y3883399D01*
X24971279Y3897935D01*
X24971281Y3897936D01*
X24978220Y3901472D01*
X25073528Y3996780D01*
X25093654Y4036278D01*
X25131183Y4109934D01*
X25131183Y4109935D01*
X25134719Y4116874D01*
X25137486Y4134340D01*
X25149891Y4212666D01*
X25149891Y4212668D01*
X25150500Y4216512D01*
X25150500Y4733488D01*
X25139683Y4801783D01*
X25135938Y4825431D01*
X25135938Y4825432D01*
X25134719Y4833126D01*
X25131183Y4840066D01*
X25077064Y4946281D01*
X25077063Y4946283D01*
X25073528Y4953220D01*
X24978220Y5048528D01*
X24971283Y5052063D01*
X24971281Y5052064D01*
X24865066Y5106183D01*
X24865065Y5106183D01*
X24858126Y5109719D01*
X24850432Y5110938D01*
X24850431Y5110938D01*
X24762334Y5124891D01*
X24762332Y5124891D01*
X24758488Y5125500D01*
X23741512Y5125500D01*
X23737668Y5124891D01*
X23737666Y5124891D01*
X23649569Y5110938D01*
X23649568Y5110938D01*
X23641874Y5109719D01*
X23634935Y5106183D01*
X23634934Y5106183D01*
X23528719Y5052064D01*
X23528717Y5052063D01*
X23521780Y5048528D01*
X23426472Y4953220D01*
X23422937Y4946283D01*
X23422936Y4946281D01*
X23368817Y4840066D01*
X23365281Y4833126D01*
X23364062Y4825432D01*
X23364062Y4825431D01*
X23360317Y4801783D01*
X23349500Y4733488D01*
X23349500Y4216512D01*
X23350109Y4212668D01*
X23350109Y4212666D01*
X23362515Y4134340D01*
X23365281Y4116874D01*
X23368817Y4109935D01*
X23368817Y4109934D01*
X23406347Y4036278D01*
X23426472Y3996780D01*
X23521780Y3901472D01*
X23528717Y3897937D01*
X23528719Y3897936D01*
X23555702Y3884188D01*
X23598967Y3840923D01*
X23608538Y3780491D01*
X23580761Y3725975D01*
X23568949Y3715886D01*
X23556201Y3706624D01*
X23556198Y3706621D01*
X23551163Y3702963D01*
X23547197Y3698168D01*
X23547194Y3698166D01*
X23528603Y3675693D01*
X23446400Y3576326D01*
X23443749Y3570693D01*
X23443748Y3570691D01*
X23423585Y3527841D01*
X23376421Y3427613D01*
X23345624Y3266170D01*
X20849196Y3266170D01*
X20846829Y3303791D01*
X20844447Y3341649D01*
X20844447Y3341651D01*
X20844056Y3347860D01*
X20811572Y3447837D01*
X20795193Y3498247D01*
X20795192Y3498248D01*
X20793268Y3504171D01*
X20778247Y3527841D01*
X20750711Y3571229D01*
X20705202Y3642940D01*
X20700666Y3647200D01*
X20700664Y3647202D01*
X20619924Y3723021D01*
X20590448Y3776638D01*
X20598116Y3837341D01*
X20642750Y3883399D01*
X20671279Y3897935D01*
X20671281Y3897936D01*
X20678220Y3901472D01*
X20773528Y3996780D01*
X20793654Y4036278D01*
X20831183Y4109934D01*
X20831183Y4109935D01*
X20834719Y4116874D01*
X20837486Y4134340D01*
X20849891Y4212666D01*
X20849891Y4212668D01*
X20850500Y4216512D01*
X20850500Y4733488D01*
X20839683Y4801783D01*
X20835938Y4825431D01*
X20835938Y4825432D01*
X20834719Y4833126D01*
X20831183Y4840066D01*
X20777064Y4946281D01*
X20777063Y4946283D01*
X20773528Y4953220D01*
X20678220Y5048528D01*
X20671283Y5052063D01*
X20671281Y5052064D01*
X20565066Y5106183D01*
X20565065Y5106183D01*
X20558126Y5109719D01*
X20550432Y5110938D01*
X20550431Y5110938D01*
X20462334Y5124891D01*
X20462332Y5124891D01*
X20458488Y5125500D01*
X19441512Y5125500D01*
X19437668Y5124891D01*
X19437666Y5124891D01*
X19349569Y5110938D01*
X19349568Y5110938D01*
X19341874Y5109719D01*
X19334935Y5106183D01*
X19334934Y5106183D01*
X19228719Y5052064D01*
X19228717Y5052063D01*
X19221780Y5048528D01*
X19126472Y4953220D01*
X19122937Y4946283D01*
X19122936Y4946281D01*
X19068817Y4840066D01*
X19065281Y4833126D01*
X19064062Y4825432D01*
X19064062Y4825431D01*
X19060317Y4801783D01*
X19049500Y4733488D01*
X19049500Y4216512D01*
X19050109Y4212668D01*
X19050109Y4212666D01*
X19062515Y4134340D01*
X19065281Y4116874D01*
X19068817Y4109935D01*
X19068817Y4109934D01*
X19106347Y4036278D01*
X19126472Y3996780D01*
X19221780Y3901472D01*
X19228717Y3897937D01*
X19228719Y3897936D01*
X19255702Y3884188D01*
X19298967Y3840923D01*
X19308538Y3780491D01*
X19280761Y3725975D01*
X19268949Y3715886D01*
X19256201Y3706624D01*
X19256198Y3706621D01*
X19251163Y3702963D01*
X19247197Y3698168D01*
X19247194Y3698166D01*
X19228603Y3675693D01*
X19146400Y3576326D01*
X19143749Y3570693D01*
X19143748Y3570691D01*
X19123585Y3527841D01*
X19076421Y3427613D01*
X19045624Y3266170D01*
X16500262Y3266170D01*
X16485044Y3381762D01*
X16424536Y3527841D01*
X16328282Y3653282D01*
X16233760Y3725811D01*
X16199104Y3776235D01*
X16200705Y3837400D01*
X16237953Y3885941D01*
X16250395Y3893220D01*
X16335807Y3935155D01*
X16346610Y3940459D01*
X16434927Y4028931D01*
X16462930Y4086218D01*
X16486453Y4134340D01*
X16486454Y4134342D01*
X16489826Y4141241D01*
X16500500Y4214410D01*
X16500500Y4735590D01*
X16489635Y4809396D01*
X16434541Y4921610D01*
X16346069Y5009927D01*
X16259867Y5052064D01*
X16240660Y5061453D01*
X16240658Y5061454D01*
X16233759Y5064826D01*
X16196560Y5070253D01*
X16164135Y5074983D01*
X16164133Y5074983D01*
X16160590Y5075500D01*
X15139410Y5075500D01*
X15108672Y5070975D01*
X15073217Y5065756D01*
X15073215Y5065755D01*
X15065604Y5064635D01*
X14953390Y5009541D01*
X14865073Y4921069D01*
X14861482Y4913722D01*
X14813861Y4816301D01*
X14810174Y4808759D01*
X14799500Y4735590D01*
X14799500Y4214410D01*
X14810365Y4140604D01*
X14865459Y4028390D01*
X14953931Y3940073D01*
X14961278Y3936482D01*
X14961283Y3936478D01*
X15049518Y3893347D01*
X15093494Y3850806D01*
X15104065Y3790541D01*
X15077195Y3735571D01*
X15066310Y3725865D01*
X14971718Y3653282D01*
X14875464Y3527841D01*
X14814956Y3381762D01*
X14794318Y3225000D01*
X12205682Y3225000D01*
X12185044Y3381762D01*
X12124536Y3527841D01*
X12028282Y3653282D01*
X11933760Y3725811D01*
X11899104Y3776235D01*
X11900705Y3837400D01*
X11937953Y3885941D01*
X11950395Y3893220D01*
X12035807Y3935155D01*
X12046610Y3940459D01*
X12134927Y4028931D01*
X12162930Y4086218D01*
X12186453Y4134340D01*
X12186454Y4134342D01*
X12189826Y4141241D01*
X12200500Y4214410D01*
X12200500Y4735590D01*
X12189635Y4809396D01*
X12134541Y4921610D01*
X12046069Y5009927D01*
X11959867Y5052064D01*
X11940660Y5061453D01*
X11940658Y5061454D01*
X11933759Y5064826D01*
X11896560Y5070253D01*
X11864135Y5074983D01*
X11864133Y5074983D01*
X11860590Y5075500D01*
X10839410Y5075500D01*
X10808672Y5070975D01*
X10773217Y5065756D01*
X10773215Y5065755D01*
X10765604Y5064635D01*
X10653390Y5009541D01*
X10565073Y4921069D01*
X10561482Y4913722D01*
X10513861Y4816301D01*
X10510174Y4808759D01*
X10499500Y4735590D01*
X10499500Y4214410D01*
X10510365Y4140604D01*
X10565459Y4028390D01*
X10653931Y3940073D01*
X10661278Y3936482D01*
X10661283Y3936478D01*
X10749518Y3893347D01*
X10793494Y3850806D01*
X10804065Y3790541D01*
X10777195Y3735571D01*
X10766310Y3725865D01*
X10671718Y3653282D01*
X10575464Y3527841D01*
X10514956Y3381762D01*
X10494318Y3225000D01*
X1340685Y3225000D01*
X476753Y4088932D01*
X475171Y4090756D01*
X473990Y4092990D01*
X469224Y4097614D01*
X467555Y4099538D01*
X463722Y4104649D01*
X463775Y4104689D01*
X453647Y4117515D01*
X437163Y4145249D01*
X428347Y4164523D01*
X411391Y4215392D01*
X406880Y4236101D01*
X403427Y4268176D01*
X403834Y4284515D01*
X403767Y4284515D01*
X403767Y4292304D01*
X404986Y4300001D01*
X401219Y4323786D01*
X400000Y4339272D01*
X400000Y6205560D01*
X12644901Y6205560D01*
X12645816Y6198563D01*
X12645816Y6198562D01*
X12647082Y6188880D01*
X12661633Y6077606D01*
X12664471Y6071155D01*
X12664472Y6071153D01*
X12671458Y6055276D01*
X12713605Y5959490D01*
X12755122Y5910100D01*
X12792100Y5866108D01*
X12792103Y5866106D01*
X12796639Y5860709D01*
X12904060Y5789204D01*
X12910788Y5787102D01*
X12910790Y5787101D01*
X12965646Y5769963D01*
X13027233Y5750722D01*
X13091744Y5749539D01*
X13149202Y5748486D01*
X13149204Y5748486D01*
X13156255Y5748357D01*
X13163058Y5750212D01*
X13163060Y5750212D01*
X13204828Y5761600D01*
X13280755Y5782300D01*
X13390724Y5849821D01*
X13477322Y5945493D01*
X13533588Y6061625D01*
X13554997Y6188880D01*
X13555133Y6200000D01*
X13536839Y6327741D01*
X13483428Y6445212D01*
X13399193Y6542972D01*
X13393276Y6546807D01*
X13393274Y6546809D01*
X13296824Y6609323D01*
X13290906Y6613159D01*
X13284150Y6615179D01*
X13284149Y6615180D01*
X13241335Y6627984D01*
X13167273Y6650134D01*
X13090644Y6650602D01*
X13045282Y6650879D01*
X13038231Y6650922D01*
X13031454Y6648985D01*
X13031453Y6648985D01*
X12920935Y6617399D01*
X12920933Y6617398D01*
X12914155Y6615461D01*
X12805019Y6546601D01*
X12719596Y6449878D01*
X12664754Y6333068D01*
X12644901Y6205560D01*
X400000Y6205560D01*
X400000Y8105560D01*
X9144901Y8105560D01*
X9145816Y8098563D01*
X9145816Y8098562D01*
X9147082Y8088880D01*
X9161633Y7977606D01*
X9164471Y7971155D01*
X9164472Y7971153D01*
X9171458Y7955276D01*
X9213605Y7859490D01*
X9255122Y7810100D01*
X9292100Y7766108D01*
X9292103Y7766106D01*
X9296639Y7760709D01*
X9404060Y7689204D01*
X9410788Y7687102D01*
X9410790Y7687101D01*
X9465647Y7669963D01*
X9527233Y7650722D01*
X9591744Y7649540D01*
X9649202Y7648486D01*
X9649204Y7648486D01*
X9656255Y7648357D01*
X9663058Y7650212D01*
X9663060Y7650212D01*
X9704828Y7661600D01*
X9780755Y7682300D01*
X9890724Y7749821D01*
X9977322Y7845493D01*
X10033588Y7961625D01*
X10054997Y8088880D01*
X10055133Y8100000D01*
X10036839Y8227741D01*
X9983428Y8345212D01*
X9899193Y8442972D01*
X9893276Y8446807D01*
X9893274Y8446809D01*
X9796824Y8509323D01*
X9790906Y8513159D01*
X9784150Y8515179D01*
X9784149Y8515180D01*
X9741335Y8527984D01*
X9667273Y8550134D01*
X9590644Y8550602D01*
X9545282Y8550879D01*
X9538231Y8550922D01*
X9531454Y8548985D01*
X9531453Y8548985D01*
X9420935Y8517399D01*
X9420933Y8517398D01*
X9414155Y8515461D01*
X9305019Y8446601D01*
X9219596Y8349878D01*
X9164754Y8233068D01*
X9144901Y8105560D01*
X400000Y8105560D01*
X400000Y11842697D01*
X1698170Y11842697D01*
X1698407Y11830369D01*
X1752784Y11682577D01*
X1757155Y11673614D01*
X1854428Y11516730D01*
X1860518Y11508822D01*
X1990795Y11371058D01*
X1989625Y11369952D01*
X2017791Y11323460D01*
X2012680Y11262488D01*
X2009620Y11255894D01*
X1994593Y11226401D01*
X1985281Y11208126D01*
X1984062Y11200432D01*
X1984062Y11200431D01*
X1971099Y11118582D01*
X1969500Y11108488D01*
X1969500Y10591512D01*
X1985281Y10491874D01*
X1988817Y10484935D01*
X1988817Y10484934D01*
X1996810Y10469248D01*
X2046472Y10371780D01*
X2141780Y10276472D01*
X2148717Y10272937D01*
X2148719Y10272936D01*
X2254934Y10218817D01*
X2261874Y10215281D01*
X2269568Y10214062D01*
X2269569Y10214062D01*
X2357666Y10200109D01*
X2357668Y10200109D01*
X2361512Y10199500D01*
X3378488Y10199500D01*
X3382332Y10200109D01*
X3382334Y10200109D01*
X3470431Y10214062D01*
X3470432Y10214062D01*
X3478126Y10215281D01*
X3485066Y10218817D01*
X3591281Y10272936D01*
X3591283Y10272937D01*
X3598220Y10276472D01*
X3617337Y10295589D01*
X15202994Y10295589D01*
X15203649Y10289656D01*
X15203649Y10289652D01*
X15220944Y10132996D01*
X15221599Y10127065D01*
X15279866Y9967844D01*
X15283191Y9962895D01*
X15283192Y9962894D01*
X15296289Y9943404D01*
X15374430Y9827117D01*
X15499833Y9713009D01*
X15648835Y9632108D01*
X15683061Y9623129D01*
X15807064Y9590597D01*
X15807068Y9590596D01*
X15812833Y9589084D01*
X15818794Y9588990D01*
X15818797Y9588990D01*
X15945177Y9587005D01*
X16003064Y9567186D01*
X16038246Y9517127D01*
X16037284Y9455949D01*
X15996450Y9404290D01*
X15905019Y9346601D01*
X15819596Y9249878D01*
X15764754Y9133068D01*
X15744901Y9005560D01*
X15745816Y8998563D01*
X15745816Y8998562D01*
X15747082Y8988880D01*
X15761633Y8877606D01*
X15764471Y8871155D01*
X15764472Y8871153D01*
X15809964Y8767764D01*
X15813605Y8759490D01*
X15855122Y8710099D01*
X15892100Y8666108D01*
X15892103Y8666106D01*
X15896639Y8660709D01*
X16004060Y8589204D01*
X16010788Y8587102D01*
X16010790Y8587101D01*
X16065647Y8569963D01*
X16127233Y8550722D01*
X16191744Y8549539D01*
X16249202Y8548486D01*
X16249204Y8548486D01*
X16256255Y8548357D01*
X16263058Y8550212D01*
X16263060Y8550212D01*
X16304828Y8561600D01*
X16380755Y8582300D01*
X16490724Y8649821D01*
X16505466Y8666108D01*
X16572590Y8740265D01*
X16572590Y8740266D01*
X16577322Y8745493D01*
X16633588Y8861625D01*
X16654997Y8988880D01*
X16655133Y9000000D01*
X16636839Y9127741D01*
X16583428Y9245212D01*
X16499193Y9342972D01*
X16493276Y9346807D01*
X16493274Y9346809D01*
X16396824Y9409323D01*
X16390906Y9413159D01*
X16384150Y9415179D01*
X16384149Y9415180D01*
X16296590Y9441366D01*
X16267273Y9450134D01*
X16253295Y9450219D01*
X16218550Y9450432D01*
X16160476Y9469695D01*
X16124816Y9519414D01*
X16125190Y9580598D01*
X16161456Y9629877D01*
X16174674Y9637874D01*
X16293762Y9697769D01*
X16293764Y9697770D01*
X16299098Y9700453D01*
X16303635Y9704328D01*
X16303638Y9704330D01*
X16423488Y9806692D01*
X16423491Y9806695D01*
X16428023Y9810566D01*
X16526961Y9948253D01*
X16532102Y9961040D01*
X16587977Y10100033D01*
X16587978Y10100035D01*
X16590201Y10105566D01*
X16594709Y10137241D01*
X16613634Y10270215D01*
X16613634Y10270221D01*
X16614090Y10273422D01*
X16614245Y10288200D01*
X16593876Y10456520D01*
X16533945Y10615123D01*
X16517226Y10639450D01*
X16441292Y10749933D01*
X16437912Y10754851D01*
X16311321Y10867640D01*
X16161481Y10946976D01*
X16079261Y10967629D01*
X16002831Y10986827D01*
X16002828Y10986827D01*
X15997041Y10988281D01*
X15911441Y10988729D01*
X15833461Y10989138D01*
X15833459Y10989138D01*
X15827495Y10989169D01*
X15821699Y10987777D01*
X15821695Y10987777D01*
X15731441Y10966108D01*
X15662632Y10949588D01*
X15597766Y10916108D01*
X15517275Y10874564D01*
X15517273Y10874562D01*
X15511969Y10871825D01*
X15384204Y10760369D01*
X15380773Y10755487D01*
X15380772Y10755486D01*
X15304407Y10646829D01*
X15286713Y10621653D01*
X15273462Y10587666D01*
X15250528Y10528843D01*
X15225124Y10463687D01*
X15202994Y10295589D01*
X3617337Y10295589D01*
X3693528Y10371780D01*
X3743191Y10469248D01*
X3751183Y10484934D01*
X3751183Y10484935D01*
X3754719Y10491874D01*
X3770500Y10591512D01*
X3770500Y11108488D01*
X3768901Y11118582D01*
X3755938Y11200431D01*
X3755938Y11200432D01*
X3754719Y11208126D01*
X3751183Y11215066D01*
X3751183Y11215067D01*
X3728328Y11259922D01*
X3718757Y11320355D01*
X3746535Y11374871D01*
X3752112Y11380035D01*
X3813527Y11432673D01*
X3820408Y11439899D01*
X3877545Y11513560D01*
X6144901Y11513560D01*
X6145816Y11506563D01*
X6145816Y11506562D01*
X6146601Y11500558D01*
X6161633Y11385606D01*
X6164471Y11379155D01*
X6164472Y11379153D01*
X6199300Y11300000D01*
X6213605Y11267490D01*
X6244859Y11230309D01*
X6292100Y11174108D01*
X6292103Y11174106D01*
X6296639Y11168709D01*
X6404060Y11097204D01*
X6410788Y11095102D01*
X6410790Y11095101D01*
X6465646Y11077963D01*
X6527233Y11058722D01*
X6591744Y11057540D01*
X6649202Y11056486D01*
X6649204Y11056486D01*
X6656255Y11056357D01*
X6663058Y11058212D01*
X6663060Y11058212D01*
X6704828Y11069600D01*
X6780755Y11090300D01*
X6878061Y11150046D01*
X6884711Y11154129D01*
X6890724Y11157821D01*
X6897042Y11164801D01*
X6972590Y11248265D01*
X6972590Y11248266D01*
X6977322Y11253493D01*
X7033588Y11369625D01*
X7050669Y11471153D01*
X7054363Y11493109D01*
X7054363Y11493114D01*
X7054997Y11496880D01*
X7055133Y11508000D01*
X7045515Y11575160D01*
X10202601Y11575160D01*
X10203516Y11568163D01*
X10203516Y11568162D01*
X10204782Y11558480D01*
X10219333Y11447206D01*
X10222171Y11440755D01*
X10222172Y11440753D01*
X10266388Y11340265D01*
X10271305Y11329090D01*
X10298973Y11296175D01*
X10349800Y11235708D01*
X10349803Y11235706D01*
X10354339Y11230309D01*
X10461760Y11158804D01*
X10468488Y11156702D01*
X10468490Y11156701D01*
X10523346Y11139563D01*
X10584933Y11120322D01*
X10649444Y11119139D01*
X10706902Y11118086D01*
X10706904Y11118086D01*
X10713955Y11117957D01*
X10720758Y11119812D01*
X10720760Y11119812D01*
X10774989Y11134597D01*
X10838455Y11151900D01*
X10948424Y11219421D01*
X10962402Y11234864D01*
X11030290Y11309865D01*
X11030290Y11309866D01*
X11035022Y11315093D01*
X11072573Y11392597D01*
X11088212Y11424876D01*
X11088212Y11424877D01*
X11091288Y11431225D01*
X11103727Y11505162D01*
X11112063Y11554709D01*
X11112063Y11554714D01*
X11112697Y11558480D01*
X11112833Y11569600D01*
X11107683Y11605560D01*
X11644901Y11605560D01*
X11645816Y11598563D01*
X11645816Y11598562D01*
X11650558Y11562301D01*
X11661633Y11477606D01*
X11664471Y11471155D01*
X11664472Y11471153D01*
X11710764Y11365946D01*
X11713605Y11359490D01*
X11750925Y11315093D01*
X11792100Y11266108D01*
X11792103Y11266106D01*
X11796639Y11260709D01*
X11904060Y11189204D01*
X11910788Y11187102D01*
X11910790Y11187101D01*
X11965647Y11169963D01*
X12027233Y11150722D01*
X12091744Y11149539D01*
X12149202Y11148486D01*
X12149204Y11148486D01*
X12156255Y11148357D01*
X12163058Y11150212D01*
X12163060Y11150212D01*
X12216570Y11164801D01*
X12280755Y11182300D01*
X12390724Y11249821D01*
X12414228Y11275788D01*
X12441176Y11305560D01*
X14444901Y11305560D01*
X14445816Y11298563D01*
X14445816Y11298562D01*
X14447082Y11288880D01*
X14461633Y11177606D01*
X14464471Y11171155D01*
X14464472Y11171153D01*
X14497936Y11095101D01*
X14513605Y11059490D01*
X14550208Y11015946D01*
X14592100Y10966108D01*
X14592103Y10966106D01*
X14596639Y10960709D01*
X14704060Y10889204D01*
X14710788Y10887102D01*
X14710790Y10887101D01*
X14765647Y10869963D01*
X14827233Y10850722D01*
X14891744Y10849540D01*
X14949202Y10848486D01*
X14949204Y10848486D01*
X14956255Y10848357D01*
X14963058Y10850212D01*
X14963060Y10850212D01*
X15026983Y10867640D01*
X15080755Y10882300D01*
X15190724Y10949821D01*
X15232064Y10995493D01*
X15272590Y11040265D01*
X15272590Y11040266D01*
X15277322Y11045493D01*
X15328243Y11150593D01*
X15330512Y11155276D01*
X15330512Y11155277D01*
X15333588Y11161625D01*
X15347805Y11246129D01*
X15349392Y11255560D01*
X21794901Y11255560D01*
X21795816Y11248563D01*
X21795816Y11248562D01*
X21796689Y11241888D01*
X21811633Y11127606D01*
X21814471Y11121155D01*
X21814472Y11121153D01*
X21860764Y11015946D01*
X21863605Y11009490D01*
X21900071Y10966108D01*
X21942100Y10916108D01*
X21942103Y10916106D01*
X21946639Y10910709D01*
X22054060Y10839204D01*
X22060788Y10837102D01*
X22060790Y10837101D01*
X22096573Y10825922D01*
X22177233Y10800722D01*
X22241744Y10799539D01*
X22299202Y10798486D01*
X22299204Y10798486D01*
X22306255Y10798357D01*
X22313058Y10800212D01*
X22313060Y10800212D01*
X22386149Y10820139D01*
X22430755Y10832300D01*
X22520832Y10887607D01*
X28496000Y10887607D01*
X28496412Y10884435D01*
X28496412Y10884432D01*
X28497693Y10874564D01*
X28504420Y10822748D01*
X28520851Y10760534D01*
X28533412Y10724309D01*
X28589833Y10642831D01*
X28640861Y10593470D01*
X28642569Y10592090D01*
X28642577Y10592083D01*
X28657388Y10580118D01*
X28676083Y10565013D01*
X28682619Y10562296D01*
X28682621Y10562295D01*
X28732973Y10541366D01*
X28767598Y10526974D01*
X28837214Y10513037D01*
X28840737Y10512844D01*
X28840743Y10512843D01*
X28873307Y10511058D01*
X28909400Y10509078D01*
X28912913Y10509388D01*
X28912916Y10509388D01*
X30643290Y10662068D01*
X30702917Y10648348D01*
X30743092Y10602201D01*
X30748470Y10541252D01*
X30743455Y10525565D01*
X30736754Y10509388D01*
X30714956Y10456762D01*
X30694318Y10300000D01*
X30695165Y10293566D01*
X30697684Y10274431D01*
X30714956Y10143238D01*
X30775464Y9997159D01*
X30871718Y9871718D01*
X30876871Y9867764D01*
X30927986Y9828542D01*
X30962642Y9778117D01*
X30961040Y9716953D01*
X30927986Y9671458D01*
X30871718Y9628282D01*
X30775464Y9502841D01*
X30714956Y9356762D01*
X30694318Y9200000D01*
X30714956Y9043238D01*
X30775464Y8897159D01*
X30871718Y8771718D01*
X30997159Y8675464D01*
X31143238Y8614956D01*
X31300000Y8594318D01*
X31456762Y8614956D01*
X31602841Y8675464D01*
X31728282Y8771718D01*
X31771458Y8827986D01*
X31821883Y8862642D01*
X31883047Y8861040D01*
X31928542Y8827986D01*
X31971718Y8771718D01*
X32097159Y8675464D01*
X32243238Y8614956D01*
X32400000Y8594318D01*
X32556762Y8614956D01*
X32702841Y8675464D01*
X32828282Y8771718D01*
X32924536Y8897159D01*
X32985044Y9043238D01*
X33005682Y9200000D01*
X32985044Y9356762D01*
X32924536Y9502841D01*
X32828282Y9628282D01*
X32772014Y9671458D01*
X32737358Y9721883D01*
X32738960Y9783047D01*
X32772014Y9828542D01*
X32823129Y9867764D01*
X32828282Y9871718D01*
X32924536Y9997159D01*
X32985044Y10143238D01*
X33002316Y10274431D01*
X33004835Y10293566D01*
X33005682Y10300000D01*
X32985044Y10456762D01*
X32924536Y10602841D01*
X32847069Y10703798D01*
X32826645Y10761474D01*
X32844023Y10820139D01*
X32892564Y10857387D01*
X32916910Y10862682D01*
X37133868Y11234766D01*
X37133886Y11234768D01*
X37134974Y11234864D01*
X37157583Y11237887D01*
X37169160Y11239968D01*
X37175271Y11241066D01*
X37175273Y11241067D01*
X37179843Y11241888D01*
X37268398Y11275788D01*
X37283487Y11285109D01*
X37326932Y11311946D01*
X37326943Y11311953D01*
X37328799Y11313100D01*
X37365042Y11340231D01*
X37399010Y11385606D01*
X37421524Y11415680D01*
X37421525Y11415682D01*
X37424435Y11419569D01*
X37426533Y11423953D01*
X37447239Y11467229D01*
X37489410Y11511560D01*
X37536543Y11523500D01*
X38721811Y11523501D01*
X38795018Y11523501D01*
X38798861Y11524110D01*
X38798866Y11524110D01*
X38835717Y11529947D01*
X38888804Y11538354D01*
X38947305Y11568162D01*
X38994903Y11592414D01*
X38994905Y11592415D01*
X39001842Y11595950D01*
X39091550Y11685658D01*
X39098341Y11698985D01*
X39145610Y11791756D01*
X39145610Y11791757D01*
X39149146Y11798696D01*
X39153275Y11824762D01*
X39163391Y11888635D01*
X39163391Y11888637D01*
X39164000Y11892481D01*
X39163999Y13155518D01*
X39162815Y13162998D01*
X39150731Y13239293D01*
X39149146Y13249304D01*
X39103214Y13339451D01*
X39095086Y13355403D01*
X39095085Y13355405D01*
X39091550Y13362342D01*
X39001842Y13452050D01*
X38994905Y13455585D01*
X38994903Y13455586D01*
X38895744Y13506110D01*
X38895743Y13506110D01*
X38888804Y13509646D01*
X38881110Y13510865D01*
X38881109Y13510865D01*
X38798865Y13523891D01*
X38798863Y13523891D01*
X38795019Y13524500D01*
X38038598Y13524500D01*
X37281982Y13524499D01*
X37278139Y13523890D01*
X37278134Y13523890D01*
X37249097Y13519291D01*
X37188196Y13509646D01*
X37181258Y13506111D01*
X37181255Y13506110D01*
X37161453Y13496020D01*
X37101021Y13486448D01*
X37076291Y13493765D01*
X37059101Y13501407D01*
X37059100Y13501407D01*
X37054658Y13503382D01*
X37033404Y13508178D01*
X36988861Y13518231D01*
X36988859Y13518231D01*
X36985404Y13519011D01*
X36979245Y13519500D01*
X36916857Y13524449D01*
X36916851Y13524449D01*
X36913334Y13524728D01*
X28851832Y13011005D01*
X28849611Y13010658D01*
X28849608Y13010658D01*
X28808347Y13004218D01*
X28808340Y13004217D01*
X28806126Y13003871D01*
X28795401Y13001178D01*
X28762693Y12992965D01*
X28762680Y12992961D01*
X28761798Y12992740D01*
X28760925Y12992486D01*
X28760912Y12992482D01*
X28754417Y12990588D01*
X28743445Y12987390D01*
X28738414Y12984525D01*
X28738409Y12984523D01*
X28661543Y12940752D01*
X28661539Y12940749D01*
X28657324Y12938349D01*
X28603668Y12891856D01*
X28572227Y12859272D01*
X28568946Y12853000D01*
X28568944Y12852997D01*
X28531964Y12782300D01*
X28526291Y12771455D01*
X28506289Y12703334D01*
X28496000Y12631774D01*
X28496000Y10887607D01*
X22520832Y10887607D01*
X22540724Y10899821D01*
X22555466Y10916108D01*
X22622590Y10990265D01*
X22622590Y10990266D01*
X22627322Y10995493D01*
X22676601Y11097204D01*
X22680512Y11105276D01*
X22680512Y11105277D01*
X22683588Y11111625D01*
X22697297Y11193112D01*
X22704363Y11235109D01*
X22704363Y11235114D01*
X22704997Y11238880D01*
X22705133Y11250000D01*
X22686839Y11377741D01*
X22655255Y11447206D01*
X22636349Y11488788D01*
X22636348Y11488789D01*
X22633428Y11495212D01*
X22549193Y11592972D01*
X22543276Y11596807D01*
X22543274Y11596809D01*
X22465141Y11647451D01*
X22440906Y11663159D01*
X22434150Y11665179D01*
X22434149Y11665180D01*
X22342474Y11692597D01*
X22317273Y11700134D01*
X22240644Y11700602D01*
X22195282Y11700879D01*
X22188231Y11700922D01*
X22181454Y11698985D01*
X22181453Y11698985D01*
X22070935Y11667399D01*
X22070933Y11667398D01*
X22064155Y11665461D01*
X22058191Y11661698D01*
X22034264Y11646601D01*
X21955019Y11596601D01*
X21869596Y11499878D01*
X21814754Y11383068D01*
X21794901Y11255560D01*
X15349392Y11255560D01*
X15354363Y11285109D01*
X15354363Y11285114D01*
X15354997Y11288880D01*
X15355133Y11300000D01*
X15336839Y11427741D01*
X15303666Y11500701D01*
X15286349Y11538788D01*
X15286348Y11538789D01*
X15283428Y11545212D01*
X15225420Y11612534D01*
X15203798Y11637628D01*
X15203797Y11637629D01*
X15199193Y11642972D01*
X15193276Y11646807D01*
X15193274Y11646809D01*
X15117845Y11695698D01*
X15090906Y11713159D01*
X15084150Y11715179D01*
X15084149Y11715180D01*
X15020675Y11734163D01*
X14967273Y11750134D01*
X14890644Y11750602D01*
X14845282Y11750879D01*
X14838231Y11750922D01*
X14831454Y11748985D01*
X14831453Y11748985D01*
X14720935Y11717399D01*
X14720933Y11717398D01*
X14714155Y11715461D01*
X14605019Y11646601D01*
X14519596Y11549878D01*
X14464754Y11433068D01*
X14444901Y11305560D01*
X12441176Y11305560D01*
X12472590Y11340265D01*
X12472590Y11340266D01*
X12477322Y11345493D01*
X12533588Y11461625D01*
X12547362Y11543496D01*
X12554363Y11585109D01*
X12554363Y11585114D01*
X12554997Y11588880D01*
X12555133Y11600000D01*
X12536839Y11727741D01*
X12495129Y11819478D01*
X12486349Y11838788D01*
X12486348Y11838789D01*
X12483428Y11845212D01*
X12422081Y11916409D01*
X12403798Y11937628D01*
X12403797Y11937629D01*
X12399193Y11942972D01*
X12393276Y11946807D01*
X12393274Y11946809D01*
X12296824Y12009323D01*
X12290906Y12013159D01*
X12284150Y12015179D01*
X12284149Y12015180D01*
X12241335Y12027984D01*
X12167273Y12050134D01*
X12090644Y12050602D01*
X12045282Y12050879D01*
X12038231Y12050922D01*
X12031454Y12048985D01*
X12031453Y12048985D01*
X11920935Y12017399D01*
X11920933Y12017398D01*
X11914155Y12015461D01*
X11805019Y11946601D01*
X11719596Y11849878D01*
X11664754Y11733068D01*
X11644901Y11605560D01*
X11107683Y11605560D01*
X11094539Y11697341D01*
X11041128Y11814812D01*
X10977518Y11888635D01*
X10961498Y11907228D01*
X10961497Y11907229D01*
X10956893Y11912572D01*
X10950976Y11916407D01*
X10950974Y11916409D01*
X10854524Y11978923D01*
X10848606Y11982759D01*
X10841850Y11984779D01*
X10841849Y11984780D01*
X10759784Y12009323D01*
X10724973Y12019734D01*
X10648344Y12020202D01*
X10602982Y12020479D01*
X10595931Y12020522D01*
X10589154Y12018585D01*
X10589153Y12018585D01*
X10478635Y11986999D01*
X10478633Y11986998D01*
X10471855Y11985061D01*
X10362719Y11916201D01*
X10277296Y11819478D01*
X10222454Y11702668D01*
X10202601Y11575160D01*
X7045515Y11575160D01*
X7036839Y11635741D01*
X7007542Y11700177D01*
X6986349Y11746788D01*
X6986348Y11746789D01*
X6983428Y11753212D01*
X6916552Y11830826D01*
X6903798Y11845628D01*
X6903797Y11845629D01*
X6899193Y11850972D01*
X6893276Y11854807D01*
X6893274Y11854809D01*
X6796824Y11917323D01*
X6790906Y11921159D01*
X6784150Y11923179D01*
X6784149Y11923180D01*
X6717970Y11942972D01*
X6667273Y11958134D01*
X6590644Y11958602D01*
X6545282Y11958879D01*
X6538231Y11958922D01*
X6531454Y11956985D01*
X6531453Y11956985D01*
X6420935Y11925399D01*
X6420933Y11925398D01*
X6414155Y11923461D01*
X6305019Y11854601D01*
X6219596Y11757878D01*
X6164754Y11641068D01*
X6144901Y11513560D01*
X3877545Y11513560D01*
X3933548Y11585759D01*
X3938831Y11594213D01*
X4020335Y11759850D01*
X4023810Y11769196D01*
X4039864Y11830826D01*
X4039128Y11843225D01*
X4029640Y11846000D01*
X1708336Y11846000D01*
X1698170Y11842697D01*
X400000Y11842697D01*
X400000Y12369174D01*
X1700136Y12369174D01*
X1700872Y12356775D01*
X1710360Y12354000D01*
X4031664Y12354000D01*
X4041830Y12357303D01*
X4041593Y12369631D01*
X3987216Y12517423D01*
X3982845Y12526386D01*
X3885572Y12683270D01*
X3879482Y12691178D01*
X3752650Y12825299D01*
X3745097Y12831819D01*
X3656910Y12893567D01*
X3620088Y12942431D01*
X3619020Y13003607D01*
X3635151Y13034928D01*
X3644536Y13047159D01*
X3705044Y13193238D01*
X3725682Y13350000D01*
X3719605Y13396160D01*
X8421601Y13396160D01*
X8422516Y13389163D01*
X8422516Y13389162D01*
X8423614Y13380765D01*
X8438333Y13268206D01*
X8441171Y13261755D01*
X8441172Y13261753D01*
X8484625Y13162998D01*
X8490305Y13150090D01*
X8531011Y13101664D01*
X8568800Y13056708D01*
X8568803Y13056706D01*
X8573339Y13051309D01*
X8680760Y12979804D01*
X8687488Y12977702D01*
X8687490Y12977701D01*
X8742346Y12960563D01*
X8803933Y12941322D01*
X8868444Y12940140D01*
X8925902Y12939086D01*
X8925904Y12939086D01*
X8932955Y12938957D01*
X8939758Y12940812D01*
X8939760Y12940812D01*
X9008268Y12959490D01*
X9057455Y12972900D01*
X9167424Y13040421D01*
X9209506Y13086912D01*
X9249290Y13130865D01*
X9249290Y13130866D01*
X9254022Y13136093D01*
X9287679Y13205560D01*
X14544901Y13205560D01*
X14545816Y13198563D01*
X14545816Y13198562D01*
X14547082Y13188880D01*
X14561633Y13077606D01*
X14564471Y13071155D01*
X14564472Y13071153D01*
X14605592Y12977701D01*
X14613605Y12959490D01*
X14630865Y12938957D01*
X14692100Y12866108D01*
X14692103Y12866106D01*
X14696639Y12860709D01*
X14804060Y12789204D01*
X14810788Y12787102D01*
X14810790Y12787101D01*
X14847072Y12775766D01*
X14927233Y12750722D01*
X14991744Y12749540D01*
X15049202Y12748486D01*
X15049204Y12748486D01*
X15056255Y12748357D01*
X15063058Y12750212D01*
X15063060Y12750212D01*
X15087444Y12756860D01*
X27187201Y12756860D01*
X27188116Y12749863D01*
X27188116Y12749862D01*
X27189382Y12740180D01*
X27203933Y12628906D01*
X27206771Y12622455D01*
X27206772Y12622453D01*
X27252986Y12517423D01*
X27255905Y12510790D01*
X27297422Y12461400D01*
X27334400Y12417408D01*
X27334403Y12417406D01*
X27338939Y12412009D01*
X27446360Y12340504D01*
X27453088Y12338402D01*
X27453090Y12338401D01*
X27507946Y12321263D01*
X27569533Y12302022D01*
X27634044Y12300839D01*
X27691502Y12299786D01*
X27691504Y12299786D01*
X27698555Y12299657D01*
X27705358Y12301512D01*
X27705360Y12301512D01*
X27747128Y12312900D01*
X27823055Y12333600D01*
X27933024Y12401121D01*
X28019622Y12496793D01*
X28075888Y12612925D01*
X28097297Y12740180D01*
X28097433Y12751300D01*
X28079139Y12879041D01*
X28050880Y12941193D01*
X28028649Y12990088D01*
X28028648Y12990089D01*
X28025728Y12996512D01*
X27961414Y13071153D01*
X27946098Y13088928D01*
X27946097Y13088929D01*
X27941493Y13094272D01*
X27935576Y13098107D01*
X27935574Y13098109D01*
X27855375Y13150090D01*
X27833206Y13164459D01*
X27826450Y13166479D01*
X27826449Y13166480D01*
X27783635Y13179284D01*
X27709573Y13201434D01*
X27632944Y13201902D01*
X27587582Y13202179D01*
X27580531Y13202222D01*
X27573754Y13200285D01*
X27573753Y13200285D01*
X27463235Y13168699D01*
X27463233Y13168698D01*
X27456455Y13166761D01*
X27347319Y13097901D01*
X27261896Y13001178D01*
X27207054Y12884368D01*
X27187201Y12756860D01*
X15087444Y12756860D01*
X15113023Y12763834D01*
X15180755Y12782300D01*
X15290724Y12849821D01*
X15300579Y12860709D01*
X15372590Y12940265D01*
X15372590Y12940266D01*
X15377322Y12945493D01*
X15423315Y13040421D01*
X15430512Y13055276D01*
X15430512Y13055277D01*
X15433588Y13061625D01*
X15450643Y13162998D01*
X15454363Y13185109D01*
X15454363Y13185114D01*
X15454997Y13188880D01*
X15455133Y13200000D01*
X15436839Y13327741D01*
X15409998Y13386775D01*
X15386349Y13438788D01*
X15386348Y13438789D01*
X15383428Y13445212D01*
X15336771Y13499360D01*
X25293301Y13499360D01*
X25294216Y13492363D01*
X25294216Y13492362D01*
X25294989Y13486448D01*
X25310033Y13371406D01*
X25312871Y13364955D01*
X25312872Y13364953D01*
X25355442Y13268206D01*
X25362005Y13253290D01*
X25396264Y13212534D01*
X25440500Y13159908D01*
X25440503Y13159906D01*
X25445039Y13154509D01*
X25552460Y13083004D01*
X25559188Y13080902D01*
X25559190Y13080901D01*
X25598622Y13068582D01*
X25675633Y13044522D01*
X25740144Y13043340D01*
X25797602Y13042286D01*
X25797604Y13042286D01*
X25804655Y13042157D01*
X25811458Y13044012D01*
X25811460Y13044012D01*
X25858027Y13056708D01*
X25929155Y13076100D01*
X26039124Y13143621D01*
X26043859Y13148852D01*
X26120990Y13234065D01*
X26120990Y13234066D01*
X26125722Y13239293D01*
X26181988Y13355425D01*
X26196966Y13444454D01*
X26202763Y13478909D01*
X26202763Y13478914D01*
X26203397Y13482680D01*
X26203533Y13493800D01*
X26185239Y13621541D01*
X26136731Y13728228D01*
X26134749Y13732588D01*
X26134748Y13732589D01*
X26131828Y13739012D01*
X26047593Y13836772D01*
X26041676Y13840607D01*
X26041674Y13840609D01*
X25945224Y13903123D01*
X25939306Y13906959D01*
X25932550Y13908979D01*
X25932549Y13908980D01*
X25845398Y13935044D01*
X25815673Y13943934D01*
X25739044Y13944402D01*
X25693682Y13944679D01*
X25686631Y13944722D01*
X25679854Y13942785D01*
X25679853Y13942785D01*
X25569335Y13911199D01*
X25569333Y13911198D01*
X25562555Y13909261D01*
X25453419Y13840401D01*
X25367996Y13743678D01*
X25313154Y13626868D01*
X25293301Y13499360D01*
X15336771Y13499360D01*
X15315634Y13523891D01*
X15303798Y13537628D01*
X15303797Y13537629D01*
X15299193Y13542972D01*
X15293276Y13546807D01*
X15293274Y13546809D01*
X15196824Y13609323D01*
X15190906Y13613159D01*
X15184150Y13615179D01*
X15184149Y13615180D01*
X15136641Y13629388D01*
X15067273Y13650134D01*
X14990644Y13650602D01*
X14945282Y13650879D01*
X14938231Y13650922D01*
X14931454Y13648985D01*
X14931453Y13648985D01*
X14820935Y13617399D01*
X14820933Y13617398D01*
X14814155Y13615461D01*
X14705019Y13546601D01*
X14619596Y13449878D01*
X14564754Y13333068D01*
X14544901Y13205560D01*
X9287679Y13205560D01*
X9291058Y13212534D01*
X9307212Y13245876D01*
X9307212Y13245877D01*
X9310288Y13252225D01*
X9324384Y13336010D01*
X9331063Y13375709D01*
X9331063Y13375714D01*
X9331697Y13379480D01*
X9331833Y13390600D01*
X9313539Y13518341D01*
X9260128Y13635812D01*
X9175893Y13733572D01*
X9169972Y13737410D01*
X9161683Y13742783D01*
X9123138Y13790300D01*
X9122983Y13793213D01*
X12847899Y13793213D01*
X12848814Y13786216D01*
X12848814Y13786215D01*
X12849851Y13778282D01*
X12864631Y13665259D01*
X12867469Y13658808D01*
X12867470Y13658806D01*
X12886666Y13615180D01*
X12916603Y13547143D01*
X12950547Y13506762D01*
X12995098Y13453761D01*
X12995101Y13453759D01*
X12999637Y13448362D01*
X13107058Y13376857D01*
X13113786Y13374755D01*
X13113788Y13374754D01*
X13168645Y13357616D01*
X13230231Y13338375D01*
X13294742Y13337192D01*
X13352200Y13336139D01*
X13352202Y13336139D01*
X13359253Y13336010D01*
X13366056Y13337865D01*
X13366058Y13337865D01*
X13410567Y13350000D01*
X13483753Y13369953D01*
X13593722Y13437474D01*
X13608464Y13453761D01*
X13675588Y13527918D01*
X13675588Y13527919D01*
X13680320Y13533146D01*
X13736586Y13649278D01*
X13750602Y13732588D01*
X13757361Y13772762D01*
X13757361Y13772767D01*
X13757995Y13776533D01*
X13758131Y13787653D01*
X13739837Y13915394D01*
X13690569Y14023753D01*
X13689347Y14026441D01*
X13689346Y14026442D01*
X13686426Y14032865D01*
X13602191Y14130625D01*
X13596274Y14134460D01*
X13596272Y14134462D01*
X13505850Y14193069D01*
X13493904Y14200812D01*
X13487148Y14202832D01*
X13487147Y14202833D01*
X13444333Y14215637D01*
X13370271Y14237787D01*
X13293642Y14238255D01*
X13248280Y14238532D01*
X13241229Y14238575D01*
X13234452Y14236638D01*
X13234451Y14236638D01*
X13123933Y14205052D01*
X13123931Y14205051D01*
X13117153Y14203114D01*
X13008017Y14134254D01*
X12922594Y14037531D01*
X12867752Y13920721D01*
X12847899Y13793213D01*
X9122983Y13793213D01*
X9119884Y13851399D01*
X9153164Y13902742D01*
X9163731Y13910223D01*
X9247394Y13961592D01*
X9253407Y13965284D01*
X9306331Y14023753D01*
X9335273Y14055728D01*
X9335273Y14055729D01*
X9340005Y14060956D01*
X9396271Y14177088D01*
X9409373Y14254965D01*
X9417046Y14300572D01*
X9417046Y14300577D01*
X9417680Y14304343D01*
X9417816Y14315463D01*
X9399522Y14443204D01*
X9368754Y14510875D01*
X9364487Y14520260D01*
X16571901Y14520260D01*
X16572816Y14513263D01*
X16572816Y14513262D01*
X16574082Y14503580D01*
X16588633Y14392306D01*
X16591471Y14385855D01*
X16591472Y14385853D01*
X16630498Y14297159D01*
X16640605Y14274190D01*
X16670579Y14238532D01*
X16719100Y14180808D01*
X16719103Y14180806D01*
X16723639Y14175409D01*
X16831060Y14103904D01*
X16837788Y14101802D01*
X16837790Y14101801D01*
X16892647Y14084663D01*
X16954233Y14065422D01*
X17018744Y14064240D01*
X17076202Y14063186D01*
X17076204Y14063186D01*
X17083255Y14063057D01*
X17090058Y14064912D01*
X17090060Y14064912D01*
X17131828Y14076300D01*
X17207755Y14097000D01*
X17317724Y14164521D01*
X17324042Y14171501D01*
X17399590Y14254965D01*
X17399590Y14254966D01*
X17404322Y14260193D01*
X17460588Y14376325D01*
X17473810Y14454914D01*
X17481363Y14499809D01*
X17481363Y14499814D01*
X17481997Y14503580D01*
X17482133Y14514700D01*
X17463839Y14642441D01*
X17415623Y14748486D01*
X17413349Y14753488D01*
X17413348Y14753489D01*
X17410428Y14759912D01*
X17379430Y14795887D01*
X22189437Y14795887D01*
X22190352Y14788890D01*
X22190352Y14788889D01*
X22191214Y14782300D01*
X22206169Y14667933D01*
X22209007Y14661482D01*
X22209008Y14661480D01*
X22243475Y14583148D01*
X22258141Y14549817D01*
X22284474Y14518490D01*
X22336636Y14456435D01*
X22336639Y14456433D01*
X22341175Y14451036D01*
X22448596Y14379531D01*
X22455324Y14377429D01*
X22455326Y14377428D01*
X22510182Y14360290D01*
X22571769Y14341049D01*
X22636280Y14339866D01*
X22693738Y14338813D01*
X22693740Y14338813D01*
X22700791Y14338684D01*
X22707594Y14340539D01*
X22707596Y14340539D01*
X22749364Y14351927D01*
X22825291Y14372627D01*
X22935260Y14440148D01*
X22985430Y14495575D01*
X23017126Y14530592D01*
X23017126Y14530593D01*
X23021858Y14535820D01*
X23078124Y14651952D01*
X23097072Y14764578D01*
X23098899Y14775436D01*
X23098899Y14775441D01*
X23099533Y14779207D01*
X23099669Y14790327D01*
X23081375Y14918068D01*
X23055547Y14974874D01*
X36909041Y14974874D01*
X36939435Y14773903D01*
X37009619Y14583148D01*
X37116726Y14410401D01*
X37120170Y14406759D01*
X37133838Y14392306D01*
X37256381Y14262720D01*
X37260486Y14259846D01*
X37260489Y14259843D01*
X37418773Y14149012D01*
X37422879Y14146137D01*
X37427475Y14144148D01*
X37427477Y14144147D01*
X37527903Y14100689D01*
X37609419Y14065414D01*
X37808380Y14023849D01*
X37812932Y14023610D01*
X37813734Y14023568D01*
X37813749Y14023568D01*
X37815039Y14023500D01*
X38214300Y14023500D01*
X38216788Y14023753D01*
X38216794Y14023753D01*
X38289604Y14031149D01*
X38365716Y14038880D01*
X38456733Y14067403D01*
X38554889Y14098163D01*
X38554890Y14098163D01*
X38559672Y14099662D01*
X38737444Y14198203D01*
X38891771Y14330477D01*
X39016348Y14491081D01*
X39106087Y14673455D01*
X39133544Y14778865D01*
X39156057Y14865290D01*
X39156058Y14865294D01*
X39157322Y14870148D01*
X39167959Y15073126D01*
X39137565Y15274097D01*
X39067381Y15464852D01*
X38960274Y15637599D01*
X38919149Y15681088D01*
X38824064Y15781637D01*
X38820619Y15785280D01*
X38816514Y15788154D01*
X38816511Y15788157D01*
X38658227Y15898988D01*
X38654121Y15901863D01*
X38649525Y15903852D01*
X38649523Y15903853D01*
X38472177Y15980597D01*
X38472178Y15980597D01*
X38467581Y15982586D01*
X38268620Y16024151D01*
X38264068Y16024390D01*
X38263266Y16024432D01*
X38263251Y16024432D01*
X38261961Y16024500D01*
X37862700Y16024500D01*
X37860212Y16024247D01*
X37860206Y16024247D01*
X37799684Y16018099D01*
X37711284Y16009120D01*
X37706504Y16007622D01*
X37523752Y15950351D01*
X37517328Y15948338D01*
X37339556Y15849797D01*
X37185229Y15717523D01*
X37060652Y15556919D01*
X36970913Y15374545D01*
X36958128Y15325464D01*
X36922551Y15188880D01*
X36919678Y15177852D01*
X36919415Y15172840D01*
X36919415Y15172838D01*
X36917564Y15137511D01*
X36909041Y14974874D01*
X23055547Y14974874D01*
X23046339Y14995125D01*
X23030885Y15029115D01*
X23030884Y15029116D01*
X23027964Y15035539D01*
X22964045Y15109721D01*
X22948334Y15127955D01*
X22948333Y15127956D01*
X22943729Y15133299D01*
X22937812Y15137134D01*
X22937810Y15137136D01*
X22849864Y15194138D01*
X22835442Y15203486D01*
X22828686Y15205506D01*
X22828685Y15205507D01*
X22737535Y15232767D01*
X22711809Y15240461D01*
X22635180Y15240929D01*
X22589818Y15241206D01*
X22582767Y15241249D01*
X22575990Y15239312D01*
X22575989Y15239312D01*
X22465471Y15207726D01*
X22465469Y15207725D01*
X22458691Y15205788D01*
X22349555Y15136928D01*
X22264132Y15040205D01*
X22209290Y14923395D01*
X22189437Y14795887D01*
X17379430Y14795887D01*
X17326193Y14857672D01*
X17320276Y14861507D01*
X17320274Y14861509D01*
X17223824Y14924023D01*
X17217906Y14927859D01*
X17211150Y14929879D01*
X17211149Y14929880D01*
X17158943Y14945493D01*
X17094273Y14964834D01*
X17017644Y14965302D01*
X16972282Y14965579D01*
X16965231Y14965622D01*
X16958454Y14963685D01*
X16958453Y14963685D01*
X16847935Y14932099D01*
X16847933Y14932098D01*
X16841155Y14930161D01*
X16732019Y14861301D01*
X16646596Y14764578D01*
X16591754Y14647768D01*
X16571901Y14520260D01*
X9364487Y14520260D01*
X9349032Y14554251D01*
X9349031Y14554252D01*
X9346111Y14560675D01*
X9277069Y14640803D01*
X9253408Y14697227D01*
X9261220Y14730403D01*
X9246956Y14718413D01*
X9185924Y14714092D01*
X9166273Y14722615D01*
X9165909Y14721828D01*
X9159507Y14724786D01*
X9153589Y14728622D01*
X9146833Y14730642D01*
X9146832Y14730643D01*
X9087170Y14748486D01*
X9029956Y14765597D01*
X8953327Y14766065D01*
X8907965Y14766342D01*
X8900914Y14766385D01*
X8894137Y14764448D01*
X8894136Y14764448D01*
X8783618Y14732862D01*
X8783616Y14732861D01*
X8776838Y14730924D01*
X8667702Y14662064D01*
X8582279Y14565341D01*
X8527437Y14448531D01*
X8507584Y14321023D01*
X8508499Y14314026D01*
X8508499Y14314025D01*
X8509765Y14304343D01*
X8524316Y14193069D01*
X8527154Y14186618D01*
X8527155Y14186616D01*
X8564964Y14100689D01*
X8576288Y14074953D01*
X8611667Y14032865D01*
X8654783Y13981571D01*
X8654786Y13981569D01*
X8659322Y13976172D01*
X8665191Y13972265D01*
X8665197Y13972260D01*
X8678719Y13963259D01*
X8716682Y13915275D01*
X8719189Y13854141D01*
X8685284Y13803208D01*
X8676691Y13797124D01*
X8581719Y13737201D01*
X8496296Y13640478D01*
X8441454Y13523668D01*
X8421601Y13396160D01*
X3719605Y13396160D01*
X3705044Y13506762D01*
X3644536Y13652841D01*
X3548282Y13778282D01*
X3422841Y13874536D01*
X3401113Y13883536D01*
X3354588Y13923273D01*
X3340304Y13982767D01*
X3363719Y14039295D01*
X3401113Y14066464D01*
X3403380Y14067403D01*
X3422841Y14075464D01*
X3548282Y14171718D01*
X3644536Y14297159D01*
X3705044Y14443238D01*
X3725682Y14600000D01*
X3705044Y14756762D01*
X3644536Y14902841D01*
X3548282Y15028282D01*
X3422841Y15124536D01*
X3401113Y15133536D01*
X3354588Y15173273D01*
X3346836Y15205560D01*
X9144901Y15205560D01*
X9145816Y15198563D01*
X9145816Y15198562D01*
X9147082Y15188880D01*
X9161633Y15077606D01*
X9164471Y15071155D01*
X9164472Y15071153D01*
X9199891Y14990657D01*
X9213605Y14959490D01*
X9266263Y14896846D01*
X9285573Y14873874D01*
X9308543Y14817164D01*
X9300656Y14785411D01*
X9313784Y14796723D01*
X9374759Y14801790D01*
X9394688Y14794781D01*
X9398194Y14793109D01*
X9404060Y14789204D01*
X9410785Y14787103D01*
X9410787Y14787102D01*
X9453035Y14773903D01*
X9527233Y14750722D01*
X9591744Y14749539D01*
X9649202Y14748486D01*
X9649204Y14748486D01*
X9656255Y14748357D01*
X9663058Y14750212D01*
X9663060Y14750212D01*
X9718246Y14765258D01*
X9780755Y14782300D01*
X9890724Y14849821D01*
X9895459Y14855052D01*
X9972590Y14940265D01*
X9972590Y14940266D01*
X9977322Y14945493D01*
X10023278Y15040346D01*
X10030512Y15055276D01*
X10030512Y15055277D01*
X10033588Y15061625D01*
X10046890Y15140691D01*
X10054363Y15185109D01*
X10054363Y15185114D01*
X10054997Y15188880D01*
X10055133Y15200000D01*
X10036839Y15327741D01*
X9983428Y15445212D01*
X9965981Y15465460D01*
X14668201Y15465460D01*
X14669116Y15458463D01*
X14669116Y15458462D01*
X14671689Y15438788D01*
X14684933Y15337506D01*
X14687771Y15331055D01*
X14687772Y15331053D01*
X14728139Y15239312D01*
X14736905Y15219390D01*
X14763465Y15187793D01*
X14815400Y15126008D01*
X14815403Y15126006D01*
X14819939Y15120609D01*
X14927360Y15049104D01*
X14934088Y15047002D01*
X14934090Y15047001D01*
X14971185Y15035412D01*
X15050533Y15010622D01*
X15115044Y15009439D01*
X15172502Y15008386D01*
X15172504Y15008386D01*
X15179555Y15008257D01*
X15186358Y15010112D01*
X15186360Y15010112D01*
X15234104Y15023129D01*
X15304055Y15042200D01*
X15414024Y15109721D01*
X15418759Y15114952D01*
X15424184Y15119456D01*
X15425328Y15118078D01*
X15470613Y15144065D01*
X15531446Y15137511D01*
X15566728Y15110874D01*
X15573339Y15103009D01*
X15680760Y15031504D01*
X15687488Y15029402D01*
X15687490Y15029401D01*
X15740868Y15012725D01*
X15803933Y14993022D01*
X15868444Y14991839D01*
X15925902Y14990786D01*
X15925904Y14990786D01*
X15932955Y14990657D01*
X15939758Y14992512D01*
X15939760Y14992512D01*
X16004314Y15010112D01*
X16057455Y15024600D01*
X16167424Y15092121D01*
X16183355Y15109721D01*
X16249290Y15182565D01*
X16249290Y15182566D01*
X16254022Y15187793D01*
X16310288Y15303925D01*
X16329440Y15417764D01*
X16331063Y15427409D01*
X16331063Y15427414D01*
X16331697Y15431180D01*
X16331833Y15442300D01*
X16313539Y15570041D01*
X16260128Y15687512D01*
X16200830Y15756331D01*
X16180498Y15779928D01*
X16180497Y15779929D01*
X16175893Y15785272D01*
X16169976Y15789107D01*
X16169974Y15789109D01*
X16081379Y15846532D01*
X16067606Y15855459D01*
X16060854Y15857478D01*
X16055005Y15860181D01*
X16010112Y15901753D01*
X16000490Y15950351D01*
X15995486Y15934334D01*
X15946396Y15897812D01*
X15914135Y15892616D01*
X15841491Y15893060D01*
X15821982Y15893179D01*
X15814931Y15893222D01*
X15808154Y15891285D01*
X15808153Y15891285D01*
X15697635Y15859699D01*
X15697633Y15859698D01*
X15690855Y15857761D01*
X15684891Y15853998D01*
X15587687Y15792667D01*
X15587685Y15792665D01*
X15581719Y15788901D01*
X15577047Y15783611D01*
X15572391Y15779648D01*
X15515823Y15756331D01*
X15456352Y15770717D01*
X15433227Y15790415D01*
X15427099Y15797527D01*
X15427097Y15797529D01*
X15422493Y15802872D01*
X15416576Y15806707D01*
X15416574Y15806709D01*
X15334818Y15859699D01*
X15314206Y15873059D01*
X15307450Y15875079D01*
X15307449Y15875080D01*
X15246787Y15893222D01*
X15190573Y15910034D01*
X15113944Y15910502D01*
X15068582Y15910779D01*
X15061531Y15910822D01*
X15054754Y15908885D01*
X15054753Y15908885D01*
X14944235Y15877299D01*
X14944233Y15877298D01*
X14937455Y15875361D01*
X14828319Y15806501D01*
X14742896Y15709778D01*
X14688054Y15592968D01*
X14668201Y15465460D01*
X9965981Y15465460D01*
X9899193Y15542972D01*
X9893276Y15546807D01*
X9893274Y15546809D01*
X9796824Y15609323D01*
X9790906Y15613159D01*
X9784150Y15615179D01*
X9784149Y15615180D01*
X9741335Y15627984D01*
X9667273Y15650134D01*
X9590644Y15650602D01*
X9545282Y15650879D01*
X9538231Y15650922D01*
X9531454Y15648985D01*
X9531453Y15648985D01*
X9420935Y15617399D01*
X9420933Y15617398D01*
X9414155Y15615461D01*
X9305019Y15546601D01*
X9219596Y15449878D01*
X9164754Y15333068D01*
X9144901Y15205560D01*
X3346836Y15205560D01*
X3340304Y15232767D01*
X3363719Y15289295D01*
X3401113Y15316464D01*
X3411477Y15320757D01*
X3422841Y15325464D01*
X3548282Y15421718D01*
X3644536Y15547159D01*
X3705044Y15693238D01*
X3725682Y15850000D01*
X3705044Y16006762D01*
X3644536Y16152841D01*
X3548282Y16278282D01*
X3422841Y16374536D01*
X3401113Y16383536D01*
X3354588Y16423273D01*
X3340304Y16482767D01*
X3363719Y16539295D01*
X3401113Y16566464D01*
X3403380Y16567403D01*
X3422841Y16575464D01*
X3462063Y16605560D01*
X5644901Y16605560D01*
X5645816Y16598563D01*
X5645816Y16598562D01*
X5649133Y16573197D01*
X5661633Y16477606D01*
X5664471Y16471155D01*
X5664472Y16471153D01*
X5708723Y16370585D01*
X5713605Y16359490D01*
X5734419Y16334729D01*
X5792100Y16266108D01*
X5792103Y16266106D01*
X5796639Y16260709D01*
X5904060Y16189204D01*
X5910788Y16187102D01*
X5910790Y16187101D01*
X5965627Y16169969D01*
X6027233Y16150722D01*
X6091744Y16149539D01*
X6149202Y16148486D01*
X6149204Y16148486D01*
X6156255Y16148357D01*
X6163058Y16150212D01*
X6163060Y16150212D01*
X6204828Y16161600D01*
X6280755Y16182300D01*
X6377050Y16241425D01*
X6384711Y16246129D01*
X6390724Y16249821D01*
X6400579Y16260709D01*
X6472590Y16340265D01*
X6472590Y16340266D01*
X6477322Y16345493D01*
X6480875Y16352825D01*
X6499146Y16390537D01*
X6541533Y16434662D01*
X6601761Y16445444D01*
X6643097Y16429784D01*
X6658494Y16419535D01*
X6704060Y16389204D01*
X6710788Y16387102D01*
X6710790Y16387101D01*
X6751009Y16374536D01*
X6827233Y16350722D01*
X6891744Y16349540D01*
X6949202Y16348486D01*
X6949204Y16348486D01*
X6956255Y16348357D01*
X6963058Y16350212D01*
X6963060Y16350212D01*
X7020770Y16365946D01*
X7080755Y16382300D01*
X7190724Y16449821D01*
X7200579Y16460709D01*
X7272590Y16540265D01*
X7272590Y16540266D01*
X7277322Y16545493D01*
X7333588Y16661625D01*
X7339062Y16694160D01*
X14560601Y16694160D01*
X14561516Y16687163D01*
X14561516Y16687162D01*
X14562350Y16680786D01*
X14577333Y16566206D01*
X14580171Y16559755D01*
X14580172Y16559753D01*
X14626464Y16454546D01*
X14629305Y16448090D01*
X14668392Y16401590D01*
X14707800Y16354708D01*
X14707803Y16354706D01*
X14712339Y16349309D01*
X14819760Y16277804D01*
X14826488Y16275702D01*
X14826490Y16275701D01*
X14878587Y16259425D01*
X14942933Y16239322D01*
X15007444Y16238139D01*
X15064902Y16237086D01*
X15064904Y16237086D01*
X15071955Y16236957D01*
X15078758Y16238812D01*
X15078760Y16238812D01*
X15131133Y16253091D01*
X15196455Y16270900D01*
X15306424Y16338421D01*
X15315418Y16348357D01*
X15388290Y16428865D01*
X15388290Y16428866D01*
X15393022Y16434093D01*
X15427164Y16504560D01*
X15678401Y16504560D01*
X15679316Y16497563D01*
X15679316Y16497562D01*
X15680582Y16487880D01*
X15695133Y16376606D01*
X15697971Y16370155D01*
X15697972Y16370153D01*
X15741644Y16270900D01*
X15747105Y16258490D01*
X15788622Y16209100D01*
X15825600Y16165108D01*
X15825603Y16165106D01*
X15830139Y16159709D01*
X15937560Y16088204D01*
X15944290Y16086101D01*
X15950658Y16083064D01*
X15950126Y16081950D01*
X15994168Y16050708D01*
X16013228Y15994232D01*
X16023894Y16017316D01*
X16077304Y16047165D01*
X16098343Y16049033D01*
X16151104Y16048065D01*
X16182702Y16047486D01*
X16182704Y16047486D01*
X16189755Y16047357D01*
X16196558Y16049212D01*
X16196560Y16049212D01*
X16238328Y16060600D01*
X16314255Y16081300D01*
X16424224Y16148821D01*
X16431890Y16157290D01*
X16506090Y16239265D01*
X16506090Y16239266D01*
X16510822Y16244493D01*
X16533322Y16290932D01*
X22485880Y16290932D01*
X22486795Y16283935D01*
X22486795Y16283934D01*
X22487597Y16277804D01*
X22502612Y16162978D01*
X22505450Y16156527D01*
X22505451Y16156525D01*
X22551068Y16052852D01*
X22554584Y16044862D01*
X22592020Y16000326D01*
X22633079Y15951480D01*
X22633082Y15951478D01*
X22637618Y15946081D01*
X22745039Y15874576D01*
X22751767Y15872474D01*
X22751769Y15872473D01*
X22791114Y15860181D01*
X22868212Y15836094D01*
X22932723Y15834912D01*
X22990181Y15833858D01*
X22990183Y15833858D01*
X22997234Y15833729D01*
X23004037Y15835584D01*
X23004039Y15835584D01*
X23056170Y15849797D01*
X23121734Y15867672D01*
X23231703Y15935193D01*
X23275690Y15983789D01*
X23313569Y16025637D01*
X23313569Y16025638D01*
X23318301Y16030865D01*
X23352697Y16101857D01*
X23371491Y16140648D01*
X23371491Y16140649D01*
X23374567Y16146997D01*
X23390090Y16239265D01*
X23395342Y16270481D01*
X23395342Y16270486D01*
X23395976Y16274252D01*
X23396026Y16278282D01*
X23396065Y16281547D01*
X23396112Y16285372D01*
X23379215Y16403360D01*
X23633701Y16403360D01*
X23634616Y16396363D01*
X23634616Y16396362D01*
X23637470Y16374536D01*
X23650433Y16275406D01*
X23653271Y16268955D01*
X23653272Y16268953D01*
X23689288Y16187101D01*
X23702405Y16157290D01*
X23743922Y16107899D01*
X23780900Y16063908D01*
X23780903Y16063906D01*
X23785439Y16058509D01*
X23892860Y15987004D01*
X23899588Y15984902D01*
X23899590Y15984901D01*
X23954446Y15967763D01*
X24016033Y15948522D01*
X24080544Y15947340D01*
X24138002Y15946286D01*
X24138004Y15946286D01*
X24145055Y15946157D01*
X24151858Y15948012D01*
X24151860Y15948012D01*
X24193628Y15959400D01*
X24269555Y15980100D01*
X24379524Y16047621D01*
X24410597Y16081950D01*
X24461390Y16138065D01*
X24461390Y16138066D01*
X24466122Y16143293D01*
X24512586Y16239193D01*
X24519312Y16253076D01*
X24519312Y16253077D01*
X24522388Y16259425D01*
X24537350Y16348357D01*
X24543163Y16382909D01*
X24543163Y16382914D01*
X24543797Y16386680D01*
X24543933Y16397800D01*
X24525639Y16525541D01*
X24490832Y16602094D01*
X24475149Y16636588D01*
X24475148Y16636589D01*
X24472228Y16643012D01*
X24410544Y16714600D01*
X24392598Y16735428D01*
X24392597Y16735429D01*
X24387993Y16740772D01*
X24382076Y16744607D01*
X24382074Y16744609D01*
X24291748Y16803154D01*
X24279706Y16810959D01*
X24272950Y16812979D01*
X24272949Y16812980D01*
X24214444Y16830477D01*
X24156073Y16847934D01*
X24079444Y16848402D01*
X24034082Y16848679D01*
X24027031Y16848722D01*
X24020254Y16846785D01*
X24020253Y16846785D01*
X23909735Y16815199D01*
X23909733Y16815198D01*
X23902955Y16813261D01*
X23793819Y16744401D01*
X23708396Y16647678D01*
X23653554Y16530868D01*
X23633701Y16403360D01*
X23379215Y16403360D01*
X23377818Y16413113D01*
X23339421Y16497562D01*
X23327328Y16524160D01*
X23327327Y16524161D01*
X23324407Y16530584D01*
X23271374Y16592132D01*
X23244777Y16623000D01*
X23244776Y16623001D01*
X23240172Y16628344D01*
X23234255Y16632179D01*
X23234253Y16632181D01*
X23147207Y16688600D01*
X23131885Y16698531D01*
X23125129Y16700551D01*
X23125128Y16700552D01*
X23039709Y16726098D01*
X23008252Y16735506D01*
X22931623Y16735974D01*
X22886261Y16736251D01*
X22879210Y16736294D01*
X22872433Y16734357D01*
X22872432Y16734357D01*
X22761914Y16702771D01*
X22761912Y16702770D01*
X22755134Y16700833D01*
X22645998Y16631973D01*
X22560575Y16535250D01*
X22505733Y16418440D01*
X22485880Y16290932D01*
X16533322Y16290932D01*
X16562043Y16350212D01*
X16564012Y16354276D01*
X16564012Y16354277D01*
X16567088Y16360625D01*
X16578096Y16426059D01*
X16587863Y16484109D01*
X16587863Y16484114D01*
X16588497Y16487880D01*
X16588633Y16499000D01*
X16570339Y16626741D01*
X16544808Y16682893D01*
X16519849Y16737788D01*
X16519848Y16737789D01*
X16516928Y16744212D01*
X16454778Y16816341D01*
X16437298Y16836628D01*
X16437297Y16836629D01*
X16432693Y16841972D01*
X16389290Y16870104D01*
X16350744Y16917619D01*
X16347488Y16978717D01*
X16380766Y17030061D01*
X16391335Y17037545D01*
X16431524Y17062221D01*
X16446613Y17078891D01*
X16513390Y17152665D01*
X16513390Y17152666D01*
X16518122Y17157893D01*
X16574388Y17274025D01*
X16585396Y17339459D01*
X16595163Y17397509D01*
X16595163Y17397514D01*
X16595797Y17401280D01*
X16595933Y17412400D01*
X16577639Y17540141D01*
X16524228Y17657612D01*
X16450198Y17743529D01*
X16444598Y17750028D01*
X16444597Y17750029D01*
X16439993Y17755372D01*
X16434076Y17759207D01*
X16434074Y17759209D01*
X16337624Y17821723D01*
X16331706Y17825559D01*
X16324950Y17827579D01*
X16324949Y17827580D01*
X16261348Y17846601D01*
X16208073Y17862534D01*
X16131444Y17863002D01*
X16086082Y17863279D01*
X16079031Y17863322D01*
X16072254Y17861385D01*
X16072253Y17861385D01*
X15961735Y17829799D01*
X15961733Y17829798D01*
X15954955Y17827861D01*
X15948991Y17824098D01*
X15945227Y17821723D01*
X15845819Y17759001D01*
X15760396Y17662278D01*
X15705554Y17545468D01*
X15685701Y17417960D01*
X15686616Y17410963D01*
X15686616Y17410962D01*
X15688375Y17397509D01*
X15702433Y17290006D01*
X15705271Y17283555D01*
X15705272Y17283553D01*
X15735233Y17215461D01*
X15754405Y17171890D01*
X15783975Y17136712D01*
X15832900Y17078508D01*
X15832903Y17078506D01*
X15837439Y17073109D01*
X15843309Y17069201D01*
X15843312Y17069199D01*
X15886283Y17040595D01*
X15924246Y16992611D01*
X15926755Y16931477D01*
X15892851Y16880544D01*
X15884255Y16874458D01*
X15838519Y16845601D01*
X15753096Y16748878D01*
X15698254Y16632068D01*
X15678401Y16504560D01*
X15427164Y16504560D01*
X15436533Y16523898D01*
X15446212Y16543876D01*
X15446212Y16543877D01*
X15449288Y16550225D01*
X15460986Y16619757D01*
X15470063Y16673709D01*
X15470063Y16673714D01*
X15470697Y16677480D01*
X15470833Y16688600D01*
X15452539Y16816341D01*
X15423348Y16880544D01*
X15402049Y16927388D01*
X15402048Y16927389D01*
X15399128Y16933812D01*
X15333562Y17009906D01*
X15319498Y17026228D01*
X15319497Y17026229D01*
X15314893Y17031572D01*
X15308976Y17035407D01*
X15308974Y17035409D01*
X15235320Y17083148D01*
X15206606Y17101759D01*
X15199850Y17103779D01*
X15199849Y17103780D01*
X15128892Y17125001D01*
X15082973Y17138734D01*
X15006344Y17139202D01*
X14960982Y17139479D01*
X14953931Y17139522D01*
X14947154Y17137585D01*
X14947153Y17137585D01*
X14836635Y17105999D01*
X14836633Y17105998D01*
X14829855Y17104061D01*
X14823891Y17100298D01*
X14812502Y17093112D01*
X14720719Y17035201D01*
X14635296Y16938478D01*
X14580454Y16821668D01*
X14560601Y16694160D01*
X7339062Y16694160D01*
X7346150Y16736294D01*
X7354363Y16785109D01*
X7354363Y16785114D01*
X7354997Y16788880D01*
X7355048Y16793009D01*
X7355086Y16796175D01*
X7355133Y16800000D01*
X7336839Y16927741D01*
X7310990Y16984593D01*
X7286349Y17038788D01*
X7286348Y17038789D01*
X7283428Y17045212D01*
X7221825Y17116706D01*
X7203798Y17137628D01*
X7203797Y17137629D01*
X7199193Y17142972D01*
X7193276Y17146807D01*
X7193274Y17146809D01*
X7096824Y17209323D01*
X7090906Y17213159D01*
X7084150Y17215179D01*
X7084149Y17215180D01*
X7016957Y17235275D01*
X6985576Y17244660D01*
X10993401Y17244660D01*
X10994316Y17237663D01*
X10994316Y17237662D01*
X10995582Y17227980D01*
X11010133Y17116706D01*
X11012971Y17110255D01*
X11012972Y17110253D01*
X11057126Y17009906D01*
X11062105Y16998590D01*
X11089357Y16966170D01*
X11140600Y16905208D01*
X11140603Y16905206D01*
X11145139Y16899809D01*
X11252560Y16828304D01*
X11259288Y16826202D01*
X11259290Y16826201D01*
X11301609Y16812980D01*
X11375733Y16789822D01*
X11440244Y16788640D01*
X11497702Y16787586D01*
X11497704Y16787586D01*
X11504755Y16787457D01*
X11511558Y16789312D01*
X11511560Y16789312D01*
X11585599Y16809498D01*
X11629255Y16821400D01*
X11739224Y16888921D01*
X11794215Y16949674D01*
X11821090Y16979365D01*
X11821090Y16979366D01*
X11825822Y16984593D01*
X11876506Y17089204D01*
X11879012Y17094376D01*
X11879012Y17094377D01*
X11882088Y17100725D01*
X11894324Y17173455D01*
X11902863Y17224209D01*
X11902863Y17224214D01*
X11903497Y17227980D01*
X11903633Y17239100D01*
X11885339Y17366841D01*
X11831928Y17484312D01*
X11757672Y17570491D01*
X11752298Y17576728D01*
X11752297Y17576729D01*
X11747693Y17582072D01*
X11741776Y17585907D01*
X11741774Y17585909D01*
X11667325Y17634163D01*
X11639406Y17652259D01*
X11632650Y17654279D01*
X11632649Y17654280D01*
X11588237Y17667562D01*
X11515773Y17689234D01*
X11439144Y17689702D01*
X11393782Y17689979D01*
X11386731Y17690022D01*
X11379954Y17688085D01*
X11379953Y17688085D01*
X11269435Y17656499D01*
X11269433Y17656498D01*
X11262655Y17654561D01*
X11153519Y17585701D01*
X11068096Y17488978D01*
X11013254Y17372168D01*
X10993401Y17244660D01*
X6985576Y17244660D01*
X6967273Y17250134D01*
X6890644Y17250602D01*
X6845282Y17250879D01*
X6838231Y17250922D01*
X6831454Y17248985D01*
X6831453Y17248985D01*
X6720935Y17217399D01*
X6720933Y17217398D01*
X6714155Y17215461D01*
X6605019Y17146601D01*
X6519596Y17049878D01*
X6516601Y17043498D01*
X6516598Y17043494D01*
X6501253Y17010809D01*
X6459408Y16966170D01*
X6399316Y16954652D01*
X6357793Y16969806D01*
X6290906Y17013159D01*
X6284150Y17015179D01*
X6284149Y17015180D01*
X6234391Y17030061D01*
X6167273Y17050134D01*
X6090644Y17050602D01*
X6045282Y17050879D01*
X6038231Y17050922D01*
X6031454Y17048985D01*
X6031453Y17048985D01*
X5920935Y17017399D01*
X5920933Y17017398D01*
X5914155Y17015461D01*
X5805019Y16946601D01*
X5719596Y16849878D01*
X5664754Y16733068D01*
X5644901Y16605560D01*
X3462063Y16605560D01*
X3548282Y16671718D01*
X3644536Y16797159D01*
X3705044Y16943238D01*
X3725682Y17100000D01*
X3720698Y17137860D01*
X3923001Y17137860D01*
X3923916Y17130863D01*
X3923916Y17130862D01*
X3924853Y17123697D01*
X3939733Y17009906D01*
X3942571Y17003455D01*
X3942572Y17003453D01*
X3988864Y16898246D01*
X3991705Y16891790D01*
X4009935Y16870103D01*
X4070200Y16798408D01*
X4070203Y16798406D01*
X4074739Y16793009D01*
X4182160Y16721504D01*
X4188888Y16719402D01*
X4188890Y16719401D01*
X4242120Y16702771D01*
X4305333Y16683022D01*
X4369844Y16681840D01*
X4427302Y16680786D01*
X4427304Y16680786D01*
X4434355Y16680657D01*
X4441158Y16682512D01*
X4441160Y16682512D01*
X4485845Y16694695D01*
X4558855Y16714600D01*
X4668824Y16782121D01*
X4693477Y16809357D01*
X4750690Y16872565D01*
X4750690Y16872566D01*
X4755422Y16877793D01*
X4807167Y16984593D01*
X4808612Y16987576D01*
X4808612Y16987577D01*
X4811688Y16993925D01*
X4825918Y17078508D01*
X4832463Y17117409D01*
X4832463Y17117414D01*
X4833097Y17121180D01*
X4833233Y17132300D01*
X4814939Y17260041D01*
X4769555Y17359857D01*
X4764449Y17371088D01*
X4764448Y17371089D01*
X4761528Y17377512D01*
X4677293Y17475272D01*
X4671376Y17479107D01*
X4671374Y17479109D01*
X4587986Y17533157D01*
X4569006Y17545459D01*
X4562250Y17547479D01*
X4562249Y17547480D01*
X4492840Y17568238D01*
X4445373Y17582434D01*
X4368744Y17582902D01*
X4323382Y17583179D01*
X4316331Y17583222D01*
X4309554Y17581285D01*
X4309553Y17581285D01*
X4199035Y17549699D01*
X4199033Y17549698D01*
X4192255Y17547761D01*
X4083119Y17478901D01*
X3997696Y17382178D01*
X3942854Y17265368D01*
X3923001Y17137860D01*
X3720698Y17137860D01*
X3705044Y17256762D01*
X3644536Y17402841D01*
X3548282Y17528282D01*
X3422841Y17624536D01*
X3305046Y17673329D01*
X3282759Y17682560D01*
X3276762Y17685044D01*
X3159361Y17700500D01*
X2580639Y17700500D01*
X2463238Y17685044D01*
X2457241Y17682560D01*
X2434954Y17673329D01*
X2317159Y17624536D01*
X2191718Y17528282D01*
X2095464Y17402841D01*
X2034956Y17256762D01*
X2014318Y17100000D01*
X2034956Y16943238D01*
X2095464Y16797159D01*
X2191718Y16671718D01*
X2317159Y16575464D01*
X2336620Y16567403D01*
X2338887Y16566464D01*
X2385412Y16526727D01*
X2399696Y16467233D01*
X2376281Y16410705D01*
X2338887Y16383536D01*
X2317159Y16374536D01*
X2191718Y16278282D01*
X2095464Y16152841D01*
X2034956Y16006762D01*
X2014318Y15850000D01*
X2034956Y15693238D01*
X2095464Y15547159D01*
X2191718Y15421718D01*
X2317159Y15325464D01*
X2328523Y15320757D01*
X2338887Y15316464D01*
X2385412Y15276727D01*
X2399696Y15217233D01*
X2376281Y15160705D01*
X2338887Y15133536D01*
X2317159Y15124536D01*
X2191718Y15028282D01*
X2095464Y14902841D01*
X2034956Y14756762D01*
X2014318Y14600000D01*
X2034956Y14443238D01*
X2095464Y14297159D01*
X2191718Y14171718D01*
X2317159Y14075464D01*
X2336620Y14067403D01*
X2338887Y14066464D01*
X2385412Y14026727D01*
X2399696Y13967233D01*
X2376281Y13910705D01*
X2338887Y13883536D01*
X2317159Y13874536D01*
X2191718Y13778282D01*
X2095464Y13652841D01*
X2034956Y13506762D01*
X2014318Y13350000D01*
X2034956Y13193238D01*
X2095464Y13047159D01*
X2102272Y13038287D01*
X2122696Y12980613D01*
X2105320Y12921947D01*
X2078103Y12897217D01*
X2078941Y12896011D01*
X2066628Y12887454D01*
X1926473Y12767327D01*
X1919592Y12760101D01*
X1806452Y12614241D01*
X1801169Y12605787D01*
X1719665Y12440150D01*
X1716190Y12430804D01*
X1700136Y12369174D01*
X400000Y12369174D01*
X400000Y18555560D01*
X4844901Y18555560D01*
X4845816Y18548563D01*
X4845816Y18548562D01*
X4847082Y18538880D01*
X4861633Y18427606D01*
X4864471Y18421155D01*
X4864472Y18421153D01*
X4902735Y18334193D01*
X4913605Y18309490D01*
X4946159Y18270762D01*
X4992100Y18216108D01*
X4992103Y18216106D01*
X4996639Y18210709D01*
X5104060Y18139204D01*
X5110788Y18137102D01*
X5110790Y18137101D01*
X5134224Y18129780D01*
X5227233Y18100722D01*
X5291744Y18099540D01*
X5349202Y18098486D01*
X5349204Y18098486D01*
X5356255Y18098357D01*
X5363058Y18100212D01*
X5363060Y18100212D01*
X5404828Y18111600D01*
X5480755Y18132300D01*
X5590724Y18199821D01*
X5595459Y18205052D01*
X5661271Y18277760D01*
X8994901Y18277760D01*
X9011633Y18149806D01*
X9014471Y18143355D01*
X9014472Y18143353D01*
X9054481Y18052425D01*
X9063605Y18031690D01*
X9080112Y18012053D01*
X9142100Y17938308D01*
X9142103Y17938306D01*
X9146639Y17932909D01*
X9254060Y17861404D01*
X9260788Y17859302D01*
X9260790Y17859301D01*
X9301441Y17846601D01*
X9377233Y17822922D01*
X9441744Y17821739D01*
X9499202Y17820686D01*
X9499204Y17820686D01*
X9506255Y17820557D01*
X9513058Y17822412D01*
X9513060Y17822412D01*
X9568870Y17837628D01*
X9630755Y17854500D01*
X9740724Y17922021D01*
X9750579Y17932909D01*
X9822590Y18012465D01*
X9822590Y18012466D01*
X9827322Y18017693D01*
X9870741Y18107309D01*
X9913128Y18151432D01*
X9973355Y18162214D01*
X10028418Y18135537D01*
X10057998Y18076979D01*
X10064921Y18024038D01*
X10071333Y17975006D01*
X10074171Y17968555D01*
X10074172Y17968553D01*
X10117672Y17869691D01*
X10123305Y17856890D01*
X10152287Y17822412D01*
X10201800Y17763508D01*
X10201803Y17763506D01*
X10206339Y17758109D01*
X10261568Y17721346D01*
X10306222Y17691622D01*
X10313760Y17686604D01*
X10320488Y17684502D01*
X10320490Y17684501D01*
X10357822Y17672838D01*
X10436933Y17648122D01*
X10501444Y17646939D01*
X10558902Y17645886D01*
X10558904Y17645886D01*
X10565955Y17645757D01*
X10572758Y17647612D01*
X10572760Y17647612D01*
X10614528Y17659000D01*
X10690455Y17679700D01*
X10800424Y17747221D01*
X10829014Y17778807D01*
X10882290Y17837665D01*
X10882290Y17837666D01*
X10887022Y17842893D01*
X10943288Y17959025D01*
X10956599Y18038146D01*
X10964063Y18082509D01*
X10964063Y18082514D01*
X10964697Y18086280D01*
X10964833Y18097400D01*
X10946539Y18225141D01*
X10911667Y18301838D01*
X10896049Y18336188D01*
X10896048Y18336189D01*
X10893128Y18342612D01*
X10833663Y18411625D01*
X10813498Y18435028D01*
X10813497Y18435029D01*
X10808893Y18440372D01*
X10802976Y18444207D01*
X10802974Y18444209D01*
X10800074Y18446088D01*
X10798269Y18448313D01*
X10797659Y18448845D01*
X10797751Y18448951D01*
X10761526Y18493602D01*
X10758268Y18554701D01*
X10780520Y18595601D01*
X10819590Y18638765D01*
X10819590Y18638766D01*
X10824322Y18643993D01*
X10880588Y18760125D01*
X10901997Y18887380D01*
X10902133Y18898500D01*
X10883839Y19026241D01*
X10830428Y19143712D01*
X10746193Y19241472D01*
X10740276Y19245307D01*
X10740274Y19245309D01*
X10643824Y19307823D01*
X10637906Y19311659D01*
X10631150Y19313679D01*
X10631149Y19313680D01*
X10561720Y19334444D01*
X10514273Y19348634D01*
X10437644Y19349102D01*
X10392282Y19349379D01*
X10385231Y19349422D01*
X10378454Y19347485D01*
X10378453Y19347485D01*
X10267935Y19315899D01*
X10267933Y19315898D01*
X10261155Y19313961D01*
X10152019Y19245101D01*
X10066596Y19148378D01*
X10011754Y19031568D01*
X9991901Y18904060D01*
X9992816Y18897063D01*
X9992816Y18897062D01*
X9994082Y18887380D01*
X10008633Y18776106D01*
X10011471Y18769655D01*
X10011472Y18769653D01*
X10049205Y18683898D01*
X10060605Y18657990D01*
X10090384Y18622564D01*
X10139100Y18564608D01*
X10139103Y18564606D01*
X10143639Y18559209D01*
X10149510Y18555301D01*
X10158010Y18549643D01*
X10195974Y18501659D01*
X10198483Y18440525D01*
X10177356Y18401696D01*
X10135803Y18354646D01*
X10129296Y18347278D01*
X10094498Y18273159D01*
X10089975Y18263526D01*
X10048130Y18218888D01*
X9988038Y18207370D01*
X9932653Y18233373D01*
X9902360Y18291565D01*
X9887839Y18392957D01*
X9886839Y18399941D01*
X9866806Y18444001D01*
X9836349Y18510988D01*
X9836348Y18510989D01*
X9833428Y18517412D01*
X9778292Y18581401D01*
X9753798Y18609828D01*
X9753797Y18609829D01*
X9749193Y18615172D01*
X9743276Y18619007D01*
X9743274Y18619009D01*
X9646824Y18681523D01*
X9640906Y18685359D01*
X9634150Y18687379D01*
X9634149Y18687380D01*
X9591335Y18700184D01*
X9517273Y18722334D01*
X9440644Y18722802D01*
X9395282Y18723079D01*
X9388231Y18723122D01*
X9381454Y18721185D01*
X9381453Y18721185D01*
X9270935Y18689599D01*
X9270933Y18689598D01*
X9264155Y18687661D01*
X9155019Y18618801D01*
X9069596Y18522078D01*
X9014754Y18405268D01*
X8994901Y18277760D01*
X5661271Y18277760D01*
X5672590Y18290265D01*
X5672590Y18290266D01*
X5677322Y18295493D01*
X5728858Y18401863D01*
X5730512Y18405276D01*
X5730512Y18405277D01*
X5733588Y18411625D01*
X5749990Y18509120D01*
X5754363Y18535109D01*
X5754363Y18535114D01*
X5754997Y18538880D01*
X5755133Y18550000D01*
X5736839Y18677741D01*
X5692115Y18776106D01*
X5686349Y18788788D01*
X5686348Y18788789D01*
X5683428Y18795212D01*
X5604213Y18887146D01*
X5603798Y18887628D01*
X5603797Y18887629D01*
X5599193Y18892972D01*
X5593276Y18896807D01*
X5593274Y18896809D01*
X5496824Y18959323D01*
X5490906Y18963159D01*
X5484150Y18965179D01*
X5484149Y18965180D01*
X5441335Y18977984D01*
X5367273Y19000134D01*
X5290644Y19000602D01*
X5245282Y19000879D01*
X5238231Y19000922D01*
X5231454Y18998985D01*
X5231453Y18998985D01*
X5120935Y18967399D01*
X5120933Y18967398D01*
X5114155Y18965461D01*
X5005019Y18896601D01*
X4919596Y18799878D01*
X4864754Y18683068D01*
X4844901Y18555560D01*
X400000Y18555560D01*
X400000Y20062660D01*
X10034401Y20062660D01*
X10035316Y20055663D01*
X10035316Y20055662D01*
X10037075Y20042209D01*
X10051133Y19934706D01*
X10053971Y19928255D01*
X10053972Y19928253D01*
X10082546Y19863314D01*
X10103105Y19816590D01*
X10135677Y19777841D01*
X10181600Y19723208D01*
X10181603Y19723206D01*
X10186139Y19717809D01*
X10293560Y19646304D01*
X10300288Y19644202D01*
X10300290Y19644201D01*
X10348876Y19629022D01*
X10416733Y19607822D01*
X10481244Y19606639D01*
X10538702Y19605586D01*
X10538704Y19605586D01*
X10545755Y19605457D01*
X10552558Y19607312D01*
X10552560Y19607312D01*
X10600568Y19620401D01*
X10647734Y19633260D01*
X16729201Y19633260D01*
X16730116Y19626263D01*
X16730116Y19626262D01*
X16731382Y19616580D01*
X16745933Y19505306D01*
X16748771Y19498855D01*
X16748772Y19498853D01*
X16755758Y19482976D01*
X16797905Y19387190D01*
X16832014Y19346612D01*
X16876400Y19293808D01*
X16876403Y19293806D01*
X16880939Y19288409D01*
X16988360Y19216904D01*
X16995088Y19214802D01*
X16995090Y19214801D01*
X17049508Y19197800D01*
X17099412Y19162400D01*
X17118979Y19104427D01*
X17100733Y19046026D01*
X17047190Y19008115D01*
X17040135Y19006099D01*
X17040133Y19006098D01*
X17033355Y19004161D01*
X16924219Y18935301D01*
X16838796Y18838578D01*
X16783954Y18721768D01*
X16764101Y18594260D01*
X16765016Y18587263D01*
X16765016Y18587262D01*
X16769274Y18554701D01*
X16780833Y18466306D01*
X16783671Y18459855D01*
X16783672Y18459853D01*
X16829964Y18354646D01*
X16832805Y18348190D01*
X16880403Y18291565D01*
X16905371Y18261862D01*
X16928341Y18205152D01*
X16913590Y18145771D01*
X16903793Y18132627D01*
X16845196Y18066278D01*
X16790354Y17949468D01*
X16770501Y17821960D01*
X16771416Y17814963D01*
X16771416Y17814962D01*
X16772456Y17807008D01*
X16787233Y17694006D01*
X16790071Y17687555D01*
X16790072Y17687553D01*
X16836364Y17582346D01*
X16839205Y17575890D01*
X16869255Y17540141D01*
X16917700Y17482508D01*
X16917703Y17482506D01*
X16922239Y17477109D01*
X17029660Y17405604D01*
X17036388Y17403502D01*
X17036390Y17403501D01*
X17087729Y17387462D01*
X17152833Y17367122D01*
X17217344Y17365940D01*
X17274802Y17364886D01*
X17274804Y17364886D01*
X17281855Y17364757D01*
X17288658Y17366612D01*
X17288660Y17366612D01*
X17332450Y17378551D01*
X17406355Y17398700D01*
X17516324Y17466221D01*
X17526179Y17477109D01*
X17551932Y17505560D01*
X18544901Y17505560D01*
X18545816Y17498563D01*
X18545816Y17498562D01*
X18547895Y17482664D01*
X18561633Y17377606D01*
X18564471Y17371155D01*
X18564472Y17371153D01*
X18610003Y17267676D01*
X18613605Y17259490D01*
X18633960Y17235275D01*
X18692100Y17166108D01*
X18692103Y17166106D01*
X18696639Y17160709D01*
X18804060Y17089204D01*
X18810788Y17087102D01*
X18810790Y17087101D01*
X18855577Y17073109D01*
X18927233Y17050722D01*
X18991744Y17049540D01*
X19049202Y17048486D01*
X19049204Y17048486D01*
X19056255Y17048357D01*
X19063058Y17050212D01*
X19063060Y17050212D01*
X19107107Y17062221D01*
X19180755Y17082300D01*
X19290724Y17149821D01*
X19297042Y17156801D01*
X19372590Y17240265D01*
X19372590Y17240266D01*
X19377322Y17245493D01*
X19433588Y17361625D01*
X19451185Y17466221D01*
X19452641Y17474874D01*
X36909041Y17474874D01*
X36939435Y17273903D01*
X37009619Y17083148D01*
X37116726Y16910401D01*
X37120170Y16906759D01*
X37137039Y16888921D01*
X37256381Y16762720D01*
X37260486Y16759846D01*
X37260489Y16759843D01*
X37373395Y16680786D01*
X37422879Y16646137D01*
X37427475Y16644148D01*
X37427477Y16644147D01*
X37500531Y16612534D01*
X37609419Y16565414D01*
X37808380Y16523849D01*
X37812932Y16523610D01*
X37813734Y16523568D01*
X37813749Y16523568D01*
X37815039Y16523500D01*
X38214300Y16523500D01*
X38216788Y16523753D01*
X38216794Y16523753D01*
X38284042Y16530584D01*
X38365716Y16538880D01*
X38559672Y16599662D01*
X38737444Y16698203D01*
X38891771Y16830477D01*
X39016348Y16991081D01*
X39106087Y17173455D01*
X39134766Y17283553D01*
X39156057Y17365290D01*
X39156058Y17365294D01*
X39157322Y17370148D01*
X39157763Y17378551D01*
X39164418Y17505560D01*
X39167959Y17573126D01*
X39137565Y17774097D01*
X39067381Y17964852D01*
X38964709Y18130446D01*
X38962916Y18133338D01*
X38962916Y18133339D01*
X38960274Y18137599D01*
X38901018Y18200261D01*
X38824064Y18281637D01*
X38820619Y18285280D01*
X38816514Y18288154D01*
X38816511Y18288157D01*
X38658227Y18398988D01*
X38654121Y18401863D01*
X38649525Y18403852D01*
X38649523Y18403853D01*
X38505202Y18466306D01*
X38467581Y18482586D01*
X38268620Y18524151D01*
X38264068Y18524390D01*
X38263266Y18524432D01*
X38263251Y18524432D01*
X38261961Y18524500D01*
X37862700Y18524500D01*
X37860212Y18524247D01*
X37860206Y18524247D01*
X37799684Y18518099D01*
X37711284Y18509120D01*
X37706504Y18507622D01*
X37523669Y18450325D01*
X37517328Y18448338D01*
X37339556Y18349797D01*
X37185229Y18217523D01*
X37060652Y18056919D01*
X36970913Y17874545D01*
X36950897Y17797701D01*
X36921958Y17686604D01*
X36919678Y17677852D01*
X36919415Y17672840D01*
X36919415Y17672838D01*
X36917388Y17634163D01*
X36909041Y17474874D01*
X19452641Y17474874D01*
X19454363Y17485109D01*
X19454363Y17485114D01*
X19454997Y17488880D01*
X19455133Y17500000D01*
X19436839Y17627741D01*
X19408541Y17689979D01*
X19386349Y17738788D01*
X19386348Y17738789D01*
X19383428Y17745212D01*
X19312456Y17827580D01*
X19303798Y17837628D01*
X19303797Y17837629D01*
X19299193Y17842972D01*
X19293276Y17846807D01*
X19293274Y17846809D01*
X19196824Y17909323D01*
X19190906Y17913159D01*
X19184150Y17915179D01*
X19184149Y17915180D01*
X19092805Y17942498D01*
X19067273Y17950134D01*
X18990644Y17950602D01*
X18945282Y17950879D01*
X18938231Y17950922D01*
X18931454Y17948985D01*
X18931453Y17948985D01*
X18820935Y17917399D01*
X18820933Y17917398D01*
X18814155Y17915461D01*
X18705019Y17846601D01*
X18619596Y17749878D01*
X18564754Y17633068D01*
X18544901Y17505560D01*
X17551932Y17505560D01*
X17598190Y17556665D01*
X17598190Y17556666D01*
X17602922Y17561893D01*
X17644453Y17647612D01*
X17656112Y17671676D01*
X17656112Y17671677D01*
X17659188Y17678025D01*
X17673444Y17762764D01*
X17679963Y17801509D01*
X17679963Y17801514D01*
X17680597Y17805280D01*
X17680733Y17816400D01*
X17662439Y17944141D01*
X17622633Y18031690D01*
X17611949Y18055188D01*
X17611948Y18055189D01*
X17609028Y18061612D01*
X17587773Y18086280D01*
X17539676Y18142100D01*
X17537848Y18146460D01*
X20390001Y18146460D01*
X20390916Y18139463D01*
X20390916Y18139462D01*
X20391717Y18133338D01*
X20406733Y18018506D01*
X20409571Y18012055D01*
X20409572Y18012053D01*
X20453729Y17911698D01*
X20458705Y17900390D01*
X20480430Y17874545D01*
X20537200Y17807008D01*
X20537203Y17807006D01*
X20541739Y17801609D01*
X20649160Y17730104D01*
X20655888Y17728002D01*
X20655890Y17728001D01*
X20710747Y17710863D01*
X20772333Y17691622D01*
X20836844Y17690439D01*
X20894302Y17689386D01*
X20894304Y17689386D01*
X20901355Y17689257D01*
X20908158Y17691112D01*
X20908160Y17691112D01*
X20949928Y17702500D01*
X21025855Y17723200D01*
X21135824Y17790721D01*
X21157766Y17814962D01*
X21217690Y17881165D01*
X21217690Y17881166D01*
X21222422Y17886393D01*
X21278688Y18002525D01*
X21294006Y18093575D01*
X21299463Y18126009D01*
X21299463Y18126014D01*
X21300097Y18129780D01*
X21300147Y18133825D01*
X21300186Y18137075D01*
X21300233Y18140900D01*
X21281939Y18268641D01*
X21245770Y18348190D01*
X21231449Y18379688D01*
X21231448Y18379689D01*
X21228528Y18386112D01*
X21144293Y18483872D01*
X21138376Y18487707D01*
X21138374Y18487709D01*
X21059425Y18538880D01*
X21036006Y18554059D01*
X21029250Y18556079D01*
X21029249Y18556080D01*
X20957359Y18577580D01*
X20912373Y18591034D01*
X20835744Y18591502D01*
X20790382Y18591779D01*
X20783331Y18591822D01*
X20776554Y18589885D01*
X20776553Y18589885D01*
X20666035Y18558299D01*
X20666033Y18558298D01*
X20659255Y18556361D01*
X20550119Y18487501D01*
X20464696Y18390778D01*
X20409854Y18273968D01*
X20390001Y18146460D01*
X17537848Y18146460D01*
X17516015Y18198526D01*
X17530039Y18258082D01*
X17541277Y18273159D01*
X17591790Y18328965D01*
X17591790Y18328966D01*
X17596522Y18334193D01*
X17652788Y18450325D01*
X17665267Y18524500D01*
X17673563Y18573809D01*
X17673563Y18573814D01*
X17674197Y18577580D01*
X17674333Y18588700D01*
X17656039Y18716441D01*
X17602628Y18833912D01*
X17536176Y18911034D01*
X17522998Y18926328D01*
X17522997Y18926329D01*
X17518393Y18931672D01*
X17512476Y18935507D01*
X17512474Y18935509D01*
X17416024Y18998023D01*
X17410106Y19001859D01*
X17403351Y19003879D01*
X17403347Y19003881D01*
X17356417Y19017916D01*
X17306083Y19052704D01*
X17285810Y19110433D01*
X17303342Y19169053D01*
X17351981Y19206173D01*
X17358093Y19208076D01*
X17358255Y19208146D01*
X17365055Y19210000D01*
X17475024Y19277521D01*
X17520002Y19327212D01*
X17556890Y19367965D01*
X17556890Y19367966D01*
X17561622Y19373193D01*
X17617888Y19489325D01*
X17637426Y19605457D01*
X17638663Y19612809D01*
X17638663Y19612814D01*
X17639297Y19616580D01*
X17639433Y19627700D01*
X17621139Y19755441D01*
X17567728Y19872912D01*
X17487550Y19965964D01*
X28496000Y19965964D01*
X28499780Y19922307D01*
X28507225Y19879636D01*
X28507397Y19878811D01*
X28508985Y19871196D01*
X28510628Y19863314D01*
X28552369Y19773427D01*
X28594259Y19716105D01*
X28624129Y19682072D01*
X28707841Y19629022D01*
X28712373Y19627272D01*
X28712377Y19627270D01*
X28757298Y19609925D01*
X28774072Y19603448D01*
X28777510Y19602659D01*
X28777515Y19602657D01*
X28816111Y19593795D01*
X28844532Y19587269D01*
X37266344Y18887443D01*
X37268094Y18887423D01*
X37268104Y18887423D01*
X37296331Y18887109D01*
X37302752Y18887037D01*
X37328253Y18888583D01*
X37333409Y18888896D01*
X37333410Y18888896D01*
X37338718Y18889218D01*
X37391300Y18904060D01*
X37437687Y18917153D01*
X37437690Y18917154D01*
X37442805Y18918598D01*
X37474146Y18935301D01*
X37503505Y18950947D01*
X37503516Y18950953D01*
X37505459Y18951989D01*
X37507305Y18953195D01*
X37507316Y18953202D01*
X37529037Y18967399D01*
X37543358Y18976759D01*
X37547954Y18982146D01*
X37547956Y18982148D01*
X37579444Y19019057D01*
X37631595Y19051056D01*
X37675005Y19051712D01*
X37729260Y19040378D01*
X37808380Y19023849D01*
X37812932Y19023610D01*
X37813734Y19023568D01*
X37813749Y19023568D01*
X37815039Y19023500D01*
X38214300Y19023500D01*
X38216788Y19023753D01*
X38216794Y19023753D01*
X38293729Y19031568D01*
X38365716Y19038880D01*
X38559672Y19099662D01*
X38737444Y19198203D01*
X38891771Y19330477D01*
X39016348Y19491081D01*
X39106087Y19673455D01*
X39157322Y19870148D01*
X39157712Y19877578D01*
X39166268Y20040859D01*
X39167959Y20073126D01*
X39137565Y20274097D01*
X39067381Y20464852D01*
X38960274Y20637599D01*
X38820619Y20785280D01*
X38816514Y20788154D01*
X38816511Y20788157D01*
X38658227Y20898988D01*
X38654121Y20901863D01*
X38649525Y20903852D01*
X38649523Y20903853D01*
X38497125Y20969801D01*
X38467581Y20982586D01*
X38268620Y21024151D01*
X38264068Y21024390D01*
X38263266Y21024432D01*
X38263251Y21024432D01*
X38261961Y21024500D01*
X38152478Y21024500D01*
X38094287Y21043407D01*
X38065388Y21084132D01*
X38062404Y21082746D01*
X38022713Y21168219D01*
X38022712Y21168221D01*
X38020663Y21172633D01*
X37978773Y21229955D01*
X37948904Y21263987D01*
X37873833Y21311562D01*
X37869298Y21314436D01*
X37869297Y21314436D01*
X37865192Y21317038D01*
X37828074Y21331371D01*
X37802265Y21341337D01*
X37802260Y21341339D01*
X37798962Y21342612D01*
X37728501Y21358791D01*
X32709606Y21775845D01*
X32653182Y21799506D01*
X32621440Y21851814D01*
X32626507Y21912790D01*
X32666447Y21959141D01*
X32679918Y21965969D01*
X32702841Y21975464D01*
X32828282Y22071718D01*
X32924536Y22197159D01*
X32985044Y22343238D01*
X33005682Y22500000D01*
X32985044Y22656762D01*
X32924536Y22802841D01*
X32828282Y22928282D01*
X32824933Y22930852D01*
X32797592Y22984513D01*
X32807163Y23044945D01*
X32824513Y23068826D01*
X32828282Y23071718D01*
X32924536Y23197159D01*
X32951792Y23262960D01*
X33810401Y23262960D01*
X33811316Y23255963D01*
X33811316Y23255962D01*
X33825773Y23145408D01*
X33827133Y23135006D01*
X33829971Y23128555D01*
X33829972Y23128553D01*
X33874367Y23027657D01*
X33879105Y23016890D01*
X33906321Y22984513D01*
X33957600Y22923508D01*
X33957603Y22923506D01*
X33962139Y22918109D01*
X34069560Y22846604D01*
X34076288Y22844502D01*
X34076290Y22844501D01*
X34100985Y22836786D01*
X34192733Y22808122D01*
X34257244Y22806940D01*
X34314702Y22805886D01*
X34314704Y22805886D01*
X34321755Y22805757D01*
X34328558Y22807612D01*
X34328560Y22807612D01*
X34370328Y22819000D01*
X34446255Y22839700D01*
X34556224Y22907221D01*
X34563428Y22915180D01*
X34638090Y22997665D01*
X34638090Y22997666D01*
X34642822Y23002893D01*
X34699088Y23119025D01*
X34714313Y23209521D01*
X34719863Y23242509D01*
X34719863Y23242514D01*
X34720497Y23246280D01*
X34720633Y23257400D01*
X34718112Y23275003D01*
X34728579Y23335286D01*
X34772480Y23377905D01*
X34833048Y23386579D01*
X34887146Y23357996D01*
X34906727Y23328912D01*
X34911005Y23319190D01*
X34946318Y23277180D01*
X34989500Y23225808D01*
X34989503Y23225806D01*
X34994039Y23220409D01*
X35101460Y23148904D01*
X35108188Y23146802D01*
X35108190Y23146801D01*
X35148038Y23134352D01*
X35224633Y23110422D01*
X35289144Y23109239D01*
X35346602Y23108186D01*
X35346604Y23108186D01*
X35353655Y23108057D01*
X35360458Y23109912D01*
X35360460Y23109912D01*
X35419402Y23125982D01*
X35478155Y23142000D01*
X35588124Y23209521D01*
X35594442Y23216501D01*
X35664464Y23293860D01*
X37235901Y23293860D01*
X37252633Y23165906D01*
X37255471Y23159455D01*
X37255472Y23159453D01*
X37301764Y23054246D01*
X37304605Y23047790D01*
X37337011Y23009238D01*
X37383100Y22954408D01*
X37383103Y22954406D01*
X37387639Y22949009D01*
X37495060Y22877504D01*
X37501788Y22875402D01*
X37501790Y22875401D01*
X37551327Y22859925D01*
X37618233Y22839022D01*
X37682389Y22837846D01*
X37740202Y22836786D01*
X37740204Y22836786D01*
X37747255Y22836657D01*
X37754058Y22838512D01*
X37754060Y22838512D01*
X37798074Y22850512D01*
X37871755Y22870600D01*
X37981724Y22938121D01*
X37988042Y22945101D01*
X38063590Y23028565D01*
X38063590Y23028566D01*
X38068322Y23033793D01*
X38114233Y23128553D01*
X38121512Y23143576D01*
X38121512Y23143577D01*
X38124588Y23149925D01*
X38126728Y23162642D01*
X38131411Y23190482D01*
X38159710Y23244730D01*
X38214490Y23271983D01*
X38274828Y23261833D01*
X38310157Y23224117D01*
X38313237Y23226034D01*
X38316964Y23220047D01*
X38319805Y23213590D01*
X38344085Y23184706D01*
X38398300Y23120208D01*
X38398303Y23120206D01*
X38402839Y23114809D01*
X38510260Y23043304D01*
X38516988Y23041202D01*
X38516990Y23041201D01*
X38559930Y23027786D01*
X38633433Y23004822D01*
X38697944Y23003640D01*
X38755402Y23002586D01*
X38755404Y23002586D01*
X38762455Y23002457D01*
X38769258Y23004312D01*
X38769260Y23004312D01*
X38815394Y23016890D01*
X38886955Y23036400D01*
X38996924Y23103921D01*
X39002692Y23110293D01*
X39078790Y23194365D01*
X39078790Y23194366D01*
X39083522Y23199593D01*
X39126501Y23288300D01*
X39136712Y23309376D01*
X39136712Y23309377D01*
X39139788Y23315725D01*
X39153327Y23396200D01*
X39160563Y23439209D01*
X39160563Y23439214D01*
X39161197Y23442980D01*
X39161333Y23454100D01*
X39143039Y23581841D01*
X39101655Y23672861D01*
X39092549Y23692888D01*
X39092548Y23692889D01*
X39089628Y23699312D01*
X39005393Y23797072D01*
X38999476Y23800907D01*
X38999474Y23800909D01*
X38903024Y23863423D01*
X38897106Y23867259D01*
X38890350Y23869279D01*
X38890349Y23869280D01*
X38817730Y23890998D01*
X38773473Y23904234D01*
X38696844Y23904702D01*
X38651482Y23904979D01*
X38644431Y23905022D01*
X38637654Y23903085D01*
X38637653Y23903085D01*
X38527135Y23871499D01*
X38527133Y23871498D01*
X38520355Y23869561D01*
X38411219Y23800701D01*
X38325796Y23703978D01*
X38270954Y23587168D01*
X38269869Y23580199D01*
X38265527Y23552314D01*
X38237892Y23497725D01*
X38183448Y23469806D01*
X38122991Y23479219D01*
X38082162Y23521798D01*
X38081147Y23521149D01*
X38077869Y23526275D01*
X38077583Y23526573D01*
X38074428Y23533512D01*
X37990193Y23631272D01*
X37984276Y23635107D01*
X37984274Y23635109D01*
X37895315Y23692768D01*
X37881906Y23701459D01*
X37875150Y23703479D01*
X37875149Y23703480D01*
X37823930Y23718798D01*
X37758273Y23738434D01*
X37681644Y23738902D01*
X37636282Y23739179D01*
X37629231Y23739222D01*
X37622454Y23737285D01*
X37622453Y23737285D01*
X37511935Y23705699D01*
X37511933Y23705698D01*
X37505155Y23703761D01*
X37396019Y23634901D01*
X37310596Y23538178D01*
X37255754Y23421368D01*
X37235901Y23293860D01*
X35664464Y23293860D01*
X35669990Y23299965D01*
X35669990Y23299966D01*
X35674722Y23305193D01*
X35730988Y23421325D01*
X35744375Y23500896D01*
X35751763Y23544809D01*
X35751763Y23544814D01*
X35752397Y23548580D01*
X35752533Y23559700D01*
X35734239Y23687441D01*
X35702148Y23758022D01*
X35683749Y23798488D01*
X35683748Y23798489D01*
X35680828Y23804912D01*
X35623453Y23871499D01*
X35601198Y23897328D01*
X35601197Y23897329D01*
X35596593Y23902672D01*
X35590676Y23906507D01*
X35590674Y23906509D01*
X35494224Y23969023D01*
X35488306Y23972859D01*
X35481550Y23974879D01*
X35481549Y23974880D01*
X35438735Y23987684D01*
X35364673Y24009834D01*
X35288044Y24010302D01*
X35242682Y24010579D01*
X35235631Y24010622D01*
X35228854Y24008685D01*
X35228853Y24008685D01*
X35118335Y23977099D01*
X35118333Y23977098D01*
X35111555Y23975161D01*
X35002419Y23906301D01*
X34916996Y23809578D01*
X34862154Y23692768D01*
X34842301Y23565260D01*
X34843216Y23558262D01*
X34843216Y23558259D01*
X34845976Y23537151D01*
X34834773Y23477000D01*
X34790353Y23434922D01*
X34729684Y23426990D01*
X34675940Y23456233D01*
X34657691Y23483339D01*
X34648928Y23502612D01*
X34575127Y23588263D01*
X34569298Y23595028D01*
X34569297Y23595029D01*
X34564693Y23600372D01*
X34558776Y23604207D01*
X34558774Y23604209D01*
X34482094Y23653909D01*
X34456406Y23670559D01*
X34449650Y23672579D01*
X34449649Y23672580D01*
X34399958Y23687441D01*
X34332773Y23707534D01*
X34256144Y23708002D01*
X34210782Y23708279D01*
X34203731Y23708322D01*
X34196954Y23706385D01*
X34196953Y23706385D01*
X34086435Y23674799D01*
X34086433Y23674798D01*
X34079655Y23672861D01*
X33970519Y23604001D01*
X33885096Y23507278D01*
X33830254Y23390468D01*
X33810401Y23262960D01*
X32951792Y23262960D01*
X32985044Y23343238D01*
X33002654Y23477000D01*
X33004835Y23493566D01*
X33005682Y23500000D01*
X32985044Y23656762D01*
X32924536Y23802841D01*
X32828282Y23928282D01*
X32702841Y24024536D01*
X32556762Y24085044D01*
X32400000Y24105682D01*
X32243238Y24085044D01*
X32097159Y24024536D01*
X31971718Y23928282D01*
X31967764Y23923129D01*
X31928542Y23872014D01*
X31878117Y23837358D01*
X31816953Y23838960D01*
X31771458Y23872014D01*
X31732236Y23923129D01*
X31728282Y23928282D01*
X31602841Y24024536D01*
X31456762Y24085044D01*
X31300000Y24105682D01*
X31143238Y24085044D01*
X30997159Y24024536D01*
X30871718Y23928282D01*
X30775464Y23802841D01*
X30714956Y23656762D01*
X30694318Y23500000D01*
X30695165Y23493566D01*
X30697346Y23477000D01*
X30714956Y23343238D01*
X30775464Y23197159D01*
X30871718Y23071718D01*
X30875067Y23069148D01*
X30902408Y23015487D01*
X30892837Y22955055D01*
X30875487Y22931174D01*
X30871718Y22928282D01*
X30775464Y22802841D01*
X30714956Y22656762D01*
X30694318Y22500000D01*
X30714956Y22343238D01*
X30775464Y22197159D01*
X30782944Y22187411D01*
X30852880Y22096268D01*
X30873304Y22038592D01*
X30855926Y21979927D01*
X30807385Y21942679D01*
X30766141Y21937341D01*
X28907467Y22091791D01*
X28904308Y22091649D01*
X28904307Y22091649D01*
X28901638Y22091529D01*
X28842775Y22088883D01*
X28839661Y22088340D01*
X28839655Y22088339D01*
X28781803Y22078245D01*
X28781792Y22078243D01*
X28780000Y22077930D01*
X28743445Y22068712D01*
X28710957Y22050212D01*
X28661543Y22022074D01*
X28661539Y22022071D01*
X28657324Y22019671D01*
X28603668Y21973178D01*
X28572227Y21940594D01*
X28568946Y21934322D01*
X28568944Y21934319D01*
X28531900Y21863500D01*
X28526291Y21852777D01*
X28506289Y21784656D01*
X28496000Y21713096D01*
X28496000Y19965964D01*
X17487550Y19965964D01*
X17483493Y19970672D01*
X17477576Y19974507D01*
X17477574Y19974509D01*
X17381124Y20037023D01*
X17375206Y20040859D01*
X17368450Y20042879D01*
X17368449Y20042880D01*
X17320901Y20057100D01*
X17251573Y20077834D01*
X17174944Y20078302D01*
X17129582Y20078579D01*
X17122531Y20078622D01*
X17115754Y20076685D01*
X17115753Y20076685D01*
X17005235Y20045099D01*
X17005233Y20045098D01*
X16998455Y20043161D01*
X16889319Y19974301D01*
X16803896Y19877578D01*
X16749054Y19760768D01*
X16729201Y19633260D01*
X10647734Y19633260D01*
X10670255Y19639400D01*
X10780224Y19706921D01*
X10786542Y19713901D01*
X10862090Y19797365D01*
X10862090Y19797366D01*
X10866822Y19802593D01*
X10923088Y19918725D01*
X10943390Y20039398D01*
X10943863Y20042209D01*
X10943863Y20042214D01*
X10944497Y20045980D01*
X10944633Y20057100D01*
X10926339Y20184841D01*
X10872928Y20302312D01*
X10788693Y20400072D01*
X10782776Y20403907D01*
X10782774Y20403909D01*
X10686324Y20466423D01*
X10680406Y20470259D01*
X10673650Y20472279D01*
X10673649Y20472280D01*
X10606333Y20492412D01*
X10556773Y20507234D01*
X10480144Y20507702D01*
X10434782Y20507979D01*
X10427731Y20508022D01*
X10420954Y20506085D01*
X10420953Y20506085D01*
X10310435Y20474499D01*
X10310433Y20474498D01*
X10303655Y20472561D01*
X10194519Y20403701D01*
X10109096Y20306978D01*
X10054254Y20190168D01*
X10034401Y20062660D01*
X400000Y20062660D01*
X400000Y20904860D01*
X4312301Y20904860D01*
X4313216Y20897863D01*
X4313216Y20897862D01*
X4314482Y20888180D01*
X4329033Y20776906D01*
X4331871Y20770455D01*
X4331872Y20770453D01*
X4369535Y20684857D01*
X4381005Y20658790D01*
X4398818Y20637599D01*
X4459500Y20565408D01*
X4459503Y20565406D01*
X4464039Y20560009D01*
X4571460Y20488504D01*
X4578188Y20486402D01*
X4578190Y20486401D01*
X4633047Y20469263D01*
X4694633Y20450022D01*
X4759144Y20448840D01*
X4816602Y20447786D01*
X4816604Y20447786D01*
X4823655Y20447657D01*
X4830458Y20449512D01*
X4830460Y20449512D01*
X4872228Y20460900D01*
X4948155Y20481600D01*
X5058124Y20549121D01*
X5072866Y20565408D01*
X5139990Y20639565D01*
X5139990Y20639566D01*
X5144722Y20644793D01*
X5193820Y20746131D01*
X5197912Y20754576D01*
X5197912Y20754577D01*
X5200988Y20760925D01*
X5216969Y20855914D01*
X5221763Y20884409D01*
X5221763Y20884414D01*
X5222397Y20888180D01*
X5222533Y20899300D01*
X5204239Y21027041D01*
X5161339Y21121395D01*
X5153749Y21138088D01*
X5153748Y21138089D01*
X5150828Y21144512D01*
X5066593Y21242272D01*
X5060676Y21246107D01*
X5060674Y21246109D01*
X4980446Y21298109D01*
X4958306Y21312459D01*
X4951550Y21314479D01*
X4951549Y21314480D01*
X4937907Y21318560D01*
X6027501Y21318560D01*
X6028416Y21311563D01*
X6028416Y21311562D01*
X6029682Y21301880D01*
X6044233Y21190606D01*
X6047071Y21184155D01*
X6047072Y21184153D01*
X6091082Y21084132D01*
X6096205Y21072490D01*
X6120652Y21043407D01*
X6174700Y20979108D01*
X6174703Y20979106D01*
X6179239Y20973709D01*
X6286660Y20902204D01*
X6293388Y20900102D01*
X6293390Y20900101D01*
X6331042Y20888338D01*
X6409833Y20863722D01*
X6474344Y20862539D01*
X6531802Y20861486D01*
X6531804Y20861486D01*
X6538855Y20861357D01*
X6545658Y20863212D01*
X6545660Y20863212D01*
X6600795Y20878244D01*
X6663355Y20895300D01*
X6773324Y20962821D01*
X6789414Y20980597D01*
X6855190Y21053265D01*
X6855190Y21053266D01*
X6859922Y21058493D01*
X6900410Y21142060D01*
X18144901Y21142060D01*
X18145816Y21135063D01*
X18145816Y21135062D01*
X18146690Y21128379D01*
X18161633Y21014106D01*
X18164471Y21007655D01*
X18164472Y21007653D01*
X18209151Y20906112D01*
X18213605Y20895990D01*
X18242609Y20861486D01*
X18292100Y20802608D01*
X18292103Y20802606D01*
X18296639Y20797209D01*
X18404060Y20725704D01*
X18410788Y20723602D01*
X18410790Y20723601D01*
X18465646Y20706463D01*
X18527233Y20687222D01*
X18591744Y20686040D01*
X18649202Y20684986D01*
X18649204Y20684986D01*
X18656255Y20684857D01*
X18663058Y20686712D01*
X18663060Y20686712D01*
X18704828Y20698100D01*
X18780755Y20718800D01*
X18890724Y20786321D01*
X18905466Y20802608D01*
X18972590Y20876765D01*
X18972590Y20876766D01*
X18977322Y20881993D01*
X19026059Y20982586D01*
X19030512Y20991776D01*
X19030512Y20991777D01*
X19033588Y20998125D01*
X19034946Y21006198D01*
X19644540Y21006198D01*
X19645455Y20999201D01*
X19645455Y20999200D01*
X19646426Y20991776D01*
X19661272Y20878244D01*
X19664110Y20871793D01*
X19664111Y20871791D01*
X19708701Y20770453D01*
X19713244Y20760128D01*
X19743948Y20723601D01*
X19791739Y20666746D01*
X19791742Y20666744D01*
X19796278Y20661347D01*
X19903699Y20589842D01*
X19910427Y20587740D01*
X19910429Y20587739D01*
X19965286Y20570601D01*
X20026872Y20551360D01*
X20091383Y20550178D01*
X20148841Y20549124D01*
X20148843Y20549124D01*
X20155894Y20548995D01*
X20162697Y20550850D01*
X20162699Y20550850D01*
X20216095Y20565408D01*
X20280394Y20582938D01*
X20390363Y20650459D01*
X20423178Y20686712D01*
X20472229Y20740903D01*
X20472229Y20740904D01*
X20476961Y20746131D01*
X20533227Y20862263D01*
X20547442Y20946757D01*
X20554002Y20985747D01*
X20554002Y20985752D01*
X20554636Y20989518D01*
X20554772Y21000638D01*
X20536478Y21128379D01*
X20483067Y21245850D01*
X20422020Y21316699D01*
X20403437Y21338266D01*
X20403436Y21338267D01*
X20398832Y21343610D01*
X20392915Y21347445D01*
X20392913Y21347447D01*
X20296463Y21409961D01*
X20290545Y21413797D01*
X20283789Y21415817D01*
X20283788Y21415818D01*
X20221825Y21434349D01*
X20166912Y21450772D01*
X20090283Y21451240D01*
X20044921Y21451517D01*
X20037870Y21451560D01*
X20031093Y21449623D01*
X20031092Y21449623D01*
X19920574Y21418037D01*
X19920572Y21418036D01*
X19913794Y21416099D01*
X19804658Y21347239D01*
X19719235Y21250516D01*
X19664393Y21133706D01*
X19644540Y21006198D01*
X19034946Y21006198D01*
X19047185Y21078946D01*
X19054363Y21121609D01*
X19054363Y21121614D01*
X19054997Y21125380D01*
X19055133Y21136500D01*
X19036839Y21264241D01*
X19003182Y21338266D01*
X18986349Y21375288D01*
X18986348Y21375289D01*
X18983428Y21381712D01*
X18978821Y21387059D01*
X18937194Y21435370D01*
X18913533Y21491796D01*
X18927557Y21551352D01*
X18938795Y21566429D01*
X18972590Y21603765D01*
X18972590Y21603766D01*
X18975870Y21607389D01*
X23594394Y21607389D01*
X23595049Y21601456D01*
X23595049Y21601452D01*
X23612046Y21447494D01*
X23612999Y21438865D01*
X23671266Y21279644D01*
X23674591Y21274695D01*
X23674592Y21274694D01*
X23717138Y21211378D01*
X23765830Y21138917D01*
X23891233Y21024809D01*
X24040235Y20943908D01*
X24075189Y20934738D01*
X24198464Y20902397D01*
X24198468Y20902396D01*
X24204233Y20900884D01*
X24210194Y20900790D01*
X24210197Y20900790D01*
X24288996Y20899553D01*
X24373760Y20898221D01*
X24379575Y20899553D01*
X24379577Y20899553D01*
X24533206Y20934738D01*
X24533209Y20934739D01*
X24539029Y20936072D01*
X24554610Y20943908D01*
X24614764Y20974163D01*
X24690498Y21012253D01*
X24695035Y21016128D01*
X24695038Y21016130D01*
X24814888Y21118492D01*
X24814891Y21118495D01*
X24819423Y21122366D01*
X24823744Y21128379D01*
X24914877Y21255204D01*
X24914878Y21255206D01*
X24918361Y21260053D01*
X24922627Y21270663D01*
X24979377Y21411833D01*
X24979378Y21411835D01*
X24981601Y21417366D01*
X24984018Y21434349D01*
X25005034Y21582015D01*
X25005034Y21582021D01*
X25005490Y21585222D01*
X25005645Y21600000D01*
X24991534Y21716605D01*
X24985993Y21762398D01*
X24985992Y21762401D01*
X24985276Y21768320D01*
X24925345Y21926923D01*
X24901718Y21961301D01*
X24884341Y22019967D01*
X24904766Y22077642D01*
X24955191Y22112298D01*
X25016355Y22110695D01*
X25038162Y22099786D01*
X25054060Y22089204D01*
X25060788Y22087102D01*
X25060790Y22087101D01*
X25110029Y22071718D01*
X25177233Y22050722D01*
X25241744Y22049540D01*
X25299202Y22048486D01*
X25299204Y22048486D01*
X25306255Y22048357D01*
X25313058Y22050212D01*
X25313060Y22050212D01*
X25354828Y22061600D01*
X25430755Y22082300D01*
X25540724Y22149821D01*
X25574749Y22187411D01*
X25622590Y22240265D01*
X25622590Y22240266D01*
X25627322Y22245493D01*
X25671774Y22337241D01*
X25680512Y22355276D01*
X25680512Y22355277D01*
X25683588Y22361625D01*
X25704997Y22488880D01*
X25705133Y22500000D01*
X25686839Y22627741D01*
X25633428Y22745212D01*
X25579222Y22808122D01*
X25553798Y22837628D01*
X25553797Y22837629D01*
X25549193Y22842972D01*
X25543276Y22846807D01*
X25543274Y22846809D01*
X25460881Y22900212D01*
X25440906Y22913159D01*
X25434150Y22915179D01*
X25434149Y22915180D01*
X25384608Y22929996D01*
X25317273Y22950134D01*
X25240644Y22950602D01*
X25195282Y22950879D01*
X25188231Y22950922D01*
X25181454Y22948985D01*
X25181453Y22948985D01*
X25070935Y22917399D01*
X25070933Y22917398D01*
X25064155Y22915461D01*
X24955019Y22846601D01*
X24869596Y22749878D01*
X24814754Y22633068D01*
X24794901Y22505560D01*
X24795816Y22498563D01*
X24795816Y22498562D01*
X24797082Y22488880D01*
X24811633Y22377606D01*
X24814472Y22371154D01*
X24814473Y22371150D01*
X24844162Y22303676D01*
X24850292Y22242799D01*
X24819468Y22189945D01*
X24763464Y22165303D01*
X24704127Y22178187D01*
X24702721Y22179440D01*
X24697663Y22182118D01*
X24697660Y22182120D01*
X24583056Y22242799D01*
X24552881Y22258776D01*
X24470661Y22279429D01*
X24394231Y22298627D01*
X24394228Y22298627D01*
X24388441Y22300081D01*
X24302841Y22300529D01*
X24224861Y22300938D01*
X24224859Y22300938D01*
X24218895Y22300969D01*
X24213099Y22299577D01*
X24213095Y22299577D01*
X24123928Y22278169D01*
X24054032Y22261388D01*
X24013107Y22240265D01*
X23908675Y22186364D01*
X23908673Y22186362D01*
X23903369Y22183625D01*
X23775604Y22072169D01*
X23772173Y22067287D01*
X23772172Y22067286D01*
X23684597Y21942679D01*
X23678113Y21933453D01*
X23655726Y21876034D01*
X23623013Y21792129D01*
X23616524Y21775487D01*
X23615745Y21769572D01*
X23615745Y21769571D01*
X23612918Y21748097D01*
X23594394Y21607389D01*
X18975870Y21607389D01*
X18977322Y21608993D01*
X19033588Y21725125D01*
X19048617Y21814459D01*
X19054363Y21848609D01*
X19054363Y21848614D01*
X19054997Y21852380D01*
X19055133Y21863500D01*
X19036839Y21991241D01*
X19000043Y22072169D01*
X18986349Y22102288D01*
X18986348Y22102289D01*
X18983428Y22108712D01*
X18925759Y22175641D01*
X18903798Y22201128D01*
X18903797Y22201129D01*
X18899193Y22206472D01*
X18893276Y22210307D01*
X18893274Y22210309D01*
X18818692Y22258649D01*
X18790906Y22276659D01*
X18784150Y22278679D01*
X18784149Y22278680D01*
X18741335Y22291484D01*
X18667273Y22313634D01*
X18590644Y22314102D01*
X18545282Y22314379D01*
X18538231Y22314422D01*
X18531454Y22312485D01*
X18531453Y22312485D01*
X18420935Y22280899D01*
X18420933Y22280898D01*
X18414155Y22278961D01*
X18305019Y22210101D01*
X18219596Y22113378D01*
X18164754Y21996568D01*
X18144901Y21869060D01*
X18145816Y21862063D01*
X18145816Y21862062D01*
X18146916Y21853648D01*
X18161633Y21741106D01*
X18164471Y21734655D01*
X18164472Y21734653D01*
X18199821Y21654316D01*
X18213605Y21622990D01*
X18247235Y21582982D01*
X18263540Y21563585D01*
X18286510Y21506875D01*
X18271759Y21447494D01*
X18261961Y21434349D01*
X18224266Y21391667D01*
X18224263Y21391662D01*
X18219596Y21386378D01*
X18164754Y21269568D01*
X18144901Y21142060D01*
X6900410Y21142060D01*
X6916188Y21174625D01*
X6931492Y21265592D01*
X6936963Y21298109D01*
X6936963Y21298114D01*
X6937597Y21301880D01*
X6937733Y21313000D01*
X6919439Y21440741D01*
X6866028Y21558212D01*
X6781793Y21655972D01*
X6775876Y21659807D01*
X6775874Y21659809D01*
X6679424Y21722323D01*
X6673506Y21726159D01*
X6666750Y21728179D01*
X6666749Y21728180D01*
X6600152Y21748097D01*
X6549873Y21763134D01*
X6473244Y21763602D01*
X6427882Y21763879D01*
X6420831Y21763922D01*
X6414054Y21761985D01*
X6414053Y21761985D01*
X6303535Y21730399D01*
X6303533Y21730398D01*
X6296755Y21728461D01*
X6187619Y21659601D01*
X6102196Y21562878D01*
X6047354Y21446068D01*
X6027501Y21318560D01*
X4937907Y21318560D01*
X4872015Y21338266D01*
X4834673Y21349434D01*
X4758044Y21349902D01*
X4712682Y21350179D01*
X4705631Y21350222D01*
X4698854Y21348285D01*
X4698853Y21348285D01*
X4588335Y21316699D01*
X4588333Y21316698D01*
X4581555Y21314761D01*
X4472419Y21245901D01*
X4386996Y21149178D01*
X4332154Y21032368D01*
X4312301Y20904860D01*
X400000Y20904860D01*
X400000Y21942413D01*
X2804634Y21942413D01*
X2805549Y21935416D01*
X2805549Y21935415D01*
X2806815Y21925733D01*
X2821366Y21814459D01*
X2824204Y21808008D01*
X2824205Y21808006D01*
X2867525Y21709553D01*
X2873338Y21696343D01*
X2901060Y21663364D01*
X2951833Y21602961D01*
X2951836Y21602959D01*
X2956372Y21597562D01*
X3063793Y21526057D01*
X3070521Y21523955D01*
X3070523Y21523954D01*
X3104558Y21513321D01*
X3186966Y21487575D01*
X3251477Y21486393D01*
X3308935Y21485339D01*
X3308937Y21485339D01*
X3315988Y21485210D01*
X3322791Y21487065D01*
X3322793Y21487065D01*
X3368494Y21499525D01*
X3440488Y21519153D01*
X3550457Y21586674D01*
X3562519Y21600000D01*
X3632323Y21677118D01*
X3632323Y21677119D01*
X3637055Y21682346D01*
X3693321Y21798478D01*
X3706369Y21876034D01*
X3714096Y21921962D01*
X3714096Y21921967D01*
X3714730Y21925733D01*
X3714866Y21936853D01*
X3696572Y22064594D01*
X3643161Y22182065D01*
X3583041Y22251838D01*
X3563531Y22274481D01*
X3563530Y22274482D01*
X3558926Y22279825D01*
X3553009Y22283660D01*
X3553007Y22283662D01*
X3482546Y22329331D01*
X3450639Y22350012D01*
X3443883Y22352032D01*
X3443882Y22352033D01*
X3401068Y22364837D01*
X3327006Y22386987D01*
X3250377Y22387455D01*
X3205015Y22387732D01*
X3197964Y22387775D01*
X3191187Y22385838D01*
X3191186Y22385838D01*
X3080668Y22354252D01*
X3080666Y22354251D01*
X3073888Y22352314D01*
X2964752Y22283454D01*
X2879329Y22186731D01*
X2824487Y22069921D01*
X2804634Y21942413D01*
X400000Y21942413D01*
X400000Y23484860D01*
X11598201Y23484860D01*
X11599116Y23477863D01*
X11599116Y23477862D01*
X11603677Y23442980D01*
X11614933Y23356906D01*
X11617771Y23350455D01*
X11617772Y23350453D01*
X11653201Y23269934D01*
X11666905Y23238790D01*
X11704248Y23194365D01*
X11745400Y23145408D01*
X11745403Y23145406D01*
X11749939Y23140009D01*
X11857360Y23068504D01*
X11864088Y23066402D01*
X11864090Y23066401D01*
X11902997Y23054246D01*
X11980533Y23030022D01*
X12045044Y23028840D01*
X12102502Y23027786D01*
X12102504Y23027786D01*
X12109555Y23027657D01*
X12116358Y23029512D01*
X12116360Y23029512D01*
X12172966Y23044945D01*
X12234055Y23061600D01*
X12344024Y23129121D01*
X12354003Y23140146D01*
X12425890Y23219565D01*
X12425890Y23219566D01*
X12430622Y23224793D01*
X12470500Y23307100D01*
X12473194Y23312660D01*
X14032001Y23312660D01*
X14032916Y23305663D01*
X14032916Y23305662D01*
X14034182Y23295980D01*
X14048733Y23184706D01*
X14051571Y23178255D01*
X14051572Y23178253D01*
X14096181Y23076871D01*
X14100705Y23066590D01*
X14127641Y23034546D01*
X14179200Y22973208D01*
X14179203Y22973206D01*
X14183739Y22967809D01*
X14291160Y22896304D01*
X14297888Y22894202D01*
X14297890Y22894201D01*
X14338826Y22881412D01*
X14414333Y22857822D01*
X14478844Y22856639D01*
X14536302Y22855586D01*
X14536304Y22855586D01*
X14543355Y22855457D01*
X14550158Y22857312D01*
X14550160Y22857312D01*
X14598898Y22870600D01*
X14667855Y22889400D01*
X14777824Y22956921D01*
X14821182Y23004822D01*
X14859690Y23047365D01*
X14859690Y23047366D01*
X14864422Y23052593D01*
X14906775Y23140009D01*
X14917612Y23162376D01*
X14917612Y23162377D01*
X14920688Y23168725D01*
X14933736Y23246280D01*
X14941463Y23292209D01*
X14941463Y23292214D01*
X14942097Y23295980D01*
X14942233Y23307100D01*
X14923939Y23434841D01*
X14882366Y23526275D01*
X14873449Y23545888D01*
X14873448Y23545889D01*
X14870528Y23552312D01*
X14786293Y23650072D01*
X14780376Y23653907D01*
X14780374Y23653909D01*
X14699411Y23706385D01*
X14678006Y23720259D01*
X14671250Y23722279D01*
X14671249Y23722280D01*
X14617234Y23738434D01*
X14554373Y23757234D01*
X14477744Y23757702D01*
X14432382Y23757979D01*
X14425331Y23758022D01*
X14418554Y23756085D01*
X14418553Y23756085D01*
X14308035Y23724499D01*
X14308033Y23724498D01*
X14301255Y23722561D01*
X14295291Y23718798D01*
X14265495Y23699998D01*
X14192119Y23653701D01*
X14106696Y23556978D01*
X14051854Y23440168D01*
X14032001Y23312660D01*
X12473194Y23312660D01*
X12483812Y23334576D01*
X12483812Y23334577D01*
X12486888Y23340925D01*
X12500414Y23421325D01*
X12507663Y23464409D01*
X12507663Y23464414D01*
X12508297Y23468180D01*
X12508433Y23479300D01*
X12490139Y23607041D01*
X12467213Y23657464D01*
X12439649Y23718088D01*
X12439648Y23718089D01*
X12436728Y23724512D01*
X12378811Y23791728D01*
X12357098Y23816928D01*
X12357097Y23816929D01*
X12354916Y23819460D01*
X23358801Y23819460D01*
X23359716Y23812463D01*
X23359716Y23812462D01*
X23360703Y23804912D01*
X23375533Y23691506D01*
X23378371Y23685055D01*
X23378372Y23685053D01*
X23423786Y23581841D01*
X23427505Y23573390D01*
X23448360Y23548580D01*
X23506000Y23480008D01*
X23506003Y23480006D01*
X23510539Y23474609D01*
X23617960Y23403104D01*
X23624688Y23401002D01*
X23624690Y23401001D01*
X23658405Y23390468D01*
X23741133Y23364622D01*
X23805644Y23363440D01*
X23863102Y23362386D01*
X23863104Y23362386D01*
X23870155Y23362257D01*
X23876958Y23364112D01*
X23876960Y23364112D01*
X23918728Y23375500D01*
X23994655Y23396200D01*
X24104624Y23463721D01*
X24118652Y23479219D01*
X24186490Y23554165D01*
X24186490Y23554166D01*
X24191222Y23559393D01*
X24238397Y23656762D01*
X24244412Y23669176D01*
X24244412Y23669177D01*
X24247488Y23675525D01*
X24261041Y23756085D01*
X24268263Y23799009D01*
X24268263Y23799014D01*
X24268897Y23802780D01*
X24269033Y23813900D01*
X24250739Y23941641D01*
X24209519Y24032300D01*
X24200249Y24052688D01*
X24200248Y24052689D01*
X24197328Y24059112D01*
X24113093Y24156872D01*
X24107176Y24160707D01*
X24107174Y24160709D01*
X24025495Y24213649D01*
X24004806Y24227059D01*
X23998050Y24229079D01*
X23998049Y24229080D01*
X23949545Y24243586D01*
X23881173Y24264034D01*
X23804544Y24264502D01*
X23759182Y24264779D01*
X23752131Y24264822D01*
X23745354Y24262885D01*
X23745353Y24262885D01*
X23634835Y24231299D01*
X23634833Y24231298D01*
X23628055Y24229361D01*
X23622091Y24225598D01*
X23594569Y24208233D01*
X23518919Y24160501D01*
X23433496Y24063778D01*
X23378654Y23946968D01*
X23358801Y23819460D01*
X12354916Y23819460D01*
X12352493Y23822272D01*
X12346576Y23826107D01*
X12346574Y23826109D01*
X12250124Y23888623D01*
X12244206Y23892459D01*
X12237450Y23894479D01*
X12237449Y23894480D01*
X12185340Y23910064D01*
X12120573Y23929434D01*
X12043944Y23929902D01*
X11998582Y23930179D01*
X11991531Y23930222D01*
X11984754Y23928285D01*
X11984753Y23928285D01*
X11874235Y23896699D01*
X11874233Y23896698D01*
X11867455Y23894761D01*
X11861491Y23890998D01*
X11812887Y23860331D01*
X11758319Y23825901D01*
X11672896Y23729178D01*
X11618054Y23612368D01*
X11598201Y23484860D01*
X400000Y23484860D01*
X400000Y26388947D01*
X1007769Y26388947D01*
X1007850Y26377430D01*
X1018532Y26374000D01*
X2135000Y26374000D01*
X2193191Y26355093D01*
X2229155Y26305593D01*
X2234000Y26275000D01*
X2234000Y25965000D01*
X2215093Y25906809D01*
X2165593Y25870845D01*
X2135000Y25866000D01*
X1019847Y25866000D01*
X1008429Y25862290D01*
X1008245Y25851778D01*
X1036916Y25751792D01*
X1040467Y25742824D01*
X1126393Y25575628D01*
X1131620Y25567517D01*
X1248387Y25420194D01*
X1255086Y25413257D01*
X1390133Y25298323D01*
X1422193Y25246210D01*
X1417499Y25185205D01*
X1406966Y25166005D01*
X1402501Y25159652D01*
X1400334Y25154094D01*
X1396316Y25143788D01*
X1345309Y25012961D01*
X1344531Y25007050D01*
X1344530Y25007047D01*
X1341642Y24985109D01*
X1324758Y24856862D01*
X1325413Y24850929D01*
X1325413Y24850925D01*
X1337053Y24745493D01*
X1342035Y24700367D01*
X1346272Y24688788D01*
X1391313Y24565709D01*
X1396143Y24552510D01*
X1399472Y24547556D01*
X1480629Y24426781D01*
X1480632Y24426777D01*
X1483958Y24421828D01*
X1488369Y24417814D01*
X1488371Y24417812D01*
X1595995Y24319882D01*
X1600410Y24315865D01*
X1660623Y24283172D01*
X1733530Y24243586D01*
X1733532Y24243585D01*
X1738776Y24240738D01*
X1790918Y24227059D01*
X1885300Y24202298D01*
X1885304Y24202298D01*
X1891069Y24200785D01*
X1897030Y24200691D01*
X1897033Y24200691D01*
X1969782Y24199549D01*
X2048495Y24198312D01*
X2059293Y24200785D01*
X2196149Y24232129D01*
X2196151Y24232130D01*
X2201968Y24233462D01*
X2207299Y24236143D01*
X2337299Y24301526D01*
X2337301Y24301527D01*
X2342625Y24304205D01*
X2359458Y24318582D01*
X2439024Y24386537D01*
X2495552Y24409952D01*
X2555047Y24395668D01*
X2594783Y24349142D01*
X2600416Y24330573D01*
X2608233Y24291278D01*
X2641496Y24241496D01*
X2649606Y24236077D01*
X2679735Y24215946D01*
X2691278Y24208233D01*
X2700838Y24206331D01*
X2700839Y24206331D01*
X2730417Y24200447D01*
X2730422Y24200447D01*
X2735180Y24199500D01*
X3764820Y24199500D01*
X3769578Y24200447D01*
X3769583Y24200447D01*
X3799161Y24206331D01*
X3799162Y24206331D01*
X3808722Y24208233D01*
X3820266Y24215946D01*
X3850394Y24236077D01*
X3858504Y24241496D01*
X3891767Y24291278D01*
X3893806Y24301526D01*
X3899553Y24330417D01*
X3899553Y24330422D01*
X3900500Y24335180D01*
X3900500Y24431364D01*
X3919407Y24489555D01*
X3968907Y24525519D01*
X4030093Y24525519D01*
X4054358Y24513776D01*
X4083760Y24494204D01*
X4090488Y24492102D01*
X4090490Y24492101D01*
X4145347Y24474963D01*
X4206933Y24455722D01*
X4271444Y24454540D01*
X4328902Y24453486D01*
X4328904Y24453486D01*
X4335955Y24453357D01*
X4342758Y24455212D01*
X4342760Y24455212D01*
X4344036Y24455560D01*
X20544901Y24455560D01*
X20545816Y24448563D01*
X20545816Y24448562D01*
X20547082Y24438880D01*
X20561633Y24327606D01*
X20564471Y24321155D01*
X20564472Y24321153D01*
X20604985Y24229080D01*
X20613605Y24209490D01*
X20651621Y24164264D01*
X20692100Y24116108D01*
X20692103Y24116106D01*
X20696639Y24110709D01*
X20804060Y24039204D01*
X20810788Y24037102D01*
X20810790Y24037101D01*
X20851009Y24024536D01*
X20927233Y24000722D01*
X20991744Y23999540D01*
X21049202Y23998486D01*
X21049204Y23998486D01*
X21056255Y23998357D01*
X21063058Y24000212D01*
X21063060Y24000212D01*
X21137785Y24020585D01*
X21180755Y24032300D01*
X21290724Y24099821D01*
X21377322Y24195493D01*
X21433588Y24311625D01*
X21447727Y24395668D01*
X21454363Y24435109D01*
X21454363Y24435114D01*
X21454997Y24438880D01*
X21455133Y24450000D01*
X21436839Y24577741D01*
X21401288Y24655931D01*
X21386349Y24688788D01*
X21386348Y24688789D01*
X21383428Y24695212D01*
X21321895Y24766625D01*
X21303798Y24787628D01*
X21303797Y24787629D01*
X21299193Y24792972D01*
X21293276Y24796807D01*
X21293274Y24796809D01*
X21196824Y24859323D01*
X21190906Y24863159D01*
X21184150Y24865179D01*
X21184149Y24865180D01*
X21119224Y24884597D01*
X21067273Y24900134D01*
X20990644Y24900602D01*
X20945282Y24900879D01*
X20938231Y24900922D01*
X20931454Y24898985D01*
X20931453Y24898985D01*
X20820935Y24867399D01*
X20820933Y24867398D01*
X20814155Y24865461D01*
X20705019Y24796601D01*
X20619596Y24699878D01*
X20564754Y24583068D01*
X20544901Y24455560D01*
X4344036Y24455560D01*
X4384528Y24466600D01*
X4460455Y24487300D01*
X4560106Y24548486D01*
X4564411Y24551129D01*
X4570424Y24554821D01*
X4598636Y24585989D01*
X4652290Y24645265D01*
X4652290Y24645266D01*
X4657022Y24650493D01*
X4713288Y24766625D01*
X4724296Y24832059D01*
X4734063Y24890109D01*
X4734063Y24890114D01*
X4734697Y24893880D01*
X4734760Y24898985D01*
X4734774Y24900177D01*
X4734833Y24905000D01*
X4720432Y25005560D01*
X12044901Y25005560D01*
X12045816Y24998563D01*
X12045816Y24998562D01*
X12047082Y24988880D01*
X12061633Y24877606D01*
X12064471Y24871155D01*
X12064472Y24871153D01*
X12110764Y24765946D01*
X12113605Y24759490D01*
X12155122Y24710099D01*
X12192100Y24666108D01*
X12192103Y24666106D01*
X12196639Y24660709D01*
X12304060Y24589204D01*
X12310788Y24587102D01*
X12310790Y24587101D01*
X12363105Y24570757D01*
X12427233Y24550722D01*
X12491744Y24549539D01*
X12549202Y24548486D01*
X12549204Y24548486D01*
X12556255Y24548357D01*
X12563058Y24550212D01*
X12563060Y24550212D01*
X12604828Y24561600D01*
X12680755Y24582300D01*
X12790724Y24649821D01*
X12795459Y24655052D01*
X12872590Y24740265D01*
X12872590Y24740266D01*
X12877322Y24745493D01*
X12933588Y24861625D01*
X12954997Y24988880D01*
X12955133Y25000000D01*
X12936839Y25127741D01*
X12883428Y25245212D01*
X12830395Y25306760D01*
X12803798Y25337628D01*
X12803797Y25337629D01*
X12799193Y25342972D01*
X12793276Y25346807D01*
X12793274Y25346809D01*
X12722813Y25392478D01*
X12690906Y25413159D01*
X12684150Y25415179D01*
X12684149Y25415180D01*
X12641335Y25427984D01*
X12567273Y25450134D01*
X12490644Y25450602D01*
X12445282Y25450879D01*
X12438231Y25450922D01*
X12431454Y25448985D01*
X12431453Y25448985D01*
X12320935Y25417399D01*
X12320933Y25417398D01*
X12314155Y25415461D01*
X12205019Y25346601D01*
X12119596Y25249878D01*
X12064754Y25133068D01*
X12044901Y25005560D01*
X4720432Y25005560D01*
X4716539Y25032741D01*
X4698164Y25073154D01*
X4666049Y25143788D01*
X4666048Y25143789D01*
X4663128Y25150212D01*
X4610095Y25211760D01*
X4583498Y25242628D01*
X4583497Y25242629D01*
X4578893Y25247972D01*
X4572976Y25251807D01*
X4572974Y25251809D01*
X4476524Y25314323D01*
X4470606Y25318159D01*
X4463850Y25320179D01*
X4463849Y25320180D01*
X4421035Y25332984D01*
X4346973Y25355134D01*
X4270344Y25355602D01*
X4224982Y25355879D01*
X4217931Y25355922D01*
X4211154Y25353985D01*
X4211153Y25353985D01*
X4100635Y25322399D01*
X4100633Y25322398D01*
X4093855Y25320461D01*
X4087891Y25316698D01*
X4051107Y25293489D01*
X3991804Y25278428D01*
X3934975Y25301101D01*
X3902325Y25352847D01*
X3900500Y25363266D01*
X3900500Y25364820D01*
X3891767Y25408722D01*
X3858504Y25458504D01*
X3808722Y25491767D01*
X3771566Y25499158D01*
X3718182Y25529055D01*
X3692566Y25584620D01*
X3704503Y25644630D01*
X3723809Y25668155D01*
X3723771Y25668190D01*
X3724396Y25668869D01*
X3726582Y25671533D01*
X3732348Y25676458D01*
X3824224Y25804317D01*
X3843304Y25851778D01*
X3880726Y25944869D01*
X3880727Y25944871D01*
X3882950Y25950402D01*
X3885792Y25970367D01*
X3904678Y26103071D01*
X3904678Y26103075D01*
X3905134Y26106277D01*
X3905278Y26120000D01*
X3889459Y26250722D01*
X3887080Y26270384D01*
X3887079Y26270387D01*
X3886363Y26276306D01*
X3875297Y26305593D01*
X3832820Y26418004D01*
X3830710Y26423588D01*
X3768294Y26514403D01*
X3744912Y26548424D01*
X3744911Y26548425D01*
X3741531Y26553343D01*
X3737078Y26557310D01*
X3737075Y26557314D01*
X3650334Y26634597D01*
X3623976Y26658081D01*
X3618705Y26660872D01*
X3618702Y26660874D01*
X3607683Y26666708D01*
X3565103Y26710646D01*
X3558710Y26755560D01*
X9294901Y26755560D01*
X9295816Y26748563D01*
X9295816Y26748562D01*
X9296833Y26740785D01*
X9311633Y26627606D01*
X9314471Y26621155D01*
X9314472Y26621153D01*
X9357548Y26523255D01*
X9363605Y26509490D01*
X9400208Y26465946D01*
X9442100Y26416108D01*
X9442103Y26416106D01*
X9446639Y26410709D01*
X9554060Y26339204D01*
X9560788Y26337102D01*
X9560790Y26337101D01*
X9615647Y26319963D01*
X9677233Y26300722D01*
X9741744Y26299539D01*
X9799202Y26298486D01*
X9799204Y26298486D01*
X9806255Y26298357D01*
X9813058Y26300212D01*
X9813060Y26300212D01*
X9854828Y26311600D01*
X9930755Y26332300D01*
X10040724Y26399821D01*
X10055466Y26416108D01*
X10122590Y26490265D01*
X10122590Y26490266D01*
X10127322Y26495493D01*
X10183588Y26611625D01*
X10197774Y26695948D01*
X10199391Y26705560D01*
X21594901Y26705560D01*
X21595816Y26698563D01*
X21595816Y26698562D01*
X21600601Y26661968D01*
X21611633Y26577606D01*
X21614471Y26571155D01*
X21614472Y26571153D01*
X21660764Y26465946D01*
X21663605Y26459490D01*
X21689648Y26428508D01*
X21742100Y26366108D01*
X21742103Y26366106D01*
X21746639Y26360709D01*
X21854060Y26289204D01*
X21860788Y26287102D01*
X21860790Y26287101D01*
X21899524Y26275000D01*
X21977233Y26250722D01*
X22041744Y26249539D01*
X22099202Y26248486D01*
X22099204Y26248486D01*
X22106255Y26248357D01*
X22113058Y26250212D01*
X22113060Y26250212D01*
X22154828Y26261600D01*
X22230755Y26282300D01*
X22340724Y26349821D01*
X22362610Y26374000D01*
X22422590Y26440265D01*
X22422590Y26440266D01*
X22427322Y26445493D01*
X22483588Y26561625D01*
X22499148Y26654113D01*
X22504363Y26685109D01*
X22504363Y26685114D01*
X22504997Y26688880D01*
X22505133Y26700000D01*
X22486839Y26827741D01*
X22464105Y26877741D01*
X22436349Y26938788D01*
X22436348Y26938789D01*
X22433428Y26945212D01*
X22349193Y27042972D01*
X22343276Y27046807D01*
X22343274Y27046809D01*
X22264115Y27098116D01*
X22240906Y27113159D01*
X22234150Y27115179D01*
X22234149Y27115180D01*
X22191335Y27127984D01*
X22117273Y27150134D01*
X22040644Y27150602D01*
X21995282Y27150879D01*
X21988231Y27150922D01*
X21981454Y27148985D01*
X21981453Y27148985D01*
X21870935Y27117399D01*
X21870933Y27117398D01*
X21864155Y27115461D01*
X21858191Y27111698D01*
X21834264Y27096601D01*
X21755019Y27046601D01*
X21669596Y26949878D01*
X21614754Y26833068D01*
X21594901Y26705560D01*
X10199391Y26705560D01*
X10204363Y26735109D01*
X10204363Y26735114D01*
X10204997Y26738880D01*
X10205133Y26750000D01*
X10186839Y26877741D01*
X10158910Y26939167D01*
X10136349Y26988788D01*
X10136348Y26988789D01*
X10133428Y26995212D01*
X10065267Y27074317D01*
X10053798Y27087628D01*
X10053797Y27087629D01*
X10049193Y27092972D01*
X10043276Y27096807D01*
X10043274Y27096809D01*
X9946824Y27159323D01*
X9940906Y27163159D01*
X9934150Y27165179D01*
X9934149Y27165180D01*
X9891335Y27177984D01*
X9817273Y27200134D01*
X9740644Y27200602D01*
X9695282Y27200879D01*
X9688231Y27200922D01*
X9681454Y27198985D01*
X9681453Y27198985D01*
X9570935Y27167399D01*
X9570933Y27167398D01*
X9564155Y27165461D01*
X9455019Y27096601D01*
X9369596Y26999878D01*
X9314754Y26883068D01*
X9294901Y26755560D01*
X3558710Y26755560D01*
X3556481Y26771221D01*
X3585111Y26825295D01*
X3602632Y26837748D01*
X3602320Y26838218D01*
X3607299Y26841526D01*
X3612625Y26844205D01*
X3632237Y26860955D01*
X3727810Y26942582D01*
X3727811Y26942583D01*
X3732348Y26946458D01*
X3797860Y27037628D01*
X3820740Y27069468D01*
X3820741Y27069470D01*
X3824224Y27074317D01*
X3831724Y27092972D01*
X3880726Y27214869D01*
X3880727Y27214871D01*
X3882950Y27220402D01*
X3884994Y27234760D01*
X3888042Y27256177D01*
X31744391Y27256177D01*
X31745306Y27249180D01*
X31745306Y27249179D01*
X31757056Y27159323D01*
X31762980Y27114021D01*
X31765821Y27107565D01*
X31765821Y27107564D01*
X31807565Y27012695D01*
X31820720Y26982797D01*
X31853756Y26943496D01*
X31908431Y26878451D01*
X31908434Y26878449D01*
X31912970Y26873052D01*
X31918841Y26869144D01*
X31918842Y26869143D01*
X31931143Y26860955D01*
X32032313Y26793610D01*
X32131784Y26762534D01*
X32162425Y26752961D01*
X32162426Y26752961D01*
X32169157Y26750858D01*
X32240828Y26749544D01*
X32305445Y26748359D01*
X32305447Y26748359D01*
X32312499Y26748230D01*
X32319302Y26750085D01*
X32319304Y26750085D01*
X32431736Y26780738D01*
X32450817Y26785940D01*
X32572991Y26860955D01*
X32580403Y26869143D01*
X32664468Y26962018D01*
X32669200Y26967246D01*
X32727490Y27087556D01*
X32728634Y27089918D01*
X32731710Y27096267D01*
X32734307Y27111698D01*
X32754862Y27233876D01*
X32754862Y27233880D01*
X32755496Y27237646D01*
X32755647Y27250000D01*
X32735323Y27391918D01*
X32675984Y27522428D01*
X32582400Y27631037D01*
X32462095Y27709015D01*
X32324739Y27750093D01*
X32241497Y27750602D01*
X32188427Y27750926D01*
X32188426Y27750926D01*
X32181376Y27750969D01*
X32174599Y27749032D01*
X32174598Y27749032D01*
X32050309Y27713510D01*
X32050307Y27713509D01*
X32043529Y27711572D01*
X31922280Y27635070D01*
X31917613Y27629786D01*
X31917611Y27629784D01*
X31832044Y27532897D01*
X31832042Y27532895D01*
X31827377Y27527612D01*
X31766447Y27397837D01*
X31765362Y27390868D01*
X31765361Y27390865D01*
X31764438Y27384934D01*
X31744391Y27256177D01*
X3888042Y27256177D01*
X3904678Y27373071D01*
X3904678Y27373075D01*
X3905134Y27376277D01*
X3905278Y27390000D01*
X3889253Y27522428D01*
X3887080Y27540384D01*
X3887079Y27540387D01*
X3886363Y27546306D01*
X3830710Y27693588D01*
X3741531Y27823343D01*
X3737078Y27827310D01*
X3737075Y27827314D01*
X3669557Y27887469D01*
X3623976Y27928081D01*
X3611462Y27934707D01*
X3490105Y27998963D01*
X3490102Y27998964D01*
X3484831Y28001755D01*
X3408479Y28020933D01*
X3337918Y28038657D01*
X3337915Y28038657D01*
X3332128Y28040111D01*
X3252564Y28040527D01*
X3180650Y28040904D01*
X3180648Y28040904D01*
X3174684Y28040935D01*
X3021588Y28004180D01*
X2949035Y27966733D01*
X2886985Y27934707D01*
X2886983Y27934705D01*
X2881679Y27931968D01*
X2763034Y27828467D01*
X2759605Y27823588D01*
X2695779Y27732773D01*
X2646850Y27696037D01*
X2585672Y27695076D01*
X2533194Y27733624D01*
X2474912Y27818424D01*
X2474911Y27818425D01*
X2471531Y27823343D01*
X2467078Y27827310D01*
X2467075Y27827314D01*
X2399557Y27887469D01*
X2353976Y27928081D01*
X2341462Y27934707D01*
X2220105Y27998963D01*
X2220102Y27998964D01*
X2214831Y28001755D01*
X2138479Y28020933D01*
X2067918Y28038657D01*
X2067915Y28038657D01*
X2062128Y28040111D01*
X1982564Y28040527D01*
X1910650Y28040904D01*
X1910648Y28040904D01*
X1904684Y28040935D01*
X1751588Y28004180D01*
X1679035Y27966733D01*
X1616985Y27934707D01*
X1616983Y27934705D01*
X1611679Y27931968D01*
X1493034Y27828467D01*
X1402501Y27699652D01*
X1345309Y27552961D01*
X1344531Y27547050D01*
X1344530Y27547047D01*
X1341289Y27522428D01*
X1324758Y27396862D01*
X1325413Y27390929D01*
X1325413Y27390925D01*
X1339520Y27263151D01*
X1342035Y27240367D01*
X1349341Y27220402D01*
X1393269Y27100364D01*
X1396143Y27092510D01*
X1399472Y27087556D01*
X1410235Y27071539D01*
X1426998Y27012695D01*
X1405971Y26955236D01*
X1390098Y26939167D01*
X1275094Y26846701D01*
X1268220Y26839970D01*
X1147371Y26695948D01*
X1141930Y26688000D01*
X1051360Y26523255D01*
X1047566Y26514403D01*
X1007769Y26388947D01*
X400000Y26388947D01*
X400000Y29001560D01*
X3548901Y29001560D01*
X3549816Y28994563D01*
X3549816Y28994562D01*
X3551082Y28984880D01*
X3565633Y28873606D01*
X3568471Y28867155D01*
X3568472Y28867153D01*
X3575458Y28851276D01*
X3617605Y28755490D01*
X3659122Y28706099D01*
X3696100Y28662108D01*
X3696103Y28662106D01*
X3700639Y28656709D01*
X3808060Y28585204D01*
X3814788Y28583102D01*
X3814790Y28583101D01*
X3869646Y28565963D01*
X3931233Y28546722D01*
X3995744Y28545539D01*
X4053202Y28544486D01*
X4053204Y28544486D01*
X4060255Y28544357D01*
X4067058Y28546212D01*
X4067060Y28546212D01*
X4108828Y28557600D01*
X4184755Y28578300D01*
X4294724Y28645821D01*
X4381322Y28741493D01*
X4437588Y28857625D01*
X4458997Y28984880D01*
X4459133Y28996000D01*
X4440839Y29123741D01*
X4387428Y29241212D01*
X4303193Y29338972D01*
X4297276Y29342807D01*
X4297274Y29342809D01*
X4200824Y29405323D01*
X4194906Y29409159D01*
X4188150Y29411179D01*
X4188149Y29411180D01*
X4127858Y29429211D01*
X4071273Y29446134D01*
X3994644Y29446602D01*
X3949282Y29446879D01*
X3942231Y29446922D01*
X3935454Y29444985D01*
X3935453Y29444985D01*
X3824935Y29413399D01*
X3824933Y29413398D01*
X3818155Y29411461D01*
X3709019Y29342601D01*
X3623596Y29245878D01*
X3568754Y29129068D01*
X3548901Y29001560D01*
X400000Y29001560D01*
X400000Y32505560D01*
X9044901Y32505560D01*
X9061633Y32377606D01*
X9064471Y32371155D01*
X9064472Y32371153D01*
X9110764Y32265946D01*
X9113605Y32259490D01*
X9137493Y32231072D01*
X9192100Y32166108D01*
X9192103Y32166106D01*
X9196639Y32160709D01*
X9304060Y32089204D01*
X9310788Y32087102D01*
X9310790Y32087101D01*
X9365646Y32069963D01*
X9427233Y32050722D01*
X9491744Y32049539D01*
X9549202Y32048486D01*
X9549204Y32048486D01*
X9556255Y32048357D01*
X9563059Y32050212D01*
X9570060Y32051084D01*
X9570351Y32048751D01*
X9620707Y32046334D01*
X9655640Y32023758D01*
X11026719Y30652678D01*
X11054496Y30598161D01*
X11054536Y30567443D01*
X11053720Y30562201D01*
X11044901Y30505560D01*
X11061633Y30377606D01*
X11064472Y30371154D01*
X11064473Y30371150D01*
X11072791Y30352247D01*
X11078922Y30291369D01*
X11048099Y30238515D01*
X10992096Y30213872D01*
X10981572Y30213376D01*
X10882314Y30213982D01*
X10875262Y30214025D01*
X10868485Y30212088D01*
X10868484Y30212088D01*
X10757966Y30180502D01*
X10757964Y30180501D01*
X10751186Y30178564D01*
X10642050Y30109704D01*
X10556627Y30012981D01*
X10501785Y29896171D01*
X10481932Y29768663D01*
X10482847Y29761666D01*
X10482847Y29761665D01*
X10484113Y29751983D01*
X10498664Y29640709D01*
X10501502Y29634258D01*
X10501503Y29634256D01*
X10508489Y29618379D01*
X10550636Y29522593D01*
X10592153Y29473202D01*
X10629131Y29429211D01*
X10629134Y29429209D01*
X10633670Y29423812D01*
X10741091Y29352307D01*
X10747819Y29350205D01*
X10747821Y29350204D01*
X10789074Y29337316D01*
X10864264Y29313825D01*
X10928775Y29312642D01*
X10986233Y29311589D01*
X10986235Y29311589D01*
X10993286Y29311460D01*
X11000089Y29313315D01*
X11000091Y29313315D01*
X11041859Y29324703D01*
X11117786Y29345403D01*
X11166315Y29375200D01*
X21846000Y29375200D01*
X21846048Y29374107D01*
X21846829Y29356215D01*
X21846966Y29353071D01*
X21848108Y29340013D01*
X21849315Y29328990D01*
X21851051Y29323874D01*
X21851052Y29323872D01*
X21863117Y29288329D01*
X21881171Y29235143D01*
X21906891Y29190594D01*
X21909261Y29187641D01*
X21935247Y29155264D01*
X21955264Y29130323D01*
X21962664Y29125832D01*
X21962666Y29125831D01*
X21993879Y29106891D01*
X22039991Y29078910D01*
X22063830Y29070233D01*
X22084270Y29062794D01*
X22084273Y29062793D01*
X22088329Y29061317D01*
X22142389Y29051785D01*
X22170945Y29046750D01*
X22170948Y29046750D01*
X22175200Y29046000D01*
X30624800Y29046000D01*
X30633477Y29046379D01*
X30645886Y29046920D01*
X30645907Y29046921D01*
X30646929Y29046966D01*
X30655456Y29047712D01*
X30659452Y29048061D01*
X30659471Y29048063D01*
X30659987Y29048108D01*
X30660489Y29048163D01*
X30660530Y29048167D01*
X30665640Y29048727D01*
X30671010Y29049315D01*
X30676126Y29051051D01*
X30676128Y29051052D01*
X30760250Y29079607D01*
X30760252Y29079608D01*
X30764857Y29081171D01*
X30769067Y29083602D01*
X30769070Y29083603D01*
X30806127Y29104998D01*
X30809406Y29106891D01*
X30828353Y29122098D01*
X30862924Y29149844D01*
X30869677Y29155264D01*
X30921090Y29239991D01*
X30938683Y29288329D01*
X30954000Y29375200D01*
X30954000Y32006177D01*
X38494391Y32006177D01*
X38495306Y31999180D01*
X38495306Y31999179D01*
X38496814Y31987646D01*
X38512980Y31864021D01*
X38515821Y31857565D01*
X38515821Y31857564D01*
X38523586Y31839918D01*
X38570720Y31732797D01*
X38607391Y31689172D01*
X38658431Y31628451D01*
X38658434Y31628449D01*
X38662970Y31623052D01*
X38668841Y31619144D01*
X38668842Y31619143D01*
X38681143Y31610955D01*
X38782313Y31543610D01*
X38882920Y31512179D01*
X38912425Y31502961D01*
X38912426Y31502961D01*
X38919157Y31500858D01*
X38990828Y31499544D01*
X39055445Y31498359D01*
X39055447Y31498359D01*
X39062499Y31498230D01*
X39069302Y31500085D01*
X39069304Y31500085D01*
X39144503Y31520587D01*
X39200817Y31535940D01*
X39322991Y31610955D01*
X39330403Y31619143D01*
X39414468Y31712018D01*
X39419200Y31717246D01*
X39481710Y31846267D01*
X39485875Y31871018D01*
X39504862Y31983876D01*
X39504862Y31983880D01*
X39505496Y31987646D01*
X39505647Y32000000D01*
X39485323Y32141918D01*
X39463543Y32189820D01*
X39428905Y32266004D01*
X39428904Y32266005D01*
X39425984Y32272428D01*
X39343730Y32367888D01*
X39337005Y32375693D01*
X39337004Y32375694D01*
X39332400Y32381037D01*
X39212095Y32459015D01*
X39074739Y32500093D01*
X38991497Y32500602D01*
X38938427Y32500926D01*
X38938426Y32500926D01*
X38931376Y32500969D01*
X38924599Y32499032D01*
X38924598Y32499032D01*
X38800309Y32463510D01*
X38800307Y32463509D01*
X38793529Y32461572D01*
X38672280Y32385070D01*
X38667613Y32379786D01*
X38667611Y32379784D01*
X38582044Y32282897D01*
X38582042Y32282895D01*
X38577377Y32277612D01*
X38516447Y32147837D01*
X38515362Y32140868D01*
X38515361Y32140865D01*
X38501306Y32050593D01*
X38494391Y32006177D01*
X30954000Y32006177D01*
X30954000Y33024800D01*
X30953034Y33046929D01*
X30951892Y33059987D01*
X30950685Y33071010D01*
X30918829Y33164857D01*
X30893109Y33209406D01*
X30844736Y33269677D01*
X30837336Y33274168D01*
X30837334Y33274169D01*
X30764165Y33318568D01*
X30764166Y33318568D01*
X30760009Y33321090D01*
X30736170Y33329767D01*
X30715730Y33337206D01*
X30715727Y33337207D01*
X30711671Y33338683D01*
X30657611Y33348215D01*
X30629055Y33353250D01*
X30629052Y33353250D01*
X30624800Y33354000D01*
X27353000Y33354000D01*
X27294809Y33372907D01*
X27258845Y33422407D01*
X27254000Y33453000D01*
X27254000Y35253833D01*
X27749500Y35253833D01*
X27749501Y34146168D01*
X27752481Y34114632D01*
X27754478Y34108945D01*
X27754479Y34108941D01*
X27768261Y34069697D01*
X27797366Y33986817D01*
X27801761Y33980866D01*
X27801762Y33980865D01*
X27871535Y33886400D01*
X27877850Y33877850D01*
X27883807Y33873450D01*
X27956467Y33819783D01*
X27986817Y33797366D01*
X28114632Y33752481D01*
X28120639Y33751913D01*
X28120640Y33751913D01*
X28143856Y33749718D01*
X28143866Y33749718D01*
X28146167Y33749500D01*
X28699761Y33749500D01*
X29253832Y33749501D01*
X29285368Y33752481D01*
X29291055Y33754478D01*
X29291059Y33754479D01*
X29348004Y33774477D01*
X29413183Y33797366D01*
X29443534Y33819783D01*
X29516193Y33873450D01*
X29522150Y33877850D01*
X29528465Y33886400D01*
X29598238Y33980865D01*
X29598239Y33980866D01*
X29602634Y33986817D01*
X29647519Y34114632D01*
X29648087Y34120640D01*
X29650282Y34143856D01*
X29650282Y34143866D01*
X29650500Y34146167D01*
X29650499Y34756177D01*
X40244391Y34756177D01*
X40245306Y34749180D01*
X40245306Y34749179D01*
X40246814Y34737646D01*
X40262980Y34614021D01*
X40265821Y34607565D01*
X40265821Y34607564D01*
X40273586Y34589918D01*
X40320720Y34482797D01*
X40333792Y34467246D01*
X40408431Y34378451D01*
X40408434Y34378449D01*
X40412970Y34373052D01*
X40418841Y34369144D01*
X40418842Y34369143D01*
X40431143Y34360955D01*
X40532313Y34293610D01*
X40632920Y34262179D01*
X40662425Y34252961D01*
X40662426Y34252961D01*
X40669157Y34250858D01*
X40740828Y34249544D01*
X40805445Y34248359D01*
X40805447Y34248359D01*
X40812499Y34248230D01*
X40819302Y34250085D01*
X40819304Y34250085D01*
X40894503Y34270587D01*
X40950817Y34285940D01*
X41072991Y34360955D01*
X41080403Y34369143D01*
X41164468Y34462018D01*
X41169200Y34467246D01*
X41231710Y34596267D01*
X41235875Y34621018D01*
X41254862Y34733876D01*
X41254862Y34733880D01*
X41255496Y34737646D01*
X41255647Y34750000D01*
X41235323Y34891918D01*
X41175984Y35022428D01*
X41082400Y35131037D01*
X40962095Y35209015D01*
X40824739Y35250093D01*
X40741497Y35250602D01*
X40688427Y35250926D01*
X40688426Y35250926D01*
X40681376Y35250969D01*
X40674599Y35249032D01*
X40674598Y35249032D01*
X40550309Y35213510D01*
X40550307Y35213509D01*
X40543529Y35211572D01*
X40422280Y35135070D01*
X40417613Y35129786D01*
X40417611Y35129784D01*
X40332044Y35032897D01*
X40332042Y35032895D01*
X40327377Y35027612D01*
X40266447Y34897837D01*
X40265362Y34890868D01*
X40265361Y34890865D01*
X40250680Y34796570D01*
X40244391Y34756177D01*
X29650499Y34756177D01*
X29650499Y35253832D01*
X29647519Y35285368D01*
X29645522Y35291055D01*
X29645521Y35291059D01*
X29617419Y35371080D01*
X29602634Y35413183D01*
X29587745Y35433342D01*
X29526550Y35516193D01*
X29522150Y35522150D01*
X29470923Y35559987D01*
X29419135Y35598238D01*
X29419134Y35598239D01*
X29413183Y35602634D01*
X29285368Y35647519D01*
X29279361Y35648087D01*
X29279360Y35648087D01*
X29256144Y35650282D01*
X29256134Y35650282D01*
X29253833Y35650500D01*
X28700239Y35650500D01*
X28146168Y35650499D01*
X28114632Y35647519D01*
X28108945Y35645522D01*
X28108941Y35645521D01*
X28051996Y35625523D01*
X27986817Y35602634D01*
X27980866Y35598239D01*
X27980865Y35598238D01*
X27929077Y35559987D01*
X27877850Y35522150D01*
X27873450Y35516193D01*
X27812256Y35433342D01*
X27797366Y35413183D01*
X27752481Y35285368D01*
X27751913Y35279361D01*
X27751913Y35279360D01*
X27749719Y35256148D01*
X27749500Y35253833D01*
X27254000Y35253833D01*
X27254000Y35524800D01*
X27253034Y35546929D01*
X27251892Y35559987D01*
X27250685Y35571010D01*
X27248615Y35577110D01*
X27220393Y35660250D01*
X27220392Y35660252D01*
X27218829Y35664857D01*
X27193109Y35709406D01*
X27170694Y35737334D01*
X27150156Y35762924D01*
X27144736Y35769677D01*
X27137336Y35774168D01*
X27137334Y35774169D01*
X27064165Y35818568D01*
X27064166Y35818568D01*
X27060009Y35821090D01*
X27036170Y35829767D01*
X27015730Y35837206D01*
X27015727Y35837207D01*
X27011671Y35838683D01*
X26953453Y35848948D01*
X26929055Y35853250D01*
X26929052Y35853250D01*
X26924800Y35854000D01*
X22175200Y35854000D01*
X22166523Y35853621D01*
X22154114Y35853080D01*
X22154093Y35853079D01*
X22153071Y35853034D01*
X22144544Y35852288D01*
X22140548Y35851939D01*
X22140529Y35851937D01*
X22140013Y35851892D01*
X22139511Y35851837D01*
X22139470Y35851833D01*
X22134426Y35851280D01*
X22128990Y35850685D01*
X22123874Y35848949D01*
X22123872Y35848948D01*
X22039750Y35820393D01*
X22039748Y35820392D01*
X22035143Y35818829D01*
X22030933Y35816398D01*
X22030930Y35816397D01*
X22002519Y35799994D01*
X21990594Y35793109D01*
X21987641Y35790739D01*
X21952985Y35762924D01*
X21930323Y35744736D01*
X21878910Y35660009D01*
X21861317Y35611671D01*
X21846000Y35524800D01*
X21846000Y29375200D01*
X11166315Y29375200D01*
X11227755Y29412924D01*
X11258490Y29446879D01*
X11309621Y29503368D01*
X11309621Y29503369D01*
X11314353Y29508596D01*
X11370619Y29624728D01*
X11392028Y29751983D01*
X11392164Y29763103D01*
X11373870Y29890844D01*
X11365062Y29910216D01*
X11358187Y29971012D01*
X11388361Y30024240D01*
X11444059Y30049566D01*
X11456997Y30050176D01*
X11549202Y30048486D01*
X11549204Y30048486D01*
X11556255Y30048357D01*
X11563058Y30050212D01*
X11563060Y30050212D01*
X11604828Y30061600D01*
X11680755Y30082300D01*
X11790724Y30149821D01*
X11877322Y30245493D01*
X11933588Y30361625D01*
X11953474Y30479827D01*
X11981773Y30534074D01*
X12036554Y30561327D01*
X12052914Y30562385D01*
X12059100Y30562271D01*
X12062918Y30562201D01*
X12062920Y30562201D01*
X12069970Y30562072D01*
X12076773Y30563927D01*
X12076775Y30563927D01*
X12118543Y30575315D01*
X12194470Y30596015D01*
X12270999Y30643004D01*
X15608044Y30643004D01*
X15608142Y30642382D01*
X15612969Y30636829D01*
X15660052Y30603861D01*
X15667522Y30599549D01*
X15859175Y30510179D01*
X15867268Y30507233D01*
X16071539Y30452499D01*
X16080027Y30451003D01*
X16290691Y30432572D01*
X16299309Y30432572D01*
X16509973Y30451003D01*
X16518461Y30452499D01*
X16722732Y30507233D01*
X16730825Y30510179D01*
X16922478Y30599549D01*
X16929948Y30603861D01*
X16974144Y30634808D01*
X16982170Y30645459D01*
X16982182Y30646091D01*
X16978394Y30652395D01*
X16306086Y31324704D01*
X16294203Y31330758D01*
X16289172Y31329962D01*
X15614098Y30654887D01*
X15608044Y30643004D01*
X12270999Y30643004D01*
X12304439Y30663536D01*
X12391037Y30759208D01*
X12447303Y30875340D01*
X12459994Y30950773D01*
X12468078Y30998824D01*
X12468078Y30998829D01*
X12468712Y31002595D01*
X12468804Y31010122D01*
X12488421Y31068077D01*
X12538357Y31103433D01*
X12599538Y31102686D01*
X12641368Y31075156D01*
X12685659Y31025965D01*
X12685663Y31025962D01*
X12689129Y31022112D01*
X12842270Y30910849D01*
X12847002Y30908742D01*
X12847004Y30908741D01*
X12936283Y30868991D01*
X13015197Y30833856D01*
X13020267Y30832778D01*
X13020268Y30832778D01*
X13057610Y30824841D01*
X13200354Y30794500D01*
X13389646Y30794500D01*
X13532390Y30824841D01*
X13569732Y30832778D01*
X13569733Y30832778D01*
X13574803Y30833856D01*
X13653717Y30868991D01*
X13742996Y30908741D01*
X13742998Y30908742D01*
X13747730Y30910849D01*
X13900871Y31022112D01*
X13904337Y31025962D01*
X13904341Y31025965D01*
X14024061Y31158928D01*
X14027533Y31162784D01*
X14122179Y31326716D01*
X14154723Y31426874D01*
X14179072Y31501812D01*
X14179073Y31501817D01*
X14180674Y31506744D01*
X14200007Y31690691D01*
X15032572Y31690691D01*
X15051003Y31480027D01*
X15052499Y31471539D01*
X15107231Y31267274D01*
X15110180Y31259172D01*
X15199553Y31067514D01*
X15203857Y31060060D01*
X15234808Y31015855D01*
X15245458Y31007830D01*
X15246090Y31007819D01*
X15252396Y31011607D01*
X15924704Y31683914D01*
X15929946Y31694203D01*
X16659242Y31694203D01*
X16660038Y31689172D01*
X17335113Y31014098D01*
X17346996Y31008044D01*
X17347618Y31008142D01*
X17353171Y31012969D01*
X17386143Y31060060D01*
X17390447Y31067514D01*
X17479820Y31259172D01*
X17482769Y31267274D01*
X17537501Y31471539D01*
X17538997Y31480027D01*
X17557428Y31690691D01*
X17557428Y31699309D01*
X17538997Y31909973D01*
X17537501Y31918461D01*
X17482769Y32122726D01*
X17479820Y32130828D01*
X17390447Y32322486D01*
X17386143Y32329940D01*
X17355192Y32374145D01*
X17344542Y32382170D01*
X17343910Y32382181D01*
X17337604Y32378393D01*
X16665296Y31706086D01*
X16659242Y31694203D01*
X15929946Y31694203D01*
X15930758Y31695797D01*
X15929962Y31700828D01*
X15254887Y32375902D01*
X15243004Y32381956D01*
X15242382Y32381858D01*
X15236829Y32377031D01*
X15203857Y32329940D01*
X15199553Y32322486D01*
X15110180Y32130828D01*
X15107231Y32122726D01*
X15052499Y31918461D01*
X15051003Y31909973D01*
X15032572Y31699309D01*
X15032572Y31690691D01*
X14200007Y31690691D01*
X14200460Y31695000D01*
X14180674Y31883256D01*
X14179073Y31888183D01*
X14179072Y31888188D01*
X14123781Y32058354D01*
X14123780Y32058355D01*
X14122179Y32063284D01*
X14108429Y32087101D01*
X14030126Y32222725D01*
X14030125Y32222726D01*
X14027533Y32227216D01*
X13992608Y32266004D01*
X13904341Y32364035D01*
X13904337Y32364038D01*
X13900871Y32367888D01*
X13747730Y32479151D01*
X13742998Y32481258D01*
X13742996Y32481259D01*
X13579540Y32554035D01*
X13579539Y32554035D01*
X13574803Y32556144D01*
X13569733Y32557222D01*
X13569732Y32557222D01*
X13532390Y32565159D01*
X13389646Y32595500D01*
X13200354Y32595500D01*
X13057610Y32565159D01*
X13020268Y32557222D01*
X13020267Y32557222D01*
X13015197Y32556144D01*
X13010461Y32554035D01*
X13010460Y32554035D01*
X12847004Y32481259D01*
X12847002Y32481258D01*
X12842270Y32479151D01*
X12689129Y32367888D01*
X12685663Y32364038D01*
X12685659Y32364035D01*
X12597392Y32266004D01*
X12562467Y32227216D01*
X12559875Y32222726D01*
X12559874Y32222725D01*
X12481572Y32087101D01*
X12467821Y32063284D01*
X12466220Y32058355D01*
X12466219Y32058354D01*
X12410928Y31888188D01*
X12410927Y31888183D01*
X12409326Y31883256D01*
X12389540Y31695000D01*
X12409326Y31506744D01*
X12410929Y31501812D01*
X12412008Y31496733D01*
X12410540Y31496421D01*
X12410543Y31441820D01*
X12374581Y31392318D01*
X12316391Y31373409D01*
X12262541Y31389333D01*
X12210539Y31423038D01*
X12204621Y31426874D01*
X12197865Y31428894D01*
X12197864Y31428895D01*
X12096158Y31459312D01*
X12080988Y31463849D01*
X12004359Y31464317D01*
X11958997Y31464594D01*
X11951946Y31464637D01*
X11933314Y31459312D01*
X11872168Y31461501D01*
X11836105Y31484497D01*
X10576692Y32743910D01*
X15607819Y32743910D01*
X15611607Y32737604D01*
X16283914Y32065296D01*
X16295797Y32059242D01*
X16300828Y32060038D01*
X16975902Y32735113D01*
X16981956Y32746996D01*
X16981858Y32747618D01*
X16977031Y32753171D01*
X16929948Y32786139D01*
X16922478Y32790451D01*
X16730825Y32879821D01*
X16722732Y32882767D01*
X16518461Y32937501D01*
X16509973Y32938997D01*
X16299309Y32957428D01*
X16290691Y32957428D01*
X16080027Y32938997D01*
X16071539Y32937501D01*
X15867274Y32882769D01*
X15859172Y32879820D01*
X15667514Y32790447D01*
X15660060Y32786143D01*
X15615855Y32755192D01*
X15607830Y32744542D01*
X15607819Y32743910D01*
X10576692Y32743910D01*
X9944507Y33376095D01*
X9924389Y33405123D01*
X9916531Y33422407D01*
X9883428Y33495212D01*
X9799193Y33592972D01*
X9793276Y33596807D01*
X9793274Y33596809D01*
X9696824Y33659323D01*
X9690906Y33663159D01*
X9684150Y33665179D01*
X9684149Y33665180D01*
X9641335Y33677984D01*
X9567273Y33700134D01*
X9490644Y33700602D01*
X9445282Y33700879D01*
X9438231Y33700922D01*
X9431454Y33698985D01*
X9431453Y33698985D01*
X9320935Y33667399D01*
X9320933Y33667398D01*
X9314155Y33665461D01*
X9205019Y33596601D01*
X9119596Y33499878D01*
X9064754Y33383068D01*
X9044901Y33255560D01*
X9061633Y33127606D01*
X9064471Y33121155D01*
X9064472Y33121153D01*
X9110764Y33015946D01*
X9113605Y33009490D01*
X9172861Y32938997D01*
X9173446Y32938301D01*
X9196416Y32881591D01*
X9181666Y32822211D01*
X9171867Y32809065D01*
X9124289Y32755192D01*
X9119596Y32749878D01*
X9064754Y32633068D01*
X9044901Y32505560D01*
X400000Y32505560D01*
X400000Y34163482D01*
X12394500Y34163482D01*
X12409354Y34069697D01*
X12412890Y34062757D01*
X12441298Y34007004D01*
X12466950Y33956658D01*
X12556658Y33866950D01*
X12563595Y33863415D01*
X12563597Y33863414D01*
X12644595Y33822144D01*
X12669697Y33809354D01*
X12677391Y33808135D01*
X12677392Y33808135D01*
X12759636Y33795109D01*
X12759638Y33795109D01*
X12763482Y33794500D01*
X13826518Y33794500D01*
X13830362Y33795109D01*
X13830364Y33795109D01*
X13912608Y33808135D01*
X13912609Y33808135D01*
X13920303Y33809354D01*
X13945405Y33822144D01*
X14026403Y33863414D01*
X14026405Y33863415D01*
X14033342Y33866950D01*
X14123050Y33956658D01*
X14148703Y34007004D01*
X14177110Y34062757D01*
X14180646Y34069697D01*
X14195500Y34163482D01*
X14195500Y34708335D01*
X15339994Y34708335D01*
X15355592Y34522586D01*
X15356925Y34517938D01*
X15356925Y34517937D01*
X15401939Y34360955D01*
X15406971Y34343405D01*
X15492176Y34177615D01*
X15607959Y34031532D01*
X15611646Y34028394D01*
X15611648Y34028392D01*
X15746224Y33913859D01*
X15746229Y33913856D01*
X15749912Y33910721D01*
X15754134Y33908361D01*
X15754139Y33908358D01*
X15818379Y33872456D01*
X15912627Y33819783D01*
X15917225Y33818289D01*
X16085302Y33763677D01*
X16085304Y33763676D01*
X16089907Y33762181D01*
X16274998Y33740110D01*
X16279820Y33740481D01*
X16279823Y33740481D01*
X16456023Y33754039D01*
X16456028Y33754040D01*
X16460851Y33754411D01*
X16640387Y33804538D01*
X16644700Y33806717D01*
X16644706Y33806719D01*
X16802447Y33886400D01*
X16802449Y33886402D01*
X16806768Y33888583D01*
X16953655Y34003344D01*
X17075454Y34144450D01*
X17137097Y34252961D01*
X17165137Y34302320D01*
X17165138Y34302323D01*
X17167526Y34306526D01*
X17178361Y34339095D01*
X17224837Y34478808D01*
X17224837Y34478810D01*
X17226364Y34483399D01*
X17249727Y34668332D01*
X17250099Y34695000D01*
X17231909Y34880513D01*
X17178033Y35058960D01*
X17090522Y35223544D01*
X16972710Y35367995D01*
X16968981Y35371080D01*
X16832812Y35483730D01*
X16832810Y35483731D01*
X16829085Y35486813D01*
X16715987Y35547965D01*
X16669370Y35573171D01*
X16669369Y35573171D01*
X16665116Y35575471D01*
X16487049Y35630591D01*
X16482239Y35631097D01*
X16482237Y35631097D01*
X16306484Y35649570D01*
X16306482Y35649570D01*
X16301668Y35650076D01*
X16239673Y35644434D01*
X16120852Y35633621D01*
X16120848Y35633620D01*
X16116032Y35633182D01*
X16111390Y35631816D01*
X16111386Y35631815D01*
X15941861Y35581920D01*
X15941858Y35581919D01*
X15937214Y35580552D01*
X15772023Y35494193D01*
X15768247Y35491157D01*
X15768244Y35491155D01*
X15687709Y35426403D01*
X15626752Y35377392D01*
X15623644Y35373688D01*
X15510044Y35238305D01*
X15510041Y35238301D01*
X15506935Y35234599D01*
X15417135Y35071254D01*
X15415672Y35066641D01*
X15415670Y35066637D01*
X15366013Y34910098D01*
X15360772Y34893576D01*
X15360232Y34888764D01*
X15360232Y34888763D01*
X15343282Y34737646D01*
X15339994Y34708335D01*
X14195500Y34708335D01*
X14195500Y35226518D01*
X14193633Y35238305D01*
X14181865Y35312608D01*
X14181865Y35312609D01*
X14180646Y35320303D01*
X14150013Y35380424D01*
X14126586Y35426403D01*
X14126585Y35426405D01*
X14123050Y35433342D01*
X14033342Y35523050D01*
X14026405Y35526585D01*
X14026403Y35526586D01*
X13927243Y35577110D01*
X13920303Y35580646D01*
X13912609Y35581865D01*
X13912608Y35581865D01*
X13830364Y35594891D01*
X13830362Y35594891D01*
X13826518Y35595500D01*
X12763482Y35595500D01*
X12759638Y35594891D01*
X12759636Y35594891D01*
X12677392Y35581865D01*
X12677391Y35581865D01*
X12669697Y35580646D01*
X12662757Y35577110D01*
X12563597Y35526586D01*
X12563595Y35526585D01*
X12556658Y35523050D01*
X12466950Y35433342D01*
X12463415Y35426405D01*
X12463414Y35426403D01*
X12439987Y35380424D01*
X12409354Y35320303D01*
X12408135Y35312609D01*
X12408135Y35312608D01*
X12396367Y35238305D01*
X12394500Y35226518D01*
X12394500Y34163482D01*
X400000Y34163482D01*
X400000Y37660728D01*
X401219Y37676215D01*
X403767Y37692303D01*
X404986Y37699999D01*
X403767Y37707696D01*
X403767Y37715485D01*
X403834Y37715485D01*
X403427Y37731824D01*
X406880Y37763899D01*
X411391Y37784608D01*
X428347Y37835477D01*
X437164Y37854752D01*
X453647Y37882485D01*
X463775Y37895311D01*
X463722Y37895351D01*
X467555Y37900462D01*
X469224Y37902386D01*
X473990Y37907010D01*
X475171Y37909244D01*
X476753Y37911068D01*
X1473275Y38907590D01*
X13038862Y38907590D01*
X13039356Y38903962D01*
X13039356Y38903958D01*
X13045711Y38857263D01*
X13074028Y38649196D01*
X13147000Y38398838D01*
X13148539Y38395500D01*
X13254639Y38165351D01*
X13254642Y38165345D01*
X13256177Y38162016D01*
X13399158Y37943933D01*
X13401597Y37941200D01*
X13401598Y37941199D01*
X13541361Y37784608D01*
X13572804Y37749379D01*
X13575626Y37747032D01*
X13575627Y37747031D01*
X13670027Y37668520D01*
X13773300Y37582629D01*
X13996240Y37447345D01*
X14236728Y37346500D01*
X14240289Y37345596D01*
X14240291Y37345595D01*
X14485919Y37283214D01*
X14485924Y37283213D01*
X14489480Y37282310D01*
X14706072Y37260500D01*
X14861206Y37260500D01*
X14948220Y37266966D01*
X15051405Y37274634D01*
X15051411Y37274635D01*
X15055059Y37274906D01*
X15309405Y37332458D01*
X15312822Y37333787D01*
X15312826Y37333788D01*
X15549030Y37425643D01*
X15552450Y37426973D01*
X15778855Y37556375D01*
X15983647Y37717820D01*
X15986161Y37720493D01*
X15986167Y37720498D01*
X16112460Y37854752D01*
X16162326Y37907761D01*
X16310968Y38122027D01*
X16426306Y38355910D01*
X16505807Y38604272D01*
X16513365Y38650676D01*
X16547136Y38858039D01*
X16547136Y38858040D01*
X16547725Y38861656D01*
X16548392Y38912590D01*
X26943862Y38912590D01*
X26944356Y38908962D01*
X26944356Y38908958D01*
X26960341Y38791508D01*
X26979028Y38654196D01*
X27052000Y38403838D01*
X27053539Y38400500D01*
X27159639Y38170351D01*
X27159642Y38170345D01*
X27161177Y38167016D01*
X27304158Y37948933D01*
X27306597Y37946200D01*
X27306598Y37946199D01*
X27459845Y37774500D01*
X27477804Y37754379D01*
X27480626Y37752032D01*
X27480627Y37752031D01*
X27523938Y37716010D01*
X27678300Y37587629D01*
X27901240Y37452345D01*
X28141728Y37351500D01*
X28145289Y37350596D01*
X28145291Y37350595D01*
X28390919Y37288214D01*
X28390924Y37288213D01*
X28394480Y37287310D01*
X28611072Y37265500D01*
X28766206Y37265500D01*
X28853220Y37271966D01*
X28956405Y37279634D01*
X28956411Y37279635D01*
X28960059Y37279906D01*
X29214405Y37337458D01*
X29217822Y37338787D01*
X29217826Y37338788D01*
X29454030Y37430643D01*
X29457450Y37431973D01*
X29683855Y37561375D01*
X29888647Y37722820D01*
X29891161Y37725493D01*
X29891167Y37725498D01*
X30050906Y37895306D01*
X30067326Y37912761D01*
X30215968Y38127027D01*
X30331306Y38360910D01*
X30410807Y38609272D01*
X30434209Y38752961D01*
X30452136Y38863039D01*
X30452136Y38863040D01*
X30452725Y38866656D01*
X30454175Y38977398D01*
X30456090Y39123746D01*
X30456138Y39127410D01*
X30449395Y39176961D01*
X30438613Y39256177D01*
X31244391Y39256177D01*
X31245306Y39249180D01*
X31245306Y39249179D01*
X31246814Y39237646D01*
X31262980Y39114021D01*
X31265821Y39107565D01*
X31265821Y39107564D01*
X31273586Y39089918D01*
X31320720Y38982797D01*
X31333792Y38967246D01*
X31408431Y38878451D01*
X31408434Y38878449D01*
X31412970Y38873052D01*
X31418841Y38869144D01*
X31418842Y38869143D01*
X31436689Y38857263D01*
X31532313Y38793610D01*
X31632920Y38762179D01*
X31662425Y38752961D01*
X31662426Y38752961D01*
X31669157Y38750858D01*
X31740828Y38749544D01*
X31805445Y38748359D01*
X31805447Y38748359D01*
X31812499Y38748230D01*
X31819302Y38750085D01*
X31819304Y38750085D01*
X31894503Y38770587D01*
X31950817Y38785940D01*
X32072991Y38860955D01*
X32080403Y38869143D01*
X32164468Y38962018D01*
X32169200Y38967246D01*
X32231710Y39096267D01*
X32235875Y39121018D01*
X32254862Y39233876D01*
X32254862Y39233880D01*
X32255496Y39237646D01*
X32255647Y39250000D01*
X32235323Y39391918D01*
X32175984Y39522428D01*
X32082400Y39631037D01*
X31962095Y39709015D01*
X31824739Y39750093D01*
X31741497Y39750602D01*
X31688427Y39750926D01*
X31688426Y39750926D01*
X31681376Y39750969D01*
X31674599Y39749032D01*
X31674598Y39749032D01*
X31550309Y39713510D01*
X31550307Y39713509D01*
X31543529Y39711572D01*
X31422280Y39635070D01*
X31417613Y39629786D01*
X31417611Y39629784D01*
X31332044Y39532897D01*
X31332042Y39532895D01*
X31327377Y39527612D01*
X31266447Y39397837D01*
X31265362Y39390868D01*
X31265361Y39390865D01*
X31250680Y39296570D01*
X31244391Y39256177D01*
X30438613Y39256177D01*
X30437664Y39263151D01*
X30420972Y39385804D01*
X30348000Y39636162D01*
X30322902Y39690604D01*
X30240361Y39869649D01*
X30240358Y39869655D01*
X30238823Y39872984D01*
X30095842Y40091067D01*
X30073423Y40116186D01*
X29924639Y40282884D01*
X29924638Y40282885D01*
X29922196Y40285621D01*
X29721700Y40452371D01*
X29633031Y40506177D01*
X33994391Y40506177D01*
X33995306Y40499180D01*
X33995306Y40499179D01*
X34002081Y40447371D01*
X34012980Y40364021D01*
X34015821Y40357565D01*
X34015821Y40357564D01*
X34063512Y40249179D01*
X34070720Y40232797D01*
X34083792Y40217246D01*
X34158431Y40128451D01*
X34158434Y40128449D01*
X34162970Y40123052D01*
X34168841Y40119144D01*
X34168842Y40119143D01*
X34176537Y40114021D01*
X34282313Y40043610D01*
X34382920Y40012179D01*
X34412425Y40002961D01*
X34412426Y40002961D01*
X34419157Y40000858D01*
X34490828Y39999544D01*
X34555445Y39998359D01*
X34555447Y39998359D01*
X34562499Y39998230D01*
X34569302Y40000085D01*
X34569304Y40000085D01*
X34644503Y40020587D01*
X34700817Y40035940D01*
X34822991Y40110955D01*
X34830403Y40119143D01*
X34914468Y40212018D01*
X34919200Y40217246D01*
X34981710Y40346267D01*
X34985875Y40371018D01*
X35004862Y40483876D01*
X35004862Y40483880D01*
X35005496Y40487646D01*
X35005647Y40500000D01*
X34985323Y40641918D01*
X34937064Y40748058D01*
X34928905Y40766004D01*
X34928904Y40766005D01*
X34925984Y40772428D01*
X34832400Y40881037D01*
X34712095Y40959015D01*
X34574739Y41000093D01*
X34491497Y41000602D01*
X34438427Y41000926D01*
X34438426Y41000926D01*
X34431376Y41000969D01*
X34424599Y40999032D01*
X34424598Y40999032D01*
X34300309Y40963510D01*
X34300307Y40963509D01*
X34293529Y40961572D01*
X34172280Y40885070D01*
X34167613Y40879786D01*
X34167611Y40879784D01*
X34082044Y40782897D01*
X34082042Y40782895D01*
X34077377Y40777612D01*
X34074381Y40771230D01*
X34074380Y40771229D01*
X34063507Y40748071D01*
X34016447Y40647837D01*
X34015362Y40640868D01*
X34015361Y40640865D01*
X34009677Y40604357D01*
X33994391Y40506177D01*
X29633031Y40506177D01*
X29498760Y40587655D01*
X29258272Y40688500D01*
X29222669Y40697542D01*
X29009081Y40751786D01*
X29009076Y40751787D01*
X29005520Y40752690D01*
X28788928Y40774500D01*
X28633794Y40774500D01*
X28546780Y40768034D01*
X28443595Y40760366D01*
X28443589Y40760365D01*
X28439941Y40760094D01*
X28185595Y40702542D01*
X28182178Y40701213D01*
X28182174Y40701212D01*
X28012091Y40635070D01*
X27942550Y40608027D01*
X27716145Y40478625D01*
X27511353Y40317180D01*
X27508839Y40314507D01*
X27508833Y40314502D01*
X27432988Y40233876D01*
X27332674Y40127239D01*
X27184032Y39912973D01*
X27068694Y39679090D01*
X26989193Y39430728D01*
X26988604Y39427113D01*
X26988604Y39427112D01*
X26981285Y39382172D01*
X26947275Y39173344D01*
X26947227Y39169681D01*
X26947227Y39169680D01*
X26946414Y39107564D01*
X26943862Y38912590D01*
X16548392Y38912590D01*
X16551138Y39122410D01*
X16549964Y39131042D01*
X16516466Y39377172D01*
X16515972Y39380804D01*
X16443000Y39631162D01*
X16417902Y39685604D01*
X16335361Y39864649D01*
X16335358Y39864655D01*
X16333823Y39867984D01*
X16190842Y40086067D01*
X16186380Y40091067D01*
X16039013Y40256177D01*
X20244391Y40256177D01*
X20245306Y40249180D01*
X20245306Y40249179D01*
X20246604Y40239253D01*
X20262980Y40114021D01*
X20265821Y40107565D01*
X20265821Y40107564D01*
X20313873Y39998359D01*
X20320720Y39982797D01*
X20333792Y39967246D01*
X20408431Y39878451D01*
X20408434Y39878449D01*
X20412970Y39873052D01*
X20418841Y39869144D01*
X20418842Y39869143D01*
X20431143Y39860955D01*
X20532313Y39793610D01*
X20632920Y39762179D01*
X20662425Y39752961D01*
X20662426Y39752961D01*
X20669157Y39750858D01*
X20740828Y39749544D01*
X20805445Y39748359D01*
X20805447Y39748359D01*
X20812499Y39748230D01*
X20819302Y39750085D01*
X20819304Y39750085D01*
X20894503Y39770587D01*
X20950817Y39785940D01*
X21072991Y39860955D01*
X21080403Y39869143D01*
X21164468Y39962018D01*
X21169200Y39967246D01*
X21231710Y40096267D01*
X21234182Y40110955D01*
X21254862Y40233876D01*
X21254862Y40233880D01*
X21255496Y40237646D01*
X21255647Y40250000D01*
X21254762Y40256177D01*
X24994391Y40256177D01*
X24995306Y40249180D01*
X24995306Y40249179D01*
X24996604Y40239253D01*
X25012980Y40114021D01*
X25015821Y40107565D01*
X25015821Y40107564D01*
X25063873Y39998359D01*
X25070720Y39982797D01*
X25083792Y39967246D01*
X25158431Y39878451D01*
X25158434Y39878449D01*
X25162970Y39873052D01*
X25168841Y39869144D01*
X25168842Y39869143D01*
X25181143Y39860955D01*
X25282313Y39793610D01*
X25382920Y39762179D01*
X25412425Y39752961D01*
X25412426Y39752961D01*
X25419157Y39750858D01*
X25490828Y39749544D01*
X25555445Y39748359D01*
X25555447Y39748359D01*
X25562499Y39748230D01*
X25569302Y39750085D01*
X25569304Y39750085D01*
X25644503Y39770587D01*
X25700817Y39785940D01*
X25822991Y39860955D01*
X25830403Y39869143D01*
X25914468Y39962018D01*
X25919200Y39967246D01*
X25981710Y40096267D01*
X25984182Y40110955D01*
X26004862Y40233876D01*
X26004862Y40233880D01*
X26005496Y40237646D01*
X26005647Y40250000D01*
X25985323Y40391918D01*
X25945072Y40480447D01*
X25928905Y40516004D01*
X25928904Y40516005D01*
X25925984Y40522428D01*
X25865582Y40592528D01*
X25837005Y40625693D01*
X25837004Y40625694D01*
X25832400Y40631037D01*
X25712095Y40709015D01*
X25574739Y40750093D01*
X25491497Y40750602D01*
X25438427Y40750926D01*
X25438426Y40750926D01*
X25431376Y40750969D01*
X25424599Y40749032D01*
X25424598Y40749032D01*
X25300309Y40713510D01*
X25300307Y40713509D01*
X25293529Y40711572D01*
X25172280Y40635070D01*
X25167613Y40629786D01*
X25167611Y40629784D01*
X25082044Y40532897D01*
X25082042Y40532895D01*
X25077377Y40527612D01*
X25074381Y40521230D01*
X25074380Y40521229D01*
X25062617Y40496174D01*
X25016447Y40397837D01*
X25015362Y40390868D01*
X25015361Y40390865D01*
X25000680Y40296570D01*
X24994391Y40256177D01*
X21254762Y40256177D01*
X21235323Y40391918D01*
X21195072Y40480447D01*
X21178905Y40516004D01*
X21178904Y40516005D01*
X21175984Y40522428D01*
X21115582Y40592528D01*
X21087005Y40625693D01*
X21087004Y40625694D01*
X21082400Y40631037D01*
X20962095Y40709015D01*
X20824739Y40750093D01*
X20741497Y40750602D01*
X20688427Y40750926D01*
X20688426Y40750926D01*
X20681376Y40750969D01*
X20674599Y40749032D01*
X20674598Y40749032D01*
X20550309Y40713510D01*
X20550307Y40713509D01*
X20543529Y40711572D01*
X20422280Y40635070D01*
X20417613Y40629786D01*
X20417611Y40629784D01*
X20332044Y40532897D01*
X20332042Y40532895D01*
X20327377Y40527612D01*
X20324381Y40521230D01*
X20324380Y40521229D01*
X20312617Y40496174D01*
X20266447Y40397837D01*
X20265362Y40390868D01*
X20265361Y40390865D01*
X20250680Y40296570D01*
X20244391Y40256177D01*
X16039013Y40256177D01*
X16019639Y40277884D01*
X16019638Y40277885D01*
X16017196Y40280621D01*
X15973239Y40317180D01*
X15819528Y40445019D01*
X15816700Y40447371D01*
X15593760Y40582655D01*
X15353272Y40683500D01*
X15349709Y40684405D01*
X15104081Y40746786D01*
X15104076Y40746787D01*
X15100520Y40747690D01*
X14883928Y40769500D01*
X14728794Y40769500D01*
X14641780Y40763034D01*
X14538595Y40755366D01*
X14538589Y40755365D01*
X14534941Y40755094D01*
X14280595Y40697542D01*
X14277178Y40696213D01*
X14277174Y40696212D01*
X14050407Y40608027D01*
X14037550Y40603027D01*
X13811145Y40473625D01*
X13606353Y40312180D01*
X13603839Y40309507D01*
X13603833Y40309502D01*
X13517048Y40217246D01*
X13427674Y40122239D01*
X13279032Y39907973D01*
X13163694Y39674090D01*
X13084193Y39425728D01*
X13083604Y39422113D01*
X13083604Y39422112D01*
X13054184Y39241467D01*
X13042275Y39168344D01*
X13038862Y38907590D01*
X1473275Y38907590D01*
X4088932Y41523247D01*
X4090756Y41524829D01*
X4092990Y41526010D01*
X4097614Y41530776D01*
X4099538Y41532445D01*
X4104649Y41536278D01*
X4104689Y41536225D01*
X4117515Y41546353D01*
X4145249Y41562837D01*
X4164523Y41571653D01*
X4215392Y41588609D01*
X4236101Y41593120D01*
X4268176Y41596573D01*
X4284515Y41596166D01*
X4284515Y41596233D01*
X4292304Y41596233D01*
X4300001Y41595014D01*
X4323786Y41598781D01*
X4339272Y41600000D01*
X37660728Y41600000D01*
X37676214Y41598781D01*
G37*
G04 #@! TD.AperFunction*
G04 #@! TA.AperFunction,Conductor*
G36*
X26973138Y35582407D02*
G01*
X26998858Y35537858D01*
X27000000Y35524800D01*
X27000000Y33100000D01*
X30624800Y33100000D01*
X30673138Y33082407D01*
X30698858Y33037858D01*
X30700000Y33024800D01*
X30700000Y29375200D01*
X30682407Y29326862D01*
X30637858Y29301142D01*
X30624800Y29300000D01*
X22175200Y29300000D01*
X22126862Y29317593D01*
X22101142Y29362142D01*
X22100000Y29375200D01*
X22100000Y35524800D01*
X22117593Y35573138D01*
X22162142Y35598858D01*
X22175200Y35600000D01*
X26924800Y35600000D01*
X26973138Y35582407D01*
G37*
G04 #@! TD.AperFunction*
M02*
