M48
; DRILL file {KiCad 5.99.0-unknown-eb819a3b25~139~ubuntu20.04.1} date Sun 10 Oct 2021 12:59:37 PM PDT
; FORMAT={-:-/ absolute / metric / decimal}
; #@! TF.CreationDate,2021-10-10T12:59:37-07:00
; #@! TF.GenerationSoftware,Kicad,Pcbnew,5.99.0-unknown-eb819a3b25~139~ubuntu20.04.1
; #@! TF.FileFunction,Plated,1,4,PTH
FMAT,2
METRIC
; #@! TA.AperFunction,Plated,PTH,ViaDrill
T1C0.300
; #@! TA.AperFunction,Plated,PTH,ViaDrill
T2C0.400
; #@! TA.AperFunction,Plated,PTH,ViaDrill
T3C0.500
; #@! TA.AperFunction,Plated,PTH,ComponentDrill
T4C0.500
; #@! TA.AperFunction,Plated,PTH,ComponentDrill
T5C0.600
; #@! TA.AperFunction,Plated,PTH,ComponentDrill
T6C0.650
; #@! TA.AperFunction,Plated,PTH,ComponentDrill
T7C0.950
; #@! TA.AperFunction,Plated,PTH,ComponentDrill
T8C1.020
; #@! TA.AperFunction,Plated,PTH,ComponentDrill
T9C3.200
%
G90
G05
T1
X1.25Y35.25
X1.5Y15.0
X1.5Y10.2
X1.8Y17.8
X1.9Y19.4
X2.5Y8.5
X2.7Y22.4
X3.26Y21.937
X4.004Y28.996
X4.28Y24.905
X4.3Y25.9
X4.378Y17.132
X4.7Y27.3
X4.767Y20.899
X5.0Y1.5
X5.3Y18.55
X5.6Y24.1
X5.8Y31.8
X6.1Y16.6
X6.483Y21.313
X6.5Y13.0
X6.6Y11.508
X6.8Y22.6
X6.9Y16.8
X6.9Y15.6
X7.25Y1.5
X7.4Y27.1
X7.95Y19.75
X8.5Y40.25
X8.7Y32.1
X8.877Y13.391
X8.963Y14.315
X9.45Y18.272
X9.5Y33.25
X9.5Y32.5
X9.6Y15.2
X9.6Y8.1
X9.75Y26.75
X10.447Y18.898
X10.489Y20.057
X10.51Y18.097
X10.658Y11.57
X10.937Y29.763
X11.0Y23.7
X11.448Y17.239
X11.5Y30.5
X12.0Y40.25
X12.014Y31.014
X12.053Y23.479
X12.1Y11.6
X12.45Y28.1
X12.5Y25.0
X13.1Y6.2
X13.303Y13.788
X14.4Y25.1
X14.487Y23.307
X14.9Y11.3
X15.0Y13.2
X15.016Y16.689
X15.123Y15.46
X15.877Y15.442
X16.133Y16.499
X16.141Y17.412
X16.2Y9.0
X16.3Y13.9
X16.4Y24.35
X17.027Y14.515
X17.184Y19.628
X17.219Y18.589
X17.226Y17.816
X17.8Y27.9
X18.4Y8.7
X18.6Y21.863
X18.6Y21.136
X19.0Y17.5
X19.3Y11.4
X19.307Y26.392
X19.75Y13.25
X20.1Y21.001
X20.25Y8.5
X20.75Y40.25
X20.845Y18.141
X21.0Y24.45
X21.75Y20.25
X22.0Y12.75
X22.05Y26.7
X22.25Y11.25
X22.645Y14.79
X22.8Y15.5
X22.941Y16.285
X23.0Y17.8
X23.55Y9.25
X23.814Y23.814
X24.089Y16.398
X24.7Y13.3
X25.0Y31.25
X25.0Y30.5
X25.25Y22.5
X25.5Y40.25
X25.748Y13.494
X26.0Y31.25
X26.0Y30.5
X26.75Y2.35
X27.4Y9.9
X27.6Y23.0
X27.642Y12.751
X27.75Y25.0
X31.75Y39.25
X32.2Y3.3
X32.25Y27.25
X33.0Y1.5
X34.0Y30.8
X34.1Y28.2
X34.265Y23.257
X34.5Y40.5
X35.297Y23.56
X35.35Y10.75
X35.35Y10.1
X35.45Y22.6
X35.45Y21.95
X36.05Y10.8
X36.05Y10.15
X36.1Y22.55
X36.1Y21.9
X36.5Y26.0
X37.691Y23.288
X38.706Y23.454
X39.0Y32.0
X40.75Y34.75
T2
X13.8Y20.0
X23.75Y28.645
X24.7Y28.635
X25.58Y28.645
X27.2Y17.6
X27.2Y16.4
X27.2Y15.2
X28.4Y17.6
X28.4Y16.4
X28.4Y15.1
X29.2Y21.3
X29.2Y20.3
X29.2Y12.4
X29.2Y11.3
X29.5Y17.6
X29.5Y16.4
X29.5Y15.1
X30.2Y21.3
X30.2Y20.3
X30.2Y12.4
X30.2Y11.3
T3
X15.909Y10.288
X24.3Y21.6
X31.3Y23.5
X31.3Y22.5
X31.3Y10.3
X31.3Y9.2
X32.4Y23.5
X32.4Y22.5
X32.4Y10.3
X32.4Y9.2
T4
X3.1Y36.5
X3.1Y5.5
X3.803Y38.197
X3.803Y34.803
X3.803Y7.197
X3.803Y3.803
X5.5Y38.9
X5.5Y34.1
X5.5Y7.9
X5.5Y3.1
X7.197Y38.197
X7.197Y34.803
X7.197Y7.197
X7.197Y3.803
X7.9Y36.5
X7.9Y5.5
X34.1Y36.5
X34.1Y5.5
X34.803Y38.197
X34.803Y34.803
X34.803Y7.197
X34.803Y3.803
X36.5Y38.9
X36.5Y34.1
X36.5Y7.9
X36.5Y3.1
X38.197Y38.197
X38.197Y34.803
X38.197Y7.197
X38.197Y3.803
X38.9Y36.5
X38.9Y5.5
T5
X2.87Y17.1
X2.87Y15.85
X2.87Y14.6
X2.87Y13.35
X2.87Y12.1
X2.87Y10.85
X11.35Y4.475
X11.35Y3.225
X15.65Y4.475
X15.65Y3.225
X19.95Y4.475
X19.95Y3.225
X24.25Y4.475
X24.25Y3.225
X28.55Y4.475
X28.55Y3.225
T6
X1.98Y27.39
X1.98Y26.12
X1.98Y24.85
X3.25Y27.39
X3.25Y26.12
X3.25Y24.85
T7
X38.038Y20.024
X38.038Y17.524
X38.038Y15.024
X38.038Y12.524
T8
X13.295Y34.695
X13.295Y31.695
X16.295Y34.695
X16.295Y31.695
X28.7Y34.7
X28.7Y31.7
T9
X5.5Y36.5
X5.5Y5.5
X36.5Y36.5
X36.5Y5.5
T0
M30
