G04 #@! TF.GenerationSoftware,KiCad,Pcbnew,5.99.0-unknown-e8102d85dc~128~ubuntu20.04.1*
G04 #@! TF.CreationDate,2021-05-23T19:45:16-07:00*
G04 #@! TF.ProjectId,Huvud,48757675-642e-46b6-9963-61645f706362,rev?*
G04 #@! TF.SameCoordinates,PXad91980PY876bf80*
G04 #@! TF.FileFunction,Legend,Top*
G04 #@! TF.FilePolarity,Positive*
%FSLAX46Y46*%
G04 Gerber Fmt 4.6, Leading zero omitted, Abs format (unit mm)*
G04 Created by KiCad (PCBNEW 5.99.0-unknown-e8102d85dc~128~ubuntu20.04.1) date 2021-05-23 19:45:16*
%MOMM*%
%LPD*%
G01*
G04 APERTURE LIST*
G04 Aperture macros list*
%AMRoundRect*
0 Rectangle with rounded corners*
0 $1 Rounding radius*
0 $2 $3 $4 $5 $6 $7 $8 $9 X,Y pos of 4 corners*
0 Add a 4 corners polygon primitive as box body*
4,1,4,$2,$3,$4,$5,$6,$7,$8,$9,$2,$3,0*
0 Add four circle primitives for the rounded corners*
1,1,$1+$1,$2,$3*
1,1,$1+$1,$4,$5*
1,1,$1+$1,$6,$7*
1,1,$1+$1,$8,$9*
0 Add four rect primitives between the rounded corners*
20,1,$1+$1,$2,$3,$4,$5,0*
20,1,$1+$1,$4,$5,$6,$7,0*
20,1,$1+$1,$6,$7,$8,$9,0*
20,1,$1+$1,$8,$9,$2,$3,0*%
G04 Aperture macros list end*
%ADD10C,0.300000*%
%ADD11C,0.150000*%
%ADD12C,0.200000*%
%ADD13C,0.120000*%
%ADD14C,0.100000*%
%ADD15C,0.152400*%
%ADD16RoundRect,0.147500X0.172500X-0.147500X0.172500X0.147500X-0.172500X0.147500X-0.172500X-0.147500X0*%
%ADD17RoundRect,0.147500X-0.172500X0.147500X-0.172500X-0.147500X0.172500X-0.147500X0.172500X0.147500X0*%
%ADD18R,2.400000X2.000000*%
%ADD19RoundRect,0.147500X-0.147500X-0.172500X0.147500X-0.172500X0.147500X0.172500X-0.147500X0.172500X0*%
%ADD20RoundRect,0.147500X0.147500X0.172500X-0.147500X0.172500X-0.147500X-0.172500X0.147500X-0.172500X0*%
%ADD21RoundRect,0.075000X-0.662500X-0.075000X0.662500X-0.075000X0.662500X0.075000X-0.662500X0.075000X0*%
%ADD22RoundRect,0.075000X-0.075000X-0.662500X0.075000X-0.662500X0.075000X0.662500X-0.075000X0.662500X0*%
%ADD23RoundRect,0.243750X0.243750X0.456250X-0.243750X0.456250X-0.243750X-0.456250X0.243750X-0.456250X0*%
%ADD24RoundRect,0.250000X0.625000X-0.350000X0.625000X0.350000X-0.625000X0.350000X-0.625000X-0.350000X0*%
%ADD25O,1.750000X1.200000*%
%ADD26R,0.900000X0.800000*%
%ADD27C,0.800000*%
%ADD28C,6.400000*%
%ADD29RoundRect,0.218750X0.218750X0.256250X-0.218750X0.256250X-0.218750X-0.256250X0.218750X-0.256250X0*%
%ADD30RoundRect,0.218750X-0.218750X-0.256250X0.218750X-0.256250X0.218750X0.256250X-0.218750X0.256250X0*%
%ADD31RoundRect,0.243750X-0.456250X0.243750X-0.456250X-0.243750X0.456250X-0.243750X0.456250X0.243750X0*%
%ADD32RoundRect,0.243750X0.456250X-0.243750X0.456250X0.243750X-0.456250X0.243750X-0.456250X-0.243750X0*%
%ADD33C,0.500000*%
%ADD34R,0.400000X1.350000*%
%ADD35R,1.800000X1.900000*%
%ADD36R,1.900000X1.900000*%
%ADD37R,1.700000X1.700000*%
%ADD38O,1.700000X1.700000*%
%ADD39R,0.250000X0.800000*%
%ADD40R,0.800000X0.250000*%
%ADD41R,3.700000X3.700000*%
%ADD42R,0.800000X0.900000*%
%ADD43RoundRect,0.075000X-0.325000X-0.075000X0.325000X-0.075000X0.325000X0.075000X-0.325000X0.075000X0*%
%ADD44R,1.700000X2.050000*%
%ADD45RoundRect,0.250000X-0.375000X-1.075000X0.375000X-1.075000X0.375000X1.075000X-0.375000X1.075000X0*%
%ADD46RoundRect,0.218750X0.256250X-0.218750X0.256250X0.218750X-0.256250X0.218750X-0.256250X-0.218750X0*%
%ADD47R,2.100000X2.100000*%
%ADD48C,2.100000*%
%ADD49RoundRect,0.250000X1.500000X0.550000X-1.500000X0.550000X-1.500000X-0.550000X1.500000X-0.550000X0*%
%ADD50RoundRect,0.250000X0.725000X-0.600000X0.725000X0.600000X-0.725000X0.600000X-0.725000X-0.600000X0*%
%ADD51O,1.950000X1.700000*%
%ADD52RoundRect,0.150000X-0.325000X-0.150000X0.325000X-0.150000X0.325000X0.150000X-0.325000X0.150000X0*%
%ADD53RoundRect,0.150000X-0.150000X-0.325000X0.150000X-0.325000X0.150000X0.325000X-0.150000X0.325000X0*%
G04 APERTURE END LIST*
D10*
X10850000Y22200000D02*
G75*
G03*
X10850000Y22200000I-150000J0D01*
G01*
X30800000Y19600000D02*
G75*
G03*
X30800000Y19600000I-150000J0D01*
G01*
X23900000Y11750000D02*
G75*
G03*
X23900000Y11750000I-150000J0D01*
G01*
X5550000Y14300000D02*
G75*
G03*
X5550000Y14300000I-150000J0D01*
G01*
D11*
X27061904Y1961905D02*
X26261904Y1961905D01*
X26642857Y1961905D02*
X26642857Y2419048D01*
X27061904Y2419048D02*
X26261904Y2419048D01*
X26642857Y2800000D02*
X26642857Y3066667D01*
X27061904Y3180953D02*
X27061904Y2800000D01*
X26261904Y2800000D01*
X26261904Y3180953D01*
X26833333Y3485715D02*
X26833333Y3866667D01*
X27061904Y3409524D02*
X26261904Y3676191D01*
X27061904Y3942858D01*
X26261904Y4095239D02*
X26261904Y4552381D01*
X27061904Y4323810D02*
X26261904Y4323810D01*
X20757142Y304762D02*
X20757142Y914286D01*
X21061904Y609524D02*
X20452380Y609524D01*
X20642857Y2171429D02*
X20642857Y1904762D01*
X21061904Y1904762D02*
X20261904Y1904762D01*
X20261904Y2285715D01*
X20833333Y2552381D02*
X20833333Y2933334D01*
X21061904Y2476191D02*
X20261904Y2742858D01*
X21061904Y3009524D01*
X21061904Y3276191D02*
X20261904Y3276191D01*
X21061904Y3733334D01*
X20261904Y3733334D01*
X20261904Y4266667D02*
X20261904Y4342858D01*
X20300000Y4419048D01*
X20338095Y4457143D01*
X20414285Y4495239D01*
X20566666Y4533334D01*
X20757142Y4533334D01*
X20909523Y4495239D01*
X20985714Y4457143D01*
X21023809Y4419048D01*
X21061904Y4342858D01*
X21061904Y4266667D01*
X21023809Y4190477D01*
X20985714Y4152381D01*
X20909523Y4114286D01*
X20757142Y4076191D01*
X20566666Y4076191D01*
X20414285Y4114286D01*
X20338095Y4152381D01*
X20300000Y4190477D01*
X20261904Y4266667D01*
X20757142Y5485715D02*
X20757142Y6095239D01*
X37919452Y22919239D02*
X38062309Y22871620D01*
X38300404Y22871620D01*
X38395642Y22919239D01*
X38443261Y22966858D01*
X38490880Y23062096D01*
X38490880Y23157334D01*
X38443261Y23252572D01*
X38395642Y23300191D01*
X38300404Y23347810D01*
X38109928Y23395429D01*
X38014690Y23443048D01*
X37967071Y23490667D01*
X37919452Y23585905D01*
X37919452Y23681143D01*
X37967071Y23776381D01*
X38014690Y23824000D01*
X38109928Y23871620D01*
X38348023Y23871620D01*
X38490880Y23824000D01*
X38776595Y23871620D02*
X39348023Y23871620D01*
X39062309Y22871620D02*
X39062309Y23871620D01*
X39681357Y23395429D02*
X40014690Y23395429D01*
X40157547Y22871620D02*
X39681357Y22871620D01*
X39681357Y23871620D01*
X40157547Y23871620D01*
X40586119Y22871620D02*
X40586119Y23871620D01*
X40967071Y23871620D01*
X41062309Y23824000D01*
X41109928Y23776381D01*
X41157547Y23681143D01*
X41157547Y23538286D01*
X41109928Y23443048D01*
X41062309Y23395429D01*
X40967071Y23347810D01*
X40586119Y23347810D01*
D12*
X35666666Y30464286D02*
X35904761Y29797620D01*
X36142857Y30464286D01*
X36714285Y30797620D02*
X36809523Y30797620D01*
X36904761Y30750000D01*
X36952380Y30702381D01*
X37000000Y30607143D01*
X37047619Y30416667D01*
X37047619Y30178572D01*
X37000000Y29988096D01*
X36952380Y29892858D01*
X36904761Y29845239D01*
X36809523Y29797620D01*
X36714285Y29797620D01*
X36619047Y29845239D01*
X36571428Y29892858D01*
X36523809Y29988096D01*
X36476190Y30178572D01*
X36476190Y30416667D01*
X36523809Y30607143D01*
X36571428Y30702381D01*
X36619047Y30750000D01*
X36714285Y30797620D01*
X37476190Y29892858D02*
X37523809Y29845239D01*
X37476190Y29797620D01*
X37428571Y29845239D01*
X37476190Y29892858D01*
X37476190Y29797620D01*
X38380952Y30797620D02*
X38190476Y30797620D01*
X38095238Y30750000D01*
X38047619Y30702381D01*
X37952380Y30559524D01*
X37904761Y30369048D01*
X37904761Y29988096D01*
X37952380Y29892858D01*
X38000000Y29845239D01*
X38095238Y29797620D01*
X38285714Y29797620D01*
X38380952Y29845239D01*
X38428571Y29892858D01*
X38476190Y29988096D01*
X38476190Y30226191D01*
X38428571Y30321429D01*
X38380952Y30369048D01*
X38285714Y30416667D01*
X38095238Y30416667D01*
X38000000Y30369048D01*
X37952380Y30321429D01*
X37904761Y30226191D01*
X38857142Y29845239D02*
X38952380Y29797620D01*
X39142857Y29797620D01*
X39238095Y29845239D01*
X39285714Y29940477D01*
X39285714Y29988096D01*
X39238095Y30083334D01*
X39142857Y30130953D01*
X39000000Y30130953D01*
X38904761Y30178572D01*
X38857142Y30273810D01*
X38857142Y30321429D01*
X38904761Y30416667D01*
X39000000Y30464286D01*
X39142857Y30464286D01*
X39238095Y30416667D01*
D11*
X32311904Y34873810D02*
X33111904Y35140477D01*
X32311904Y35407143D01*
X33111904Y35673810D02*
X32311904Y35673810D01*
X33111904Y36054762D02*
X32311904Y36054762D01*
X33111904Y36511905D01*
X32311904Y36511905D01*
X24350000Y35390477D02*
X24311904Y35314286D01*
X24311904Y35200000D01*
X24350000Y35085715D01*
X24426190Y35009524D01*
X24502380Y34971429D01*
X24654761Y34933334D01*
X24769047Y34933334D01*
X24921428Y34971429D01*
X24997619Y35009524D01*
X25073809Y35085715D01*
X25111904Y35200000D01*
X25111904Y35276191D01*
X25073809Y35390477D01*
X25035714Y35428572D01*
X24769047Y35428572D01*
X24769047Y35276191D01*
X25111904Y35771429D02*
X24311904Y35771429D01*
X25111904Y36228572D01*
X24311904Y36228572D01*
X25111904Y36609524D02*
X24311904Y36609524D01*
X24311904Y36800000D01*
X24350000Y36914286D01*
X24426190Y36990477D01*
X24502380Y37028572D01*
X24654761Y37066667D01*
X24769047Y37066667D01*
X24921428Y37028572D01*
X24997619Y36990477D01*
X25073809Y36914286D01*
X25111904Y36800000D01*
X25111904Y36609524D01*
X20873809Y40688096D02*
X21140476Y39888096D01*
X21407142Y40688096D01*
X21673809Y39888096D02*
X21673809Y40688096D01*
X22054761Y39888096D02*
X22054761Y40688096D01*
X22511904Y39888096D01*
X22511904Y40688096D01*
X1178571Y4785715D02*
X1178571Y5119048D01*
X1702380Y5261905D02*
X1702380Y4785715D01*
X702380Y4785715D01*
X702380Y5261905D01*
X1702380Y5690477D02*
X702380Y5690477D01*
X1702380Y6261905D01*
X702380Y6261905D01*
X1702380Y6738096D02*
X702380Y6738096D01*
X702380Y6976191D01*
X750000Y7119048D01*
X845238Y7214286D01*
X940476Y7261905D01*
X1130952Y7309524D01*
X1273809Y7309524D01*
X1464285Y7261905D01*
X1559523Y7214286D01*
X1654761Y7119048D01*
X1702380Y6976191D01*
X1702380Y6738096D01*
X1654761Y7690477D02*
X1702380Y7833334D01*
X1702380Y8071429D01*
X1654761Y8166667D01*
X1607142Y8214286D01*
X1511904Y8261905D01*
X1416666Y8261905D01*
X1321428Y8214286D01*
X1273809Y8166667D01*
X1226190Y8071429D01*
X1178571Y7880953D01*
X1130952Y7785715D01*
X1083333Y7738096D01*
X988095Y7690477D01*
X892857Y7690477D01*
X797619Y7738096D01*
X750000Y7785715D01*
X702380Y7880953D01*
X702380Y8119048D01*
X750000Y8261905D01*
X14457142Y304762D02*
X14457142Y914286D01*
X14761904Y609524D02*
X14152380Y609524D01*
X14342857Y2171429D02*
X14342857Y1904762D01*
X14761904Y1904762D02*
X13961904Y1904762D01*
X13961904Y2285715D01*
X14533333Y2552381D02*
X14533333Y2933334D01*
X14761904Y2476191D02*
X13961904Y2742858D01*
X14761904Y3009524D01*
X14761904Y3276191D02*
X13961904Y3276191D01*
X14761904Y3733334D01*
X13961904Y3733334D01*
X14761904Y4533334D02*
X14761904Y4076191D01*
X14761904Y4304762D02*
X13961904Y4304762D01*
X14076190Y4228572D01*
X14152380Y4152381D01*
X14190476Y4076191D01*
X14457142Y5485715D02*
X14457142Y6095239D01*
X26319047Y928572D02*
X27080952Y928572D01*
X7502380Y890477D02*
X7502380Y1461905D01*
X8502380Y1176191D02*
X7502380Y1176191D01*
X8502380Y1795239D02*
X7502380Y1795239D01*
X7978571Y1795239D02*
X7978571Y2366667D01*
X8502380Y2366667D02*
X7502380Y2366667D01*
D12*
X35738095Y31297620D02*
X35738095Y32297620D01*
X35738095Y31821429D02*
X36309523Y31821429D01*
X36309523Y31297620D02*
X36309523Y32297620D01*
X36785714Y32297620D02*
X36785714Y31488096D01*
X36833333Y31392858D01*
X36880952Y31345239D01*
X36976190Y31297620D01*
X37166666Y31297620D01*
X37261904Y31345239D01*
X37309523Y31392858D01*
X37357142Y31488096D01*
X37357142Y32297620D01*
X37690476Y32297620D02*
X38023809Y31297620D01*
X38357142Y32297620D01*
X38690476Y32297620D02*
X38690476Y31488096D01*
X38738095Y31392858D01*
X38785714Y31345239D01*
X38880952Y31297620D01*
X39071428Y31297620D01*
X39166666Y31345239D01*
X39214285Y31392858D01*
X39261904Y31488096D01*
X39261904Y32297620D01*
X39738095Y31297620D02*
X39738095Y32297620D01*
X39976190Y32297620D01*
X40119047Y32250000D01*
X40214285Y32154762D01*
X40261904Y32059524D01*
X40309523Y31869048D01*
X40309523Y31726191D01*
X40261904Y31535715D01*
X40214285Y31440477D01*
X40119047Y31345239D01*
X39976190Y31297620D01*
X39738095Y31297620D01*
D11*
X33119047Y1028572D02*
X33880952Y1028572D01*
X33500000Y647620D02*
X33500000Y1409524D01*
X30405580Y19347000D02*
X30643676Y19347000D01*
X30548438Y19108905D02*
X30643676Y19347000D01*
X30548438Y19585096D01*
X30834152Y19204143D02*
X30643676Y19347000D01*
X30834152Y19489858D01*
X28583333Y25792858D02*
X28535714Y25745239D01*
X28392857Y25697620D01*
X28297619Y25697620D01*
X28154761Y25745239D01*
X28059523Y25840477D01*
X28011904Y25935715D01*
X27964285Y26126191D01*
X27964285Y26269048D01*
X28011904Y26459524D01*
X28059523Y26554762D01*
X28154761Y26650000D01*
X28297619Y26697620D01*
X28392857Y26697620D01*
X28535714Y26650000D01*
X28583333Y26602381D01*
X29154761Y26269048D02*
X29059523Y26316667D01*
X29011904Y26364286D01*
X28964285Y26459524D01*
X28964285Y26507143D01*
X29011904Y26602381D01*
X29059523Y26650000D01*
X29154761Y26697620D01*
X29345238Y26697620D01*
X29440476Y26650000D01*
X29488095Y26602381D01*
X29535714Y26507143D01*
X29535714Y26459524D01*
X29488095Y26364286D01*
X29440476Y26316667D01*
X29345238Y26269048D01*
X29154761Y26269048D01*
X29059523Y26221429D01*
X29011904Y26173810D01*
X28964285Y26078572D01*
X28964285Y25888096D01*
X29011904Y25792858D01*
X29059523Y25745239D01*
X29154761Y25697620D01*
X29345238Y25697620D01*
X29440476Y25745239D01*
X29488095Y25792858D01*
X29535714Y25888096D01*
X29535714Y26078572D01*
X29488095Y26173810D01*
X29440476Y26221429D01*
X29345238Y26269048D01*
D13*
X10250000Y15650000D02*
X10250000Y21400000D01*
X6650000Y15650000D02*
X10250000Y15650000D01*
X6650000Y21400000D02*
X6650000Y15650000D01*
X12673600Y22576900D02*
X11383600Y22576900D01*
X13123600Y15806900D02*
X12673600Y15806900D01*
X19443600Y15806900D02*
X19893600Y15806900D01*
X13123600Y23026900D02*
X12673600Y23026900D01*
X19893600Y23026900D02*
X19893600Y22576900D01*
X19893600Y15806900D02*
X19893600Y16256900D01*
X12673600Y15806900D02*
X12673600Y16256900D01*
X12673600Y23026900D02*
X12673600Y22576900D01*
X19443600Y23026900D02*
X19893600Y23026900D01*
X13258578Y12590000D02*
X12741422Y12590000D01*
X13258578Y14010000D02*
X12741422Y14010000D01*
X3900000Y12400000D02*
X3900000Y12600000D01*
X290000Y11200000D02*
X90000Y11200000D01*
X4400000Y16400000D02*
X3900000Y16400000D01*
X3900000Y14400000D02*
X3900000Y14600000D01*
X4400000Y14500000D02*
X3900000Y14500000D01*
X2900000Y21560000D02*
X2900000Y20950000D01*
X1600000Y9440000D02*
X1600000Y10050000D01*
X900000Y10050000D02*
X4400000Y10050000D01*
X4400000Y16500000D02*
X3900000Y16500000D01*
X290000Y21560000D02*
X290000Y9440000D01*
X3900000Y18600000D02*
X4400000Y18600000D01*
X3900000Y16600000D02*
X4400000Y16600000D01*
X900000Y19000000D02*
X290000Y19000000D01*
X3900000Y18400000D02*
X3900000Y18600000D01*
X900000Y20950000D02*
X900000Y19000000D01*
X190000Y11200000D02*
X190000Y10900000D01*
X290000Y12000000D02*
X900000Y12000000D01*
X4400000Y18400000D02*
X3900000Y18400000D01*
X1600000Y21560000D02*
X1600000Y20950000D01*
X90000Y11200000D02*
X90000Y10900000D01*
X4400000Y12400000D02*
X3900000Y12400000D01*
X4400000Y10050000D02*
X4400000Y20950000D01*
X3900000Y16400000D02*
X3900000Y16600000D01*
X4400000Y20950000D02*
X900000Y20950000D01*
X-10000Y10390000D02*
X-10000Y9140000D01*
X290000Y9440000D02*
X5010000Y9440000D01*
X5010000Y21560000D02*
X290000Y21560000D01*
X3900000Y14600000D02*
X4400000Y14600000D01*
X3900000Y12600000D02*
X4400000Y12600000D01*
X4400000Y12500000D02*
X3900000Y12500000D01*
X-10000Y9140000D02*
X1240000Y9140000D01*
X4400000Y14400000D02*
X3900000Y14400000D01*
X900000Y12000000D02*
X900000Y10050000D01*
X4400000Y18500000D02*
X3900000Y18500000D01*
X2900000Y9440000D02*
X2900000Y10050000D01*
X90000Y10900000D02*
X290000Y10900000D01*
X5010000Y9440000D02*
X5010000Y21560000D01*
D14*
X21700000Y6830000D02*
G75*
G03*
X21700000Y6830000I-50000J0D01*
G01*
X27710000Y8000000D02*
G75*
G03*
X27710000Y8000000I-50000J0D01*
G01*
D13*
X20210000Y13880000D02*
X18050000Y13880000D01*
X20210000Y10720000D02*
X18750000Y10720000D01*
X20210000Y10720000D02*
X20210000Y11650000D01*
X20210000Y13880000D02*
X20210000Y12950000D01*
X26160000Y440000D02*
X26160000Y6560000D01*
X21240000Y2200000D02*
X21240000Y1900000D01*
X21440000Y6560000D02*
X21440000Y440000D01*
X22050000Y4000000D02*
X21440000Y4000000D01*
X22750000Y6560000D02*
X22750000Y5950000D01*
X25550000Y5950000D02*
X22050000Y5950000D01*
X22050000Y3000000D02*
X22050000Y1050000D01*
X22750000Y440000D02*
X22750000Y1050000D01*
X25550000Y3400000D02*
X25050000Y3400000D01*
X22050000Y1050000D02*
X25550000Y1050000D01*
X25550000Y1050000D02*
X25550000Y5950000D01*
X25050000Y3600000D02*
X25550000Y3600000D01*
X21440000Y440000D02*
X26160000Y440000D01*
X22050000Y5950000D02*
X22050000Y4000000D01*
X21340000Y2200000D02*
X21340000Y1900000D01*
X21440000Y2200000D02*
X21240000Y2200000D01*
X26160000Y6560000D02*
X21440000Y6560000D01*
X21440000Y3000000D02*
X22050000Y3000000D01*
X21140000Y1390000D02*
X21140000Y140000D01*
X21140000Y140000D02*
X22390000Y140000D01*
X24050000Y6560000D02*
X24050000Y5950000D01*
X25550000Y3500000D02*
X25050000Y3500000D01*
X25050000Y3400000D02*
X25050000Y3600000D01*
X24050000Y440000D02*
X24050000Y1050000D01*
X21240000Y1900000D02*
X21440000Y1900000D01*
X29562779Y22440000D02*
X29237221Y22440000D01*
X29562779Y23460000D02*
X29237221Y23460000D01*
X26437221Y20665000D02*
X26762779Y20665000D01*
X26437221Y21685000D02*
X26762779Y21685000D01*
X29412779Y9390000D02*
X29087221Y9390000D01*
X29412779Y10410000D02*
X29087221Y10410000D01*
X34760000Y21058578D02*
X34760000Y20541422D01*
X33340000Y21058578D02*
X33340000Y20541422D01*
X33340000Y11741422D02*
X33340000Y12258578D01*
X34760000Y11741422D02*
X34760000Y12258578D01*
X9650000Y3000000D02*
X9650000Y1050000D01*
X10350000Y440000D02*
X10350000Y1050000D01*
X8740000Y140000D02*
X9990000Y140000D01*
X8740000Y1390000D02*
X8740000Y140000D01*
X9650000Y5950000D02*
X9650000Y4000000D01*
X8840000Y1900000D02*
X9040000Y1900000D01*
X9040000Y6560000D02*
X9040000Y440000D01*
X9040000Y2200000D02*
X8840000Y2200000D01*
X9040000Y3000000D02*
X9650000Y3000000D01*
X11650000Y6560000D02*
X11650000Y5950000D01*
X13760000Y440000D02*
X13760000Y6560000D01*
X8940000Y2200000D02*
X8940000Y1900000D01*
X8840000Y2200000D02*
X8840000Y1900000D01*
X13150000Y5950000D02*
X9650000Y5950000D01*
X12650000Y3400000D02*
X12650000Y3600000D01*
X13760000Y6560000D02*
X9040000Y6560000D01*
X13150000Y1050000D02*
X13150000Y5950000D01*
X11650000Y440000D02*
X11650000Y1050000D01*
X9040000Y440000D02*
X13760000Y440000D01*
X12650000Y3600000D02*
X13150000Y3600000D01*
X13150000Y3500000D02*
X12650000Y3500000D01*
X10350000Y6560000D02*
X10350000Y5950000D01*
X9650000Y4000000D02*
X9040000Y4000000D01*
X9650000Y1050000D02*
X13150000Y1050000D01*
X13150000Y3400000D02*
X12650000Y3400000D01*
D14*
X17525400Y41330800D02*
X9525400Y41330800D01*
X9576222Y41307034D02*
G75*
G02*
X9825399Y40580801I-350822J-526234D01*
G01*
X17162184Y40680800D02*
G75*
G02*
X17525401Y41330799I763216J0D01*
G01*
D13*
X5718500Y27294000D02*
X3118500Y27294000D01*
X5718500Y26024000D02*
X5718500Y24694000D01*
X3118500Y24694000D02*
X518500Y24694000D01*
X5718500Y24694000D02*
X4388500Y24694000D01*
X5718500Y32434000D02*
X518500Y32434000D01*
X3118500Y27294000D02*
X3118500Y24694000D01*
X5718500Y27294000D02*
X5718500Y32434000D01*
X518500Y24694000D02*
X518500Y32434000D01*
D14*
X16350000Y6810000D02*
G75*
G03*
X16350000Y6810000I-50000J0D01*
G01*
D13*
X17850000Y440000D02*
X17850000Y1050000D01*
X14940000Y1390000D02*
X14940000Y140000D01*
X18850000Y3400000D02*
X18850000Y3600000D01*
X15850000Y4000000D02*
X15240000Y4000000D01*
X14940000Y140000D02*
X16190000Y140000D01*
X19350000Y3400000D02*
X18850000Y3400000D01*
X19960000Y440000D02*
X19960000Y6560000D01*
X19350000Y3500000D02*
X18850000Y3500000D01*
X15240000Y440000D02*
X19960000Y440000D01*
X19350000Y5950000D02*
X15850000Y5950000D01*
X16550000Y440000D02*
X16550000Y1050000D01*
X15850000Y5950000D02*
X15850000Y4000000D01*
X19960000Y6560000D02*
X15240000Y6560000D01*
X15040000Y2200000D02*
X15040000Y1900000D01*
X19350000Y1050000D02*
X19350000Y5950000D01*
X18850000Y3600000D02*
X19350000Y3600000D01*
X15240000Y2200000D02*
X15040000Y2200000D01*
X15850000Y1050000D02*
X19350000Y1050000D01*
X15240000Y3000000D02*
X15850000Y3000000D01*
X15140000Y2200000D02*
X15140000Y1900000D01*
X16550000Y6560000D02*
X16550000Y5950000D01*
X15040000Y1900000D02*
X15240000Y1900000D01*
X15240000Y6560000D02*
X15240000Y440000D01*
X15850000Y3000000D02*
X15850000Y1050000D01*
X17850000Y6560000D02*
X17850000Y5950000D01*
D15*
X30332940Y13746300D02*
X31016700Y13746300D01*
X25758900Y13746300D02*
X26442660Y13746300D01*
X31016700Y18320340D02*
X31016700Y19004100D01*
X26442660Y19004100D02*
X25758900Y19004100D01*
X31016700Y19004100D02*
X30332940Y19004100D01*
X25758900Y19004100D02*
X25758900Y18320340D01*
X31016700Y13746300D02*
X31016700Y14430060D01*
X25758900Y14430060D02*
X25758900Y13746300D01*
D13*
X13380000Y9840000D02*
X13380000Y12000000D01*
X10220000Y9840000D02*
X10220000Y11300000D01*
X10220000Y9840000D02*
X11150000Y9840000D01*
X13380000Y9840000D02*
X12450000Y9840000D01*
X24100000Y8090000D02*
X27100000Y8090000D01*
X25600000Y11310000D02*
X27100000Y11310000D01*
X30315039Y26687572D02*
X31519167Y26687572D01*
X30315039Y23967572D02*
X31519167Y23967572D01*
X18490000Y31941422D02*
X18490000Y32458578D01*
X19910000Y31941422D02*
X19910000Y32458578D01*
X17910000Y31941422D02*
X17910000Y32458578D01*
X16490000Y31941422D02*
X16490000Y32458578D01*
X21910000Y31941422D02*
X21910000Y32458578D01*
X20490000Y31941422D02*
X20490000Y32458578D01*
X37010000Y26837221D02*
X37010000Y27162779D01*
X35990000Y26837221D02*
X35990000Y27162779D01*
X32910000Y7120000D02*
X32910000Y380000D01*
X26890000Y780000D02*
X26890000Y140000D01*
X26890000Y140000D02*
X27290000Y140000D01*
X27130000Y6000000D02*
X32910000Y6000000D01*
X27130000Y7120000D02*
X32910000Y7120000D01*
X27130000Y380000D02*
X32910000Y380000D01*
X27130000Y900000D02*
X32910000Y900000D01*
X27130000Y7120000D02*
X27130000Y380000D01*
X32160000Y28154437D02*
X32160000Y29440000D01*
X32160000Y32845563D02*
X31095563Y33910000D01*
X32160000Y32845563D02*
X32160000Y31560000D01*
X31095563Y33910000D02*
X25340000Y33910000D01*
X25340000Y27090000D02*
X25340000Y29440000D01*
X25340000Y33910000D02*
X25340000Y31560000D01*
X32793750Y28258750D02*
X32793750Y29046250D01*
X33187500Y28652500D02*
X32400000Y28652500D01*
X32160000Y28154437D02*
X31095563Y27090000D01*
X31095563Y27090000D02*
X25340000Y27090000D01*
D14*
X6750000Y25890000D02*
G75*
G03*
X6750000Y25890000I-50000J0D01*
G01*
D13*
X35588500Y20774000D02*
X36338500Y20774000D01*
X35588500Y11774000D02*
X35588500Y9974000D01*
X40788500Y10724000D02*
X40788500Y16274000D01*
X40788500Y21824000D02*
X40788500Y16274000D01*
X37838500Y21824000D02*
X40788500Y21824000D01*
X41548500Y9964000D02*
X41548500Y22584000D01*
X36338500Y11774000D02*
X35588500Y11774000D01*
X35288500Y9674000D02*
X36538500Y9674000D01*
X37838500Y9974000D02*
X37838500Y10724000D01*
X36338500Y13274000D02*
X36338500Y19274000D01*
X35588500Y19274000D02*
X35588500Y13274000D01*
X37838500Y22574000D02*
X37838500Y21824000D01*
X36338500Y20774000D02*
X36338500Y22574000D01*
X37838500Y10724000D02*
X40788500Y10724000D01*
X41548500Y22584000D02*
X35578500Y22584000D01*
X35588500Y9974000D02*
X36338500Y9974000D01*
X35578500Y22584000D02*
X35578500Y9964000D01*
X36338500Y19274000D02*
X35588500Y19274000D01*
X36338500Y22574000D02*
X35588500Y22574000D01*
X35288500Y10924000D02*
X35288500Y9674000D01*
X35588500Y13274000D02*
X36338500Y13274000D01*
X35588500Y22574000D02*
X35588500Y20774000D01*
X35578500Y9964000D02*
X41548500Y9964000D01*
X36338500Y9974000D02*
X36338500Y11774000D01*
X24810000Y19737221D02*
X24810000Y20062779D01*
X23790000Y19737221D02*
X23790000Y20062779D01*
X20365000Y38015000D02*
X22650000Y38015000D01*
X22650000Y39485000D02*
X20365000Y39485000D01*
X20365000Y39485000D02*
X20365000Y38015000D01*
X6690000Y9140000D02*
X5640000Y9140000D01*
X7810000Y14360000D02*
X8860000Y14360000D01*
X7810000Y9140000D02*
X8860000Y9140000D01*
X10850000Y26435000D02*
X8565000Y26435000D01*
X8565000Y26435000D02*
X8565000Y24965000D01*
X8565000Y24965000D02*
X10850000Y24965000D01*
X14010000Y25020000D02*
X12550000Y25020000D01*
X14010000Y28180000D02*
X11850000Y28180000D01*
X14010000Y28180000D02*
X14010000Y27250000D01*
X14010000Y25020000D02*
X14010000Y25950000D01*
X16970000Y7890000D02*
X17900000Y7890000D01*
X16970000Y7890000D02*
X16970000Y9350000D01*
X20130000Y7890000D02*
X20130000Y10050000D01*
X20130000Y7890000D02*
X19200000Y7890000D01*
X31620000Y34780000D02*
X25840000Y34780000D01*
X31620000Y41000000D02*
X25840000Y41000000D01*
X31620000Y34780000D02*
X31620000Y41520000D01*
X31860000Y41120000D02*
X31860000Y41760000D01*
X31620000Y35900000D02*
X25840000Y35900000D01*
X31620000Y41520000D02*
X25840000Y41520000D01*
X31860000Y41760000D02*
X31460000Y41760000D01*
X25840000Y34780000D02*
X25840000Y41520000D01*
%LPC*%
D16*
X6050000Y16215000D03*
X6050000Y17185000D03*
D17*
X12150000Y8435000D03*
X12150000Y7465000D03*
D18*
X8450000Y16850000D03*
X8450000Y20550000D03*
D19*
X11015000Y23100000D03*
X11985000Y23100000D03*
D20*
X20885000Y23700000D03*
X19915000Y23700000D03*
D19*
X6665000Y28400000D03*
X7635000Y28400000D03*
D17*
X6050000Y20985000D03*
X6050000Y20015000D03*
D20*
X7635000Y32400000D03*
X6665000Y32400000D03*
D21*
X12121100Y22166900D03*
X12121100Y21666900D03*
X12121100Y21166900D03*
X12121100Y20666900D03*
X12121100Y20166900D03*
X12121100Y19666900D03*
X12121100Y19166900D03*
X12121100Y18666900D03*
X12121100Y18166900D03*
X12121100Y17666900D03*
X12121100Y17166900D03*
X12121100Y16666900D03*
D22*
X13533600Y15254400D03*
X14033600Y15254400D03*
X14533600Y15254400D03*
X15033600Y15254400D03*
X15533600Y15254400D03*
X16033600Y15254400D03*
X16533600Y15254400D03*
X17033600Y15254400D03*
X17533600Y15254400D03*
X18033600Y15254400D03*
X18533600Y15254400D03*
X19033600Y15254400D03*
D21*
X20446100Y16666900D03*
X20446100Y17166900D03*
X20446100Y17666900D03*
X20446100Y18166900D03*
X20446100Y18666900D03*
X20446100Y19166900D03*
X20446100Y19666900D03*
X20446100Y20166900D03*
X20446100Y20666900D03*
X20446100Y21166900D03*
X20446100Y21666900D03*
X20446100Y22166900D03*
D22*
X19033600Y23579400D03*
X18533600Y23579400D03*
X18033600Y23579400D03*
X17533600Y23579400D03*
X17033600Y23579400D03*
X16533600Y23579400D03*
X16033600Y23579400D03*
X15533600Y23579400D03*
X15033600Y23579400D03*
X14533600Y23579400D03*
X14033600Y23579400D03*
X13533600Y23579400D03*
D19*
X11015000Y24050000D03*
X11985000Y24050000D03*
D23*
X13937500Y13300000D03*
X12062500Y13300000D03*
D19*
X6665000Y31400000D03*
X7635000Y31400000D03*
D24*
X2100000Y11500000D03*
D25*
X2100000Y13500000D03*
X2100000Y15500000D03*
X2100000Y17500000D03*
X2100000Y19500000D03*
D17*
X3300000Y23385000D03*
X3300000Y22415000D03*
D16*
X20550000Y14815000D03*
X20550000Y15785000D03*
X21500000Y14815000D03*
X21500000Y15785000D03*
D19*
X6665000Y29400000D03*
X7635000Y29400000D03*
D20*
X7635000Y30400000D03*
X6665000Y30400000D03*
D16*
X16250000Y11215000D03*
X16250000Y12185000D03*
X21650000Y7435000D03*
X21650000Y8405000D03*
D19*
X28265000Y8000000D03*
X29235000Y8000000D03*
D26*
X18450000Y13250000D03*
X18450000Y11350000D03*
X20450000Y12300000D03*
D16*
X15350000Y7415000D03*
X15350000Y8385000D03*
X22600000Y7435000D03*
X22600000Y8405000D03*
D24*
X23250000Y2500000D03*
D25*
X23250000Y4500000D03*
D27*
X36500000Y34100000D03*
X34802944Y38197056D03*
X36500000Y38900000D03*
X34100000Y36500000D03*
X38900000Y36500000D03*
X38197056Y38197056D03*
X34802944Y34802944D03*
D28*
X36500000Y36500000D03*
D27*
X38197056Y34802944D03*
X38197056Y3802944D03*
X36500000Y3100000D03*
X36500000Y7900000D03*
X38197056Y7197056D03*
X38900000Y5500000D03*
X34802944Y3802944D03*
X34802944Y7197056D03*
D28*
X36500000Y5500000D03*
D27*
X34100000Y5500000D03*
D20*
X24585000Y17800000D03*
X23615000Y17800000D03*
X25085000Y13600000D03*
X24115000Y13600000D03*
D29*
X30187500Y22950000D03*
X28612500Y22950000D03*
D30*
X25812500Y21175000D03*
X27387500Y21175000D03*
D29*
X30037500Y9900000D03*
X28462500Y9900000D03*
D31*
X34050000Y21737500D03*
X34050000Y19862500D03*
D32*
X34050000Y11062500D03*
X34050000Y12937500D03*
D16*
X10750000Y7465000D03*
X10750000Y8435000D03*
D24*
X10850000Y2500000D03*
D25*
X10850000Y4500000D03*
D33*
X11525400Y37030800D03*
X15525400Y37030800D03*
D34*
X14825400Y36505800D03*
X14175400Y36505800D03*
X13525400Y36505800D03*
X12875400Y36505800D03*
X12225400Y36505800D03*
D35*
X9525400Y39180800D03*
D36*
X12325400Y39180800D03*
D35*
X17525400Y39180800D03*
D36*
X14725400Y39180800D03*
D27*
X3100000Y5500000D03*
X3802944Y3802944D03*
X7900000Y5500000D03*
X5500000Y7900000D03*
D28*
X5500000Y5500000D03*
D27*
X3802944Y7197056D03*
X7197056Y7197056D03*
X5500000Y3100000D03*
X7197056Y3802944D03*
D37*
X4388500Y26024000D03*
D38*
X1848500Y26024000D03*
X4388500Y28564000D03*
X1848500Y28564000D03*
X4388500Y31104000D03*
X1848500Y31104000D03*
D27*
X5500000Y38900000D03*
X7197056Y34802944D03*
X7900000Y36500000D03*
X7197056Y38197056D03*
D28*
X5500000Y36500000D03*
D27*
X3802944Y38197056D03*
X5500000Y34100000D03*
X3802944Y34802944D03*
X3100000Y36500000D03*
D16*
X16300000Y7415000D03*
X16300000Y8385000D03*
D20*
X31135000Y8000000D03*
X30165000Y8000000D03*
D24*
X17050000Y2500000D03*
D25*
X17050000Y4500000D03*
D16*
X2350000Y22415000D03*
X2350000Y23385000D03*
D17*
X17200000Y12185000D03*
X17200000Y11215000D03*
D39*
X29887800Y18875200D03*
X29387801Y18875200D03*
X28887799Y18875200D03*
X28387800Y18875200D03*
X27887801Y18875200D03*
X27387799Y18875200D03*
X26887800Y18875200D03*
D40*
X25887800Y17875200D03*
X25887800Y17375201D03*
X25887800Y16875199D03*
X25887800Y16375200D03*
X25887800Y15875201D03*
X25887800Y15375199D03*
X25887800Y14875200D03*
D39*
X26887800Y13875200D03*
X27387799Y13875200D03*
X27887801Y13875200D03*
X28387800Y13875200D03*
X28887799Y13875200D03*
X29387801Y13875200D03*
X29887800Y13875200D03*
D40*
X30887800Y14875200D03*
X30887800Y15375199D03*
X30887800Y15875201D03*
X30887800Y16375200D03*
X30887800Y16875199D03*
X30887800Y17375201D03*
X30887800Y17875200D03*
D41*
X28387800Y16375200D03*
D42*
X12750000Y11600000D03*
X10850000Y11600000D03*
X11800000Y9600000D03*
D16*
X7700000Y24315000D03*
X7700000Y25285000D03*
D20*
X7635000Y27400000D03*
X6665000Y27400000D03*
X7635000Y26400000D03*
X6665000Y26400000D03*
X24585000Y15600000D03*
X23615000Y15600000D03*
D19*
X23615000Y14600000D03*
X24585000Y14600000D03*
D43*
X24150000Y10675000D03*
X24150000Y10025000D03*
X24150000Y9375000D03*
X24150000Y8725000D03*
X27050000Y10675000D03*
X27050000Y9375000D03*
X27050000Y10025000D03*
D44*
X25600000Y9700000D03*
D43*
X27050000Y8725000D03*
D19*
X23565000Y7450000D03*
X24535000Y7450000D03*
D45*
X29517103Y25327572D03*
X32317103Y25327572D03*
D32*
X19200000Y31262500D03*
X19200000Y33137500D03*
X17200000Y31262500D03*
X17200000Y33137500D03*
X21200000Y31262500D03*
X21200000Y33137500D03*
D46*
X36500000Y26212500D03*
X36500000Y27787500D03*
D16*
X1400000Y22415000D03*
X1400000Y23385000D03*
X9100000Y26915000D03*
X9100000Y27885000D03*
D47*
X28750000Y3750000D03*
D48*
X31290000Y3750000D03*
D49*
X31450000Y30500000D03*
X26050000Y30500000D03*
D17*
X6700000Y25285000D03*
X6700000Y24315000D03*
D19*
X9635000Y14020000D03*
X10605000Y14020000D03*
X10265000Y15000000D03*
X11235000Y15000000D03*
D50*
X38038500Y12524000D03*
D51*
X38038500Y15024000D03*
X38038500Y17524000D03*
X38038500Y20024000D03*
D17*
X11000000Y32735000D03*
X11000000Y31765000D03*
D16*
X13250000Y32515000D03*
X13250000Y33485000D03*
X12265000Y32515000D03*
X12265000Y33485000D03*
X13100000Y7465000D03*
X13100000Y8435000D03*
D46*
X24300000Y19112500D03*
X24300000Y20687500D03*
D30*
X21062500Y38750000D03*
X22637500Y38750000D03*
D19*
X20865000Y37350000D03*
X21835000Y37350000D03*
D16*
X9400000Y23385000D03*
X9400000Y22415000D03*
D17*
X6450000Y23385000D03*
X6450000Y22415000D03*
D16*
X7450000Y22425000D03*
X7450000Y23395000D03*
X8440000Y23395000D03*
X8440000Y22425000D03*
X4250000Y22415000D03*
X4250000Y23385000D03*
X5200000Y22415000D03*
X5200000Y23385000D03*
D52*
X6250000Y13750000D03*
X6250000Y12950000D03*
X6250000Y12150000D03*
X6250000Y11350000D03*
X6250000Y10550000D03*
X6250000Y9750000D03*
D53*
X7250000Y9750000D03*
D52*
X8250000Y9750000D03*
X8250000Y10550000D03*
X8250000Y11350000D03*
X8250000Y12150000D03*
X8250000Y12950000D03*
X8250000Y13750000D03*
D53*
X7250000Y13750000D03*
D17*
X10950000Y27885000D03*
X10950000Y26915000D03*
D30*
X9262500Y25700000D03*
X10837500Y25700000D03*
D20*
X6935000Y15050000D03*
X5965000Y15050000D03*
D26*
X12250000Y27550000D03*
X12250000Y25650000D03*
X14250000Y26600000D03*
D42*
X19500000Y9650000D03*
X17600000Y9650000D03*
X18550000Y7650000D03*
D20*
X16335000Y10300000D03*
X15365000Y10300000D03*
D19*
X15365000Y9350000D03*
X16335000Y9350000D03*
D16*
X6050000Y18115000D03*
X6050000Y19085000D03*
X22300000Y20865000D03*
X22300000Y21835000D03*
X15500000Y25315000D03*
X15500000Y26285000D03*
D17*
X21800000Y10885000D03*
X21800000Y9915000D03*
D47*
X30000000Y38150000D03*
D48*
X27460000Y38150000D03*
M02*
