G04 #@! TF.GenerationSoftware,KiCad,Pcbnew,6.99.0-unknown-41f6e634c6~148~ubuntu20.04.1*
G04 #@! TF.CreationDate,2022-02-25T02:28:11-08:00*
G04 #@! TF.ProjectId,Huvud,48757675-642e-46b6-9963-61645f706362,rev?*
G04 #@! TF.SameCoordinates,PXad91980PY876bf80*
G04 #@! TF.FileFunction,Soldermask,Top*
G04 #@! TF.FilePolarity,Negative*
%FSLAX46Y46*%
G04 Gerber Fmt 4.6, Leading zero omitted, Abs format (unit mm)*
G04 Created by KiCad (PCBNEW 6.99.0-unknown-41f6e634c6~148~ubuntu20.04.1) date 2022-02-25 02:28:11*
%MOMM*%
%LPD*%
G01*
G04 APERTURE LIST*
G04 Aperture macros list*
%AMRoundRect*
0 Rectangle with rounded corners*
0 $1 Rounding radius*
0 $2 $3 $4 $5 $6 $7 $8 $9 X,Y pos of 4 corners*
0 Add a 4 corners polygon primitive as box body*
4,1,4,$2,$3,$4,$5,$6,$7,$8,$9,$2,$3,0*
0 Add four circle primitives for the rounded corners*
1,1,$1+$1,$2,$3*
1,1,$1+$1,$4,$5*
1,1,$1+$1,$6,$7*
1,1,$1+$1,$8,$9*
0 Add four rect primitives between the rounded corners*
20,1,$1+$1,$2,$3,$4,$5,0*
20,1,$1+$1,$4,$5,$6,$7,0*
20,1,$1+$1,$6,$7,$8,$9,0*
20,1,$1+$1,$8,$9,$2,$3,0*%
G04 Aperture macros list end*
%ADD10RoundRect,0.225000X0.475000X-0.225000X0.475000X0.225000X-0.475000X0.225000X-0.475000X-0.225000X0*%
%ADD11O,1.400000X0.900000*%
%ADD12RoundRect,0.225000X-0.475000X0.225000X-0.475000X-0.225000X0.475000X-0.225000X0.475000X0.225000X0*%
%ADD13C,0.800000*%
%ADD14C,6.400000*%
%ADD15RoundRect,0.140000X0.140000X0.170000X-0.140000X0.170000X-0.140000X-0.170000X0.140000X-0.170000X0*%
%ADD16RoundRect,0.140000X-0.140000X-0.170000X0.140000X-0.170000X0.140000X0.170000X-0.140000X0.170000X0*%
%ADD17RoundRect,0.225000X0.225000X0.250000X-0.225000X0.250000X-0.225000X-0.250000X0.225000X-0.250000X0*%
%ADD18RoundRect,0.225000X-0.225000X-0.250000X0.225000X-0.250000X0.225000X0.250000X-0.225000X0.250000X0*%
%ADD19RoundRect,0.250000X-0.625000X0.312500X-0.625000X-0.312500X0.625000X-0.312500X0.625000X0.312500X0*%
%ADD20RoundRect,0.250000X0.625000X-0.312500X0.625000X0.312500X-0.625000X0.312500X-0.625000X-0.312500X0*%
%ADD21R,1.000000X1.000000*%
%ADD22O,1.000000X1.000000*%
%ADD23R,0.250000X0.800000*%
%ADD24R,0.800000X0.250000*%
%ADD25R,3.700000X3.700000*%
%ADD26RoundRect,0.135000X-0.135000X-0.185000X0.135000X-0.185000X0.135000X0.185000X-0.135000X0.185000X0*%
%ADD27RoundRect,0.135000X0.135000X0.185000X-0.135000X0.185000X-0.135000X-0.185000X0.135000X-0.185000X0*%
%ADD28RoundRect,0.075000X0.075000X-0.325000X0.075000X0.325000X-0.075000X0.325000X-0.075000X-0.325000X0*%
%ADD29R,2.050000X1.700000*%
%ADD30RoundRect,0.250000X-0.325000X-0.650000X0.325000X-0.650000X0.325000X0.650000X-0.325000X0.650000X0*%
%ADD31RoundRect,0.225000X0.250000X-0.225000X0.250000X0.225000X-0.250000X0.225000X-0.250000X-0.225000X0*%
%ADD32C,3.000000*%
%ADD33RoundRect,0.250001X-0.499999X-0.499999X0.499999X-0.499999X0.499999X0.499999X-0.499999X0.499999X0*%
%ADD34C,1.500000*%
%ADD35RoundRect,0.250000X1.500000X0.550000X-1.500000X0.550000X-1.500000X-0.550000X1.500000X-0.550000X0*%
%ADD36RoundRect,0.250000X0.725000X-0.600000X0.725000X0.600000X-0.725000X0.600000X-0.725000X-0.600000X0*%
%ADD37O,1.950000X1.700000*%
%ADD38RoundRect,0.150000X-0.325000X-0.150000X0.325000X-0.150000X0.325000X0.150000X-0.325000X0.150000X0*%
%ADD39RoundRect,0.150000X-0.150000X-0.325000X0.150000X-0.325000X0.150000X0.325000X-0.150000X0.325000X0*%
%ADD40RoundRect,0.135000X-0.185000X0.135000X-0.185000X-0.135000X0.185000X-0.135000X0.185000X0.135000X0*%
%ADD41RoundRect,0.140000X0.170000X-0.140000X0.170000X0.140000X-0.170000X0.140000X-0.170000X-0.140000X0*%
%ADD42RoundRect,0.135000X0.185000X-0.135000X0.185000X0.135000X-0.185000X0.135000X-0.185000X-0.135000X0*%
%ADD43RoundRect,0.150000X-0.150000X0.587500X-0.150000X-0.587500X0.150000X-0.587500X0.150000X0.587500X0*%
%ADD44RoundRect,0.140000X-0.170000X0.140000X-0.170000X-0.140000X0.170000X-0.140000X0.170000X0.140000X0*%
%ADD45RoundRect,0.147500X-0.172500X0.147500X-0.172500X-0.147500X0.172500X-0.147500X0.172500X0.147500X0*%
%ADD46RoundRect,0.147500X0.172500X-0.147500X0.172500X0.147500X-0.172500X0.147500X-0.172500X-0.147500X0*%
%ADD47RoundRect,0.250000X-0.650000X0.325000X-0.650000X-0.325000X0.650000X-0.325000X0.650000X0.325000X0*%
%ADD48RoundRect,0.250000X0.475000X-0.250000X0.475000X0.250000X-0.475000X0.250000X-0.475000X-0.250000X0*%
%ADD49RoundRect,0.150000X0.150000X-0.512500X0.150000X0.512500X-0.150000X0.512500X-0.150000X-0.512500X0*%
%ADD50RoundRect,0.050000X-0.050000X0.387500X-0.050000X-0.387500X0.050000X-0.387500X0.050000X0.387500X0*%
%ADD51RoundRect,0.050000X-0.387500X0.050000X-0.387500X-0.050000X0.387500X-0.050000X0.387500X0.050000X0*%
%ADD52RoundRect,0.144000X-1.456000X1.456000X-1.456000X-1.456000X1.456000X-1.456000X1.456000X1.456000X0*%
%ADD53RoundRect,0.218750X0.218750X0.256250X-0.218750X0.256250X-0.218750X-0.256250X0.218750X-0.256250X0*%
%ADD54RoundRect,0.200000X-0.275000X0.200000X-0.275000X-0.200000X0.275000X-0.200000X0.275000X0.200000X0*%
%ADD55RoundRect,0.250000X0.375000X1.075000X-0.375000X1.075000X-0.375000X-1.075000X0.375000X-1.075000X0*%
%ADD56R,0.254800X0.807999*%
%ADD57R,1.600200X0.203200*%
%ADD58RoundRect,0.147500X-0.147500X-0.172500X0.147500X-0.172500X0.147500X0.172500X-0.147500X0.172500X0*%
%ADD59RoundRect,0.150000X0.587500X0.150000X-0.587500X0.150000X-0.587500X-0.150000X0.587500X-0.150000X0*%
%ADD60R,1.400000X1.200000*%
%ADD61R,0.600000X0.450000*%
G04 APERTURE END LIST*
D10*
X2870000Y10850000D03*
D11*
X2869999Y12099999D03*
X2869999Y13349999D03*
X2869999Y14599999D03*
X2869999Y15849999D03*
X2869999Y17099999D03*
D12*
X24250000Y4475000D03*
D11*
X24249999Y3224999D03*
D13*
X34100000Y36500000D03*
X34802944Y38197056D03*
X34802944Y34802944D03*
X36500000Y38900000D03*
D14*
X36500000Y36500000D03*
D13*
X36500000Y34100000D03*
X38197056Y38197056D03*
X38197056Y34802944D03*
X38900000Y36500000D03*
X34100000Y5500000D03*
X34802944Y7197056D03*
X34802944Y3802944D03*
X36500000Y7900000D03*
D14*
X36500000Y5500000D03*
D13*
X36500000Y3100000D03*
X38197056Y7197056D03*
X38197056Y3802944D03*
X38900000Y5500000D03*
D15*
X24580000Y17800000D03*
X23620000Y17800000D03*
D16*
X25520000Y12700000D03*
X26480000Y12700000D03*
D17*
X30175000Y22950000D03*
X28625000Y22950000D03*
D18*
X25825000Y21175000D03*
X27375000Y21175000D03*
D17*
X30025000Y9900000D03*
X28475000Y9900000D03*
D19*
X34050000Y22262500D03*
X34050000Y19337500D03*
D20*
X34050000Y10537500D03*
X34050000Y13462500D03*
D12*
X15650000Y4475000D03*
D11*
X15649999Y3224999D03*
D13*
X3100000Y5500000D03*
X3802944Y7197056D03*
X3802944Y3802944D03*
X5500000Y7900000D03*
D14*
X5500000Y5500000D03*
D13*
X5500000Y3100000D03*
X7197056Y7197056D03*
X7197056Y3802944D03*
X7900000Y5500000D03*
D21*
X2978199Y29726999D03*
D22*
X1708199Y29726999D03*
X2978199Y30996999D03*
X1708199Y30996999D03*
X2978199Y32266999D03*
X1708199Y32266999D03*
D13*
X3100000Y36500000D03*
X3802944Y38197056D03*
X3802944Y34802944D03*
X5500000Y38900000D03*
D14*
X5500000Y36500000D03*
D13*
X5500000Y34100000D03*
X7197056Y38197056D03*
X7197056Y34802944D03*
X7900000Y36500000D03*
D12*
X19950000Y4475000D03*
D11*
X19949999Y3224999D03*
D23*
X29887799Y18875199D03*
X29387800Y18875199D03*
X28887798Y18875199D03*
X28387799Y18875199D03*
X27887800Y18875199D03*
X27387798Y18875199D03*
X26887799Y18875199D03*
D24*
X25887799Y17875199D03*
X25887799Y17375200D03*
X25887799Y16875198D03*
X25887799Y16375199D03*
X25887799Y15875200D03*
X25887799Y15375198D03*
X25887799Y14875199D03*
D23*
X26887799Y13875199D03*
X27387798Y13875199D03*
X27887800Y13875199D03*
X28387799Y13875199D03*
X28887798Y13875199D03*
X29387800Y13875199D03*
X29887799Y13875199D03*
D24*
X30887799Y14875199D03*
X30887799Y15375198D03*
X30887799Y15875200D03*
X30887799Y16375199D03*
X30887799Y16875198D03*
X30887799Y17375200D03*
X30887799Y17875199D03*
D25*
X28387799Y16375199D03*
D26*
X23585600Y14593600D03*
X24605600Y14593600D03*
D27*
X24605600Y15558800D03*
X23585600Y15558800D03*
D28*
X24535000Y29475000D03*
X25185000Y29475000D03*
X25835000Y29475000D03*
X26485000Y29475000D03*
D29*
X25509999Y30924999D03*
D28*
X24535000Y32375000D03*
X25185000Y32375000D03*
X25835000Y32375000D03*
X26485000Y32375000D03*
D30*
X29442100Y25327600D03*
X32392100Y25327600D03*
D31*
X36500000Y23675000D03*
X36500000Y25225000D03*
D32*
X28700000Y39020000D03*
D33*
X28700000Y34700000D03*
D34*
X28700000Y31700000D03*
D35*
X39450000Y29450000D03*
X34050000Y29450000D03*
D36*
X38038500Y12524000D03*
D37*
X38038499Y15023999D03*
X38038499Y17523999D03*
X38038499Y20023999D03*
D31*
X24300000Y19125000D03*
X24300000Y20675000D03*
D38*
X5620400Y14714000D03*
X5620400Y13914000D03*
X5620400Y13114000D03*
X5620400Y12314000D03*
X5620400Y11514000D03*
X5620400Y10714000D03*
D39*
X6620400Y10714000D03*
D38*
X7620400Y10714000D03*
X7620400Y11514000D03*
X7620400Y12314000D03*
X7620400Y13114000D03*
X7620400Y13914000D03*
X7620400Y14714000D03*
D39*
X6620400Y14714000D03*
D40*
X27346800Y23434800D03*
X27346800Y22414800D03*
D41*
X32400000Y18620000D03*
X32400000Y19580000D03*
D27*
X24810000Y25610000D03*
X23790000Y25610000D03*
D42*
X21250800Y10832400D03*
X21250800Y11852400D03*
D27*
X6114400Y16422400D03*
X5094400Y16422400D03*
D43*
X19254400Y9435100D03*
X17354400Y9435100D03*
X18304400Y7560100D03*
D41*
X22419200Y15270000D03*
X22419200Y16230000D03*
D43*
X23521600Y9384300D03*
X21621600Y9384300D03*
X22571600Y7509300D03*
D44*
X1642000Y28484800D03*
X1642000Y27524800D03*
D45*
X8620000Y23685000D03*
X8620000Y22715000D03*
D46*
X28312000Y6996600D03*
X28312000Y7966600D03*
D26*
X22925200Y11850400D03*
X23945200Y11850400D03*
D40*
X5456000Y27910000D03*
X5456000Y26890000D03*
D44*
X12980000Y29870000D03*
X12980000Y28910000D03*
D43*
X27077600Y10298700D03*
X25177600Y10298700D03*
X26127600Y8423700D03*
D44*
X35200000Y25480000D03*
X35200000Y24520000D03*
D41*
X18025000Y23095000D03*
X18025000Y24055000D03*
D44*
X22750000Y22455000D03*
X22750000Y21495000D03*
D47*
X21590000Y37585000D03*
X21590000Y34635000D03*
D26*
X5145200Y19622800D03*
X6165200Y19622800D03*
D41*
X12106800Y6900000D03*
X12106800Y7860000D03*
D44*
X4440000Y27880000D03*
X4440000Y26920000D03*
D42*
X3474800Y26890000D03*
X3474800Y27910000D03*
D26*
X22925200Y12866400D03*
X23945200Y12866400D03*
D42*
X9610000Y22685000D03*
X9610000Y23705000D03*
D48*
X11490000Y28120000D03*
X11490000Y30020000D03*
D44*
X32400000Y14130000D03*
X32400000Y13170000D03*
D42*
X29277200Y6971600D03*
X29277200Y7991600D03*
D49*
X19010000Y26302500D03*
X19960000Y26302500D03*
X20910000Y26302500D03*
X20910000Y28577500D03*
X19960000Y28577500D03*
X19010000Y28577500D03*
D16*
X20520000Y20050000D03*
X21480000Y20050000D03*
D50*
X17399200Y21875900D03*
X16999200Y21875900D03*
X16599200Y21875900D03*
X16199200Y21875900D03*
X15799200Y21875900D03*
X15399200Y21875900D03*
X14999200Y21875900D03*
X14599200Y21875900D03*
X14199200Y21875900D03*
X13799200Y21875900D03*
X13399200Y21875900D03*
X12999200Y21875900D03*
X12599200Y21875900D03*
X12199200Y21875900D03*
D51*
X11361700Y21038400D03*
X11361700Y20638400D03*
X11361700Y20238400D03*
X11361700Y19838400D03*
X11361700Y19438400D03*
X11361700Y19038400D03*
X11361700Y18638400D03*
X11361700Y18238400D03*
X11361700Y17838400D03*
X11361700Y17438400D03*
X11361700Y17038400D03*
X11361700Y16638400D03*
X11361700Y16238400D03*
X11361700Y15838400D03*
D50*
X12199200Y15000900D03*
X12599200Y15000900D03*
X12999200Y15000900D03*
X13399200Y15000900D03*
X13799200Y15000900D03*
X14199200Y15000900D03*
X14599200Y15000900D03*
X14999200Y15000900D03*
X15399200Y15000900D03*
X15799200Y15000900D03*
X16199200Y15000900D03*
X16599200Y15000900D03*
X16999200Y15000900D03*
X17399200Y15000900D03*
D51*
X18236700Y15838400D03*
X18236700Y16238400D03*
X18236700Y16638400D03*
X18236700Y17038400D03*
X18236700Y17438400D03*
X18236700Y17838400D03*
X18236700Y18238400D03*
X18236700Y18638400D03*
X18236700Y19038400D03*
X18236700Y19438400D03*
X18236700Y19838400D03*
X18236700Y20238400D03*
X18236700Y20638400D03*
X18236700Y21038400D03*
D52*
X14799200Y18438400D03*
D16*
X5429200Y24042400D03*
X6389200Y24042400D03*
X5147200Y17438400D03*
X6107200Y17438400D03*
D53*
X24647500Y24290000D03*
X23072500Y24290000D03*
D27*
X26637600Y6922800D03*
X25617600Y6922800D03*
D54*
X12560000Y25785000D03*
X12560000Y24135000D03*
D55*
X17210000Y28700000D03*
X14410000Y28700000D03*
D56*
X21700000Y24254298D03*
X21199999Y24254298D03*
X20699999Y24254298D03*
X20199998Y24254298D03*
X20199998Y21462300D03*
X20699999Y21462300D03*
X21199999Y21462300D03*
X21700000Y21462300D03*
D57*
X20949999Y22858299D03*
D40*
X11090800Y7890000D03*
X11090800Y6870000D03*
D16*
X20520000Y19100000D03*
X21480000Y19100000D03*
D40*
X17644000Y11903200D03*
X17644000Y10883200D03*
D42*
X22210000Y26380000D03*
X22210000Y27400000D03*
D27*
X5758800Y29376400D03*
X4738800Y29376400D03*
D12*
X28550000Y4475000D03*
D11*
X28549999Y3224999D03*
D41*
X22600000Y29980000D03*
X22600000Y30940000D03*
D58*
X19953000Y6973600D03*
X20923000Y6973600D03*
D16*
X3295600Y19622800D03*
X4255600Y19622800D03*
D10*
X8750000Y26240000D03*
D11*
X8749999Y27489999D03*
X8749999Y28739999D03*
X8749999Y29989999D03*
X8749999Y31239999D03*
D43*
X16003200Y11314700D03*
X14103200Y11314700D03*
X15053200Y9439700D03*
D41*
X22590000Y31850000D03*
X22590000Y32810000D03*
D42*
X12980000Y26920000D03*
X12980000Y27940000D03*
D41*
X13529200Y6849200D03*
X13529200Y7809200D03*
X13820000Y23810000D03*
X13820000Y24770000D03*
D15*
X17810000Y24930000D03*
X16850000Y24930000D03*
X9183200Y18750000D03*
X8223200Y18750000D03*
D41*
X38750000Y24470000D03*
X38750000Y25430000D03*
D26*
X21240000Y14250000D03*
X22260000Y14250000D03*
D44*
X12868800Y11771600D03*
X12868800Y10811600D03*
D26*
X20490000Y15250000D03*
X21510000Y15250000D03*
D32*
X14795000Y39015000D03*
D33*
X13295000Y34695000D03*
D34*
X16295000Y34695000D03*
X13295000Y31695000D03*
X16295000Y31695000D03*
D12*
X11350000Y4475000D03*
D11*
X11349999Y3224999D03*
D15*
X6795600Y9462800D03*
X5835600Y9462800D03*
D26*
X18607200Y10936000D03*
X19627200Y10936000D03*
D16*
X20520000Y16200000D03*
X21480000Y16200000D03*
D27*
X31565200Y31611600D03*
X30545200Y31611600D03*
D42*
X27600800Y27139200D03*
X27600800Y28159200D03*
D44*
X13783200Y13730000D03*
X13783200Y12770000D03*
D59*
X21107500Y30310000D03*
X21107500Y32210000D03*
X19232500Y31260000D03*
D60*
X6450399Y22657199D03*
X4250399Y22657199D03*
X4250399Y20957199D03*
X6450399Y20957199D03*
D40*
X14494400Y7839200D03*
X14494400Y6819200D03*
D26*
X20190000Y17150000D03*
X21210000Y17150000D03*
D44*
X4480000Y25970000D03*
X4480000Y25010000D03*
D42*
X3514800Y24980000D03*
X3514800Y26000000D03*
D26*
X20190000Y18100000D03*
X21210000Y18100000D03*
D61*
X16139999Y26159999D03*
X14039999Y26159999D03*
D40*
X5445200Y26000000D03*
X5445200Y24980000D03*
D41*
X34250000Y24520000D03*
X34250000Y25480000D03*
D26*
X22163200Y10885200D03*
X23183200Y10885200D03*
X5145200Y18454400D03*
X6165200Y18454400D03*
D42*
X26635600Y27139200D03*
X26635600Y28159200D03*
D53*
X25057500Y27070000D03*
X23482500Y27070000D03*
D40*
X20438000Y8906000D03*
X20438000Y7886000D03*
D15*
X9230000Y17750000D03*
X8270000Y17750000D03*
D58*
X23763000Y6922800D03*
X24733000Y6922800D03*
D43*
X11685200Y11263900D03*
X9785200Y11263900D03*
X10735200Y9388900D03*
D16*
X18270000Y13500000D03*
X19230000Y13500000D03*
D42*
X10125600Y6870000D03*
X10125600Y7890000D03*
D44*
X37750000Y25430000D03*
X37750000Y24470000D03*
D58*
X30535300Y32627600D03*
X31505300Y32627600D03*
D42*
X15459600Y6870000D03*
X15459600Y7890000D03*
M02*
