G04 #@! TF.GenerationSoftware,KiCad,Pcbnew,6.99.0-unknown-41f6e634c6~148~ubuntu20.04.1*
G04 #@! TF.CreationDate,2022-02-25T02:28:11-08:00*
G04 #@! TF.ProjectId,Huvud,48757675-642e-46b6-9963-61645f706362,rev?*
G04 #@! TF.SameCoordinates,PXad91980PY876bf80*
G04 #@! TF.FileFunction,Legend,Top*
G04 #@! TF.FilePolarity,Positive*
%FSLAX46Y46*%
G04 Gerber Fmt 4.6, Leading zero omitted, Abs format (unit mm)*
G04 Created by KiCad (PCBNEW 6.99.0-unknown-41f6e634c6~148~ubuntu20.04.1) date 2022-02-25 02:28:11*
%MOMM*%
%LPD*%
G01*
G04 APERTURE LIST*
G04 Aperture macros list*
%AMRoundRect*
0 Rectangle with rounded corners*
0 $1 Rounding radius*
0 $2 $3 $4 $5 $6 $7 $8 $9 X,Y pos of 4 corners*
0 Add a 4 corners polygon primitive as box body*
4,1,4,$2,$3,$4,$5,$6,$7,$8,$9,$2,$3,0*
0 Add four circle primitives for the rounded corners*
1,1,$1+$1,$2,$3*
1,1,$1+$1,$4,$5*
1,1,$1+$1,$6,$7*
1,1,$1+$1,$8,$9*
0 Add four rect primitives between the rounded corners*
20,1,$1+$1,$2,$3,$4,$5,0*
20,1,$1+$1,$4,$5,$6,$7,0*
20,1,$1+$1,$6,$7,$8,$9,0*
20,1,$1+$1,$8,$9,$2,$3,0*%
G04 Aperture macros list end*
%ADD10C,0.300000*%
%ADD11C,0.150000*%
%ADD12C,0.200000*%
%ADD13C,0.100000*%
%ADD14C,0.120000*%
%ADD15C,0.152400*%
%ADD16RoundRect,0.225000X0.475000X-0.225000X0.475000X0.225000X-0.475000X0.225000X-0.475000X-0.225000X0*%
%ADD17O,1.400000X0.900000*%
%ADD18RoundRect,0.225000X-0.475000X0.225000X-0.475000X-0.225000X0.475000X-0.225000X0.475000X0.225000X0*%
%ADD19C,0.800000*%
%ADD20C,6.400000*%
%ADD21RoundRect,0.140000X0.140000X0.170000X-0.140000X0.170000X-0.140000X-0.170000X0.140000X-0.170000X0*%
%ADD22RoundRect,0.140000X-0.140000X-0.170000X0.140000X-0.170000X0.140000X0.170000X-0.140000X0.170000X0*%
%ADD23RoundRect,0.225000X0.225000X0.250000X-0.225000X0.250000X-0.225000X-0.250000X0.225000X-0.250000X0*%
%ADD24RoundRect,0.225000X-0.225000X-0.250000X0.225000X-0.250000X0.225000X0.250000X-0.225000X0.250000X0*%
%ADD25RoundRect,0.250000X-0.625000X0.312500X-0.625000X-0.312500X0.625000X-0.312500X0.625000X0.312500X0*%
%ADD26RoundRect,0.250000X0.625000X-0.312500X0.625000X0.312500X-0.625000X0.312500X-0.625000X-0.312500X0*%
%ADD27R,1.000000X1.000000*%
%ADD28O,1.000000X1.000000*%
%ADD29R,0.250000X0.800000*%
%ADD30R,0.800000X0.250000*%
%ADD31R,3.700000X3.700000*%
%ADD32RoundRect,0.135000X-0.135000X-0.185000X0.135000X-0.185000X0.135000X0.185000X-0.135000X0.185000X0*%
%ADD33RoundRect,0.135000X0.135000X0.185000X-0.135000X0.185000X-0.135000X-0.185000X0.135000X-0.185000X0*%
%ADD34RoundRect,0.075000X0.075000X-0.325000X0.075000X0.325000X-0.075000X0.325000X-0.075000X-0.325000X0*%
%ADD35R,2.050000X1.700000*%
%ADD36RoundRect,0.250000X-0.325000X-0.650000X0.325000X-0.650000X0.325000X0.650000X-0.325000X0.650000X0*%
%ADD37RoundRect,0.225000X0.250000X-0.225000X0.250000X0.225000X-0.250000X0.225000X-0.250000X-0.225000X0*%
%ADD38C,3.000000*%
%ADD39RoundRect,0.250001X-0.499999X-0.499999X0.499999X-0.499999X0.499999X0.499999X-0.499999X0.499999X0*%
%ADD40C,1.500000*%
%ADD41RoundRect,0.250000X1.500000X0.550000X-1.500000X0.550000X-1.500000X-0.550000X1.500000X-0.550000X0*%
%ADD42RoundRect,0.250000X0.725000X-0.600000X0.725000X0.600000X-0.725000X0.600000X-0.725000X-0.600000X0*%
%ADD43O,1.950000X1.700000*%
%ADD44RoundRect,0.150000X-0.325000X-0.150000X0.325000X-0.150000X0.325000X0.150000X-0.325000X0.150000X0*%
%ADD45RoundRect,0.150000X-0.150000X-0.325000X0.150000X-0.325000X0.150000X0.325000X-0.150000X0.325000X0*%
%ADD46RoundRect,0.135000X-0.185000X0.135000X-0.185000X-0.135000X0.185000X-0.135000X0.185000X0.135000X0*%
%ADD47RoundRect,0.140000X0.170000X-0.140000X0.170000X0.140000X-0.170000X0.140000X-0.170000X-0.140000X0*%
%ADD48RoundRect,0.135000X0.185000X-0.135000X0.185000X0.135000X-0.185000X0.135000X-0.185000X-0.135000X0*%
%ADD49RoundRect,0.150000X-0.150000X0.587500X-0.150000X-0.587500X0.150000X-0.587500X0.150000X0.587500X0*%
%ADD50RoundRect,0.140000X-0.170000X0.140000X-0.170000X-0.140000X0.170000X-0.140000X0.170000X0.140000X0*%
%ADD51RoundRect,0.147500X-0.172500X0.147500X-0.172500X-0.147500X0.172500X-0.147500X0.172500X0.147500X0*%
%ADD52RoundRect,0.147500X0.172500X-0.147500X0.172500X0.147500X-0.172500X0.147500X-0.172500X-0.147500X0*%
%ADD53RoundRect,0.250000X-0.650000X0.325000X-0.650000X-0.325000X0.650000X-0.325000X0.650000X0.325000X0*%
%ADD54RoundRect,0.250000X0.475000X-0.250000X0.475000X0.250000X-0.475000X0.250000X-0.475000X-0.250000X0*%
%ADD55RoundRect,0.150000X0.150000X-0.512500X0.150000X0.512500X-0.150000X0.512500X-0.150000X-0.512500X0*%
%ADD56RoundRect,0.050000X-0.050000X0.387500X-0.050000X-0.387500X0.050000X-0.387500X0.050000X0.387500X0*%
%ADD57RoundRect,0.050000X-0.387500X0.050000X-0.387500X-0.050000X0.387500X-0.050000X0.387500X0.050000X0*%
%ADD58RoundRect,0.144000X-1.456000X1.456000X-1.456000X-1.456000X1.456000X-1.456000X1.456000X1.456000X0*%
%ADD59RoundRect,0.218750X0.218750X0.256250X-0.218750X0.256250X-0.218750X-0.256250X0.218750X-0.256250X0*%
%ADD60RoundRect,0.200000X-0.275000X0.200000X-0.275000X-0.200000X0.275000X-0.200000X0.275000X0.200000X0*%
%ADD61RoundRect,0.250000X0.375000X1.075000X-0.375000X1.075000X-0.375000X-1.075000X0.375000X-1.075000X0*%
%ADD62R,0.254800X0.807999*%
%ADD63R,1.600200X0.203200*%
%ADD64RoundRect,0.147500X-0.147500X-0.172500X0.147500X-0.172500X0.147500X0.172500X-0.147500X0.172500X0*%
%ADD65RoundRect,0.150000X0.587500X0.150000X-0.587500X0.150000X-0.587500X-0.150000X0.587500X-0.150000X0*%
%ADD66R,1.400000X1.200000*%
%ADD67R,0.600000X0.450000*%
G04 APERTURE END LIST*
D10*
X23540000Y29500000D02*
G75*
G03*
X23540000Y29500000I-150000J0D01*
G01*
X5246400Y15812800D02*
G75*
G03*
X5246400Y15812800I-150000J0D01*
G01*
D11*
X33373105Y40190496D02*
X33373105Y40990496D01*
X33373105Y40609543D02*
X33830248Y40609543D01*
X33830248Y40190496D02*
X33830248Y40990496D01*
X34211200Y40609543D02*
X34477866Y40609543D01*
X34592152Y40190496D02*
X34211200Y40190496D01*
X34211200Y40190496D02*
X34211200Y40990496D01*
X34211200Y40990496D02*
X34592152Y40990496D01*
X34896914Y40419067D02*
X35277867Y40419067D01*
X34820724Y40190496D02*
X35087391Y40990496D01*
X35087391Y40990496D02*
X35354057Y40190496D01*
X35506438Y40990496D02*
X35963581Y40990496D01*
X35735009Y40190496D02*
X35735009Y40990496D01*
X25828571Y1042858D02*
X26095237Y1042858D01*
X26095237Y1461905D02*
X26095237Y661905D01*
X26095237Y661905D02*
X25714285Y661905D01*
X25447619Y1233334D02*
X25066666Y1233334D01*
X25523809Y1461905D02*
X25257142Y661905D01*
X25257142Y661905D02*
X24990476Y1461905D01*
X24723809Y1461905D02*
X24723809Y661905D01*
X24723809Y661905D02*
X24266666Y1461905D01*
X24266666Y1461905D02*
X24266666Y661905D01*
X23466667Y1461905D02*
X23923810Y1461905D01*
X23695238Y1461905D02*
X23695238Y661905D01*
X23695238Y661905D02*
X23771429Y776191D01*
X23771429Y776191D02*
X23847619Y852381D01*
X23847619Y852381D02*
X23923810Y890477D01*
X40095238Y26369048D02*
X40047619Y26226191D01*
X40047619Y26226191D02*
X40047619Y25988096D01*
X40047619Y25988096D02*
X40095238Y25892858D01*
X40095238Y25892858D02*
X40142857Y25845239D01*
X40142857Y25845239D02*
X40238095Y25797620D01*
X40238095Y25797620D02*
X40333333Y25797620D01*
X40333333Y25797620D02*
X40428571Y25845239D01*
X40428571Y25845239D02*
X40476190Y25892858D01*
X40476190Y25892858D02*
X40523809Y25988096D01*
X40523809Y25988096D02*
X40571428Y26178572D01*
X40571428Y26178572D02*
X40619047Y26273810D01*
X40619047Y26273810D02*
X40666666Y26321429D01*
X40666666Y26321429D02*
X40761904Y26369048D01*
X40761904Y26369048D02*
X40857142Y26369048D01*
X40857142Y26369048D02*
X40952380Y26321429D01*
X40952380Y26321429D02*
X41000000Y26273810D01*
X41000000Y26273810D02*
X41047619Y26178572D01*
X41047619Y26178572D02*
X41047619Y25940477D01*
X41047619Y25940477D02*
X41000000Y25797620D01*
X41047619Y25511905D02*
X41047619Y24940477D01*
X40047619Y25226191D02*
X41047619Y25226191D01*
X40571428Y24607143D02*
X40571428Y24273810D01*
X40047619Y24130953D02*
X40047619Y24607143D01*
X40047619Y24607143D02*
X41047619Y24607143D01*
X41047619Y24607143D02*
X41047619Y24130953D01*
X40047619Y23702381D02*
X41047619Y23702381D01*
X41047619Y23702381D02*
X41047619Y23321429D01*
X41047619Y23321429D02*
X41000000Y23226191D01*
X41000000Y23226191D02*
X40952380Y23178572D01*
X40952380Y23178572D02*
X40857142Y23130953D01*
X40857142Y23130953D02*
X40714285Y23130953D01*
X40714285Y23130953D02*
X40619047Y23178572D01*
X40619047Y23178572D02*
X40571428Y23226191D01*
X40571428Y23226191D02*
X40523809Y23321429D01*
X40523809Y23321429D02*
X40523809Y23702381D01*
D12*
X20812837Y39606229D02*
X21003313Y39072896D01*
X21003313Y39072896D02*
X21193790Y39606229D01*
X21650933Y39872896D02*
X21727123Y39872896D01*
X21727123Y39872896D02*
X21803314Y39834800D01*
X21803314Y39834800D02*
X21841409Y39796705D01*
X21841409Y39796705D02*
X21879504Y39720515D01*
X21879504Y39720515D02*
X21917599Y39568134D01*
X21917599Y39568134D02*
X21917599Y39377658D01*
X21917599Y39377658D02*
X21879504Y39225277D01*
X21879504Y39225277D02*
X21841409Y39149086D01*
X21841409Y39149086D02*
X21803314Y39110991D01*
X21803314Y39110991D02*
X21727123Y39072896D01*
X21727123Y39072896D02*
X21650933Y39072896D01*
X21650933Y39072896D02*
X21574742Y39110991D01*
X21574742Y39110991D02*
X21536647Y39149086D01*
X21536647Y39149086D02*
X21498552Y39225277D01*
X21498552Y39225277D02*
X21460456Y39377658D01*
X21460456Y39377658D02*
X21460456Y39568134D01*
X21460456Y39568134D02*
X21498552Y39720515D01*
X21498552Y39720515D02*
X21536647Y39796705D01*
X21536647Y39796705D02*
X21574742Y39834800D01*
X21574742Y39834800D02*
X21650933Y39872896D01*
X22260457Y39149086D02*
X22298552Y39110991D01*
X22298552Y39110991D02*
X22260457Y39072896D01*
X22260457Y39072896D02*
X22222361Y39110991D01*
X22222361Y39110991D02*
X22260457Y39149086D01*
X22260457Y39149086D02*
X22260457Y39072896D01*
X22565218Y39872896D02*
X23098552Y39872896D01*
X23098552Y39872896D02*
X22755694Y39072896D01*
X23403314Y39606229D02*
X23403314Y38806229D01*
X23403314Y39568134D02*
X23479504Y39606229D01*
X23479504Y39606229D02*
X23631885Y39606229D01*
X23631885Y39606229D02*
X23708076Y39568134D01*
X23708076Y39568134D02*
X23746171Y39530039D01*
X23746171Y39530039D02*
X23784266Y39453848D01*
X23784266Y39453848D02*
X23784266Y39225277D01*
X23784266Y39225277D02*
X23746171Y39149086D01*
X23746171Y39149086D02*
X23708076Y39110991D01*
X23708076Y39110991D02*
X23631885Y39072896D01*
X23631885Y39072896D02*
X23479504Y39072896D01*
X23479504Y39072896D02*
X23403314Y39110991D01*
D11*
X21893810Y28908096D02*
X22160477Y28108096D01*
X22160477Y28108096D02*
X22427143Y28908096D01*
X22693810Y28108096D02*
X22693810Y28908096D01*
X23074762Y28108096D02*
X23074762Y28908096D01*
X23074762Y28908096D02*
X23531905Y28108096D01*
X23531905Y28108096D02*
X23531905Y28908096D01*
X1228571Y4885715D02*
X1228571Y5219048D01*
X1752380Y5361905D02*
X1752380Y4885715D01*
X1752380Y4885715D02*
X752380Y4885715D01*
X752380Y4885715D02*
X752380Y5361905D01*
X1752380Y5790477D02*
X752380Y5790477D01*
X752380Y5790477D02*
X1752380Y6361905D01*
X1752380Y6361905D02*
X752380Y6361905D01*
X1752380Y6838096D02*
X752380Y6838096D01*
X752380Y6838096D02*
X752380Y7076191D01*
X752380Y7076191D02*
X800000Y7219048D01*
X800000Y7219048D02*
X895238Y7314286D01*
X895238Y7314286D02*
X990476Y7361905D01*
X990476Y7361905D02*
X1180952Y7409524D01*
X1180952Y7409524D02*
X1323809Y7409524D01*
X1323809Y7409524D02*
X1514285Y7361905D01*
X1514285Y7361905D02*
X1609523Y7314286D01*
X1609523Y7314286D02*
X1704761Y7219048D01*
X1704761Y7219048D02*
X1752380Y7076191D01*
X1752380Y7076191D02*
X1752380Y6838096D01*
X1704761Y7790477D02*
X1752380Y7933334D01*
X1752380Y7933334D02*
X1752380Y8171429D01*
X1752380Y8171429D02*
X1704761Y8266667D01*
X1704761Y8266667D02*
X1657142Y8314286D01*
X1657142Y8314286D02*
X1561904Y8361905D01*
X1561904Y8361905D02*
X1466666Y8361905D01*
X1466666Y8361905D02*
X1371428Y8314286D01*
X1371428Y8314286D02*
X1323809Y8266667D01*
X1323809Y8266667D02*
X1276190Y8171429D01*
X1276190Y8171429D02*
X1228571Y7980953D01*
X1228571Y7980953D02*
X1180952Y7885715D01*
X1180952Y7885715D02*
X1133333Y7838096D01*
X1133333Y7838096D02*
X1038095Y7790477D01*
X1038095Y7790477D02*
X942857Y7790477D01*
X942857Y7790477D02*
X847619Y7838096D01*
X847619Y7838096D02*
X800000Y7885715D01*
X800000Y7885715D02*
X752380Y7980953D01*
X752380Y7980953D02*
X752380Y8219048D01*
X752380Y8219048D02*
X800000Y8361905D01*
X22335238Y6842858D02*
X22944762Y6842858D01*
X18275238Y1012858D02*
X18884762Y1012858D01*
X18580000Y708096D02*
X18580000Y1317620D01*
X26945238Y992858D02*
X27554762Y992858D01*
X27250000Y688096D02*
X27250000Y1297620D01*
X21478571Y992858D02*
X21745237Y992858D01*
X21745237Y1411905D02*
X21745237Y611905D01*
X21745237Y611905D02*
X21364285Y611905D01*
X21097619Y1183334D02*
X20716666Y1183334D01*
X21173809Y1411905D02*
X20907142Y611905D01*
X20907142Y611905D02*
X20640476Y1411905D01*
X20373809Y1411905D02*
X20373809Y611905D01*
X20373809Y611905D02*
X19916666Y1411905D01*
X19916666Y1411905D02*
X19916666Y611905D01*
X19573810Y688096D02*
X19535714Y650000D01*
X19535714Y650000D02*
X19459524Y611905D01*
X19459524Y611905D02*
X19269048Y611905D01*
X19269048Y611905D02*
X19192857Y650000D01*
X19192857Y650000D02*
X19154762Y688096D01*
X19154762Y688096D02*
X19116667Y764286D01*
X19116667Y764286D02*
X19116667Y840477D01*
X19116667Y840477D02*
X19154762Y954762D01*
X19154762Y954762D02*
X19611905Y1411905D01*
X19611905Y1411905D02*
X19116667Y1411905D01*
X6112380Y30242382D02*
X5112380Y30242382D01*
X5064761Y31432857D02*
X6350476Y30575715D01*
X5112380Y31956667D02*
X5112380Y32147143D01*
X5112380Y32147143D02*
X5160000Y32242381D01*
X5160000Y32242381D02*
X5255238Y32337619D01*
X5255238Y32337619D02*
X5445714Y32385238D01*
X5445714Y32385238D02*
X5779047Y32385238D01*
X5779047Y32385238D02*
X5969523Y32337619D01*
X5969523Y32337619D02*
X6064761Y32242381D01*
X6064761Y32242381D02*
X6112380Y32147143D01*
X6112380Y32147143D02*
X6112380Y31956667D01*
X6112380Y31956667D02*
X6064761Y31861429D01*
X6064761Y31861429D02*
X5969523Y31766191D01*
X5969523Y31766191D02*
X5779047Y31718572D01*
X5779047Y31718572D02*
X5445714Y31718572D01*
X5445714Y31718572D02*
X5255238Y31766191D01*
X5255238Y31766191D02*
X5160000Y31861429D01*
X5160000Y31861429D02*
X5112380Y31956667D01*
X17278571Y611905D02*
X16821428Y611905D01*
X17050000Y1411905D02*
X17050000Y611905D01*
X16554761Y1411905D02*
X16554761Y611905D01*
X16554761Y992858D02*
X16097618Y992858D01*
X16097618Y1411905D02*
X16097618Y611905D01*
X15297619Y1411905D02*
X15754762Y1411905D01*
X15526190Y1411905D02*
X15526190Y611905D01*
X15526190Y611905D02*
X15602381Y726191D01*
X15602381Y726191D02*
X15678571Y802381D01*
X15678571Y802381D02*
X15754762Y840477D01*
X18185238Y6912858D02*
X18794762Y6912858D01*
X18101200Y22643620D02*
X18101200Y22405524D01*
X17863105Y22500762D02*
X18101200Y22405524D01*
X18101200Y22405524D02*
X18339295Y22500762D01*
X17958343Y22215048D02*
X18101200Y22405524D01*
X18101200Y22405524D02*
X18244057Y22215048D01*
X13028571Y611905D02*
X12571428Y611905D01*
X12800000Y1411905D02*
X12800000Y611905D01*
X12304761Y1411905D02*
X12304761Y611905D01*
X12304761Y992858D02*
X11847618Y992858D01*
X11847618Y1411905D02*
X11847618Y611905D01*
X11504762Y688096D02*
X11466666Y650000D01*
X11466666Y650000D02*
X11390476Y611905D01*
X11390476Y611905D02*
X11200000Y611905D01*
X11200000Y611905D02*
X11123809Y650000D01*
X11123809Y650000D02*
X11085714Y688096D01*
X11085714Y688096D02*
X11047619Y764286D01*
X11047619Y764286D02*
X11047619Y840477D01*
X11047619Y840477D02*
X11085714Y954762D01*
X11085714Y954762D02*
X11542857Y1411905D01*
X11542857Y1411905D02*
X11047619Y1411905D01*
D12*
X20660477Y40342896D02*
X20660477Y41142896D01*
X20660477Y40761943D02*
X21117620Y40761943D01*
X21117620Y40342896D02*
X21117620Y41142896D01*
X21498572Y41142896D02*
X21498572Y40495277D01*
X21498572Y40495277D02*
X21536667Y40419086D01*
X21536667Y40419086D02*
X21574762Y40380991D01*
X21574762Y40380991D02*
X21650953Y40342896D01*
X21650953Y40342896D02*
X21803334Y40342896D01*
X21803334Y40342896D02*
X21879524Y40380991D01*
X21879524Y40380991D02*
X21917619Y40419086D01*
X21917619Y40419086D02*
X21955715Y40495277D01*
X21955715Y40495277D02*
X21955715Y41142896D01*
X22222381Y41142896D02*
X22489048Y40342896D01*
X22489048Y40342896D02*
X22755714Y41142896D01*
X23022381Y41142896D02*
X23022381Y40495277D01*
X23022381Y40495277D02*
X23060476Y40419086D01*
X23060476Y40419086D02*
X23098571Y40380991D01*
X23098571Y40380991D02*
X23174762Y40342896D01*
X23174762Y40342896D02*
X23327143Y40342896D01*
X23327143Y40342896D02*
X23403333Y40380991D01*
X23403333Y40380991D02*
X23441428Y40419086D01*
X23441428Y40419086D02*
X23479524Y40495277D01*
X23479524Y40495277D02*
X23479524Y41142896D01*
X23860476Y40342896D02*
X23860476Y41142896D01*
X23860476Y41142896D02*
X24050952Y41142896D01*
X24050952Y41142896D02*
X24165238Y41104800D01*
X24165238Y41104800D02*
X24241428Y41028610D01*
X24241428Y41028610D02*
X24279523Y40952420D01*
X24279523Y40952420D02*
X24317619Y40800039D01*
X24317619Y40800039D02*
X24317619Y40685753D01*
X24317619Y40685753D02*
X24279523Y40533372D01*
X24279523Y40533372D02*
X24241428Y40457181D01*
X24241428Y40457181D02*
X24165238Y40380991D01*
X24165238Y40380991D02*
X24050952Y40342896D01*
X24050952Y40342896D02*
X23860476Y40342896D01*
D11*
X30148571Y972858D02*
X30415237Y972858D01*
X30415237Y1391905D02*
X30415237Y591905D01*
X30415237Y591905D02*
X30034285Y591905D01*
X29767619Y1163334D02*
X29386666Y1163334D01*
X29843809Y1391905D02*
X29577142Y591905D01*
X29577142Y591905D02*
X29310476Y1391905D01*
X29043809Y1391905D02*
X29043809Y591905D01*
X29043809Y591905D02*
X28586666Y1391905D01*
X28586666Y1391905D02*
X28586666Y591905D01*
X28053333Y591905D02*
X27977143Y591905D01*
X27977143Y591905D02*
X27900952Y630000D01*
X27900952Y630000D02*
X27862857Y668096D01*
X27862857Y668096D02*
X27824762Y744286D01*
X27824762Y744286D02*
X27786667Y896667D01*
X27786667Y896667D02*
X27786667Y1087143D01*
X27786667Y1087143D02*
X27824762Y1239524D01*
X27824762Y1239524D02*
X27862857Y1315715D01*
X27862857Y1315715D02*
X27900952Y1353810D01*
X27900952Y1353810D02*
X27977143Y1391905D01*
X27977143Y1391905D02*
X28053333Y1391905D01*
X28053333Y1391905D02*
X28129524Y1353810D01*
X28129524Y1353810D02*
X28167619Y1315715D01*
X28167619Y1315715D02*
X28205714Y1239524D01*
X28205714Y1239524D02*
X28243810Y1087143D01*
X28243810Y1087143D02*
X28243810Y896667D01*
X28243810Y896667D02*
X28205714Y744286D01*
X28205714Y744286D02*
X28167619Y668096D01*
X28167619Y668096D02*
X28129524Y630000D01*
X28129524Y630000D02*
X28053333Y591905D01*
X22555238Y1012858D02*
X23164762Y1012858D01*
X22860000Y708096D02*
X22860000Y1317620D01*
D13*
X24058571Y23090715D02*
X24522857Y23090715D01*
X24522857Y23090715D02*
X24272857Y22805000D01*
X24272857Y22805000D02*
X24380000Y22805000D01*
X24380000Y22805000D02*
X24451429Y22769286D01*
X24451429Y22769286D02*
X24487143Y22733572D01*
X24487143Y22733572D02*
X24522857Y22662143D01*
X24522857Y22662143D02*
X24522857Y22483572D01*
X24522857Y22483572D02*
X24487143Y22412143D01*
X24487143Y22412143D02*
X24451429Y22376429D01*
X24451429Y22376429D02*
X24380000Y22340715D01*
X24380000Y22340715D02*
X24165714Y22340715D01*
X24165714Y22340715D02*
X24094286Y22376429D01*
X24094286Y22376429D02*
X24058571Y22412143D01*
X24737143Y23090715D02*
X24987143Y22340715D01*
X24987143Y22340715D02*
X25237143Y23090715D01*
D11*
X30532380Y19470001D02*
X30770476Y19470001D01*
X30675238Y19231906D02*
X30770476Y19470001D01*
X30770476Y19470001D02*
X30675238Y19708096D01*
X30960952Y19327144D02*
X30770476Y19470001D01*
X30770476Y19470001D02*
X30960952Y19612858D01*
X20402380Y22858301D02*
X20640476Y22858301D01*
X20545238Y22620206D02*
X20640476Y22858301D01*
X20640476Y22858301D02*
X20545238Y23096396D01*
X20830952Y22715444D02*
X20640476Y22858301D01*
X20640476Y22858301D02*
X20830952Y23001158D01*
D14*
X2570000Y8990000D02*
X4480000Y8990000D01*
X4480000Y8990000D02*
X4480000Y10900000D01*
X570000Y9300000D02*
X4170000Y9300000D01*
X2120000Y9300000D02*
X2120000Y9600000D01*
X2870000Y9300000D02*
X2870000Y9600000D01*
X4170000Y9300000D02*
X4170000Y18650000D01*
X1020000Y9600000D02*
X1020000Y9900000D01*
X2120000Y9600000D02*
X1020000Y9600000D01*
X2870000Y9600000D02*
X3870000Y9600000D01*
X3870000Y9600000D02*
X3870000Y18350000D01*
X1020000Y9900000D02*
X570000Y9900000D01*
X1020000Y9900000D02*
X1020000Y11100000D01*
X720000Y11100000D02*
X720000Y11850000D01*
X1020000Y11100000D02*
X720000Y11100000D01*
X720000Y11850000D02*
X1020000Y11850000D01*
X1020000Y11850000D02*
X1020000Y16100000D01*
X720000Y16100000D02*
X720000Y16850000D01*
X1020000Y16100000D02*
X720000Y16100000D01*
X720000Y16850000D02*
X1020000Y16850000D01*
X1020000Y16850000D02*
X1020000Y18050000D01*
X1020000Y18050000D02*
X570000Y18050000D01*
X1020000Y18350000D02*
X1020000Y18050000D01*
X2120000Y18350000D02*
X1020000Y18350000D01*
X2870000Y18350000D02*
X2870000Y18650000D01*
X3870000Y18350000D02*
X2870000Y18350000D01*
X570000Y18650000D02*
X570000Y9300000D01*
X2120000Y18650000D02*
X2120000Y18350000D01*
X4170000Y18650000D02*
X570000Y18650000D01*
X24550000Y6335000D02*
X22640000Y6335000D01*
X22640000Y6335000D02*
X22640000Y4425000D01*
X26550000Y6025000D02*
X22950000Y6025000D01*
X25000000Y6025000D02*
X25000000Y5725000D01*
X24250000Y6025000D02*
X24250000Y5725000D01*
X22950000Y6025000D02*
X22950000Y1675000D01*
X26100000Y5725000D02*
X26100000Y5425000D01*
X25000000Y5725000D02*
X26100000Y5725000D01*
X24250000Y5725000D02*
X23250000Y5725000D01*
X23250000Y5725000D02*
X23250000Y1975000D01*
X26100000Y5425000D02*
X26550000Y5425000D01*
X26100000Y5425000D02*
X26100000Y4225000D01*
X26400000Y4225000D02*
X26400000Y3475000D01*
X26100000Y4225000D02*
X26400000Y4225000D01*
X26400000Y3475000D02*
X26100000Y3475000D01*
X26100000Y3475000D02*
X26100000Y2275000D01*
X26100000Y2275000D02*
X26550000Y2275000D01*
X26100000Y1975000D02*
X26100000Y2275000D01*
X25000000Y1975000D02*
X26100000Y1975000D01*
X24250000Y1975000D02*
X24250000Y1675000D01*
X23250000Y1975000D02*
X24250000Y1975000D01*
X26550000Y1675000D02*
X26550000Y6025000D01*
X25000000Y1675000D02*
X25000000Y1975000D01*
X22950000Y1675000D02*
X26550000Y1675000D01*
X24207836Y17440000D02*
X23992164Y17440000D01*
X24207836Y18160000D02*
X23992164Y18160000D01*
X25892164Y13060000D02*
X26107836Y13060000D01*
X25892164Y12340000D02*
X26107836Y12340000D01*
X29540580Y22440000D02*
X29259420Y22440000D01*
X29540580Y23460000D02*
X29259420Y23460000D01*
X26459420Y21685000D02*
X26740580Y21685000D01*
X26459420Y20665000D02*
X26740580Y20665000D01*
X29390580Y9390000D02*
X29109420Y9390000D01*
X29390580Y10410000D02*
X29109420Y10410000D01*
X34960000Y21527064D02*
X34960000Y20072936D01*
X33140000Y21527064D02*
X33140000Y20072936D01*
X33140000Y11272936D02*
X33140000Y12727064D01*
X34960000Y11272936D02*
X34960000Y12727064D01*
X15950000Y6335000D02*
X14040000Y6335000D01*
X14040000Y6335000D02*
X14040000Y4425000D01*
X17950000Y6025000D02*
X14350000Y6025000D01*
X16400000Y6025000D02*
X16400000Y5725000D01*
X15650000Y6025000D02*
X15650000Y5725000D01*
X14350000Y6025000D02*
X14350000Y1675000D01*
X17500000Y5725000D02*
X17500000Y5425000D01*
X16400000Y5725000D02*
X17500000Y5725000D01*
X15650000Y5725000D02*
X14650000Y5725000D01*
X14650000Y5725000D02*
X14650000Y1975000D01*
X17500000Y5425000D02*
X17950000Y5425000D01*
X17500000Y5425000D02*
X17500000Y4225000D01*
X17800000Y4225000D02*
X17800000Y3475000D01*
X17500000Y4225000D02*
X17800000Y4225000D01*
X17800000Y3475000D02*
X17500000Y3475000D01*
X17500000Y3475000D02*
X17500000Y2275000D01*
X17500000Y2275000D02*
X17950000Y2275000D01*
X17500000Y1975000D02*
X17500000Y2275000D01*
X16400000Y1975000D02*
X17500000Y1975000D01*
X15650000Y1975000D02*
X15650000Y1675000D01*
X14650000Y1975000D02*
X15650000Y1975000D01*
X17950000Y1675000D02*
X17950000Y6025000D01*
X16400000Y1675000D02*
X16400000Y1975000D01*
X14350000Y1675000D02*
X17950000Y1675000D01*
X4108200Y28967000D02*
X2978200Y28967000D01*
X4108200Y29727000D02*
X4108200Y28967000D01*
X4108200Y30487000D02*
X4108200Y32962000D01*
X4108200Y30487000D02*
X3541671Y30487000D01*
X4108200Y32962000D02*
X3285730Y32962000D01*
X2670670Y32962000D02*
X2015730Y32962000D01*
X2414729Y30487000D02*
X2271671Y30487000D01*
X2218200Y29032000D02*
X2015730Y29032000D01*
X2218200Y29163529D02*
X2218200Y29032000D01*
X2218200Y30433529D02*
X2218200Y30290471D01*
X1400670Y29032000D02*
X578200Y29032000D01*
X1400670Y32962000D02*
X578200Y32962000D01*
X578200Y29032000D02*
X578200Y32962000D01*
X20250000Y6335000D02*
X18340000Y6335000D01*
X18340000Y6335000D02*
X18340000Y4425000D01*
X22250000Y6025000D02*
X18650000Y6025000D01*
X20700000Y6025000D02*
X20700000Y5725000D01*
X19950000Y6025000D02*
X19950000Y5725000D01*
X18650000Y6025000D02*
X18650000Y1675000D01*
X21800000Y5725000D02*
X21800000Y5425000D01*
X20700000Y5725000D02*
X21800000Y5725000D01*
X19950000Y5725000D02*
X18950000Y5725000D01*
X18950000Y5725000D02*
X18950000Y1975000D01*
X21800000Y5425000D02*
X22250000Y5425000D01*
X21800000Y5425000D02*
X21800000Y4225000D01*
X22100000Y4225000D02*
X22100000Y3475000D01*
X21800000Y4225000D02*
X22100000Y4225000D01*
X22100000Y3475000D02*
X21800000Y3475000D01*
X21800000Y3475000D02*
X21800000Y2275000D01*
X21800000Y2275000D02*
X22250000Y2275000D01*
X21800000Y1975000D02*
X21800000Y2275000D01*
X20700000Y1975000D02*
X21800000Y1975000D01*
X19950000Y1975000D02*
X19950000Y1675000D01*
X18950000Y1975000D02*
X19950000Y1975000D01*
X22250000Y1675000D02*
X22250000Y6025000D01*
X20700000Y1675000D02*
X20700000Y1975000D01*
X18650000Y1675000D02*
X22250000Y1675000D01*
D15*
X31016700Y19004100D02*
X30332940Y19004100D01*
X26442660Y19004100D02*
X25758900Y19004100D01*
X25758900Y19004100D02*
X25758900Y18320340D01*
X31016700Y18320340D02*
X31016700Y19004100D01*
X25758900Y14430060D02*
X25758900Y13746300D01*
X31016700Y13746300D02*
X31016700Y14430060D01*
X30332940Y13746300D02*
X31016700Y13746300D01*
X25758900Y13746300D02*
X26442660Y13746300D01*
D14*
X23941959Y14973600D02*
X24249241Y14973600D01*
X23941959Y14213600D02*
X24249241Y14213600D01*
X24249241Y15178800D02*
X23941959Y15178800D01*
X24249241Y15938800D02*
X23941959Y15938800D01*
X27120000Y29425000D02*
X27120000Y32425000D01*
X23900000Y30925000D02*
X23900000Y32425000D01*
X30205848Y26237600D02*
X31628352Y26237600D01*
X30205848Y24417600D02*
X31628352Y24417600D01*
X35990000Y24309420D02*
X35990000Y24590580D01*
X37010000Y24309420D02*
X37010000Y24590580D01*
X25015000Y42730000D02*
X26015000Y43730000D01*
X25015000Y33600000D02*
X25015000Y42730000D01*
X26015000Y43730000D02*
X31385000Y43730000D01*
X31385000Y43730000D02*
X32385000Y42730000D01*
X32385000Y42730000D02*
X32385000Y33600000D01*
X32385000Y33600000D02*
X25015000Y33600000D01*
X41187500Y27602500D02*
X40400000Y27602500D01*
X40793750Y27208750D02*
X40793750Y27996250D01*
X40160000Y27104437D02*
X40160000Y28390000D01*
X40160000Y27104437D02*
X39095563Y26040000D01*
X40160000Y31795563D02*
X40160000Y30510000D01*
X40160000Y31795563D02*
X39095563Y32860000D01*
X39095563Y26040000D02*
X33340000Y26040000D01*
X39095563Y32860000D02*
X33340000Y32860000D01*
X33340000Y26040000D02*
X33340000Y28390000D01*
X33340000Y32860000D02*
X33340000Y30510000D01*
X35288500Y9674000D02*
X36538500Y9674000D01*
X35578500Y9964000D02*
X41548500Y9964000D01*
X41548500Y9964000D02*
X41548500Y22584000D01*
X35588500Y9974000D02*
X36338500Y9974000D01*
X36338500Y9974000D02*
X36338500Y11774000D01*
X37838500Y9974000D02*
X37838500Y10724000D01*
X37838500Y10724000D02*
X40788500Y10724000D01*
X40788500Y10724000D02*
X40788500Y16274000D01*
X35288500Y10924000D02*
X35288500Y9674000D01*
X35588500Y11774000D02*
X35588500Y9974000D01*
X36338500Y11774000D02*
X35588500Y11774000D01*
X35588500Y13274000D02*
X36338500Y13274000D01*
X36338500Y13274000D02*
X36338500Y19274000D01*
X35588500Y19274000D02*
X35588500Y13274000D01*
X36338500Y19274000D02*
X35588500Y19274000D01*
X35588500Y20774000D02*
X36338500Y20774000D01*
X36338500Y20774000D02*
X36338500Y22574000D01*
X37838500Y21824000D02*
X40788500Y21824000D01*
X40788500Y21824000D02*
X40788500Y16274000D01*
X35588500Y22574000D02*
X35588500Y20774000D01*
X36338500Y22574000D02*
X35588500Y22574000D01*
X37838500Y22574000D02*
X37838500Y21824000D01*
X35578500Y22584000D02*
X35578500Y9964000D01*
X41548500Y22584000D02*
X35578500Y22584000D01*
X23790000Y19759420D02*
X23790000Y20040580D01*
X24810000Y19759420D02*
X24810000Y20040580D01*
X6060400Y10104000D02*
X5010400Y10104000D01*
X7180400Y15324000D02*
X8230400Y15324000D01*
X7180400Y10104000D02*
X8230400Y10104000D01*
X27726800Y23078441D02*
X27726800Y22771159D01*
X26966800Y23078441D02*
X26966800Y22771159D01*
X32040000Y18992164D02*
X32040000Y19207836D01*
X32760000Y18992164D02*
X32760000Y19207836D01*
X24453641Y25230000D02*
X24146359Y25230000D01*
X24453641Y25990000D02*
X24146359Y25990000D01*
X20870800Y11188759D02*
X20870800Y11496041D01*
X21630800Y11188759D02*
X21630800Y11496041D01*
X5758041Y16042400D02*
X5450759Y16042400D01*
X5758041Y16802400D02*
X5450759Y16802400D01*
X19864400Y8497600D02*
X19864400Y10172600D01*
X19864400Y8497600D02*
X19864400Y7847600D01*
X16744400Y8497600D02*
X16744400Y9147600D01*
X16744400Y8497600D02*
X16744400Y7847600D01*
X22059200Y15642164D02*
X22059200Y15857836D01*
X22779200Y15642164D02*
X22779200Y15857836D01*
X24131600Y8446800D02*
X24131600Y10121800D01*
X24131600Y8446800D02*
X24131600Y7796800D01*
X21011600Y8446800D02*
X21011600Y9096800D01*
X21011600Y8446800D02*
X21011600Y7796800D01*
X2002000Y28112636D02*
X2002000Y27896964D01*
X1282000Y28112636D02*
X1282000Y27896964D01*
D13*
X8670000Y24290000D02*
G75*
G03*
X8670000Y24290000I-50000J0D01*
G01*
X28362000Y6391600D02*
G75*
G03*
X28362000Y6391600I-50000J0D01*
G01*
D14*
X23281559Y12230400D02*
X23588841Y12230400D01*
X23281559Y11470400D02*
X23588841Y11470400D01*
X5836000Y27553641D02*
X5836000Y27246359D01*
X5076000Y27553641D02*
X5076000Y27246359D01*
X13340000Y29497836D02*
X13340000Y29282164D01*
X12620000Y29497836D02*
X12620000Y29282164D01*
X27687600Y9361200D02*
X27687600Y11036200D01*
X27687600Y9361200D02*
X27687600Y8711200D01*
X24567600Y9361200D02*
X24567600Y10011200D01*
X24567600Y9361200D02*
X24567600Y8711200D01*
X35560000Y25107836D02*
X35560000Y24892164D01*
X34840000Y25107836D02*
X34840000Y24892164D01*
X17665000Y23467164D02*
X17665000Y23682836D01*
X18385000Y23467164D02*
X18385000Y23682836D01*
X23110000Y22082836D02*
X23110000Y21867164D01*
X22390000Y22082836D02*
X22390000Y21867164D01*
X22500000Y36821252D02*
X22500000Y35398748D01*
X20680000Y36821252D02*
X20680000Y35398748D01*
X5501559Y20002800D02*
X5808841Y20002800D01*
X5501559Y19242800D02*
X5808841Y19242800D01*
X11746800Y7272164D02*
X11746800Y7487836D01*
X12466800Y7272164D02*
X12466800Y7487836D01*
X4800000Y27507836D02*
X4800000Y27292164D01*
X4080000Y27507836D02*
X4080000Y27292164D01*
X3094800Y27246359D02*
X3094800Y27553641D01*
X3854800Y27246359D02*
X3854800Y27553641D01*
X23281559Y13246400D02*
X23588841Y13246400D01*
X23281559Y12486400D02*
X23588841Y12486400D01*
X9230000Y23041359D02*
X9230000Y23348641D01*
X9990000Y23041359D02*
X9990000Y23348641D01*
X10755000Y28808748D02*
X10755000Y29331252D01*
X12225000Y28808748D02*
X12225000Y29331252D01*
X32760000Y13757836D02*
X32760000Y13542164D01*
X32040000Y13757836D02*
X32040000Y13542164D01*
X28897200Y7327959D02*
X28897200Y7635241D01*
X29657200Y7327959D02*
X29657200Y7635241D01*
X18400000Y27440000D02*
X18400000Y25640000D01*
X18400000Y27440000D02*
X18400000Y28240000D01*
X21520000Y27440000D02*
X21520000Y26640000D01*
X21520000Y27440000D02*
X21520000Y28240000D01*
X20892164Y20410000D02*
X21107836Y20410000D01*
X20892164Y19690000D02*
X21107836Y19690000D01*
X11189200Y22048400D02*
X11839200Y22048400D01*
X18409200Y21398400D02*
X18409200Y22048400D01*
X11189200Y21398400D02*
X11189200Y22048400D01*
X18409200Y15478400D02*
X18409200Y14828400D01*
X11189200Y15478400D02*
X11189200Y14828400D01*
X18409200Y14828400D02*
X17759200Y14828400D01*
X11189200Y14828400D02*
X11839200Y14828400D01*
X5801364Y24402400D02*
X6017036Y24402400D01*
X5801364Y23682400D02*
X6017036Y23682400D01*
X5519364Y17798400D02*
X5735036Y17798400D01*
X5519364Y17078400D02*
X5735036Y17078400D01*
X25345000Y23555000D02*
X25345000Y25025000D01*
X25345000Y25025000D02*
X23060000Y25025000D01*
X23060000Y23555000D02*
X25345000Y23555000D01*
X26281241Y6542800D02*
X25973959Y6542800D01*
X26281241Y7302800D02*
X25973959Y7302800D01*
X13082500Y25197258D02*
X13082500Y24722742D01*
X12037500Y25197258D02*
X12037500Y24722742D01*
X16412064Y27340000D02*
X15207936Y27340000D01*
X16412064Y30060000D02*
X15207936Y30060000D01*
X19819700Y23634063D02*
X19819700Y23000935D01*
X22080300Y23000935D02*
X22080300Y23634063D01*
X19819700Y22715665D02*
X19819700Y22082537D01*
X22080300Y22082537D02*
X22080300Y22715665D01*
X21801600Y25209099D02*
G75*
G03*
X21801600Y25209099I-101600J0D01*
G01*
X11470800Y7533641D02*
X11470800Y7226359D01*
X10710800Y7533641D02*
X10710800Y7226359D01*
X20892164Y19460000D02*
X21107836Y19460000D01*
X20892164Y18740000D02*
X21107836Y18740000D01*
X18024000Y11546841D02*
X18024000Y11239559D01*
X17264000Y11546841D02*
X17264000Y11239559D01*
X21830000Y26736359D02*
X21830000Y27043641D01*
X22590000Y26736359D02*
X22590000Y27043641D01*
X5402441Y28996400D02*
X5095159Y28996400D01*
X5402441Y29756400D02*
X5095159Y29756400D01*
X28850000Y6335000D02*
X26940000Y6335000D01*
X26940000Y6335000D02*
X26940000Y4425000D01*
X30850000Y6025000D02*
X27250000Y6025000D01*
X29300000Y6025000D02*
X29300000Y5725000D01*
X28550000Y6025000D02*
X28550000Y5725000D01*
X27250000Y6025000D02*
X27250000Y1675000D01*
X30400000Y5725000D02*
X30400000Y5425000D01*
X29300000Y5725000D02*
X30400000Y5725000D01*
X28550000Y5725000D02*
X27550000Y5725000D01*
X27550000Y5725000D02*
X27550000Y1975000D01*
X30400000Y5425000D02*
X30850000Y5425000D01*
X30400000Y5425000D02*
X30400000Y4225000D01*
X30700000Y4225000D02*
X30700000Y3475000D01*
X30400000Y4225000D02*
X30700000Y4225000D01*
X30700000Y3475000D02*
X30400000Y3475000D01*
X30400000Y3475000D02*
X30400000Y2275000D01*
X30400000Y2275000D02*
X30850000Y2275000D01*
X30400000Y1975000D02*
X30400000Y2275000D01*
X29300000Y1975000D02*
X30400000Y1975000D01*
X28550000Y1975000D02*
X28550000Y1675000D01*
X27550000Y1975000D02*
X28550000Y1975000D01*
X30850000Y1675000D02*
X30850000Y6025000D01*
X29300000Y1675000D02*
X29300000Y1975000D01*
X27250000Y1675000D02*
X30850000Y1675000D01*
X22240000Y30352164D02*
X22240000Y30567836D01*
X22960000Y30352164D02*
X22960000Y30567836D01*
D13*
X19398000Y6973600D02*
G75*
G03*
X19398000Y6973600I-50000J0D01*
G01*
D14*
X3667764Y19982800D02*
X3883436Y19982800D01*
X3667764Y19262800D02*
X3883436Y19262800D01*
X8450000Y24380000D02*
X10360000Y24380000D01*
X10360000Y24380000D02*
X10360000Y26290000D01*
X6450000Y24690000D02*
X10050000Y24690000D01*
X8000000Y24690000D02*
X8000000Y24990000D01*
X8750000Y24690000D02*
X8750000Y24990000D01*
X10050000Y24690000D02*
X10050000Y32790000D01*
X6900000Y24990000D02*
X6900000Y25290000D01*
X8000000Y24990000D02*
X6900000Y24990000D01*
X8750000Y24990000D02*
X9750000Y24990000D01*
X9750000Y24990000D02*
X9750000Y32490000D01*
X6900000Y25290000D02*
X6450000Y25290000D01*
X6900000Y25290000D02*
X6900000Y26490000D01*
X6600000Y26490000D02*
X6600000Y27240000D01*
X6900000Y26490000D02*
X6600000Y26490000D01*
X6600000Y27240000D02*
X6900000Y27240000D01*
X6900000Y27240000D02*
X6900000Y30240000D01*
X6600000Y30240000D02*
X6600000Y30990000D01*
X6900000Y30240000D02*
X6600000Y30240000D01*
X6600000Y30990000D02*
X6900000Y30990000D01*
X6900000Y30990000D02*
X6900000Y32190000D01*
X6900000Y32190000D02*
X6450000Y32190000D01*
X6900000Y32490000D02*
X6900000Y32190000D01*
X8000000Y32490000D02*
X6900000Y32490000D01*
X8750000Y32490000D02*
X8750000Y32790000D01*
X9750000Y32490000D02*
X8750000Y32490000D01*
X6450000Y32790000D02*
X6450000Y24690000D01*
X8000000Y32790000D02*
X8000000Y32490000D01*
X10050000Y32790000D02*
X6450000Y32790000D01*
X16613200Y10377200D02*
X16613200Y12052200D01*
X16613200Y10377200D02*
X16613200Y9727200D01*
X13493200Y10377200D02*
X13493200Y11027200D01*
X13493200Y10377200D02*
X13493200Y9727200D01*
X22230000Y32222164D02*
X22230000Y32437836D01*
X22950000Y32222164D02*
X22950000Y32437836D01*
X12600000Y27276359D02*
X12600000Y27583641D01*
X13360000Y27276359D02*
X13360000Y27583641D01*
X13169200Y7221364D02*
X13169200Y7437036D01*
X13889200Y7221364D02*
X13889200Y7437036D01*
X13460000Y24182164D02*
X13460000Y24397836D01*
X14180000Y24182164D02*
X14180000Y24397836D01*
X17437836Y24570000D02*
X17222164Y24570000D01*
X17437836Y25290000D02*
X17222164Y25290000D01*
X8811036Y18390000D02*
X8595364Y18390000D01*
X8811036Y19110000D02*
X8595364Y19110000D01*
X38390000Y24842164D02*
X38390000Y25057836D01*
X39110000Y24842164D02*
X39110000Y25057836D01*
X21596359Y14630000D02*
X21903641Y14630000D01*
X21596359Y13870000D02*
X21903641Y13870000D01*
X13228800Y11399436D02*
X13228800Y11183764D01*
X12508800Y11399436D02*
X12508800Y11183764D01*
X20846359Y15630000D02*
X21153641Y15630000D01*
X20846359Y14870000D02*
X21153641Y14870000D01*
X9610000Y42725000D02*
X10610000Y43725000D01*
X9610000Y33595000D02*
X9610000Y42725000D01*
X10610000Y43725000D02*
X18980000Y43725000D01*
X18980000Y43725000D02*
X19980000Y42725000D01*
X19980000Y42725000D02*
X19980000Y33595000D01*
X19980000Y33595000D02*
X9610000Y33595000D01*
X11650000Y6335000D02*
X9740000Y6335000D01*
X9740000Y6335000D02*
X9740000Y4425000D01*
X13650000Y6025000D02*
X10050000Y6025000D01*
X12100000Y6025000D02*
X12100000Y5725000D01*
X11350000Y6025000D02*
X11350000Y5725000D01*
X10050000Y6025000D02*
X10050000Y1675000D01*
X13200000Y5725000D02*
X13200000Y5425000D01*
X12100000Y5725000D02*
X13200000Y5725000D01*
X11350000Y5725000D02*
X10350000Y5725000D01*
X10350000Y5725000D02*
X10350000Y1975000D01*
X13200000Y5425000D02*
X13650000Y5425000D01*
X13200000Y5425000D02*
X13200000Y4225000D01*
X13500000Y4225000D02*
X13500000Y3475000D01*
X13200000Y4225000D02*
X13500000Y4225000D01*
X13500000Y3475000D02*
X13200000Y3475000D01*
X13200000Y3475000D02*
X13200000Y2275000D01*
X13200000Y2275000D02*
X13650000Y2275000D01*
X13200000Y1975000D02*
X13200000Y2275000D01*
X12100000Y1975000D02*
X13200000Y1975000D01*
X11350000Y1975000D02*
X11350000Y1675000D01*
X10350000Y1975000D02*
X11350000Y1975000D01*
X13650000Y1675000D02*
X13650000Y6025000D01*
X12100000Y1675000D02*
X12100000Y1975000D01*
X10050000Y1675000D02*
X13650000Y1675000D01*
X6423436Y9102800D02*
X6207764Y9102800D01*
X6423436Y9822800D02*
X6207764Y9822800D01*
X18963559Y11316000D02*
X19270841Y11316000D01*
X18963559Y10556000D02*
X19270841Y10556000D01*
X20892164Y16560000D02*
X21107836Y16560000D01*
X20892164Y15840000D02*
X21107836Y15840000D01*
X31208841Y31231600D02*
X30901559Y31231600D01*
X31208841Y31991600D02*
X30901559Y31991600D01*
X27220800Y27495559D02*
X27220800Y27802841D01*
X27980800Y27495559D02*
X27980800Y27802841D01*
X14143200Y13357836D02*
X14143200Y13142164D01*
X13423200Y13357836D02*
X13423200Y13142164D01*
X20170000Y29700000D02*
X21845000Y29700000D01*
X20170000Y29700000D02*
X19520000Y29700000D01*
X20170000Y32820000D02*
X20820000Y32820000D01*
X20170000Y32820000D02*
X19520000Y32820000D01*
X7350400Y20157200D02*
X7350400Y23457200D01*
X7350400Y23457200D02*
X3350400Y23457200D01*
X14874400Y7482841D02*
X14874400Y7175559D01*
X14114400Y7482841D02*
X14114400Y7175559D01*
X20546359Y17530000D02*
X20853641Y17530000D01*
X20546359Y16770000D02*
X20853641Y16770000D01*
X4840000Y25597836D02*
X4840000Y25382164D01*
X4120000Y25597836D02*
X4120000Y25382164D01*
X3134800Y25336359D02*
X3134800Y25643641D01*
X3894800Y25336359D02*
X3894800Y25643641D01*
X20546359Y18480000D02*
X20853641Y18480000D01*
X20546359Y17720000D02*
X20853641Y17720000D01*
X16590000Y25310000D02*
X16590000Y27010000D01*
X16590000Y25310000D02*
X14040000Y25310000D01*
X16590000Y27010000D02*
X14040000Y27010000D01*
X5825200Y25643641D02*
X5825200Y25336359D01*
X5065200Y25643641D02*
X5065200Y25336359D01*
X33890000Y24892164D02*
X33890000Y25107836D01*
X34610000Y24892164D02*
X34610000Y25107836D01*
X22519559Y11265200D02*
X22826841Y11265200D01*
X22519559Y10505200D02*
X22826841Y10505200D01*
X5501559Y18834400D02*
X5808841Y18834400D01*
X5501559Y18074400D02*
X5808841Y18074400D01*
X26255600Y27495559D02*
X26255600Y27802841D01*
X27015600Y27495559D02*
X27015600Y27802841D01*
X25755000Y26335000D02*
X25755000Y27805000D01*
X25755000Y27805000D02*
X23470000Y27805000D01*
X23470000Y26335000D02*
X25755000Y26335000D01*
X20818000Y8549641D02*
X20818000Y8242359D01*
X20058000Y8549641D02*
X20058000Y8242359D01*
X8857836Y17390000D02*
X8642164Y17390000D01*
X8857836Y18110000D02*
X8642164Y18110000D01*
D13*
X23208000Y6922800D02*
G75*
G03*
X23208000Y6922800I-50000J0D01*
G01*
D14*
X12295200Y10326400D02*
X12295200Y12001400D01*
X12295200Y10326400D02*
X12295200Y9676400D01*
X9175200Y10326400D02*
X9175200Y10976400D01*
X9175200Y10326400D02*
X9175200Y9676400D01*
X18642164Y13860000D02*
X18857836Y13860000D01*
X18642164Y13140000D02*
X18857836Y13140000D01*
X9745600Y7226359D02*
X9745600Y7533641D01*
X10505600Y7226359D02*
X10505600Y7533641D01*
X38110000Y25057836D02*
X38110000Y24842164D01*
X37390000Y25057836D02*
X37390000Y24842164D01*
D13*
X29980300Y32627600D02*
G75*
G03*
X29980300Y32627600I-50000J0D01*
G01*
D14*
X15079600Y7226359D02*
X15079600Y7533641D01*
X15839600Y7226359D02*
X15839600Y7533641D01*
%LPC*%
D16*
X2870000Y10850000D03*
D17*
X2869999Y12099999D03*
X2869999Y13349999D03*
X2869999Y14599999D03*
X2869999Y15849999D03*
X2869999Y17099999D03*
D18*
X24250000Y4475000D03*
D17*
X24249999Y3224999D03*
D19*
X34100000Y36500000D03*
X34802944Y38197056D03*
X34802944Y34802944D03*
X36500000Y38900000D03*
D20*
X36500000Y36500000D03*
D19*
X36500000Y34100000D03*
X38197056Y38197056D03*
X38197056Y34802944D03*
X38900000Y36500000D03*
X34100000Y5500000D03*
X34802944Y7197056D03*
X34802944Y3802944D03*
X36500000Y7900000D03*
D20*
X36500000Y5500000D03*
D19*
X36500000Y3100000D03*
X38197056Y7197056D03*
X38197056Y3802944D03*
X38900000Y5500000D03*
D21*
X24580000Y17800000D03*
X23620000Y17800000D03*
D22*
X25520000Y12700000D03*
X26480000Y12700000D03*
D23*
X30175000Y22950000D03*
X28625000Y22950000D03*
D24*
X25825000Y21175000D03*
X27375000Y21175000D03*
D23*
X30025000Y9900000D03*
X28475000Y9900000D03*
D25*
X34050000Y22262500D03*
X34050000Y19337500D03*
D26*
X34050000Y10537500D03*
X34050000Y13462500D03*
D18*
X15650000Y4475000D03*
D17*
X15649999Y3224999D03*
D19*
X3100000Y5500000D03*
X3802944Y7197056D03*
X3802944Y3802944D03*
X5500000Y7900000D03*
D20*
X5500000Y5500000D03*
D19*
X5500000Y3100000D03*
X7197056Y7197056D03*
X7197056Y3802944D03*
X7900000Y5500000D03*
D27*
X2978199Y29726999D03*
D28*
X1708199Y29726999D03*
X2978199Y30996999D03*
X1708199Y30996999D03*
X2978199Y32266999D03*
X1708199Y32266999D03*
D19*
X3100000Y36500000D03*
X3802944Y38197056D03*
X3802944Y34802944D03*
X5500000Y38900000D03*
D20*
X5500000Y36500000D03*
D19*
X5500000Y34100000D03*
X7197056Y38197056D03*
X7197056Y34802944D03*
X7900000Y36500000D03*
D18*
X19950000Y4475000D03*
D17*
X19949999Y3224999D03*
D29*
X29887799Y18875199D03*
X29387800Y18875199D03*
X28887798Y18875199D03*
X28387799Y18875199D03*
X27887800Y18875199D03*
X27387798Y18875199D03*
X26887799Y18875199D03*
D30*
X25887799Y17875199D03*
X25887799Y17375200D03*
X25887799Y16875198D03*
X25887799Y16375199D03*
X25887799Y15875200D03*
X25887799Y15375198D03*
X25887799Y14875199D03*
D29*
X26887799Y13875199D03*
X27387798Y13875199D03*
X27887800Y13875199D03*
X28387799Y13875199D03*
X28887798Y13875199D03*
X29387800Y13875199D03*
X29887799Y13875199D03*
D30*
X30887799Y14875199D03*
X30887799Y15375198D03*
X30887799Y15875200D03*
X30887799Y16375199D03*
X30887799Y16875198D03*
X30887799Y17375200D03*
X30887799Y17875199D03*
D31*
X28387799Y16375199D03*
D32*
X23585600Y14593600D03*
X24605600Y14593600D03*
D33*
X24605600Y15558800D03*
X23585600Y15558800D03*
D34*
X24535000Y29475000D03*
X25185000Y29475000D03*
X25835000Y29475000D03*
X26485000Y29475000D03*
D35*
X25509999Y30924999D03*
D34*
X24535000Y32375000D03*
X25185000Y32375000D03*
X25835000Y32375000D03*
X26485000Y32375000D03*
D36*
X29442100Y25327600D03*
X32392100Y25327600D03*
D37*
X36500000Y23675000D03*
X36500000Y25225000D03*
D38*
X28700000Y39020000D03*
D39*
X28700000Y34700000D03*
D40*
X28700000Y31700000D03*
D41*
X39450000Y29450000D03*
X34050000Y29450000D03*
D42*
X38038500Y12524000D03*
D43*
X38038499Y15023999D03*
X38038499Y17523999D03*
X38038499Y20023999D03*
D37*
X24300000Y19125000D03*
X24300000Y20675000D03*
D44*
X5620400Y14714000D03*
X5620400Y13914000D03*
X5620400Y13114000D03*
X5620400Y12314000D03*
X5620400Y11514000D03*
X5620400Y10714000D03*
D45*
X6620400Y10714000D03*
D44*
X7620400Y10714000D03*
X7620400Y11514000D03*
X7620400Y12314000D03*
X7620400Y13114000D03*
X7620400Y13914000D03*
X7620400Y14714000D03*
D45*
X6620400Y14714000D03*
D46*
X27346800Y23434800D03*
X27346800Y22414800D03*
D47*
X32400000Y18620000D03*
X32400000Y19580000D03*
D33*
X24810000Y25610000D03*
X23790000Y25610000D03*
D48*
X21250800Y10832400D03*
X21250800Y11852400D03*
D33*
X6114400Y16422400D03*
X5094400Y16422400D03*
D49*
X19254400Y9435100D03*
X17354400Y9435100D03*
X18304400Y7560100D03*
D47*
X22419200Y15270000D03*
X22419200Y16230000D03*
D49*
X23521600Y9384300D03*
X21621600Y9384300D03*
X22571600Y7509300D03*
D50*
X1642000Y28484800D03*
X1642000Y27524800D03*
D51*
X8620000Y23685000D03*
X8620000Y22715000D03*
D52*
X28312000Y6996600D03*
X28312000Y7966600D03*
D32*
X22925200Y11850400D03*
X23945200Y11850400D03*
D46*
X5456000Y27910000D03*
X5456000Y26890000D03*
D50*
X12980000Y29870000D03*
X12980000Y28910000D03*
D49*
X27077600Y10298700D03*
X25177600Y10298700D03*
X26127600Y8423700D03*
D50*
X35200000Y25480000D03*
X35200000Y24520000D03*
D47*
X18025000Y23095000D03*
X18025000Y24055000D03*
D50*
X22750000Y22455000D03*
X22750000Y21495000D03*
D53*
X21590000Y37585000D03*
X21590000Y34635000D03*
D32*
X5145200Y19622800D03*
X6165200Y19622800D03*
D47*
X12106800Y6900000D03*
X12106800Y7860000D03*
D50*
X4440000Y27880000D03*
X4440000Y26920000D03*
D48*
X3474800Y26890000D03*
X3474800Y27910000D03*
D32*
X22925200Y12866400D03*
X23945200Y12866400D03*
D48*
X9610000Y22685000D03*
X9610000Y23705000D03*
D54*
X11490000Y28120000D03*
X11490000Y30020000D03*
D50*
X32400000Y14130000D03*
X32400000Y13170000D03*
D48*
X29277200Y6971600D03*
X29277200Y7991600D03*
D55*
X19010000Y26302500D03*
X19960000Y26302500D03*
X20910000Y26302500D03*
X20910000Y28577500D03*
X19960000Y28577500D03*
X19010000Y28577500D03*
D22*
X20520000Y20050000D03*
X21480000Y20050000D03*
D56*
X17399200Y21875900D03*
X16999200Y21875900D03*
X16599200Y21875900D03*
X16199200Y21875900D03*
X15799200Y21875900D03*
X15399200Y21875900D03*
X14999200Y21875900D03*
X14599200Y21875900D03*
X14199200Y21875900D03*
X13799200Y21875900D03*
X13399200Y21875900D03*
X12999200Y21875900D03*
X12599200Y21875900D03*
X12199200Y21875900D03*
D57*
X11361700Y21038400D03*
X11361700Y20638400D03*
X11361700Y20238400D03*
X11361700Y19838400D03*
X11361700Y19438400D03*
X11361700Y19038400D03*
X11361700Y18638400D03*
X11361700Y18238400D03*
X11361700Y17838400D03*
X11361700Y17438400D03*
X11361700Y17038400D03*
X11361700Y16638400D03*
X11361700Y16238400D03*
X11361700Y15838400D03*
D56*
X12199200Y15000900D03*
X12599200Y15000900D03*
X12999200Y15000900D03*
X13399200Y15000900D03*
X13799200Y15000900D03*
X14199200Y15000900D03*
X14599200Y15000900D03*
X14999200Y15000900D03*
X15399200Y15000900D03*
X15799200Y15000900D03*
X16199200Y15000900D03*
X16599200Y15000900D03*
X16999200Y15000900D03*
X17399200Y15000900D03*
D57*
X18236700Y15838400D03*
X18236700Y16238400D03*
X18236700Y16638400D03*
X18236700Y17038400D03*
X18236700Y17438400D03*
X18236700Y17838400D03*
X18236700Y18238400D03*
X18236700Y18638400D03*
X18236700Y19038400D03*
X18236700Y19438400D03*
X18236700Y19838400D03*
X18236700Y20238400D03*
X18236700Y20638400D03*
X18236700Y21038400D03*
D58*
X14799200Y18438400D03*
D22*
X5429200Y24042400D03*
X6389200Y24042400D03*
X5147200Y17438400D03*
X6107200Y17438400D03*
D59*
X24647500Y24290000D03*
X23072500Y24290000D03*
D33*
X26637600Y6922800D03*
X25617600Y6922800D03*
D60*
X12560000Y25785000D03*
X12560000Y24135000D03*
D61*
X17210000Y28700000D03*
X14410000Y28700000D03*
D62*
X21700000Y24254298D03*
X21199999Y24254298D03*
X20699999Y24254298D03*
X20199998Y24254298D03*
X20199998Y21462300D03*
X20699999Y21462300D03*
X21199999Y21462300D03*
X21700000Y21462300D03*
D63*
X20949999Y22858299D03*
D46*
X11090800Y7890000D03*
X11090800Y6870000D03*
D22*
X20520000Y19100000D03*
X21480000Y19100000D03*
D46*
X17644000Y11903200D03*
X17644000Y10883200D03*
D48*
X22210000Y26380000D03*
X22210000Y27400000D03*
D33*
X5758800Y29376400D03*
X4738800Y29376400D03*
D18*
X28550000Y4475000D03*
D17*
X28549999Y3224999D03*
D47*
X22600000Y29980000D03*
X22600000Y30940000D03*
D64*
X19953000Y6973600D03*
X20923000Y6973600D03*
D22*
X3295600Y19622800D03*
X4255600Y19622800D03*
D16*
X8750000Y26240000D03*
D17*
X8749999Y27489999D03*
X8749999Y28739999D03*
X8749999Y29989999D03*
X8749999Y31239999D03*
D49*
X16003200Y11314700D03*
X14103200Y11314700D03*
X15053200Y9439700D03*
D47*
X22590000Y31850000D03*
X22590000Y32810000D03*
D48*
X12980000Y26920000D03*
X12980000Y27940000D03*
D47*
X13529200Y6849200D03*
X13529200Y7809200D03*
X13820000Y23810000D03*
X13820000Y24770000D03*
D21*
X17810000Y24930000D03*
X16850000Y24930000D03*
X9183200Y18750000D03*
X8223200Y18750000D03*
D47*
X38750000Y24470000D03*
X38750000Y25430000D03*
D32*
X21240000Y14250000D03*
X22260000Y14250000D03*
D50*
X12868800Y11771600D03*
X12868800Y10811600D03*
D32*
X20490000Y15250000D03*
X21510000Y15250000D03*
D38*
X14795000Y39015000D03*
D39*
X13295000Y34695000D03*
D40*
X16295000Y34695000D03*
X13295000Y31695000D03*
X16295000Y31695000D03*
D18*
X11350000Y4475000D03*
D17*
X11349999Y3224999D03*
D21*
X6795600Y9462800D03*
X5835600Y9462800D03*
D32*
X18607200Y10936000D03*
X19627200Y10936000D03*
D22*
X20520000Y16200000D03*
X21480000Y16200000D03*
D33*
X31565200Y31611600D03*
X30545200Y31611600D03*
D48*
X27600800Y27139200D03*
X27600800Y28159200D03*
D50*
X13783200Y13730000D03*
X13783200Y12770000D03*
D65*
X21107500Y30310000D03*
X21107500Y32210000D03*
X19232500Y31260000D03*
D66*
X6450399Y22657199D03*
X4250399Y22657199D03*
X4250399Y20957199D03*
X6450399Y20957199D03*
D46*
X14494400Y7839200D03*
X14494400Y6819200D03*
D32*
X20190000Y17150000D03*
X21210000Y17150000D03*
D50*
X4480000Y25970000D03*
X4480000Y25010000D03*
D48*
X3514800Y24980000D03*
X3514800Y26000000D03*
D32*
X20190000Y18100000D03*
X21210000Y18100000D03*
D67*
X16139999Y26159999D03*
X14039999Y26159999D03*
D46*
X5445200Y26000000D03*
X5445200Y24980000D03*
D47*
X34250000Y24520000D03*
X34250000Y25480000D03*
D32*
X22163200Y10885200D03*
X23183200Y10885200D03*
X5145200Y18454400D03*
X6165200Y18454400D03*
D48*
X26635600Y27139200D03*
X26635600Y28159200D03*
D59*
X25057500Y27070000D03*
X23482500Y27070000D03*
D46*
X20438000Y8906000D03*
X20438000Y7886000D03*
D21*
X9230000Y17750000D03*
X8270000Y17750000D03*
D64*
X23763000Y6922800D03*
X24733000Y6922800D03*
D49*
X11685200Y11263900D03*
X9785200Y11263900D03*
X10735200Y9388900D03*
D22*
X18270000Y13500000D03*
X19230000Y13500000D03*
D48*
X10125600Y6870000D03*
X10125600Y7890000D03*
D50*
X37750000Y25430000D03*
X37750000Y24470000D03*
D64*
X30535300Y32627600D03*
X31505300Y32627600D03*
D48*
X15459600Y6870000D03*
X15459600Y7890000D03*
M02*
