M48
; DRILL file {KiCad 5.99.0-unknown-293f207356~131~ubuntu20.04.1} date Fri Jul 30 20:50:08 2021
; FORMAT={-:-/ absolute / metric / decimal}
; #@! TF.CreationDate,2021-07-30T20:50:08-07:00
; #@! TF.GenerationSoftware,Kicad,Pcbnew,5.99.0-unknown-293f207356~131~ubuntu20.04.1
; #@! TF.FileFunction,Plated,1,4,PTH
FMAT,2
METRIC
; #@! TA.AperFunction,Plated,PTH,ViaDrill
T1C0.300
; #@! TA.AperFunction,Plated,PTH,ViaDrill
T2C0.400
; #@! TA.AperFunction,Plated,PTH,ViaDrill
T3C0.500
; #@! TA.AperFunction,Plated,PTH,ComponentDrill
T4C0.500
; #@! TA.AperFunction,Plated,PTH,ComponentDrill
T5C0.750
; #@! TA.AperFunction,Plated,PTH,ComponentDrill
T6C0.950
; #@! TA.AperFunction,Plated,PTH,ComponentDrill
T7C1.000
; #@! TA.AperFunction,Plated,PTH,ComponentDrill
T8C1.100
; #@! TA.AperFunction,Plated,PTH,ComponentDrill
T9C3.200
%
G90
G05
T1
X1.1Y36.5
X3.3Y21.9
X3.468Y24.427
X4.522Y24.086
X5.0Y21.3
X5.5Y40.8
X5.5Y12.9
X5.5Y11.0
X5.96Y28.551
X6.071Y21.694
X6.1Y17.8
X6.1Y14.3
X6.9Y21.7
X7.203Y24.33
X7.25Y12.462
X7.25Y10.637
X7.5Y27.6
X7.5Y15.1
X7.75Y40.8
X9.1Y24.1
X9.335Y16.0
X9.44Y10.709
X9.9Y20.7
X9.9Y14.4
X10.103Y12.857
X10.286Y22.731
X10.42Y16.1
X10.482Y20.146
X11.0Y17.25
X11.445Y16.107
X11.677Y10.6
X12.8Y11.0
X13.0Y12.762
X13.05Y23.278
X13.664Y15.777
X13.958Y14.404
X14.3Y12.05
X14.641Y15.746
X14.801Y23.315
X15.407Y12.04
X15.5Y15.35
X15.8Y11.0
X15.877Y16.815
X15.9Y14.05
X16.05Y17.55
X16.2Y15.6
X16.5Y24.3
X17.132Y19.513
X17.273Y10.51
X17.9Y20.4
X18.1Y36.7
X18.4Y17.6
X18.55Y9.683
X18.792Y19.733
X19.932Y22.776
X20.0Y41.0
X21.159Y16.073
X21.59Y9.16
X21.8Y11.3
X22.795Y14.719
X22.8Y41.0
X23.4Y10.7
X23.4Y10.0
X23.4Y9.3
X23.5Y18.3
X23.5Y13.7
X24.234Y16.458
X24.3Y38.6
X24.872Y23.111
X25.2Y10.3
X25.2Y9.3
X25.6Y13.8
X25.7Y38.3
X25.7Y35.8
X26.0Y10.3
X26.0Y9.3
X27.3Y41.0
X29.4Y35.3
X29.7Y40.8
X32.1Y6.4
X33.0Y40.8
X33.3Y1.8
X36.2Y1.2
X38.1Y9.7
X40.7Y8.2
X40.8Y36.5
T2
X1.2Y5.1
X5.6Y1.2
X7.7Y1.2
X8.2Y31.4
X11.4Y24.3
X12.2Y28.3
X12.294Y30.9
X12.7Y21.1
X12.7Y20.0
X12.7Y18.9
X13.221Y30.9
X13.7Y21.1
X13.7Y20.0
X13.7Y18.9
X14.7Y25.0
X14.9Y21.1
X14.9Y20.0
X14.9Y18.9
X17.2Y34.1
X17.2Y30.1
X17.6Y8.9
X18.036Y22.4
X18.2Y10.7
X18.964Y22.4
X19.2Y34.1
X19.2Y30.1
X20.9Y30.1
X21.2Y34.1
X27.2Y17.6
X27.2Y16.4
X27.2Y15.2
X28.4Y17.6
X28.4Y16.4
X28.4Y15.1
X28.4Y9.1
X29.2Y21.3
X29.2Y20.3
X29.2Y12.4
X29.2Y11.3
X29.5Y17.6
X29.5Y16.4
X29.5Y15.1
X30.2Y21.3
X30.2Y20.3
X30.2Y12.4
X30.2Y11.3
X34.3Y23.9
X34.7Y26.6
X35.4Y23.9
X35.7Y22.2
X35.7Y10.5
X37.7Y23.7
X38.2Y26.7
X39.0Y23.7
T3
X23.116Y20.692
X31.3Y23.5
X31.3Y22.5
X31.3Y10.3
X31.3Y9.2
X31.4Y32.0
X31.6Y28.8
X32.317Y26.983
X32.4Y23.5
X32.4Y22.5
X32.4Y10.3
X32.4Y9.2
X33.7Y30.5
X36.5Y29.1
T4
X3.1Y36.5
X3.1Y5.5
X3.803Y38.197
X3.803Y34.803
X3.803Y7.197
X3.803Y3.803
X5.5Y38.9
X5.5Y34.1
X5.5Y7.9
X5.5Y3.1
X7.197Y38.197
X7.197Y34.803
X7.197Y7.197
X7.197Y3.803
X7.9Y36.5
X7.9Y5.5
X34.1Y36.5
X34.1Y5.5
X34.803Y38.197
X34.803Y34.803
X34.803Y7.197
X34.803Y3.803
X36.5Y38.9
X36.5Y34.1
X36.5Y7.9
X36.5Y3.1
X38.197Y38.197
X38.197Y34.803
X38.197Y7.197
X38.197Y3.803
X38.9Y36.5
X38.9Y5.5
T5
X2.1Y19.5
X2.1Y17.5
X2.1Y15.5
X2.1Y13.5
X2.1Y11.5
X10.85Y4.5
X10.85Y2.5
X17.05Y4.5
X17.05Y2.5
X23.25Y4.5
X23.25Y2.5
T6
X38.038Y20.024
X38.038Y17.524
X38.038Y15.024
X38.038Y12.524
T7
X1.848Y31.104
X1.848Y28.564
X1.848Y26.024
X4.388Y31.104
X4.388Y28.564
X4.388Y26.024
T8
X27.46Y38.15
X28.75Y3.75
X30.0Y38.15
X31.29Y3.75
T9
X5.5Y36.5
X5.5Y5.5
X36.5Y36.5
X36.5Y5.5
T0
M30
