G04 #@! TF.GenerationSoftware,KiCad,Pcbnew,5.99.0-unknown-293f207356~131~ubuntu20.04.1*
G04 #@! TF.CreationDate,2021-07-30T20:50:04-07:00*
G04 #@! TF.ProjectId,Huvud,48757675-642e-46b6-9963-61645f706362,rev?*
G04 #@! TF.SameCoordinates,PXad91980PY876bf80*
G04 #@! TF.FileFunction,Legend,Top*
G04 #@! TF.FilePolarity,Positive*
%FSLAX46Y46*%
G04 Gerber Fmt 4.6, Leading zero omitted, Abs format (unit mm)*
G04 Created by KiCad (PCBNEW 5.99.0-unknown-293f207356~131~ubuntu20.04.1) date 2021-07-30 20:50:04*
%MOMM*%
%LPD*%
G01*
G04 APERTURE LIST*
G04 Aperture macros list*
%AMRoundRect*
0 Rectangle with rounded corners*
0 $1 Rounding radius*
0 $2 $3 $4 $5 $6 $7 $8 $9 X,Y pos of 4 corners*
0 Add a 4 corners polygon primitive as box body*
4,1,4,$2,$3,$4,$5,$6,$7,$8,$9,$2,$3,0*
0 Add four circle primitives for the rounded corners*
1,1,$1+$1,$2,$3*
1,1,$1+$1,$4,$5*
1,1,$1+$1,$6,$7*
1,1,$1+$1,$8,$9*
0 Add four rect primitives between the rounded corners*
20,1,$1+$1,$2,$3,$4,$5,0*
20,1,$1+$1,$4,$5,$6,$7,0*
20,1,$1+$1,$6,$7,$8,$9,0*
20,1,$1+$1,$8,$9,$2,$3,0*%
G04 Aperture macros list end*
%ADD10C,0.300000*%
%ADD11C,0.150000*%
%ADD12C,0.200000*%
%ADD13C,0.120000*%
%ADD14C,0.100000*%
%ADD15C,0.152400*%
%ADD16RoundRect,0.147500X-0.172500X0.147500X-0.172500X-0.147500X0.172500X-0.147500X0.172500X0.147500X0*%
%ADD17RoundRect,0.147500X-0.147500X-0.172500X0.147500X-0.172500X0.147500X0.172500X-0.147500X0.172500X0*%
%ADD18RoundRect,0.147500X0.172500X-0.147500X0.172500X0.147500X-0.172500X0.147500X-0.172500X-0.147500X0*%
%ADD19RoundRect,0.147500X0.147500X0.172500X-0.147500X0.172500X-0.147500X-0.172500X0.147500X-0.172500X0*%
%ADD20RoundRect,0.243750X0.243750X0.456250X-0.243750X0.456250X-0.243750X-0.456250X0.243750X-0.456250X0*%
%ADD21RoundRect,0.250000X0.625000X-0.350000X0.625000X0.350000X-0.625000X0.350000X-0.625000X-0.350000X0*%
%ADD22O,1.750000X1.200000*%
%ADD23R,0.900000X0.800000*%
%ADD24C,0.800000*%
%ADD25C,6.400000*%
%ADD26RoundRect,0.218750X0.218750X0.256250X-0.218750X0.256250X-0.218750X-0.256250X0.218750X-0.256250X0*%
%ADD27RoundRect,0.218750X-0.218750X-0.256250X0.218750X-0.256250X0.218750X0.256250X-0.218750X0.256250X0*%
%ADD28RoundRect,0.250000X-0.625000X0.375000X-0.625000X-0.375000X0.625000X-0.375000X0.625000X0.375000X0*%
%ADD29RoundRect,0.250000X0.625000X-0.375000X0.625000X0.375000X-0.625000X0.375000X-0.625000X-0.375000X0*%
%ADD30C,0.500000*%
%ADD31R,0.400000X1.350000*%
%ADD32R,1.800000X1.900000*%
%ADD33R,1.900000X1.900000*%
%ADD34R,1.700000X1.700000*%
%ADD35O,1.700000X1.700000*%
%ADD36R,0.250000X0.800000*%
%ADD37R,0.800000X0.250000*%
%ADD38R,3.700000X3.700000*%
%ADD39R,0.800000X0.900000*%
%ADD40RoundRect,0.075000X-0.325000X-0.075000X0.325000X-0.075000X0.325000X0.075000X-0.325000X0.075000X0*%
%ADD41R,1.700000X2.050000*%
%ADD42RoundRect,0.250000X-0.375000X-0.625000X0.375000X-0.625000X0.375000X0.625000X-0.375000X0.625000X0*%
%ADD43RoundRect,0.243750X0.456250X-0.243750X0.456250X0.243750X-0.456250X0.243750X-0.456250X-0.243750X0*%
%ADD44RoundRect,0.218750X-0.256250X0.218750X-0.256250X-0.218750X0.256250X-0.218750X0.256250X0.218750X0*%
%ADD45R,2.100000X2.100000*%
%ADD46C,2.100000*%
%ADD47RoundRect,0.250000X1.500000X0.550000X-1.500000X0.550000X-1.500000X-0.550000X1.500000X-0.550000X0*%
%ADD48RoundRect,0.250000X0.725000X-0.600000X0.725000X0.600000X-0.725000X0.600000X-0.725000X-0.600000X0*%
%ADD49O,1.950000X1.700000*%
%ADD50RoundRect,0.218750X0.256250X-0.218750X0.256250X0.218750X-0.256250X0.218750X-0.256250X-0.218750X0*%
%ADD51RoundRect,0.150000X-0.325000X-0.150000X0.325000X-0.150000X0.325000X0.150000X-0.325000X0.150000X0*%
%ADD52RoundRect,0.150000X-0.150000X-0.325000X0.150000X-0.325000X0.150000X0.325000X-0.150000X0.325000X0*%
%ADD53R,0.500000X0.500000*%
%ADD54R,1.800000X1.000000*%
%ADD55RoundRect,0.062500X-0.337500X-0.062500X0.337500X-0.062500X0.337500X0.062500X-0.337500X0.062500X0*%
%ADD56RoundRect,0.062500X-0.062500X-0.337500X0.062500X-0.337500X0.062500X0.337500X-0.062500X0.337500X0*%
%ADD57RoundRect,0.249998X-1.550002X-1.550002X1.550002X-1.550002X1.550002X1.550002X-1.550002X1.550002X0*%
G04 APERTURE END LIST*
D10*
X10850000Y22200000D02*
G75*
G03*
X10850000Y22200000I-150000J0D01*
G01*
X23900000Y11750000D02*
G75*
G03*
X23900000Y11750000I-150000J0D01*
G01*
X5550000Y14300000D02*
G75*
G03*
X5550000Y14300000I-150000J0D01*
G01*
X30800000Y19600000D02*
G75*
G03*
X30800000Y19600000I-150000J0D01*
G01*
D11*
X27061904Y1961905D02*
X26261904Y1961905D01*
X26642857Y1961905D02*
X26642857Y2419048D01*
X27061904Y2419048D02*
X26261904Y2419048D01*
X26642857Y2800000D02*
X26642857Y3066667D01*
X27061904Y3180953D02*
X27061904Y2800000D01*
X26261904Y2800000D01*
X26261904Y3180953D01*
X26833333Y3485715D02*
X26833333Y3866667D01*
X27061904Y3409524D02*
X26261904Y3676191D01*
X27061904Y3942858D01*
X26261904Y4095239D02*
X26261904Y4552381D01*
X27061904Y4323810D02*
X26261904Y4323810D01*
X20757142Y304762D02*
X20757142Y914286D01*
X21061904Y609524D02*
X20452380Y609524D01*
X20642857Y2171429D02*
X20642857Y1904762D01*
X21061904Y1904762D02*
X20261904Y1904762D01*
X20261904Y2285715D01*
X20833333Y2552381D02*
X20833333Y2933334D01*
X21061904Y2476191D02*
X20261904Y2742858D01*
X21061904Y3009524D01*
X21061904Y3276191D02*
X20261904Y3276191D01*
X21061904Y3733334D01*
X20261904Y3733334D01*
X20261904Y4266667D02*
X20261904Y4342858D01*
X20300000Y4419048D01*
X20338095Y4457143D01*
X20414285Y4495239D01*
X20566666Y4533334D01*
X20757142Y4533334D01*
X20909523Y4495239D01*
X20985714Y4457143D01*
X21023809Y4419048D01*
X21061904Y4342858D01*
X21061904Y4266667D01*
X21023809Y4190477D01*
X20985714Y4152381D01*
X20909523Y4114286D01*
X20757142Y4076191D01*
X20566666Y4076191D01*
X20414285Y4114286D01*
X20338095Y4152381D01*
X20300000Y4190477D01*
X20261904Y4266667D01*
X20757142Y5485715D02*
X20757142Y6095239D01*
X37919452Y22919239D02*
X38062309Y22871620D01*
X38300404Y22871620D01*
X38395642Y22919239D01*
X38443261Y22966858D01*
X38490880Y23062096D01*
X38490880Y23157334D01*
X38443261Y23252572D01*
X38395642Y23300191D01*
X38300404Y23347810D01*
X38109928Y23395429D01*
X38014690Y23443048D01*
X37967071Y23490667D01*
X37919452Y23585905D01*
X37919452Y23681143D01*
X37967071Y23776381D01*
X38014690Y23824000D01*
X38109928Y23871620D01*
X38348023Y23871620D01*
X38490880Y23824000D01*
X38776595Y23871620D02*
X39348023Y23871620D01*
X39062309Y22871620D02*
X39062309Y23871620D01*
X39681357Y23395429D02*
X40014690Y23395429D01*
X40157547Y22871620D02*
X39681357Y22871620D01*
X39681357Y23871620D01*
X40157547Y23871620D01*
X40586119Y22871620D02*
X40586119Y23871620D01*
X40967071Y23871620D01*
X41062309Y23824000D01*
X41109928Y23776381D01*
X41157547Y23681143D01*
X41157547Y23538286D01*
X41109928Y23443048D01*
X41062309Y23395429D01*
X40967071Y23347810D01*
X40586119Y23347810D01*
D12*
X36166666Y30464286D02*
X36404761Y29797620D01*
X36642857Y30464286D01*
X37214285Y30797620D02*
X37309523Y30797620D01*
X37404761Y30750000D01*
X37452380Y30702381D01*
X37500000Y30607143D01*
X37547619Y30416667D01*
X37547619Y30178572D01*
X37500000Y29988096D01*
X37452380Y29892858D01*
X37404761Y29845239D01*
X37309523Y29797620D01*
X37214285Y29797620D01*
X37119047Y29845239D01*
X37071428Y29892858D01*
X37023809Y29988096D01*
X36976190Y30178572D01*
X36976190Y30416667D01*
X37023809Y30607143D01*
X37071428Y30702381D01*
X37119047Y30750000D01*
X37214285Y30797620D01*
X37976190Y29892858D02*
X38023809Y29845239D01*
X37976190Y29797620D01*
X37928571Y29845239D01*
X37976190Y29892858D01*
X37976190Y29797620D01*
X38357142Y30797620D02*
X39023809Y30797620D01*
X38595238Y29797620D01*
X39357142Y29845239D02*
X39452380Y29797620D01*
X39642857Y29797620D01*
X39738095Y29845239D01*
X39785714Y29940477D01*
X39785714Y29988096D01*
X39738095Y30083334D01*
X39642857Y30130953D01*
X39500000Y30130953D01*
X39404761Y30178572D01*
X39357142Y30273810D01*
X39357142Y30321429D01*
X39404761Y30416667D01*
X39500000Y30464286D01*
X39642857Y30464286D01*
X39738095Y30416667D01*
D11*
X32311904Y34873810D02*
X33111904Y35140477D01*
X32311904Y35407143D01*
X33111904Y35673810D02*
X32311904Y35673810D01*
X33111904Y36054762D02*
X32311904Y36054762D01*
X33111904Y36511905D01*
X32311904Y36511905D01*
X24350000Y35390477D02*
X24311904Y35314286D01*
X24311904Y35200000D01*
X24350000Y35085715D01*
X24426190Y35009524D01*
X24502380Y34971429D01*
X24654761Y34933334D01*
X24769047Y34933334D01*
X24921428Y34971429D01*
X24997619Y35009524D01*
X25073809Y35085715D01*
X25111904Y35200000D01*
X25111904Y35276191D01*
X25073809Y35390477D01*
X25035714Y35428572D01*
X24769047Y35428572D01*
X24769047Y35276191D01*
X25111904Y35771429D02*
X24311904Y35771429D01*
X25111904Y36228572D01*
X24311904Y36228572D01*
X25111904Y36609524D02*
X24311904Y36609524D01*
X24311904Y36800000D01*
X24350000Y36914286D01*
X24426190Y36990477D01*
X24502380Y37028572D01*
X24654761Y37066667D01*
X24769047Y37066667D01*
X24921428Y37028572D01*
X24997619Y36990477D01*
X25073809Y36914286D01*
X25111904Y36800000D01*
X25111904Y36609524D01*
X20873809Y40688096D02*
X21140476Y39888096D01*
X21407142Y40688096D01*
X21673809Y39888096D02*
X21673809Y40688096D01*
X22054761Y39888096D02*
X22054761Y40688096D01*
X22511904Y39888096D01*
X22511904Y40688096D01*
X1178571Y4785715D02*
X1178571Y5119048D01*
X1702380Y5261905D02*
X1702380Y4785715D01*
X702380Y4785715D01*
X702380Y5261905D01*
X1702380Y5690477D02*
X702380Y5690477D01*
X1702380Y6261905D01*
X702380Y6261905D01*
X1702380Y6738096D02*
X702380Y6738096D01*
X702380Y6976191D01*
X750000Y7119048D01*
X845238Y7214286D01*
X940476Y7261905D01*
X1130952Y7309524D01*
X1273809Y7309524D01*
X1464285Y7261905D01*
X1559523Y7214286D01*
X1654761Y7119048D01*
X1702380Y6976191D01*
X1702380Y6738096D01*
X1654761Y7690477D02*
X1702380Y7833334D01*
X1702380Y8071429D01*
X1654761Y8166667D01*
X1607142Y8214286D01*
X1511904Y8261905D01*
X1416666Y8261905D01*
X1321428Y8214286D01*
X1273809Y8166667D01*
X1226190Y8071429D01*
X1178571Y7880953D01*
X1130952Y7785715D01*
X1083333Y7738096D01*
X988095Y7690477D01*
X892857Y7690477D01*
X797619Y7738096D01*
X750000Y7785715D01*
X702380Y7880953D01*
X702380Y8119048D01*
X750000Y8261905D01*
X8361904Y27219048D02*
X8361904Y27714286D01*
X8666666Y27447620D01*
X8666666Y27561905D01*
X8704761Y27638096D01*
X8742857Y27676191D01*
X8819047Y27714286D01*
X9009523Y27714286D01*
X9085714Y27676191D01*
X9123809Y27638096D01*
X9161904Y27561905D01*
X9161904Y27333334D01*
X9123809Y27257143D01*
X9085714Y27219048D01*
X9085714Y28057143D02*
X9123809Y28095239D01*
X9161904Y28057143D01*
X9123809Y28019048D01*
X9085714Y28057143D01*
X9161904Y28057143D01*
X8361904Y28361905D02*
X8361904Y28857143D01*
X8666666Y28590477D01*
X8666666Y28704762D01*
X8704761Y28780953D01*
X8742857Y28819048D01*
X8819047Y28857143D01*
X9009523Y28857143D01*
X9085714Y28819048D01*
X9123809Y28780953D01*
X9161904Y28704762D01*
X9161904Y28476191D01*
X9123809Y28400000D01*
X9085714Y28361905D01*
X8361904Y29085715D02*
X9161904Y29352381D01*
X8361904Y29619048D01*
X14457142Y304762D02*
X14457142Y914286D01*
X14761904Y609524D02*
X14152380Y609524D01*
X14342857Y2171429D02*
X14342857Y1904762D01*
X14761904Y1904762D02*
X13961904Y1904762D01*
X13961904Y2285715D01*
X14533333Y2552381D02*
X14533333Y2933334D01*
X14761904Y2476191D02*
X13961904Y2742858D01*
X14761904Y3009524D01*
X14761904Y3276191D02*
X13961904Y3276191D01*
X14761904Y3733334D01*
X13961904Y3733334D01*
X14761904Y4533334D02*
X14761904Y4076191D01*
X14761904Y4304762D02*
X13961904Y4304762D01*
X14076190Y4228572D01*
X14152380Y4152381D01*
X14190476Y4076191D01*
X14457142Y5485715D02*
X14457142Y6095239D01*
X26319047Y928572D02*
X27080952Y928572D01*
X7502380Y890477D02*
X7502380Y1461905D01*
X8502380Y1176191D02*
X7502380Y1176191D01*
X8502380Y1795239D02*
X7502380Y1795239D01*
X7978571Y1795239D02*
X7978571Y2366667D01*
X8502380Y2366667D02*
X7502380Y2366667D01*
D12*
X35738095Y31297620D02*
X35738095Y32297620D01*
X35738095Y31821429D02*
X36309523Y31821429D01*
X36309523Y31297620D02*
X36309523Y32297620D01*
X36785714Y32297620D02*
X36785714Y31488096D01*
X36833333Y31392858D01*
X36880952Y31345239D01*
X36976190Y31297620D01*
X37166666Y31297620D01*
X37261904Y31345239D01*
X37309523Y31392858D01*
X37357142Y31488096D01*
X37357142Y32297620D01*
X37690476Y32297620D02*
X38023809Y31297620D01*
X38357142Y32297620D01*
X38690476Y32297620D02*
X38690476Y31488096D01*
X38738095Y31392858D01*
X38785714Y31345239D01*
X38880952Y31297620D01*
X39071428Y31297620D01*
X39166666Y31345239D01*
X39214285Y31392858D01*
X39261904Y31488096D01*
X39261904Y32297620D01*
X39738095Y31297620D02*
X39738095Y32297620D01*
X39976190Y32297620D01*
X40119047Y32250000D01*
X40214285Y32154762D01*
X40261904Y32059524D01*
X40309523Y31869048D01*
X40309523Y31726191D01*
X40261904Y31535715D01*
X40214285Y31440477D01*
X40119047Y31345239D01*
X39976190Y31297620D01*
X39738095Y31297620D01*
D11*
X33119047Y1028572D02*
X33880952Y1028572D01*
X33500000Y647620D02*
X33500000Y1409524D01*
X30405580Y19347000D02*
X30643676Y19347000D01*
X30548438Y19108905D02*
X30643676Y19347000D01*
X30548438Y19585096D01*
X30834152Y19204143D02*
X30643676Y19347000D01*
X30834152Y19489858D01*
D13*
X13258578Y12590000D02*
X12741422Y12590000D01*
X13258578Y14010000D02*
X12741422Y14010000D01*
X3900000Y12400000D02*
X3900000Y12600000D01*
X290000Y11200000D02*
X90000Y11200000D01*
X4400000Y16400000D02*
X3900000Y16400000D01*
X3900000Y14400000D02*
X3900000Y14600000D01*
X4400000Y14500000D02*
X3900000Y14500000D01*
X2900000Y21560000D02*
X2900000Y20950000D01*
X1600000Y9440000D02*
X1600000Y10050000D01*
X900000Y10050000D02*
X4400000Y10050000D01*
X4400000Y16500000D02*
X3900000Y16500000D01*
X290000Y21560000D02*
X290000Y9440000D01*
X3900000Y18600000D02*
X4400000Y18600000D01*
X3900000Y16600000D02*
X4400000Y16600000D01*
X900000Y19000000D02*
X290000Y19000000D01*
X3900000Y18400000D02*
X3900000Y18600000D01*
X900000Y20950000D02*
X900000Y19000000D01*
X190000Y11200000D02*
X190000Y10900000D01*
X290000Y12000000D02*
X900000Y12000000D01*
X4400000Y18400000D02*
X3900000Y18400000D01*
X1600000Y21560000D02*
X1600000Y20950000D01*
X90000Y11200000D02*
X90000Y10900000D01*
X4400000Y12400000D02*
X3900000Y12400000D01*
X4400000Y10050000D02*
X4400000Y20950000D01*
X3900000Y16400000D02*
X3900000Y16600000D01*
X4400000Y20950000D02*
X900000Y20950000D01*
X-10000Y10390000D02*
X-10000Y9140000D01*
X290000Y9440000D02*
X5010000Y9440000D01*
X5010000Y21560000D02*
X290000Y21560000D01*
X3900000Y14600000D02*
X4400000Y14600000D01*
X3900000Y12600000D02*
X4400000Y12600000D01*
X4400000Y12500000D02*
X3900000Y12500000D01*
X-10000Y9140000D02*
X1240000Y9140000D01*
X4400000Y14400000D02*
X3900000Y14400000D01*
X900000Y12000000D02*
X900000Y10050000D01*
X4400000Y18500000D02*
X3900000Y18500000D01*
X2900000Y9440000D02*
X2900000Y10050000D01*
X90000Y10900000D02*
X290000Y10900000D01*
X5010000Y9440000D02*
X5010000Y21560000D01*
D14*
X21650000Y6830000D02*
G75*
G03*
X21650000Y6830000I-50000J0D01*
G01*
X27710000Y8000000D02*
G75*
G03*
X27710000Y8000000I-50000J0D01*
G01*
D13*
X20210000Y13880000D02*
X18050000Y13880000D01*
X20210000Y10720000D02*
X18750000Y10720000D01*
X20210000Y10720000D02*
X20210000Y11650000D01*
X20210000Y13880000D02*
X20210000Y12950000D01*
X26160000Y440000D02*
X26160000Y6560000D01*
X21240000Y2200000D02*
X21240000Y1900000D01*
X21440000Y6560000D02*
X21440000Y440000D01*
X22050000Y4000000D02*
X21440000Y4000000D01*
X22750000Y6560000D02*
X22750000Y5950000D01*
X25550000Y5950000D02*
X22050000Y5950000D01*
X22050000Y3000000D02*
X22050000Y1050000D01*
X22750000Y440000D02*
X22750000Y1050000D01*
X25550000Y3400000D02*
X25050000Y3400000D01*
X22050000Y1050000D02*
X25550000Y1050000D01*
X25550000Y1050000D02*
X25550000Y5950000D01*
X25050000Y3600000D02*
X25550000Y3600000D01*
X21440000Y440000D02*
X26160000Y440000D01*
X22050000Y5950000D02*
X22050000Y4000000D01*
X21340000Y2200000D02*
X21340000Y1900000D01*
X21440000Y2200000D02*
X21240000Y2200000D01*
X26160000Y6560000D02*
X21440000Y6560000D01*
X21440000Y3000000D02*
X22050000Y3000000D01*
X21140000Y1390000D02*
X21140000Y140000D01*
X21140000Y140000D02*
X22390000Y140000D01*
X24050000Y6560000D02*
X24050000Y5950000D01*
X25550000Y3500000D02*
X25050000Y3500000D01*
X25050000Y3400000D02*
X25050000Y3600000D01*
X24050000Y440000D02*
X24050000Y1050000D01*
X21240000Y1900000D02*
X21440000Y1900000D01*
X29562779Y22440000D02*
X29237221Y22440000D01*
X29562779Y23460000D02*
X29237221Y23460000D01*
X26437221Y20665000D02*
X26762779Y20665000D01*
X26437221Y21685000D02*
X26762779Y21685000D01*
X29412779Y9390000D02*
X29087221Y9390000D01*
X29412779Y10410000D02*
X29087221Y10410000D01*
X34960000Y21402064D02*
X34960000Y20197936D01*
X33140000Y21402064D02*
X33140000Y20197936D01*
X33140000Y11397936D02*
X33140000Y12602064D01*
X34960000Y11397936D02*
X34960000Y12602064D01*
X9650000Y3000000D02*
X9650000Y1050000D01*
X10350000Y440000D02*
X10350000Y1050000D01*
X8740000Y140000D02*
X9990000Y140000D01*
X8740000Y1390000D02*
X8740000Y140000D01*
X9650000Y5950000D02*
X9650000Y4000000D01*
X8840000Y1900000D02*
X9040000Y1900000D01*
X9040000Y6560000D02*
X9040000Y440000D01*
X9040000Y2200000D02*
X8840000Y2200000D01*
X9040000Y3000000D02*
X9650000Y3000000D01*
X11650000Y6560000D02*
X11650000Y5950000D01*
X13760000Y440000D02*
X13760000Y6560000D01*
X8940000Y2200000D02*
X8940000Y1900000D01*
X8840000Y2200000D02*
X8840000Y1900000D01*
X13150000Y5950000D02*
X9650000Y5950000D01*
X12650000Y3400000D02*
X12650000Y3600000D01*
X13760000Y6560000D02*
X9040000Y6560000D01*
X13150000Y1050000D02*
X13150000Y5950000D01*
X11650000Y440000D02*
X11650000Y1050000D01*
X9040000Y440000D02*
X13760000Y440000D01*
X12650000Y3600000D02*
X13150000Y3600000D01*
X13150000Y3500000D02*
X12650000Y3500000D01*
X10350000Y6560000D02*
X10350000Y5950000D01*
X9650000Y4000000D02*
X9040000Y4000000D01*
X9650000Y1050000D02*
X13150000Y1050000D01*
X13150000Y3400000D02*
X12650000Y3400000D01*
D14*
X17525400Y41330800D02*
X9525400Y41330800D01*
X9576222Y41307034D02*
G75*
G02*
X9825399Y40580801I-350822J-526234D01*
G01*
X17162184Y40680800D02*
G75*
G02*
X17525401Y41330799I763216J0D01*
G01*
D13*
X5718500Y27294000D02*
X3118500Y27294000D01*
X5718500Y26024000D02*
X5718500Y24694000D01*
X3118500Y24694000D02*
X518500Y24694000D01*
X5718500Y24694000D02*
X4388500Y24694000D01*
X5718500Y32434000D02*
X518500Y32434000D01*
X3118500Y27294000D02*
X3118500Y24694000D01*
X5718500Y27294000D02*
X5718500Y32434000D01*
X518500Y24694000D02*
X518500Y32434000D01*
D14*
X16350000Y6810000D02*
G75*
G03*
X16350000Y6810000I-50000J0D01*
G01*
D13*
X17850000Y440000D02*
X17850000Y1050000D01*
X14940000Y1390000D02*
X14940000Y140000D01*
X18850000Y3400000D02*
X18850000Y3600000D01*
X15850000Y4000000D02*
X15240000Y4000000D01*
X14940000Y140000D02*
X16190000Y140000D01*
X19350000Y3400000D02*
X18850000Y3400000D01*
X19960000Y440000D02*
X19960000Y6560000D01*
X19350000Y3500000D02*
X18850000Y3500000D01*
X15240000Y440000D02*
X19960000Y440000D01*
X19350000Y5950000D02*
X15850000Y5950000D01*
X16550000Y440000D02*
X16550000Y1050000D01*
X15850000Y5950000D02*
X15850000Y4000000D01*
X19960000Y6560000D02*
X15240000Y6560000D01*
X15040000Y2200000D02*
X15040000Y1900000D01*
X19350000Y1050000D02*
X19350000Y5950000D01*
X18850000Y3600000D02*
X19350000Y3600000D01*
X15240000Y2200000D02*
X15040000Y2200000D01*
X15850000Y1050000D02*
X19350000Y1050000D01*
X15240000Y3000000D02*
X15850000Y3000000D01*
X15140000Y2200000D02*
X15140000Y1900000D01*
X16550000Y6560000D02*
X16550000Y5950000D01*
X15040000Y1900000D02*
X15240000Y1900000D01*
X15240000Y6560000D02*
X15240000Y440000D01*
X15850000Y3000000D02*
X15850000Y1050000D01*
X17850000Y6560000D02*
X17850000Y5950000D01*
D15*
X30332940Y13746300D02*
X31016700Y13746300D01*
X25758900Y13746300D02*
X26442660Y13746300D01*
X31016700Y18320340D02*
X31016700Y19004100D01*
X26442660Y19004100D02*
X25758900Y19004100D01*
X31016700Y19004100D02*
X30332940Y19004100D01*
X25758900Y19004100D02*
X25758900Y18320340D01*
X31016700Y13746300D02*
X31016700Y14430060D01*
X25758900Y14430060D02*
X25758900Y13746300D01*
D13*
X13380000Y9840000D02*
X13380000Y12000000D01*
X10220000Y9840000D02*
X10220000Y11300000D01*
X10220000Y9840000D02*
X11150000Y9840000D01*
X13380000Y9840000D02*
X12450000Y9840000D01*
X24100000Y8090000D02*
X27100000Y8090000D01*
X25600000Y11310000D02*
X27100000Y11310000D01*
X30315036Y24417600D02*
X31519164Y24417600D01*
X30315036Y26237600D02*
X31519164Y26237600D01*
X18490000Y31941422D02*
X18490000Y32458578D01*
X19910000Y31941422D02*
X19910000Y32458578D01*
X17910000Y31941422D02*
X17910000Y32458578D01*
X16490000Y31941422D02*
X16490000Y32458578D01*
X21910000Y31941422D02*
X21910000Y32458578D01*
X20490000Y31941422D02*
X20490000Y32458578D01*
X35990000Y27162779D02*
X35990000Y26837221D01*
X37010000Y27162779D02*
X37010000Y26837221D01*
X32910000Y7120000D02*
X32910000Y380000D01*
X26890000Y780000D02*
X26890000Y140000D01*
X26890000Y140000D02*
X27290000Y140000D01*
X27130000Y6000000D02*
X32910000Y6000000D01*
X27130000Y7120000D02*
X32910000Y7120000D01*
X27130000Y380000D02*
X32910000Y380000D01*
X27130000Y900000D02*
X32910000Y900000D01*
X27130000Y7120000D02*
X27130000Y380000D01*
X32160000Y28154437D02*
X32160000Y29440000D01*
X32160000Y32845563D02*
X31095563Y33910000D01*
X32160000Y32845563D02*
X32160000Y31560000D01*
X31095563Y33910000D02*
X25340000Y33910000D01*
X25340000Y27090000D02*
X25340000Y29440000D01*
X25340000Y33910000D02*
X25340000Y31560000D01*
X32793750Y28258750D02*
X32793750Y29046250D01*
X33187500Y28652500D02*
X32400000Y28652500D01*
X32160000Y28154437D02*
X31095563Y27090000D01*
X31095563Y27090000D02*
X25340000Y27090000D01*
D14*
X22125000Y23400000D02*
G75*
G03*
X22125000Y23400000I-50000J0D01*
G01*
D13*
X35588500Y20774000D02*
X36338500Y20774000D01*
X35588500Y11774000D02*
X35588500Y9974000D01*
X40788500Y10724000D02*
X40788500Y16274000D01*
X40788500Y21824000D02*
X40788500Y16274000D01*
X37838500Y21824000D02*
X40788500Y21824000D01*
X41548500Y9964000D02*
X41548500Y22584000D01*
X36338500Y11774000D02*
X35588500Y11774000D01*
X35288500Y9674000D02*
X36538500Y9674000D01*
X37838500Y9974000D02*
X37838500Y10724000D01*
X36338500Y13274000D02*
X36338500Y19274000D01*
X35588500Y19274000D02*
X35588500Y13274000D01*
X37838500Y22574000D02*
X37838500Y21824000D01*
X36338500Y20774000D02*
X36338500Y22574000D01*
X37838500Y10724000D02*
X40788500Y10724000D01*
X41548500Y22584000D02*
X35578500Y22584000D01*
X35588500Y9974000D02*
X36338500Y9974000D01*
X35578500Y22584000D02*
X35578500Y9964000D01*
X36338500Y19274000D02*
X35588500Y19274000D01*
X36338500Y22574000D02*
X35588500Y22574000D01*
X35288500Y10924000D02*
X35288500Y9674000D01*
X35588500Y13274000D02*
X36338500Y13274000D01*
X35588500Y22574000D02*
X35588500Y20774000D01*
X35578500Y9964000D02*
X41548500Y9964000D01*
X36338500Y9974000D02*
X36338500Y11774000D01*
X24810000Y19737221D02*
X24810000Y20062779D01*
X23790000Y19737221D02*
X23790000Y20062779D01*
X20365000Y38015000D02*
X22650000Y38015000D01*
X22650000Y39485000D02*
X20365000Y39485000D01*
X20365000Y39485000D02*
X20365000Y38015000D01*
X6690000Y9140000D02*
X5640000Y9140000D01*
X7810000Y14360000D02*
X8860000Y14360000D01*
X7810000Y9140000D02*
X8860000Y9140000D01*
X9700000Y26835000D02*
X7415000Y26835000D01*
X7415000Y26835000D02*
X7415000Y25365000D01*
X7415000Y25365000D02*
X9700000Y25365000D01*
X14010000Y25020000D02*
X12550000Y25020000D01*
X14010000Y28180000D02*
X11850000Y28180000D01*
X14010000Y28180000D02*
X14010000Y27250000D01*
X14010000Y25020000D02*
X14010000Y25950000D01*
X16970000Y7890000D02*
X17900000Y7890000D01*
X16970000Y7890000D02*
X16970000Y9350000D01*
X20130000Y7890000D02*
X20130000Y10050000D01*
X20130000Y7890000D02*
X19200000Y7890000D01*
X5600000Y20150000D02*
X8150000Y20150000D01*
X5600000Y21850000D02*
X5600000Y20150000D01*
X5600000Y21850000D02*
X8150000Y21850000D01*
X8675000Y17225000D02*
X8675000Y18575000D01*
X6925000Y17225000D02*
X6925000Y18575000D01*
X31620000Y34780000D02*
X25840000Y34780000D01*
X31620000Y41000000D02*
X25840000Y41000000D01*
X31620000Y34780000D02*
X31620000Y41520000D01*
X31860000Y41120000D02*
X31860000Y41760000D01*
X31620000Y35900000D02*
X25840000Y35900000D01*
X31620000Y41520000D02*
X25840000Y41520000D01*
X31860000Y41760000D02*
X31460000Y41760000D01*
X25840000Y34780000D02*
X25840000Y41520000D01*
X11190000Y17390000D02*
X11190000Y17865000D01*
X11665000Y22610000D02*
X11190000Y22610000D01*
X15935000Y17390000D02*
X16410000Y17390000D01*
X11665000Y17390000D02*
X11190000Y17390000D01*
X16410000Y22610000D02*
X16410000Y22135000D01*
X15935000Y22610000D02*
X16410000Y22610000D01*
X16410000Y17390000D02*
X16410000Y17865000D01*
%LPC*%
D16*
X6100000Y17285000D03*
X6100000Y16315000D03*
X12150000Y8435000D03*
X12150000Y7465000D03*
D17*
X6665000Y28400000D03*
X7635000Y28400000D03*
D18*
X6100000Y18315000D03*
X6100000Y19285000D03*
D19*
X7635000Y32400000D03*
X6665000Y32400000D03*
D20*
X13937500Y13300000D03*
X12062500Y13300000D03*
D17*
X6665000Y31400000D03*
X7635000Y31400000D03*
D21*
X2100000Y11500000D03*
D22*
X2100000Y13500000D03*
X2100000Y15500000D03*
X2100000Y17500000D03*
X2100000Y19500000D03*
D16*
X3300000Y23385000D03*
X3300000Y22415000D03*
D19*
X12885000Y24300000D03*
X11915000Y24300000D03*
D16*
X10900000Y25285000D03*
X10900000Y24315000D03*
D17*
X6665000Y29400000D03*
X7635000Y29400000D03*
D19*
X7635000Y30400000D03*
X6665000Y30400000D03*
D18*
X16250000Y11215000D03*
X16250000Y12185000D03*
X21600000Y7435000D03*
X21600000Y8405000D03*
D17*
X28265000Y8000000D03*
X29235000Y8000000D03*
D23*
X18450000Y13250000D03*
X18450000Y11350000D03*
X20450000Y12300000D03*
D18*
X15350000Y7415000D03*
X15350000Y8385000D03*
X22600000Y7415000D03*
X22600000Y8385000D03*
D21*
X23250000Y2500000D03*
D22*
X23250000Y4500000D03*
D24*
X36500000Y34100000D03*
X34802944Y38197056D03*
X36500000Y38900000D03*
X34100000Y36500000D03*
X38900000Y36500000D03*
X38197056Y38197056D03*
X34802944Y34802944D03*
D25*
X36500000Y36500000D03*
D24*
X38197056Y34802944D03*
X38197056Y3802944D03*
X36500000Y3100000D03*
X36500000Y7900000D03*
X38197056Y7197056D03*
X38900000Y5500000D03*
X34802944Y3802944D03*
X34802944Y7197056D03*
D25*
X36500000Y5500000D03*
D24*
X34100000Y5500000D03*
D19*
X24585000Y17800000D03*
X23615000Y17800000D03*
X25085000Y13600000D03*
X24115000Y13600000D03*
D26*
X30187500Y22950000D03*
X28612500Y22950000D03*
D27*
X25812500Y21175000D03*
X27387500Y21175000D03*
D26*
X30037500Y9900000D03*
X28462500Y9900000D03*
D28*
X34050000Y22200000D03*
X34050000Y19400000D03*
D29*
X34050000Y10600000D03*
X34050000Y13400000D03*
D18*
X10750000Y7465000D03*
X10750000Y8435000D03*
D21*
X10850000Y2500000D03*
D22*
X10850000Y4500000D03*
D30*
X11525400Y37030800D03*
X15525400Y37030800D03*
D31*
X14825400Y36505800D03*
X14175400Y36505800D03*
X13525400Y36505800D03*
X12875400Y36505800D03*
X12225400Y36505800D03*
D32*
X9525400Y39180800D03*
D33*
X12325400Y39180800D03*
D32*
X17525400Y39180800D03*
D33*
X14725400Y39180800D03*
D24*
X3100000Y5500000D03*
X3802944Y3802944D03*
X7900000Y5500000D03*
X5500000Y7900000D03*
D25*
X5500000Y5500000D03*
D24*
X3802944Y7197056D03*
X7197056Y7197056D03*
X5500000Y3100000D03*
X7197056Y3802944D03*
D34*
X4388500Y26024000D03*
D35*
X1848500Y26024000D03*
X4388500Y28564000D03*
X1848500Y28564000D03*
X4388500Y31104000D03*
X1848500Y31104000D03*
D24*
X5500000Y38900000D03*
X7197056Y34802944D03*
X7900000Y36500000D03*
X7197056Y38197056D03*
D25*
X5500000Y36500000D03*
D24*
X3802944Y38197056D03*
X5500000Y34100000D03*
X3802944Y34802944D03*
X3100000Y36500000D03*
D18*
X16300000Y7415000D03*
X16300000Y8385000D03*
D19*
X31135000Y8000000D03*
X30165000Y8000000D03*
D21*
X17050000Y2500000D03*
D22*
X17050000Y4500000D03*
D18*
X2350000Y22415000D03*
X2350000Y23385000D03*
D16*
X17200000Y12185000D03*
X17200000Y11215000D03*
D36*
X29887800Y18875200D03*
X29387801Y18875200D03*
X28887799Y18875200D03*
X28387800Y18875200D03*
X27887801Y18875200D03*
X27387799Y18875200D03*
X26887800Y18875200D03*
D37*
X25887800Y17875200D03*
X25887800Y17375201D03*
X25887800Y16875199D03*
X25887800Y16375200D03*
X25887800Y15875201D03*
X25887800Y15375199D03*
X25887800Y14875200D03*
D36*
X26887800Y13875200D03*
X27387799Y13875200D03*
X27887801Y13875200D03*
X28387800Y13875200D03*
X28887799Y13875200D03*
X29387801Y13875200D03*
X29887800Y13875200D03*
D37*
X30887800Y14875200D03*
X30887800Y15375199D03*
X30887800Y15875201D03*
X30887800Y16375200D03*
X30887800Y16875199D03*
X30887800Y17375201D03*
X30887800Y17875200D03*
D38*
X28387800Y16375200D03*
D39*
X12750000Y11600000D03*
X10850000Y11600000D03*
X11800000Y9600000D03*
D17*
X20500000Y24400000D03*
X21470000Y24400000D03*
D19*
X24585000Y15600000D03*
X23615000Y15600000D03*
D17*
X23615000Y14600000D03*
X24585000Y14600000D03*
D40*
X24150000Y10675000D03*
X24150000Y10025000D03*
X24150000Y9375000D03*
X24150000Y8725000D03*
X27050000Y10675000D03*
X27050000Y9375000D03*
X27050000Y10025000D03*
D41*
X25600000Y9700000D03*
D40*
X27050000Y8725000D03*
D17*
X23565000Y7450000D03*
X24535000Y7450000D03*
D42*
X29517100Y25327600D03*
X32317100Y25327600D03*
D43*
X19200000Y31262500D03*
X19200000Y33137500D03*
X17200000Y31262500D03*
X17200000Y33137500D03*
X21200000Y31262500D03*
X21200000Y33137500D03*
D44*
X36500000Y27787500D03*
X36500000Y26212500D03*
D18*
X1400000Y22415000D03*
X1400000Y23385000D03*
X6800000Y26415000D03*
X6800000Y27385000D03*
D45*
X28750000Y3750000D03*
D46*
X31290000Y3750000D03*
D47*
X31450000Y30500000D03*
X26050000Y30500000D03*
D19*
X21470000Y23400000D03*
X20500000Y23400000D03*
D17*
X9635000Y14020000D03*
X10605000Y14020000D03*
X10265000Y15000000D03*
X11235000Y15000000D03*
D48*
X38038500Y12524000D03*
D49*
X38038500Y15024000D03*
X38038500Y17524000D03*
X38038500Y20024000D03*
D18*
X13250000Y32515000D03*
X13250000Y33485000D03*
X12265000Y32515000D03*
X12265000Y33485000D03*
X13100000Y7465000D03*
X13100000Y8435000D03*
D50*
X24300000Y19112500D03*
X24300000Y20687500D03*
D27*
X21062500Y38750000D03*
X22637500Y38750000D03*
D17*
X20865000Y37350000D03*
X21835000Y37350000D03*
D18*
X9400000Y22415000D03*
X9400000Y23385000D03*
D16*
X6450000Y23385000D03*
X6450000Y22415000D03*
X7450000Y23395000D03*
X7450000Y22425000D03*
X8440000Y23395000D03*
X8440000Y22425000D03*
D18*
X4250000Y22415000D03*
X4250000Y23385000D03*
X5200000Y22415000D03*
X5200000Y23385000D03*
D51*
X6250000Y13750000D03*
X6250000Y12950000D03*
X6250000Y12150000D03*
X6250000Y11350000D03*
X6250000Y10550000D03*
X6250000Y9750000D03*
D52*
X7250000Y9750000D03*
D51*
X8250000Y9750000D03*
X8250000Y10550000D03*
X8250000Y11350000D03*
X8250000Y12150000D03*
X8250000Y12950000D03*
X8250000Y13750000D03*
D52*
X7250000Y13750000D03*
D16*
X10950000Y27885000D03*
X10950000Y26915000D03*
D27*
X8112500Y26100000D03*
X9687500Y26100000D03*
D19*
X6935000Y15050000D03*
X5965000Y15050000D03*
D23*
X12250000Y27550000D03*
X12250000Y25650000D03*
X14250000Y26600000D03*
D39*
X19500000Y9650000D03*
X17600000Y9650000D03*
X18550000Y7650000D03*
D19*
X16335000Y10300000D03*
X15365000Y10300000D03*
D17*
X15365000Y9350000D03*
X16335000Y9350000D03*
D16*
X26000000Y23485000D03*
X26000000Y22515000D03*
D18*
X15500000Y25315000D03*
X15500000Y26285000D03*
D16*
X21800000Y10885000D03*
X21800000Y9915000D03*
D18*
X32400000Y18915000D03*
X32400000Y19885000D03*
D16*
X35250000Y25985000D03*
X35250000Y25015000D03*
D53*
X6000000Y21000000D03*
X8200000Y21000000D03*
D16*
X32400000Y13885000D03*
X32400000Y12915000D03*
D54*
X7800000Y19150000D03*
X7800000Y16650000D03*
D18*
X38750000Y25015000D03*
X38750000Y25985000D03*
X9900000Y27315000D03*
X9900000Y28285000D03*
X34250000Y25015000D03*
X34250000Y25985000D03*
D17*
X13815000Y24300000D03*
X14785000Y24300000D03*
D45*
X30000000Y38150000D03*
D46*
X27460000Y38150000D03*
D55*
X11350000Y21750000D03*
X11350000Y21250000D03*
X11350000Y20750000D03*
X11350000Y20250000D03*
X11350000Y19750000D03*
X11350000Y19250000D03*
X11350000Y18750000D03*
X11350000Y18250000D03*
D56*
X12050000Y17550000D03*
X12550000Y17550000D03*
X13050000Y17550000D03*
X13550000Y17550000D03*
X14050000Y17550000D03*
X14550000Y17550000D03*
X15050000Y17550000D03*
X15550000Y17550000D03*
D55*
X16250000Y18250000D03*
X16250000Y18750000D03*
X16250000Y19250000D03*
X16250000Y19750000D03*
X16250000Y20250000D03*
X16250000Y20750000D03*
X16250000Y21250000D03*
X16250000Y21750000D03*
D56*
X15550000Y22450000D03*
X15050000Y22450000D03*
X14550000Y22450000D03*
X14050000Y22450000D03*
X13550000Y22450000D03*
X13050000Y22450000D03*
X12550000Y22450000D03*
X12050000Y22450000D03*
D57*
X13800000Y20000000D03*
D16*
X37750000Y25985000D03*
X37750000Y25015000D03*
M02*
