G04 #@! TF.GenerationSoftware,KiCad,Pcbnew,5.99.0-unknown-293f207356~131~ubuntu20.04.1*
G04 #@! TF.CreationDate,2021-07-30T20:50:04-07:00*
G04 #@! TF.ProjectId,Huvud,48757675-642e-46b6-9963-61645f706362,rev?*
G04 #@! TF.SameCoordinates,PXad91980PY876bf80*
G04 #@! TF.FileFunction,Paste,Top*
G04 #@! TF.FilePolarity,Positive*
%FSLAX46Y46*%
G04 Gerber Fmt 4.6, Leading zero omitted, Abs format (unit mm)*
G04 Created by KiCad (PCBNEW 5.99.0-unknown-293f207356~131~ubuntu20.04.1) date 2021-07-30 20:50:04*
%MOMM*%
%LPD*%
G01*
G04 APERTURE LIST*
G04 Aperture macros list*
%AMRoundRect*
0 Rectangle with rounded corners*
0 $1 Rounding radius*
0 $2 $3 $4 $5 $6 $7 $8 $9 X,Y pos of 4 corners*
0 Add a 4 corners polygon primitive as box body*
4,1,4,$2,$3,$4,$5,$6,$7,$8,$9,$2,$3,0*
0 Add four circle primitives for the rounded corners*
1,1,$1+$1,$2,$3*
1,1,$1+$1,$4,$5*
1,1,$1+$1,$6,$7*
1,1,$1+$1,$8,$9*
0 Add four rect primitives between the rounded corners*
20,1,$1+$1,$2,$3,$4,$5,0*
20,1,$1+$1,$4,$5,$6,$7,0*
20,1,$1+$1,$6,$7,$8,$9,0*
20,1,$1+$1,$8,$9,$2,$3,0*%
G04 Aperture macros list end*
%ADD10RoundRect,0.147500X-0.172500X0.147500X-0.172500X-0.147500X0.172500X-0.147500X0.172500X0.147500X0*%
%ADD11RoundRect,0.147500X-0.147500X-0.172500X0.147500X-0.172500X0.147500X0.172500X-0.147500X0.172500X0*%
%ADD12RoundRect,0.147500X0.172500X-0.147500X0.172500X0.147500X-0.172500X0.147500X-0.172500X-0.147500X0*%
%ADD13RoundRect,0.147500X0.147500X0.172500X-0.147500X0.172500X-0.147500X-0.172500X0.147500X-0.172500X0*%
%ADD14RoundRect,0.243750X0.243750X0.456250X-0.243750X0.456250X-0.243750X-0.456250X0.243750X-0.456250X0*%
%ADD15R,0.900000X0.800000*%
%ADD16RoundRect,0.218750X0.218750X0.256250X-0.218750X0.256250X-0.218750X-0.256250X0.218750X-0.256250X0*%
%ADD17RoundRect,0.218750X-0.218750X-0.256250X0.218750X-0.256250X0.218750X0.256250X-0.218750X0.256250X0*%
%ADD18RoundRect,0.250000X-0.625000X0.375000X-0.625000X-0.375000X0.625000X-0.375000X0.625000X0.375000X0*%
%ADD19RoundRect,0.250000X0.625000X-0.375000X0.625000X0.375000X-0.625000X0.375000X-0.625000X-0.375000X0*%
%ADD20R,0.400000X1.350000*%
%ADD21R,1.800000X1.900000*%
%ADD22R,1.900000X1.900000*%
%ADD23R,0.250000X0.800000*%
%ADD24R,0.800000X0.250000*%
%ADD25R,3.700000X3.700000*%
%ADD26R,0.800000X0.900000*%
%ADD27RoundRect,0.172500X-0.172500X-0.242500X0.172500X-0.242500X0.172500X0.242500X-0.172500X0.242500X0*%
%ADD28RoundRect,0.075000X-0.325000X-0.075000X0.325000X-0.075000X0.325000X0.075000X-0.325000X0.075000X0*%
%ADD29RoundRect,0.250000X-0.375000X-0.625000X0.375000X-0.625000X0.375000X0.625000X-0.375000X0.625000X0*%
%ADD30RoundRect,0.243750X0.456250X-0.243750X0.456250X0.243750X-0.456250X0.243750X-0.456250X-0.243750X0*%
%ADD31RoundRect,0.218750X-0.256250X0.218750X-0.256250X-0.218750X0.256250X-0.218750X0.256250X0.218750X0*%
%ADD32RoundRect,0.250000X1.500000X0.550000X-1.500000X0.550000X-1.500000X-0.550000X1.500000X-0.550000X0*%
%ADD33RoundRect,0.218750X0.256250X-0.218750X0.256250X0.218750X-0.256250X0.218750X-0.256250X-0.218750X0*%
%ADD34RoundRect,0.150000X-0.325000X-0.150000X0.325000X-0.150000X0.325000X0.150000X-0.325000X0.150000X0*%
%ADD35RoundRect,0.150000X-0.150000X-0.325000X0.150000X-0.325000X0.150000X0.325000X-0.150000X0.325000X0*%
%ADD36R,0.500000X0.500000*%
%ADD37R,1.800000X1.000000*%
%ADD38RoundRect,0.242500X-0.242500X-0.242500X0.242500X-0.242500X0.242500X0.242500X-0.242500X0.242500X0*%
%ADD39RoundRect,0.062500X-0.337500X-0.062500X0.337500X-0.062500X0.337500X0.062500X-0.337500X0.062500X0*%
%ADD40RoundRect,0.062500X-0.062500X-0.337500X0.062500X-0.337500X0.062500X0.337500X-0.062500X0.337500X0*%
G04 APERTURE END LIST*
D10*
X6100000Y17285000D03*
X6100000Y16315000D03*
X12150000Y8435000D03*
X12150000Y7465000D03*
D11*
X6665000Y28400000D03*
X7635000Y28400000D03*
D12*
X6100000Y18315000D03*
X6100000Y19285000D03*
D13*
X7635000Y32400000D03*
X6665000Y32400000D03*
D14*
X13937500Y13300000D03*
X12062500Y13300000D03*
D11*
X6665000Y31400000D03*
X7635000Y31400000D03*
D10*
X3300000Y23385000D03*
X3300000Y22415000D03*
D13*
X12885000Y24300000D03*
X11915000Y24300000D03*
D10*
X10900000Y25285000D03*
X10900000Y24315000D03*
D11*
X6665000Y29400000D03*
X7635000Y29400000D03*
D13*
X7635000Y30400000D03*
X6665000Y30400000D03*
D12*
X16250000Y11215000D03*
X16250000Y12185000D03*
X21600000Y7435000D03*
X21600000Y8405000D03*
D11*
X28265000Y8000000D03*
X29235000Y8000000D03*
D15*
X18450000Y13250000D03*
X18450000Y11350000D03*
X20450000Y12300000D03*
D12*
X15350000Y7415000D03*
X15350000Y8385000D03*
X22600000Y7415000D03*
X22600000Y8385000D03*
D13*
X24585000Y17800000D03*
X23615000Y17800000D03*
X25085000Y13600000D03*
X24115000Y13600000D03*
D16*
X30187500Y22950000D03*
X28612500Y22950000D03*
D17*
X25812500Y21175000D03*
X27387500Y21175000D03*
D16*
X30037500Y9900000D03*
X28462500Y9900000D03*
D18*
X34050000Y22200000D03*
X34050000Y19400000D03*
D19*
X34050000Y10600000D03*
X34050000Y13400000D03*
D12*
X10750000Y7465000D03*
X10750000Y8435000D03*
D20*
X14825400Y36505800D03*
X14175400Y36505800D03*
X13525400Y36505800D03*
X12875400Y36505800D03*
X12225400Y36505800D03*
D21*
X9525400Y39180800D03*
D22*
X12325400Y39180800D03*
D21*
X17525400Y39180800D03*
D22*
X14725400Y39180800D03*
D12*
X16300000Y7415000D03*
X16300000Y8385000D03*
D13*
X31135000Y8000000D03*
X30165000Y8000000D03*
D12*
X2350000Y22415000D03*
X2350000Y23385000D03*
D10*
X17200000Y12185000D03*
X17200000Y11215000D03*
D23*
X29887800Y18875200D03*
X29387801Y18875200D03*
X28887799Y18875200D03*
X28387800Y18875200D03*
X27887801Y18875200D03*
X27387799Y18875200D03*
X26887800Y18875200D03*
D24*
X25887800Y17875200D03*
X25887800Y17375201D03*
X25887800Y16875199D03*
X25887800Y16375200D03*
X25887800Y15875201D03*
X25887800Y15375199D03*
X25887800Y14875200D03*
D23*
X26887800Y13875200D03*
X27387799Y13875200D03*
X27887801Y13875200D03*
X28387800Y13875200D03*
X28887799Y13875200D03*
X29387801Y13875200D03*
X29887800Y13875200D03*
D24*
X30887800Y14875200D03*
X30887800Y15375199D03*
X30887800Y15875201D03*
X30887800Y16375200D03*
X30887800Y16875199D03*
X30887800Y17375201D03*
X30887800Y17875200D03*
D25*
X28387800Y16375200D03*
D26*
X12750000Y11600000D03*
X10850000Y11600000D03*
X11800000Y9600000D03*
D11*
X20500000Y24400000D03*
X21470000Y24400000D03*
D13*
X24585000Y15600000D03*
X23615000Y15600000D03*
D11*
X23615000Y14600000D03*
X24585000Y14600000D03*
D27*
X25175000Y9190000D03*
X25175000Y10210000D03*
X26025000Y10210000D03*
X26025000Y9190000D03*
D28*
X24150000Y10675000D03*
X24150000Y10025000D03*
X24150000Y9375000D03*
X24150000Y8725000D03*
X27050000Y10675000D03*
X27050000Y9375000D03*
X27050000Y10025000D03*
X27050000Y8725000D03*
D11*
X23565000Y7450000D03*
X24535000Y7450000D03*
D29*
X29517100Y25327600D03*
X32317100Y25327600D03*
D30*
X19200000Y31262500D03*
X19200000Y33137500D03*
X17200000Y31262500D03*
X17200000Y33137500D03*
X21200000Y31262500D03*
X21200000Y33137500D03*
D31*
X36500000Y27787500D03*
X36500000Y26212500D03*
D12*
X1400000Y22415000D03*
X1400000Y23385000D03*
X6800000Y26415000D03*
X6800000Y27385000D03*
D32*
X31450000Y30500000D03*
X26050000Y30500000D03*
D13*
X21470000Y23400000D03*
X20500000Y23400000D03*
D11*
X9635000Y14020000D03*
X10605000Y14020000D03*
X10265000Y15000000D03*
X11235000Y15000000D03*
D12*
X13250000Y32515000D03*
X13250000Y33485000D03*
X12265000Y32515000D03*
X12265000Y33485000D03*
X13100000Y7465000D03*
X13100000Y8435000D03*
D33*
X24300000Y19112500D03*
X24300000Y20687500D03*
D17*
X21062500Y38750000D03*
X22637500Y38750000D03*
D11*
X20865000Y37350000D03*
X21835000Y37350000D03*
D12*
X9400000Y22415000D03*
X9400000Y23385000D03*
D10*
X6450000Y23385000D03*
X6450000Y22415000D03*
X7450000Y23395000D03*
X7450000Y22425000D03*
X8440000Y23395000D03*
X8440000Y22425000D03*
D12*
X4250000Y22415000D03*
X4250000Y23385000D03*
X5200000Y22415000D03*
X5200000Y23385000D03*
D34*
X6250000Y13750000D03*
X6250000Y12950000D03*
X6250000Y12150000D03*
X6250000Y11350000D03*
X6250000Y10550000D03*
X6250000Y9750000D03*
D35*
X7250000Y9750000D03*
D34*
X8250000Y9750000D03*
X8250000Y10550000D03*
X8250000Y11350000D03*
X8250000Y12150000D03*
X8250000Y12950000D03*
X8250000Y13750000D03*
D35*
X7250000Y13750000D03*
D10*
X10950000Y27885000D03*
X10950000Y26915000D03*
D17*
X8112500Y26100000D03*
X9687500Y26100000D03*
D13*
X6935000Y15050000D03*
X5965000Y15050000D03*
D15*
X12250000Y27550000D03*
X12250000Y25650000D03*
X14250000Y26600000D03*
D26*
X19500000Y9650000D03*
X17600000Y9650000D03*
X18550000Y7650000D03*
D13*
X16335000Y10300000D03*
X15365000Y10300000D03*
D11*
X15365000Y9350000D03*
X16335000Y9350000D03*
D10*
X26000000Y23485000D03*
X26000000Y22515000D03*
D12*
X15500000Y25315000D03*
X15500000Y26285000D03*
D10*
X21800000Y10885000D03*
X21800000Y9915000D03*
D12*
X32400000Y18915000D03*
X32400000Y19885000D03*
D10*
X35250000Y25985000D03*
X35250000Y25015000D03*
D36*
X6000000Y21000000D03*
X8200000Y21000000D03*
D10*
X32400000Y13885000D03*
X32400000Y12915000D03*
D37*
X7800000Y19150000D03*
X7800000Y16650000D03*
D12*
X38750000Y25015000D03*
X38750000Y25985000D03*
X9900000Y27315000D03*
X9900000Y28285000D03*
X34250000Y25015000D03*
X34250000Y25985000D03*
D11*
X13815000Y24300000D03*
X14785000Y24300000D03*
D38*
X13800000Y18800000D03*
X12600000Y20000000D03*
X12600000Y21200000D03*
X12600000Y18800000D03*
X15000000Y18800000D03*
X15000000Y20000000D03*
X13800000Y21200000D03*
X15000000Y21200000D03*
X13800000Y20000000D03*
D39*
X11350000Y21750000D03*
X11350000Y21250000D03*
X11350000Y20750000D03*
X11350000Y20250000D03*
X11350000Y19750000D03*
X11350000Y19250000D03*
X11350000Y18750000D03*
X11350000Y18250000D03*
D40*
X12050000Y17550000D03*
X12550000Y17550000D03*
X13050000Y17550000D03*
X13550000Y17550000D03*
X14050000Y17550000D03*
X14550000Y17550000D03*
X15050000Y17550000D03*
X15550000Y17550000D03*
D39*
X16250000Y18250000D03*
X16250000Y18750000D03*
X16250000Y19250000D03*
X16250000Y19750000D03*
X16250000Y20250000D03*
X16250000Y20750000D03*
X16250000Y21250000D03*
X16250000Y21750000D03*
D40*
X15550000Y22450000D03*
X15050000Y22450000D03*
X14550000Y22450000D03*
X14050000Y22450000D03*
X13550000Y22450000D03*
X13050000Y22450000D03*
X12550000Y22450000D03*
X12050000Y22450000D03*
D10*
X37750000Y25985000D03*
X37750000Y25015000D03*
M02*
