G04 #@! TF.GenerationSoftware,KiCad,Pcbnew,6.99.0-unknown-41f6e634c6~148~ubuntu20.04.1*
G04 #@! TF.CreationDate,2022-02-25T02:28:11-08:00*
G04 #@! TF.ProjectId,Huvud,48757675-642e-46b6-9963-61645f706362,rev?*
G04 #@! TF.SameCoordinates,PXad91980PY876bf80*
G04 #@! TF.FileFunction,Copper,L4,Bot*
G04 #@! TF.FilePolarity,Positive*
%FSLAX46Y46*%
G04 Gerber Fmt 4.6, Leading zero omitted, Abs format (unit mm)*
G04 Created by KiCad (PCBNEW 6.99.0-unknown-41f6e634c6~148~ubuntu20.04.1) date 2022-02-25 02:28:11*
%MOMM*%
%LPD*%
G01*
G04 APERTURE LIST*
G04 Aperture macros list*
%AMRoundRect*
0 Rectangle with rounded corners*
0 $1 Rounding radius*
0 $2 $3 $4 $5 $6 $7 $8 $9 X,Y pos of 4 corners*
0 Add a 4 corners polygon primitive as box body*
4,1,4,$2,$3,$4,$5,$6,$7,$8,$9,$2,$3,0*
0 Add four circle primitives for the rounded corners*
1,1,$1+$1,$2,$3*
1,1,$1+$1,$4,$5*
1,1,$1+$1,$6,$7*
1,1,$1+$1,$8,$9*
0 Add four rect primitives between the rounded corners*
20,1,$1+$1,$2,$3,$4,$5,0*
20,1,$1+$1,$4,$5,$6,$7,0*
20,1,$1+$1,$6,$7,$8,$9,0*
20,1,$1+$1,$8,$9,$2,$3,0*%
G04 Aperture macros list end*
G04 #@! TA.AperFunction,ComponentPad*
%ADD10RoundRect,0.225000X0.475000X-0.225000X0.475000X0.225000X-0.475000X0.225000X-0.475000X-0.225000X0*%
G04 #@! TD*
G04 #@! TA.AperFunction,ComponentPad*
%ADD11O,1.400000X0.900000*%
G04 #@! TD*
G04 #@! TA.AperFunction,ComponentPad*
%ADD12RoundRect,0.225000X-0.475000X0.225000X-0.475000X-0.225000X0.475000X-0.225000X0.475000X0.225000X0*%
G04 #@! TD*
G04 #@! TA.AperFunction,ComponentPad*
%ADD13C,0.800000*%
G04 #@! TD*
G04 #@! TA.AperFunction,ComponentPad*
%ADD14C,6.400000*%
G04 #@! TD*
G04 #@! TA.AperFunction,ComponentPad*
%ADD15R,1.000000X1.000000*%
G04 #@! TD*
G04 #@! TA.AperFunction,ComponentPad*
%ADD16O,1.000000X1.000000*%
G04 #@! TD*
G04 #@! TA.AperFunction,ComponentPad*
%ADD17RoundRect,0.250001X-0.499999X-0.499999X0.499999X-0.499999X0.499999X0.499999X-0.499999X0.499999X0*%
G04 #@! TD*
G04 #@! TA.AperFunction,ComponentPad*
%ADD18C,1.500000*%
G04 #@! TD*
G04 #@! TA.AperFunction,ComponentPad*
%ADD19RoundRect,0.250000X0.725000X-0.600000X0.725000X0.600000X-0.725000X0.600000X-0.725000X-0.600000X0*%
G04 #@! TD*
G04 #@! TA.AperFunction,ComponentPad*
%ADD20O,1.950000X1.700000*%
G04 #@! TD*
G04 #@! TA.AperFunction,ComponentPad*
%ADD21C,0.600000*%
G04 #@! TD*
G04 #@! TA.AperFunction,ViaPad*
%ADD22C,0.600000*%
G04 #@! TD*
G04 #@! TA.AperFunction,ViaPad*
%ADD23C,0.800000*%
G04 #@! TD*
G04 #@! TA.AperFunction,Conductor*
%ADD24C,0.152400*%
G04 #@! TD*
G04 #@! TA.AperFunction,Conductor*
%ADD25C,0.800000*%
G04 #@! TD*
G04 APERTURE END LIST*
D10*
X2870000Y10850000D03*
D11*
X2869999Y12099999D03*
X2869999Y13349999D03*
X2869999Y14599999D03*
X2869999Y15849999D03*
X2869999Y17099999D03*
D12*
X24250000Y4475000D03*
D11*
X24249999Y3224999D03*
D13*
X34100000Y36500000D03*
X34802944Y38197056D03*
X34802944Y34802944D03*
X36500000Y38900000D03*
D14*
X36500000Y36500000D03*
D13*
X36500000Y34100000D03*
X38197056Y38197056D03*
X38197056Y34802944D03*
X38900000Y36500000D03*
X34100000Y5500000D03*
X34802944Y7197056D03*
X34802944Y3802944D03*
X36500000Y7900000D03*
D14*
X36500000Y5500000D03*
D13*
X36500000Y3100000D03*
X38197056Y7197056D03*
X38197056Y3802944D03*
X38900000Y5500000D03*
D12*
X15650000Y4475000D03*
D11*
X15649999Y3224999D03*
D13*
X3100000Y5500000D03*
X3802944Y7197056D03*
X3802944Y3802944D03*
X5500000Y7900000D03*
D14*
X5500000Y5500000D03*
D13*
X5500000Y3100000D03*
X7197056Y7197056D03*
X7197056Y3802944D03*
X7900000Y5500000D03*
D15*
X2978199Y29726999D03*
D16*
X1708199Y29726999D03*
X2978199Y30996999D03*
X1708199Y30996999D03*
X2978199Y32266999D03*
X1708199Y32266999D03*
D13*
X3100000Y36500000D03*
X3802944Y38197056D03*
X3802944Y34802944D03*
X5500000Y38900000D03*
D14*
X5500000Y36500000D03*
D13*
X5500000Y34100000D03*
X7197056Y38197056D03*
X7197056Y34802944D03*
X7900000Y36500000D03*
D12*
X19950000Y4475000D03*
D11*
X19949999Y3224999D03*
D17*
X28700000Y34700000D03*
D18*
X28700000Y31700000D03*
D19*
X38038500Y12524000D03*
D20*
X38038499Y15023999D03*
X38038499Y17523999D03*
X38038499Y20023999D03*
D21*
X16074200Y19713400D03*
X14799200Y19713400D03*
X13524200Y19713400D03*
X16074200Y18438400D03*
X14799200Y18438400D03*
X13524200Y18438400D03*
X16074200Y17163400D03*
X14799200Y17163400D03*
X13524200Y17163400D03*
D12*
X28550000Y4475000D03*
D11*
X28549999Y3224999D03*
D10*
X8750000Y26240000D03*
D11*
X8749999Y27489999D03*
X8749999Y28739999D03*
X8749999Y29989999D03*
X8749999Y31239999D03*
D17*
X13295000Y34695000D03*
D18*
X16295000Y34695000D03*
X13295000Y31695000D03*
X16295000Y31695000D03*
D12*
X11350000Y4475000D03*
D11*
X11349999Y3224999D03*
D22*
X11700400Y9970800D03*
X12868800Y9970800D03*
X16323200Y9869200D03*
X9353318Y7920645D03*
D23*
X28400000Y15100000D03*
D22*
X20240000Y30310000D03*
D23*
X27200000Y17600000D03*
X29500000Y16400000D03*
D22*
X25619600Y10326400D03*
X38167200Y25464800D03*
X36050000Y10150000D03*
X23943200Y13323600D03*
X22790000Y37580000D03*
X36100000Y21900000D03*
X4695916Y26691704D03*
X27160000Y24540000D03*
X29429600Y26633200D03*
X25416400Y13374400D03*
X28616800Y25312400D03*
X24540000Y27200000D03*
D23*
X28400000Y17600000D03*
D22*
X29023200Y9259600D03*
X25822800Y28919200D03*
X29429600Y24194800D03*
X8278737Y18218737D03*
X14520000Y26140000D03*
D23*
X27200000Y15200000D03*
D22*
X36541600Y26074400D03*
X17745600Y9412000D03*
D23*
X28400000Y16400000D03*
D22*
X21120000Y33440000D03*
X28566000Y23686800D03*
X13331247Y24499679D03*
X12310000Y19505200D03*
X23430000Y25640000D03*
X6586284Y17392790D03*
X25162400Y28919200D03*
X7890400Y8700800D03*
X4791600Y13780800D03*
X4740800Y24042400D03*
X7331600Y9462800D03*
X26080000Y24550000D03*
X20310000Y37560000D03*
X2200800Y27446000D03*
X13141669Y12774284D03*
X27630000Y28600000D03*
X12330000Y29910000D03*
X34001600Y28258800D03*
D23*
X29500000Y17600000D03*
D22*
X19950000Y27090000D03*
X35350000Y10750000D03*
X34712800Y25515600D03*
X35450000Y21950000D03*
D23*
X27200000Y16400000D03*
D22*
X36100000Y22550000D03*
X22063600Y9412000D03*
X35450000Y22600000D03*
D23*
X29500000Y15100000D03*
D22*
X36050000Y10800000D03*
X22208300Y22858300D03*
X18450000Y24410000D03*
X34052400Y30544800D03*
X23130400Y14746000D03*
X19800000Y24250000D03*
X32020400Y29427200D03*
X21930000Y16230000D03*
X35350000Y10100000D03*
X18750000Y15050000D03*
X4791600Y11901200D03*
X24502000Y28919200D03*
X25500000Y40250000D03*
X37252800Y40755600D03*
D23*
X32400000Y23500000D03*
X31300000Y9200000D03*
X31300000Y22500000D03*
D22*
X31750000Y39250000D03*
D23*
X32400000Y9200000D03*
D22*
X24349600Y21400800D03*
D23*
X31300000Y10300000D03*
X32400000Y10300000D03*
X32400000Y22500000D03*
X31300000Y23500000D03*
D22*
X26127600Y13984000D03*
X12770000Y13450000D03*
X9639184Y18426005D03*
X22260000Y14835000D03*
X22125000Y21675000D03*
X17750000Y14020000D03*
X8020000Y22720000D03*
X21030000Y31600000D03*
X2139378Y28512800D03*
X3020364Y26673850D03*
X14257974Y23832700D03*
X18545457Y23100072D03*
X20700000Y18750000D03*
X6569600Y16422400D03*
X5248800Y9412000D03*
X3530000Y24340000D03*
X22590000Y24940000D03*
X4893200Y14746000D03*
X24908400Y31357600D03*
X26229200Y31357600D03*
X24908400Y30595600D03*
X25568800Y30595600D03*
X25568800Y31357600D03*
X26229200Y30595600D03*
X15062650Y10843850D03*
X21240000Y14760000D03*
X15677706Y25173531D03*
X26700000Y22400000D03*
X26635600Y26582400D03*
X16055032Y24552700D03*
X26889600Y11799600D03*
X10160000Y19700000D03*
X9670000Y20260000D03*
X27854800Y12002800D03*
X10100000Y20940000D03*
X24705200Y16879600D03*
X1997600Y26125200D03*
X10180000Y17420000D03*
X7114401Y19120100D03*
X24502000Y16168400D03*
X17320706Y23435982D03*
X16603308Y23112382D03*
X23587600Y16168400D03*
X930800Y19064000D03*
X4131200Y18352800D03*
X11193500Y32470000D03*
X22223660Y17989393D03*
X10466500Y32470000D03*
X22223660Y17262393D03*
D23*
X29200000Y12400000D03*
X30200000Y11300000D03*
X30200000Y12400000D03*
D22*
X38706200Y23454100D03*
D23*
X29200000Y11300000D03*
D22*
X37691000Y23288300D03*
X35297400Y23559700D03*
D23*
X29200000Y21300000D03*
D22*
X34265500Y23257400D03*
D23*
X29200000Y20300000D03*
X30200000Y21300000D03*
X30200000Y20300000D03*
D22*
X16740000Y13130000D03*
X10735200Y10428000D03*
X14494400Y8880900D03*
X16659676Y14001250D03*
X15002400Y29986000D03*
X19300000Y31920000D03*
X15155101Y13215094D03*
X8500000Y14695200D03*
X14428705Y13227577D03*
X6620400Y15508000D03*
X18674150Y21475850D03*
X11350000Y23780000D03*
X15054250Y24270707D03*
X11540000Y26730000D03*
X11520000Y25910000D03*
X14896500Y23442184D03*
X14415059Y22827300D03*
X11480000Y25140000D03*
X21320000Y25650000D03*
X13490000Y26950000D03*
D24*
X1708200Y32267000D02*
X1005489Y31564289D01*
X1005489Y27117311D02*
X1997600Y26125200D01*
X1005489Y31564289D02*
X1005489Y27117311D01*
D25*
X36724000Y12524000D02*
X36700000Y12500000D01*
X38038000Y12524000D02*
X36724000Y12524000D01*
X38038000Y20024000D02*
X36676000Y20024000D01*
G04 #@! TA.AperFunction,Conductor*
G36*
X36998742Y13255613D02*
G01*
X37048553Y13205022D01*
X37063500Y13145497D01*
X37063500Y12942115D01*
X37067975Y12926876D01*
X37069365Y12925671D01*
X37077048Y12924000D01*
X38312500Y12924000D01*
X38380621Y12903998D01*
X38427114Y12850342D01*
X38438500Y12798000D01*
X38438500Y12250000D01*
X38418498Y12181879D01*
X38364842Y12135386D01*
X38312500Y12124000D01*
X37081615Y12124000D01*
X37066376Y12119525D01*
X37065171Y12118135D01*
X37063500Y12110452D01*
X37063500Y11905563D01*
X37064707Y11893309D01*
X37075585Y11838623D01*
X37084898Y11816138D01*
X37126367Y11754076D01*
X37143576Y11736867D01*
X37171576Y11718158D01*
X37217104Y11663681D01*
X37225952Y11593238D01*
X37195310Y11529194D01*
X37134909Y11491882D01*
X37112649Y11487881D01*
X28887075Y10762095D01*
X28817459Y10776032D01*
X28766431Y10825393D01*
X28750000Y10887607D01*
X28750000Y12631774D01*
X28770002Y12699895D01*
X28823658Y12746388D01*
X28867986Y12757519D01*
X36929488Y13271242D01*
X36998742Y13255613D01*
G37*
G04 #@! TD.AperFunction*
G04 #@! TA.AperFunction,Conductor*
G36*
X37707481Y21105661D02*
G01*
X37773711Y21080088D01*
X37815600Y21022766D01*
X37819850Y20951897D01*
X37785110Y20889980D01*
X37729406Y20859888D01*
X37729698Y20859022D01*
X37724663Y20857326D01*
X37724140Y20857043D01*
X37723229Y20856843D01*
X37560966Y20802170D01*
X37548636Y20796466D01*
X37401918Y20708188D01*
X37391114Y20699975D01*
X37266801Y20582221D01*
X37258007Y20571867D01*
X37163859Y20433007D01*
X37163278Y20426791D01*
X37168135Y20424000D01*
X38088500Y20424000D01*
X38088500Y19624000D01*
X37181612Y19624000D01*
X37168081Y19620027D01*
X37167676Y19617206D01*
X37168596Y19614382D01*
X37202614Y19550218D01*
X37210242Y19538967D01*
X37321085Y19408474D01*
X37330948Y19399130D01*
X37373929Y19366457D01*
X37416055Y19309308D01*
X37420596Y19238457D01*
X37386112Y19176398D01*
X37323550Y19142834D01*
X37287243Y19140582D01*
X28865566Y19840397D01*
X28799335Y19865971D01*
X28757445Y19923293D01*
X28750000Y19965964D01*
X28750000Y21713096D01*
X28770002Y21781217D01*
X28823658Y21827710D01*
X28886433Y21838663D01*
X37707481Y21105661D01*
G37*
G04 #@! TD.AperFunction*
G04 #@! TA.AperFunction,Conductor*
G36*
X37706050Y41598752D02*
G01*
X37732665Y41595463D01*
X37772946Y41590484D01*
X37796500Y41584572D01*
X37853650Y41562478D01*
X37875058Y41551007D01*
X37925850Y41515140D01*
X37938838Y41504184D01*
X39330492Y40108919D01*
X41518432Y37915301D01*
X41529121Y37904584D01*
X41544132Y37885249D01*
X41562383Y37854539D01*
X41571198Y37835268D01*
X41588119Y37784505D01*
X41592630Y37763796D01*
X41598931Y37705274D01*
X41599500Y37694676D01*
X41599500Y4305314D01*
X41598931Y4294716D01*
X41592631Y4236204D01*
X41588120Y4215496D01*
X41571199Y4164732D01*
X41562384Y4145460D01*
X41544273Y4114989D01*
X41529176Y4095568D01*
X37904432Y470825D01*
X37885007Y455725D01*
X37854540Y437618D01*
X37835268Y428802D01*
X37809886Y420341D01*
X37784503Y411881D01*
X37763796Y407370D01*
X37705274Y401069D01*
X37694676Y400500D01*
X4305314Y400500D01*
X4294716Y401069D01*
X4236204Y407369D01*
X4215496Y411880D01*
X4164732Y428801D01*
X4145458Y437617D01*
X4145456Y437618D01*
X4114989Y455727D01*
X4095568Y470824D01*
X1864312Y2702081D01*
X3067120Y2702081D01*
X3067509Y2699621D01*
X3070174Y2696330D01*
X3315482Y2497683D01*
X3319682Y2494631D01*
X3641277Y2285785D01*
X3645763Y2283195D01*
X3987446Y2109099D01*
X3992166Y2106997D01*
X4350175Y1969571D01*
X4355093Y1967973D01*
X4725496Y1868723D01*
X4730575Y1867644D01*
X5109311Y1807658D01*
X5114473Y1807116D01*
X5497405Y1787047D01*
X5502595Y1787047D01*
X5885527Y1807116D01*
X5890689Y1807658D01*
X6269425Y1867644D01*
X6274504Y1868723D01*
X6644907Y1967973D01*
X6649825Y1969571D01*
X7007834Y2106997D01*
X7012554Y2109099D01*
X7354237Y2283195D01*
X7358723Y2285785D01*
X7680318Y2494631D01*
X7684518Y2497683D01*
X7925726Y2693010D01*
X7932991Y2704197D01*
X7932861Y2706685D01*
X7930556Y2710234D01*
X5511086Y5129704D01*
X5499203Y5135758D01*
X5494172Y5134962D01*
X3073174Y2713964D01*
X3067120Y2702081D01*
X1864312Y2702081D01*
X470825Y4095568D01*
X455725Y4114993D01*
X437618Y4145460D01*
X428802Y4164732D01*
X411881Y4215495D01*
X407370Y4236204D01*
X401069Y4294726D01*
X400500Y4305324D01*
X400500Y5497405D01*
X1787047Y5497405D01*
X1807116Y5114473D01*
X1807658Y5109311D01*
X1867644Y4730575D01*
X1868723Y4725496D01*
X1967973Y4355093D01*
X1969571Y4350175D01*
X2106997Y3992166D01*
X2109099Y3987446D01*
X2283195Y3645763D01*
X2285785Y3641277D01*
X2494631Y3319682D01*
X2497683Y3315482D01*
X2693010Y3074274D01*
X2704197Y3067009D01*
X2706685Y3067139D01*
X2710234Y3069444D01*
X5129704Y5488914D01*
X5134946Y5499203D01*
X5864242Y5499203D01*
X5865038Y5494172D01*
X8286036Y3073174D01*
X8297919Y3067120D01*
X8300379Y3067509D01*
X8303670Y3070174D01*
X8429046Y3225000D01*
X10494318Y3225000D01*
X10514956Y3068238D01*
X10575464Y2922159D01*
X10671718Y2796718D01*
X10797159Y2700464D01*
X10943238Y2639956D01*
X11060639Y2624500D01*
X11639361Y2624500D01*
X11756762Y2639956D01*
X11902841Y2700464D01*
X12028282Y2796718D01*
X12124536Y2922159D01*
X12185044Y3068238D01*
X12205682Y3225000D01*
X14794318Y3225000D01*
X14814956Y3068238D01*
X14875464Y2922159D01*
X14971718Y2796718D01*
X15097159Y2700464D01*
X15243238Y2639956D01*
X15360639Y2624500D01*
X15939361Y2624500D01*
X16056762Y2639956D01*
X16202841Y2700464D01*
X16328282Y2796718D01*
X16424536Y2922159D01*
X16485044Y3068238D01*
X16505682Y3225000D01*
X16500262Y3266170D01*
X19045624Y3266170D01*
X19055944Y3102140D01*
X19057867Y3096222D01*
X19057867Y3096221D01*
X19067359Y3067009D01*
X19106732Y2945829D01*
X19110070Y2940570D01*
X19110070Y2940569D01*
X19125021Y2917010D01*
X19194798Y2807060D01*
X19199334Y2802800D01*
X19199336Y2802798D01*
X19304104Y2704415D01*
X19314607Y2694552D01*
X19458632Y2615373D01*
X19617823Y2574500D01*
X20240925Y2574500D01*
X20330887Y2585865D01*
X20356877Y2589148D01*
X20356878Y2589148D01*
X20363058Y2589929D01*
X20515871Y2650432D01*
X20648837Y2747037D01*
X20652803Y2751832D01*
X20652806Y2751834D01*
X20702841Y2812317D01*
X20753600Y2873674D01*
X20773993Y2917010D01*
X20820927Y3016752D01*
X20823579Y3022387D01*
X20854376Y3183830D01*
X20849196Y3266170D01*
X23345624Y3266170D01*
X23355944Y3102140D01*
X23357867Y3096222D01*
X23357867Y3096221D01*
X23367359Y3067009D01*
X23406732Y2945829D01*
X23410070Y2940570D01*
X23410070Y2940569D01*
X23425021Y2917010D01*
X23494798Y2807060D01*
X23499334Y2802800D01*
X23499336Y2802798D01*
X23604104Y2704415D01*
X23614607Y2694552D01*
X23758632Y2615373D01*
X23917823Y2574500D01*
X24540925Y2574500D01*
X24630887Y2585865D01*
X24656877Y2589148D01*
X24656878Y2589148D01*
X24663058Y2589929D01*
X24815871Y2650432D01*
X24948837Y2747037D01*
X24952803Y2751832D01*
X24952806Y2751834D01*
X25002841Y2812317D01*
X25053600Y2873674D01*
X25073993Y2917010D01*
X25120927Y3016752D01*
X25123579Y3022387D01*
X25154376Y3183830D01*
X25149196Y3266170D01*
X27645624Y3266170D01*
X27655944Y3102140D01*
X27657867Y3096222D01*
X27657867Y3096221D01*
X27667359Y3067009D01*
X27706732Y2945829D01*
X27710070Y2940570D01*
X27710070Y2940569D01*
X27725021Y2917010D01*
X27794798Y2807060D01*
X27799334Y2802800D01*
X27799336Y2802798D01*
X27904104Y2704415D01*
X27914607Y2694552D01*
X28058632Y2615373D01*
X28217823Y2574500D01*
X28840925Y2574500D01*
X28930887Y2585865D01*
X28956877Y2589148D01*
X28956878Y2589148D01*
X28963058Y2589929D01*
X29115871Y2650432D01*
X29186960Y2702081D01*
X34067120Y2702081D01*
X34067509Y2699621D01*
X34070174Y2696330D01*
X34315482Y2497683D01*
X34319682Y2494631D01*
X34641277Y2285785D01*
X34645763Y2283195D01*
X34987446Y2109099D01*
X34992166Y2106997D01*
X35350175Y1969571D01*
X35355093Y1967973D01*
X35725496Y1868723D01*
X35730575Y1867644D01*
X36109311Y1807658D01*
X36114473Y1807116D01*
X36497405Y1787047D01*
X36502595Y1787047D01*
X36885527Y1807116D01*
X36890689Y1807658D01*
X37269425Y1867644D01*
X37274504Y1868723D01*
X37644907Y1967973D01*
X37649825Y1969571D01*
X38007834Y2106997D01*
X38012554Y2109099D01*
X38354237Y2283195D01*
X38358723Y2285785D01*
X38680318Y2494631D01*
X38684518Y2497683D01*
X38925726Y2693010D01*
X38932991Y2704197D01*
X38932861Y2706685D01*
X38930556Y2710234D01*
X36511086Y5129704D01*
X36499203Y5135758D01*
X36494172Y5134962D01*
X34073174Y2713964D01*
X34067120Y2702081D01*
X29186960Y2702081D01*
X29248837Y2747037D01*
X29252803Y2751832D01*
X29252806Y2751834D01*
X29302841Y2812317D01*
X29353600Y2873674D01*
X29373993Y2917010D01*
X29420927Y3016752D01*
X29423579Y3022387D01*
X29454376Y3183830D01*
X29444056Y3347860D01*
X29393268Y3504171D01*
X29378247Y3527841D01*
X29344432Y3581124D01*
X29305202Y3642940D01*
X29300666Y3647200D01*
X29300664Y3647202D01*
X29185393Y3755448D01*
X29186286Y3756399D01*
X29154270Y3800465D01*
X29154269Y3861651D01*
X29190232Y3911151D01*
X29204944Y3920000D01*
X29238843Y3936572D01*
X29246211Y3940174D01*
X29334826Y4028789D01*
X29389866Y4141375D01*
X29400500Y4214364D01*
X29400500Y4735636D01*
X29389866Y4808625D01*
X29334826Y4921211D01*
X29246211Y5009826D01*
X29133625Y5064866D01*
X29060636Y5075500D01*
X28039364Y5075500D01*
X27966375Y5064866D01*
X27853789Y5009826D01*
X27765174Y4921211D01*
X27710134Y4808625D01*
X27699500Y4735636D01*
X27699500Y4214364D01*
X27710134Y4141375D01*
X27765174Y4028789D01*
X27853789Y3940174D01*
X27861157Y3936572D01*
X27899519Y3917818D01*
X27943493Y3875274D01*
X27954063Y3815009D01*
X27927190Y3760040D01*
X27914230Y3748784D01*
X27856199Y3706622D01*
X27851163Y3702963D01*
X27847197Y3698168D01*
X27847194Y3698166D01*
X27835384Y3683890D01*
X27746400Y3576326D01*
X27743749Y3570693D01*
X27743748Y3570691D01*
X27723585Y3527841D01*
X27676421Y3427613D01*
X27645624Y3266170D01*
X25149196Y3266170D01*
X25144056Y3347860D01*
X25093268Y3504171D01*
X25078247Y3527841D01*
X25044432Y3581124D01*
X25005202Y3642940D01*
X25000666Y3647200D01*
X25000664Y3647202D01*
X24885393Y3755448D01*
X24886286Y3756399D01*
X24854270Y3800465D01*
X24854269Y3861651D01*
X24890232Y3911151D01*
X24904944Y3920000D01*
X24938843Y3936572D01*
X24946211Y3940174D01*
X25034826Y4028789D01*
X25089866Y4141375D01*
X25100500Y4214364D01*
X25100500Y4735636D01*
X25089866Y4808625D01*
X25034826Y4921211D01*
X24946211Y5009826D01*
X24833625Y5064866D01*
X24760636Y5075500D01*
X23739364Y5075500D01*
X23666375Y5064866D01*
X23553789Y5009826D01*
X23465174Y4921211D01*
X23410134Y4808625D01*
X23399500Y4735636D01*
X23399500Y4214364D01*
X23410134Y4141375D01*
X23465174Y4028789D01*
X23553789Y3940174D01*
X23561157Y3936572D01*
X23599519Y3917818D01*
X23643493Y3875274D01*
X23654063Y3815009D01*
X23627190Y3760040D01*
X23614230Y3748784D01*
X23556199Y3706622D01*
X23551163Y3702963D01*
X23547197Y3698168D01*
X23547194Y3698166D01*
X23535384Y3683890D01*
X23446400Y3576326D01*
X23443749Y3570693D01*
X23443748Y3570691D01*
X23423585Y3527841D01*
X23376421Y3427613D01*
X23345624Y3266170D01*
X20849196Y3266170D01*
X20844056Y3347860D01*
X20793268Y3504171D01*
X20778247Y3527841D01*
X20744432Y3581124D01*
X20705202Y3642940D01*
X20700666Y3647200D01*
X20700664Y3647202D01*
X20585393Y3755448D01*
X20586286Y3756399D01*
X20554270Y3800465D01*
X20554269Y3861651D01*
X20590232Y3911151D01*
X20604944Y3920000D01*
X20638843Y3936572D01*
X20646211Y3940174D01*
X20734826Y4028789D01*
X20789866Y4141375D01*
X20800500Y4214364D01*
X20800500Y4735636D01*
X20789866Y4808625D01*
X20734826Y4921211D01*
X20646211Y5009826D01*
X20533625Y5064866D01*
X20460636Y5075500D01*
X19439364Y5075500D01*
X19366375Y5064866D01*
X19253789Y5009826D01*
X19165174Y4921211D01*
X19110134Y4808625D01*
X19099500Y4735636D01*
X19099500Y4214364D01*
X19110134Y4141375D01*
X19165174Y4028789D01*
X19253789Y3940174D01*
X19261157Y3936572D01*
X19299519Y3917818D01*
X19343493Y3875274D01*
X19354063Y3815009D01*
X19327190Y3760040D01*
X19314230Y3748784D01*
X19256199Y3706622D01*
X19251163Y3702963D01*
X19247197Y3698168D01*
X19247194Y3698166D01*
X19235384Y3683890D01*
X19146400Y3576326D01*
X19143749Y3570693D01*
X19143748Y3570691D01*
X19123585Y3527841D01*
X19076421Y3427613D01*
X19045624Y3266170D01*
X16500262Y3266170D01*
X16485044Y3381762D01*
X16424536Y3527841D01*
X16328282Y3653282D01*
X16233670Y3725880D01*
X16199014Y3776304D01*
X16200615Y3837469D01*
X16237863Y3886010D01*
X16250454Y3893361D01*
X16346211Y3940174D01*
X16434826Y4028789D01*
X16489866Y4141375D01*
X16500500Y4214364D01*
X16500500Y4735636D01*
X16489866Y4808625D01*
X16434826Y4921211D01*
X16346211Y5009826D01*
X16233625Y5064866D01*
X16160636Y5075500D01*
X15139364Y5075500D01*
X15066375Y5064866D01*
X14953789Y5009826D01*
X14865174Y4921211D01*
X14810134Y4808625D01*
X14799500Y4735636D01*
X14799500Y4214364D01*
X14810134Y4141375D01*
X14865174Y4028789D01*
X14953789Y3940174D01*
X15049544Y3893362D01*
X15093517Y3850820D01*
X15104087Y3790554D01*
X15077215Y3735586D01*
X15066331Y3725881D01*
X14971718Y3653282D01*
X14875464Y3527841D01*
X14814956Y3381762D01*
X14794318Y3225000D01*
X12205682Y3225000D01*
X12185044Y3381762D01*
X12124536Y3527841D01*
X12028282Y3653282D01*
X11933670Y3725880D01*
X11899014Y3776304D01*
X11900615Y3837469D01*
X11937863Y3886010D01*
X11950454Y3893361D01*
X12046211Y3940174D01*
X12134826Y4028789D01*
X12189866Y4141375D01*
X12200500Y4214364D01*
X12200500Y4735636D01*
X12189866Y4808625D01*
X12134826Y4921211D01*
X12046211Y5009826D01*
X11933625Y5064866D01*
X11860636Y5075500D01*
X10839364Y5075500D01*
X10766375Y5064866D01*
X10653789Y5009826D01*
X10565174Y4921211D01*
X10510134Y4808625D01*
X10499500Y4735636D01*
X10499500Y4214364D01*
X10510134Y4141375D01*
X10565174Y4028789D01*
X10653789Y3940174D01*
X10749544Y3893362D01*
X10793517Y3850820D01*
X10804087Y3790554D01*
X10777215Y3735586D01*
X10766331Y3725881D01*
X10671718Y3653282D01*
X10575464Y3527841D01*
X10514956Y3381762D01*
X10494318Y3225000D01*
X8429046Y3225000D01*
X8502317Y3315482D01*
X8505369Y3319682D01*
X8714215Y3641277D01*
X8716805Y3645763D01*
X8890901Y3987446D01*
X8893003Y3992166D01*
X9030429Y4350175D01*
X9032027Y4355093D01*
X9131277Y4725496D01*
X9132356Y4730575D01*
X9192342Y5109311D01*
X9192884Y5114473D01*
X9212953Y5497405D01*
X32787047Y5497405D01*
X32807116Y5114473D01*
X32807658Y5109311D01*
X32867644Y4730575D01*
X32868723Y4725496D01*
X32967973Y4355093D01*
X32969571Y4350175D01*
X33106997Y3992166D01*
X33109099Y3987446D01*
X33283195Y3645763D01*
X33285785Y3641277D01*
X33494631Y3319682D01*
X33497683Y3315482D01*
X33693010Y3074274D01*
X33704197Y3067009D01*
X33706685Y3067139D01*
X33710234Y3069444D01*
X36129704Y5488914D01*
X36134946Y5499203D01*
X36864242Y5499203D01*
X36865038Y5494172D01*
X39286036Y3073174D01*
X39297919Y3067120D01*
X39300379Y3067509D01*
X39303670Y3070174D01*
X39502317Y3315482D01*
X39505369Y3319682D01*
X39714215Y3641277D01*
X39716805Y3645763D01*
X39890901Y3987446D01*
X39893003Y3992166D01*
X40030429Y4350175D01*
X40032027Y4355093D01*
X40131277Y4725496D01*
X40132356Y4730575D01*
X40192342Y5109311D01*
X40192884Y5114473D01*
X40212953Y5497405D01*
X40212953Y5502595D01*
X40192884Y5885527D01*
X40192342Y5890689D01*
X40132356Y6269425D01*
X40131277Y6274504D01*
X40032027Y6644907D01*
X40030429Y6649825D01*
X39893003Y7007834D01*
X39890901Y7012554D01*
X39716805Y7354236D01*
X39714215Y7358722D01*
X39505369Y7680318D01*
X39502317Y7684518D01*
X39306990Y7925726D01*
X39295803Y7932991D01*
X39293315Y7932861D01*
X39289766Y7930556D01*
X36870296Y5511086D01*
X36864242Y5499203D01*
X36134946Y5499203D01*
X36135758Y5500797D01*
X36134962Y5505828D01*
X33713964Y7926826D01*
X33702081Y7932880D01*
X33699621Y7932491D01*
X33696330Y7929826D01*
X33497683Y7684518D01*
X33494631Y7680318D01*
X33285785Y7358722D01*
X33283195Y7354236D01*
X33109099Y7012554D01*
X33106997Y7007834D01*
X32969571Y6649825D01*
X32967973Y6644907D01*
X32868723Y6274504D01*
X32867644Y6269425D01*
X32807658Y5890689D01*
X32807116Y5885527D01*
X32787047Y5502595D01*
X32787047Y5497405D01*
X9212953Y5497405D01*
X9212953Y5502595D01*
X9192884Y5885527D01*
X9192342Y5890689D01*
X9132356Y6269425D01*
X9131277Y6274504D01*
X9032027Y6644907D01*
X9030429Y6649825D01*
X8893003Y7007834D01*
X8890901Y7012554D01*
X8716805Y7354236D01*
X8714215Y7358722D01*
X8505369Y7680318D01*
X8502317Y7684518D01*
X8311105Y7920645D01*
X8898185Y7920645D01*
X8916621Y7792419D01*
X8970436Y7674582D01*
X9055269Y7576678D01*
X9164249Y7506641D01*
X9171039Y7504647D01*
X9171042Y7504646D01*
X9274479Y7474275D01*
X9288546Y7470145D01*
X9418090Y7470145D01*
X9432157Y7474275D01*
X9535594Y7504646D01*
X9535597Y7504647D01*
X9542387Y7506641D01*
X9651367Y7576678D01*
X9736200Y7674582D01*
X9790015Y7792419D01*
X9808451Y7920645D01*
X9790015Y8048871D01*
X9736200Y8166708D01*
X9651367Y8264612D01*
X9602833Y8295803D01*
X34067009Y8295803D01*
X34067139Y8293315D01*
X34069444Y8289766D01*
X36488914Y5870296D01*
X36500797Y5864242D01*
X36505828Y5865038D01*
X38926826Y8286036D01*
X38932880Y8297919D01*
X38932491Y8300379D01*
X38929826Y8303670D01*
X38684518Y8502317D01*
X38680318Y8505369D01*
X38358723Y8714215D01*
X38354237Y8716805D01*
X38012554Y8890901D01*
X38007834Y8893003D01*
X37649825Y9030429D01*
X37644907Y9032027D01*
X37274504Y9131277D01*
X37269425Y9132356D01*
X36890689Y9192342D01*
X36885527Y9192884D01*
X36502595Y9212953D01*
X36497405Y9212953D01*
X36114473Y9192884D01*
X36109311Y9192342D01*
X35730575Y9132356D01*
X35725496Y9131277D01*
X35355093Y9032027D01*
X35350175Y9030429D01*
X34992166Y8893003D01*
X34987446Y8890901D01*
X34645764Y8716805D01*
X34641278Y8714215D01*
X34319682Y8505369D01*
X34315482Y8502317D01*
X34074274Y8306990D01*
X34067009Y8295803D01*
X9602833Y8295803D01*
X9542387Y8334649D01*
X9535597Y8336643D01*
X9535594Y8336644D01*
X9424881Y8369151D01*
X9418090Y8371145D01*
X9288546Y8371145D01*
X9281755Y8369151D01*
X9171042Y8336644D01*
X9171039Y8336643D01*
X9164249Y8334649D01*
X9055269Y8264612D01*
X8970436Y8166708D01*
X8916621Y8048871D01*
X8898185Y7920645D01*
X8311105Y7920645D01*
X8306990Y7925726D01*
X8295803Y7932991D01*
X8293315Y7932861D01*
X8289766Y7930556D01*
X5870296Y5511086D01*
X5864242Y5499203D01*
X5134946Y5499203D01*
X5135758Y5500797D01*
X5134962Y5505828D01*
X2713964Y7926826D01*
X2702081Y7932880D01*
X2699621Y7932491D01*
X2696330Y7929826D01*
X2497683Y7684518D01*
X2494631Y7680318D01*
X2285785Y7358722D01*
X2283195Y7354236D01*
X2109099Y7012554D01*
X2106997Y7007834D01*
X1969571Y6649825D01*
X1967973Y6644907D01*
X1868723Y6274504D01*
X1867644Y6269425D01*
X1807658Y5890689D01*
X1807116Y5885527D01*
X1787047Y5502595D01*
X1787047Y5497405D01*
X400500Y5497405D01*
X400500Y8295803D01*
X3067009Y8295803D01*
X3067139Y8293315D01*
X3069444Y8289766D01*
X5488914Y5870296D01*
X5500797Y5864242D01*
X5505828Y5865038D01*
X7926826Y8286036D01*
X7932880Y8297919D01*
X7932491Y8300379D01*
X7929826Y8303670D01*
X7684518Y8502317D01*
X7680318Y8505369D01*
X7358723Y8714215D01*
X7354237Y8716805D01*
X7032182Y8880900D01*
X14039267Y8880900D01*
X14057703Y8752674D01*
X14111518Y8634837D01*
X14196351Y8536933D01*
X14305331Y8466896D01*
X14312121Y8464902D01*
X14312124Y8464901D01*
X14415561Y8434530D01*
X14429628Y8430400D01*
X14559172Y8430400D01*
X14573239Y8434530D01*
X14676676Y8464901D01*
X14676679Y8464902D01*
X14683469Y8466896D01*
X14792449Y8536933D01*
X14877282Y8634837D01*
X14931097Y8752674D01*
X14949533Y8880900D01*
X14931097Y9009126D01*
X14877282Y9126963D01*
X14792449Y9224867D01*
X14683469Y9294904D01*
X14676679Y9296898D01*
X14676676Y9296899D01*
X14565963Y9329406D01*
X14559172Y9331400D01*
X14429628Y9331400D01*
X14422837Y9329406D01*
X14312124Y9296899D01*
X14312121Y9296898D01*
X14305331Y9294904D01*
X14196351Y9224867D01*
X14111518Y9126963D01*
X14057703Y9009126D01*
X14039267Y8880900D01*
X7032182Y8880900D01*
X7012554Y8890901D01*
X7007834Y8893003D01*
X6649825Y9030429D01*
X6644907Y9032027D01*
X6274504Y9131277D01*
X6269425Y9132356D01*
X5890689Y9192342D01*
X5885527Y9192884D01*
X5782258Y9198296D01*
X5725136Y9220222D01*
X5691812Y9271537D01*
X5689447Y9311249D01*
X5692345Y9331400D01*
X5703933Y9412000D01*
X5685497Y9540226D01*
X5631682Y9658063D01*
X5573910Y9724737D01*
X5551484Y9750618D01*
X5551483Y9750618D01*
X5546849Y9755967D01*
X5437869Y9826004D01*
X5431079Y9827998D01*
X5431076Y9827999D01*
X5320363Y9860506D01*
X5313572Y9862500D01*
X5184028Y9862500D01*
X5177237Y9860506D01*
X5066524Y9827999D01*
X5066521Y9827998D01*
X5059731Y9826004D01*
X4950751Y9755967D01*
X4946117Y9750618D01*
X4946116Y9750618D01*
X4923690Y9724737D01*
X4865918Y9658063D01*
X4812103Y9540226D01*
X4793667Y9412000D01*
X4812103Y9283774D01*
X4816962Y9273134D01*
X4823938Y9212351D01*
X4793852Y9159073D01*
X4742394Y9134228D01*
X4730580Y9132357D01*
X4725496Y9131277D01*
X4355093Y9032027D01*
X4350175Y9030429D01*
X3992166Y8893003D01*
X3987446Y8890901D01*
X3645764Y8716805D01*
X3641278Y8714215D01*
X3319682Y8505369D01*
X3315482Y8502317D01*
X3074274Y8306990D01*
X3067009Y8295803D01*
X400500Y8295803D01*
X400500Y11842709D01*
X1698031Y11842709D01*
X1698282Y11830330D01*
X1753724Y11680633D01*
X1758122Y11671666D01*
X1855875Y11514837D01*
X1861990Y11506938D01*
X1992767Y11369361D01*
X1990945Y11367629D01*
X2017721Y11323700D01*
X2012774Y11262715D01*
X2009612Y11255877D01*
X1985281Y11208126D01*
X1984062Y11200432D01*
X1984062Y11200431D01*
X1982064Y11187817D01*
X1969500Y11108488D01*
X1969500Y10591512D01*
X1970109Y10587668D01*
X1970109Y10587666D01*
X1984013Y10499883D01*
X1985281Y10491874D01*
X1988817Y10484935D01*
X1988817Y10484934D01*
X2035482Y10393350D01*
X2046472Y10371780D01*
X2141780Y10276472D01*
X2148717Y10272937D01*
X2148719Y10272936D01*
X2248271Y10222212D01*
X2261874Y10215281D01*
X2269568Y10214062D01*
X2269569Y10214062D01*
X2357666Y10200109D01*
X2357668Y10200109D01*
X2361512Y10199500D01*
X3378488Y10199500D01*
X3382332Y10200109D01*
X3382334Y10200109D01*
X3470431Y10214062D01*
X3470432Y10214062D01*
X3478126Y10215281D01*
X3491729Y10222212D01*
X3591281Y10272936D01*
X3591283Y10272937D01*
X3598220Y10276472D01*
X3693528Y10371780D01*
X3704519Y10393350D01*
X3722174Y10428000D01*
X10280067Y10428000D01*
X10298503Y10299774D01*
X10352318Y10181937D01*
X10380274Y10149674D01*
X10415672Y10108822D01*
X10437151Y10084033D01*
X10546131Y10013996D01*
X10552921Y10012002D01*
X10552924Y10012001D01*
X10656361Y9981630D01*
X10670428Y9977500D01*
X10799972Y9977500D01*
X10814039Y9981630D01*
X10917476Y10012001D01*
X10917479Y10012002D01*
X10924269Y10013996D01*
X11033249Y10084033D01*
X11054729Y10108822D01*
X11086170Y10145108D01*
X11138566Y10176704D01*
X11199527Y10171469D01*
X11245768Y10131401D01*
X11258982Y10066189D01*
X11245267Y9970800D01*
X11263703Y9842574D01*
X11317518Y9724737D01*
X11322153Y9719388D01*
X11380872Y9651622D01*
X11402351Y9626833D01*
X11511331Y9556796D01*
X11518121Y9554802D01*
X11518124Y9554801D01*
X11600610Y9530582D01*
X11635628Y9520300D01*
X11765172Y9520300D01*
X11800190Y9530582D01*
X11882676Y9554801D01*
X11882679Y9554802D01*
X11889469Y9556796D01*
X11998449Y9626833D01*
X12019929Y9651622D01*
X12078647Y9719388D01*
X12083282Y9724737D01*
X12137097Y9842574D01*
X12155533Y9970800D01*
X12413667Y9970800D01*
X12432103Y9842574D01*
X12485918Y9724737D01*
X12490553Y9719388D01*
X12549272Y9651622D01*
X12570751Y9626833D01*
X12679731Y9556796D01*
X12686521Y9554802D01*
X12686524Y9554801D01*
X12769010Y9530582D01*
X12804028Y9520300D01*
X12933572Y9520300D01*
X12968590Y9530582D01*
X13051076Y9554801D01*
X13051079Y9554802D01*
X13057869Y9556796D01*
X13166849Y9626833D01*
X13188329Y9651622D01*
X13247047Y9719388D01*
X13251682Y9724737D01*
X13305497Y9842574D01*
X13309325Y9869200D01*
X15868067Y9869200D01*
X15886503Y9740974D01*
X15940318Y9623137D01*
X16025151Y9525233D01*
X16134131Y9455196D01*
X16140921Y9453202D01*
X16140924Y9453201D01*
X16244361Y9422830D01*
X16258428Y9418700D01*
X16387972Y9418700D01*
X16402039Y9422830D01*
X16505476Y9453201D01*
X16505479Y9453202D01*
X16512269Y9455196D01*
X16621249Y9525233D01*
X16706082Y9623137D01*
X16759897Y9740974D01*
X16778333Y9869200D01*
X16759897Y9997426D01*
X16706082Y10115263D01*
X16648310Y10181937D01*
X16625884Y10207818D01*
X16625883Y10207818D01*
X16621249Y10213167D01*
X16536862Y10267399D01*
X16518226Y10279376D01*
X16518224Y10279377D01*
X16512269Y10283204D01*
X16505479Y10285198D01*
X16505476Y10285199D01*
X16394763Y10317706D01*
X16387972Y10319700D01*
X16258428Y10319700D01*
X16251637Y10317706D01*
X16140924Y10285199D01*
X16140921Y10285198D01*
X16134131Y10283204D01*
X16128176Y10279377D01*
X16128174Y10279376D01*
X16109538Y10267399D01*
X16025151Y10213167D01*
X16020517Y10207818D01*
X16020516Y10207818D01*
X15998090Y10181937D01*
X15940318Y10115263D01*
X15886503Y9997426D01*
X15868067Y9869200D01*
X13309325Y9869200D01*
X13323933Y9970800D01*
X13305497Y10099026D01*
X13251682Y10216863D01*
X13185426Y10293328D01*
X13171484Y10309418D01*
X13171483Y10309418D01*
X13166849Y10314767D01*
X13112359Y10349786D01*
X13063826Y10380976D01*
X13063824Y10380977D01*
X13057869Y10384804D01*
X13051079Y10386798D01*
X13051076Y10386799D01*
X12940363Y10419306D01*
X12933572Y10421300D01*
X12804028Y10421300D01*
X12797237Y10419306D01*
X12686524Y10386799D01*
X12686521Y10386798D01*
X12679731Y10384804D01*
X12673776Y10380977D01*
X12673774Y10380976D01*
X12625241Y10349786D01*
X12570751Y10314767D01*
X12566117Y10309418D01*
X12566116Y10309418D01*
X12552174Y10293328D01*
X12485918Y10216863D01*
X12432103Y10099026D01*
X12413667Y9970800D01*
X12155533Y9970800D01*
X12137097Y10099026D01*
X12083282Y10216863D01*
X12017026Y10293328D01*
X12003084Y10309418D01*
X12003083Y10309418D01*
X11998449Y10314767D01*
X11943959Y10349786D01*
X11895426Y10380976D01*
X11895424Y10380977D01*
X11889469Y10384804D01*
X11882679Y10386798D01*
X11882676Y10386799D01*
X11771963Y10419306D01*
X11765172Y10421300D01*
X11635628Y10421300D01*
X11628837Y10419306D01*
X11518124Y10386799D01*
X11518121Y10386798D01*
X11511331Y10384804D01*
X11505376Y10380977D01*
X11505374Y10380976D01*
X11456841Y10349786D01*
X11402351Y10314767D01*
X11397717Y10309418D01*
X11397716Y10309418D01*
X11349430Y10253692D01*
X11297034Y10222096D01*
X11236073Y10227331D01*
X11189832Y10267399D01*
X11176618Y10332612D01*
X11183248Y10378719D01*
X11190333Y10428000D01*
X11171897Y10556226D01*
X11118082Y10674063D01*
X11033249Y10771967D01*
X10951450Y10824536D01*
X10930226Y10838176D01*
X10930224Y10838177D01*
X10924269Y10842004D01*
X10917983Y10843850D01*
X14607517Y10843850D01*
X14625953Y10715624D01*
X14679768Y10597787D01*
X14764601Y10499883D01*
X14873581Y10429846D01*
X14880371Y10427852D01*
X14880374Y10427851D01*
X14983811Y10397480D01*
X14997878Y10393350D01*
X15127422Y10393350D01*
X15141489Y10397480D01*
X15244926Y10427851D01*
X15244929Y10427852D01*
X15251719Y10429846D01*
X15360699Y10499883D01*
X15445532Y10597787D01*
X15499347Y10715624D01*
X15517783Y10843850D01*
X15499347Y10972076D01*
X15445532Y11089913D01*
X15360699Y11187817D01*
X15286265Y11235653D01*
X15257676Y11254026D01*
X15257674Y11254027D01*
X15251719Y11257854D01*
X15244929Y11259848D01*
X15244926Y11259849D01*
X15134213Y11292356D01*
X15127422Y11294350D01*
X14997878Y11294350D01*
X14991087Y11292356D01*
X14880374Y11259849D01*
X14880371Y11259848D01*
X14873581Y11257854D01*
X14867626Y11254027D01*
X14867624Y11254026D01*
X14839035Y11235653D01*
X14764601Y11187817D01*
X14679768Y11089913D01*
X14625953Y10972076D01*
X14607517Y10843850D01*
X10917983Y10843850D01*
X10917479Y10843998D01*
X10917476Y10843999D01*
X10806763Y10876506D01*
X10799972Y10878500D01*
X10670428Y10878500D01*
X10663637Y10876506D01*
X10552924Y10843999D01*
X10552921Y10843998D01*
X10546131Y10842004D01*
X10540176Y10838177D01*
X10540174Y10838176D01*
X10518950Y10824536D01*
X10437151Y10771967D01*
X10352318Y10674063D01*
X10298503Y10556226D01*
X10280067Y10428000D01*
X3722174Y10428000D01*
X3751183Y10484934D01*
X3751183Y10484935D01*
X3754719Y10491874D01*
X3755988Y10499883D01*
X3769891Y10587666D01*
X3769891Y10587668D01*
X3770500Y10591512D01*
X3770500Y11108488D01*
X3757936Y11187817D01*
X3755938Y11200431D01*
X3755938Y11200432D01*
X3754719Y11208126D01*
X3740275Y11236475D01*
X3728319Y11259939D01*
X3718748Y11320371D01*
X3746525Y11374888D01*
X3752043Y11380001D01*
X3814124Y11433296D01*
X3821006Y11440536D01*
X3934120Y11586667D01*
X3939405Y11595146D01*
X4020791Y11761063D01*
X4024257Y11770421D01*
X4031812Y11799600D01*
X26434467Y11799600D01*
X26452903Y11671374D01*
X26506718Y11553537D01*
X26591551Y11455633D01*
X26700531Y11385596D01*
X26707321Y11383602D01*
X26707324Y11383601D01*
X26761722Y11367629D01*
X26824828Y11349100D01*
X26954372Y11349100D01*
X27017478Y11367629D01*
X27071876Y11383601D01*
X27071879Y11383602D01*
X27078669Y11385596D01*
X27187649Y11455633D01*
X27272482Y11553537D01*
X27326297Y11671374D01*
X27327305Y11678388D01*
X27329299Y11685177D01*
X27331759Y11684455D01*
X27353704Y11729072D01*
X27407822Y11757617D01*
X27468384Y11748900D01*
X27499508Y11724895D01*
X27556751Y11658833D01*
X27562708Y11655005D01*
X27646032Y11601456D01*
X27665731Y11588796D01*
X27672521Y11586802D01*
X27672524Y11586801D01*
X27763878Y11559978D01*
X27790028Y11552300D01*
X27919572Y11552300D01*
X27945722Y11559978D01*
X28037076Y11586801D01*
X28037079Y11586802D01*
X28043869Y11588796D01*
X28063569Y11601456D01*
X28146892Y11655005D01*
X28152849Y11658833D01*
X28237682Y11756737D01*
X28291497Y11874574D01*
X28293508Y11888561D01*
X28320504Y11943469D01*
X28374618Y11972022D01*
X28435181Y11963315D01*
X28479059Y11920672D01*
X28490500Y11874472D01*
X28490500Y10887607D01*
X28490912Y10884434D01*
X28490912Y10884433D01*
X28498689Y10824536D01*
X28499103Y10821344D01*
X28515534Y10759130D01*
X28528366Y10722120D01*
X28586009Y10638878D01*
X28617940Y10607990D01*
X28634975Y10591512D01*
X28637037Y10589517D01*
X28673022Y10560444D01*
X28766518Y10521581D01*
X28771282Y10520627D01*
X28771286Y10520626D01*
X28807597Y10513357D01*
X28836134Y10507644D01*
X28839655Y10507451D01*
X28839662Y10507450D01*
X28874962Y10505514D01*
X28909883Y10503599D01*
X28913396Y10503909D01*
X28913399Y10503909D01*
X30640916Y10656337D01*
X30700543Y10642617D01*
X30740718Y10596470D01*
X30746096Y10535521D01*
X30741081Y10519835D01*
X30726625Y10484934D01*
X30714956Y10456762D01*
X30694318Y10300000D01*
X30695165Y10293566D01*
X30697684Y10274431D01*
X30714956Y10143238D01*
X30775464Y9997159D01*
X30871718Y9871718D01*
X30876871Y9867764D01*
X30927986Y9828542D01*
X30962642Y9778117D01*
X30961040Y9716953D01*
X30927986Y9671458D01*
X30871718Y9628282D01*
X30775464Y9502841D01*
X30714956Y9356762D01*
X30694318Y9200000D01*
X30714956Y9043238D01*
X30775464Y8897159D01*
X30871718Y8771718D01*
X30997159Y8675464D01*
X31143238Y8614956D01*
X31300000Y8594318D01*
X31456762Y8614956D01*
X31602841Y8675464D01*
X31728282Y8771718D01*
X31771458Y8827986D01*
X31821883Y8862642D01*
X31883047Y8861040D01*
X31928542Y8827986D01*
X31971718Y8771718D01*
X32097159Y8675464D01*
X32243238Y8614956D01*
X32400000Y8594318D01*
X32556762Y8614956D01*
X32702841Y8675464D01*
X32828282Y8771718D01*
X32924536Y8897159D01*
X32985044Y9043238D01*
X33005682Y9200000D01*
X32985044Y9356762D01*
X32924536Y9502841D01*
X32828282Y9628282D01*
X32772014Y9671458D01*
X32737358Y9721883D01*
X32738960Y9783047D01*
X32772014Y9828542D01*
X32823129Y9867764D01*
X32828282Y9871718D01*
X32924536Y9997159D01*
X32985044Y10143238D01*
X33002316Y10274431D01*
X33004835Y10293566D01*
X33005682Y10300000D01*
X32985044Y10456762D01*
X32924536Y10602841D01*
X32851037Y10698627D01*
X32830613Y10756303D01*
X32847991Y10814968D01*
X32896532Y10852216D01*
X32920876Y10857511D01*
X36707737Y11191645D01*
X37134347Y11229287D01*
X37134350Y11229287D01*
X37135457Y11229385D01*
X37136553Y11229532D01*
X37136575Y11229534D01*
X37148497Y11231129D01*
X37158556Y11232474D01*
X37164900Y11233614D01*
X37176244Y11235653D01*
X37176246Y11235654D01*
X37180816Y11236475D01*
X37271289Y11271109D01*
X37275244Y11273552D01*
X37329823Y11307267D01*
X37329834Y11307274D01*
X37331690Y11308421D01*
X37368717Y11336139D01*
X37405741Y11385596D01*
X37426485Y11413306D01*
X37426486Y11413308D01*
X37429396Y11417195D01*
X37431490Y11421571D01*
X37431494Y11421578D01*
X37453334Y11467227D01*
X37495504Y11511559D01*
X37542639Y11523500D01*
X38722391Y11523501D01*
X38795018Y11523501D01*
X38798861Y11524110D01*
X38798866Y11524110D01*
X38835717Y11529947D01*
X38888804Y11538354D01*
X38945323Y11567152D01*
X38994903Y11592414D01*
X38994905Y11592415D01*
X39001842Y11595950D01*
X39091550Y11685658D01*
X39111543Y11724895D01*
X39145610Y11791756D01*
X39145610Y11791757D01*
X39149146Y11798696D01*
X39154157Y11830330D01*
X39163391Y11888635D01*
X39163391Y11888637D01*
X39164000Y11892481D01*
X39163999Y13155518D01*
X39149146Y13249304D01*
X39104816Y13336306D01*
X39095086Y13355403D01*
X39095085Y13355405D01*
X39091550Y13362342D01*
X39001842Y13452050D01*
X38994905Y13455585D01*
X38994903Y13455586D01*
X38895744Y13506110D01*
X38895743Y13506110D01*
X38888804Y13509646D01*
X38881110Y13510865D01*
X38881109Y13510865D01*
X38798865Y13523891D01*
X38798863Y13523891D01*
X38795019Y13524500D01*
X38038598Y13524500D01*
X37281982Y13524499D01*
X37278139Y13523890D01*
X37278134Y13523890D01*
X37241283Y13518053D01*
X37188196Y13509646D01*
X37181256Y13506110D01*
X37181253Y13506109D01*
X37167635Y13499171D01*
X37107203Y13489601D01*
X37082479Y13496918D01*
X37060321Y13506768D01*
X37060316Y13506770D01*
X37055868Y13508747D01*
X37051118Y13509819D01*
X36990071Y13523596D01*
X36990069Y13523596D01*
X36986614Y13524376D01*
X36970239Y13525675D01*
X36916508Y13529938D01*
X36916501Y13529938D01*
X36912985Y13530217D01*
X28851483Y13016494D01*
X28849260Y13016147D01*
X28807008Y13009552D01*
X28807005Y13009551D01*
X28804786Y13009205D01*
X28760458Y12998074D01*
X28759573Y12997816D01*
X28759562Y12997813D01*
X28753600Y12996075D01*
X28741709Y12992608D01*
X28653722Y12942505D01*
X28650050Y12939323D01*
X28601741Y12897464D01*
X28601734Y12897457D01*
X28600066Y12896012D01*
X28567944Y12862723D01*
X28564663Y12856450D01*
X28564662Y12856449D01*
X28542234Y12813573D01*
X28521013Y12773004D01*
X28501011Y12704883D01*
X28490500Y12631774D01*
X28490500Y12131128D01*
X28471593Y12072937D01*
X28422093Y12036973D01*
X28360907Y12036973D01*
X28311407Y12072937D01*
X28293508Y12117039D01*
X28292505Y12124012D01*
X28291497Y12131026D01*
X28237682Y12248863D01*
X28152849Y12346767D01*
X28043869Y12416804D01*
X28037079Y12418798D01*
X28037076Y12418799D01*
X27926363Y12451306D01*
X27919572Y12453300D01*
X27790028Y12453300D01*
X27783237Y12451306D01*
X27672524Y12418799D01*
X27672521Y12418798D01*
X27665731Y12416804D01*
X27556751Y12346767D01*
X27471918Y12248863D01*
X27418103Y12131026D01*
X27417095Y12124012D01*
X27415101Y12117223D01*
X27412641Y12117945D01*
X27390696Y12073328D01*
X27336578Y12044783D01*
X27276016Y12053500D01*
X27244891Y12077505D01*
X27192284Y12138218D01*
X27192283Y12138218D01*
X27187649Y12143567D01*
X27078669Y12213604D01*
X27071879Y12215598D01*
X27071876Y12215599D01*
X26961163Y12248106D01*
X26954372Y12250100D01*
X26824828Y12250100D01*
X26818037Y12248106D01*
X26707324Y12215599D01*
X26707321Y12215598D01*
X26700531Y12213604D01*
X26591551Y12143567D01*
X26506718Y12045663D01*
X26452903Y11927826D01*
X26434467Y11799600D01*
X4031812Y11799600D01*
X4039896Y11830822D01*
X4039140Y11843243D01*
X4029686Y11846000D01*
X1708159Y11846000D01*
X1698031Y11842709D01*
X400500Y11842709D01*
X400500Y12369178D01*
X1700104Y12369178D01*
X1700860Y12356757D01*
X1710314Y12354000D01*
X4031841Y12354000D01*
X4041969Y12357291D01*
X4041718Y12369670D01*
X3986276Y12519367D01*
X3981878Y12528334D01*
X3884125Y12685163D01*
X3878010Y12693062D01*
X3750695Y12826997D01*
X3743112Y12833507D01*
X3657108Y12893368D01*
X3620149Y12942129D01*
X3618909Y13003302D01*
X3635121Y13034889D01*
X3644536Y13047159D01*
X3705044Y13193238D01*
X3725682Y13350000D01*
X3712517Y13450000D01*
X12314867Y13450000D01*
X12333303Y13321774D01*
X12387118Y13203937D01*
X12471951Y13106033D01*
X12511803Y13080422D01*
X12571570Y13042012D01*
X12580931Y13035996D01*
X12587721Y13034002D01*
X12587724Y13034001D01*
X12646863Y13016637D01*
X12705228Y12999500D01*
X12834772Y12999500D01*
X12893137Y13016637D01*
X12952276Y13034001D01*
X12952279Y13034002D01*
X12959069Y13035996D01*
X12968431Y13042012D01*
X13028197Y13080422D01*
X13068049Y13106033D01*
X13152882Y13203937D01*
X13163678Y13227577D01*
X13973572Y13227577D01*
X13992008Y13099351D01*
X14045823Y12981514D01*
X14061274Y12963682D01*
X14124792Y12890378D01*
X14130656Y12883610D01*
X14185146Y12848591D01*
X14218748Y12826997D01*
X14239636Y12813573D01*
X14246426Y12811579D01*
X14246429Y12811578D01*
X14315213Y12791382D01*
X14363933Y12777077D01*
X14493477Y12777077D01*
X14542197Y12791382D01*
X14610981Y12811578D01*
X14610984Y12811579D01*
X14617774Y12813573D01*
X14638663Y12826997D01*
X14726754Y12883610D01*
X14727624Y12882256D01*
X14776235Y12902795D01*
X14835829Y12888933D01*
X14849530Y12878978D01*
X14852416Y12876478D01*
X14857052Y12871127D01*
X14911542Y12836109D01*
X14940652Y12817401D01*
X14966032Y12801090D01*
X14972822Y12799096D01*
X14972825Y12799095D01*
X15061686Y12773004D01*
X15090329Y12764594D01*
X15219873Y12764594D01*
X15248516Y12773004D01*
X15337377Y12799095D01*
X15337380Y12799096D01*
X15344170Y12801090D01*
X15369551Y12817401D01*
X15398660Y12836109D01*
X15453150Y12871127D01*
X15460650Y12879782D01*
X15517080Y12944907D01*
X15537983Y12969031D01*
X15591798Y13086868D01*
X15610234Y13215094D01*
X15591798Y13343320D01*
X15537983Y13461157D01*
X15453150Y13559061D01*
X15344170Y13629098D01*
X15337380Y13631092D01*
X15337377Y13631093D01*
X15226664Y13663600D01*
X15219873Y13665594D01*
X15090329Y13665594D01*
X15083538Y13663600D01*
X14972825Y13631093D01*
X14972822Y13631092D01*
X14966032Y13629098D01*
X14960077Y13625271D01*
X14960075Y13625270D01*
X14859159Y13560415D01*
X14857052Y13559061D01*
X14856182Y13560415D01*
X14807571Y13539876D01*
X14747977Y13553738D01*
X14734276Y13563693D01*
X14731390Y13566193D01*
X14726754Y13571544D01*
X14650848Y13620326D01*
X14623731Y13637753D01*
X14623729Y13637754D01*
X14617774Y13641581D01*
X14610984Y13643575D01*
X14610981Y13643576D01*
X14500268Y13676083D01*
X14493477Y13678077D01*
X14363933Y13678077D01*
X14357142Y13676083D01*
X14246429Y13643576D01*
X14246426Y13643575D01*
X14239636Y13641581D01*
X14233681Y13637754D01*
X14233679Y13637753D01*
X14206562Y13620326D01*
X14130656Y13571544D01*
X14126022Y13566195D01*
X14126021Y13566195D01*
X14115227Y13553738D01*
X14045823Y13473640D01*
X13992008Y13355803D01*
X13973572Y13227577D01*
X13163678Y13227577D01*
X13206697Y13321774D01*
X13225133Y13450000D01*
X13206697Y13578226D01*
X13152882Y13696063D01*
X13101652Y13755187D01*
X13072684Y13788618D01*
X13072683Y13788618D01*
X13068049Y13793967D01*
X13013559Y13828986D01*
X12965026Y13860176D01*
X12965024Y13860177D01*
X12959069Y13864004D01*
X12952279Y13865998D01*
X12952276Y13865999D01*
X12841563Y13898506D01*
X12834772Y13900500D01*
X12705228Y13900500D01*
X12698437Y13898506D01*
X12587724Y13865999D01*
X12587721Y13865998D01*
X12580931Y13864004D01*
X12574976Y13860177D01*
X12574974Y13860176D01*
X12526441Y13828986D01*
X12471951Y13793967D01*
X12467317Y13788618D01*
X12467316Y13788618D01*
X12438348Y13755187D01*
X12387118Y13696063D01*
X12333303Y13578226D01*
X12314867Y13450000D01*
X3712517Y13450000D01*
X3705044Y13506762D01*
X3644536Y13652841D01*
X3548282Y13778282D01*
X3422841Y13874536D01*
X3401113Y13883536D01*
X3354588Y13923273D01*
X3340304Y13982767D01*
X3347960Y14001250D01*
X16204543Y14001250D01*
X16222979Y13873024D01*
X16276794Y13755187D01*
X16281429Y13749838D01*
X16354426Y13665594D01*
X16361627Y13657283D01*
X16419135Y13620325D01*
X16457865Y13572960D01*
X16461357Y13511874D01*
X16440429Y13472211D01*
X16361755Y13381416D01*
X16361751Y13381410D01*
X16357118Y13376063D01*
X16303303Y13258226D01*
X16284867Y13130000D01*
X16303303Y13001774D01*
X16357118Y12883937D01*
X16441951Y12786033D01*
X16550931Y12715996D01*
X16557721Y12714002D01*
X16557724Y12714001D01*
X16655941Y12685163D01*
X16675228Y12679500D01*
X16804772Y12679500D01*
X16824059Y12685163D01*
X16922276Y12714001D01*
X16922279Y12714002D01*
X16929069Y12715996D01*
X17038049Y12786033D01*
X17122882Y12883937D01*
X17176697Y13001774D01*
X17195133Y13130000D01*
X17176697Y13258226D01*
X17122882Y13376063D01*
X17044514Y13466506D01*
X17042684Y13468618D01*
X17042683Y13468618D01*
X17038049Y13473967D01*
X16980541Y13510925D01*
X16941811Y13558290D01*
X16938319Y13619376D01*
X16959247Y13659039D01*
X17037921Y13749834D01*
X17037925Y13749840D01*
X17042558Y13755187D01*
X17096373Y13873024D01*
X17108194Y13955241D01*
X17134787Y14009330D01*
X17271130Y14009330D01*
X17293745Y13987352D01*
X17304178Y13955242D01*
X17313303Y13891774D01*
X17367118Y13773937D01*
X17451951Y13676033D01*
X17560931Y13605996D01*
X17567721Y13604002D01*
X17567724Y13604001D01*
X17665229Y13575372D01*
X17685228Y13569500D01*
X17814772Y13569500D01*
X17834771Y13575372D01*
X17932276Y13604001D01*
X17932279Y13604002D01*
X17939069Y13605996D01*
X18048049Y13676033D01*
X18132882Y13773937D01*
X18186697Y13891774D01*
X18199957Y13984000D01*
X25672467Y13984000D01*
X25690903Y13855774D01*
X25744718Y13737937D01*
X25749353Y13732588D01*
X25823648Y13646846D01*
X25829551Y13640033D01*
X25852523Y13625270D01*
X25930166Y13575372D01*
X25938531Y13569996D01*
X25945321Y13568002D01*
X25945324Y13568001D01*
X26041113Y13539876D01*
X26062828Y13533500D01*
X26192372Y13533500D01*
X26214087Y13539876D01*
X26309876Y13568001D01*
X26309879Y13568002D01*
X26316669Y13569996D01*
X26325035Y13575372D01*
X26402677Y13625270D01*
X26425649Y13640033D01*
X26431553Y13646846D01*
X26505847Y13732588D01*
X26510482Y13737937D01*
X26564297Y13855774D01*
X26582733Y13984000D01*
X26564297Y14112226D01*
X26510482Y14230063D01*
X26425649Y14327967D01*
X26316669Y14398004D01*
X26309879Y14399998D01*
X26309876Y14399999D01*
X26199163Y14432506D01*
X26192372Y14434500D01*
X26062828Y14434500D01*
X26056037Y14432506D01*
X25945324Y14399999D01*
X25945321Y14399998D01*
X25938531Y14398004D01*
X25829551Y14327967D01*
X25744718Y14230063D01*
X25690903Y14112226D01*
X25672467Y13984000D01*
X18199957Y13984000D01*
X18205133Y14020000D01*
X18186697Y14148226D01*
X18132882Y14266063D01*
X18048049Y14363967D01*
X17988817Y14402033D01*
X17945026Y14430176D01*
X17945024Y14430177D01*
X17939069Y14434004D01*
X17932279Y14435998D01*
X17932276Y14435999D01*
X17821563Y14468506D01*
X17814772Y14470500D01*
X17685228Y14470500D01*
X17678437Y14468506D01*
X17567724Y14435999D01*
X17567721Y14435998D01*
X17560931Y14434004D01*
X17554976Y14430177D01*
X17554974Y14430176D01*
X17511183Y14402033D01*
X17451951Y14363967D01*
X17367118Y14266063D01*
X17313303Y14148226D01*
X17306130Y14098338D01*
X17301482Y14066009D01*
X17274486Y14011101D01*
X17271130Y14009330D01*
X17134787Y14009330D01*
X17135190Y14010149D01*
X17138546Y14011920D01*
X17115931Y14033898D01*
X17105498Y14066009D01*
X17104139Y14075464D01*
X17096373Y14129476D01*
X17042558Y14247313D01*
X16994172Y14303154D01*
X16962360Y14339868D01*
X16962359Y14339868D01*
X16957725Y14345217D01*
X16875274Y14398205D01*
X16854702Y14411426D01*
X16854700Y14411427D01*
X16848745Y14415254D01*
X16841955Y14417248D01*
X16841952Y14417249D01*
X16731239Y14449756D01*
X16724448Y14451750D01*
X16594904Y14451750D01*
X16588113Y14449756D01*
X16477400Y14417249D01*
X16477397Y14417248D01*
X16470607Y14415254D01*
X16464652Y14411427D01*
X16464650Y14411426D01*
X16444078Y14398205D01*
X16361627Y14345217D01*
X16356993Y14339868D01*
X16356992Y14339868D01*
X16325180Y14303154D01*
X16276794Y14247313D01*
X16222979Y14129476D01*
X16204543Y14001250D01*
X3347960Y14001250D01*
X3363719Y14039295D01*
X3401113Y14066464D01*
X3422841Y14075464D01*
X3548282Y14171718D01*
X3644536Y14297159D01*
X3705044Y14443238D01*
X3722634Y14576850D01*
X3724835Y14593566D01*
X3725682Y14600000D01*
X3706461Y14746000D01*
X4438067Y14746000D01*
X4456503Y14617774D01*
X4510318Y14499937D01*
X4514953Y14494588D01*
X4585919Y14412688D01*
X4595151Y14402033D01*
X4622433Y14384500D01*
X4691882Y14339868D01*
X4704131Y14331996D01*
X4710921Y14330002D01*
X4710924Y14330001D01*
X4773956Y14311494D01*
X4828428Y14295500D01*
X4957972Y14295500D01*
X5012444Y14311494D01*
X5075476Y14330001D01*
X5075479Y14330002D01*
X5082269Y14331996D01*
X5094519Y14339868D01*
X5163967Y14384500D01*
X5191249Y14402033D01*
X5200482Y14412688D01*
X5271447Y14494588D01*
X5276082Y14499937D01*
X5329897Y14617774D01*
X5341029Y14695200D01*
X8044867Y14695200D01*
X8063303Y14566974D01*
X8117118Y14449137D01*
X8201951Y14351233D01*
X8232197Y14331795D01*
X8285571Y14297494D01*
X8310931Y14281196D01*
X8317721Y14279202D01*
X8317724Y14279201D01*
X8408111Y14252662D01*
X8435228Y14244700D01*
X8564772Y14244700D01*
X8591889Y14252662D01*
X8682276Y14279201D01*
X8682279Y14279202D01*
X8689069Y14281196D01*
X8714430Y14297494D01*
X8767803Y14331795D01*
X8798049Y14351233D01*
X8882882Y14449137D01*
X8936697Y14566974D01*
X8955133Y14695200D01*
X8945816Y14760000D01*
X20784867Y14760000D01*
X20803303Y14631774D01*
X20857118Y14513937D01*
X20861753Y14508588D01*
X20917902Y14443788D01*
X20941951Y14416033D01*
X20969692Y14398205D01*
X21034459Y14356582D01*
X21050931Y14345996D01*
X21057721Y14344002D01*
X21057724Y14344001D01*
X21130551Y14322618D01*
X21175228Y14309500D01*
X21304772Y14309500D01*
X21349449Y14322618D01*
X21422276Y14344001D01*
X21422279Y14344002D01*
X21429069Y14345996D01*
X21445542Y14356582D01*
X21510308Y14398205D01*
X21538049Y14416033D01*
X21562099Y14443788D01*
X21618247Y14508588D01*
X21622882Y14513937D01*
X21676697Y14631774D01*
X21679536Y14630477D01*
X21706574Y14670036D01*
X21764198Y14690609D01*
X21822908Y14673383D01*
X21857096Y14632778D01*
X21877118Y14588937D01*
X21961951Y14491033D01*
X21967908Y14487205D01*
X22056647Y14430176D01*
X22070931Y14420996D01*
X22077721Y14419002D01*
X22077724Y14419001D01*
X22181161Y14388630D01*
X22195228Y14384500D01*
X22324772Y14384500D01*
X22338839Y14388630D01*
X22442276Y14419001D01*
X22442279Y14419002D01*
X22449069Y14420996D01*
X22463354Y14430176D01*
X22552092Y14487205D01*
X22558049Y14491033D01*
X22642882Y14588937D01*
X22696697Y14706774D01*
X22715133Y14835000D01*
X22696697Y14963226D01*
X22692204Y14973064D01*
X36909131Y14973064D01*
X36939944Y14771929D01*
X36946959Y14752989D01*
X37005332Y14595376D01*
X37010614Y14581113D01*
X37013271Y14576851D01*
X37013271Y14576850D01*
X37103241Y14432506D01*
X37118248Y14408429D01*
X37121705Y14404792D01*
X37121706Y14404791D01*
X37191723Y14331134D01*
X37258441Y14260947D01*
X37262563Y14258078D01*
X37379237Y14176871D01*
X37425451Y14144705D01*
X37430059Y14142727D01*
X37430060Y14142727D01*
X37533498Y14098338D01*
X37612442Y14064460D01*
X37717695Y14042830D01*
X37806848Y14024509D01*
X37806850Y14024509D01*
X37811759Y14023500D01*
X38214242Y14023500D01*
X38216739Y14023754D01*
X38216741Y14023754D01*
X38264807Y14028642D01*
X38365938Y14038926D01*
X38452258Y14066009D01*
X38555299Y14098338D01*
X38555303Y14098340D01*
X38560088Y14099841D01*
X38600844Y14122462D01*
X38733611Y14196154D01*
X38738002Y14198591D01*
X38892395Y14331134D01*
X38907953Y14351233D01*
X39013878Y14488075D01*
X39013881Y14488080D01*
X39016948Y14492042D01*
X39106560Y14674729D01*
X39128638Y14760000D01*
X39156305Y14866855D01*
X39156305Y14866858D01*
X39157563Y14871715D01*
X39164376Y15006063D01*
X39167615Y15069919D01*
X39167615Y15069923D01*
X39167869Y15074936D01*
X39137056Y15276071D01*
X39066386Y15466887D01*
X39019562Y15542010D01*
X38961407Y15635312D01*
X38961405Y15635314D01*
X38958752Y15639571D01*
X38901620Y15699674D01*
X38851498Y15752401D01*
X38818559Y15787053D01*
X38733669Y15846138D01*
X38655667Y15900429D01*
X38655666Y15900430D01*
X38651549Y15903295D01*
X38608526Y15921758D01*
X38469170Y15981561D01*
X38469168Y15981562D01*
X38464558Y15983540D01*
X38337834Y16009582D01*
X38270152Y16023491D01*
X38270150Y16023491D01*
X38265241Y16024500D01*
X37862758Y16024500D01*
X37860261Y16024246D01*
X37860259Y16024246D01*
X37812193Y16019358D01*
X37711062Y16009074D01*
X37683180Y16000326D01*
X37521701Y15949662D01*
X37521697Y15949660D01*
X37516912Y15948159D01*
X37512523Y15945723D01*
X37512521Y15945722D01*
X37469346Y15921758D01*
X37338998Y15849409D01*
X37184605Y15716866D01*
X37181535Y15712900D01*
X37063122Y15559925D01*
X37063119Y15559920D01*
X37060052Y15555958D01*
X36970440Y15373271D01*
X36969183Y15368416D01*
X36921123Y15182795D01*
X36919437Y15176285D01*
X36917886Y15145700D01*
X36909768Y14985622D01*
X36909131Y14973064D01*
X22692204Y14973064D01*
X22642882Y15081063D01*
X22558049Y15178967D01*
X22498506Y15217233D01*
X22455026Y15245176D01*
X22455024Y15245177D01*
X22449069Y15249004D01*
X22442279Y15250998D01*
X22442276Y15250999D01*
X22331563Y15283506D01*
X22324772Y15285500D01*
X22195228Y15285500D01*
X22188437Y15283506D01*
X22077724Y15250999D01*
X22077721Y15250998D01*
X22070931Y15249004D01*
X22064976Y15245177D01*
X22064974Y15245176D01*
X22021494Y15217233D01*
X21961951Y15178967D01*
X21877118Y15081063D01*
X21823303Y14963226D01*
X21820464Y14964523D01*
X21793426Y14924964D01*
X21735802Y14904391D01*
X21677092Y14921617D01*
X21642903Y14962223D01*
X21641853Y14964523D01*
X21622882Y15006063D01*
X21550180Y15089967D01*
X21542684Y15098618D01*
X21542683Y15098618D01*
X21538049Y15103967D01*
X21456810Y15156176D01*
X21435026Y15170176D01*
X21435024Y15170177D01*
X21429069Y15174004D01*
X21422279Y15175998D01*
X21422276Y15175999D01*
X21311563Y15208506D01*
X21304772Y15210500D01*
X21175228Y15210500D01*
X21168437Y15208506D01*
X21057724Y15175999D01*
X21057721Y15175998D01*
X21050931Y15174004D01*
X21044976Y15170177D01*
X21044974Y15170176D01*
X21023190Y15156176D01*
X20941951Y15103967D01*
X20937317Y15098618D01*
X20937316Y15098618D01*
X20929820Y15089967D01*
X20857118Y15006063D01*
X20803303Y14888226D01*
X20784867Y14760000D01*
X8945816Y14760000D01*
X8936697Y14823426D01*
X8882882Y14941263D01*
X8826733Y15006063D01*
X8802684Y15033818D01*
X8802683Y15033818D01*
X8798049Y15039167D01*
X8724534Y15086412D01*
X8695026Y15105376D01*
X8695024Y15105377D01*
X8689069Y15109204D01*
X8682279Y15111198D01*
X8682276Y15111199D01*
X8571563Y15143706D01*
X8564772Y15145700D01*
X8435228Y15145700D01*
X8428437Y15143706D01*
X8317724Y15111199D01*
X8317721Y15111198D01*
X8310931Y15109204D01*
X8304976Y15105377D01*
X8304974Y15105376D01*
X8275466Y15086412D01*
X8201951Y15039167D01*
X8197317Y15033818D01*
X8197316Y15033818D01*
X8173267Y15006063D01*
X8117118Y14941263D01*
X8063303Y14823426D01*
X8044867Y14695200D01*
X5341029Y14695200D01*
X5348333Y14746000D01*
X5329897Y14874226D01*
X5276082Y14992063D01*
X5217654Y15059494D01*
X5195884Y15084618D01*
X5195883Y15084618D01*
X5191249Y15089967D01*
X5123454Y15133536D01*
X5088226Y15156176D01*
X5088224Y15156177D01*
X5082269Y15160004D01*
X5075479Y15161998D01*
X5075476Y15161999D01*
X4964763Y15194506D01*
X4957972Y15196500D01*
X4828428Y15196500D01*
X4821637Y15194506D01*
X4710924Y15161999D01*
X4710921Y15161998D01*
X4704131Y15160004D01*
X4698176Y15156177D01*
X4698174Y15156176D01*
X4662946Y15133536D01*
X4595151Y15089967D01*
X4590517Y15084618D01*
X4590516Y15084618D01*
X4568746Y15059494D01*
X4510318Y14992063D01*
X4456503Y14874226D01*
X4438067Y14746000D01*
X3706461Y14746000D01*
X3705044Y14756762D01*
X3644536Y14902841D01*
X3548282Y15028282D01*
X3422841Y15124536D01*
X3401113Y15133536D01*
X3354588Y15173273D01*
X3340304Y15232767D01*
X3363719Y15289295D01*
X3401113Y15316464D01*
X3422841Y15325464D01*
X3548282Y15421718D01*
X3644536Y15547159D01*
X3705044Y15693238D01*
X3725682Y15850000D01*
X3705044Y16006762D01*
X3644536Y16152841D01*
X3548282Y16278282D01*
X3422841Y16374536D01*
X3401113Y16383536D01*
X3355610Y16422400D01*
X6114467Y16422400D01*
X6132903Y16294174D01*
X6186718Y16176337D01*
X6271551Y16078433D01*
X6343555Y16032159D01*
X6382285Y15984794D01*
X6385778Y15923708D01*
X6352698Y15872236D01*
X6343564Y15865600D01*
X6322351Y15851967D01*
X6317717Y15846618D01*
X6317716Y15846618D01*
X6303128Y15829782D01*
X6237518Y15754063D01*
X6183703Y15636226D01*
X6165267Y15508000D01*
X6183703Y15379774D01*
X6237518Y15261937D01*
X6242153Y15256588D01*
X6314345Y15173273D01*
X6322351Y15164033D01*
X6334577Y15156176D01*
X6415816Y15103967D01*
X6431331Y15093996D01*
X6438121Y15092002D01*
X6438124Y15092001D01*
X6541561Y15061630D01*
X6555628Y15057500D01*
X6685172Y15057500D01*
X6699239Y15061630D01*
X6802676Y15092001D01*
X6802679Y15092002D01*
X6809469Y15093996D01*
X6824985Y15103967D01*
X6906223Y15156176D01*
X6918449Y15164033D01*
X6926456Y15173273D01*
X6998647Y15256588D01*
X7003282Y15261937D01*
X7057097Y15379774D01*
X7075533Y15508000D01*
X7057097Y15636226D01*
X7003282Y15754063D01*
X6937672Y15829782D01*
X6923084Y15846618D01*
X6923083Y15846618D01*
X6918449Y15851967D01*
X6846445Y15898241D01*
X6807715Y15945606D01*
X6804222Y16006692D01*
X6837302Y16058164D01*
X6846436Y16064800D01*
X6867649Y16078433D01*
X6945605Y16168400D01*
X23132467Y16168400D01*
X23150903Y16040174D01*
X23204718Y15922337D01*
X23209353Y15916988D01*
X23267910Y15849409D01*
X23289551Y15824433D01*
X23295508Y15820605D01*
X23390726Y15759412D01*
X23398531Y15754396D01*
X23405321Y15752402D01*
X23405324Y15752401D01*
X23508761Y15722030D01*
X23522828Y15717900D01*
X23652372Y15717900D01*
X23666439Y15722030D01*
X23769876Y15752401D01*
X23769879Y15752402D01*
X23776669Y15754396D01*
X23784475Y15759412D01*
X23879692Y15820605D01*
X23885649Y15824433D01*
X23907291Y15849409D01*
X23969980Y15921758D01*
X24022376Y15953354D01*
X24083337Y15948119D01*
X24119620Y15921758D01*
X24182310Y15849409D01*
X24203951Y15824433D01*
X24209908Y15820605D01*
X24305126Y15759412D01*
X24312931Y15754396D01*
X24319721Y15752402D01*
X24319724Y15752401D01*
X24423161Y15722030D01*
X24437228Y15717900D01*
X24566772Y15717900D01*
X24580839Y15722030D01*
X24684276Y15752401D01*
X24684279Y15752402D01*
X24691069Y15754396D01*
X24698875Y15759412D01*
X24794092Y15820605D01*
X24800049Y15824433D01*
X24821691Y15849409D01*
X24880247Y15916988D01*
X24884882Y15922337D01*
X24938697Y16040174D01*
X24957133Y16168400D01*
X24938697Y16296626D01*
X24904595Y16371298D01*
X24897620Y16432084D01*
X24927706Y16485361D01*
X24941124Y16495708D01*
X25003249Y16535633D01*
X25026650Y16562639D01*
X25060996Y16602278D01*
X25088082Y16633537D01*
X25141897Y16751374D01*
X25160333Y16879600D01*
X25141897Y17007826D01*
X25088082Y17125663D01*
X25003249Y17223567D01*
X24927996Y17271929D01*
X24900226Y17289776D01*
X24900224Y17289777D01*
X24894269Y17293604D01*
X24887479Y17295598D01*
X24887476Y17295599D01*
X24776763Y17328106D01*
X24769972Y17330100D01*
X24640428Y17330100D01*
X24633637Y17328106D01*
X24522924Y17295599D01*
X24522921Y17295598D01*
X24516131Y17293604D01*
X24510176Y17289777D01*
X24510174Y17289776D01*
X24482404Y17271929D01*
X24407151Y17223567D01*
X24322318Y17125663D01*
X24268503Y17007826D01*
X24250067Y16879600D01*
X24268503Y16751374D01*
X24302528Y16676871D01*
X24302605Y16676703D01*
X24309580Y16615916D01*
X24279494Y16562639D01*
X24266078Y16552293D01*
X24203951Y16512367D01*
X24199317Y16507018D01*
X24199316Y16507018D01*
X24178303Y16482767D01*
X24119921Y16415389D01*
X24119620Y16415042D01*
X24067224Y16383446D01*
X24006263Y16388681D01*
X23969980Y16415042D01*
X23969680Y16415389D01*
X23911297Y16482767D01*
X23890284Y16507018D01*
X23890283Y16507018D01*
X23885649Y16512367D01*
X23823524Y16552292D01*
X23782626Y16578576D01*
X23782624Y16578577D01*
X23776669Y16582404D01*
X23769879Y16584398D01*
X23769876Y16584399D01*
X23659163Y16616906D01*
X23652372Y16618900D01*
X23522828Y16618900D01*
X23516037Y16616906D01*
X23405324Y16584399D01*
X23405321Y16584398D01*
X23398531Y16582404D01*
X23392576Y16578577D01*
X23392574Y16578576D01*
X23351676Y16552292D01*
X23289551Y16512367D01*
X23284917Y16507018D01*
X23284916Y16507018D01*
X23263903Y16482767D01*
X23204718Y16414463D01*
X23150903Y16296626D01*
X23132467Y16168400D01*
X6945605Y16168400D01*
X6952482Y16176337D01*
X7006297Y16294174D01*
X7024733Y16422400D01*
X7022443Y16438327D01*
X13163986Y16438327D01*
X13169297Y16432517D01*
X13176655Y16428973D01*
X13338017Y16372509D01*
X13348787Y16370051D01*
X13518679Y16350909D01*
X13529721Y16350909D01*
X13699613Y16370051D01*
X13710383Y16372509D01*
X13871745Y16428973D01*
X13877456Y16431723D01*
X13882969Y16438327D01*
X14438986Y16438327D01*
X14444297Y16432517D01*
X14451655Y16428973D01*
X14613017Y16372509D01*
X14623787Y16370051D01*
X14793679Y16350909D01*
X14804721Y16350909D01*
X14974613Y16370051D01*
X14985383Y16372509D01*
X15146745Y16428973D01*
X15152456Y16431723D01*
X15157969Y16438327D01*
X15713986Y16438327D01*
X15719297Y16432517D01*
X15726655Y16428973D01*
X15888017Y16372509D01*
X15898787Y16370051D01*
X16068679Y16350909D01*
X16079721Y16350909D01*
X16249613Y16370051D01*
X16260383Y16372509D01*
X16421745Y16428973D01*
X16427456Y16431723D01*
X16434640Y16440329D01*
X16430153Y16448236D01*
X16085289Y16793101D01*
X16073402Y16799158D01*
X16068372Y16798362D01*
X15719852Y16449841D01*
X15713986Y16438327D01*
X15157969Y16438327D01*
X15159640Y16440329D01*
X15155153Y16448236D01*
X14810289Y16793101D01*
X14798402Y16799158D01*
X14793372Y16798362D01*
X14444852Y16449841D01*
X14438986Y16438327D01*
X13882969Y16438327D01*
X13884640Y16440329D01*
X13880153Y16448236D01*
X13535289Y16793101D01*
X13523402Y16799158D01*
X13518372Y16798362D01*
X13169852Y16449841D01*
X13163986Y16438327D01*
X7022443Y16438327D01*
X7006297Y16550626D01*
X6952482Y16668463D01*
X6874563Y16758388D01*
X6872284Y16761018D01*
X6872283Y16761018D01*
X6867649Y16766367D01*
X6801230Y16809052D01*
X6764626Y16832576D01*
X6764624Y16832577D01*
X6758669Y16836404D01*
X6751879Y16838398D01*
X6751876Y16838399D01*
X6641163Y16870906D01*
X6634372Y16872900D01*
X6504828Y16872900D01*
X6498037Y16870906D01*
X6387324Y16838399D01*
X6387321Y16838398D01*
X6380531Y16836404D01*
X6374576Y16832577D01*
X6374574Y16832576D01*
X6337970Y16809052D01*
X6271551Y16766367D01*
X6266917Y16761018D01*
X6266916Y16761018D01*
X6264637Y16758388D01*
X6186718Y16668463D01*
X6132903Y16550626D01*
X6114467Y16422400D01*
X3355610Y16422400D01*
X3354588Y16423273D01*
X3340304Y16482767D01*
X3363719Y16539295D01*
X3401113Y16566464D01*
X3422841Y16575464D01*
X3548282Y16671718D01*
X3644536Y16797159D01*
X3705044Y16943238D01*
X3722634Y17076850D01*
X3724835Y17093566D01*
X3725682Y17100000D01*
X3705044Y17256762D01*
X3644536Y17402841D01*
X3631369Y17420000D01*
X9724867Y17420000D01*
X9743303Y17291774D01*
X9797118Y17173937D01*
X9881951Y17076033D01*
X9887908Y17072205D01*
X9964829Y17022771D01*
X9990931Y17005996D01*
X9997721Y17004002D01*
X9997724Y17004001D01*
X10101161Y16973630D01*
X10115228Y16969500D01*
X10244772Y16969500D01*
X10258839Y16973630D01*
X10362276Y17004001D01*
X10362279Y17004002D01*
X10369069Y17005996D01*
X10395172Y17022771D01*
X10472092Y17072205D01*
X10478049Y17076033D01*
X10548968Y17157879D01*
X12711709Y17157879D01*
X12730851Y16987987D01*
X12733309Y16977217D01*
X12789773Y16815855D01*
X12792523Y16810144D01*
X12801129Y16802960D01*
X12809036Y16807447D01*
X13153901Y17152311D01*
X13159958Y17164198D01*
X13159162Y17169228D01*
X12810641Y17517748D01*
X12799127Y17523614D01*
X12793317Y17518303D01*
X12789773Y17510945D01*
X12733309Y17349583D01*
X12730851Y17338813D01*
X12711709Y17168921D01*
X12711709Y17157879D01*
X10548968Y17157879D01*
X10562882Y17173937D01*
X10616697Y17291774D01*
X10635133Y17420000D01*
X10616697Y17548226D01*
X10562882Y17666063D01*
X10478049Y17763967D01*
X10421820Y17800103D01*
X13250943Y17800103D01*
X13251739Y17795071D01*
X13524200Y17522610D01*
X14150611Y16896200D01*
X14162498Y16890143D01*
X14167528Y16890939D01*
X14729196Y17452606D01*
X14783713Y17480383D01*
X14844145Y17470812D01*
X14869204Y17452606D01*
X15425614Y16896197D01*
X15437497Y16890143D01*
X15442528Y16890939D01*
X15714191Y17162602D01*
X16438442Y17162602D01*
X16439238Y17157572D01*
X16787759Y16809052D01*
X16799273Y16803186D01*
X16805083Y16808497D01*
X16808627Y16815855D01*
X16865091Y16977217D01*
X16867549Y16987987D01*
X16886691Y17157879D01*
X16886691Y17168921D01*
X16876159Y17262393D01*
X21768527Y17262393D01*
X21786963Y17134167D01*
X21840778Y17016330D01*
X21925611Y16918426D01*
X22034591Y16848389D01*
X22041381Y16846395D01*
X22041384Y16846394D01*
X22144821Y16816023D01*
X22158888Y16811893D01*
X22288432Y16811893D01*
X22302499Y16816023D01*
X22405936Y16846394D01*
X22405939Y16846395D01*
X22412729Y16848389D01*
X22521709Y16918426D01*
X22606542Y17016330D01*
X22660357Y17134167D01*
X22678793Y17262393D01*
X22660357Y17390619D01*
X22622705Y17473064D01*
X36909131Y17473064D01*
X36939944Y17271929D01*
X36957855Y17223567D01*
X36994115Y17125663D01*
X37010614Y17081113D01*
X37013271Y17076851D01*
X37013271Y17076850D01*
X37114403Y16914598D01*
X37118248Y16908429D01*
X37121705Y16904792D01*
X37121706Y16904791D01*
X37171682Y16852217D01*
X37258441Y16760947D01*
X37262563Y16758078D01*
X37383632Y16673812D01*
X37425451Y16644705D01*
X37430059Y16642727D01*
X37430060Y16642727D01*
X37533498Y16598338D01*
X37612442Y16564460D01*
X37713891Y16543612D01*
X37806848Y16524509D01*
X37806850Y16524509D01*
X37811759Y16523500D01*
X38214242Y16523500D01*
X38216739Y16523754D01*
X38216741Y16523754D01*
X38264807Y16528642D01*
X38365938Y16538926D01*
X38447321Y16564460D01*
X38555299Y16598338D01*
X38555303Y16598340D01*
X38560088Y16599841D01*
X38590834Y16616906D01*
X38682462Y16667764D01*
X38738002Y16698591D01*
X38892395Y16831134D01*
X38904207Y16846394D01*
X39013878Y16988075D01*
X39013881Y16988080D01*
X39016948Y16992042D01*
X39106560Y17174729D01*
X39126133Y17250326D01*
X39156305Y17366855D01*
X39156305Y17366858D01*
X39157563Y17371715D01*
X39164769Y17513809D01*
X39167615Y17569919D01*
X39167615Y17569923D01*
X39167869Y17574936D01*
X39137056Y17776071D01*
X39066386Y17966887D01*
X39063729Y17971150D01*
X38961407Y18135312D01*
X38961405Y18135314D01*
X38958752Y18139571D01*
X38818559Y18287053D01*
X38812410Y18291333D01*
X38655667Y18400429D01*
X38655666Y18400430D01*
X38651549Y18403295D01*
X38646940Y18405273D01*
X38469170Y18481561D01*
X38469168Y18481562D01*
X38464558Y18483540D01*
X38347625Y18507570D01*
X38270152Y18523491D01*
X38270150Y18523491D01*
X38265241Y18524500D01*
X37862758Y18524500D01*
X37860261Y18524246D01*
X37860259Y18524246D01*
X37812193Y18519358D01*
X37711062Y18509074D01*
X37677641Y18498588D01*
X37521701Y18449662D01*
X37521697Y18449660D01*
X37516912Y18448159D01*
X37512523Y18445723D01*
X37512521Y18445722D01*
X37450652Y18411382D01*
X37338998Y18349409D01*
X37184605Y18216866D01*
X37181535Y18212900D01*
X37063122Y18059925D01*
X37063119Y18059920D01*
X37060052Y18055958D01*
X36970440Y17873271D01*
X36969183Y17868416D01*
X36921062Y17682560D01*
X36919437Y17676285D01*
X36916813Y17624536D01*
X36911342Y17516656D01*
X36909131Y17473064D01*
X22622705Y17473064D01*
X22606542Y17508456D01*
X22601909Y17513803D01*
X22601905Y17513809D01*
X22560960Y17561062D01*
X22537142Y17617421D01*
X22551001Y17677017D01*
X22560960Y17690724D01*
X22601905Y17737977D01*
X22601909Y17737983D01*
X22606542Y17743330D01*
X22660357Y17861167D01*
X22678793Y17989393D01*
X22660357Y18117619D01*
X22606542Y18235456D01*
X22521709Y18333360D01*
X22412729Y18403397D01*
X22405939Y18405391D01*
X22405936Y18405392D01*
X22295223Y18437899D01*
X22288432Y18439893D01*
X22158888Y18439893D01*
X22152097Y18437899D01*
X22041384Y18405392D01*
X22041381Y18405391D01*
X22034591Y18403397D01*
X21925611Y18333360D01*
X21840778Y18235456D01*
X21786963Y18117619D01*
X21768527Y17989393D01*
X21786963Y17861167D01*
X21840778Y17743330D01*
X21845411Y17737983D01*
X21845415Y17737977D01*
X21886360Y17690724D01*
X21910178Y17634365D01*
X21896319Y17574769D01*
X21886360Y17561062D01*
X21845415Y17513809D01*
X21845411Y17513803D01*
X21840778Y17508456D01*
X21786963Y17390619D01*
X21768527Y17262393D01*
X16876159Y17262393D01*
X16867549Y17338813D01*
X16865091Y17349583D01*
X16808627Y17510945D01*
X16805877Y17516656D01*
X16797271Y17523840D01*
X16789364Y17519353D01*
X16444499Y17174489D01*
X16438442Y17162602D01*
X15714191Y17162602D01*
X16074200Y17522610D01*
X16341403Y17789814D01*
X16347457Y17801697D01*
X16346661Y17806728D01*
X15784994Y18368396D01*
X15757217Y18422913D01*
X15759543Y18437602D01*
X16438442Y18437602D01*
X16439238Y18432572D01*
X16787759Y18084052D01*
X16799273Y18078186D01*
X16805083Y18083497D01*
X16808627Y18090855D01*
X16865091Y18252217D01*
X16867549Y18262987D01*
X16886691Y18432879D01*
X16886691Y18443921D01*
X16867549Y18613813D01*
X16865091Y18624583D01*
X16821205Y18750000D01*
X20244867Y18750000D01*
X20263303Y18621774D01*
X20317118Y18503937D01*
X20401951Y18406033D01*
X20421523Y18393455D01*
X20495693Y18345789D01*
X20510931Y18335996D01*
X20517721Y18334002D01*
X20517724Y18334001D01*
X20617201Y18304793D01*
X20635228Y18299500D01*
X20764772Y18299500D01*
X20782799Y18304793D01*
X20882276Y18334001D01*
X20882279Y18334002D01*
X20889069Y18335996D01*
X20904308Y18345789D01*
X20978477Y18393455D01*
X20998049Y18406033D01*
X21082882Y18503937D01*
X21136697Y18621774D01*
X21155133Y18750000D01*
X21136697Y18878226D01*
X21082882Y18996063D01*
X21017940Y19071011D01*
X21002684Y19088618D01*
X21002683Y19088618D01*
X20998049Y19093967D01*
X20889069Y19164004D01*
X20882279Y19165998D01*
X20882276Y19165999D01*
X20771563Y19198506D01*
X20764772Y19200500D01*
X20635228Y19200500D01*
X20628437Y19198506D01*
X20517724Y19165999D01*
X20517721Y19165998D01*
X20510931Y19164004D01*
X20401951Y19093967D01*
X20397317Y19088618D01*
X20397316Y19088618D01*
X20382060Y19071011D01*
X20317118Y18996063D01*
X20263303Y18878226D01*
X20244867Y18750000D01*
X16821205Y18750000D01*
X16808627Y18785945D01*
X16805877Y18791656D01*
X16797271Y18798840D01*
X16789364Y18794353D01*
X16444499Y18449489D01*
X16438442Y18437602D01*
X15759543Y18437602D01*
X15766788Y18483345D01*
X15784994Y18508404D01*
X16074200Y18797610D01*
X16341403Y19064814D01*
X16347457Y19076697D01*
X16346661Y19081728D01*
X15715788Y19712602D01*
X16438442Y19712602D01*
X16439238Y19707572D01*
X16787759Y19359052D01*
X16799273Y19353186D01*
X16805083Y19358497D01*
X16808627Y19365855D01*
X16865091Y19527217D01*
X16867549Y19537987D01*
X16886691Y19707879D01*
X16886691Y19718921D01*
X16867549Y19888813D01*
X16865091Y19899583D01*
X16841863Y19965964D01*
X28490500Y19965964D01*
X28494362Y19921362D01*
X28501807Y19878691D01*
X28501972Y19877899D01*
X28501975Y19877884D01*
X28503108Y19872451D01*
X28505284Y19862015D01*
X28507673Y19856871D01*
X28507674Y19856867D01*
X28513649Y19844001D01*
X28547928Y19770182D01*
X28589818Y19712860D01*
X28620335Y19678090D01*
X28705860Y19623891D01*
X28710392Y19622141D01*
X28710396Y19622139D01*
X28768794Y19599590D01*
X28772091Y19598317D01*
X28775528Y19597528D01*
X28775534Y19597526D01*
X28814895Y19588488D01*
X28844076Y19581788D01*
X37265753Y18881973D01*
X37267533Y18881954D01*
X37267541Y18881954D01*
X37283386Y18881788D01*
X37303308Y18881580D01*
X37339615Y18883832D01*
X37344741Y18885290D01*
X37344745Y18885291D01*
X37441099Y18912704D01*
X37441101Y18912705D01*
X37446230Y18914164D01*
X37508792Y18947728D01*
X37547444Y18973144D01*
X37585106Y19017539D01*
X37637169Y19049682D01*
X37680526Y19050469D01*
X37811759Y19023500D01*
X38214242Y19023500D01*
X38216739Y19023754D01*
X38216741Y19023754D01*
X38264807Y19028642D01*
X38365938Y19038926D01*
X38448449Y19064814D01*
X38555299Y19098338D01*
X38555303Y19098340D01*
X38560088Y19099841D01*
X38583957Y19113089D01*
X38679282Y19165999D01*
X38738002Y19198591D01*
X38892395Y19331134D01*
X38895465Y19335100D01*
X39013878Y19488075D01*
X39013881Y19488080D01*
X39016948Y19492042D01*
X39106560Y19674729D01*
X39130257Y19766252D01*
X39156305Y19866855D01*
X39156305Y19866858D01*
X39157563Y19871715D01*
X39166027Y20038618D01*
X39167615Y20069919D01*
X39167615Y20069923D01*
X39167869Y20074936D01*
X39137056Y20276071D01*
X39098116Y20381212D01*
X39068130Y20462179D01*
X39068129Y20462182D01*
X39066386Y20466887D01*
X39029609Y20525891D01*
X38961407Y20635312D01*
X38961405Y20635314D01*
X38958752Y20639571D01*
X38924125Y20675999D01*
X38822019Y20783413D01*
X38822020Y20783413D01*
X38818559Y20787053D01*
X38651549Y20903295D01*
X38582355Y20932989D01*
X38469170Y20981561D01*
X38469168Y20981562D01*
X38464558Y20983540D01*
X38359305Y21005170D01*
X38270152Y21023491D01*
X38270150Y21023491D01*
X38265241Y21024500D01*
X38158225Y21024500D01*
X38100034Y21043407D01*
X38070345Y21085240D01*
X38067762Y21084041D01*
X38027168Y21171461D01*
X38027167Y21171464D01*
X38025118Y21175875D01*
X37983229Y21233197D01*
X37952709Y21267971D01*
X37867184Y21322169D01*
X37800954Y21347742D01*
X37728971Y21364270D01*
X32720702Y21780441D01*
X32664278Y21804102D01*
X32632536Y21856410D01*
X32637603Y21917386D01*
X32677543Y21963737D01*
X32691012Y21970564D01*
X32694210Y21971889D01*
X32702841Y21975464D01*
X32828282Y22071718D01*
X32924536Y22197159D01*
X32985044Y22343238D01*
X33005682Y22500000D01*
X32985044Y22656762D01*
X32924536Y22802841D01*
X32828282Y22928282D01*
X32824933Y22930852D01*
X32797592Y22984513D01*
X32807163Y23044945D01*
X32824513Y23068826D01*
X32828282Y23071718D01*
X32924536Y23197159D01*
X32949489Y23257400D01*
X33810367Y23257400D01*
X33828803Y23129174D01*
X33882618Y23011337D01*
X33967451Y22913433D01*
X33973408Y22909605D01*
X34068480Y22848506D01*
X34076431Y22843396D01*
X34083221Y22841402D01*
X34083224Y22841401D01*
X34155128Y22820289D01*
X34200728Y22806900D01*
X34330272Y22806900D01*
X34375872Y22820289D01*
X34447776Y22841401D01*
X34447779Y22841402D01*
X34454569Y22843396D01*
X34462521Y22848506D01*
X34557592Y22909605D01*
X34563549Y22913433D01*
X34648382Y23011337D01*
X34702197Y23129174D01*
X34720633Y23257400D01*
X34717735Y23277555D01*
X34728168Y23337843D01*
X34772045Y23380486D01*
X34832608Y23389194D01*
X34886723Y23360641D01*
X34905779Y23332772D01*
X34914518Y23313637D01*
X34945784Y23277554D01*
X34988464Y23228298D01*
X34999351Y23215733D01*
X35041563Y23188605D01*
X35095989Y23153628D01*
X35108331Y23145696D01*
X35115121Y23143702D01*
X35115124Y23143701D01*
X35197913Y23119393D01*
X35232628Y23109200D01*
X35362172Y23109200D01*
X35396887Y23119393D01*
X35479676Y23143701D01*
X35479679Y23143702D01*
X35486469Y23145696D01*
X35498812Y23153628D01*
X35553237Y23188605D01*
X35595449Y23215733D01*
X35606337Y23228298D01*
X35649016Y23277554D01*
X35658327Y23288300D01*
X37235867Y23288300D01*
X37254303Y23160074D01*
X37308118Y23042237D01*
X37392951Y22944333D01*
X37446989Y22909605D01*
X37495242Y22878595D01*
X37501931Y22874296D01*
X37508721Y22872302D01*
X37508724Y22872301D01*
X37590719Y22848226D01*
X37626228Y22837800D01*
X37755772Y22837800D01*
X37791281Y22848226D01*
X37873276Y22872301D01*
X37873279Y22872302D01*
X37880069Y22874296D01*
X37886759Y22878595D01*
X37935011Y22909605D01*
X37989049Y22944333D01*
X38073882Y23042237D01*
X38127697Y23160074D01*
X38128705Y23167084D01*
X38128706Y23167088D01*
X38131799Y23188605D01*
X38158794Y23243513D01*
X38212908Y23272067D01*
X38273471Y23263360D01*
X38315716Y23219894D01*
X38316551Y23220431D01*
X38319198Y23216311D01*
X38319841Y23215650D01*
X38323318Y23208037D01*
X38357571Y23168506D01*
X38397238Y23122728D01*
X38408151Y23110133D01*
X38442300Y23088187D01*
X38509586Y23044945D01*
X38517131Y23040096D01*
X38523921Y23038102D01*
X38523924Y23038101D01*
X38625499Y23008277D01*
X38641428Y23003600D01*
X38770972Y23003600D01*
X38786901Y23008277D01*
X38888476Y23038101D01*
X38888479Y23038102D01*
X38895269Y23040096D01*
X38902815Y23044945D01*
X38970100Y23088187D01*
X39004249Y23110133D01*
X39015163Y23122728D01*
X39054829Y23168506D01*
X39089082Y23208037D01*
X39142897Y23325874D01*
X39161333Y23454100D01*
X39142897Y23582326D01*
X39089082Y23700163D01*
X39004249Y23798067D01*
X38940618Y23838960D01*
X38901226Y23864276D01*
X38901224Y23864277D01*
X38895269Y23868104D01*
X38888479Y23870098D01*
X38888476Y23870099D01*
X38777763Y23902606D01*
X38770972Y23904600D01*
X38641428Y23904600D01*
X38634637Y23902606D01*
X38523924Y23870099D01*
X38523921Y23870098D01*
X38517131Y23868104D01*
X38511176Y23864277D01*
X38511174Y23864276D01*
X38471782Y23838960D01*
X38408151Y23798067D01*
X38323318Y23700163D01*
X38269503Y23582326D01*
X38268495Y23575316D01*
X38268494Y23575312D01*
X38265401Y23553795D01*
X38238406Y23498887D01*
X38184292Y23470333D01*
X38123729Y23479040D01*
X38081484Y23522506D01*
X38080649Y23521969D01*
X38078002Y23526089D01*
X38077359Y23526750D01*
X38073882Y23534363D01*
X37989049Y23632267D01*
X37934107Y23667576D01*
X37886026Y23698476D01*
X37886024Y23698477D01*
X37880069Y23702304D01*
X37873279Y23704298D01*
X37873276Y23704299D01*
X37762563Y23736806D01*
X37755772Y23738800D01*
X37626228Y23738800D01*
X37619437Y23736806D01*
X37508724Y23704299D01*
X37508721Y23704298D01*
X37501931Y23702304D01*
X37495976Y23698477D01*
X37495974Y23698476D01*
X37447893Y23667576D01*
X37392951Y23632267D01*
X37308118Y23534363D01*
X37254303Y23416526D01*
X37235867Y23288300D01*
X35658327Y23288300D01*
X35680282Y23313637D01*
X35734097Y23431474D01*
X35752533Y23559700D01*
X35734097Y23687926D01*
X35680282Y23805763D01*
X35621931Y23873105D01*
X35600084Y23898318D01*
X35600083Y23898318D01*
X35595449Y23903667D01*
X35486469Y23973704D01*
X35479679Y23975698D01*
X35479676Y23975699D01*
X35368963Y24008206D01*
X35362172Y24010200D01*
X35232628Y24010200D01*
X35225837Y24008206D01*
X35115124Y23975699D01*
X35115121Y23975698D01*
X35108331Y23973704D01*
X34999351Y23903667D01*
X34994717Y23898318D01*
X34994716Y23898318D01*
X34972869Y23873105D01*
X34914518Y23805763D01*
X34860703Y23687926D01*
X34842267Y23559700D01*
X34843580Y23550572D01*
X34845165Y23539546D01*
X34834732Y23479257D01*
X34790855Y23436614D01*
X34730292Y23427906D01*
X34676177Y23456459D01*
X34657120Y23484329D01*
X34655109Y23488733D01*
X34648382Y23503463D01*
X34590162Y23570654D01*
X34568184Y23596018D01*
X34568183Y23596018D01*
X34563549Y23601367D01*
X34485114Y23651774D01*
X34460526Y23667576D01*
X34460524Y23667577D01*
X34454569Y23671404D01*
X34447779Y23673398D01*
X34447776Y23673399D01*
X34337063Y23705906D01*
X34330272Y23707900D01*
X34200728Y23707900D01*
X34193937Y23705906D01*
X34083224Y23673399D01*
X34083221Y23673398D01*
X34076431Y23671404D01*
X34070476Y23667577D01*
X34070474Y23667576D01*
X34045886Y23651774D01*
X33967451Y23601367D01*
X33962817Y23596018D01*
X33962816Y23596018D01*
X33940838Y23570654D01*
X33882618Y23503463D01*
X33828803Y23385626D01*
X33810367Y23257400D01*
X32949489Y23257400D01*
X32985044Y23343238D01*
X33005682Y23500000D01*
X32985044Y23656762D01*
X32924536Y23802841D01*
X32828282Y23928282D01*
X32702841Y24024536D01*
X32556762Y24085044D01*
X32400000Y24105682D01*
X32243238Y24085044D01*
X32097159Y24024536D01*
X31971718Y23928282D01*
X31967764Y23923129D01*
X31928542Y23872014D01*
X31878117Y23837358D01*
X31816953Y23838960D01*
X31771458Y23872014D01*
X31732236Y23923129D01*
X31728282Y23928282D01*
X31602841Y24024536D01*
X31456762Y24085044D01*
X31300000Y24105682D01*
X31143238Y24085044D01*
X30997159Y24024536D01*
X30871718Y23928282D01*
X30775464Y23802841D01*
X30714956Y23656762D01*
X30694318Y23500000D01*
X30714956Y23343238D01*
X30775464Y23197159D01*
X30871718Y23071718D01*
X30875067Y23069148D01*
X30902408Y23015487D01*
X30892837Y22955055D01*
X30875487Y22931174D01*
X30871718Y22928282D01*
X30775464Y22802841D01*
X30714956Y22656762D01*
X30694318Y22500000D01*
X30714956Y22343238D01*
X30775464Y22197159D01*
X30779415Y22192010D01*
X30848357Y22102163D01*
X30868781Y22044488D01*
X30851403Y21985822D01*
X30802862Y21948574D01*
X30761617Y21943236D01*
X29543133Y22044488D01*
X28907923Y22097272D01*
X28904764Y22097130D01*
X28904763Y22097130D01*
X28902094Y22097010D01*
X28841829Y22094301D01*
X28838715Y22093758D01*
X28838709Y22093757D01*
X28780853Y22083662D01*
X28780850Y22083661D01*
X28779054Y22083348D01*
X28741709Y22073930D01*
X28735880Y22070611D01*
X28735878Y22070610D01*
X28703557Y22052205D01*
X28653722Y22023827D01*
X28650050Y22020645D01*
X28601741Y21978786D01*
X28601734Y21978779D01*
X28600066Y21977334D01*
X28598530Y21975742D01*
X28573208Y21949500D01*
X28567944Y21944045D01*
X28564663Y21937772D01*
X28564662Y21937771D01*
X28541932Y21894318D01*
X28521013Y21854326D01*
X28501011Y21786205D01*
X28490500Y21713096D01*
X28490500Y19965964D01*
X16841863Y19965964D01*
X16808627Y20060945D01*
X16805877Y20066656D01*
X16797271Y20073840D01*
X16789364Y20069353D01*
X16444499Y19724489D01*
X16438442Y19712602D01*
X15715788Y19712602D01*
X15714990Y19713400D01*
X15447786Y19980603D01*
X15435903Y19986657D01*
X15430871Y19985861D01*
X15158410Y19713400D01*
X14869204Y19424193D01*
X14814688Y19396416D01*
X14754256Y19405987D01*
X14729197Y19424193D01*
X14439990Y19713400D01*
X14172786Y19980603D01*
X14160903Y19986657D01*
X14155872Y19985861D01*
X13524200Y19354190D01*
X13256997Y19086986D01*
X13250943Y19075103D01*
X13251739Y19070072D01*
X13813406Y18508404D01*
X13841183Y18453887D01*
X13831612Y18393455D01*
X13813406Y18368396D01*
X13524200Y18079190D01*
X13256997Y17811986D01*
X13250943Y17800103D01*
X10421820Y17800103D01*
X10419340Y17801697D01*
X10375026Y17830176D01*
X10375024Y17830177D01*
X10369069Y17834004D01*
X10362279Y17835998D01*
X10362276Y17835999D01*
X10251563Y17868506D01*
X10244772Y17870500D01*
X10115228Y17870500D01*
X10108437Y17868506D01*
X9997724Y17835999D01*
X9997721Y17835998D01*
X9990931Y17834004D01*
X9984976Y17830177D01*
X9984974Y17830176D01*
X9940660Y17801697D01*
X9881951Y17763967D01*
X9797118Y17666063D01*
X9743303Y17548226D01*
X9724867Y17420000D01*
X3631369Y17420000D01*
X3548282Y17528282D01*
X3422841Y17624536D01*
X3276762Y17685044D01*
X3159361Y17700500D01*
X2580639Y17700500D01*
X2463238Y17685044D01*
X2317159Y17624536D01*
X2191718Y17528282D01*
X2095464Y17402841D01*
X2034956Y17256762D01*
X2014318Y17100000D01*
X2015165Y17093566D01*
X2017366Y17076850D01*
X2034956Y16943238D01*
X2095464Y16797159D01*
X2191718Y16671718D01*
X2317159Y16575464D01*
X2338887Y16566464D01*
X2385412Y16526727D01*
X2399696Y16467233D01*
X2376281Y16410705D01*
X2338887Y16383536D01*
X2317159Y16374536D01*
X2191718Y16278282D01*
X2095464Y16152841D01*
X2034956Y16006762D01*
X2014318Y15850000D01*
X2034956Y15693238D01*
X2095464Y15547159D01*
X2191718Y15421718D01*
X2317159Y15325464D01*
X2338887Y15316464D01*
X2385412Y15276727D01*
X2399696Y15217233D01*
X2376281Y15160705D01*
X2338887Y15133536D01*
X2317159Y15124536D01*
X2191718Y15028282D01*
X2095464Y14902841D01*
X2034956Y14756762D01*
X2014318Y14600000D01*
X2015165Y14593566D01*
X2017366Y14576850D01*
X2034956Y14443238D01*
X2095464Y14297159D01*
X2191718Y14171718D01*
X2317159Y14075464D01*
X2338887Y14066464D01*
X2385412Y14026727D01*
X2399696Y13967233D01*
X2376281Y13910705D01*
X2338887Y13883536D01*
X2317159Y13874536D01*
X2191718Y13778282D01*
X2095464Y13652841D01*
X2034956Y13506762D01*
X2014318Y13350000D01*
X2034956Y13193238D01*
X2095464Y13047159D01*
X2102314Y13038232D01*
X2122735Y12980555D01*
X2105355Y12921890D01*
X2077663Y12896727D01*
X2078412Y12895651D01*
X2066092Y12887076D01*
X1925876Y12766704D01*
X1918994Y12759464D01*
X1805880Y12613333D01*
X1800595Y12604854D01*
X1719209Y12438937D01*
X1715743Y12429579D01*
X1700104Y12369178D01*
X400500Y12369178D01*
X400500Y18352800D01*
X3676067Y18352800D01*
X3694503Y18224574D01*
X3748318Y18106737D01*
X3833151Y18008833D01*
X3942131Y17938796D01*
X3948921Y17936802D01*
X3948924Y17936801D01*
X4052361Y17906430D01*
X4066428Y17902300D01*
X4195972Y17902300D01*
X4210039Y17906430D01*
X4313476Y17936801D01*
X4313479Y17936802D01*
X4320269Y17938796D01*
X4429249Y18008833D01*
X4514082Y18106737D01*
X4567897Y18224574D01*
X4586333Y18352800D01*
X4575808Y18426005D01*
X9184051Y18426005D01*
X9202487Y18297779D01*
X9256302Y18179942D01*
X9260937Y18174593D01*
X9319734Y18106737D01*
X9341135Y18082038D01*
X9450115Y18012001D01*
X9456905Y18010007D01*
X9456908Y18010006D01*
X9560345Y17979635D01*
X9574412Y17975505D01*
X9703956Y17975505D01*
X9718023Y17979635D01*
X9821460Y18010006D01*
X9821463Y18010007D01*
X9828253Y18012001D01*
X9937233Y18082038D01*
X9958635Y18106737D01*
X10017431Y18174593D01*
X10022066Y18179942D01*
X10075881Y18297779D01*
X10094317Y18426005D01*
X10093329Y18432879D01*
X12711709Y18432879D01*
X12730851Y18262987D01*
X12733309Y18252217D01*
X12789773Y18090855D01*
X12792523Y18085144D01*
X12801129Y18077960D01*
X12809036Y18082447D01*
X13153901Y18427311D01*
X13159958Y18439198D01*
X13159162Y18444228D01*
X12810641Y18792748D01*
X12799127Y18798614D01*
X12793317Y18793303D01*
X12789773Y18785945D01*
X12733309Y18624583D01*
X12730851Y18613813D01*
X12711709Y18443921D01*
X12711709Y18432879D01*
X10093329Y18432879D01*
X10075881Y18554231D01*
X10022066Y18672068D01*
X9937233Y18769972D01*
X9862598Y18817937D01*
X9834210Y18836181D01*
X9834208Y18836182D01*
X9828253Y18840009D01*
X9821463Y18842003D01*
X9821460Y18842004D01*
X9710747Y18874511D01*
X9703956Y18876505D01*
X9574412Y18876505D01*
X9567621Y18874511D01*
X9456908Y18842004D01*
X9456905Y18842003D01*
X9450115Y18840009D01*
X9444160Y18836182D01*
X9444158Y18836181D01*
X9415770Y18817937D01*
X9341135Y18769972D01*
X9256302Y18672068D01*
X9202487Y18554231D01*
X9184051Y18426005D01*
X4575808Y18426005D01*
X4567897Y18481026D01*
X4514082Y18598863D01*
X4451061Y18671594D01*
X4433884Y18691418D01*
X4433883Y18691418D01*
X4429249Y18696767D01*
X4346417Y18750000D01*
X4326226Y18762976D01*
X4326224Y18762977D01*
X4320269Y18766804D01*
X4313479Y18768798D01*
X4313476Y18768799D01*
X4202763Y18801306D01*
X4195972Y18803300D01*
X4066428Y18803300D01*
X4059637Y18801306D01*
X3948924Y18768799D01*
X3948921Y18768798D01*
X3942131Y18766804D01*
X3936176Y18762977D01*
X3936174Y18762976D01*
X3915983Y18750000D01*
X3833151Y18696767D01*
X3828517Y18691418D01*
X3828516Y18691418D01*
X3811339Y18671594D01*
X3748318Y18598863D01*
X3694503Y18481026D01*
X3676067Y18352800D01*
X400500Y18352800D01*
X400500Y18722636D01*
X419407Y18780827D01*
X468907Y18816791D01*
X530093Y18816791D01*
X574320Y18787467D01*
X580074Y18780827D01*
X632751Y18720033D01*
X657542Y18704101D01*
X717409Y18665627D01*
X741731Y18649996D01*
X748521Y18648002D01*
X748524Y18648001D01*
X851961Y18617630D01*
X866028Y18613500D01*
X995572Y18613500D01*
X1009639Y18617630D01*
X1113076Y18648001D01*
X1113079Y18648002D01*
X1119869Y18649996D01*
X1144192Y18665627D01*
X1204058Y18704101D01*
X1228849Y18720033D01*
X1313682Y18817937D01*
X1367497Y18935774D01*
X1385933Y19064000D01*
X1377867Y19120100D01*
X6659268Y19120100D01*
X6677704Y18991874D01*
X6731519Y18874037D01*
X6736154Y18868688D01*
X6800565Y18794353D01*
X6816352Y18776133D01*
X6857016Y18750000D01*
X6903646Y18720033D01*
X6925332Y18706096D01*
X6932122Y18704102D01*
X6932125Y18704101D01*
X7023006Y18677417D01*
X7049629Y18669600D01*
X7179173Y18669600D01*
X7205796Y18677417D01*
X7296677Y18704101D01*
X7296680Y18704102D01*
X7303470Y18706096D01*
X7325157Y18720033D01*
X7371786Y18750000D01*
X7412450Y18776133D01*
X7428238Y18794353D01*
X7492648Y18868688D01*
X7497283Y18874037D01*
X7551098Y18991874D01*
X7569534Y19120100D01*
X7551098Y19248326D01*
X7497283Y19366163D01*
X7454867Y19415115D01*
X7417085Y19458718D01*
X7417084Y19458718D01*
X7412450Y19464067D01*
X7333975Y19514500D01*
X7309427Y19530276D01*
X7309425Y19530277D01*
X7303470Y19534104D01*
X7296680Y19536098D01*
X7296677Y19536099D01*
X7185964Y19568606D01*
X7179173Y19570600D01*
X7049629Y19570600D01*
X7042838Y19568606D01*
X6932125Y19536099D01*
X6932122Y19536098D01*
X6925332Y19534104D01*
X6919377Y19530277D01*
X6919375Y19530276D01*
X6894827Y19514500D01*
X6816352Y19464067D01*
X6811718Y19458718D01*
X6811717Y19458718D01*
X6773935Y19415115D01*
X6731519Y19366163D01*
X6677704Y19248326D01*
X6659268Y19120100D01*
X1377867Y19120100D01*
X1367497Y19192226D01*
X1313682Y19310063D01*
X1228849Y19407967D01*
X1147296Y19460378D01*
X1125826Y19474176D01*
X1125824Y19474177D01*
X1119869Y19478004D01*
X1113079Y19479998D01*
X1113076Y19479999D01*
X1002363Y19512506D01*
X995572Y19514500D01*
X866028Y19514500D01*
X859237Y19512506D01*
X748524Y19479999D01*
X748521Y19479998D01*
X741731Y19478004D01*
X735776Y19474177D01*
X735774Y19474176D01*
X714304Y19460378D01*
X632751Y19407967D01*
X628117Y19402618D01*
X628116Y19402618D01*
X574320Y19340533D01*
X521924Y19308937D01*
X460963Y19314172D01*
X414722Y19354240D01*
X400500Y19405364D01*
X400500Y20260000D01*
X9214867Y20260000D01*
X9233303Y20131774D01*
X9287118Y20013937D01*
X9371951Y19916033D01*
X9377908Y19912205D01*
X9448474Y19866855D01*
X9480931Y19845996D01*
X9487721Y19844002D01*
X9487724Y19844001D01*
X9591161Y19813630D01*
X9605228Y19809500D01*
X9612306Y19809500D01*
X9619317Y19808492D01*
X9618900Y19805593D01*
X9665066Y19790593D01*
X9701030Y19741093D01*
X9705875Y19710500D01*
X9705875Y19707011D01*
X9704867Y19700000D01*
X9723303Y19571774D01*
X9777118Y19453937D01*
X9781753Y19448588D01*
X9848539Y19371512D01*
X9861951Y19356033D01*
X9970931Y19285996D01*
X9977721Y19284002D01*
X9977724Y19284001D01*
X10077273Y19254772D01*
X10095228Y19249500D01*
X10224772Y19249500D01*
X10242727Y19254772D01*
X10342276Y19284001D01*
X10342279Y19284002D01*
X10349069Y19285996D01*
X10458049Y19356033D01*
X10471462Y19371512D01*
X10538247Y19448588D01*
X10542882Y19453937D01*
X10596697Y19571774D01*
X10615133Y19700000D01*
X10614000Y19707879D01*
X12711709Y19707879D01*
X12730851Y19537987D01*
X12733309Y19527217D01*
X12789773Y19365855D01*
X12792523Y19360144D01*
X12801129Y19352960D01*
X12809036Y19357447D01*
X13153901Y19702311D01*
X13159958Y19714198D01*
X13159162Y19719228D01*
X12810641Y20067748D01*
X12799127Y20073614D01*
X12793317Y20068303D01*
X12789773Y20060945D01*
X12733309Y19899583D01*
X12730851Y19888813D01*
X12711709Y19718921D01*
X12711709Y19707879D01*
X10614000Y19707879D01*
X10596697Y19828226D01*
X10542882Y19946063D01*
X10458049Y20043967D01*
X10349069Y20114004D01*
X10342279Y20115998D01*
X10342276Y20115999D01*
X10231563Y20148506D01*
X10224772Y20150500D01*
X10217694Y20150500D01*
X10210683Y20151508D01*
X10211100Y20154407D01*
X10164934Y20169407D01*
X10128970Y20218907D01*
X10124125Y20249500D01*
X10124125Y20252989D01*
X10125133Y20260000D01*
X10124125Y20267011D01*
X10107287Y20384125D01*
X10116345Y20436471D01*
X13163760Y20436471D01*
X13168247Y20428564D01*
X13513111Y20083699D01*
X13524998Y20077642D01*
X13530028Y20078438D01*
X13878548Y20426959D01*
X13883394Y20436471D01*
X14438760Y20436471D01*
X14443247Y20428564D01*
X14788111Y20083699D01*
X14799998Y20077642D01*
X14805028Y20078438D01*
X15153548Y20426959D01*
X15158394Y20436471D01*
X15713760Y20436471D01*
X15718247Y20428564D01*
X16063111Y20083699D01*
X16074998Y20077642D01*
X16080028Y20078438D01*
X16428548Y20426959D01*
X16434414Y20438473D01*
X16429103Y20444283D01*
X16421745Y20447827D01*
X16260383Y20504291D01*
X16249613Y20506749D01*
X16079721Y20525891D01*
X16068679Y20525891D01*
X15898787Y20506749D01*
X15888017Y20504291D01*
X15726655Y20447827D01*
X15720944Y20445077D01*
X15713760Y20436471D01*
X15158394Y20436471D01*
X15159414Y20438473D01*
X15154103Y20444283D01*
X15146745Y20447827D01*
X14985383Y20504291D01*
X14974613Y20506749D01*
X14804721Y20525891D01*
X14793679Y20525891D01*
X14623787Y20506749D01*
X14613017Y20504291D01*
X14451655Y20447827D01*
X14445944Y20445077D01*
X14438760Y20436471D01*
X13883394Y20436471D01*
X13884414Y20438473D01*
X13879103Y20444283D01*
X13871745Y20447827D01*
X13710383Y20504291D01*
X13699613Y20506749D01*
X13529721Y20525891D01*
X13518679Y20525891D01*
X13348787Y20506749D01*
X13338017Y20504291D01*
X13176655Y20447827D01*
X13170944Y20445077D01*
X13163760Y20436471D01*
X10116345Y20436471D01*
X10117720Y20444414D01*
X10161598Y20487057D01*
X10177388Y20493204D01*
X10282276Y20524001D01*
X10282279Y20524002D01*
X10289069Y20525996D01*
X10398049Y20596033D01*
X10482882Y20693937D01*
X10536697Y20811774D01*
X10555133Y20940000D01*
X10536697Y21068226D01*
X10482882Y21186063D01*
X10414636Y21264824D01*
X10402684Y21278618D01*
X10402683Y21278618D01*
X10398049Y21283967D01*
X10324813Y21331033D01*
X10295026Y21350176D01*
X10295024Y21350177D01*
X10289069Y21354004D01*
X10282279Y21355998D01*
X10282276Y21355999D01*
X10171563Y21388506D01*
X10164772Y21390500D01*
X10035228Y21390500D01*
X10028437Y21388506D01*
X9917724Y21355999D01*
X9917721Y21355998D01*
X9910931Y21354004D01*
X9904976Y21350177D01*
X9904974Y21350176D01*
X9875187Y21331033D01*
X9801951Y21283967D01*
X9797317Y21278618D01*
X9797316Y21278618D01*
X9785364Y21264824D01*
X9717118Y21186063D01*
X9663303Y21068226D01*
X9644867Y20940000D01*
X9645875Y20932989D01*
X9662713Y20815875D01*
X9652280Y20755586D01*
X9608402Y20712943D01*
X9592612Y20706796D01*
X9487724Y20675999D01*
X9487721Y20675998D01*
X9480931Y20674004D01*
X9371951Y20603967D01*
X9287118Y20506063D01*
X9233303Y20388226D01*
X9232295Y20381212D01*
X9216464Y20271104D01*
X9214867Y20260000D01*
X400500Y20260000D01*
X400500Y21475850D01*
X18219017Y21475850D01*
X18237453Y21347624D01*
X18291268Y21229787D01*
X18376101Y21131883D01*
X18485081Y21061846D01*
X18491871Y21059852D01*
X18491874Y21059851D01*
X18565273Y21038300D01*
X18609378Y21025350D01*
X18738922Y21025350D01*
X18783027Y21038300D01*
X18856426Y21059851D01*
X18856429Y21059852D01*
X18863219Y21061846D01*
X18972199Y21131883D01*
X19057032Y21229787D01*
X19110847Y21347624D01*
X19129283Y21475850D01*
X19110847Y21604076D01*
X19078457Y21675000D01*
X21669867Y21675000D01*
X21688303Y21546774D01*
X21742118Y21428937D01*
X21772573Y21393789D01*
X21813578Y21346467D01*
X21826951Y21331033D01*
X21832908Y21327205D01*
X21925078Y21267971D01*
X21935931Y21260996D01*
X21942721Y21259002D01*
X21942724Y21259001D01*
X22020285Y21236228D01*
X22060228Y21224500D01*
X22189772Y21224500D01*
X22229715Y21236228D01*
X22307276Y21259001D01*
X22307279Y21259002D01*
X22314069Y21260996D01*
X22324923Y21267971D01*
X22417092Y21327205D01*
X22423049Y21331033D01*
X22436423Y21346467D01*
X22477427Y21393789D01*
X22483502Y21400800D01*
X23843953Y21400800D01*
X23864435Y21258343D01*
X23924223Y21127427D01*
X23928864Y21122071D01*
X24012673Y21025350D01*
X24018472Y21018657D01*
X24071544Y20984550D01*
X24133590Y20944675D01*
X24133592Y20944674D01*
X24139547Y20940847D01*
X24146337Y20938853D01*
X24146340Y20938852D01*
X24260702Y20905273D01*
X24277639Y20900300D01*
X24421561Y20900300D01*
X24438498Y20905273D01*
X24552860Y20938852D01*
X24552863Y20938853D01*
X24559653Y20940847D01*
X24565608Y20944674D01*
X24565610Y20944675D01*
X24627656Y20984550D01*
X24680728Y21018657D01*
X24686528Y21025350D01*
X24770336Y21122071D01*
X24774977Y21127427D01*
X24834765Y21258343D01*
X24855247Y21400800D01*
X24834765Y21543257D01*
X24774977Y21674173D01*
X24741250Y21713096D01*
X24685365Y21777592D01*
X24685364Y21777593D01*
X24680728Y21782943D01*
X24617394Y21823645D01*
X24565610Y21856925D01*
X24565608Y21856926D01*
X24559653Y21860753D01*
X24552863Y21862747D01*
X24552860Y21862748D01*
X24428352Y21899306D01*
X24421561Y21901300D01*
X24277639Y21901300D01*
X24270848Y21899306D01*
X24146340Y21862748D01*
X24146337Y21862747D01*
X24139547Y21860753D01*
X24133592Y21856926D01*
X24133590Y21856925D01*
X24081806Y21823645D01*
X24018472Y21782943D01*
X24013836Y21777593D01*
X24013835Y21777592D01*
X23957950Y21713096D01*
X23924223Y21674173D01*
X23864435Y21543257D01*
X23843953Y21400800D01*
X22483502Y21400800D01*
X22507882Y21428937D01*
X22561697Y21546774D01*
X22580133Y21675000D01*
X22561697Y21803226D01*
X22507882Y21921063D01*
X22457866Y21978786D01*
X22427684Y22013618D01*
X22427683Y22013618D01*
X22423049Y22018967D01*
X22337525Y22073930D01*
X22320026Y22085176D01*
X22320024Y22085177D01*
X22314069Y22089004D01*
X22307279Y22090998D01*
X22307276Y22090999D01*
X22196563Y22123506D01*
X22189772Y22125500D01*
X22060228Y22125500D01*
X22053437Y22123506D01*
X21942724Y22090999D01*
X21942721Y22090998D01*
X21935931Y22089004D01*
X21929976Y22085177D01*
X21929974Y22085176D01*
X21912475Y22073930D01*
X21826951Y22018967D01*
X21822317Y22013618D01*
X21822316Y22013618D01*
X21792134Y21978786D01*
X21742118Y21921063D01*
X21688303Y21803226D01*
X21669867Y21675000D01*
X19078457Y21675000D01*
X19057032Y21721913D01*
X18972199Y21819817D01*
X18863219Y21889854D01*
X18856429Y21891848D01*
X18856426Y21891849D01*
X18745713Y21924356D01*
X18738922Y21926350D01*
X18609378Y21926350D01*
X18602587Y21924356D01*
X18491874Y21891849D01*
X18491871Y21891848D01*
X18485081Y21889854D01*
X18376101Y21819817D01*
X18291268Y21721913D01*
X18237453Y21604076D01*
X18219017Y21475850D01*
X400500Y21475850D01*
X400500Y22720000D01*
X7564867Y22720000D01*
X7583303Y22591774D01*
X7637118Y22473937D01*
X7721951Y22376033D01*
X7830931Y22305996D01*
X7837721Y22304002D01*
X7837724Y22304001D01*
X7923595Y22278788D01*
X7955228Y22269500D01*
X8084772Y22269500D01*
X8116405Y22278788D01*
X8202276Y22304001D01*
X8202279Y22304002D01*
X8209069Y22305996D01*
X8318049Y22376033D01*
X8402882Y22473937D01*
X8456697Y22591774D01*
X8475133Y22720000D01*
X8456697Y22848226D01*
X8402882Y22966063D01*
X8318049Y23063967D01*
X8237890Y23115482D01*
X8215026Y23130176D01*
X8215024Y23130177D01*
X8209069Y23134004D01*
X8202279Y23135998D01*
X8202276Y23135999D01*
X8091563Y23168506D01*
X8084772Y23170500D01*
X7955228Y23170500D01*
X7948437Y23168506D01*
X7837724Y23135999D01*
X7837721Y23135998D01*
X7830931Y23134004D01*
X7824976Y23130177D01*
X7824974Y23130176D01*
X7802110Y23115482D01*
X7721951Y23063967D01*
X7637118Y22966063D01*
X7583303Y22848226D01*
X7564867Y22720000D01*
X400500Y22720000D01*
X400500Y23780000D01*
X10894867Y23780000D01*
X10913303Y23651774D01*
X10967118Y23533937D01*
X11051951Y23436033D01*
X11160931Y23365996D01*
X11167721Y23364002D01*
X11167724Y23364001D01*
X11258864Y23337241D01*
X11285228Y23329500D01*
X11414772Y23329500D01*
X11441136Y23337241D01*
X11532276Y23364001D01*
X11532279Y23364002D01*
X11539069Y23365996D01*
X11648049Y23436033D01*
X11732882Y23533937D01*
X11786697Y23651774D01*
X11805133Y23780000D01*
X11797556Y23832700D01*
X13802841Y23832700D01*
X13821277Y23704474D01*
X13875092Y23586637D01*
X13879727Y23581288D01*
X13947162Y23503463D01*
X13959925Y23488733D01*
X14010316Y23456349D01*
X14052917Y23428971D01*
X14068905Y23418696D01*
X14075695Y23416702D01*
X14075698Y23416701D01*
X14119733Y23403772D01*
X14158193Y23392479D01*
X14208699Y23357945D01*
X14229261Y23300318D01*
X14212023Y23241611D01*
X14183826Y23214207D01*
X14117010Y23171267D01*
X14112376Y23165918D01*
X14112375Y23165918D01*
X14108148Y23161040D01*
X14032177Y23073363D01*
X13978362Y22955526D01*
X13959926Y22827300D01*
X13978362Y22699074D01*
X14032177Y22581237D01*
X14117010Y22483333D01*
X14225990Y22413296D01*
X14232780Y22411302D01*
X14232783Y22411301D01*
X14334682Y22381382D01*
X14350287Y22376800D01*
X14479831Y22376800D01*
X14495436Y22381382D01*
X14558846Y22400000D01*
X26244867Y22400000D01*
X26263303Y22271774D01*
X26317118Y22153937D01*
X26321753Y22148588D01*
X26391784Y22067767D01*
X26401951Y22056033D01*
X26456441Y22021014D01*
X26458073Y22019966D01*
X26510931Y21985996D01*
X26517721Y21984002D01*
X26517724Y21984001D01*
X26586740Y21963737D01*
X26635228Y21949500D01*
X26764772Y21949500D01*
X26813260Y21963737D01*
X26882276Y21984001D01*
X26882279Y21984002D01*
X26889069Y21985996D01*
X26941928Y22019966D01*
X26943559Y22021015D01*
X26998049Y22056033D01*
X27008217Y22067767D01*
X27078247Y22148588D01*
X27082882Y22153937D01*
X27136697Y22271774D01*
X27155133Y22400000D01*
X27136697Y22528226D01*
X27082882Y22646063D01*
X26998049Y22743967D01*
X26943559Y22778985D01*
X26895026Y22810176D01*
X26895024Y22810177D01*
X26889069Y22814004D01*
X26882279Y22815998D01*
X26882276Y22815999D01*
X26771563Y22848506D01*
X26764772Y22850500D01*
X26635228Y22850500D01*
X26628437Y22848506D01*
X26517724Y22815999D01*
X26517721Y22815998D01*
X26510931Y22814004D01*
X26504976Y22810177D01*
X26504974Y22810176D01*
X26456441Y22778985D01*
X26401951Y22743967D01*
X26317118Y22646063D01*
X26263303Y22528226D01*
X26244867Y22400000D01*
X14558846Y22400000D01*
X14597335Y22411301D01*
X14597338Y22411302D01*
X14604128Y22413296D01*
X14713108Y22483333D01*
X14797941Y22581237D01*
X14851756Y22699074D01*
X14870192Y22827300D01*
X14862817Y22878595D01*
X14873250Y22938884D01*
X14917128Y22981527D01*
X14947484Y22988585D01*
X14947183Y22990676D01*
X14954194Y22991684D01*
X14961272Y22991684D01*
X14975339Y22995814D01*
X15078776Y23026185D01*
X15078779Y23026186D01*
X15085569Y23028180D01*
X15101007Y23038101D01*
X15147211Y23067795D01*
X15194549Y23098217D01*
X15205794Y23111194D01*
X15206823Y23112382D01*
X16148175Y23112382D01*
X16166611Y22984156D01*
X16220426Y22866319D01*
X16305259Y22768415D01*
X16343301Y22743967D01*
X16391504Y22712989D01*
X16414239Y22698378D01*
X16421029Y22696384D01*
X16421032Y22696383D01*
X16524469Y22666012D01*
X16538536Y22661882D01*
X16668080Y22661882D01*
X16682147Y22666012D01*
X16785584Y22696383D01*
X16785587Y22696384D01*
X16792377Y22698378D01*
X16815113Y22712989D01*
X16863315Y22743967D01*
X16901357Y22768415D01*
X16986190Y22866319D01*
X17030434Y22963199D01*
X17071806Y23008277D01*
X17131772Y23020428D01*
X17148373Y23017064D01*
X17255934Y22985482D01*
X17385478Y22985482D01*
X17447184Y23003600D01*
X17502982Y23019983D01*
X17502985Y23019984D01*
X17509775Y23021978D01*
X17516322Y23026185D01*
X17612798Y23088187D01*
X17618755Y23092015D01*
X17625737Y23100072D01*
X18090324Y23100072D01*
X18108760Y22971846D01*
X18162575Y22854009D01*
X18247408Y22756105D01*
X18292679Y22727011D01*
X18340338Y22696383D01*
X18356388Y22686068D01*
X18363178Y22684074D01*
X18363181Y22684073D01*
X18466618Y22653702D01*
X18480685Y22649572D01*
X18610229Y22649572D01*
X18624296Y22653702D01*
X18727733Y22684073D01*
X18727736Y22684074D01*
X18734526Y22686068D01*
X18750577Y22696383D01*
X18798235Y22727011D01*
X18843506Y22756105D01*
X18928339Y22854009D01*
X18982154Y22971846D01*
X19000590Y23100072D01*
X18982154Y23228298D01*
X18928339Y23346135D01*
X18866027Y23418048D01*
X18848141Y23438690D01*
X18848140Y23438690D01*
X18843506Y23444039D01*
X18773961Y23488733D01*
X18740483Y23510248D01*
X18740481Y23510249D01*
X18734526Y23514076D01*
X18727736Y23516070D01*
X18727733Y23516071D01*
X18617020Y23548578D01*
X18610229Y23550572D01*
X18480685Y23550572D01*
X18473894Y23548578D01*
X18363181Y23516071D01*
X18363178Y23516070D01*
X18356388Y23514076D01*
X18350433Y23510249D01*
X18350431Y23510248D01*
X18316953Y23488733D01*
X18247408Y23444039D01*
X18242774Y23438690D01*
X18242773Y23438690D01*
X18224887Y23418048D01*
X18162575Y23346135D01*
X18108760Y23228298D01*
X18090324Y23100072D01*
X17625737Y23100072D01*
X17635374Y23111194D01*
X17672142Y23153628D01*
X17703588Y23189919D01*
X17757403Y23307756D01*
X17775839Y23435982D01*
X17757403Y23564208D01*
X17703588Y23682045D01*
X17618755Y23779949D01*
X17526932Y23838960D01*
X17515732Y23846158D01*
X17515730Y23846159D01*
X17509775Y23849986D01*
X17502985Y23851980D01*
X17502982Y23851981D01*
X17392269Y23884488D01*
X17385478Y23886482D01*
X17255934Y23886482D01*
X17249143Y23884488D01*
X17138430Y23851981D01*
X17138427Y23851980D01*
X17131637Y23849986D01*
X17125682Y23846159D01*
X17125680Y23846158D01*
X17114480Y23838960D01*
X17022657Y23779949D01*
X16937824Y23682045D01*
X16897194Y23593078D01*
X16893580Y23585165D01*
X16852208Y23540087D01*
X16792242Y23527936D01*
X16775641Y23531300D01*
X16668080Y23562882D01*
X16538536Y23562882D01*
X16531745Y23560888D01*
X16421032Y23528381D01*
X16421029Y23528380D01*
X16414239Y23526386D01*
X16408284Y23522559D01*
X16408282Y23522558D01*
X16368551Y23497024D01*
X16305259Y23456349D01*
X16300625Y23451000D01*
X16300624Y23451000D01*
X16270904Y23416701D01*
X16220426Y23358445D01*
X16166611Y23240608D01*
X16148175Y23112382D01*
X15206823Y23112382D01*
X15274747Y23190772D01*
X15279382Y23196121D01*
X15333197Y23313958D01*
X15351633Y23442184D01*
X15333197Y23570410D01*
X15279382Y23688247D01*
X15274749Y23693594D01*
X15274745Y23693600D01*
X15247545Y23724990D01*
X15223727Y23781349D01*
X15237585Y23840944D01*
X15268841Y23873105D01*
X15308073Y23898318D01*
X15352299Y23926740D01*
X15437132Y24024644D01*
X15490947Y24142481D01*
X15506127Y24248060D01*
X15533123Y24302968D01*
X15587237Y24331521D01*
X15647800Y24322813D01*
X15678939Y24298802D01*
X15756983Y24208733D01*
X15865963Y24138696D01*
X15872753Y24136702D01*
X15872756Y24136701D01*
X15976193Y24106330D01*
X15990260Y24102200D01*
X16119804Y24102200D01*
X16133871Y24106330D01*
X16237308Y24136701D01*
X16237311Y24136702D01*
X16244101Y24138696D01*
X16353081Y24208733D01*
X16437914Y24306637D01*
X16491729Y24424474D01*
X16510165Y24552700D01*
X16491729Y24680926D01*
X16437914Y24798763D01*
X16395497Y24847715D01*
X16357716Y24891318D01*
X16357715Y24891318D01*
X16353081Y24896667D01*
X16285653Y24940000D01*
X22134867Y24940000D01*
X22153303Y24811774D01*
X22207118Y24693937D01*
X22233845Y24663092D01*
X22280434Y24609325D01*
X22291951Y24596033D01*
X22400931Y24525996D01*
X22407721Y24524002D01*
X22407724Y24524001D01*
X22511161Y24493630D01*
X22525228Y24489500D01*
X22654772Y24489500D01*
X22668839Y24493630D01*
X22772276Y24524001D01*
X22772279Y24524002D01*
X22779069Y24525996D01*
X22888049Y24596033D01*
X22899567Y24609325D01*
X22946155Y24663092D01*
X22972882Y24693937D01*
X23026697Y24811774D01*
X23045133Y24940000D01*
X23026697Y25068226D01*
X22972882Y25186063D01*
X22907766Y25261212D01*
X22892684Y25278618D01*
X22892683Y25278618D01*
X22888049Y25283967D01*
X22794108Y25344339D01*
X22785026Y25350176D01*
X22785024Y25350177D01*
X22779069Y25354004D01*
X22772279Y25355998D01*
X22772276Y25355999D01*
X22661563Y25388506D01*
X22654772Y25390500D01*
X22525228Y25390500D01*
X22518437Y25388506D01*
X22407724Y25355999D01*
X22407721Y25355998D01*
X22400931Y25354004D01*
X22394976Y25350177D01*
X22394974Y25350176D01*
X22385892Y25344339D01*
X22291951Y25283967D01*
X22287317Y25278618D01*
X22287316Y25278618D01*
X22272234Y25261212D01*
X22207118Y25186063D01*
X22153303Y25068226D01*
X22134867Y24940000D01*
X16285653Y24940000D01*
X16244101Y24966704D01*
X16191124Y24982259D01*
X16140616Y25016794D01*
X16120054Y25074421D01*
X16121022Y25091338D01*
X16131831Y25166520D01*
X16132839Y25173531D01*
X16114403Y25301757D01*
X16060588Y25419594D01*
X15975755Y25517498D01*
X15900233Y25566033D01*
X15872732Y25583707D01*
X15872730Y25583708D01*
X15866775Y25587535D01*
X15859985Y25589529D01*
X15859982Y25589530D01*
X15749269Y25622037D01*
X15742478Y25624031D01*
X15612934Y25624031D01*
X15606143Y25622037D01*
X15495430Y25589530D01*
X15495427Y25589529D01*
X15488637Y25587535D01*
X15482682Y25583708D01*
X15482680Y25583707D01*
X15455179Y25566033D01*
X15379657Y25517498D01*
X15294824Y25419594D01*
X15241009Y25301757D01*
X15222573Y25173531D01*
X15241009Y25045305D01*
X15294824Y24927468D01*
X15379657Y24829564D01*
X15379716Y24829526D01*
X15408894Y24781146D01*
X15427202Y24785405D01*
X15472258Y24770053D01*
X15488637Y24759527D01*
X15541614Y24743972D01*
X15592122Y24709437D01*
X15612684Y24651810D01*
X15611716Y24634894D01*
X15603155Y24575348D01*
X15576160Y24520440D01*
X15522045Y24491886D01*
X15461483Y24500593D01*
X15430343Y24524605D01*
X15399924Y24559711D01*
X15352299Y24614674D01*
X15352240Y24614712D01*
X15323062Y24663092D01*
X15304754Y24658833D01*
X15259698Y24674185D01*
X15252800Y24678618D01*
X15243319Y24684711D01*
X15236529Y24686705D01*
X15236526Y24686706D01*
X15125813Y24719213D01*
X15119022Y24721207D01*
X14989478Y24721207D01*
X14982687Y24719213D01*
X14871974Y24686706D01*
X14871971Y24686705D01*
X14865181Y24684711D01*
X14756201Y24614674D01*
X14751567Y24609325D01*
X14751566Y24609325D01*
X14740049Y24596033D01*
X14671368Y24516770D01*
X14617553Y24398933D01*
X14616545Y24391920D01*
X14605018Y24311748D01*
X14578022Y24256840D01*
X14523908Y24228287D01*
X14463345Y24236994D01*
X14453508Y24242549D01*
X14447043Y24246704D01*
X14440253Y24248698D01*
X14440250Y24248699D01*
X14329537Y24281206D01*
X14322746Y24283200D01*
X14193202Y24283200D01*
X14186411Y24281206D01*
X14075698Y24248699D01*
X14075695Y24248698D01*
X14068905Y24246704D01*
X14062950Y24242877D01*
X14062948Y24242876D01*
X14025467Y24218788D01*
X13959925Y24176667D01*
X13875092Y24078763D01*
X13821277Y23960926D01*
X13802841Y23832700D01*
X11797556Y23832700D01*
X11786697Y23908226D01*
X11732882Y24026063D01*
X11648049Y24123967D01*
X11566046Y24176667D01*
X11545026Y24190176D01*
X11545024Y24190177D01*
X11539069Y24194004D01*
X11532279Y24195998D01*
X11532276Y24195999D01*
X11421563Y24228506D01*
X11414772Y24230500D01*
X11285228Y24230500D01*
X11278437Y24228506D01*
X11167724Y24195999D01*
X11167721Y24195998D01*
X11160931Y24194004D01*
X11154976Y24190177D01*
X11154974Y24190176D01*
X11133954Y24176667D01*
X11051951Y24123967D01*
X10967118Y24026063D01*
X10913303Y23908226D01*
X10894867Y23780000D01*
X400500Y23780000D01*
X400500Y24340000D01*
X3074867Y24340000D01*
X3093303Y24211774D01*
X3147118Y24093937D01*
X3231951Y23996033D01*
X3340931Y23925996D01*
X3347721Y23924002D01*
X3347724Y23924001D01*
X3435196Y23898318D01*
X3465228Y23889500D01*
X3594772Y23889500D01*
X3624804Y23898318D01*
X3712276Y23924001D01*
X3712279Y23924002D01*
X3719069Y23925996D01*
X3828049Y23996033D01*
X3912882Y24093937D01*
X3966697Y24211774D01*
X3985133Y24340000D01*
X3966697Y24468226D01*
X3912882Y24586063D01*
X3828049Y24683967D01*
X3765755Y24724001D01*
X3725026Y24750176D01*
X3725024Y24750177D01*
X3719069Y24754004D01*
X3712279Y24755998D01*
X3712276Y24755999D01*
X3601563Y24788506D01*
X3594772Y24790500D01*
X3465228Y24790500D01*
X3458437Y24788506D01*
X3347724Y24755999D01*
X3347721Y24755998D01*
X3340931Y24754004D01*
X3334976Y24750177D01*
X3334974Y24750176D01*
X3294245Y24724001D01*
X3231951Y24683967D01*
X3147118Y24586063D01*
X3093303Y24468226D01*
X3074867Y24340000D01*
X400500Y24340000D01*
X400500Y25140000D01*
X11024867Y25140000D01*
X11043303Y25011774D01*
X11097118Y24893937D01*
X11101753Y24888588D01*
X11174951Y24804112D01*
X11181951Y24796033D01*
X11198489Y24785405D01*
X11262960Y24743972D01*
X11290931Y24725996D01*
X11297721Y24724002D01*
X11297724Y24724001D01*
X11378180Y24700378D01*
X11415228Y24689500D01*
X11544772Y24689500D01*
X11581820Y24700378D01*
X11662276Y24724001D01*
X11662279Y24724002D01*
X11669069Y24725996D01*
X11697041Y24743972D01*
X11761511Y24785405D01*
X11778049Y24796033D01*
X11785050Y24804112D01*
X11858247Y24888588D01*
X11862882Y24893937D01*
X11916697Y25011774D01*
X11935133Y25140000D01*
X11916697Y25268226D01*
X11862882Y25386063D01*
X11858250Y25391408D01*
X11858248Y25391412D01*
X11818670Y25437087D01*
X11794853Y25493447D01*
X11808712Y25553042D01*
X11818670Y25566748D01*
X11890807Y25650000D01*
X20864867Y25650000D01*
X20883303Y25521774D01*
X20937118Y25403937D01*
X21021951Y25306033D01*
X21130931Y25235996D01*
X21137721Y25234002D01*
X21137724Y25234001D01*
X21241161Y25203630D01*
X21255228Y25199500D01*
X21384772Y25199500D01*
X21398839Y25203630D01*
X21502276Y25234001D01*
X21502279Y25234002D01*
X21509069Y25235996D01*
X21618049Y25306033D01*
X21702882Y25403937D01*
X21756697Y25521774D01*
X21775133Y25650000D01*
X21756697Y25778226D01*
X21702882Y25896063D01*
X21628524Y25981878D01*
X21622684Y25988618D01*
X21622683Y25988618D01*
X21618049Y25993967D01*
X21563559Y26028985D01*
X21515026Y26060176D01*
X21515024Y26060177D01*
X21509069Y26064004D01*
X21502279Y26065998D01*
X21502276Y26065999D01*
X21391563Y26098506D01*
X21384772Y26100500D01*
X21255228Y26100500D01*
X21248437Y26098506D01*
X21137724Y26065999D01*
X21137721Y26065998D01*
X21130931Y26064004D01*
X21124976Y26060177D01*
X21124974Y26060176D01*
X21076441Y26028986D01*
X21021951Y25993967D01*
X21017317Y25988618D01*
X21017316Y25988618D01*
X21011476Y25981878D01*
X20937118Y25896063D01*
X20883303Y25778226D01*
X20864867Y25650000D01*
X11890807Y25650000D01*
X11898245Y25658584D01*
X11898249Y25658590D01*
X11902882Y25663937D01*
X11956697Y25781774D01*
X11975133Y25910000D01*
X11956697Y26038226D01*
X11902882Y26156063D01*
X11825436Y26245442D01*
X11801619Y26301802D01*
X11815478Y26361397D01*
X11834058Y26383468D01*
X11838049Y26386033D01*
X11922882Y26483937D01*
X11976697Y26601774D01*
X11995133Y26730000D01*
X11976697Y26858226D01*
X11934785Y26950000D01*
X13034867Y26950000D01*
X13053303Y26821774D01*
X13107118Y26703937D01*
X13191951Y26606033D01*
X13226066Y26584109D01*
X13292835Y26541199D01*
X13300931Y26535996D01*
X13307721Y26534002D01*
X13307724Y26534001D01*
X13384992Y26511314D01*
X13425228Y26499500D01*
X13554772Y26499500D01*
X13595008Y26511314D01*
X13672276Y26534001D01*
X13672279Y26534002D01*
X13679069Y26535996D01*
X13687166Y26541199D01*
X13751275Y26582400D01*
X26180467Y26582400D01*
X26198903Y26454174D01*
X26252718Y26336337D01*
X26337551Y26238433D01*
X26446531Y26168396D01*
X26453321Y26166402D01*
X26453324Y26166401D01*
X26556761Y26136030D01*
X26570828Y26131900D01*
X26700372Y26131900D01*
X26714439Y26136030D01*
X26817876Y26166401D01*
X26817879Y26166402D01*
X26824669Y26168396D01*
X26933649Y26238433D01*
X27018482Y26336337D01*
X27072297Y26454174D01*
X27090733Y26582400D01*
X27072297Y26710626D01*
X27018482Y26828463D01*
X26965594Y26889500D01*
X26938284Y26921018D01*
X26938283Y26921018D01*
X26933649Y26926367D01*
X26866343Y26969622D01*
X26830626Y26992576D01*
X26830624Y26992577D01*
X26824669Y26996404D01*
X26817879Y26998398D01*
X26817876Y26998399D01*
X26707163Y27030906D01*
X26700372Y27032900D01*
X26570828Y27032900D01*
X26564037Y27030906D01*
X26453324Y26998399D01*
X26453321Y26998398D01*
X26446531Y26996404D01*
X26440576Y26992577D01*
X26440574Y26992576D01*
X26404857Y26969622D01*
X26337551Y26926367D01*
X26332917Y26921018D01*
X26332916Y26921018D01*
X26305606Y26889500D01*
X26252718Y26828463D01*
X26198903Y26710626D01*
X26180467Y26582400D01*
X13751275Y26582400D01*
X13753934Y26584109D01*
X13788049Y26606033D01*
X13872882Y26703937D01*
X13926697Y26821774D01*
X13945133Y26950000D01*
X13926697Y27078226D01*
X13872882Y27196063D01*
X13788049Y27293967D01*
X13679069Y27364004D01*
X13672279Y27365998D01*
X13672276Y27365999D01*
X13561563Y27398506D01*
X13554772Y27400500D01*
X13425228Y27400500D01*
X13418437Y27398506D01*
X13307724Y27365999D01*
X13307721Y27365998D01*
X13300931Y27364004D01*
X13191951Y27293967D01*
X13107118Y27196063D01*
X13053303Y27078226D01*
X13034867Y26950000D01*
X11934785Y26950000D01*
X11922882Y26976063D01*
X11838049Y27073967D01*
X11761360Y27123252D01*
X11735026Y27140176D01*
X11735024Y27140177D01*
X11729069Y27144004D01*
X11722279Y27145998D01*
X11722276Y27145999D01*
X11611563Y27178506D01*
X11604772Y27180500D01*
X11475228Y27180500D01*
X11468437Y27178506D01*
X11357724Y27145999D01*
X11357721Y27145998D01*
X11350931Y27144004D01*
X11344976Y27140177D01*
X11344974Y27140176D01*
X11318640Y27123252D01*
X11241951Y27073967D01*
X11157118Y26976063D01*
X11103303Y26858226D01*
X11084867Y26730000D01*
X11103303Y26601774D01*
X11157118Y26483937D01*
X11161753Y26478588D01*
X11234564Y26394558D01*
X11258381Y26338198D01*
X11244522Y26278603D01*
X11225942Y26256532D01*
X11221951Y26253967D01*
X11137118Y26156063D01*
X11083303Y26038226D01*
X11064867Y25910000D01*
X11083303Y25781774D01*
X11137118Y25663937D01*
X11141750Y25658592D01*
X11141752Y25658588D01*
X11181330Y25612913D01*
X11205147Y25556553D01*
X11191288Y25496958D01*
X11181330Y25483252D01*
X11101755Y25391416D01*
X11101751Y25391410D01*
X11097118Y25386063D01*
X11043303Y25268226D01*
X11024867Y25140000D01*
X400500Y25140000D01*
X400500Y31552159D01*
X774042Y31552159D01*
X776734Y31542111D01*
X777178Y31533647D01*
X778789Y31521408D01*
X778789Y27125841D01*
X778653Y27120659D01*
X776577Y27081055D01*
X780356Y27071212D01*
X784658Y27060004D01*
X789071Y27045108D01*
X793761Y27023044D01*
X799874Y27014630D01*
X803086Y27007416D01*
X807387Y27000793D01*
X811115Y26991083D01*
X827061Y26975137D01*
X837150Y26963324D01*
X850408Y26945076D01*
X859421Y26939872D01*
X865723Y26934198D01*
X875508Y26926690D01*
X1524337Y26277861D01*
X1552114Y26223344D01*
X1552325Y26193769D01*
X1547673Y26161412D01*
X1542467Y26125200D01*
X1560903Y25996974D01*
X1614718Y25879137D01*
X1699551Y25781233D01*
X1808531Y25711196D01*
X1815321Y25709202D01*
X1815324Y25709201D01*
X1918761Y25678830D01*
X1932828Y25674700D01*
X2062372Y25674700D01*
X2076439Y25678830D01*
X2179876Y25709201D01*
X2179879Y25709202D01*
X2186669Y25711196D01*
X2295649Y25781233D01*
X2380482Y25879137D01*
X2421378Y25968686D01*
X7542000Y25968686D01*
X7542258Y25963635D01*
X7551706Y25871146D01*
X7553957Y25860632D01*
X7604339Y25708588D01*
X7609182Y25698202D01*
X7693082Y25562179D01*
X7700184Y25553197D01*
X7813197Y25440184D01*
X7822179Y25433082D01*
X7958202Y25349182D01*
X7968588Y25344339D01*
X8120632Y25293957D01*
X8131146Y25291706D01*
X8223635Y25282258D01*
X8228686Y25282000D01*
X8480320Y25282000D01*
X8493005Y25286122D01*
X8496000Y25290243D01*
X8496000Y25297680D01*
X9004000Y25297680D01*
X9008122Y25284995D01*
X9012243Y25282000D01*
X9271314Y25282000D01*
X9276365Y25282258D01*
X9368854Y25291706D01*
X9379368Y25293957D01*
X9531412Y25344339D01*
X9541798Y25349182D01*
X9677821Y25433082D01*
X9686803Y25440184D01*
X9799816Y25553197D01*
X9806918Y25562179D01*
X9890818Y25698202D01*
X9895661Y25708588D01*
X9946043Y25860632D01*
X9948294Y25871146D01*
X9957742Y25963635D01*
X9958000Y25968686D01*
X9958000Y25970320D01*
X9953878Y25983005D01*
X9949757Y25986000D01*
X9019680Y25986000D01*
X9006995Y25981878D01*
X9004000Y25977757D01*
X9004000Y25297680D01*
X8496000Y25297680D01*
X8496000Y25970320D01*
X8491878Y25983005D01*
X8487757Y25986000D01*
X7557680Y25986000D01*
X7544995Y25981878D01*
X7542000Y25977757D01*
X7542000Y25968686D01*
X2421378Y25968686D01*
X2434297Y25996974D01*
X2452733Y26125200D01*
X2434297Y26253426D01*
X2380482Y26371263D01*
X2295649Y26469167D01*
X2222207Y26516365D01*
X2192626Y26535376D01*
X2192624Y26535377D01*
X2186669Y26539204D01*
X2179879Y26541198D01*
X2179876Y26541199D01*
X2069163Y26573706D01*
X2062372Y26575700D01*
X1932828Y26575700D01*
X1926034Y26573705D01*
X1925832Y26573676D01*
X1865543Y26584109D01*
X1841742Y26601661D01*
X1769553Y26673850D01*
X2565231Y26673850D01*
X2583667Y26545624D01*
X2637482Y26427787D01*
X2674476Y26385093D01*
X2711142Y26342778D01*
X2722315Y26329883D01*
X2831295Y26259846D01*
X2838085Y26257852D01*
X2838088Y26257851D01*
X2917260Y26234605D01*
X2955592Y26223350D01*
X3085136Y26223350D01*
X3123468Y26234605D01*
X3202640Y26257851D01*
X3202643Y26257852D01*
X3209433Y26259846D01*
X3318413Y26329883D01*
X3329587Y26342778D01*
X3366252Y26385093D01*
X3403246Y26427787D01*
X3440646Y26509680D01*
X7542000Y26509680D01*
X7546122Y26496995D01*
X7550243Y26494000D01*
X9942320Y26494000D01*
X9955005Y26498122D01*
X9958000Y26502243D01*
X9958000Y26511314D01*
X9957742Y26516365D01*
X9948294Y26608854D01*
X9946043Y26619368D01*
X9895661Y26771412D01*
X9890818Y26781798D01*
X9806918Y26917821D01*
X9799816Y26926803D01*
X9686803Y27039816D01*
X9677825Y27046915D01*
X9581214Y27106505D01*
X9541613Y27153146D01*
X9536990Y27214157D01*
X9541723Y27228652D01*
X9582560Y27327241D01*
X9585044Y27333238D01*
X9605682Y27490000D01*
X9585044Y27646762D01*
X9524536Y27792841D01*
X9428282Y27918282D01*
X9302841Y28014536D01*
X9281113Y28023536D01*
X9234588Y28063273D01*
X9220304Y28122767D01*
X9243719Y28179295D01*
X9281113Y28206464D01*
X9302841Y28215464D01*
X9428282Y28311718D01*
X9524536Y28437159D01*
X9585044Y28583238D01*
X9605682Y28740000D01*
X9585044Y28896762D01*
X9524536Y29042841D01*
X9428282Y29168282D01*
X9302841Y29264536D01*
X9281113Y29273536D01*
X9234588Y29313273D01*
X9220304Y29372767D01*
X9221312Y29375200D01*
X21840500Y29375200D01*
X21841487Y29352591D01*
X21842629Y29339533D01*
X21843862Y29328272D01*
X21876408Y29232393D01*
X21878839Y29228183D01*
X21878840Y29228180D01*
X21891295Y29206607D01*
X21902128Y29187844D01*
X21951548Y29126268D01*
X22038110Y29073742D01*
X22052491Y29068508D01*
X22082386Y29057627D01*
X22082390Y29057626D01*
X22086448Y29056149D01*
X22090701Y29055399D01*
X22090705Y29055398D01*
X22146281Y29045599D01*
X22175200Y29040500D01*
X24061876Y29040500D01*
X24065865Y29041159D01*
X24065870Y29041159D01*
X24113289Y29048989D01*
X24145290Y29054272D01*
X24149124Y29055574D01*
X24149130Y29055575D01*
X24187228Y29068508D01*
X24187233Y29068510D01*
X24191069Y29069812D01*
X24194646Y29071724D01*
X24194649Y29071725D01*
X24262032Y29107738D01*
X24262034Y29107739D01*
X24265611Y29109651D01*
X24268287Y29111704D01*
X24268305Y29111718D01*
X24268832Y29112122D01*
X24342890Y29168948D01*
X24365269Y29181869D01*
X24381938Y29188774D01*
X24381943Y29188776D01*
X24412947Y29201619D01*
X24437909Y29208308D01*
X24489080Y29215045D01*
X24514920Y29215045D01*
X24536683Y29212180D01*
X24566092Y29208308D01*
X24591055Y29201619D01*
X24622058Y29188777D01*
X24622394Y29188638D01*
X24669930Y29168948D01*
X24682032Y29163935D01*
X24691776Y29159260D01*
X24692828Y29158683D01*
X24697615Y29156056D01*
X24698392Y29155773D01*
X24698469Y29155985D01*
X24701333Y29154687D01*
X24701338Y29154701D01*
X24737125Y29141676D01*
X24737128Y29141675D01*
X24740170Y29140568D01*
X24743334Y29139867D01*
X24743336Y29139866D01*
X24749981Y29138393D01*
X24806299Y29125908D01*
X24844142Y29130052D01*
X24902113Y29136399D01*
X24902118Y29136400D01*
X24906949Y29136929D01*
X24919983Y29141038D01*
X24951911Y29151104D01*
X24951917Y29151107D01*
X24952258Y29151214D01*
X24952249Y29151244D01*
X24955300Y29152508D01*
X24955396Y29152203D01*
X24956027Y29152402D01*
X24968093Y29158684D01*
X24982031Y29163896D01*
X24982067Y29163810D01*
X25015771Y29177771D01*
X25025669Y29181871D01*
X25073345Y29201619D01*
X25098308Y29208308D01*
X25127717Y29212180D01*
X25149480Y29215045D01*
X25175320Y29215045D01*
X25197083Y29212180D01*
X25226492Y29208308D01*
X25251455Y29201619D01*
X25282458Y29188777D01*
X25282794Y29188638D01*
X25330330Y29168948D01*
X25342432Y29163935D01*
X25352176Y29159260D01*
X25353228Y29158683D01*
X25358015Y29156056D01*
X25358792Y29155773D01*
X25358869Y29155985D01*
X25361733Y29154687D01*
X25361738Y29154701D01*
X25397525Y29141676D01*
X25397528Y29141675D01*
X25400570Y29140568D01*
X25403734Y29139867D01*
X25403736Y29139866D01*
X25410381Y29138393D01*
X25466699Y29125908D01*
X25504542Y29130052D01*
X25562513Y29136399D01*
X25562518Y29136400D01*
X25567349Y29136929D01*
X25580383Y29141038D01*
X25612311Y29151104D01*
X25612317Y29151107D01*
X25612658Y29151214D01*
X25612649Y29151244D01*
X25615700Y29152508D01*
X25615796Y29152203D01*
X25616427Y29152402D01*
X25628493Y29158684D01*
X25642431Y29163896D01*
X25642467Y29163810D01*
X25676171Y29177771D01*
X25686069Y29181871D01*
X25733745Y29201619D01*
X25758708Y29208308D01*
X25788117Y29212180D01*
X25809880Y29215045D01*
X25835720Y29215045D01*
X25857483Y29212180D01*
X25886892Y29208308D01*
X25911855Y29201619D01*
X25943194Y29188638D01*
X25943196Y29188637D01*
X25959531Y29181871D01*
X25981915Y29168947D01*
X26059170Y29109666D01*
X26062741Y29107757D01*
X26062743Y29107756D01*
X26130159Y29071721D01*
X26130162Y29071720D01*
X26133731Y29069812D01*
X26146468Y29065488D01*
X26175670Y29055575D01*
X26175676Y29055574D01*
X26179510Y29054272D01*
X26211511Y29048989D01*
X26258930Y29041159D01*
X26258935Y29041159D01*
X26262924Y29040500D01*
X30624800Y29040500D01*
X30634120Y29040907D01*
X30646365Y29041441D01*
X30646384Y29041442D01*
X30647409Y29041487D01*
X30658477Y29042455D01*
X30659976Y29042586D01*
X30659981Y29042587D01*
X30660467Y29042629D01*
X30660963Y29042683D01*
X30660970Y29042684D01*
X30666358Y29043274D01*
X30671728Y29043862D01*
X30744340Y29068510D01*
X30763000Y29074844D01*
X30763001Y29074845D01*
X30767607Y29076408D01*
X30771817Y29078839D01*
X30771820Y29078840D01*
X30808874Y29100233D01*
X30808876Y29100234D01*
X30812156Y29102128D01*
X30873732Y29151548D01*
X30926258Y29238110D01*
X30939494Y29274476D01*
X30942373Y29282386D01*
X30942374Y29282390D01*
X30943851Y29286448D01*
X30950324Y29323156D01*
X30958750Y29370947D01*
X30959500Y29375200D01*
X30959500Y33024800D01*
X30958513Y33047409D01*
X30957371Y33060467D01*
X30956138Y33071728D01*
X30923592Y33167607D01*
X30897872Y33212156D01*
X30848452Y33273732D01*
X30761890Y33326258D01*
X30740636Y33333994D01*
X30717614Y33342373D01*
X30717610Y33342374D01*
X30713552Y33343851D01*
X30709299Y33344601D01*
X30709295Y33344602D01*
X30645194Y33355904D01*
X30624800Y33359500D01*
X27358500Y33359500D01*
X27300309Y33378407D01*
X27264345Y33427907D01*
X27259500Y33458500D01*
X27259500Y33702081D01*
X34067120Y33702081D01*
X34067509Y33699621D01*
X34070174Y33696330D01*
X34315482Y33497683D01*
X34319682Y33494631D01*
X34641277Y33285785D01*
X34645763Y33283195D01*
X34987446Y33109099D01*
X34992166Y33106997D01*
X35350175Y32969571D01*
X35355093Y32967973D01*
X35725496Y32868723D01*
X35730575Y32867644D01*
X36109311Y32807658D01*
X36114473Y32807116D01*
X36497405Y32787047D01*
X36502595Y32787047D01*
X36885527Y32807116D01*
X36890689Y32807658D01*
X37269425Y32867644D01*
X37274504Y32868723D01*
X37644907Y32967973D01*
X37649825Y32969571D01*
X38007834Y33106997D01*
X38012554Y33109099D01*
X38354237Y33283195D01*
X38358723Y33285785D01*
X38680318Y33494631D01*
X38684518Y33497683D01*
X38925726Y33693010D01*
X38932991Y33704197D01*
X38932861Y33706685D01*
X38930556Y33710234D01*
X36511086Y36129704D01*
X36499203Y36135758D01*
X36494172Y36134962D01*
X34073174Y33713964D01*
X34067120Y33702081D01*
X27259500Y33702081D01*
X27259500Y35254265D01*
X27749500Y35254265D01*
X27749501Y34145736D01*
X27752354Y34115302D01*
X27797207Y33987118D01*
X27801613Y33981148D01*
X27801614Y33981146D01*
X27873441Y33883824D01*
X27877850Y33877850D01*
X27883824Y33873441D01*
X27981146Y33801614D01*
X27981148Y33801613D01*
X27987118Y33797207D01*
X27994121Y33794757D01*
X27994122Y33794756D01*
X28109623Y33754341D01*
X28115302Y33752354D01*
X28121290Y33751792D01*
X28121292Y33751792D01*
X28143439Y33749715D01*
X28143446Y33749715D01*
X28145735Y33749500D01*
X28699640Y33749500D01*
X29254264Y33749501D01*
X29284698Y33752354D01*
X29405146Y33794500D01*
X29405878Y33794756D01*
X29405879Y33794757D01*
X29412882Y33797207D01*
X29418852Y33801613D01*
X29418854Y33801614D01*
X29516176Y33873441D01*
X29522150Y33877850D01*
X29526559Y33883824D01*
X29598386Y33981146D01*
X29598387Y33981148D01*
X29602793Y33987118D01*
X29647646Y34115302D01*
X29648208Y34121292D01*
X29650285Y34143439D01*
X29650285Y34143446D01*
X29650500Y34145735D01*
X29650499Y35254264D01*
X29647646Y35284698D01*
X29602793Y35412882D01*
X29598387Y35418852D01*
X29598386Y35418854D01*
X29526559Y35516176D01*
X29522150Y35522150D01*
X29487925Y35547409D01*
X29418854Y35598386D01*
X29418852Y35598387D01*
X29412882Y35602793D01*
X29405879Y35605243D01*
X29405878Y35605244D01*
X29290377Y35645659D01*
X29290376Y35645659D01*
X29284698Y35647646D01*
X29278710Y35648208D01*
X29278708Y35648208D01*
X29256561Y35650285D01*
X29256554Y35650285D01*
X29254265Y35650500D01*
X28700360Y35650500D01*
X28145736Y35650499D01*
X28115302Y35647646D01*
X28109617Y35645657D01*
X28109618Y35645657D01*
X27994122Y35605244D01*
X27994121Y35605243D01*
X27987118Y35602793D01*
X27981148Y35598387D01*
X27981146Y35598386D01*
X27912075Y35547409D01*
X27877850Y35522150D01*
X27873441Y35516176D01*
X27801614Y35418854D01*
X27801613Y35418852D01*
X27797207Y35412882D01*
X27794757Y35405879D01*
X27794756Y35405878D01*
X27762120Y35312608D01*
X27752354Y35284698D01*
X27751792Y35278710D01*
X27751792Y35278708D01*
X27749716Y35256566D01*
X27749500Y35254265D01*
X27259500Y35254265D01*
X27259500Y35524800D01*
X27258513Y35547409D01*
X27257371Y35560467D01*
X27256138Y35571728D01*
X27223592Y35667607D01*
X27197872Y35712156D01*
X27148452Y35773732D01*
X27061890Y35826258D01*
X27040636Y35833994D01*
X27017614Y35842373D01*
X27017610Y35842374D01*
X27013552Y35843851D01*
X27009299Y35844601D01*
X27009295Y35844602D01*
X26943867Y35856138D01*
X26924800Y35859500D01*
X22175200Y35859500D01*
X22165880Y35859093D01*
X22153635Y35858559D01*
X22153616Y35858558D01*
X22152591Y35858513D01*
X22141523Y35857545D01*
X22140024Y35857414D01*
X22140019Y35857413D01*
X22139533Y35857371D01*
X22139037Y35857317D01*
X22139030Y35857316D01*
X22133642Y35856726D01*
X22128272Y35856138D01*
X22032393Y35823592D01*
X22028183Y35821161D01*
X22028180Y35821160D01*
X21991126Y35799767D01*
X21987844Y35797872D01*
X21926268Y35748452D01*
X21873742Y35661890D01*
X21856149Y35613552D01*
X21855399Y35609299D01*
X21855398Y35609295D01*
X21846789Y35560467D01*
X21840500Y35524800D01*
X21840500Y29375200D01*
X9221312Y29375200D01*
X9243719Y29429295D01*
X9281113Y29456464D01*
X9302841Y29465464D01*
X9428282Y29561718D01*
X9524536Y29687159D01*
X9585044Y29833238D01*
X9605155Y29986000D01*
X14547267Y29986000D01*
X14565703Y29857774D01*
X14619518Y29739937D01*
X14704351Y29642033D01*
X14813331Y29571996D01*
X14820121Y29570002D01*
X14820124Y29570001D01*
X14923561Y29539630D01*
X14937628Y29535500D01*
X15067172Y29535500D01*
X15081239Y29539630D01*
X15184676Y29570001D01*
X15184679Y29570002D01*
X15191469Y29571996D01*
X15300449Y29642033D01*
X15385282Y29739937D01*
X15439097Y29857774D01*
X15457533Y29986000D01*
X15439097Y30114226D01*
X15385282Y30232063D01*
X15300449Y30329967D01*
X15191469Y30400004D01*
X15184679Y30401998D01*
X15184676Y30401999D01*
X15073963Y30434506D01*
X15067172Y30436500D01*
X14937628Y30436500D01*
X14930837Y30434506D01*
X14820124Y30401999D01*
X14820121Y30401998D01*
X14813331Y30400004D01*
X14704351Y30329967D01*
X14619518Y30232063D01*
X14565703Y30114226D01*
X14547267Y29986000D01*
X9605155Y29986000D01*
X9605682Y29990000D01*
X9585044Y30146762D01*
X9524536Y30292841D01*
X9428282Y30418282D01*
X9302841Y30514536D01*
X9281113Y30523536D01*
X9234588Y30563273D01*
X9220304Y30622767D01*
X9228687Y30643004D01*
X15608044Y30643004D01*
X15608142Y30642382D01*
X15612969Y30636829D01*
X15660052Y30603861D01*
X15667522Y30599549D01*
X15859175Y30510179D01*
X15867268Y30507233D01*
X16071539Y30452499D01*
X16080027Y30451003D01*
X16290691Y30432572D01*
X16299309Y30432572D01*
X16509973Y30451003D01*
X16518461Y30452499D01*
X16722732Y30507233D01*
X16730825Y30510179D01*
X16922478Y30599549D01*
X16929948Y30603861D01*
X16974144Y30634808D01*
X16982170Y30645459D01*
X16982182Y30646091D01*
X16978394Y30652395D01*
X16306086Y31324704D01*
X16294203Y31330758D01*
X16289172Y31329962D01*
X15614098Y30654887D01*
X15608044Y30643004D01*
X9228687Y30643004D01*
X9243719Y30679295D01*
X9281113Y30706464D01*
X9302841Y30715464D01*
X9428282Y30811718D01*
X9524536Y30937159D01*
X9585044Y31083238D01*
X9605682Y31240000D01*
X9585044Y31396762D01*
X9524536Y31542841D01*
X9428282Y31668282D01*
X9393462Y31695000D01*
X12389540Y31695000D01*
X12409326Y31506744D01*
X12410927Y31501817D01*
X12410928Y31501812D01*
X12450521Y31379959D01*
X12467821Y31326716D01*
X12470412Y31322228D01*
X12470413Y31322226D01*
X12550217Y31184001D01*
X12562467Y31162784D01*
X12565939Y31158928D01*
X12685659Y31025965D01*
X12685663Y31025962D01*
X12689129Y31022112D01*
X12842270Y30910849D01*
X12847002Y30908742D01*
X12847004Y30908741D01*
X12996905Y30842000D01*
X13015197Y30833856D01*
X13020267Y30832778D01*
X13020268Y30832778D01*
X13057610Y30824841D01*
X13200354Y30794500D01*
X13389646Y30794500D01*
X13532390Y30824841D01*
X13569732Y30832778D01*
X13569733Y30832778D01*
X13574803Y30833856D01*
X13593095Y30842000D01*
X13742996Y30908741D01*
X13742998Y30908742D01*
X13747730Y30910849D01*
X13900871Y31022112D01*
X13904337Y31025962D01*
X13904341Y31025965D01*
X14024061Y31158928D01*
X14027533Y31162784D01*
X14039783Y31184001D01*
X14119587Y31322226D01*
X14119588Y31322228D01*
X14122179Y31326716D01*
X14139479Y31379959D01*
X14179072Y31501812D01*
X14179073Y31501817D01*
X14180674Y31506744D01*
X14200007Y31690691D01*
X15032572Y31690691D01*
X15051003Y31480027D01*
X15052499Y31471539D01*
X15107233Y31267268D01*
X15110179Y31259175D01*
X15199549Y31067522D01*
X15203861Y31060052D01*
X15234808Y31015856D01*
X15245459Y31007830D01*
X15246091Y31007818D01*
X15252395Y31011606D01*
X15924704Y31683914D01*
X15929946Y31694203D01*
X16659242Y31694203D01*
X16660038Y31689172D01*
X17335113Y31014098D01*
X17346996Y31008044D01*
X17347618Y31008142D01*
X17353171Y31012969D01*
X17386139Y31060052D01*
X17390451Y31067522D01*
X17479821Y31259175D01*
X17482767Y31267268D01*
X17537501Y31471539D01*
X17538997Y31480027D01*
X17557428Y31690691D01*
X17557428Y31699309D01*
X17538997Y31909973D01*
X17537501Y31918461D01*
X17537089Y31920000D01*
X18844867Y31920000D01*
X18863303Y31791774D01*
X18917118Y31673937D01*
X19001951Y31576033D01*
X19110931Y31505996D01*
X19117721Y31504002D01*
X19117724Y31504001D01*
X19199375Y31480027D01*
X19235228Y31469500D01*
X19364772Y31469500D01*
X19400625Y31480027D01*
X19482276Y31504001D01*
X19482279Y31504002D01*
X19489069Y31505996D01*
X19598049Y31576033D01*
X19618816Y31600000D01*
X20574867Y31600000D01*
X20593303Y31471774D01*
X20647118Y31353937D01*
X20651753Y31348588D01*
X20723725Y31265527D01*
X20731951Y31256033D01*
X20840931Y31185996D01*
X20847721Y31184002D01*
X20847724Y31184001D01*
X20933118Y31158928D01*
X20965228Y31149500D01*
X21094772Y31149500D01*
X21126882Y31158928D01*
X21212276Y31184001D01*
X21212279Y31184002D01*
X21219069Y31185996D01*
X21328049Y31256033D01*
X21336276Y31265527D01*
X21408247Y31348588D01*
X21412882Y31353937D01*
X21466697Y31471774D01*
X21485133Y31600000D01*
X21466697Y31728226D01*
X21412882Y31846063D01*
X21328049Y31943967D01*
X21250551Y31993772D01*
X21225026Y32010176D01*
X21225024Y32010177D01*
X21219069Y32014004D01*
X21212279Y32015998D01*
X21212276Y32015999D01*
X21101563Y32048506D01*
X21094772Y32050500D01*
X20965228Y32050500D01*
X20958437Y32048506D01*
X20847724Y32015999D01*
X20847721Y32015998D01*
X20840931Y32014004D01*
X20834976Y32010177D01*
X20834974Y32010176D01*
X20809449Y31993772D01*
X20731951Y31943967D01*
X20647118Y31846063D01*
X20593303Y31728226D01*
X20574867Y31600000D01*
X19618816Y31600000D01*
X19682882Y31673937D01*
X19736697Y31791774D01*
X19755133Y31920000D01*
X19736697Y32048226D01*
X19682882Y32166063D01*
X19598049Y32263967D01*
X19543559Y32298986D01*
X19495026Y32330176D01*
X19495024Y32330177D01*
X19489069Y32334004D01*
X19482279Y32335998D01*
X19482276Y32335999D01*
X19371563Y32368506D01*
X19364772Y32370500D01*
X19235228Y32370500D01*
X19228437Y32368506D01*
X19117724Y32335999D01*
X19117721Y32335998D01*
X19110931Y32334004D01*
X19104976Y32330177D01*
X19104974Y32330176D01*
X19056441Y32298986D01*
X19001951Y32263967D01*
X18917118Y32166063D01*
X18863303Y32048226D01*
X18844867Y31920000D01*
X17537089Y31920000D01*
X17482769Y32122726D01*
X17479820Y32130828D01*
X17390447Y32322486D01*
X17386143Y32329940D01*
X17355192Y32374145D01*
X17344542Y32382170D01*
X17343910Y32382181D01*
X17337604Y32378393D01*
X16665296Y31706086D01*
X16659242Y31694203D01*
X15929946Y31694203D01*
X15930758Y31695797D01*
X15929962Y31700828D01*
X15254887Y32375902D01*
X15243004Y32381956D01*
X15242382Y32381858D01*
X15236829Y32377031D01*
X15203857Y32329940D01*
X15199553Y32322486D01*
X15110180Y32130828D01*
X15107231Y32122726D01*
X15052499Y31918461D01*
X15051003Y31909973D01*
X15032572Y31699309D01*
X15032572Y31690691D01*
X14200007Y31690691D01*
X14200460Y31695000D01*
X14180674Y31883256D01*
X14179073Y31888183D01*
X14179072Y31888188D01*
X14123781Y32058354D01*
X14123780Y32058355D01*
X14122179Y32063284D01*
X14095103Y32110182D01*
X14030126Y32222725D01*
X14030125Y32222726D01*
X14027533Y32227216D01*
X14019044Y32236644D01*
X13904341Y32364035D01*
X13904337Y32364038D01*
X13900871Y32367888D01*
X13747730Y32479151D01*
X13742998Y32481258D01*
X13742996Y32481259D01*
X13579540Y32554035D01*
X13579539Y32554035D01*
X13574803Y32556144D01*
X13569733Y32557222D01*
X13569732Y32557222D01*
X13528782Y32565926D01*
X13389646Y32595500D01*
X13200354Y32595500D01*
X13061218Y32565926D01*
X13020268Y32557222D01*
X13020267Y32557222D01*
X13015197Y32556144D01*
X13010461Y32554035D01*
X13010460Y32554035D01*
X12847004Y32481259D01*
X12847002Y32481258D01*
X12842270Y32479151D01*
X12689129Y32367888D01*
X12685663Y32364038D01*
X12685659Y32364035D01*
X12570956Y32236644D01*
X12562467Y32227216D01*
X12559875Y32222726D01*
X12559874Y32222725D01*
X12494898Y32110182D01*
X12467821Y32063284D01*
X12466220Y32058355D01*
X12466219Y32058354D01*
X12410928Y31888188D01*
X12410927Y31888183D01*
X12409326Y31883256D01*
X12389540Y31695000D01*
X9393462Y31695000D01*
X9302841Y31764536D01*
X9156762Y31825044D01*
X9039361Y31840500D01*
X8460639Y31840500D01*
X8343238Y31825044D01*
X8197159Y31764536D01*
X8071718Y31668282D01*
X7975464Y31542841D01*
X7914956Y31396762D01*
X7894318Y31240000D01*
X7914956Y31083238D01*
X7975464Y30937159D01*
X8071718Y30811718D01*
X8197159Y30715464D01*
X8218887Y30706464D01*
X8265412Y30666727D01*
X8279696Y30607233D01*
X8256281Y30550705D01*
X8218887Y30523536D01*
X8197159Y30514536D01*
X8071718Y30418282D01*
X7975464Y30292841D01*
X7914956Y30146762D01*
X7894318Y29990000D01*
X7914956Y29833238D01*
X7975464Y29687159D01*
X8071718Y29561718D01*
X8197159Y29465464D01*
X8218887Y29456464D01*
X8265412Y29416727D01*
X8279696Y29357233D01*
X8256281Y29300705D01*
X8218887Y29273536D01*
X8197159Y29264536D01*
X8071718Y29168282D01*
X7975464Y29042841D01*
X7914956Y28896762D01*
X7894318Y28740000D01*
X7914956Y28583238D01*
X7975464Y28437159D01*
X8071718Y28311718D01*
X8197159Y28215464D01*
X8218887Y28206464D01*
X8265412Y28166727D01*
X8279696Y28107233D01*
X8256281Y28050705D01*
X8218887Y28023536D01*
X8197159Y28014536D01*
X8071718Y27918282D01*
X7975464Y27792841D01*
X7914956Y27646762D01*
X7894318Y27490000D01*
X7914956Y27333238D01*
X7917440Y27327241D01*
X7958277Y27228652D01*
X7963078Y27167655D01*
X7931108Y27115486D01*
X7918786Y27106505D01*
X7822175Y27046915D01*
X7813197Y27039816D01*
X7700184Y26926803D01*
X7693082Y26917821D01*
X7609182Y26781798D01*
X7604339Y26771412D01*
X7553957Y26619368D01*
X7551706Y26608854D01*
X7542258Y26516365D01*
X7542000Y26511314D01*
X7542000Y26509680D01*
X3440646Y26509680D01*
X3457061Y26545624D01*
X3475497Y26673850D01*
X3457061Y26802076D01*
X3403246Y26919913D01*
X3355395Y26975137D01*
X3323048Y27012468D01*
X3323047Y27012468D01*
X3318413Y27017817D01*
X3231042Y27073967D01*
X3215390Y27084026D01*
X3215388Y27084027D01*
X3209433Y27087854D01*
X3202643Y27089848D01*
X3202640Y27089849D01*
X3091927Y27122356D01*
X3085136Y27124350D01*
X2955592Y27124350D01*
X2948801Y27122356D01*
X2838088Y27089849D01*
X2838085Y27089848D01*
X2831295Y27087854D01*
X2825340Y27084027D01*
X2825338Y27084026D01*
X2809686Y27073967D01*
X2722315Y27017817D01*
X2717681Y27012468D01*
X2717680Y27012468D01*
X2685333Y26975137D01*
X2637482Y26919913D01*
X2583667Y26802076D01*
X2565231Y26673850D01*
X1769553Y26673850D01*
X1261185Y27182217D01*
X1233408Y27236734D01*
X1232189Y27252221D01*
X1232189Y28512800D01*
X1684245Y28512800D01*
X1702681Y28384574D01*
X1756496Y28266737D01*
X1841329Y28168833D01*
X1847286Y28165005D01*
X1937181Y28107233D01*
X1950309Y28098796D01*
X1957099Y28096802D01*
X1957102Y28096801D01*
X2060539Y28066430D01*
X2074606Y28062300D01*
X2204150Y28062300D01*
X2218217Y28066430D01*
X2321654Y28096801D01*
X2321657Y28096802D01*
X2328447Y28098796D01*
X2341576Y28107233D01*
X2431470Y28165005D01*
X2437427Y28168833D01*
X2522260Y28266737D01*
X2576075Y28384574D01*
X2594511Y28512800D01*
X2576075Y28641026D01*
X2522260Y28758863D01*
X2437427Y28856767D01*
X2369764Y28900252D01*
X2338411Y28938594D01*
X2324350Y28933406D01*
X2292568Y28937339D01*
X2210941Y28961306D01*
X2204150Y28963300D01*
X2074606Y28963300D01*
X2067811Y28961305D01*
X2061017Y28960328D01*
X2000728Y28970761D01*
X1970936Y29001415D01*
X1973979Y28989068D01*
X1950906Y28932400D01*
X1928765Y28912958D01*
X1841329Y28856767D01*
X1756496Y28758863D01*
X1702681Y28641026D01*
X1684245Y28512800D01*
X1232189Y28512800D01*
X1232189Y29078414D01*
X1251096Y29136605D01*
X1300596Y29172569D01*
X1361782Y29172569D01*
X1377196Y29166075D01*
X1397820Y29155250D01*
X1470532Y29117087D01*
X1470534Y29117086D01*
X1475835Y29114304D01*
X1481647Y29112871D01*
X1481651Y29112870D01*
X1623399Y29077933D01*
X1623403Y29077933D01*
X1629215Y29076500D01*
X1787185Y29076500D01*
X1851549Y29092364D01*
X1912572Y29087931D01*
X1952375Y29054349D01*
X1949377Y29075200D01*
X1977929Y29129315D01*
X2000918Y29145980D01*
X2010890Y29151214D01*
X2080440Y29187717D01*
X2084927Y29191692D01*
X2165695Y29263244D01*
X2221789Y29287679D01*
X2281533Y29274476D01*
X2322106Y29228677D01*
X2328441Y29208455D01*
X2336433Y29168278D01*
X2341849Y29160173D01*
X2341849Y29160172D01*
X2357596Y29136605D01*
X2369696Y29118496D01*
X2377806Y29113077D01*
X2384699Y29106184D01*
X2383262Y29104747D01*
X2404831Y29077389D01*
X2417635Y29082374D01*
X2442601Y29080633D01*
X2451616Y29078840D01*
X2463380Y29076500D01*
X3493020Y29076500D01*
X3497778Y29077447D01*
X3497783Y29077447D01*
X3527361Y29083331D01*
X3527362Y29083331D01*
X3536922Y29085233D01*
X3547595Y29092364D01*
X3578594Y29113077D01*
X3586704Y29118496D01*
X3598804Y29136605D01*
X3614551Y29160172D01*
X3614551Y29160173D01*
X3619967Y29168278D01*
X3622671Y29181871D01*
X3627753Y29207417D01*
X3627753Y29207422D01*
X3628700Y29212180D01*
X3628700Y30180036D01*
X3647607Y30238227D01*
X3664895Y30256564D01*
X3690648Y30277699D01*
X3697501Y30284552D01*
X3817293Y30430519D01*
X3822668Y30438564D01*
X3911683Y30605099D01*
X3915387Y30614041D01*
X3949955Y30727995D01*
X3949725Y30739733D01*
X3939324Y30743000D01*
X2823200Y30743000D01*
X2765009Y30761907D01*
X2729045Y30811407D01*
X2724200Y30842000D01*
X2724200Y31152000D01*
X2743107Y31210191D01*
X2792607Y31246155D01*
X2823200Y31251000D01*
X3938827Y31251000D01*
X3949993Y31254628D01*
X3950100Y31265527D01*
X3915387Y31379959D01*
X3911683Y31388901D01*
X3822668Y31555436D01*
X3817293Y31563481D01*
X3697501Y31709448D01*
X3690648Y31716301D01*
X3568182Y31816806D01*
X3535195Y31868337D01*
X3538797Y31929416D01*
X3549511Y31949569D01*
X3558420Y31962477D01*
X3588280Y32041212D01*
X3612314Y32104583D01*
X3612315Y32104586D01*
X3614437Y32110182D01*
X3633478Y32267000D01*
X3614437Y32423818D01*
X3599582Y32462989D01*
X3596923Y32470000D01*
X10011367Y32470000D01*
X10029803Y32341774D01*
X10083618Y32223937D01*
X10088253Y32218588D01*
X10158200Y32137864D01*
X10168451Y32126033D01*
X10201828Y32104583D01*
X10271142Y32060038D01*
X10277431Y32055996D01*
X10284221Y32054002D01*
X10284224Y32054001D01*
X10387661Y32023630D01*
X10401728Y32019500D01*
X10531272Y32019500D01*
X10545339Y32023630D01*
X10648776Y32054001D01*
X10648779Y32054002D01*
X10655569Y32055996D01*
X10661859Y32060038D01*
X10731172Y32104583D01*
X10764549Y32126033D01*
X10766748Y32128571D01*
X10821527Y32151722D01*
X10881122Y32137864D01*
X10892129Y32129867D01*
X10895451Y32126033D01*
X10928828Y32104583D01*
X10998142Y32060038D01*
X11004431Y32055996D01*
X11011221Y32054002D01*
X11011224Y32054001D01*
X11114661Y32023630D01*
X11128728Y32019500D01*
X11258272Y32019500D01*
X11272339Y32023630D01*
X11375776Y32054001D01*
X11375779Y32054002D01*
X11382569Y32055996D01*
X11388859Y32060038D01*
X11458172Y32104583D01*
X11491549Y32126033D01*
X11501801Y32137864D01*
X11571747Y32218588D01*
X11576382Y32223937D01*
X11630197Y32341774D01*
X11648633Y32470000D01*
X11630197Y32598226D01*
X11576382Y32716063D01*
X11552253Y32743910D01*
X15607819Y32743910D01*
X15611607Y32737604D01*
X16283914Y32065296D01*
X16295797Y32059242D01*
X16300828Y32060038D01*
X16975902Y32735113D01*
X16981956Y32746996D01*
X16981858Y32747618D01*
X16977031Y32753171D01*
X16929948Y32786139D01*
X16922478Y32790451D01*
X16730825Y32879821D01*
X16722732Y32882767D01*
X16518461Y32937501D01*
X16509973Y32938997D01*
X16299309Y32957428D01*
X16290691Y32957428D01*
X16080027Y32938997D01*
X16071539Y32937501D01*
X15867274Y32882769D01*
X15859172Y32879820D01*
X15667514Y32790447D01*
X15660060Y32786143D01*
X15615855Y32755192D01*
X15607830Y32744542D01*
X15607819Y32743910D01*
X11552253Y32743910D01*
X11511925Y32790451D01*
X11496184Y32808618D01*
X11496183Y32808618D01*
X11491549Y32813967D01*
X11393603Y32876913D01*
X11388526Y32880176D01*
X11388524Y32880177D01*
X11382569Y32884004D01*
X11375779Y32885998D01*
X11375776Y32885999D01*
X11265063Y32918506D01*
X11258272Y32920500D01*
X11128728Y32920500D01*
X11121937Y32918506D01*
X11011224Y32885999D01*
X11011221Y32885998D01*
X11004431Y32884004D01*
X10998476Y32880177D01*
X10998474Y32880176D01*
X10993397Y32876913D01*
X10895451Y32813967D01*
X10893252Y32811429D01*
X10838473Y32788278D01*
X10778878Y32802136D01*
X10767871Y32810133D01*
X10764549Y32813967D01*
X10666603Y32876913D01*
X10661526Y32880176D01*
X10661524Y32880177D01*
X10655569Y32884004D01*
X10648779Y32885998D01*
X10648776Y32885999D01*
X10538063Y32918506D01*
X10531272Y32920500D01*
X10401728Y32920500D01*
X10394937Y32918506D01*
X10284224Y32885999D01*
X10284221Y32885998D01*
X10277431Y32884004D01*
X10271476Y32880177D01*
X10271474Y32880176D01*
X10266397Y32876913D01*
X10168451Y32813967D01*
X10163817Y32808618D01*
X10163816Y32808618D01*
X10148075Y32790451D01*
X10083618Y32716063D01*
X10029803Y32598226D01*
X10011367Y32470000D01*
X3596923Y32470000D01*
X3560543Y32565926D01*
X3560542Y32565928D01*
X3558420Y32571523D01*
X3468683Y32701530D01*
X3408110Y32755192D01*
X3354923Y32802312D01*
X3354920Y32802314D01*
X3350440Y32806283D01*
X3345141Y32809064D01*
X3345137Y32809067D01*
X3215868Y32876913D01*
X3215866Y32876914D01*
X3210565Y32879696D01*
X3204753Y32881129D01*
X3204749Y32881130D01*
X3063001Y32916067D01*
X3062997Y32916067D01*
X3057185Y32917500D01*
X2899215Y32917500D01*
X2893403Y32916067D01*
X2893399Y32916067D01*
X2751651Y32881130D01*
X2751647Y32881129D01*
X2745835Y32879696D01*
X2740534Y32876914D01*
X2740532Y32876913D01*
X2611263Y32809067D01*
X2611259Y32809064D01*
X2605960Y32806283D01*
X2601480Y32802314D01*
X2601477Y32802312D01*
X2548290Y32755192D01*
X2487717Y32701530D01*
X2484315Y32696601D01*
X2424676Y32610199D01*
X2376059Y32573049D01*
X2314892Y32571571D01*
X2261724Y32610199D01*
X2202085Y32696601D01*
X2198683Y32701530D01*
X2138110Y32755192D01*
X2084923Y32802312D01*
X2084920Y32802314D01*
X2080440Y32806283D01*
X2075141Y32809064D01*
X2075137Y32809067D01*
X1945868Y32876913D01*
X1945866Y32876914D01*
X1940565Y32879696D01*
X1934753Y32881129D01*
X1934749Y32881130D01*
X1793001Y32916067D01*
X1792997Y32916067D01*
X1787185Y32917500D01*
X1629215Y32917500D01*
X1623403Y32916067D01*
X1623399Y32916067D01*
X1481651Y32881130D01*
X1481647Y32881129D01*
X1475835Y32879696D01*
X1470534Y32876914D01*
X1470532Y32876913D01*
X1341263Y32809067D01*
X1341259Y32809064D01*
X1335960Y32806283D01*
X1331480Y32802314D01*
X1331477Y32802312D01*
X1278290Y32755192D01*
X1217717Y32701530D01*
X1127980Y32571523D01*
X1125858Y32565928D01*
X1125857Y32565926D01*
X1086819Y32462989D01*
X1071963Y32423818D01*
X1052922Y32267000D01*
X1071963Y32110182D01*
X1092935Y32054884D01*
X1095892Y31993772D01*
X1070373Y31949775D01*
X851213Y31730615D01*
X847453Y31727048D01*
X817987Y31700517D01*
X813755Y31691011D01*
X813754Y31691010D01*
X808814Y31679914D01*
X801402Y31666262D01*
X794784Y31656072D01*
X794783Y31656069D01*
X789118Y31647346D01*
X787490Y31637069D01*
X784660Y31629695D01*
X783020Y31621980D01*
X778789Y31612476D01*
X778789Y31589921D01*
X777570Y31574434D01*
X775669Y31562435D01*
X775669Y31562433D01*
X774042Y31552159D01*
X400500Y31552159D01*
X400500Y33702081D01*
X3067120Y33702081D01*
X3067509Y33699621D01*
X3070174Y33696330D01*
X3315482Y33497683D01*
X3319682Y33494631D01*
X3641277Y33285785D01*
X3645763Y33283195D01*
X3987446Y33109099D01*
X3992166Y33106997D01*
X4350175Y32969571D01*
X4355093Y32967973D01*
X4725496Y32868723D01*
X4730575Y32867644D01*
X5109311Y32807658D01*
X5114473Y32807116D01*
X5497405Y32787047D01*
X5502595Y32787047D01*
X5885527Y32807116D01*
X5890689Y32807658D01*
X6269425Y32867644D01*
X6274504Y32868723D01*
X6644907Y32967973D01*
X6649825Y32969571D01*
X7007834Y33106997D01*
X7012554Y33109099D01*
X7354237Y33283195D01*
X7358723Y33285785D01*
X7680318Y33494631D01*
X7684518Y33497683D01*
X7925726Y33693010D01*
X7932991Y33704197D01*
X7932861Y33706685D01*
X7930556Y33710234D01*
X5511086Y36129704D01*
X5499203Y36135758D01*
X5494172Y36134962D01*
X3073174Y33713964D01*
X3067120Y33702081D01*
X400500Y33702081D01*
X400500Y36497405D01*
X1787047Y36497405D01*
X1807116Y36114473D01*
X1807658Y36109311D01*
X1867644Y35730575D01*
X1868723Y35725496D01*
X1967973Y35355093D01*
X1969571Y35350175D01*
X2106997Y34992166D01*
X2109099Y34987446D01*
X2283195Y34645763D01*
X2285785Y34641277D01*
X2494631Y34319682D01*
X2497683Y34315482D01*
X2693010Y34074274D01*
X2704197Y34067009D01*
X2706685Y34067139D01*
X2710234Y34069444D01*
X5129704Y36488914D01*
X5134946Y36499203D01*
X5864242Y36499203D01*
X5865038Y36494172D01*
X8286036Y34073174D01*
X8297919Y34067120D01*
X8300379Y34067509D01*
X8303670Y34070174D01*
X8379230Y34163482D01*
X12394500Y34163482D01*
X12409354Y34069697D01*
X12412890Y34062757D01*
X12454473Y33981146D01*
X12466950Y33956658D01*
X12556658Y33866950D01*
X12563595Y33863415D01*
X12563597Y33863414D01*
X12658816Y33814898D01*
X12669697Y33809354D01*
X12677391Y33808135D01*
X12677392Y33808135D01*
X12759636Y33795109D01*
X12759638Y33795109D01*
X12763482Y33794500D01*
X13826518Y33794500D01*
X13830362Y33795109D01*
X13830364Y33795109D01*
X13912608Y33808135D01*
X13912609Y33808135D01*
X13920303Y33809354D01*
X13931184Y33814898D01*
X14026403Y33863414D01*
X14026405Y33863415D01*
X14033342Y33866950D01*
X14123050Y33956658D01*
X14135528Y33981146D01*
X14177110Y34062757D01*
X14180646Y34069697D01*
X14195500Y34163482D01*
X14195500Y34695000D01*
X15339901Y34695000D01*
X15358253Y34508669D01*
X15412604Y34329499D01*
X15500864Y34164375D01*
X15503946Y34160620D01*
X15503947Y34160618D01*
X15584260Y34062757D01*
X15619643Y34019643D01*
X15623407Y34016554D01*
X15666552Y33981146D01*
X15764375Y33900864D01*
X15768663Y33898572D01*
X15834440Y33863414D01*
X15929499Y33812604D01*
X15934153Y33811192D01*
X15934156Y33811191D01*
X16104013Y33759665D01*
X16104017Y33759664D01*
X16108669Y33758253D01*
X16295000Y33739901D01*
X16299843Y33740378D01*
X16476488Y33757776D01*
X16481331Y33758253D01*
X16485983Y33759664D01*
X16485987Y33759665D01*
X16655844Y33811191D01*
X16655847Y33811192D01*
X16660501Y33812604D01*
X16755561Y33863414D01*
X16821337Y33898572D01*
X16825625Y33900864D01*
X16923449Y33981146D01*
X16966593Y34016554D01*
X16970357Y34019643D01*
X17005740Y34062757D01*
X17086053Y34160618D01*
X17086054Y34160620D01*
X17089136Y34164375D01*
X17177396Y34329499D01*
X17231747Y34508669D01*
X17250099Y34695000D01*
X17231747Y34881331D01*
X17198126Y34992166D01*
X17178809Y35055844D01*
X17178808Y35055847D01*
X17177396Y35060501D01*
X17089136Y35225625D01*
X17065633Y35254264D01*
X16973446Y35366593D01*
X16970357Y35370357D01*
X16918540Y35412882D01*
X16829382Y35486053D01*
X16829380Y35486054D01*
X16825625Y35489136D01*
X16755611Y35526559D01*
X16664793Y35575102D01*
X16664792Y35575102D01*
X16660501Y35577396D01*
X16655847Y35578808D01*
X16655844Y35578809D01*
X16485987Y35630335D01*
X16485983Y35630336D01*
X16481331Y35631747D01*
X16295000Y35650099D01*
X16108669Y35631747D01*
X16104017Y35630336D01*
X16104013Y35630335D01*
X15934156Y35578809D01*
X15934153Y35578808D01*
X15929499Y35577396D01*
X15925208Y35575102D01*
X15925207Y35575102D01*
X15834389Y35526559D01*
X15764375Y35489136D01*
X15760620Y35486054D01*
X15760618Y35486053D01*
X15671460Y35412882D01*
X15619643Y35370357D01*
X15616554Y35366593D01*
X15524368Y35254264D01*
X15500864Y35225625D01*
X15412604Y35060501D01*
X15411192Y35055847D01*
X15411191Y35055844D01*
X15391875Y34992166D01*
X15358253Y34881331D01*
X15339901Y34695000D01*
X14195500Y34695000D01*
X14195500Y35226518D01*
X14191472Y35251950D01*
X14181865Y35312608D01*
X14181865Y35312609D01*
X14180646Y35320303D01*
X14157060Y35366593D01*
X14126586Y35426403D01*
X14126585Y35426405D01*
X14123050Y35433342D01*
X14033342Y35523050D01*
X14026405Y35526585D01*
X14026403Y35526586D01*
X13927243Y35577110D01*
X13920303Y35580646D01*
X13912609Y35581865D01*
X13912608Y35581865D01*
X13830364Y35594891D01*
X13830362Y35594891D01*
X13826518Y35595500D01*
X12763482Y35595500D01*
X12759638Y35594891D01*
X12759636Y35594891D01*
X12677392Y35581865D01*
X12677391Y35581865D01*
X12669697Y35580646D01*
X12662757Y35577110D01*
X12563597Y35526586D01*
X12563595Y35526585D01*
X12556658Y35523050D01*
X12466950Y35433342D01*
X12463415Y35426405D01*
X12463414Y35426403D01*
X12432940Y35366593D01*
X12409354Y35320303D01*
X12408135Y35312609D01*
X12408135Y35312608D01*
X12398528Y35251950D01*
X12394500Y35226518D01*
X12394500Y34163482D01*
X8379230Y34163482D01*
X8502317Y34315482D01*
X8505369Y34319682D01*
X8714215Y34641277D01*
X8716805Y34645763D01*
X8890901Y34987446D01*
X8893003Y34992166D01*
X9030429Y35350175D01*
X9032027Y35355093D01*
X9131277Y35725496D01*
X9132356Y35730575D01*
X9192342Y36109311D01*
X9192884Y36114473D01*
X9212953Y36497405D01*
X32787047Y36497405D01*
X32807116Y36114473D01*
X32807658Y36109311D01*
X32867644Y35730575D01*
X32868723Y35725496D01*
X32967973Y35355093D01*
X32969571Y35350175D01*
X33106997Y34992166D01*
X33109099Y34987446D01*
X33283195Y34645763D01*
X33285785Y34641277D01*
X33494631Y34319682D01*
X33497683Y34315482D01*
X33693010Y34074274D01*
X33704197Y34067009D01*
X33706685Y34067139D01*
X33710234Y34069444D01*
X36129704Y36488914D01*
X36134946Y36499203D01*
X36864242Y36499203D01*
X36865038Y36494172D01*
X39286036Y34073174D01*
X39297919Y34067120D01*
X39300379Y34067509D01*
X39303670Y34070174D01*
X39502317Y34315482D01*
X39505369Y34319682D01*
X39714215Y34641277D01*
X39716805Y34645763D01*
X39890901Y34987446D01*
X39893003Y34992166D01*
X40030429Y35350175D01*
X40032027Y35355093D01*
X40131277Y35725496D01*
X40132356Y35730575D01*
X40192342Y36109311D01*
X40192884Y36114473D01*
X40212953Y36497405D01*
X40212953Y36502595D01*
X40192884Y36885527D01*
X40192342Y36890689D01*
X40132356Y37269425D01*
X40131277Y37274504D01*
X40032027Y37644907D01*
X40030429Y37649825D01*
X39893003Y38007834D01*
X39890901Y38012554D01*
X39716805Y38354236D01*
X39714215Y38358722D01*
X39505369Y38680318D01*
X39502317Y38684518D01*
X39306990Y38925726D01*
X39295803Y38932991D01*
X39293315Y38932861D01*
X39289766Y38930556D01*
X36870296Y36511086D01*
X36864242Y36499203D01*
X36134946Y36499203D01*
X36135758Y36500797D01*
X36134962Y36505828D01*
X33713964Y38926826D01*
X33702081Y38932880D01*
X33699621Y38932491D01*
X33696330Y38929826D01*
X33497683Y38684518D01*
X33494631Y38680318D01*
X33285785Y38358722D01*
X33283195Y38354236D01*
X33109099Y38012554D01*
X33106997Y38007834D01*
X32969571Y37649825D01*
X32967973Y37644907D01*
X32868723Y37274504D01*
X32867644Y37269425D01*
X32807658Y36890689D01*
X32807116Y36885527D01*
X32787047Y36502595D01*
X32787047Y36497405D01*
X9212953Y36497405D01*
X9212953Y36502595D01*
X9192884Y36885527D01*
X9192342Y36890689D01*
X9132356Y37269425D01*
X9131277Y37274504D01*
X9032027Y37644907D01*
X9030429Y37649825D01*
X8893003Y38007834D01*
X8890901Y38012554D01*
X8716805Y38354236D01*
X8714215Y38358722D01*
X8505369Y38680318D01*
X8502317Y38684518D01*
X8341169Y38883518D01*
X13040500Y38883518D01*
X13041052Y38879858D01*
X13041052Y38879853D01*
X13070494Y38684518D01*
X13079692Y38623492D01*
X13157202Y38372212D01*
X13158804Y38368885D01*
X13158805Y38368883D01*
X13267286Y38143622D01*
X13271298Y38135290D01*
X13419430Y37918020D01*
X13598290Y37725254D01*
X13601183Y37722947D01*
X13799936Y37564447D01*
X13803883Y37561299D01*
X13807086Y37559450D01*
X13807090Y37559447D01*
X14019743Y37436672D01*
X14031616Y37429817D01*
X14276402Y37333746D01*
X14280001Y37332925D01*
X14280006Y37332923D01*
X14470671Y37289405D01*
X14532772Y37275231D01*
X14610249Y37269425D01*
X14727487Y37260639D01*
X14727495Y37260639D01*
X14729346Y37260500D01*
X14860654Y37260500D01*
X14862505Y37260639D01*
X14862513Y37260639D01*
X14979751Y37269425D01*
X15057228Y37275231D01*
X15119329Y37289405D01*
X15309994Y37332923D01*
X15309999Y37332925D01*
X15313598Y37333746D01*
X15558384Y37429817D01*
X15570257Y37436672D01*
X15782910Y37559447D01*
X15782914Y37559450D01*
X15786117Y37561299D01*
X15790065Y37564447D01*
X15988817Y37722947D01*
X15991710Y37725254D01*
X16170570Y37918020D01*
X16318702Y38135290D01*
X16322715Y38143622D01*
X16431195Y38368883D01*
X16431196Y38368885D01*
X16432798Y38372212D01*
X16510308Y38623492D01*
X16519506Y38684518D01*
X16548948Y38879853D01*
X16548948Y38879858D01*
X16549500Y38883518D01*
X16549500Y38888518D01*
X26945500Y38888518D01*
X26946052Y38884858D01*
X26946052Y38884853D01*
X26976881Y38680318D01*
X26984692Y38628492D01*
X26985783Y38624954D01*
X26985784Y38624951D01*
X27030792Y38479040D01*
X27062202Y38377212D01*
X27176298Y38140290D01*
X27324430Y37923020D01*
X27503290Y37730254D01*
X27708883Y37566299D01*
X27712086Y37564450D01*
X27712090Y37564447D01*
X27933403Y37436672D01*
X27936616Y37434817D01*
X27940061Y37433465D01*
X27940063Y37433464D01*
X27952803Y37428464D01*
X28181402Y37338746D01*
X28185001Y37337925D01*
X28185006Y37337923D01*
X28375671Y37294405D01*
X28437772Y37280231D01*
X28515827Y37274382D01*
X28632487Y37265639D01*
X28632495Y37265639D01*
X28634346Y37265500D01*
X28765654Y37265500D01*
X28767505Y37265639D01*
X28767513Y37265639D01*
X28884173Y37274382D01*
X28962228Y37280231D01*
X29024329Y37294405D01*
X29214994Y37337923D01*
X29214999Y37337925D01*
X29218598Y37338746D01*
X29447197Y37428464D01*
X29459937Y37433464D01*
X29459939Y37433465D01*
X29463384Y37434817D01*
X29466597Y37436672D01*
X29687910Y37564447D01*
X29687914Y37564450D01*
X29691117Y37566299D01*
X29896710Y37730254D01*
X30075570Y37923020D01*
X30223702Y38140290D01*
X30337798Y38377212D01*
X30369208Y38479040D01*
X30414216Y38624951D01*
X30414217Y38624954D01*
X30415308Y38628492D01*
X30423119Y38680318D01*
X30453948Y38884853D01*
X30453948Y38884858D01*
X30454500Y38888518D01*
X30454500Y39151482D01*
X30439652Y39250000D01*
X31244353Y39250000D01*
X31264835Y39107543D01*
X31324623Y38976627D01*
X31329264Y38971271D01*
X31405302Y38883518D01*
X31418872Y38867857D01*
X31479410Y38828952D01*
X31533990Y38793875D01*
X31533992Y38793874D01*
X31539947Y38790047D01*
X31546737Y38788053D01*
X31546740Y38788052D01*
X31669608Y38751975D01*
X31678039Y38749500D01*
X31821961Y38749500D01*
X31830392Y38751975D01*
X31953260Y38788052D01*
X31953263Y38788053D01*
X31960053Y38790047D01*
X31966008Y38793874D01*
X31966010Y38793875D01*
X32020591Y38828952D01*
X32081128Y38867857D01*
X32094699Y38883518D01*
X32170736Y38971271D01*
X32175377Y38976627D01*
X32235165Y39107543D01*
X32255647Y39250000D01*
X32249062Y39295803D01*
X34067009Y39295803D01*
X34067139Y39293315D01*
X34069444Y39289766D01*
X36488914Y36870296D01*
X36500797Y36864242D01*
X36505828Y36865038D01*
X38926826Y39286036D01*
X38932880Y39297919D01*
X38932491Y39300379D01*
X38929826Y39303670D01*
X38684518Y39502317D01*
X38680318Y39505369D01*
X38358723Y39714215D01*
X38354237Y39716805D01*
X38012554Y39890901D01*
X38007834Y39893003D01*
X37649825Y40030429D01*
X37644907Y40032027D01*
X37420907Y40092048D01*
X37369592Y40125372D01*
X37347666Y40182494D01*
X37363502Y40241594D01*
X37411052Y40280099D01*
X37418633Y40282663D01*
X37432685Y40286789D01*
X37456060Y40293652D01*
X37456063Y40293653D01*
X37462853Y40295647D01*
X37468808Y40299474D01*
X37468810Y40299475D01*
X37523391Y40334552D01*
X37583928Y40373457D01*
X37600392Y40392457D01*
X37666457Y40468701D01*
X37678177Y40482227D01*
X37737965Y40613143D01*
X37758447Y40755600D01*
X37737965Y40898057D01*
X37678177Y41028973D01*
X37583928Y41137743D01*
X37523391Y41176648D01*
X37468810Y41211725D01*
X37468808Y41211726D01*
X37462853Y41215553D01*
X37456063Y41217547D01*
X37456060Y41217548D01*
X37331552Y41254106D01*
X37324761Y41256100D01*
X37180839Y41256100D01*
X37174048Y41254106D01*
X37049540Y41217548D01*
X37049537Y41217547D01*
X37042747Y41215553D01*
X37036792Y41211726D01*
X37036790Y41211725D01*
X36982209Y41176648D01*
X36921672Y41137743D01*
X36827423Y41028973D01*
X36767635Y40898057D01*
X36747153Y40755600D01*
X36767635Y40613143D01*
X36827423Y40482227D01*
X36921672Y40373457D01*
X36927634Y40369625D01*
X36929593Y40367928D01*
X36961189Y40315532D01*
X36955954Y40254571D01*
X36915886Y40208330D01*
X36859581Y40194244D01*
X36502595Y40212953D01*
X36497405Y40212953D01*
X36114473Y40192884D01*
X36109311Y40192342D01*
X35730575Y40132356D01*
X35725496Y40131277D01*
X35355093Y40032027D01*
X35350175Y40030429D01*
X34992166Y39893003D01*
X34987446Y39890901D01*
X34645764Y39716805D01*
X34641278Y39714215D01*
X34319682Y39505369D01*
X34315482Y39502317D01*
X34074274Y39306990D01*
X34067009Y39295803D01*
X32249062Y39295803D01*
X32235165Y39392457D01*
X32175377Y39523373D01*
X32081128Y39632143D01*
X32020590Y39671048D01*
X31966010Y39706125D01*
X31966008Y39706126D01*
X31960053Y39709953D01*
X31953263Y39711947D01*
X31953260Y39711948D01*
X31828752Y39748506D01*
X31821961Y39750500D01*
X31678039Y39750500D01*
X31671248Y39748506D01*
X31546740Y39711948D01*
X31546737Y39711947D01*
X31539947Y39709953D01*
X31533992Y39706126D01*
X31533990Y39706125D01*
X31479410Y39671048D01*
X31418872Y39632143D01*
X31324623Y39523373D01*
X31264835Y39392457D01*
X31244353Y39250000D01*
X30439652Y39250000D01*
X30438595Y39257011D01*
X30415861Y39407839D01*
X30415308Y39411508D01*
X30337798Y39662788D01*
X30316928Y39706125D01*
X30225307Y39896378D01*
X30225305Y39896382D01*
X30223702Y39899710D01*
X30075570Y40116980D01*
X29896710Y40309746D01*
X29697387Y40468701D01*
X29694010Y40471394D01*
X29694009Y40471395D01*
X29691117Y40473701D01*
X29687914Y40475550D01*
X29687910Y40475553D01*
X29466597Y40603328D01*
X29463384Y40605183D01*
X29459527Y40606697D01*
X29377433Y40638916D01*
X29218598Y40701254D01*
X29214999Y40702075D01*
X29214994Y40702077D01*
X29011574Y40748506D01*
X28962228Y40759769D01*
X28884173Y40765618D01*
X28767513Y40774361D01*
X28767505Y40774361D01*
X28765654Y40774500D01*
X28634346Y40774500D01*
X28632495Y40774361D01*
X28632487Y40774361D01*
X28515827Y40765618D01*
X28437772Y40759769D01*
X28388426Y40748506D01*
X28185006Y40702077D01*
X28185001Y40702075D01*
X28181402Y40701254D01*
X28022567Y40638916D01*
X27940474Y40606697D01*
X27936616Y40605183D01*
X27933403Y40603328D01*
X27712090Y40475553D01*
X27712086Y40475550D01*
X27708883Y40473701D01*
X27705991Y40471395D01*
X27705990Y40471394D01*
X27702613Y40468701D01*
X27503290Y40309746D01*
X27324430Y40116980D01*
X27176298Y39899710D01*
X27174695Y39896382D01*
X27174693Y39896378D01*
X27083072Y39706125D01*
X27062202Y39662788D01*
X26984692Y39411508D01*
X26984139Y39407839D01*
X26961406Y39257011D01*
X26945500Y39151482D01*
X26945500Y38888518D01*
X16549500Y38888518D01*
X16549500Y39146482D01*
X16548747Y39151482D01*
X16510861Y39402839D01*
X16510308Y39406508D01*
X16507674Y39415049D01*
X16433887Y39654257D01*
X16432798Y39657788D01*
X16404377Y39716805D01*
X16320307Y39891378D01*
X16320305Y39891382D01*
X16318702Y39894710D01*
X16170570Y40111980D01*
X16042507Y40250000D01*
X24994353Y40250000D01*
X25014835Y40107543D01*
X25074623Y39976627D01*
X25079264Y39971271D01*
X25144159Y39896378D01*
X25168872Y39867857D01*
X25229409Y39828952D01*
X25283990Y39793875D01*
X25283992Y39793874D01*
X25289947Y39790047D01*
X25296737Y39788053D01*
X25296740Y39788052D01*
X25419608Y39751975D01*
X25428039Y39749500D01*
X25571961Y39749500D01*
X25580392Y39751975D01*
X25703260Y39788052D01*
X25703263Y39788053D01*
X25710053Y39790047D01*
X25716008Y39793874D01*
X25716010Y39793875D01*
X25770591Y39828952D01*
X25831128Y39867857D01*
X25855842Y39896378D01*
X25920736Y39971271D01*
X25925377Y39976627D01*
X25985165Y40107543D01*
X26005647Y40250000D01*
X25985165Y40392457D01*
X25925377Y40523373D01*
X25860429Y40598328D01*
X25835765Y40626792D01*
X25835764Y40626793D01*
X25831128Y40632143D01*
X25731369Y40696254D01*
X25716010Y40706125D01*
X25716008Y40706126D01*
X25710053Y40709953D01*
X25703263Y40711947D01*
X25703260Y40711948D01*
X25578752Y40748506D01*
X25571961Y40750500D01*
X25428039Y40750500D01*
X25421248Y40748506D01*
X25296740Y40711948D01*
X25296737Y40711947D01*
X25289947Y40709953D01*
X25283992Y40706126D01*
X25283990Y40706125D01*
X25268631Y40696254D01*
X25168872Y40632143D01*
X25164236Y40626793D01*
X25164235Y40626792D01*
X25139571Y40598328D01*
X25074623Y40523373D01*
X25014835Y40392457D01*
X24994353Y40250000D01*
X16042507Y40250000D01*
X15991710Y40304746D01*
X15786117Y40468701D01*
X15782914Y40470550D01*
X15782910Y40470553D01*
X15561597Y40598328D01*
X15558384Y40600183D01*
X15545645Y40605183D01*
X15467197Y40635971D01*
X15313598Y40696254D01*
X15309999Y40697075D01*
X15309994Y40697077D01*
X15084304Y40748589D01*
X15057228Y40754769D01*
X14979173Y40760618D01*
X14862513Y40769361D01*
X14862505Y40769361D01*
X14860654Y40769500D01*
X14729346Y40769500D01*
X14727495Y40769361D01*
X14727487Y40769361D01*
X14610827Y40760618D01*
X14532772Y40754769D01*
X14505696Y40748589D01*
X14280006Y40697077D01*
X14280001Y40697075D01*
X14276402Y40696254D01*
X14122803Y40635971D01*
X14044356Y40605183D01*
X14031616Y40600183D01*
X14028403Y40598328D01*
X13807090Y40470553D01*
X13807086Y40470550D01*
X13803883Y40468701D01*
X13598290Y40304746D01*
X13419430Y40111980D01*
X13271298Y39894710D01*
X13269695Y39891382D01*
X13269693Y39891378D01*
X13185623Y39716805D01*
X13157202Y39657788D01*
X13156113Y39654257D01*
X13082327Y39415049D01*
X13079692Y39406508D01*
X13079139Y39402839D01*
X13041254Y39151482D01*
X13040500Y39146482D01*
X13040500Y38883518D01*
X8341169Y38883518D01*
X8306990Y38925726D01*
X8295803Y38932991D01*
X8293315Y38932861D01*
X8289766Y38930556D01*
X5870296Y36511086D01*
X5864242Y36499203D01*
X5134946Y36499203D01*
X5135758Y36500797D01*
X5134962Y36505828D01*
X2713964Y38926826D01*
X2702081Y38932880D01*
X2699621Y38932491D01*
X2696330Y38929826D01*
X2497683Y38684518D01*
X2494631Y38680318D01*
X2285785Y38358722D01*
X2283195Y38354236D01*
X2109099Y38012554D01*
X2106997Y38007834D01*
X1969571Y37649825D01*
X1967973Y37644907D01*
X1868723Y37274504D01*
X1867644Y37269425D01*
X1807658Y36890689D01*
X1807116Y36885527D01*
X1787047Y36502595D01*
X1787047Y36497405D01*
X400500Y36497405D01*
X400500Y37694688D01*
X401069Y37705286D01*
X407369Y37763796D01*
X411880Y37784504D01*
X428801Y37835268D01*
X437615Y37854539D01*
X455728Y37885013D01*
X470823Y37904430D01*
X1862196Y39295803D01*
X3067009Y39295803D01*
X3067139Y39293315D01*
X3069444Y39289766D01*
X5488914Y36870296D01*
X5500797Y36864242D01*
X5505828Y36865038D01*
X7926826Y39286036D01*
X7932880Y39297919D01*
X7932491Y39300379D01*
X7929826Y39303670D01*
X7684518Y39502317D01*
X7680318Y39505369D01*
X7358723Y39714215D01*
X7354237Y39716805D01*
X7012554Y39890901D01*
X7007834Y39893003D01*
X6649825Y40030429D01*
X6644907Y40032027D01*
X6274504Y40131277D01*
X6269425Y40132356D01*
X5890689Y40192342D01*
X5885527Y40192884D01*
X5502595Y40212953D01*
X5497405Y40212953D01*
X5114473Y40192884D01*
X5109311Y40192342D01*
X4730575Y40132356D01*
X4725496Y40131277D01*
X4355093Y40032027D01*
X4350175Y40030429D01*
X3992166Y39893003D01*
X3987446Y39890901D01*
X3645764Y39716805D01*
X3641278Y39714215D01*
X3319682Y39505369D01*
X3315482Y39502317D01*
X3074274Y39306990D01*
X3067009Y39295803D01*
X1862196Y39295803D01*
X4095564Y41529172D01*
X4114988Y41544272D01*
X4145461Y41562383D01*
X4164735Y41571199D01*
X4215496Y41588119D01*
X4236204Y41592630D01*
X4294726Y41598931D01*
X4305324Y41599500D01*
X37693908Y41599500D01*
X37706050Y41598752D01*
G37*
G04 #@! TD.AperFunction*
G04 #@! TA.AperFunction,Conductor*
G36*
X26973138Y35582407D02*
G01*
X26998858Y35537858D01*
X27000000Y35524800D01*
X27000000Y33100000D01*
X30624800Y33100000D01*
X30673138Y33082407D01*
X30698858Y33037858D01*
X30700000Y33024800D01*
X30700000Y29375200D01*
X30682407Y29326862D01*
X30637858Y29301142D01*
X30624800Y29300000D01*
X26262924Y29300000D01*
X26217145Y29315540D01*
X26139396Y29375200D01*
X26102443Y29403555D01*
X26042501Y29428384D01*
X25972108Y29457542D01*
X25972106Y29457543D01*
X25967554Y29459428D01*
X25822800Y29478485D01*
X25678046Y29459428D01*
X25673494Y29457543D01*
X25673492Y29457542D01*
X25576864Y29417517D01*
X25543158Y29403555D01*
X25538377Y29399886D01*
X25537746Y29399687D01*
X25534983Y29398092D01*
X25534629Y29398705D01*
X25489320Y29384420D01*
X25450488Y29398553D01*
X25450221Y29398091D01*
X25447600Y29399604D01*
X25446823Y29399887D01*
X25442043Y29403555D01*
X25382101Y29428384D01*
X25311708Y29457542D01*
X25311706Y29457543D01*
X25307154Y29459428D01*
X25162400Y29478485D01*
X25017646Y29459428D01*
X25013094Y29457543D01*
X25013092Y29457542D01*
X24916464Y29417517D01*
X24882758Y29403555D01*
X24877977Y29399886D01*
X24877346Y29399687D01*
X24874583Y29398092D01*
X24874229Y29398705D01*
X24828920Y29384420D01*
X24790088Y29398553D01*
X24789821Y29398091D01*
X24787200Y29399604D01*
X24786423Y29399887D01*
X24781643Y29403555D01*
X24721701Y29428384D01*
X24651308Y29457542D01*
X24651306Y29457543D01*
X24646754Y29459428D01*
X24502000Y29478485D01*
X24357246Y29459428D01*
X24352694Y29457543D01*
X24352692Y29457542D01*
X24282634Y29428522D01*
X24222358Y29403555D01*
X24110331Y29317593D01*
X24107655Y29315540D01*
X24061876Y29300000D01*
X22175200Y29300000D01*
X22126862Y29317593D01*
X22101142Y29362142D01*
X22100000Y29375200D01*
X22100000Y35524800D01*
X22117593Y35573138D01*
X22162142Y35598858D01*
X22175200Y35600000D01*
X26924800Y35600000D01*
X26973138Y35582407D01*
G37*
G04 #@! TD.AperFunction*
M02*
