G04 #@! TF.GenerationSoftware,KiCad,Pcbnew,5.99.0-unknown-e8102d85dc~128~ubuntu20.04.1*
G04 #@! TF.CreationDate,2021-05-23T19:45:16-07:00*
G04 #@! TF.ProjectId,Huvud,48757675-642e-46b6-9963-61645f706362,rev?*
G04 #@! TF.SameCoordinates,PXad91980PY876bf80*
G04 #@! TF.FileFunction,Copper,L3,Inr*
G04 #@! TF.FilePolarity,Positive*
%FSLAX46Y46*%
G04 Gerber Fmt 4.6, Leading zero omitted, Abs format (unit mm)*
G04 Created by KiCad (PCBNEW 5.99.0-unknown-e8102d85dc~128~ubuntu20.04.1) date 2021-05-23 19:45:16*
%MOMM*%
%LPD*%
G01*
G04 APERTURE LIST*
G04 Aperture macros list*
%AMRoundRect*
0 Rectangle with rounded corners*
0 $1 Rounding radius*
0 $2 $3 $4 $5 $6 $7 $8 $9 X,Y pos of 4 corners*
0 Add a 4 corners polygon primitive as box body*
4,1,4,$2,$3,$4,$5,$6,$7,$8,$9,$2,$3,0*
0 Add four circle primitives for the rounded corners*
1,1,$1+$1,$2,$3*
1,1,$1+$1,$4,$5*
1,1,$1+$1,$6,$7*
1,1,$1+$1,$8,$9*
0 Add four rect primitives between the rounded corners*
20,1,$1+$1,$2,$3,$4,$5,0*
20,1,$1+$1,$4,$5,$6,$7,0*
20,1,$1+$1,$6,$7,$8,$9,0*
20,1,$1+$1,$8,$9,$2,$3,0*%
G04 Aperture macros list end*
G04 #@! TA.AperFunction,ComponentPad*
%ADD10RoundRect,0.250000X0.625000X-0.350000X0.625000X0.350000X-0.625000X0.350000X-0.625000X-0.350000X0*%
G04 #@! TD*
G04 #@! TA.AperFunction,ComponentPad*
%ADD11O,1.750000X1.200000*%
G04 #@! TD*
G04 #@! TA.AperFunction,ComponentPad*
%ADD12C,0.800000*%
G04 #@! TD*
G04 #@! TA.AperFunction,ComponentPad*
%ADD13C,6.400000*%
G04 #@! TD*
G04 #@! TA.AperFunction,ComponentPad*
%ADD14R,1.700000X1.700000*%
G04 #@! TD*
G04 #@! TA.AperFunction,ComponentPad*
%ADD15O,1.700000X1.700000*%
G04 #@! TD*
G04 #@! TA.AperFunction,ComponentPad*
%ADD16R,2.100000X2.100000*%
G04 #@! TD*
G04 #@! TA.AperFunction,ComponentPad*
%ADD17C,2.100000*%
G04 #@! TD*
G04 #@! TA.AperFunction,ComponentPad*
%ADD18RoundRect,0.250000X0.725000X-0.600000X0.725000X0.600000X-0.725000X0.600000X-0.725000X-0.600000X0*%
G04 #@! TD*
G04 #@! TA.AperFunction,ComponentPad*
%ADD19O,1.950000X1.700000*%
G04 #@! TD*
G04 #@! TA.AperFunction,ViaPad*
%ADD20C,0.600000*%
G04 #@! TD*
G04 #@! TA.AperFunction,ViaPad*
%ADD21C,1.000000*%
G04 #@! TD*
G04 #@! TA.AperFunction,Conductor*
%ADD22C,0.200000*%
G04 #@! TD*
G04 #@! TA.AperFunction,Conductor*
%ADD23C,0.250000*%
G04 #@! TD*
G04 #@! TA.AperFunction,Conductor*
%ADD24C,0.400000*%
G04 #@! TD*
G04 #@! TA.AperFunction,Conductor*
%ADD25C,0.300000*%
G04 #@! TD*
G04 #@! TA.AperFunction,Conductor*
%ADD26C,0.800000*%
G04 #@! TD*
G04 APERTURE END LIST*
D10*
X2100000Y11500000D03*
D11*
X2100000Y13500000D03*
X2100000Y15500000D03*
X2100000Y17500000D03*
X2100000Y19500000D03*
D10*
X23250000Y2500000D03*
D11*
X23250000Y4500000D03*
D12*
X36500000Y34100000D03*
X34802944Y38197056D03*
X36500000Y38900000D03*
X34100000Y36500000D03*
X38900000Y36500000D03*
X38197056Y38197056D03*
X34802944Y34802944D03*
D13*
X36500000Y36500000D03*
D12*
X38197056Y34802944D03*
X38197056Y3802944D03*
X36500000Y3100000D03*
X36500000Y7900000D03*
X38197056Y7197056D03*
X38900000Y5500000D03*
X34802944Y3802944D03*
X34802944Y7197056D03*
D13*
X36500000Y5500000D03*
D12*
X34100000Y5500000D03*
D10*
X10850000Y2500000D03*
D11*
X10850000Y4500000D03*
D12*
X3100000Y5500000D03*
X3802944Y3802944D03*
X7900000Y5500000D03*
X5500000Y7900000D03*
D13*
X5500000Y5500000D03*
D12*
X3802944Y7197056D03*
X7197056Y7197056D03*
X5500000Y3100000D03*
X7197056Y3802944D03*
D14*
X4388500Y26024000D03*
D15*
X1848500Y26024000D03*
X4388500Y28564000D03*
X1848500Y28564000D03*
X4388500Y31104000D03*
X1848500Y31104000D03*
D12*
X5500000Y38900000D03*
X7197056Y34802944D03*
X7900000Y36500000D03*
X7197056Y38197056D03*
D13*
X5500000Y36500000D03*
D12*
X3802944Y38197056D03*
X5500000Y34100000D03*
X3802944Y34802944D03*
X3100000Y36500000D03*
D10*
X17050000Y2500000D03*
D11*
X17050000Y4500000D03*
D16*
X28750000Y3750000D03*
D17*
X31290000Y3750000D03*
D18*
X38038500Y12524000D03*
D19*
X38038500Y15024000D03*
X38038500Y17524000D03*
X38038500Y20024000D03*
D16*
X30000000Y38150000D03*
D17*
X27460000Y38150000D03*
D20*
X9250000Y31250000D03*
X12492966Y31507034D03*
X13007034Y30992966D03*
X13007034Y30992966D03*
X12492966Y31507034D03*
X10250000Y23000000D03*
X9416951Y24141267D03*
X8500000Y24183989D03*
X10328795Y23919894D03*
X10015418Y26319492D03*
X13285100Y21747153D03*
X10912552Y18768900D03*
X9400000Y6600000D03*
X13900000Y5900000D03*
X9600000Y11100000D03*
X10400000Y16072990D03*
X13900000Y10150000D03*
X26900000Y17900000D03*
X27900000Y17900000D03*
X28900000Y17900000D03*
X29900000Y17900000D03*
X26900000Y16900000D03*
X27900000Y16900000D03*
X28900000Y16900000D03*
X29900000Y16900000D03*
X26900000Y15900000D03*
X27900000Y15900000D03*
X28900000Y15900000D03*
X29900000Y15900000D03*
X27900000Y14900000D03*
X28900000Y14900000D03*
X29900000Y14900000D03*
X1100000Y21200000D03*
X26900000Y14900000D03*
X35200000Y10800000D03*
X5500000Y1000000D03*
X8300000Y33900000D03*
X8424279Y26531407D03*
X17500000Y25600000D03*
X10100000Y27900000D03*
X1100000Y36500000D03*
X22177010Y25600000D03*
X23350000Y11250000D03*
X14000000Y1000000D03*
X18100000Y36700000D03*
X17250000Y34000000D03*
X27250000Y32000000D03*
X19300000Y11350000D03*
X18450000Y12150000D03*
X25250000Y29000000D03*
X36000000Y10800000D03*
X22800000Y41000000D03*
X20500000Y4840000D03*
X7750000Y40800000D03*
X2950000Y21700000D03*
X36000000Y10100000D03*
X26250000Y29000000D03*
X27250000Y29000000D03*
X25700000Y38300000D03*
X25700000Y35800000D03*
X28900000Y9075000D03*
X12347162Y22825580D03*
X20800000Y34050000D03*
X5000000Y20500000D03*
X35300000Y22700000D03*
X35300000Y22000000D03*
X19736659Y15786659D03*
X5050000Y16200000D03*
X28150000Y9050000D03*
X19700000Y22800000D03*
X36500000Y28750000D03*
X28216421Y23816421D03*
X23350000Y9400000D03*
X7600000Y15000000D03*
X28100002Y10725000D03*
X23350000Y10650000D03*
X19200000Y34050000D03*
X4100000Y9350000D03*
X23454012Y18450000D03*
X9880564Y27216617D03*
X36000000Y22000000D03*
X23299988Y33600012D03*
X18249990Y10550000D03*
X19800000Y25600000D03*
X1500000Y4000000D03*
X14950000Y6150000D03*
X5000000Y11400000D03*
X28900000Y23800000D03*
X15500000Y29750000D03*
X19150000Y12050000D03*
X18550002Y10000000D03*
X20000000Y41000000D03*
X36000000Y22700000D03*
X28000000Y41000000D03*
X22100000Y29750000D03*
X23350000Y10000000D03*
X14500000Y32750000D03*
X5050000Y12900000D03*
X25250000Y32000000D03*
X5500000Y40800000D03*
X28350000Y22100000D03*
X18500000Y9400000D03*
X35200000Y10100000D03*
X26250000Y32000000D03*
X5900000Y22034010D03*
X24500000Y16250000D03*
D21*
X32350000Y23550000D03*
X32350000Y22550000D03*
X31350000Y22550000D03*
X31350000Y10000000D03*
X32350000Y10000000D03*
X31350000Y9000000D03*
X32350000Y9000000D03*
X31350000Y23550000D03*
D20*
X31500000Y32500000D03*
X41000000Y36500000D03*
X29400000Y35300000D03*
X20500000Y2500000D03*
X33750000Y28500000D03*
X36000000Y1000000D03*
X25350002Y20050000D03*
X41000000Y5500000D03*
X32750000Y32500000D03*
X31500000Y28500000D03*
X24300000Y38600000D03*
X34500000Y30500000D03*
X30250000Y32500000D03*
X33000000Y40500000D03*
X29400000Y41000000D03*
X22300000Y20150000D03*
X5400000Y15000000D03*
X22500000Y14600000D03*
X11711327Y26679242D03*
X19549990Y14950000D03*
X14672990Y13300000D03*
X20650000Y22900000D03*
X12500000Y26600000D03*
X15100000Y16350000D03*
X16632180Y13192623D03*
X18481590Y22254184D03*
X21500000Y14000000D03*
X18500000Y21400000D03*
X20663082Y14062188D03*
X15550000Y21600000D03*
X15040852Y21052767D03*
X14343177Y21255388D03*
X15344261Y20392654D03*
X13999129Y21895260D03*
X5660325Y25029427D03*
X15492419Y19681419D03*
X18500000Y18750000D03*
X19700006Y13400000D03*
D21*
X30250000Y12250000D03*
X29250000Y12250000D03*
X30250000Y11250000D03*
X29250000Y11250000D03*
X30250000Y20350000D03*
X29250000Y20350000D03*
X29250000Y21350000D03*
X30250000Y21350000D03*
D20*
X14132952Y20559967D03*
X3691484Y24095147D03*
X16000000Y19100000D03*
X10728395Y20957819D03*
X14450000Y18450000D03*
X14602815Y19919705D03*
X5800000Y23200000D03*
X18439564Y17348693D03*
X7200000Y12800000D03*
X9387247Y12243418D03*
X17716325Y17422668D03*
X7250000Y10750000D03*
X16800000Y13900000D03*
X17895090Y18346727D03*
X9384281Y13099122D03*
X9200000Y10400000D03*
X16072987Y13900000D03*
X18750000Y29900000D03*
X14750000Y27550000D03*
X20450000Y29850000D03*
X16950000Y29900000D03*
X15450000Y27200000D03*
D22*
X9250000Y27000000D02*
X9250000Y31250000D01*
D23*
X11623496Y28123496D02*
X11623496Y30390076D01*
X10599531Y27099531D02*
X11623496Y28123496D01*
X16102002Y22183205D02*
X13127652Y25157555D01*
X10599531Y26133889D02*
X10599531Y27099531D01*
X11575865Y25157555D02*
X10599531Y26133889D01*
X13127652Y25157555D02*
X11575865Y25157555D01*
X16102002Y21150395D02*
X16102002Y22183205D01*
X11623496Y30390076D02*
X12492966Y31259546D01*
X15344261Y20392654D02*
X16102002Y21150395D01*
X10997999Y26268581D02*
X10997999Y26897999D01*
X12492966Y31259546D02*
X12492966Y31507034D01*
X10997999Y26897999D02*
X12400000Y28300000D01*
X12400000Y28300000D02*
X12400000Y30633420D01*
X12400000Y30633420D02*
X12759546Y30992966D01*
X12759546Y30992966D02*
X13007034Y30992966D01*
D22*
X12827764Y23960480D02*
X13019122Y23769122D01*
X10394209Y25015221D02*
X11448950Y23960480D01*
X9734779Y25015221D02*
X10394209Y25015221D01*
X11448950Y23960480D02*
X12827764Y23960480D01*
X9326511Y24673489D02*
X9673489Y24673489D01*
X9673489Y24673489D02*
X10326497Y24673489D01*
X12579040Y23670960D02*
X13999129Y22250871D01*
X9673489Y24673489D02*
X10267458Y24673489D01*
X13999129Y22250871D02*
X13999129Y21895260D01*
X10326497Y24673489D02*
X11329027Y23670960D01*
X11329027Y23670960D02*
X12579040Y23670960D01*
X9394209Y25015221D02*
X9734779Y25015221D01*
X6685854Y25318938D02*
X9090492Y25318938D01*
X5490500Y27462000D02*
X5490500Y26514292D01*
X4388500Y28564000D02*
X5490500Y27462000D01*
X9090492Y25318938D02*
X9394209Y25015221D01*
X5490500Y26514292D02*
X6685854Y25318938D01*
X8970573Y25029427D02*
X9326511Y24673489D01*
X5660325Y25029427D02*
X8970573Y25029427D01*
X9582910Y25326520D02*
X10500344Y25326520D01*
X9079715Y25829715D02*
X9582910Y25326520D01*
X5842511Y27157489D02*
X7170285Y25829715D01*
X4388500Y31104000D02*
X5842511Y29649989D01*
X7170285Y25829715D02*
X9079715Y25829715D01*
X10500344Y25326520D02*
X11366383Y24460481D01*
X13863796Y23424448D02*
X14994133Y22294111D01*
X5842511Y29649989D02*
X5842511Y27157489D01*
X11366383Y24460481D02*
X12789519Y24460481D01*
X12789519Y24460481D02*
X13825552Y23424448D01*
X13825552Y23424448D02*
X13863796Y23424448D01*
X14994133Y22294111D02*
X14994133Y21099486D01*
X14994133Y21099486D02*
X15040852Y21052767D01*
X12906965Y24843035D02*
X13250000Y24500000D01*
X1848500Y31104000D02*
X3144500Y32400000D01*
X3144500Y32400000D02*
X4900000Y32400000D01*
X15550000Y22237389D02*
X15550000Y21600000D01*
X4900000Y32400000D02*
X8923426Y28376574D01*
X12906965Y24843035D02*
X14189600Y23560400D01*
X14189600Y23560400D02*
X14226989Y23560400D01*
X8923426Y28376574D02*
X8923426Y26615857D01*
X8923426Y26615857D02*
X9795309Y25743974D01*
X9795309Y25743974D02*
X10544648Y25743974D01*
X10544648Y25743974D02*
X11445586Y24843036D01*
X11445586Y24843036D02*
X12906965Y24843035D01*
X14226989Y23560400D02*
X15550000Y22237389D01*
X9734779Y25015221D02*
X10335170Y25015221D01*
X14611031Y22177213D02*
X13019122Y23769122D01*
X13019122Y23769122D02*
X12961733Y23826511D01*
X10330106Y23919894D02*
X10328795Y23919894D01*
X12502847Y21747153D02*
X10330106Y23919894D01*
X13285100Y21747153D02*
X12502847Y21747153D01*
X8566011Y24183989D02*
X8500000Y24183989D01*
X9500000Y23250000D02*
X8566011Y24183989D01*
X10335170Y25015221D02*
X10348979Y25001412D01*
X9500000Y23250000D02*
X9771910Y22978090D01*
X10250000Y23000000D02*
X9750000Y23000000D01*
X9750000Y23000000D02*
X9500000Y23250000D01*
X13032379Y21220652D02*
X13329348Y21220652D01*
X12832389Y21420642D02*
X13032379Y21220652D01*
X9420960Y22079040D02*
X11239846Y22079040D01*
X11776341Y22026341D02*
X12382040Y21420642D01*
X5681969Y24219622D02*
X6601591Y23300000D01*
X11239846Y22079040D02*
X11292545Y22026341D01*
X12382040Y21420642D02*
X12832389Y21420642D01*
X5142878Y24219622D02*
X5681969Y24219622D01*
X13329348Y21220652D02*
X13588725Y20961275D01*
X4388500Y24974000D02*
X5142878Y24219622D01*
X6601591Y23300000D02*
X8200000Y23300000D01*
X8200000Y23300000D02*
X9420960Y22079040D01*
X4388500Y26024000D02*
X4388500Y24974000D01*
X11292545Y22026341D02*
X11776341Y22026341D01*
X13588725Y20961275D02*
X13731644Y20961275D01*
X13731644Y20961275D02*
X14132952Y20559967D01*
X11172613Y21736830D02*
X11603740Y21736830D01*
X5800000Y23200000D02*
X6099999Y22900001D01*
X11119923Y21789520D02*
X11172613Y21736830D01*
X6099999Y22900001D02*
X7849999Y22900001D01*
X11603740Y21736830D02*
X12246439Y21094131D01*
X7849999Y22900001D02*
X8960480Y21789520D01*
X8960480Y21789520D02*
X11119923Y21789520D01*
X12246439Y21094131D02*
X12697144Y21094131D01*
X12697144Y21094131D02*
X13871570Y19919705D01*
X13871570Y19919705D02*
X14602815Y19919705D01*
X8250000Y21500000D02*
X11000000Y21500000D01*
X3691484Y24095147D02*
X5213640Y22572991D01*
X11000000Y21500000D02*
X11732380Y20767620D01*
X5213640Y22572991D02*
X7177009Y22572991D01*
X7177009Y22572991D02*
X8250000Y21500000D01*
X12561899Y20767620D02*
X14229519Y19100000D01*
X11732380Y20767620D02*
X12561899Y20767620D01*
X14229519Y19100000D02*
X16000000Y19100000D01*
X11245105Y20441109D02*
X10728395Y20957819D01*
D24*
X12970062Y17822999D02*
X10143061Y20650000D01*
X6020419Y20650000D02*
X1848500Y24821919D01*
D22*
X14250000Y18450000D02*
X12258891Y20441109D01*
D24*
X1848500Y24821919D02*
X1848500Y26024000D01*
D22*
X14450000Y18450000D02*
X14250000Y18450000D01*
D24*
X15650961Y17822999D02*
X12970062Y17822999D01*
X16931023Y19103061D02*
X15650961Y17822999D01*
X10143061Y20650000D02*
X6020419Y20650000D01*
D22*
X12258891Y20441109D02*
X11245105Y20441109D01*
X9771910Y22978090D02*
X10030771Y22978090D01*
X10015418Y26319492D02*
X9930508Y26319492D01*
X9930508Y26319492D02*
X9250000Y27000000D01*
D23*
X10997999Y26268581D02*
X11133290Y26133290D01*
X10997999Y26268581D02*
X11288558Y25978022D01*
X16479013Y22382481D02*
X16479013Y20668013D01*
X11288558Y25978022D02*
X12883472Y25978022D01*
X12883472Y25978022D02*
X16479013Y22382481D01*
X16479013Y20668013D02*
X15492419Y19681419D01*
D22*
X14611031Y21523242D02*
X14611031Y22177213D01*
X14343177Y21255388D02*
X14611031Y21523242D01*
D23*
X14578500Y23706707D02*
X13481190Y24804017D01*
D24*
X16931023Y19103061D02*
X16931023Y22593241D01*
X16931023Y22593241D02*
X12924264Y26600000D01*
X12924264Y26600000D02*
X12500000Y26600000D01*
D25*
X19159658Y16459658D02*
X19700000Y17000000D01*
X19549990Y14950000D02*
X19159658Y15340332D01*
X19700000Y17000000D02*
X19700000Y18850000D01*
X17377962Y19550000D02*
X16931023Y19103061D01*
X19700000Y18850000D02*
X19000000Y19550000D01*
X19000000Y19550000D02*
X17377962Y19550000D01*
X19159658Y15340332D02*
X19159658Y16459658D01*
D22*
X21000000Y19735774D02*
X21000000Y14600000D01*
X18481590Y22254184D02*
X21000000Y19735774D01*
X21500000Y14100000D02*
X21500000Y14000000D01*
X21000000Y14600000D02*
X21500000Y14100000D01*
X18700000Y21400000D02*
X20663082Y19436918D01*
X18500000Y21400000D02*
X18700000Y21400000D01*
X20663082Y14486452D02*
X20663082Y14062188D01*
X20663082Y19436918D02*
X20663082Y14486452D01*
X18100000Y16250000D02*
X18100000Y15000006D01*
X18966566Y18283434D02*
X18966566Y17116566D01*
X19400007Y13699999D02*
X19700006Y13400000D01*
X18500000Y18750000D02*
X18966566Y18283434D01*
X18966566Y17116566D02*
X18100000Y16250000D01*
X18100000Y15000006D02*
X19400007Y13699999D01*
X16100000Y11000000D02*
X17550000Y12537539D01*
X7200000Y12800000D02*
X6722999Y12322999D01*
X17550000Y12537539D02*
X17550000Y16459129D01*
X6722999Y12322999D02*
X6722999Y10497039D01*
X8220038Y9000000D02*
X9862461Y9000000D01*
X17550000Y16459129D02*
X18139565Y17048694D01*
X9862461Y9000000D02*
X11608441Y10745980D01*
X15845980Y10745980D02*
X16100000Y11000000D01*
X11608441Y10745980D02*
X15845980Y10745980D01*
X6722999Y10497039D02*
X8220038Y9000000D01*
X18139565Y17048694D02*
X18439564Y17348693D01*
X15545986Y12083523D02*
X15545986Y15252329D01*
X9807676Y11822989D02*
X15285452Y11822989D01*
X9387247Y12243418D02*
X9807676Y11822989D01*
X17416326Y17122669D02*
X17716325Y17422668D01*
X15545986Y15252329D02*
X17416326Y17122669D01*
X15285452Y11822989D02*
X15545986Y12083523D01*
X8500000Y9500000D02*
X9899998Y9500000D01*
X15622989Y11072991D02*
X17199999Y12650001D01*
X17099999Y13600001D02*
X16800000Y13900000D01*
X7250000Y10750000D02*
X8500000Y9500000D01*
X17199999Y12650001D02*
X17199999Y13500001D01*
X9899998Y9500000D02*
X11472989Y11072991D01*
X11472989Y11072991D02*
X15622989Y11072991D01*
X17199999Y13500001D02*
X17099999Y13600001D01*
X9384281Y13099122D02*
X9684280Y12799123D01*
X9684280Y12799123D02*
X9684280Y12735758D01*
X10270038Y12150000D02*
X15100000Y12150000D01*
X15200000Y12250000D02*
X15200000Y15651648D01*
X15200000Y15651648D02*
X17895079Y18346727D01*
X15100000Y12150000D02*
X15200000Y12250000D01*
X17895079Y18346727D02*
X17895090Y18346727D01*
X9684280Y12735758D02*
X10270038Y12150000D01*
X15500000Y11450000D02*
X11350000Y11450000D01*
X9624264Y10400000D02*
X9200000Y10400000D01*
X10300000Y10400000D02*
X9624264Y10400000D01*
X11350000Y11450000D02*
X10300000Y10400000D01*
X16072987Y12022987D02*
X15500000Y11450000D01*
X16072987Y13900000D02*
X16072987Y12022987D01*
D25*
X18750000Y29900000D02*
X20400000Y29900000D01*
X16950000Y29900000D02*
X18750000Y29900000D01*
D26*
X16950000Y28700000D02*
X15450000Y27200000D01*
D25*
X14750000Y27550000D02*
X15100000Y27550000D01*
X15100000Y27550000D02*
X15450000Y27200000D01*
X20400000Y29900000D02*
X20450000Y29850000D01*
D26*
X16950000Y29900000D02*
X16950000Y28700000D01*
G04 #@! TA.AperFunction,Conductor*
G36*
X5468856Y41579998D02*
G01*
X5507106Y41535855D01*
X5522140Y41563265D01*
X5584517Y41597171D01*
X5611066Y41600000D01*
X7650735Y41600000D01*
X7718856Y41579998D01*
X7757106Y41535855D01*
X7772140Y41563265D01*
X7834517Y41597171D01*
X7861066Y41600000D01*
X8382124Y41600000D01*
X8450245Y41579998D01*
X8471219Y41563095D01*
X9272297Y40762017D01*
X9272335Y40761973D01*
X9272348Y40761947D01*
X9361947Y40672348D01*
X9370778Y40667848D01*
X9370780Y40667847D01*
X9381512Y40662379D01*
X9398369Y40652049D01*
X9416134Y40639142D01*
X9437021Y40632355D01*
X9455280Y40624792D01*
X9466013Y40619323D01*
X9466017Y40619322D01*
X9474848Y40614822D01*
X9484639Y40613271D01*
X9484640Y40613271D01*
X9490588Y40612329D01*
X9496539Y40611387D01*
X9515762Y40606771D01*
X9527210Y40603051D01*
X9527212Y40603051D01*
X9536644Y40599986D01*
X9663356Y40599986D01*
X9663385Y40599995D01*
X9663444Y40600000D01*
X17436556Y40600000D01*
X17436615Y40599995D01*
X17436644Y40599986D01*
X17563356Y40599986D01*
X17572788Y40603051D01*
X17572790Y40603051D01*
X17584238Y40606771D01*
X17603461Y40611387D01*
X17609412Y40612329D01*
X17615360Y40613271D01*
X17615361Y40613271D01*
X17625152Y40614822D01*
X17633983Y40619322D01*
X17633987Y40619323D01*
X17644720Y40624792D01*
X17662979Y40632355D01*
X17683866Y40639142D01*
X17691889Y40644971D01*
X17691893Y40644973D01*
X17701634Y40652050D01*
X17718487Y40662378D01*
X17729214Y40667844D01*
X17729215Y40667845D01*
X17738053Y40672348D01*
X17827652Y40761947D01*
X17827665Y40761973D01*
X17827703Y40762017D01*
X18628781Y41563095D01*
X18691093Y41597121D01*
X18717876Y41600000D01*
X19510379Y41600000D01*
X19578500Y41579998D01*
X19624993Y41526342D01*
X19635097Y41456068D01*
X19605603Y41391488D01*
X19595669Y41381256D01*
X19568898Y41356639D01*
X19564370Y41349337D01*
X19564369Y41349335D01*
X19507491Y41257600D01*
X19488871Y41227569D01*
X19446502Y41081733D01*
X19446412Y41073147D01*
X19446412Y41073146D01*
X19445694Y41004575D01*
X19444912Y40929876D01*
X19484218Y40783185D01*
X19561524Y40652468D01*
X19567725Y40646522D01*
X19567726Y40646520D01*
X19605980Y40609836D01*
X19671134Y40547355D01*
X19804974Y40475591D01*
X19813356Y40473717D01*
X19813357Y40473717D01*
X19944797Y40444336D01*
X19944799Y40444336D01*
X19953182Y40442462D01*
X20048885Y40447478D01*
X20096257Y40449960D01*
X20096258Y40449960D01*
X20104840Y40450410D01*
X20248773Y40498849D01*
X20255878Y40503678D01*
X20255881Y40503679D01*
X20367275Y40579382D01*
X20367276Y40579383D01*
X20374379Y40584210D01*
X20387711Y40599986D01*
X20466858Y40693645D01*
X20466860Y40693648D01*
X20472401Y40700205D01*
X20518091Y40800000D01*
X20532045Y40830478D01*
X20532045Y40830480D01*
X20535620Y40838287D01*
X20559377Y40988283D01*
X20559500Y41000000D01*
X20538889Y41150461D01*
X20514051Y41207858D01*
X20481987Y41281955D01*
X20481985Y41281958D01*
X20478576Y41289836D01*
X20473171Y41296510D01*
X20473169Y41296514D01*
X20393655Y41394706D01*
X20366329Y41460233D01*
X20378769Y41530131D01*
X20427023Y41582208D01*
X20491575Y41600000D01*
X22310379Y41600000D01*
X22378500Y41579998D01*
X22424993Y41526342D01*
X22435097Y41456068D01*
X22405603Y41391488D01*
X22395669Y41381256D01*
X22368898Y41356639D01*
X22364370Y41349337D01*
X22364369Y41349335D01*
X22307491Y41257600D01*
X22288871Y41227569D01*
X22246502Y41081733D01*
X22246412Y41073147D01*
X22246412Y41073146D01*
X22245694Y41004575D01*
X22244912Y40929876D01*
X22284218Y40783185D01*
X22361524Y40652468D01*
X22367725Y40646522D01*
X22367726Y40646520D01*
X22405980Y40609836D01*
X22471134Y40547355D01*
X22604974Y40475591D01*
X22613356Y40473717D01*
X22613357Y40473717D01*
X22744797Y40444336D01*
X22744799Y40444336D01*
X22753182Y40442462D01*
X22848885Y40447478D01*
X22896257Y40449960D01*
X22896258Y40449960D01*
X22904840Y40450410D01*
X23048773Y40498849D01*
X23055878Y40503678D01*
X23055881Y40503679D01*
X23167275Y40579382D01*
X23167276Y40579383D01*
X23174379Y40584210D01*
X23187723Y40600000D01*
X23266859Y40693647D01*
X23268580Y40695683D01*
X23268582Y40695685D01*
X23272401Y40700205D01*
X23273082Y40699630D01*
X23321004Y40741637D01*
X23391219Y40752142D01*
X23455967Y40723018D01*
X23494691Y40663512D01*
X23500000Y40627324D01*
X23500000Y34276733D01*
X23479998Y34208612D01*
X23426342Y34162119D01*
X23364772Y34151071D01*
X23338737Y34152983D01*
X23264857Y34158408D01*
X23115987Y34128391D01*
X23108335Y34124492D01*
X22988325Y34063344D01*
X22988322Y34063342D01*
X22980674Y34059445D01*
X22974352Y34053632D01*
X22974351Y34053631D01*
X22903487Y33988468D01*
X22868886Y33956651D01*
X22864358Y33949349D01*
X22864357Y33949347D01*
X22815216Y33870090D01*
X22788859Y33827581D01*
X22746490Y33681745D01*
X22744900Y33529888D01*
X22784206Y33383197D01*
X22861512Y33252480D01*
X22971122Y33147367D01*
X23104962Y33075603D01*
X23113344Y33073729D01*
X23113345Y33073729D01*
X23244785Y33044348D01*
X23244787Y33044348D01*
X23253170Y33042474D01*
X23367407Y33048461D01*
X23436480Y33032052D01*
X23485717Y32980903D01*
X23500000Y32922634D01*
X23500000Y29126000D01*
X23479998Y29057879D01*
X23426342Y29011386D01*
X23374000Y29000000D01*
X22378770Y29000000D01*
X22310649Y29020002D01*
X22264156Y29073658D01*
X22254052Y29143932D01*
X22283546Y29208512D01*
X22333180Y29241797D01*
X22332936Y29242289D01*
X22336700Y29244157D01*
X22338581Y29245419D01*
X22348773Y29248849D01*
X22355878Y29253678D01*
X22355881Y29253679D01*
X22467275Y29329382D01*
X22467276Y29329383D01*
X22474379Y29334210D01*
X22479922Y29340769D01*
X22566858Y29443645D01*
X22566860Y29443648D01*
X22572401Y29450205D01*
X22614192Y29541485D01*
X22632045Y29580478D01*
X22632045Y29580480D01*
X22635620Y29588287D01*
X22659377Y29738283D01*
X22659500Y29750000D01*
X22638889Y29900461D01*
X22635477Y29908346D01*
X22581987Y30031955D01*
X22581985Y30031958D01*
X22578576Y30039836D01*
X22483004Y30157858D01*
X22359214Y30245831D01*
X22216327Y30297274D01*
X22207767Y30297903D01*
X22207765Y30297903D01*
X22115187Y30304701D01*
X22064869Y30308396D01*
X21915999Y30278379D01*
X21895474Y30267921D01*
X21788337Y30213332D01*
X21788334Y30213330D01*
X21780686Y30209433D01*
X21774364Y30203620D01*
X21774363Y30203619D01*
X21710710Y30145087D01*
X21668898Y30106639D01*
X21664370Y30099337D01*
X21664369Y30099335D01*
X21600537Y29996385D01*
X21588871Y29977569D01*
X21546502Y29831733D01*
X21544912Y29679876D01*
X21584218Y29533185D01*
X21661524Y29402468D01*
X21771134Y29297355D01*
X21778710Y29293293D01*
X21778711Y29293292D01*
X21883614Y29237044D01*
X21934197Y29187226D01*
X21949817Y29117969D01*
X21925513Y29051262D01*
X21869004Y29008283D01*
X21824073Y29000000D01*
X15778770Y29000000D01*
X15710649Y29020002D01*
X15664156Y29073658D01*
X15654052Y29143932D01*
X15683546Y29208512D01*
X15733180Y29241797D01*
X15732936Y29242289D01*
X15736700Y29244157D01*
X15738581Y29245419D01*
X15748773Y29248849D01*
X15755878Y29253678D01*
X15755881Y29253679D01*
X15867275Y29329382D01*
X15867276Y29329383D01*
X15874379Y29334210D01*
X15879922Y29340769D01*
X15966858Y29443645D01*
X15966860Y29443648D01*
X15972401Y29450205D01*
X16014192Y29541485D01*
X16032045Y29580478D01*
X16032045Y29580480D01*
X16035620Y29588287D01*
X16059377Y29738283D01*
X16059500Y29750000D01*
X16038889Y29900461D01*
X16035477Y29908346D01*
X15981987Y30031955D01*
X15981985Y30031958D01*
X15978576Y30039836D01*
X15883004Y30157858D01*
X15759214Y30245831D01*
X15616327Y30297274D01*
X15607767Y30297903D01*
X15607765Y30297903D01*
X15515187Y30304701D01*
X15464869Y30308396D01*
X15315999Y30278379D01*
X15295474Y30267921D01*
X15188337Y30213332D01*
X15188334Y30213330D01*
X15180686Y30209433D01*
X15174364Y30203620D01*
X15174363Y30203619D01*
X15110710Y30145087D01*
X15068898Y30106639D01*
X15064370Y30099337D01*
X15064369Y30099335D01*
X15000537Y29996385D01*
X14988871Y29977569D01*
X14946502Y29831733D01*
X14944912Y29679876D01*
X14984218Y29533185D01*
X15061524Y29402468D01*
X15171134Y29297355D01*
X15178710Y29293293D01*
X15178711Y29293292D01*
X15283614Y29237044D01*
X15334197Y29187226D01*
X15349817Y29117969D01*
X15325513Y29051262D01*
X15269004Y29008283D01*
X15224073Y29000000D01*
X12905500Y29000000D01*
X12837379Y29020002D01*
X12790886Y29073658D01*
X12779500Y29126000D01*
X12779500Y30318550D01*
X12799502Y30386671D01*
X12853158Y30433164D01*
X12923432Y30443268D01*
X12932966Y30441519D01*
X12960216Y30435428D01*
X13055919Y30440444D01*
X13103291Y30442926D01*
X13103292Y30442926D01*
X13111874Y30443376D01*
X13255807Y30491815D01*
X13262912Y30496644D01*
X13262915Y30496645D01*
X13374309Y30572348D01*
X13374310Y30572349D01*
X13381413Y30577176D01*
X13399495Y30598573D01*
X13473892Y30686611D01*
X13473894Y30686614D01*
X13479435Y30693171D01*
X13528504Y30800346D01*
X13539079Y30823444D01*
X13539079Y30823446D01*
X13542654Y30831253D01*
X13566411Y30981249D01*
X13566534Y30992966D01*
X13545923Y31143427D01*
X13526432Y31188468D01*
X13489021Y31274921D01*
X13489019Y31274924D01*
X13485610Y31282802D01*
X13390038Y31400824D01*
X13266248Y31488797D01*
X13123361Y31540240D01*
X13123897Y31541730D01*
X13069964Y31570852D01*
X13035646Y31633003D01*
X13033805Y31643260D01*
X13033020Y31648989D01*
X13031855Y31657495D01*
X13026968Y31668787D01*
X12974953Y31788989D01*
X12974951Y31788992D01*
X12971542Y31796870D01*
X12875970Y31914892D01*
X12752180Y32002865D01*
X12609293Y32054308D01*
X12600733Y32054937D01*
X12600731Y32054937D01*
X12499710Y32062355D01*
X12457835Y32065430D01*
X12308965Y32035413D01*
X12301313Y32031514D01*
X12181303Y31970366D01*
X12181300Y31970364D01*
X12173652Y31966467D01*
X12167330Y31960654D01*
X12167329Y31960653D01*
X12068191Y31869491D01*
X12061864Y31863673D01*
X12057336Y31856371D01*
X12057335Y31856369D01*
X11986363Y31741903D01*
X11981837Y31734603D01*
X11939468Y31588767D01*
X11939378Y31580181D01*
X11939378Y31580180D01*
X11938960Y31540240D01*
X11937878Y31436910D01*
X11940101Y31428613D01*
X11940102Y31428607D01*
X11960418Y31352789D01*
X11958729Y31281812D01*
X11927807Y31231082D01*
X11392456Y30695731D01*
X11376264Y30682654D01*
X11373471Y30680113D01*
X11364723Y30674464D01*
X11358276Y30666286D01*
X11358275Y30666285D01*
X11345236Y30649745D01*
X11340894Y30644860D01*
X11340941Y30644820D01*
X11337588Y30640863D01*
X11333907Y30637182D01*
X11330883Y30632950D01*
X11321822Y30620271D01*
X11318258Y30615525D01*
X11286556Y30575310D01*
X11283525Y30566679D01*
X11278204Y30559233D01*
X11275220Y30549255D01*
X11275219Y30549253D01*
X11263522Y30510141D01*
X11261687Y30504494D01*
X11251760Y30476226D01*
X11244721Y30456183D01*
X11243996Y30447811D01*
X11243996Y30445102D01*
X11243983Y30444809D01*
X11242027Y30438267D01*
X11242436Y30427860D01*
X11243899Y30390631D01*
X11243996Y30385683D01*
X11243996Y29126000D01*
X11223994Y29057879D01*
X11170338Y29011386D01*
X11117996Y29000000D01*
X9730500Y29000000D01*
X9662379Y29020002D01*
X9615886Y29073658D01*
X9604500Y29126000D01*
X9604500Y30764577D01*
X9624502Y30832698D01*
X9634261Y30845904D01*
X9716858Y30943645D01*
X9716860Y30943648D01*
X9722401Y30950205D01*
X9785620Y31088287D01*
X9809377Y31238283D01*
X9809500Y31250000D01*
X9788889Y31400461D01*
X9769398Y31445502D01*
X9731987Y31531955D01*
X9731985Y31531958D01*
X9728576Y31539836D01*
X9633004Y31657858D01*
X9509214Y31745831D01*
X9366327Y31797274D01*
X9357767Y31797903D01*
X9357765Y31797903D01*
X9265187Y31804701D01*
X9214869Y31808396D01*
X9065999Y31778379D01*
X9058347Y31774480D01*
X8938337Y31713332D01*
X8938334Y31713330D01*
X8930686Y31709433D01*
X8924364Y31703620D01*
X8924363Y31703619D01*
X8867338Y31651182D01*
X8818898Y31606639D01*
X8814370Y31599337D01*
X8814369Y31599335D01*
X8743397Y31484869D01*
X8738871Y31477569D01*
X8696502Y31331733D01*
X8696412Y31323147D01*
X8696412Y31323146D01*
X8696003Y31284086D01*
X8694912Y31179876D01*
X8734218Y31033185D01*
X8738594Y31025786D01*
X8807151Y30909861D01*
X8807154Y30909857D01*
X8811524Y30902468D01*
X8826093Y30888497D01*
X8856710Y30859136D01*
X8892033Y30797549D01*
X8895500Y30768194D01*
X8895500Y29210029D01*
X8875498Y29141908D01*
X8821842Y29095415D01*
X8751568Y29085311D01*
X8686988Y29114805D01*
X8680405Y29120934D01*
X5187237Y32614102D01*
X5173924Y32630585D01*
X5171548Y32633196D01*
X5165897Y32641948D01*
X5140990Y32661583D01*
X5137159Y32664987D01*
X5137066Y32664877D01*
X5133109Y32668230D01*
X5129428Y32671911D01*
X5118282Y32679876D01*
X13944912Y32679876D01*
X13984218Y32533185D01*
X14061524Y32402468D01*
X14171134Y32297355D01*
X14304974Y32225591D01*
X14313356Y32223717D01*
X14313357Y32223717D01*
X14444797Y32194336D01*
X14444799Y32194336D01*
X14453182Y32192462D01*
X14548885Y32197478D01*
X14596257Y32199960D01*
X14596258Y32199960D01*
X14604840Y32200410D01*
X14748773Y32248849D01*
X14755878Y32253678D01*
X14755881Y32253679D01*
X14867275Y32329382D01*
X14867276Y32329383D01*
X14874379Y32334210D01*
X14879922Y32340769D01*
X14966858Y32443645D01*
X14966860Y32443648D01*
X14972401Y32450205D01*
X15035620Y32588287D01*
X15059377Y32738283D01*
X15059500Y32750000D01*
X15038889Y32900461D01*
X15029294Y32922634D01*
X14981987Y33031955D01*
X14981985Y33031958D01*
X14978576Y33039836D01*
X14883004Y33157858D01*
X14759214Y33245831D01*
X14616327Y33297274D01*
X14607767Y33297903D01*
X14607765Y33297903D01*
X14515187Y33304701D01*
X14464869Y33308396D01*
X14315999Y33278379D01*
X14308347Y33274480D01*
X14188337Y33213332D01*
X14188334Y33213330D01*
X14180686Y33209433D01*
X14174364Y33203620D01*
X14174363Y33203619D01*
X14108772Y33143305D01*
X14068898Y33106639D01*
X14064370Y33099337D01*
X14064369Y33099335D01*
X14030276Y33044348D01*
X13988871Y32977569D01*
X13946502Y32831733D01*
X13946412Y32823147D01*
X13946412Y32823146D01*
X13945729Y32757877D01*
X13944912Y32679876D01*
X5118282Y32679876D01*
X5115376Y32681953D01*
X5110630Y32685517D01*
X5081370Y32708584D01*
X5081368Y32708585D01*
X5073190Y32715032D01*
X5065121Y32717866D01*
X5058159Y32722841D01*
X5012461Y32736508D01*
X5006836Y32738335D01*
X4961809Y32754147D01*
X4957733Y32754500D01*
X4955024Y32754500D01*
X4952291Y32754618D01*
X4952297Y32754763D01*
X4951183Y32754833D01*
X4945058Y32756665D01*
X4896642Y32754763D01*
X4892416Y32754597D01*
X4887470Y32754500D01*
X3196217Y32754500D01*
X3175130Y32756744D01*
X3171613Y32756910D01*
X3161435Y32759101D01*
X3129937Y32755373D01*
X3124823Y32755071D01*
X3124835Y32754928D01*
X3119657Y32754500D01*
X3114460Y32754500D01*
X3104635Y32752865D01*
X3097417Y32751664D01*
X3091545Y32750829D01*
X3084542Y32750000D01*
X3044203Y32745225D01*
X3036494Y32741523D01*
X3028052Y32740118D01*
X3018885Y32735172D01*
X3018883Y32735171D01*
X2986069Y32717465D01*
X2980776Y32714768D01*
X2944930Y32697556D01*
X2944927Y32697554D01*
X2937786Y32694125D01*
X2934654Y32691493D01*
X2932709Y32689548D01*
X2930722Y32687726D01*
X2930623Y32687834D01*
X2929787Y32687097D01*
X2924160Y32684061D01*
X2917089Y32676412D01*
X2917088Y32676411D01*
X2888397Y32645373D01*
X2884968Y32641807D01*
X2400041Y32156880D01*
X2337729Y32122854D01*
X2269614Y32126948D01*
X2111272Y32181934D01*
X2105334Y32182795D01*
X1908639Y32211314D01*
X1908636Y32211314D01*
X1902699Y32212175D01*
X1692170Y32202431D01*
X1686346Y32201027D01*
X1686343Y32201027D01*
X1493115Y32154459D01*
X1493113Y32154458D01*
X1487282Y32153053D01*
X1481824Y32150571D01*
X1481820Y32150570D01*
X1429867Y32126948D01*
X1295428Y32065822D01*
X1123530Y31943886D01*
X977791Y31791645D01*
X863469Y31614592D01*
X861226Y31609026D01*
X791862Y31436910D01*
X784690Y31419115D01*
X771737Y31352789D01*
X751664Y31250000D01*
X744295Y31212268D01*
X744279Y31206282D01*
X744279Y31206279D01*
X744210Y31179876D01*
X743743Y31001515D01*
X783054Y30794459D01*
X860809Y30598573D01*
X864033Y30593523D01*
X864034Y30593520D01*
X886485Y30558347D01*
X974202Y30420924D01*
X1119142Y30267921D01*
X1124007Y30264431D01*
X1124010Y30264429D01*
X1265654Y30162835D01*
X1290399Y30145087D01*
X1295844Y30142577D01*
X1429424Y30080996D01*
X1481794Y30056853D01*
X1487610Y30055419D01*
X1487613Y30055418D01*
X1550814Y30039836D01*
X1686421Y30006402D01*
X1692411Y30006093D01*
X1692413Y30006093D01*
X1766357Y30002283D01*
X1896896Y29995556D01*
X1902831Y29996385D01*
X1902835Y29996385D01*
X2064632Y30018980D01*
X2105624Y30024705D01*
X2270506Y30080996D01*
X2299396Y30090859D01*
X2299398Y30090860D01*
X2305075Y30092798D01*
X2407226Y30151182D01*
X2482844Y30194401D01*
X2482847Y30194403D01*
X2488052Y30197378D01*
X2492601Y30201284D01*
X2492604Y30201286D01*
X2643400Y30330763D01*
X2643402Y30330765D01*
X2647951Y30334671D01*
X2779005Y30499723D01*
X2781780Y30505042D01*
X2873710Y30681261D01*
X2873711Y30681264D01*
X2876484Y30686579D01*
X2936870Y30888497D01*
X2937679Y30896525D01*
X2946210Y30981249D01*
X2957985Y31098191D01*
X2958000Y31104000D01*
X2955758Y31127504D01*
X2943634Y31254575D01*
X2937983Y31313801D01*
X2878655Y31516033D01*
X2875912Y31521359D01*
X2875706Y31521874D01*
X2868980Y31592552D01*
X2903600Y31657761D01*
X3254434Y32008595D01*
X3316746Y32042621D01*
X3343529Y32045500D01*
X3465758Y32045500D01*
X3533879Y32025498D01*
X3580372Y31971842D01*
X3590476Y31901568D01*
X3556776Y31832370D01*
X3517791Y31791645D01*
X3403469Y31614592D01*
X3401226Y31609026D01*
X3331862Y31436910D01*
X3324690Y31419115D01*
X3311737Y31352789D01*
X3291664Y31250000D01*
X3284295Y31212268D01*
X3284279Y31206282D01*
X3284279Y31206279D01*
X3284210Y31179876D01*
X3283743Y31001515D01*
X3323054Y30794459D01*
X3400809Y30598573D01*
X3404033Y30593523D01*
X3404034Y30593520D01*
X3426485Y30558347D01*
X3514202Y30420924D01*
X3659142Y30267921D01*
X3664007Y30264431D01*
X3664010Y30264429D01*
X3805654Y30162835D01*
X3830399Y30145087D01*
X3835844Y30142577D01*
X3969424Y30080996D01*
X4021794Y30056853D01*
X4027610Y30055419D01*
X4027613Y30055418D01*
X4090814Y30039836D01*
X4226421Y30006402D01*
X4232411Y30006093D01*
X4232413Y30006093D01*
X4306357Y30002283D01*
X4436896Y29995556D01*
X4442831Y29996385D01*
X4442835Y29996385D01*
X4604632Y30018980D01*
X4645624Y30024705D01*
X4651301Y30026643D01*
X4651309Y30026645D01*
X4810508Y30080996D01*
X4881437Y30084076D01*
X4940312Y30050849D01*
X5451106Y29540055D01*
X5485132Y29477743D01*
X5488011Y29450960D01*
X5488011Y29316635D01*
X5468009Y29248514D01*
X5414353Y29202021D01*
X5344079Y29191917D01*
X5279499Y29221411D01*
X5262925Y29238802D01*
X5195675Y29324415D01*
X5195674Y29324416D01*
X5191969Y29329133D01*
X5032790Y29467261D01*
X4850364Y29572797D01*
X4844695Y29574766D01*
X4844692Y29574767D01*
X4656942Y29639965D01*
X4651272Y29641934D01*
X4645334Y29642795D01*
X4448639Y29671314D01*
X4448636Y29671314D01*
X4442699Y29672175D01*
X4232170Y29662431D01*
X4226346Y29661027D01*
X4226343Y29661027D01*
X4033115Y29614459D01*
X4033113Y29614458D01*
X4027282Y29613053D01*
X4021824Y29610571D01*
X4021820Y29610570D01*
X3938744Y29572797D01*
X3835428Y29525822D01*
X3663530Y29403886D01*
X3517791Y29251645D01*
X3403469Y29074592D01*
X3324690Y28879115D01*
X3284295Y28672268D01*
X3283743Y28461515D01*
X3284861Y28455628D01*
X3314045Y28301913D01*
X3323054Y28254459D01*
X3400809Y28058573D01*
X3514202Y27880924D01*
X3659142Y27727921D01*
X3664007Y27724431D01*
X3664010Y27724429D01*
X3814342Y27616604D01*
X3830399Y27605087D01*
X3835844Y27602577D01*
X3926751Y27560668D01*
X3980241Y27513984D01*
X4000000Y27446242D01*
X4000000Y27259500D01*
X3979998Y27191379D01*
X3926342Y27144886D01*
X3874000Y27133500D01*
X3538500Y27133500D01*
X3439194Y27113747D01*
X3355006Y27057494D01*
X3298753Y26973306D01*
X3279000Y26874000D01*
X3279000Y25174000D01*
X3298753Y25074694D01*
X3355006Y24990506D01*
X3439194Y24934253D01*
X3538500Y24914500D01*
X3874000Y24914500D01*
X3942121Y24894498D01*
X3988614Y24840842D01*
X4000000Y24788500D01*
X4000000Y24752509D01*
X3979998Y24684388D01*
X3926342Y24637895D01*
X3856068Y24627791D01*
X3831321Y24633957D01*
X3815889Y24639513D01*
X3815887Y24639513D01*
X3807811Y24642421D01*
X3799251Y24643050D01*
X3799249Y24643050D01*
X3706671Y24649848D01*
X3656353Y24653543D01*
X3507483Y24623526D01*
X3499831Y24619627D01*
X3379821Y24558479D01*
X3379818Y24558477D01*
X3372170Y24554580D01*
X3365848Y24548767D01*
X3365847Y24548766D01*
X3331804Y24517462D01*
X3260382Y24451786D01*
X3255854Y24444484D01*
X3255853Y24444482D01*
X3191449Y24340609D01*
X3138553Y24293254D01*
X3068452Y24282015D01*
X3003402Y24310459D01*
X2995268Y24317911D01*
X2418725Y24894454D01*
X2384699Y24956766D01*
X2389764Y25027581D01*
X2432311Y25084417D01*
X2445287Y25092936D01*
X2488052Y25117378D01*
X2492601Y25121284D01*
X2492604Y25121286D01*
X2643400Y25250763D01*
X2643402Y25250765D01*
X2647951Y25254671D01*
X2779005Y25419723D01*
X2788167Y25437285D01*
X2873710Y25601261D01*
X2873711Y25601264D01*
X2876484Y25606579D01*
X2936870Y25808497D01*
X2938791Y25827569D01*
X2948250Y25921515D01*
X2957985Y26018191D01*
X2958000Y26024000D01*
X2954620Y26059433D01*
X2938553Y26227824D01*
X2937983Y26233801D01*
X2878655Y26436033D01*
X2875911Y26441361D01*
X2784902Y26618066D01*
X2784900Y26618069D01*
X2782156Y26623397D01*
X2741315Y26675391D01*
X2655675Y26784416D01*
X2655671Y26784421D01*
X2651969Y26789133D01*
X2492790Y26927261D01*
X2310364Y27032797D01*
X2304695Y27034766D01*
X2304692Y27034767D01*
X2116942Y27099965D01*
X2111272Y27101934D01*
X2105334Y27102795D01*
X1908639Y27131314D01*
X1908636Y27131314D01*
X1902699Y27132175D01*
X1692170Y27122431D01*
X1686346Y27121027D01*
X1686343Y27121027D01*
X1493115Y27074459D01*
X1493113Y27074458D01*
X1487282Y27073053D01*
X1481824Y27070571D01*
X1481820Y27070570D01*
X1398744Y27032797D01*
X1295428Y26985822D01*
X1123530Y26863886D01*
X977791Y26711645D01*
X863469Y26534592D01*
X784690Y26339115D01*
X783540Y26333225D01*
X747226Y26147274D01*
X744295Y26132268D01*
X744279Y26126282D01*
X744279Y26126279D01*
X744104Y26059433D01*
X743743Y25921515D01*
X783054Y25714459D01*
X860809Y25518573D01*
X974202Y25340924D01*
X1119142Y25187921D01*
X1124007Y25184431D01*
X1124010Y25184429D01*
X1251562Y25092943D01*
X1290399Y25065087D01*
X1295846Y25062576D01*
X1320753Y25051093D01*
X1374241Y25004408D01*
X1394000Y24936668D01*
X1394000Y24855247D01*
X1393127Y24840437D01*
X1389227Y24807486D01*
X1390919Y24798222D01*
X1390919Y24798221D01*
X1399861Y24749261D01*
X1400511Y24745357D01*
X1409313Y24686807D01*
X1412466Y24680241D01*
X1413774Y24673079D01*
X1441077Y24620518D01*
X1442820Y24617030D01*
X1468456Y24563642D01*
X1473351Y24558347D01*
X1473443Y24558210D01*
X1476756Y24551832D01*
X1482195Y24545464D01*
X1520959Y24506700D01*
X1524388Y24503135D01*
X1561201Y24463311D01*
X1567317Y24459758D01*
X1572914Y24454745D01*
X3963095Y22064564D01*
X3997121Y22002252D01*
X4000000Y21975469D01*
X4000000Y9995940D01*
X3979998Y9927819D01*
X3926342Y9881326D01*
X3922030Y9879595D01*
X3915999Y9878379D01*
X3908347Y9874480D01*
X3908344Y9874479D01*
X3788337Y9813332D01*
X3788334Y9813330D01*
X3780686Y9809433D01*
X3774364Y9803620D01*
X3774363Y9803619D01*
X3752141Y9783185D01*
X3668898Y9706639D01*
X3664370Y9699337D01*
X3664369Y9699335D01*
X3627478Y9639836D01*
X3588871Y9577569D01*
X3546502Y9431733D01*
X3544912Y9279876D01*
X3584218Y9133185D01*
X3661524Y9002468D01*
X3667725Y8996522D01*
X3667726Y8996520D01*
X3750710Y8916941D01*
X3786033Y8855355D01*
X3782452Y8784449D01*
X3741104Y8726735D01*
X3675118Y8700537D01*
X3663500Y8700000D01*
X526000Y8700000D01*
X457879Y8720002D01*
X411386Y8773658D01*
X400000Y8826000D01*
X400000Y11917288D01*
X970500Y11917288D01*
X970500Y11115086D01*
X975136Y11082712D01*
X981277Y11039836D01*
X985979Y11007000D01*
X1045771Y10875496D01*
X1140067Y10766059D01*
X1261289Y10687487D01*
X1337494Y10664697D01*
X1393150Y10648052D01*
X1393152Y10648052D01*
X1399691Y10646096D01*
X1407712Y10645500D01*
X2759914Y10645500D01*
X2802403Y10651585D01*
X2859107Y10659705D01*
X2859110Y10659706D01*
X2868000Y10660979D01*
X2876176Y10664696D01*
X2876178Y10664697D01*
X2926301Y10687487D01*
X2999504Y10720771D01*
X3108941Y10815067D01*
X3187513Y10936289D01*
X3228904Y11074691D01*
X3229500Y11082712D01*
X3229500Y11884914D01*
X3222587Y11933185D01*
X3215295Y11984107D01*
X3215294Y11984110D01*
X3214021Y11993000D01*
X3198743Y12026603D01*
X3174520Y12079876D01*
X3154229Y12124504D01*
X3059933Y12233941D01*
X2938711Y12312513D01*
X2838568Y12342462D01*
X2806850Y12351948D01*
X2806848Y12351948D01*
X2800309Y12353904D01*
X2792288Y12354500D01*
X1440086Y12354500D01*
X1411527Y12350410D01*
X1340893Y12340295D01*
X1340890Y12340294D01*
X1332000Y12339021D01*
X1323824Y12335304D01*
X1323822Y12335303D01*
X1309179Y12328645D01*
X1200496Y12279229D01*
X1091059Y12184933D01*
X1012487Y12063711D01*
X971096Y11925309D01*
X970500Y11917288D01*
X400000Y11917288D01*
X400000Y13547979D01*
X966840Y13547979D01*
X967197Y13541162D01*
X967197Y13541158D01*
X972222Y13445284D01*
X976556Y13362582D01*
X978367Y13356008D01*
X978367Y13356007D01*
X985565Y13329876D01*
X1025857Y13183597D01*
X1112442Y13019374D01*
X1232272Y12877574D01*
X1237696Y12873427D01*
X1237697Y12873426D01*
X1374335Y12768958D01*
X1374339Y12768955D01*
X1379756Y12764814D01*
X1548013Y12686355D01*
X1605983Y12673397D01*
X1724148Y12646983D01*
X1724154Y12646982D01*
X1729192Y12645856D01*
X1735560Y12645500D01*
X2421026Y12645500D01*
X2434678Y12646983D01*
X2458378Y12649558D01*
X2559565Y12660550D01*
X2735519Y12719765D01*
X2894653Y12815383D01*
X2928463Y12847355D01*
X3024581Y12938250D01*
X3029542Y12942941D01*
X3057589Y12984210D01*
X3130059Y13090847D01*
X3130060Y13090849D01*
X3133893Y13096489D01*
X3146325Y13127569D01*
X3200302Y13262522D01*
X3200303Y13262524D01*
X3202838Y13268863D01*
X3229246Y13428379D01*
X3232045Y13445284D01*
X3232045Y13445287D01*
X3233160Y13452021D01*
X3229986Y13512598D01*
X3223801Y13630605D01*
X3223444Y13637418D01*
X3220971Y13646398D01*
X3175956Y13809821D01*
X3174143Y13816403D01*
X3087558Y13980626D01*
X2967728Y14122426D01*
X2939614Y14143921D01*
X2825665Y14231042D01*
X2825661Y14231045D01*
X2820244Y14235186D01*
X2651987Y14313645D01*
X2570764Y14331801D01*
X2475852Y14353017D01*
X2475846Y14353018D01*
X2470808Y14354144D01*
X2464440Y14354500D01*
X1778974Y14354500D01*
X1775578Y14354131D01*
X1775577Y14354131D01*
X1741622Y14350442D01*
X1640435Y14339450D01*
X1464481Y14280235D01*
X1305347Y14184617D01*
X1170458Y14057059D01*
X1166622Y14051414D01*
X1166620Y14051412D01*
X1095848Y13947274D01*
X1066107Y13903511D01*
X1063575Y13897182D01*
X1063574Y13897179D01*
X999698Y13737478D01*
X997162Y13731137D01*
X984974Y13657518D01*
X969002Y13561037D01*
X966840Y13547979D01*
X400000Y13547979D01*
X400000Y15547979D01*
X966840Y15547979D01*
X967197Y15541162D01*
X967197Y15541158D01*
X969573Y15495831D01*
X976556Y15362582D01*
X1025857Y15183597D01*
X1112442Y15019374D01*
X1232272Y14877574D01*
X1237696Y14873427D01*
X1237697Y14873426D01*
X1374335Y14768958D01*
X1374339Y14768955D01*
X1379756Y14764814D01*
X1548013Y14686355D01*
X1629236Y14668199D01*
X1724148Y14646983D01*
X1724154Y14646982D01*
X1729192Y14645856D01*
X1735560Y14645500D01*
X2421026Y14645500D01*
X2434678Y14646983D01*
X2485168Y14652468D01*
X2559565Y14660550D01*
X2735519Y14719765D01*
X2757854Y14733185D01*
X2888801Y14811867D01*
X2894653Y14815383D01*
X2907540Y14827569D01*
X3024581Y14938250D01*
X3029542Y14942941D01*
X3034340Y14950000D01*
X3130059Y15090847D01*
X3130060Y15090849D01*
X3133893Y15096489D01*
X3137494Y15105490D01*
X3200302Y15262522D01*
X3200303Y15262524D01*
X3202838Y15268863D01*
X3233160Y15452021D01*
X3229420Y15523400D01*
X3223801Y15630605D01*
X3223444Y15637418D01*
X3183011Y15784210D01*
X3175956Y15809821D01*
X3174143Y15816403D01*
X3087558Y15980626D01*
X2967728Y16122426D01*
X2953656Y16133185D01*
X2825665Y16231042D01*
X2825661Y16231045D01*
X2820244Y16235186D01*
X2651987Y16313645D01*
X2561225Y16333933D01*
X2475852Y16353017D01*
X2475846Y16353018D01*
X2470808Y16354144D01*
X2464440Y16354500D01*
X1778974Y16354500D01*
X1775578Y16354131D01*
X1775577Y16354131D01*
X1741794Y16350461D01*
X1640435Y16339450D01*
X1464481Y16280235D01*
X1305347Y16184617D01*
X1170458Y16057059D01*
X1166622Y16051414D01*
X1166620Y16051412D01*
X1069941Y15909153D01*
X1066107Y15903511D01*
X1063575Y15897182D01*
X1063574Y15897179D01*
X1028628Y15809807D01*
X997162Y15731137D01*
X984922Y15657200D01*
X968565Y15558396D01*
X966840Y15547979D01*
X400000Y15547979D01*
X400000Y19232601D01*
X749753Y19232601D01*
X771232Y19143476D01*
X775121Y19132181D01*
X857664Y18950638D01*
X863611Y18940296D01*
X978999Y18777629D01*
X986792Y18768600D01*
X1130856Y18630689D01*
X1140221Y18623293D01*
X1307760Y18515114D01*
X1318355Y18509623D01*
X1399666Y18476854D01*
X1455372Y18432839D01*
X1478439Y18365694D01*
X1461542Y18296737D01*
X1417463Y18251984D01*
X1363085Y18219310D01*
X1305347Y18184617D01*
X1170458Y18057059D01*
X1166622Y18051414D01*
X1166620Y18051412D01*
X1069941Y17909153D01*
X1066107Y17903511D01*
X1063575Y17897182D01*
X1063574Y17897179D01*
X1027369Y17806660D01*
X997162Y17731137D01*
X966840Y17547979D01*
X976556Y17362582D01*
X1025857Y17183597D01*
X1112442Y17019374D01*
X1232272Y16877574D01*
X1237696Y16873427D01*
X1237697Y16873426D01*
X1374335Y16768958D01*
X1374339Y16768955D01*
X1379756Y16764814D01*
X1548013Y16686355D01*
X1629236Y16668199D01*
X1724148Y16646983D01*
X1724154Y16646982D01*
X1729192Y16645856D01*
X1735560Y16645500D01*
X2421026Y16645500D01*
X2434678Y16646983D01*
X2458378Y16649558D01*
X2559565Y16660550D01*
X2735519Y16719765D01*
X2763035Y16736298D01*
X2849105Y16788015D01*
X2894653Y16815383D01*
X2925700Y16844742D01*
X2989729Y16905292D01*
X3029542Y16942941D01*
X3077941Y17014157D01*
X3130059Y17090847D01*
X3130060Y17090849D01*
X3133893Y17096489D01*
X3166319Y17177558D01*
X3200302Y17262522D01*
X3200303Y17262524D01*
X3202838Y17268863D01*
X3233160Y17452021D01*
X3231273Y17488038D01*
X3223801Y17630605D01*
X3223444Y17637418D01*
X3174143Y17816403D01*
X3087558Y17980626D01*
X2967728Y18122426D01*
X2931395Y18150205D01*
X2825665Y18231042D01*
X2825661Y18231045D01*
X2820244Y18235186D01*
X2814061Y18238069D01*
X2814058Y18238071D01*
X2800529Y18244380D01*
X2747244Y18291297D01*
X2727784Y18359575D01*
X2748326Y18427534D01*
X2796088Y18470590D01*
X2970956Y18560652D01*
X2981002Y18567102D01*
X3137829Y18690291D01*
X3146479Y18698528D01*
X3277179Y18849147D01*
X3284116Y18858873D01*
X3383974Y19031483D01*
X3388948Y19042347D01*
X3454368Y19230736D01*
X3454606Y19231716D01*
X3453139Y19242008D01*
X3439572Y19246000D01*
X764639Y19246000D01*
X751108Y19242027D01*
X749753Y19232601D01*
X400000Y19232601D01*
X400000Y20834103D01*
X420002Y20902224D01*
X473658Y20948717D01*
X543932Y20958821D01*
X608512Y20929327D01*
X634452Y20898244D01*
X661524Y20852468D01*
X667725Y20846522D01*
X667726Y20846520D01*
X710494Y20805507D01*
X771134Y20747355D01*
X904974Y20675591D01*
X913356Y20673717D01*
X913357Y20673717D01*
X1044797Y20644336D01*
X1044799Y20644336D01*
X1053182Y20642462D01*
X1117467Y20645831D01*
X1119452Y20645935D01*
X1188526Y20629526D01*
X1237763Y20578377D01*
X1251531Y20508728D01*
X1225458Y20442692D01*
X1203879Y20421022D01*
X1062170Y20309709D01*
X1053521Y20301472D01*
X922821Y20150853D01*
X915884Y20141127D01*
X816026Y19968517D01*
X811052Y19957653D01*
X745632Y19769264D01*
X745394Y19768284D01*
X746861Y19757992D01*
X760428Y19754000D01*
X1827885Y19754000D01*
X1843124Y19758475D01*
X1844329Y19759865D01*
X1846000Y19767548D01*
X1846000Y20589885D01*
X1844659Y20594452D01*
X2354000Y20594452D01*
X2354000Y19772115D01*
X2358475Y19756876D01*
X2359865Y19755671D01*
X2367548Y19754000D01*
X3435361Y19754000D01*
X3448892Y19757973D01*
X3450247Y19767399D01*
X3428768Y19856524D01*
X3424879Y19867819D01*
X3342336Y20049362D01*
X3336389Y20059704D01*
X3221001Y20222371D01*
X3213208Y20231400D01*
X3069144Y20369311D01*
X3059779Y20376707D01*
X2892240Y20484886D01*
X2881636Y20490382D01*
X2696678Y20564922D01*
X2685219Y20568316D01*
X2488056Y20606820D01*
X2479088Y20607909D01*
X2478772Y20607925D01*
X2475679Y20608000D01*
X2372115Y20608000D01*
X2356876Y20603525D01*
X2355671Y20602135D01*
X2354000Y20594452D01*
X1844659Y20594452D01*
X1841525Y20605124D01*
X1840135Y20606329D01*
X1832452Y20608000D01*
X1775587Y20608000D01*
X1769610Y20607715D01*
X1620506Y20593489D01*
X1603842Y20590281D01*
X1533168Y20597042D01*
X1477369Y20640940D01*
X1454161Y20708036D01*
X1470912Y20777028D01*
X1483780Y20795335D01*
X1566858Y20893645D01*
X1566860Y20893648D01*
X1572401Y20900205D01*
X1635620Y21038287D01*
X1659377Y21188283D01*
X1659500Y21200000D01*
X1638889Y21350461D01*
X1634820Y21359865D01*
X1581987Y21481955D01*
X1581985Y21481958D01*
X1578576Y21489836D01*
X1483004Y21607858D01*
X1452022Y21629876D01*
X2394912Y21629876D01*
X2434218Y21483185D01*
X2511524Y21352468D01*
X2517725Y21346522D01*
X2517726Y21346520D01*
X2547529Y21317940D01*
X2621134Y21247355D01*
X2754974Y21175591D01*
X2763356Y21173717D01*
X2763357Y21173717D01*
X2894797Y21144336D01*
X2894799Y21144336D01*
X2903182Y21142462D01*
X2998885Y21147478D01*
X3046257Y21149960D01*
X3046258Y21149960D01*
X3054840Y21150410D01*
X3198773Y21198849D01*
X3205878Y21203678D01*
X3205881Y21203679D01*
X3317275Y21279382D01*
X3317276Y21279383D01*
X3324379Y21284210D01*
X3329922Y21290769D01*
X3416858Y21393645D01*
X3416860Y21393648D01*
X3422401Y21400205D01*
X3466493Y21496509D01*
X3482045Y21530478D01*
X3482045Y21530480D01*
X3485620Y21538287D01*
X3509377Y21688283D01*
X3509500Y21700000D01*
X3488889Y21850461D01*
X3464573Y21906652D01*
X3431987Y21981955D01*
X3431985Y21981958D01*
X3428576Y21989836D01*
X3333004Y22107858D01*
X3209214Y22195831D01*
X3066327Y22247274D01*
X3057767Y22247903D01*
X3057765Y22247903D01*
X2965187Y22254701D01*
X2914869Y22258396D01*
X2765999Y22228379D01*
X2758347Y22224480D01*
X2638337Y22163332D01*
X2638334Y22163330D01*
X2630686Y22159433D01*
X2624364Y22153620D01*
X2624363Y22153619D01*
X2567338Y22101182D01*
X2518898Y22056639D01*
X2514370Y22049337D01*
X2514369Y22049335D01*
X2477478Y21989836D01*
X2438871Y21927569D01*
X2396502Y21781733D01*
X2396412Y21773147D01*
X2396412Y21773146D01*
X2395694Y21704575D01*
X2394912Y21629876D01*
X1452022Y21629876D01*
X1359214Y21695831D01*
X1216327Y21747274D01*
X1207767Y21747903D01*
X1207765Y21747903D01*
X1115187Y21754701D01*
X1064869Y21758396D01*
X915999Y21728379D01*
X908347Y21724480D01*
X788337Y21663332D01*
X788334Y21663330D01*
X780686Y21659433D01*
X774364Y21653620D01*
X774363Y21653619D01*
X748543Y21629876D01*
X668898Y21556639D01*
X633086Y21498880D01*
X580190Y21451526D01*
X510089Y21440286D01*
X445040Y21468730D01*
X405694Y21527827D01*
X400000Y21565277D01*
X400000Y28461515D01*
X743743Y28461515D01*
X744861Y28455628D01*
X774045Y28301913D01*
X783054Y28254459D01*
X860809Y28058573D01*
X974202Y27880924D01*
X1119142Y27727921D01*
X1124007Y27724431D01*
X1124010Y27724429D01*
X1274342Y27616604D01*
X1290399Y27605087D01*
X1481794Y27516853D01*
X1487610Y27515419D01*
X1487613Y27515418D01*
X1582066Y27492131D01*
X1686421Y27466402D01*
X1692411Y27466093D01*
X1692413Y27466093D01*
X1766357Y27462283D01*
X1896896Y27455556D01*
X1902831Y27456385D01*
X1902835Y27456385D01*
X2064632Y27478980D01*
X2105624Y27484705D01*
X2249769Y27533916D01*
X2299396Y27550859D01*
X2299398Y27550860D01*
X2305075Y27552798D01*
X2402673Y27608580D01*
X2482844Y27654401D01*
X2482847Y27654403D01*
X2488052Y27657378D01*
X2492601Y27661284D01*
X2492604Y27661286D01*
X2643400Y27790763D01*
X2643402Y27790765D01*
X2647951Y27794671D01*
X2779005Y27959723D01*
X2830573Y28058573D01*
X2873710Y28141261D01*
X2873711Y28141264D01*
X2876484Y28146579D01*
X2936870Y28348497D01*
X2957985Y28558191D01*
X2958000Y28564000D01*
X2937983Y28773801D01*
X2878655Y28976033D01*
X2860447Y29011386D01*
X2784902Y29158066D01*
X2784900Y29158069D01*
X2782156Y29163397D01*
X2720186Y29242289D01*
X2655675Y29324416D01*
X2655671Y29324421D01*
X2651969Y29329133D01*
X2492790Y29467261D01*
X2310364Y29572797D01*
X2304695Y29574766D01*
X2304692Y29574767D01*
X2116942Y29639965D01*
X2111272Y29641934D01*
X2105334Y29642795D01*
X1908639Y29671314D01*
X1908636Y29671314D01*
X1902699Y29672175D01*
X1692170Y29662431D01*
X1686346Y29661027D01*
X1686343Y29661027D01*
X1493115Y29614459D01*
X1493113Y29614458D01*
X1487282Y29613053D01*
X1481824Y29610571D01*
X1481820Y29610570D01*
X1398744Y29572797D01*
X1295428Y29525822D01*
X1123530Y29403886D01*
X977791Y29251645D01*
X863469Y29074592D01*
X784690Y28879115D01*
X744295Y28672268D01*
X743743Y28461515D01*
X400000Y28461515D01*
X400000Y36134103D01*
X420002Y36202224D01*
X473658Y36248717D01*
X543932Y36258821D01*
X608512Y36229327D01*
X634452Y36198244D01*
X661524Y36152468D01*
X667725Y36146522D01*
X667726Y36146520D01*
X710222Y36105768D01*
X771134Y36047355D01*
X904974Y35975591D01*
X913356Y35973717D01*
X913357Y35973717D01*
X1044797Y35944336D01*
X1044799Y35944336D01*
X1053182Y35942462D01*
X1148885Y35947478D01*
X1196257Y35949960D01*
X1196258Y35949960D01*
X1204840Y35950410D01*
X1348773Y35998849D01*
X1355878Y36003678D01*
X1355881Y36003679D01*
X1467275Y36079382D01*
X1467276Y36079383D01*
X1474379Y36084210D01*
X1486901Y36099028D01*
X1566858Y36193645D01*
X1566860Y36193648D01*
X1572401Y36200205D01*
X1635620Y36338287D01*
X1659377Y36488283D01*
X1659500Y36500000D01*
X1657846Y36512076D01*
X2040521Y36512076D01*
X2040693Y36508681D01*
X2040693Y36508680D01*
X2057361Y36179651D01*
X2059452Y36138384D01*
X2059989Y36135029D01*
X2059990Y36135023D01*
X2100926Y35879455D01*
X2118630Y35768922D01*
X2217363Y35408012D01*
X2354498Y35059877D01*
X2356081Y35056862D01*
X2526844Y34731604D01*
X2526849Y34731596D01*
X2528428Y34728588D01*
X2530322Y34725770D01*
X2530327Y34725761D01*
X2682879Y34498740D01*
X2737120Y34418021D01*
X2978133Y34131809D01*
X2980593Y34129458D01*
X2980596Y34129455D01*
X3076003Y34038283D01*
X3248647Y33873301D01*
X3545497Y33645520D01*
X3575525Y33627263D01*
X3862296Y33452903D01*
X3862301Y33452900D01*
X3865211Y33451131D01*
X4204048Y33292407D01*
X4558046Y33171207D01*
X4561369Y33170458D01*
X4561373Y33170457D01*
X4617280Y33157858D01*
X4923064Y33088947D01*
X5009937Y33079049D01*
X5291447Y33046974D01*
X5291455Y33046974D01*
X5294830Y33046589D01*
X5298234Y33046571D01*
X5298237Y33046571D01*
X5501609Y33045506D01*
X5668996Y33044630D01*
X5672382Y33044980D01*
X5672384Y33044980D01*
X6037793Y33082741D01*
X6037802Y33082742D01*
X6041185Y33083092D01*
X6044518Y33083807D01*
X6044521Y33083807D01*
X6322054Y33143305D01*
X6407043Y33161525D01*
X6762291Y33279012D01*
X7102773Y33434179D01*
X7263966Y33529888D01*
X7421560Y33623460D01*
X7421565Y33623463D01*
X7424505Y33625209D01*
X7430063Y33629382D01*
X7588209Y33748121D01*
X7654694Y33773027D01*
X7724090Y33758035D01*
X7774363Y33707904D01*
X7780016Y33696190D01*
X7781994Y33691483D01*
X7784218Y33683185D01*
X7788591Y33675791D01*
X7788592Y33675788D01*
X7806493Y33645520D01*
X7861524Y33552468D01*
X7867725Y33546522D01*
X7867726Y33546520D01*
X7876110Y33538480D01*
X7971134Y33447355D01*
X8104974Y33375591D01*
X8113356Y33373717D01*
X8113357Y33373717D01*
X8244797Y33344336D01*
X8244799Y33344336D01*
X8253182Y33342462D01*
X8348885Y33347478D01*
X8396257Y33349960D01*
X8396258Y33349960D01*
X8404840Y33350410D01*
X8548773Y33398849D01*
X8555878Y33403678D01*
X8555881Y33403679D01*
X8667275Y33479382D01*
X8667276Y33479383D01*
X8674379Y33484210D01*
X8679922Y33490769D01*
X8766858Y33593645D01*
X8766860Y33593648D01*
X8772401Y33600205D01*
X8815181Y33693645D01*
X8832045Y33730478D01*
X8832045Y33730480D01*
X8835620Y33738287D01*
X8859377Y33888283D01*
X8859500Y33900000D01*
X8855407Y33929876D01*
X16694912Y33929876D01*
X16734218Y33783185D01*
X16811524Y33652468D01*
X16817725Y33646522D01*
X16817726Y33646520D01*
X16837807Y33627263D01*
X16921134Y33547355D01*
X17054974Y33475591D01*
X17063356Y33473717D01*
X17063357Y33473717D01*
X17194797Y33444336D01*
X17194799Y33444336D01*
X17203182Y33442462D01*
X17298885Y33447478D01*
X17346257Y33449960D01*
X17346258Y33449960D01*
X17354840Y33450410D01*
X17498773Y33498849D01*
X17505878Y33503678D01*
X17505881Y33503679D01*
X17617275Y33579382D01*
X17617276Y33579383D01*
X17624379Y33584210D01*
X17632352Y33593645D01*
X17716858Y33693645D01*
X17716860Y33693648D01*
X17722401Y33700205D01*
X17779897Y33825786D01*
X17782045Y33830478D01*
X17782045Y33830480D01*
X17785620Y33838287D01*
X17808045Y33979876D01*
X18644912Y33979876D01*
X18684218Y33833185D01*
X18761524Y33702468D01*
X18767725Y33696522D01*
X18767726Y33696520D01*
X18789345Y33675788D01*
X18871134Y33597355D01*
X19004974Y33525591D01*
X19013356Y33523717D01*
X19013357Y33523717D01*
X19144797Y33494336D01*
X19144799Y33494336D01*
X19153182Y33492462D01*
X19248885Y33497478D01*
X19296257Y33499960D01*
X19296258Y33499960D01*
X19304840Y33500410D01*
X19448773Y33548849D01*
X19455878Y33553678D01*
X19455881Y33553679D01*
X19567275Y33629382D01*
X19567276Y33629383D01*
X19574379Y33634210D01*
X19584782Y33646520D01*
X19666858Y33743645D01*
X19666860Y33743648D01*
X19672401Y33750205D01*
X19735620Y33888287D01*
X19750126Y33979876D01*
X20244912Y33979876D01*
X20284218Y33833185D01*
X20361524Y33702468D01*
X20367725Y33696522D01*
X20367726Y33696520D01*
X20389345Y33675788D01*
X20471134Y33597355D01*
X20604974Y33525591D01*
X20613356Y33523717D01*
X20613357Y33523717D01*
X20744797Y33494336D01*
X20744799Y33494336D01*
X20753182Y33492462D01*
X20848885Y33497478D01*
X20896257Y33499960D01*
X20896258Y33499960D01*
X20904840Y33500410D01*
X21048773Y33548849D01*
X21055878Y33553678D01*
X21055881Y33553679D01*
X21167275Y33629382D01*
X21167276Y33629383D01*
X21174379Y33634210D01*
X21184782Y33646520D01*
X21266858Y33743645D01*
X21266860Y33743648D01*
X21272401Y33750205D01*
X21335620Y33888287D01*
X21359377Y34038283D01*
X21359500Y34050000D01*
X21338889Y34200461D01*
X21330727Y34219322D01*
X21281987Y34331955D01*
X21281985Y34331958D01*
X21278576Y34339836D01*
X21183004Y34457858D01*
X21059214Y34545831D01*
X20916327Y34597274D01*
X20907767Y34597903D01*
X20907765Y34597903D01*
X20815187Y34604701D01*
X20764869Y34608396D01*
X20615999Y34578379D01*
X20608347Y34574480D01*
X20488337Y34513332D01*
X20488334Y34513330D01*
X20480686Y34509433D01*
X20474364Y34503620D01*
X20474363Y34503619D01*
X20417338Y34451182D01*
X20368898Y34406639D01*
X20364370Y34399337D01*
X20364369Y34399335D01*
X20300614Y34296509D01*
X20288871Y34277569D01*
X20246502Y34131733D01*
X20244912Y33979876D01*
X19750126Y33979876D01*
X19759377Y34038283D01*
X19759500Y34050000D01*
X19738889Y34200461D01*
X19730727Y34219322D01*
X19681987Y34331955D01*
X19681985Y34331958D01*
X19678576Y34339836D01*
X19583004Y34457858D01*
X19459214Y34545831D01*
X19316327Y34597274D01*
X19307767Y34597903D01*
X19307765Y34597903D01*
X19215187Y34604701D01*
X19164869Y34608396D01*
X19015999Y34578379D01*
X19008347Y34574480D01*
X18888337Y34513332D01*
X18888334Y34513330D01*
X18880686Y34509433D01*
X18874364Y34503620D01*
X18874363Y34503619D01*
X18817338Y34451182D01*
X18768898Y34406639D01*
X18764370Y34399337D01*
X18764369Y34399335D01*
X18700614Y34296509D01*
X18688871Y34277569D01*
X18646502Y34131733D01*
X18644912Y33979876D01*
X17808045Y33979876D01*
X17809377Y33988283D01*
X17809500Y34000000D01*
X17788889Y34150461D01*
X17783844Y34162119D01*
X17731987Y34281955D01*
X17731985Y34281958D01*
X17728576Y34289836D01*
X17633004Y34407858D01*
X17509214Y34495831D01*
X17366327Y34547274D01*
X17357767Y34547903D01*
X17357765Y34547903D01*
X17265187Y34554701D01*
X17214869Y34558396D01*
X17065999Y34528379D01*
X17058347Y34524480D01*
X16938337Y34463332D01*
X16938334Y34463330D01*
X16930686Y34459433D01*
X16924364Y34453620D01*
X16924363Y34453619D01*
X16861519Y34395831D01*
X16818898Y34356639D01*
X16814370Y34349337D01*
X16814369Y34349335D01*
X16772592Y34281955D01*
X16738871Y34227569D01*
X16696502Y34081733D01*
X16694912Y33929876D01*
X8855407Y33929876D01*
X8838889Y34050461D01*
X8833314Y34063344D01*
X8781987Y34181955D01*
X8781985Y34181958D01*
X8778576Y34189836D01*
X8683004Y34307858D01*
X8559214Y34395831D01*
X8461375Y34431055D01*
X8404059Y34472950D01*
X8378490Y34539183D01*
X8392788Y34608725D01*
X8400218Y34620973D01*
X8450928Y34694758D01*
X8452859Y34697567D01*
X8454471Y34700561D01*
X8454476Y34700569D01*
X8628633Y35024016D01*
X8630249Y35027017D01*
X8631525Y35030160D01*
X8631529Y35030168D01*
X8769744Y35370549D01*
X8769746Y35370553D01*
X8771022Y35373697D01*
X8873529Y35733553D01*
X8909239Y35942462D01*
X8936001Y36099028D01*
X8936001Y36099030D01*
X8936573Y36102375D01*
X8938776Y36138384D01*
X8959306Y36474052D01*
X8959416Y36475848D01*
X8959459Y36488283D01*
X8959494Y36498179D01*
X8959494Y36498191D01*
X8959500Y36500000D01*
X8939265Y36873624D01*
X8912507Y37037025D01*
X11015938Y37037025D01*
X11017102Y37028123D01*
X11017102Y37028120D01*
X11033504Y36902690D01*
X11033505Y36902686D01*
X11034669Y36893785D01*
X11092849Y36761561D01*
X11098626Y36754688D01*
X11098627Y36754687D01*
X11158277Y36683725D01*
X11185802Y36650980D01*
X11306055Y36570933D01*
X11443941Y36527854D01*
X11588375Y36525207D01*
X11667464Y36546769D01*
X11719088Y36560843D01*
X11719090Y36560844D01*
X11727747Y36563204D01*
X11850852Y36638791D01*
X11947795Y36745891D01*
X11987492Y36827827D01*
X12006867Y36867816D01*
X12006867Y36867817D01*
X12010781Y36875895D01*
X12034748Y37018352D01*
X12034900Y37030800D01*
X12034009Y37037025D01*
X15015938Y37037025D01*
X15017102Y37028123D01*
X15017102Y37028120D01*
X15033504Y36902690D01*
X15033505Y36902686D01*
X15034669Y36893785D01*
X15092849Y36761561D01*
X15098626Y36754688D01*
X15098627Y36754687D01*
X15158277Y36683725D01*
X15185802Y36650980D01*
X15306055Y36570933D01*
X15443941Y36527854D01*
X15588375Y36525207D01*
X15667464Y36546769D01*
X15719088Y36560843D01*
X15719090Y36560844D01*
X15727747Y36563204D01*
X15836333Y36629876D01*
X17544912Y36629876D01*
X17584218Y36483185D01*
X17661524Y36352468D01*
X17667725Y36346522D01*
X17667726Y36346520D01*
X17684455Y36330478D01*
X17771134Y36247355D01*
X17904974Y36175591D01*
X17913356Y36173717D01*
X17913357Y36173717D01*
X18044797Y36144336D01*
X18044799Y36144336D01*
X18053182Y36142462D01*
X18148885Y36147478D01*
X18196257Y36149960D01*
X18196258Y36149960D01*
X18204840Y36150410D01*
X18348773Y36198849D01*
X18355878Y36203678D01*
X18355881Y36203679D01*
X18467275Y36279382D01*
X18467276Y36279383D01*
X18474379Y36284210D01*
X18520077Y36338287D01*
X18566858Y36393645D01*
X18566860Y36393648D01*
X18572401Y36400205D01*
X18618918Y36501807D01*
X18632045Y36530478D01*
X18632045Y36530480D01*
X18635620Y36538287D01*
X18659377Y36688283D01*
X18659500Y36700000D01*
X18638889Y36850461D01*
X18630338Y36870222D01*
X18581987Y36981955D01*
X18581985Y36981958D01*
X18578576Y36989836D01*
X18483004Y37107858D01*
X18378707Y37181978D01*
X18366216Y37190855D01*
X18359214Y37195831D01*
X18216327Y37247274D01*
X18207767Y37247903D01*
X18207765Y37247903D01*
X18115187Y37254701D01*
X18064869Y37258396D01*
X17915999Y37228379D01*
X17908347Y37224480D01*
X17788337Y37163332D01*
X17788334Y37163330D01*
X17780686Y37159433D01*
X17668898Y37056639D01*
X17664370Y37049337D01*
X17664369Y37049335D01*
X17605023Y36953619D01*
X17588871Y36927569D01*
X17546502Y36781733D01*
X17544912Y36629876D01*
X15836333Y36629876D01*
X15850852Y36638791D01*
X15947795Y36745891D01*
X15987492Y36827827D01*
X16006867Y36867816D01*
X16006867Y36867817D01*
X16010781Y36875895D01*
X16034748Y37018352D01*
X16034900Y37030800D01*
X16023152Y37112835D01*
X16015695Y37164907D01*
X16015694Y37164910D01*
X16014421Y37173800D01*
X16006667Y37190855D01*
X15979179Y37251309D01*
X15954629Y37305304D01*
X15944332Y37317255D01*
X15866192Y37407941D01*
X15860333Y37414741D01*
X15739111Y37493313D01*
X15600709Y37534704D01*
X15591733Y37534759D01*
X15591732Y37534759D01*
X15530455Y37535133D01*
X15456253Y37535586D01*
X15317356Y37495889D01*
X15195183Y37418804D01*
X15099556Y37310527D01*
X15038163Y37179763D01*
X15036782Y37170894D01*
X15017534Y37047274D01*
X15015938Y37037025D01*
X12034009Y37037025D01*
X12023152Y37112835D01*
X12015695Y37164907D01*
X12015694Y37164910D01*
X12014421Y37173800D01*
X12006667Y37190855D01*
X11979179Y37251309D01*
X11954629Y37305304D01*
X11944332Y37317255D01*
X11866192Y37407941D01*
X11860333Y37414741D01*
X11739111Y37493313D01*
X11600709Y37534704D01*
X11591733Y37534759D01*
X11591732Y37534759D01*
X11530455Y37535133D01*
X11456253Y37535586D01*
X11317356Y37495889D01*
X11195183Y37418804D01*
X11099556Y37310527D01*
X11038163Y37179763D01*
X11036782Y37170894D01*
X11017534Y37047274D01*
X11015938Y37037025D01*
X8912507Y37037025D01*
X8878798Y37242877D01*
X8778805Y37603440D01*
X8777547Y37606602D01*
X8777544Y37606610D01*
X8641715Y37947930D01*
X8640456Y37951094D01*
X8574538Y38075591D01*
X8466969Y38278755D01*
X8466965Y38278762D01*
X8465370Y38281774D01*
X8463463Y38284590D01*
X8463458Y38284599D01*
X8257505Y38588790D01*
X8257505Y38588791D01*
X8255595Y38591611D01*
X8013585Y38876979D01*
X7742171Y39134542D01*
X7739464Y39136604D01*
X7739456Y39136611D01*
X7571456Y39264591D01*
X7444527Y39361285D01*
X7411351Y39381298D01*
X7127052Y39552799D01*
X7127046Y39552802D01*
X7124137Y39554557D01*
X6784747Y39712097D01*
X6620954Y39767538D01*
X6433564Y39830966D01*
X6433559Y39830968D01*
X6430328Y39832061D01*
X6420662Y39834204D01*
X6341478Y39851758D01*
X6065026Y39913046D01*
X5932816Y39927642D01*
X5696495Y39953733D01*
X5696490Y39953733D01*
X5693114Y39954106D01*
X5689715Y39954112D01*
X5689714Y39954112D01*
X5513001Y39954420D01*
X5318944Y39954759D01*
X5179866Y39939896D01*
X4950275Y39915360D01*
X4950269Y39915359D01*
X4946891Y39914998D01*
X4581309Y39835288D01*
X4226473Y39716562D01*
X4223380Y39715140D01*
X4223379Y39715139D01*
X4216765Y39712097D01*
X3886535Y39560208D01*
X3883601Y39558452D01*
X3883599Y39558451D01*
X3568400Y39369808D01*
X3568392Y39369802D01*
X3565472Y39368055D01*
X3267039Y39142352D01*
X3264559Y39140015D01*
X2999075Y38889836D01*
X2994727Y38885739D01*
X2992510Y38883144D01*
X2992505Y38883138D01*
X2945045Y38827569D01*
X2751723Y38601217D01*
X2540867Y38292114D01*
X2364628Y37962048D01*
X2363353Y37958876D01*
X2363351Y37958872D01*
X2319684Y37850245D01*
X2225067Y37614878D01*
X2224149Y37611610D01*
X2224146Y37611603D01*
X2124864Y37258396D01*
X2123816Y37254667D01*
X2123254Y37251310D01*
X2123254Y37251309D01*
X2067699Y36919322D01*
X2062060Y36885627D01*
X2040521Y36512076D01*
X1657846Y36512076D01*
X1638889Y36650461D01*
X1635477Y36658346D01*
X1581987Y36781955D01*
X1581985Y36781958D01*
X1578576Y36789836D01*
X1483004Y36907858D01*
X1359214Y36995831D01*
X1216327Y37047274D01*
X1207767Y37047903D01*
X1207765Y37047903D01*
X1115187Y37054701D01*
X1064869Y37058396D01*
X915999Y37028379D01*
X908347Y37024480D01*
X788337Y36963332D01*
X788334Y36963330D01*
X780686Y36959433D01*
X668898Y36856639D01*
X633086Y36798880D01*
X580190Y36751526D01*
X510089Y36740286D01*
X445040Y36768730D01*
X405694Y36827827D01*
X400000Y36865277D01*
X400000Y37782124D01*
X420002Y37850245D01*
X436905Y37871219D01*
X3295562Y40729876D01*
X4944912Y40729876D01*
X4984218Y40583185D01*
X5061524Y40452468D01*
X5067725Y40446522D01*
X5067726Y40446520D01*
X5071958Y40442462D01*
X5171134Y40347355D01*
X5304974Y40275591D01*
X5313356Y40273717D01*
X5313357Y40273717D01*
X5444797Y40244336D01*
X5444799Y40244336D01*
X5453182Y40242462D01*
X5548885Y40247478D01*
X5596257Y40249960D01*
X5596258Y40249960D01*
X5604840Y40250410D01*
X5748773Y40298849D01*
X5755878Y40303678D01*
X5755881Y40303679D01*
X5867275Y40379382D01*
X5867276Y40379383D01*
X5874379Y40384210D01*
X5923605Y40442462D01*
X5966858Y40493645D01*
X5966860Y40493648D01*
X5972401Y40500205D01*
X6014192Y40591485D01*
X6032045Y40630478D01*
X6032045Y40630480D01*
X6035620Y40638287D01*
X6050126Y40729876D01*
X7194912Y40729876D01*
X7234218Y40583185D01*
X7311524Y40452468D01*
X7317725Y40446522D01*
X7317726Y40446520D01*
X7321958Y40442462D01*
X7421134Y40347355D01*
X7554974Y40275591D01*
X7563356Y40273717D01*
X7563357Y40273717D01*
X7694797Y40244336D01*
X7694799Y40244336D01*
X7703182Y40242462D01*
X7798885Y40247478D01*
X7846257Y40249960D01*
X7846258Y40249960D01*
X7854840Y40250410D01*
X7998773Y40298849D01*
X8005878Y40303678D01*
X8005881Y40303679D01*
X8117275Y40379382D01*
X8117276Y40379383D01*
X8124379Y40384210D01*
X8173605Y40442462D01*
X8216858Y40493645D01*
X8216860Y40493648D01*
X8222401Y40500205D01*
X8264192Y40591485D01*
X8282045Y40630478D01*
X8282045Y40630480D01*
X8285620Y40638287D01*
X8309377Y40788283D01*
X8309500Y40800000D01*
X8288889Y40950461D01*
X8285477Y40958346D01*
X8231987Y41081955D01*
X8231985Y41081958D01*
X8228576Y41089836D01*
X8133004Y41207858D01*
X8009214Y41295831D01*
X7866327Y41347274D01*
X7857767Y41347903D01*
X7857765Y41347903D01*
X7851838Y41348338D01*
X7785365Y41373276D01*
X7755769Y41412969D01*
X7745959Y41391488D01*
X7686233Y41353104D01*
X7675638Y41350486D01*
X7565999Y41328379D01*
X7558347Y41324480D01*
X7438337Y41263332D01*
X7438334Y41263330D01*
X7430686Y41259433D01*
X7424364Y41253620D01*
X7424363Y41253619D01*
X7403973Y41234869D01*
X7318898Y41156639D01*
X7314370Y41149337D01*
X7314369Y41149335D01*
X7277567Y41089979D01*
X7238871Y41027569D01*
X7196502Y40881733D01*
X7194912Y40729876D01*
X6050126Y40729876D01*
X6059377Y40788283D01*
X6059500Y40800000D01*
X6038889Y40950461D01*
X6035477Y40958346D01*
X5981987Y41081955D01*
X5981985Y41081958D01*
X5978576Y41089836D01*
X5883004Y41207858D01*
X5759214Y41295831D01*
X5616327Y41347274D01*
X5607767Y41347903D01*
X5607765Y41347903D01*
X5601838Y41348338D01*
X5535365Y41373276D01*
X5505769Y41412969D01*
X5495959Y41391488D01*
X5436233Y41353104D01*
X5425638Y41350486D01*
X5315999Y41328379D01*
X5308347Y41324480D01*
X5188337Y41263332D01*
X5188334Y41263330D01*
X5180686Y41259433D01*
X5174364Y41253620D01*
X5174363Y41253619D01*
X5153973Y41234869D01*
X5068898Y41156639D01*
X5064370Y41149337D01*
X5064369Y41149335D01*
X5027567Y41089979D01*
X4988871Y41027569D01*
X4946502Y40881733D01*
X4944912Y40729876D01*
X3295562Y40729876D01*
X4128781Y41563095D01*
X4191093Y41597121D01*
X4217876Y41600000D01*
X5400735Y41600000D01*
X5468856Y41579998D01*
G37*
G04 #@! TD.AperFunction*
G04 #@! TA.AperFunction,Conductor*
G36*
X27417877Y41579998D02*
G01*
X27464370Y41526342D01*
X27474474Y41456068D01*
X27452843Y41401550D01*
X27397629Y41322988D01*
X27337973Y41169980D01*
X27336981Y41162447D01*
X27336981Y41162446D01*
X27318020Y41018419D01*
X27316537Y41007157D01*
X27323274Y40946140D01*
X27331715Y40869686D01*
X27334559Y40843922D01*
X27390997Y40689697D01*
X27395234Y40683391D01*
X27395236Y40683388D01*
X27434499Y40624960D01*
X27482594Y40553387D01*
X27488212Y40548275D01*
X27598440Y40447974D01*
X27598444Y40447971D01*
X27604061Y40442860D01*
X27748387Y40364498D01*
X27907238Y40322824D01*
X27993884Y40321463D01*
X28063848Y40320363D01*
X28063851Y40320363D01*
X28071445Y40320244D01*
X28128186Y40333239D01*
X28224124Y40355212D01*
X28224128Y40355213D01*
X28231527Y40356908D01*
X28304512Y40393616D01*
X28371460Y40427286D01*
X28371463Y40427288D01*
X28378243Y40430698D01*
X28384015Y40435627D01*
X28384017Y40435629D01*
X28497346Y40532421D01*
X28497350Y40532425D01*
X28503122Y40537355D01*
X28574024Y40636025D01*
X28594524Y40664553D01*
X28594525Y40664554D01*
X28598956Y40670721D01*
X28660210Y40823097D01*
X28683350Y40985686D01*
X28683500Y41000000D01*
X28663770Y41163038D01*
X28605720Y41316663D01*
X28599413Y41325840D01*
X28546635Y41402633D01*
X28524535Y41470103D01*
X28542421Y41538810D01*
X28594613Y41586940D01*
X28650475Y41600000D01*
X37782124Y41600000D01*
X37850245Y41579998D01*
X37871219Y41563095D01*
X41563095Y37871219D01*
X41597121Y37808907D01*
X41600000Y37782124D01*
X41600000Y4217876D01*
X41579998Y4149755D01*
X41563095Y4128781D01*
X37871219Y436905D01*
X37808907Y402879D01*
X37782124Y400000D01*
X15126000Y400000D01*
X15057879Y420002D01*
X15011386Y473658D01*
X15000000Y526000D01*
X15000000Y2082858D01*
X15669829Y2082858D01*
X15681617Y1981744D01*
X15684963Y1967591D01*
X15740263Y1815239D01*
X15746773Y1802240D01*
X15835641Y1666694D01*
X15844965Y1655542D01*
X15962629Y1544078D01*
X15974276Y1535365D01*
X16114429Y1453957D01*
X16127754Y1448163D01*
X16283700Y1400932D01*
X16296323Y1398484D01*
X16366184Y1392249D01*
X16371779Y1392000D01*
X16631885Y1392000D01*
X16647124Y1396475D01*
X16648329Y1397865D01*
X16650000Y1405548D01*
X16650000Y2081885D01*
X16648659Y2086452D01*
X17450000Y2086452D01*
X17450000Y1410115D01*
X17454475Y1394876D01*
X17455865Y1393671D01*
X17463548Y1392000D01*
X17714223Y1392000D01*
X17721524Y1392424D01*
X17843255Y1406617D01*
X17857410Y1409963D01*
X18009761Y1465263D01*
X18022760Y1471773D01*
X18158306Y1560641D01*
X18169458Y1569965D01*
X18280922Y1687629D01*
X18289635Y1699276D01*
X18371043Y1839429D01*
X18376837Y1852754D01*
X18424068Y2008700D01*
X18426516Y2021323D01*
X18432007Y2082858D01*
X21869829Y2082858D01*
X21881617Y1981744D01*
X21884963Y1967591D01*
X21940263Y1815239D01*
X21946773Y1802240D01*
X22035641Y1666694D01*
X22044965Y1655542D01*
X22162629Y1544078D01*
X22174276Y1535365D01*
X22314429Y1453957D01*
X22327754Y1448163D01*
X22483700Y1400932D01*
X22496323Y1398484D01*
X22566184Y1392249D01*
X22571779Y1392000D01*
X22831885Y1392000D01*
X22847124Y1396475D01*
X22848329Y1397865D01*
X22850000Y1405548D01*
X22850000Y2081885D01*
X22848659Y2086452D01*
X23650000Y2086452D01*
X23650000Y1410115D01*
X23654475Y1394876D01*
X23655865Y1393671D01*
X23663548Y1392000D01*
X23914223Y1392000D01*
X23921524Y1392424D01*
X24043255Y1406617D01*
X24057410Y1409963D01*
X24209761Y1465263D01*
X24222760Y1471773D01*
X24358306Y1560641D01*
X24369458Y1569965D01*
X24480922Y1687629D01*
X24489635Y1699276D01*
X24571043Y1839429D01*
X24576837Y1852754D01*
X24624068Y2008700D01*
X24626516Y2021323D01*
X24632172Y2084703D01*
X24628525Y2097124D01*
X24627135Y2098329D01*
X24619452Y2100000D01*
X23668115Y2100000D01*
X23652876Y2095525D01*
X23651671Y2094135D01*
X23650000Y2086452D01*
X22848659Y2086452D01*
X22845525Y2097124D01*
X22844135Y2098329D01*
X22836452Y2100000D01*
X21885945Y2100000D01*
X21871877Y2095869D01*
X21869829Y2082858D01*
X18432007Y2082858D01*
X18432172Y2084703D01*
X18428525Y2097124D01*
X18427135Y2098329D01*
X18419452Y2100000D01*
X17468115Y2100000D01*
X17452876Y2095525D01*
X17451671Y2094135D01*
X17450000Y2086452D01*
X16648659Y2086452D01*
X16645525Y2097124D01*
X16644135Y2098329D01*
X16636452Y2100000D01*
X15685945Y2100000D01*
X15671877Y2095869D01*
X15669829Y2082858D01*
X15000000Y2082858D01*
X15000000Y2915297D01*
X15667828Y2915297D01*
X15671475Y2902876D01*
X15672865Y2901671D01*
X15680548Y2900000D01*
X18414055Y2900000D01*
X18428123Y2904131D01*
X18429881Y2915297D01*
X21867828Y2915297D01*
X21871475Y2902876D01*
X21872865Y2901671D01*
X21880548Y2900000D01*
X24614055Y2900000D01*
X24628123Y2904131D01*
X24630171Y2917142D01*
X24618383Y3018256D01*
X24615037Y3032409D01*
X24559737Y3184761D01*
X24553227Y3197760D01*
X24464359Y3333306D01*
X24455035Y3344458D01*
X24337371Y3455922D01*
X24325724Y3464635D01*
X24179246Y3549717D01*
X24180723Y3552259D01*
X24136493Y3589185D01*
X24115244Y3656927D01*
X24133993Y3725404D01*
X24159226Y3754908D01*
X24232379Y3817607D01*
X24232380Y3817608D01*
X24237223Y3821759D01*
X24241132Y3826798D01*
X24355143Y3973780D01*
X24355145Y3973783D01*
X24359055Y3978824D01*
X24366943Y3994853D01*
X24443998Y4151450D01*
X24446817Y4157179D01*
X24496923Y4349538D01*
X24502625Y4458337D01*
X24506992Y4541663D01*
X24506992Y4541667D01*
X24507326Y4548044D01*
X24477602Y4744587D01*
X24457214Y4800000D01*
X27316500Y4800000D01*
X27316500Y2700000D01*
X27328235Y2605856D01*
X27378947Y2490245D01*
X27386020Y2482562D01*
X27386021Y2482560D01*
X27457226Y2405211D01*
X27464449Y2397365D01*
X27473634Y2392395D01*
X27473633Y2392395D01*
X27566295Y2342248D01*
X27566298Y2342247D01*
X27575478Y2337279D01*
X27658778Y2323379D01*
X27694863Y2317357D01*
X27694866Y2317357D01*
X27700000Y2316500D01*
X29800000Y2316500D01*
X29894144Y2328235D01*
X30009755Y2378947D01*
X30017438Y2386020D01*
X30017440Y2386021D01*
X30094951Y2457375D01*
X30094952Y2457376D01*
X30102635Y2464449D01*
X30120104Y2496729D01*
X30170117Y2547120D01*
X30239434Y2562472D01*
X30303907Y2539466D01*
X30485550Y2410379D01*
X30494220Y2405211D01*
X30710073Y2298997D01*
X30719468Y2295277D01*
X30949521Y2224943D01*
X30959391Y2222773D01*
X31197728Y2190125D01*
X31207820Y2189561D01*
X31448317Y2195438D01*
X31458351Y2196493D01*
X31694827Y2240748D01*
X31704565Y2243394D01*
X31930918Y2324886D01*
X31940111Y2329056D01*
X32056254Y2393435D01*
X32066162Y2403469D01*
X32063288Y2411027D01*
X30813410Y3660905D01*
X30779384Y3723217D01*
X30781219Y3748868D01*
X31860883Y3748868D01*
X31861014Y3747035D01*
X31865265Y3740420D01*
X32626589Y2979096D01*
X32638969Y2972336D01*
X32647702Y2978874D01*
X32656884Y2992799D01*
X32661740Y3001631D01*
X32760362Y3221073D01*
X32763746Y3230576D01*
X32826014Y3462967D01*
X32827833Y3472879D01*
X32852367Y3714413D01*
X32852687Y3720137D01*
X32852970Y3747143D01*
X32852771Y3752848D01*
X32833300Y3994853D01*
X32831688Y4004805D01*
X32774300Y4238445D01*
X32771117Y4248015D01*
X32677113Y4469474D01*
X32672439Y4478415D01*
X32647957Y4517290D01*
X32637386Y4526622D01*
X32628225Y4522540D01*
X31868497Y3762812D01*
X31860883Y3748868D01*
X30781219Y3748868D01*
X30784449Y3794032D01*
X30813410Y3839095D01*
X32059066Y5084751D01*
X32065826Y5097131D01*
X32060580Y5104139D01*
X31969721Y5157020D01*
X31960626Y5161377D01*
X31736020Y5247596D01*
X31726348Y5250443D01*
X31490850Y5299640D01*
X31480841Y5300905D01*
X31240506Y5311818D01*
X31230428Y5311467D01*
X30991445Y5283815D01*
X30981534Y5281853D01*
X30750051Y5216350D01*
X30740600Y5212836D01*
X30522551Y5111158D01*
X30513787Y5106179D01*
X30314804Y4970950D01*
X30311430Y4968237D01*
X30245807Y4941141D01*
X30175953Y4953824D01*
X30126996Y4997516D01*
X30125248Y5000191D01*
X30121053Y5009755D01*
X30074965Y5059820D01*
X30042625Y5094951D01*
X30042624Y5094952D01*
X30035551Y5102635D01*
X29993766Y5125248D01*
X29933705Y5157752D01*
X29933702Y5157753D01*
X29924522Y5162721D01*
X29831516Y5178241D01*
X29805137Y5182643D01*
X29805134Y5182643D01*
X29800000Y5183500D01*
X27700000Y5183500D01*
X27605856Y5171765D01*
X27490245Y5121053D01*
X27482562Y5113980D01*
X27482560Y5113979D01*
X27461569Y5094655D01*
X27397365Y5035551D01*
X27392395Y5026367D01*
X27342248Y4933705D01*
X27342247Y4933702D01*
X27337279Y4924522D01*
X27316500Y4800000D01*
X24457214Y4800000D01*
X24408964Y4931138D01*
X24405606Y4936554D01*
X24405604Y4936558D01*
X24307580Y5094655D01*
X24307577Y5094659D01*
X24304217Y5100078D01*
X24230302Y5178241D01*
X24172028Y5239864D01*
X24172027Y5239865D01*
X24167639Y5244505D01*
X24070598Y5312454D01*
X32921411Y5312454D01*
X32921764Y5309128D01*
X32921764Y5309119D01*
X32961249Y4936579D01*
X32961603Y4933241D01*
X33041863Y4560445D01*
X33042909Y4557274D01*
X33042910Y4557269D01*
X33154825Y4217876D01*
X33161284Y4198289D01*
X33318514Y3850874D01*
X33320209Y3847990D01*
X33320212Y3847985D01*
X33378480Y3748868D01*
X33511770Y3522134D01*
X33513768Y3519439D01*
X33727906Y3230576D01*
X33738866Y3215791D01*
X33741140Y3213322D01*
X33741142Y3213320D01*
X33789732Y3160571D01*
X33997229Y2935315D01*
X33999757Y2933098D01*
X33999758Y2933097D01*
X34281418Y2686088D01*
X34281423Y2686084D01*
X34283934Y2683882D01*
X34595733Y2464339D01*
X34598650Y2462719D01*
X34598656Y2462715D01*
X34702475Y2405049D01*
X34929097Y2279172D01*
X35280250Y2130477D01*
X35283460Y2129505D01*
X35283465Y2129503D01*
X35400242Y2094135D01*
X35645215Y2019940D01*
X35648498Y2019317D01*
X35648505Y2019315D01*
X35845677Y1981881D01*
X36019861Y1948812D01*
X36399943Y1917897D01*
X36630351Y1923730D01*
X36777802Y1927462D01*
X36777803Y1927462D01*
X36781158Y1927547D01*
X36784483Y1927988D01*
X36784487Y1927988D01*
X37155870Y1977211D01*
X37155869Y1977211D01*
X37159190Y1977651D01*
X37162441Y1978440D01*
X37162449Y1978442D01*
X37526496Y2066851D01*
X37526501Y2066853D01*
X37529756Y2067643D01*
X37532912Y2068776D01*
X37532915Y2068777D01*
X37885502Y2195368D01*
X37885509Y2195371D01*
X37888662Y2196503D01*
X38160556Y2328235D01*
X38228811Y2361304D01*
X38228818Y2361308D01*
X38231842Y2362773D01*
X38287309Y2397365D01*
X38383531Y2457375D01*
X38555411Y2564569D01*
X38855704Y2799606D01*
X38858110Y2801942D01*
X38858115Y2801946D01*
X39040372Y2978874D01*
X39129321Y3065222D01*
X39373163Y3358410D01*
X39427047Y3439359D01*
X39582608Y3673054D01*
X39582609Y3673056D01*
X39584469Y3675850D01*
X39604586Y3714413D01*
X39759300Y4010983D01*
X39759302Y4010987D01*
X39760846Y4013947D01*
X39762066Y4017053D01*
X39762070Y4017061D01*
X39899073Y4365756D01*
X39899075Y4365761D01*
X39900297Y4368872D01*
X39927913Y4469474D01*
X40000357Y4733378D01*
X40000357Y4733380D01*
X40001243Y4736606D01*
X40002543Y4744587D01*
X40062003Y5109684D01*
X40062004Y5109692D01*
X40062540Y5112984D01*
X40064964Y5157020D01*
X40078820Y5408795D01*
X40083495Y5493746D01*
X40083500Y5500000D01*
X40079200Y5580698D01*
X40063388Y5877462D01*
X40063387Y5877468D01*
X40063210Y5880797D01*
X40048344Y5973097D01*
X40003104Y6253967D01*
X40003104Y6253968D01*
X40002570Y6257282D01*
X39902266Y6625192D01*
X39763435Y6980360D01*
X39587648Y7318764D01*
X39376896Y7636572D01*
X39250553Y7789024D01*
X39135710Y7927598D01*
X39133566Y7930185D01*
X38860414Y8196279D01*
X38857782Y8198346D01*
X38857778Y8198350D01*
X38563169Y8429768D01*
X38563167Y8429769D01*
X38560531Y8431840D01*
X38286531Y8603387D01*
X38240160Y8632419D01*
X38240157Y8632421D01*
X38237315Y8634200D01*
X37894426Y8801068D01*
X37891287Y8802201D01*
X37891278Y8802205D01*
X37546243Y8926764D01*
X37535745Y8930554D01*
X37532486Y8931351D01*
X37532481Y8931353D01*
X37168599Y9020395D01*
X37168591Y9020397D01*
X37165336Y9021193D01*
X37162015Y9021639D01*
X37162010Y9021640D01*
X36935818Y9052021D01*
X36787393Y9071957D01*
X36406195Y9082272D01*
X36402854Y9082006D01*
X36402849Y9082006D01*
X36029408Y9052288D01*
X36029399Y9052287D01*
X36026059Y9052021D01*
X36022764Y9051401D01*
X36022761Y9051401D01*
X35654575Y8982164D01*
X35654567Y8982162D01*
X35651291Y8981546D01*
X35286133Y8871646D01*
X34934721Y8723565D01*
X34931794Y8721946D01*
X34931786Y8721942D01*
X34723382Y8606659D01*
X34601034Y8538980D01*
X34464390Y8443123D01*
X34291729Y8322000D01*
X34288852Y8319982D01*
X34001709Y8069049D01*
X33742857Y7789024D01*
X33515227Y7483079D01*
X33321397Y7154676D01*
X33163561Y6807536D01*
X33043508Y6445589D01*
X32962597Y6072934D01*
X32962238Y6069602D01*
X32962237Y6069596D01*
X32941894Y5880797D01*
X32921744Y5693791D01*
X32921411Y5312454D01*
X24070598Y5312454D01*
X24004810Y5358519D01*
X23822381Y5437463D01*
X23778301Y5446672D01*
X23632540Y5477123D01*
X23632535Y5477124D01*
X23627804Y5478112D01*
X23622684Y5478380D01*
X23622069Y5478413D01*
X23622053Y5478413D01*
X23620401Y5478500D01*
X22925777Y5478500D01*
X22852967Y5471104D01*
X22783589Y5464057D01*
X22783588Y5464057D01*
X22777240Y5463412D01*
X22587558Y5403970D01*
X22413703Y5307600D01*
X22408855Y5303444D01*
X22408854Y5303444D01*
X22405892Y5300905D01*
X22262777Y5178241D01*
X22258870Y5173204D01*
X22258868Y5173202D01*
X22144857Y5026220D01*
X22144855Y5026217D01*
X22140945Y5021176D01*
X22138127Y5015450D01*
X22138125Y5015446D01*
X22096063Y4929964D01*
X22053183Y4842821D01*
X22043367Y4805137D01*
X22008327Y4670616D01*
X22003077Y4650462D01*
X22002743Y4644083D01*
X21994061Y4478415D01*
X21992674Y4451956D01*
X22022398Y4255413D01*
X22091036Y4068862D01*
X22094394Y4063446D01*
X22094396Y4063442D01*
X22192420Y3905345D01*
X22192423Y3905341D01*
X22195783Y3899922D01*
X22332361Y3755495D01*
X22337584Y3751838D01*
X22337892Y3751572D01*
X22376388Y3691919D01*
X22376522Y3620922D01*
X22338250Y3561124D01*
X22298552Y3537755D01*
X22290242Y3534738D01*
X22277240Y3528227D01*
X22141694Y3439359D01*
X22130542Y3430035D01*
X22019078Y3312371D01*
X22010365Y3300724D01*
X21928957Y3160571D01*
X21923163Y3147246D01*
X21875932Y2991300D01*
X21873484Y2978677D01*
X21867828Y2915297D01*
X18429881Y2915297D01*
X18430171Y2917142D01*
X18418383Y3018256D01*
X18415037Y3032409D01*
X18359737Y3184761D01*
X18353227Y3197760D01*
X18264359Y3333306D01*
X18255035Y3344458D01*
X18137371Y3455922D01*
X18125724Y3464635D01*
X17979246Y3549717D01*
X17980723Y3552259D01*
X17936493Y3589185D01*
X17915244Y3656927D01*
X17933993Y3725404D01*
X17959226Y3754908D01*
X18032379Y3817607D01*
X18032380Y3817608D01*
X18037223Y3821759D01*
X18041132Y3826798D01*
X18155143Y3973780D01*
X18155145Y3973783D01*
X18159055Y3978824D01*
X18166943Y3994853D01*
X18243998Y4151450D01*
X18246817Y4157179D01*
X18296923Y4349538D01*
X18302625Y4458337D01*
X18306992Y4541663D01*
X18306992Y4541667D01*
X18307326Y4548044D01*
X18277602Y4744587D01*
X18239863Y4847157D01*
X19816537Y4847157D01*
X19834559Y4683922D01*
X19837168Y4676791D01*
X19837169Y4676789D01*
X19849138Y4644083D01*
X19890997Y4529697D01*
X19982594Y4393387D01*
X19988212Y4388275D01*
X20098440Y4287974D01*
X20098444Y4287971D01*
X20104061Y4282860D01*
X20165647Y4249422D01*
X20223748Y4217876D01*
X20248387Y4204498D01*
X20407238Y4162824D01*
X20493884Y4161463D01*
X20563848Y4160363D01*
X20563851Y4160363D01*
X20571445Y4160244D01*
X20628186Y4173239D01*
X20724124Y4195212D01*
X20724128Y4195213D01*
X20731527Y4196908D01*
X20833143Y4248015D01*
X20871460Y4267286D01*
X20871463Y4267288D01*
X20878243Y4270698D01*
X20884015Y4275627D01*
X20884017Y4275629D01*
X20997346Y4372421D01*
X20997350Y4372425D01*
X21003122Y4377355D01*
X21098956Y4510721D01*
X21160210Y4663097D01*
X21183350Y4825686D01*
X21183500Y4840000D01*
X21182466Y4848550D01*
X21171815Y4936558D01*
X21163770Y5003038D01*
X21105720Y5156663D01*
X21067114Y5212836D01*
X21017003Y5285748D01*
X21017002Y5285750D01*
X21012701Y5292007D01*
X20990860Y5311467D01*
X20895750Y5396206D01*
X20890083Y5401255D01*
X20883377Y5404806D01*
X20883375Y5404807D01*
X20751655Y5474549D01*
X20751653Y5474550D01*
X20744944Y5478102D01*
X20689375Y5492060D01*
X20593036Y5516259D01*
X20593032Y5516259D01*
X20585665Y5518110D01*
X20578066Y5518150D01*
X20578064Y5518150D01*
X20509930Y5518507D01*
X20421440Y5518970D01*
X20414060Y5517198D01*
X20414058Y5517198D01*
X20385414Y5510321D01*
X20261751Y5480632D01*
X20115816Y5405310D01*
X19992061Y5297351D01*
X19897629Y5162988D01*
X19837973Y5009980D01*
X19836981Y5002447D01*
X19836981Y5002446D01*
X19825367Y4914224D01*
X19816537Y4847157D01*
X18239863Y4847157D01*
X18208964Y4931138D01*
X18205606Y4936554D01*
X18205604Y4936558D01*
X18107580Y5094655D01*
X18107577Y5094659D01*
X18104217Y5100078D01*
X18030302Y5178241D01*
X17972028Y5239864D01*
X17972027Y5239865D01*
X17967639Y5244505D01*
X17804810Y5358519D01*
X17622381Y5437463D01*
X17578301Y5446672D01*
X17432540Y5477123D01*
X17432535Y5477124D01*
X17427804Y5478112D01*
X17422684Y5478380D01*
X17422069Y5478413D01*
X17422053Y5478413D01*
X17420401Y5478500D01*
X16725777Y5478500D01*
X16652967Y5471104D01*
X16583589Y5464057D01*
X16583588Y5464057D01*
X16577240Y5463412D01*
X16387558Y5403970D01*
X16213703Y5307600D01*
X16208855Y5303444D01*
X16208854Y5303444D01*
X16205892Y5300905D01*
X16062777Y5178241D01*
X16058870Y5173204D01*
X16058868Y5173202D01*
X15944857Y5026220D01*
X15944855Y5026217D01*
X15940945Y5021176D01*
X15938127Y5015450D01*
X15938125Y5015446D01*
X15896063Y4929964D01*
X15853183Y4842821D01*
X15843367Y4805137D01*
X15808327Y4670616D01*
X15803077Y4650462D01*
X15802743Y4644083D01*
X15794061Y4478415D01*
X15792674Y4451956D01*
X15822398Y4255413D01*
X15891036Y4068862D01*
X15894394Y4063446D01*
X15894396Y4063442D01*
X15992420Y3905345D01*
X15992423Y3905341D01*
X15995783Y3899922D01*
X16132361Y3755495D01*
X16137584Y3751838D01*
X16137892Y3751572D01*
X16176388Y3691919D01*
X16176522Y3620922D01*
X16138250Y3561124D01*
X16098552Y3537755D01*
X16090242Y3534738D01*
X16077240Y3528227D01*
X15941694Y3439359D01*
X15930542Y3430035D01*
X15819078Y3312371D01*
X15810365Y3300724D01*
X15728957Y3160571D01*
X15723163Y3147246D01*
X15675932Y2991300D01*
X15673484Y2978677D01*
X15667828Y2915297D01*
X15000000Y2915297D01*
X15000000Y5364928D01*
X15020002Y5433049D01*
X15073658Y5479542D01*
X15097871Y5487748D01*
X15174122Y5505212D01*
X15181527Y5506908D01*
X15254512Y5543616D01*
X15321460Y5577286D01*
X15321463Y5577288D01*
X15328243Y5580698D01*
X15334015Y5585627D01*
X15334017Y5585629D01*
X15447346Y5682421D01*
X15447350Y5682425D01*
X15453122Y5687355D01*
X15548956Y5820721D01*
X15610210Y5973097D01*
X15633350Y6135686D01*
X15633500Y6150000D01*
X15613770Y6313038D01*
X15555720Y6466663D01*
X15462701Y6602007D01*
X15340083Y6711255D01*
X15333377Y6714806D01*
X15333375Y6714807D01*
X15201655Y6784549D01*
X15201653Y6784550D01*
X15194944Y6788102D01*
X15130278Y6804345D01*
X15095304Y6813130D01*
X15034109Y6849125D01*
X15002088Y6912491D01*
X15000000Y6935334D01*
X15000000Y7524000D01*
X15020002Y7592121D01*
X15073658Y7638614D01*
X15126000Y7650000D01*
X24000000Y7650000D01*
X24000000Y9057157D01*
X27466537Y9057157D01*
X27470508Y9021193D01*
X27480641Y8929413D01*
X27484559Y8893922D01*
X27540997Y8739697D01*
X27632594Y8603387D01*
X27638212Y8598275D01*
X27748440Y8497974D01*
X27748444Y8497971D01*
X27754061Y8492860D01*
X27845666Y8443123D01*
X27866322Y8431908D01*
X27898387Y8414498D01*
X28057238Y8372824D01*
X28143884Y8371463D01*
X28213848Y8370363D01*
X28213851Y8370363D01*
X28221445Y8370244D01*
X28278186Y8383239D01*
X28374124Y8405212D01*
X28374128Y8405213D01*
X28381527Y8406908D01*
X28492374Y8462658D01*
X28562218Y8475396D01*
X28609107Y8460825D01*
X28648387Y8439498D01*
X28807238Y8397824D01*
X28893884Y8396463D01*
X28963848Y8395363D01*
X28963851Y8395363D01*
X28971445Y8395244D01*
X29042614Y8411544D01*
X29124124Y8430212D01*
X29124128Y8430213D01*
X29131527Y8431908D01*
X29245510Y8489235D01*
X29271460Y8502286D01*
X29271463Y8502288D01*
X29278243Y8505698D01*
X29284015Y8510627D01*
X29284017Y8510629D01*
X29397346Y8607421D01*
X29397350Y8607425D01*
X29403122Y8612355D01*
X29498956Y8745721D01*
X29560210Y8898097D01*
X29583350Y9060686D01*
X29583500Y9075000D01*
X29581722Y9089697D01*
X29571602Y9173321D01*
X29563770Y9238038D01*
X29505720Y9391663D01*
X29456986Y9462572D01*
X29417003Y9520748D01*
X29417002Y9520750D01*
X29412701Y9527007D01*
X29396344Y9541581D01*
X29295750Y9631206D01*
X29290083Y9636255D01*
X29283377Y9639806D01*
X29283375Y9639807D01*
X29151655Y9709549D01*
X29151653Y9709550D01*
X29144944Y9713102D01*
X29088825Y9727198D01*
X28993036Y9751259D01*
X28993032Y9751259D01*
X28985665Y9753110D01*
X28978066Y9753150D01*
X28978064Y9753150D01*
X28909930Y9753507D01*
X28821440Y9753970D01*
X28814060Y9752198D01*
X28814058Y9752198D01*
X28735717Y9733390D01*
X28661751Y9715632D01*
X28581410Y9674165D01*
X28558851Y9662522D01*
X28489144Y9649053D01*
X28442104Y9663133D01*
X28401659Y9684547D01*
X28401656Y9684548D01*
X28394944Y9688102D01*
X28295415Y9713102D01*
X28243036Y9726259D01*
X28243032Y9726259D01*
X28235665Y9728110D01*
X28228066Y9728150D01*
X28228064Y9728150D01*
X28159930Y9728507D01*
X28071440Y9728970D01*
X28064060Y9727198D01*
X28064058Y9727198D01*
X28023268Y9717405D01*
X27911751Y9690632D01*
X27765816Y9615310D01*
X27642061Y9507351D01*
X27547629Y9372988D01*
X27487973Y9219980D01*
X27486981Y9212447D01*
X27486981Y9212446D01*
X27467545Y9064810D01*
X27466537Y9057157D01*
X24000000Y9057157D01*
X24000000Y9173321D01*
X24006776Y9208347D01*
X24005411Y9208713D01*
X24007377Y9216049D01*
X24010210Y9223097D01*
X24033350Y9385686D01*
X24033500Y9400000D01*
X24030753Y9422705D01*
X24025256Y9468122D01*
X24013770Y9563038D01*
X24008134Y9577953D01*
X24000000Y9622491D01*
X24000000Y9773321D01*
X24006776Y9808347D01*
X24005411Y9808713D01*
X24007377Y9816049D01*
X24010210Y9823097D01*
X24033350Y9985686D01*
X24033500Y10000000D01*
X24028011Y10045363D01*
X24021446Y10099607D01*
X24013770Y10163038D01*
X24008134Y10177953D01*
X24000000Y10222491D01*
X24000000Y10423321D01*
X24006777Y10458347D01*
X24005411Y10458713D01*
X24007376Y10466047D01*
X24010210Y10473097D01*
X24033350Y10635686D01*
X24033500Y10650000D01*
X24031491Y10666607D01*
X24023558Y10732157D01*
X27416539Y10732157D01*
X27423090Y10672824D01*
X27429358Y10616052D01*
X27434561Y10568922D01*
X27437170Y10561791D01*
X27437171Y10561789D01*
X27438866Y10557157D01*
X27490999Y10414697D01*
X27495236Y10408391D01*
X27495238Y10408388D01*
X27522405Y10367960D01*
X27582596Y10278387D01*
X27588214Y10273275D01*
X27698442Y10172974D01*
X27698446Y10172971D01*
X27704063Y10167860D01*
X27732747Y10152286D01*
X27829047Y10100000D01*
X27848389Y10089498D01*
X28007240Y10047824D01*
X28093886Y10046463D01*
X28163850Y10045363D01*
X28163853Y10045363D01*
X28171447Y10045244D01*
X28228188Y10058239D01*
X28324126Y10080212D01*
X28324130Y10080213D01*
X28331529Y10081908D01*
X28404514Y10118616D01*
X28471462Y10152286D01*
X28471465Y10152288D01*
X28478245Y10155698D01*
X28484017Y10160627D01*
X28484019Y10160629D01*
X28597348Y10257421D01*
X28597352Y10257425D01*
X28603124Y10262355D01*
X28698958Y10395721D01*
X28701793Y10402773D01*
X28703097Y10405145D01*
X28753443Y10455203D01*
X28822859Y10470097D01*
X28873050Y10455490D01*
X28919035Y10430833D01*
X28925601Y10428975D01*
X29096096Y10380730D01*
X29096100Y10380729D01*
X29102660Y10378873D01*
X29109469Y10378468D01*
X29109472Y10378468D01*
X29261980Y10369407D01*
X29293159Y10367555D01*
X29362061Y10378468D01*
X29474910Y10396341D01*
X29474914Y10396342D01*
X29481644Y10397408D01*
X29487990Y10399895D01*
X29487994Y10399896D01*
X29599862Y10443737D01*
X29659322Y10467039D01*
X29681884Y10482143D01*
X29749618Y10503417D01*
X29811518Y10488483D01*
X29840213Y10473097D01*
X29919035Y10430833D01*
X29925601Y10428975D01*
X30096096Y10380730D01*
X30096100Y10380729D01*
X30102660Y10378873D01*
X30109469Y10378468D01*
X30109472Y10378468D01*
X30261980Y10369407D01*
X30293159Y10367555D01*
X30362061Y10378468D01*
X30474910Y10396341D01*
X30474914Y10396342D01*
X30481644Y10397408D01*
X30487990Y10399895D01*
X30487994Y10399896D01*
X30599862Y10443737D01*
X30659322Y10467039D01*
X30817903Y10573200D01*
X30949988Y10710937D01*
X30958333Y10724607D01*
X31008722Y10807157D01*
X34516537Y10807157D01*
X34524817Y10732157D01*
X34533098Y10657157D01*
X34534559Y10643922D01*
X34537168Y10636791D01*
X34537169Y10636789D01*
X34590438Y10491223D01*
X34595064Y10420377D01*
X34589505Y10402152D01*
X34541251Y10278387D01*
X34537973Y10269980D01*
X34536981Y10262447D01*
X34536981Y10262446D01*
X34522928Y10155698D01*
X34516537Y10107157D01*
X34519512Y10080212D01*
X34530399Y9981604D01*
X34534559Y9943922D01*
X34590997Y9789697D01*
X34595234Y9783391D01*
X34595236Y9783388D01*
X34616195Y9752198D01*
X34682594Y9653387D01*
X34688212Y9648275D01*
X34798440Y9547974D01*
X34798444Y9547971D01*
X34804061Y9542860D01*
X34948387Y9464498D01*
X35107238Y9422824D01*
X35193884Y9421463D01*
X35263848Y9420363D01*
X35263851Y9420363D01*
X35271445Y9420244D01*
X35328186Y9433239D01*
X35424124Y9455212D01*
X35424128Y9455213D01*
X35431527Y9456908D01*
X35509532Y9496140D01*
X35544427Y9513690D01*
X35614272Y9526428D01*
X35661162Y9511856D01*
X35741710Y9468122D01*
X35741719Y9468119D01*
X35748387Y9464498D01*
X35907238Y9422824D01*
X35993884Y9421463D01*
X36063848Y9420363D01*
X36063851Y9420363D01*
X36071445Y9420244D01*
X36128186Y9433239D01*
X36224124Y9455212D01*
X36224128Y9455213D01*
X36231527Y9456908D01*
X36319467Y9501137D01*
X36371460Y9527286D01*
X36371463Y9527288D01*
X36378243Y9530698D01*
X36384015Y9535627D01*
X36384017Y9535629D01*
X36497346Y9632421D01*
X36497350Y9632425D01*
X36503122Y9637355D01*
X36598956Y9770721D01*
X36660210Y9923097D01*
X36683350Y10085686D01*
X36683500Y10100000D01*
X36663770Y10263038D01*
X36609278Y10407247D01*
X36603910Y10478041D01*
X36610236Y10498781D01*
X36657378Y10616052D01*
X36660210Y10623097D01*
X36683350Y10785686D01*
X36683500Y10800000D01*
X36663770Y10963038D01*
X36605720Y11116663D01*
X36595181Y11131998D01*
X36517003Y11245748D01*
X36517002Y11245750D01*
X36512701Y11252007D01*
X36475315Y11285317D01*
X36395750Y11356206D01*
X36390083Y11361255D01*
X36383377Y11364806D01*
X36383375Y11364807D01*
X36251655Y11434549D01*
X36251653Y11434550D01*
X36244944Y11438102D01*
X36149014Y11462198D01*
X36093036Y11476259D01*
X36093032Y11476259D01*
X36085665Y11478110D01*
X36078066Y11478150D01*
X36078064Y11478150D01*
X36009930Y11478507D01*
X35921440Y11478970D01*
X35914060Y11477198D01*
X35914058Y11477198D01*
X35835717Y11458390D01*
X35761751Y11440632D01*
X35657440Y11386793D01*
X35587736Y11373325D01*
X35540694Y11387406D01*
X35451661Y11434546D01*
X35451658Y11434547D01*
X35444944Y11438102D01*
X35349014Y11462198D01*
X35293036Y11476259D01*
X35293032Y11476259D01*
X35285665Y11478110D01*
X35278066Y11478150D01*
X35278064Y11478150D01*
X35209930Y11478507D01*
X35121440Y11478970D01*
X35114060Y11477198D01*
X35114058Y11477198D01*
X35035717Y11458390D01*
X34961751Y11440632D01*
X34815816Y11365310D01*
X34692061Y11257351D01*
X34597629Y11122988D01*
X34537973Y10969980D01*
X34536981Y10962447D01*
X34536981Y10962446D01*
X34518391Y10821237D01*
X34516537Y10807157D01*
X31008722Y10807157D01*
X31045856Y10867993D01*
X31045857Y10867995D01*
X31049415Y10873824D01*
X31054106Y10887446D01*
X31100952Y11023500D01*
X31111544Y11054262D01*
X31113723Y11073097D01*
X31133074Y11240339D01*
X31133074Y11240342D01*
X31133478Y11243832D01*
X31133500Y11250000D01*
X31133056Y11254093D01*
X31113627Y11432934D01*
X31112890Y11439719D01*
X31078839Y11540899D01*
X31054199Y11614116D01*
X31054197Y11614121D01*
X31052021Y11620586D01*
X31013350Y11684945D01*
X30995410Y11753638D01*
X31013806Y11815488D01*
X31045862Y11868003D01*
X31045863Y11868004D01*
X31049415Y11873824D01*
X31111544Y12054262D01*
X31123506Y12157649D01*
X31133074Y12240339D01*
X31133074Y12240342D01*
X31133478Y12243832D01*
X31133500Y12250000D01*
X31112890Y12439719D01*
X31073311Y12557326D01*
X31054199Y12614116D01*
X31054197Y12614121D01*
X31052021Y12620586D01*
X30953734Y12784163D01*
X30822614Y12922819D01*
X30664778Y13030084D01*
X30658448Y13032616D01*
X30658444Y13032618D01*
X30493928Y13098420D01*
X30493923Y13098421D01*
X30487591Y13100954D01*
X30392816Y13116644D01*
X30306056Y13131007D01*
X30306052Y13131007D01*
X30299318Y13132122D01*
X30292501Y13131765D01*
X30292497Y13131765D01*
X30115557Y13122492D01*
X30108745Y13122135D01*
X30102172Y13120324D01*
X30102169Y13120324D01*
X29931344Y13073271D01*
X29924762Y13071458D01*
X29811045Y13011502D01*
X29741459Y12997425D01*
X29681458Y13018748D01*
X29664778Y13030084D01*
X29658448Y13032616D01*
X29658444Y13032618D01*
X29493928Y13098420D01*
X29493923Y13098421D01*
X29487591Y13100954D01*
X29392816Y13116644D01*
X29306056Y13131007D01*
X29306052Y13131007D01*
X29299318Y13132122D01*
X29292501Y13131765D01*
X29292497Y13131765D01*
X29115557Y13122492D01*
X29108745Y13122135D01*
X29102172Y13120324D01*
X29102169Y13120324D01*
X28931344Y13073271D01*
X28924762Y13071458D01*
X28755953Y12982455D01*
X28750740Y12978050D01*
X28750736Y12978047D01*
X28702584Y12937355D01*
X28610194Y12859279D01*
X28606047Y12853856D01*
X28606046Y12853854D01*
X28557710Y12790632D01*
X28494286Y12707677D01*
X28491404Y12701497D01*
X28491403Y12701495D01*
X28424176Y12557326D01*
X28413635Y12534722D01*
X28372006Y12348483D01*
X28371340Y12157649D01*
X28372783Y12150977D01*
X28372783Y12150973D01*
X28406739Y11993922D01*
X28411668Y11971124D01*
X28414509Y11964919D01*
X28489223Y11801729D01*
X28499394Y11731465D01*
X28488854Y11696028D01*
X28440218Y11591728D01*
X28413635Y11534722D01*
X28412148Y11528071D01*
X28412146Y11528064D01*
X28401875Y11482116D01*
X28367494Y11419999D01*
X28304989Y11386331D01*
X28248215Y11387399D01*
X28185667Y11403110D01*
X28178068Y11403150D01*
X28178066Y11403150D01*
X28109932Y11403507D01*
X28021442Y11403970D01*
X28014062Y11402198D01*
X28014060Y11402198D01*
X27980626Y11394171D01*
X27861753Y11365632D01*
X27754748Y11310403D01*
X27725874Y11295500D01*
X27715818Y11290310D01*
X27592063Y11182351D01*
X27497631Y11047988D01*
X27437975Y10894980D01*
X27436983Y10887447D01*
X27436983Y10887446D01*
X27422930Y10780698D01*
X27416539Y10732157D01*
X24023558Y10732157D01*
X24020234Y10759625D01*
X24013770Y10813038D01*
X24008134Y10827953D01*
X24000000Y10872491D01*
X24000000Y11023321D01*
X24006776Y11058347D01*
X24005411Y11058713D01*
X24007377Y11066049D01*
X24010210Y11073097D01*
X24033350Y11235686D01*
X24033435Y11243832D01*
X24033457Y11245880D01*
X24033457Y11245883D01*
X24033500Y11250000D01*
X24032611Y11257351D01*
X24022065Y11344489D01*
X24013770Y11413038D01*
X24008134Y11427953D01*
X24000000Y11472491D01*
X24000000Y15537574D01*
X24020002Y15605695D01*
X24073658Y15652188D01*
X24143932Y15662292D01*
X24186122Y15648305D01*
X24241490Y15618243D01*
X24248387Y15614498D01*
X24407238Y15572824D01*
X24493884Y15571463D01*
X24563848Y15570363D01*
X24563851Y15570363D01*
X24571445Y15570244D01*
X24628834Y15583388D01*
X24724124Y15605212D01*
X24724128Y15605213D01*
X24731527Y15606908D01*
X24841647Y15662292D01*
X24871460Y15677286D01*
X24871463Y15677288D01*
X24878243Y15680698D01*
X24884015Y15685627D01*
X24884017Y15685629D01*
X24997346Y15782421D01*
X24997350Y15782425D01*
X25003122Y15787355D01*
X25086500Y15903387D01*
X25094524Y15914553D01*
X25094525Y15914554D01*
X25098956Y15920721D01*
X25160210Y16073097D01*
X25183350Y16235686D01*
X25183500Y16250000D01*
X25181393Y16267416D01*
X25174236Y16326556D01*
X25163770Y16413038D01*
X25105720Y16566663D01*
X25024188Y16685293D01*
X25017003Y16695748D01*
X25017002Y16695750D01*
X25012701Y16702007D01*
X24972188Y16738103D01*
X24895750Y16806206D01*
X24890083Y16811255D01*
X24883377Y16814806D01*
X24883375Y16814807D01*
X24751655Y16884549D01*
X24751653Y16884550D01*
X24744944Y16888102D01*
X24669083Y16907157D01*
X24593036Y16926259D01*
X24593032Y16926259D01*
X24585665Y16928110D01*
X24578066Y16928150D01*
X24578064Y16928150D01*
X24509930Y16928507D01*
X24421440Y16928970D01*
X24414060Y16927198D01*
X24414058Y16927198D01*
X24364542Y16915310D01*
X24261751Y16890632D01*
X24183788Y16850393D01*
X24114082Y16836924D01*
X24048159Y16863279D01*
X24006949Y16921092D01*
X24000000Y16962359D01*
X24000000Y17907157D01*
X26216537Y17907157D01*
X26223170Y17847080D01*
X26231900Y17768008D01*
X26234559Y17743922D01*
X26290997Y17589697D01*
X26295234Y17583391D01*
X26295236Y17583388D01*
X26371912Y17469283D01*
X26393305Y17401586D01*
X26374701Y17333070D01*
X26370420Y17326558D01*
X26297629Y17222988D01*
X26237973Y17069980D01*
X26236981Y17062447D01*
X26236981Y17062446D01*
X26218372Y16921092D01*
X26216537Y16907157D01*
X26221406Y16863058D01*
X26232612Y16761561D01*
X26234559Y16743922D01*
X26237168Y16736791D01*
X26237169Y16736789D01*
X26250527Y16700287D01*
X26290997Y16589697D01*
X26295234Y16583391D01*
X26295236Y16583388D01*
X26371912Y16469283D01*
X26393305Y16401586D01*
X26374701Y16333070D01*
X26370420Y16326558D01*
X26297629Y16222988D01*
X26237973Y16069980D01*
X26236981Y16062447D01*
X26236981Y16062446D01*
X26218323Y15920721D01*
X26216537Y15907157D01*
X26221445Y15862707D01*
X26233284Y15755472D01*
X26234559Y15743922D01*
X26290997Y15589697D01*
X26295234Y15583391D01*
X26295236Y15583388D01*
X26371912Y15469283D01*
X26393305Y15401586D01*
X26374701Y15333070D01*
X26370420Y15326558D01*
X26297629Y15222988D01*
X26237973Y15069980D01*
X26236981Y15062447D01*
X26236981Y15062446D01*
X26226085Y14979678D01*
X26216537Y14907157D01*
X26234559Y14743922D01*
X26237168Y14736791D01*
X26237169Y14736789D01*
X26259101Y14676858D01*
X26290997Y14589697D01*
X26295234Y14583391D01*
X26295236Y14583388D01*
X26335116Y14524041D01*
X26382594Y14453387D01*
X26388212Y14448275D01*
X26498440Y14347974D01*
X26498444Y14347971D01*
X26504061Y14342860D01*
X26517379Y14335629D01*
X26636926Y14270721D01*
X26648387Y14264498D01*
X26807238Y14222824D01*
X26893884Y14221463D01*
X26963848Y14220363D01*
X26963851Y14220363D01*
X26971445Y14220244D01*
X27028186Y14233239D01*
X27124124Y14255212D01*
X27124128Y14255213D01*
X27131527Y14256908D01*
X27230942Y14306908D01*
X27271460Y14327286D01*
X27271463Y14327288D01*
X27278243Y14330698D01*
X27310920Y14358607D01*
X27317153Y14363930D01*
X27381943Y14392960D01*
X27452143Y14382355D01*
X27483781Y14361313D01*
X27504061Y14342860D01*
X27517379Y14335629D01*
X27636926Y14270721D01*
X27648387Y14264498D01*
X27807238Y14222824D01*
X27893884Y14221463D01*
X27963848Y14220363D01*
X27963851Y14220363D01*
X27971445Y14220244D01*
X28028186Y14233239D01*
X28124124Y14255212D01*
X28124128Y14255213D01*
X28131527Y14256908D01*
X28230942Y14306908D01*
X28271460Y14327286D01*
X28271463Y14327288D01*
X28278243Y14330698D01*
X28310920Y14358607D01*
X28317153Y14363930D01*
X28381943Y14392960D01*
X28452143Y14382355D01*
X28483781Y14361313D01*
X28504061Y14342860D01*
X28517379Y14335629D01*
X28636926Y14270721D01*
X28648387Y14264498D01*
X28807238Y14222824D01*
X28893884Y14221463D01*
X28963848Y14220363D01*
X28963851Y14220363D01*
X28971445Y14220244D01*
X29028186Y14233239D01*
X29124124Y14255212D01*
X29124128Y14255213D01*
X29131527Y14256908D01*
X29230942Y14306908D01*
X29271460Y14327286D01*
X29271463Y14327288D01*
X29278243Y14330698D01*
X29310920Y14358607D01*
X29317153Y14363930D01*
X29381943Y14392960D01*
X29452143Y14382355D01*
X29483781Y14361313D01*
X29504061Y14342860D01*
X29517379Y14335629D01*
X29636926Y14270721D01*
X29648387Y14264498D01*
X29807238Y14222824D01*
X29893884Y14221463D01*
X29963848Y14220363D01*
X29963851Y14220363D01*
X29971445Y14220244D01*
X30028186Y14233239D01*
X30124124Y14255212D01*
X30124128Y14255213D01*
X30131527Y14256908D01*
X30230942Y14306908D01*
X30271460Y14327286D01*
X30271463Y14327288D01*
X30278243Y14330698D01*
X30284015Y14335627D01*
X30284017Y14335629D01*
X30397346Y14432421D01*
X30397350Y14432425D01*
X30403122Y14437355D01*
X30498956Y14570721D01*
X30560210Y14723097D01*
X30583350Y14885686D01*
X30583500Y14900000D01*
X30563770Y15063038D01*
X30505720Y15216663D01*
X30462898Y15278970D01*
X30428194Y15329465D01*
X30406094Y15396935D01*
X30423980Y15465642D01*
X30429712Y15474359D01*
X30437147Y15484705D01*
X30498956Y15570721D01*
X30560210Y15723097D01*
X30583350Y15885686D01*
X30583500Y15900000D01*
X30582296Y15909954D01*
X30571066Y16002747D01*
X30563770Y16063038D01*
X30505720Y16216663D01*
X30470839Y16267416D01*
X30428194Y16329465D01*
X30406094Y16396935D01*
X30423980Y16465642D01*
X30429712Y16474359D01*
X30494524Y16564553D01*
X30494525Y16564554D01*
X30498956Y16570721D01*
X30560210Y16723097D01*
X30583350Y16885686D01*
X30583500Y16900000D01*
X30581648Y16915310D01*
X30572532Y16990632D01*
X30563770Y17063038D01*
X30505720Y17216663D01*
X30436116Y17317938D01*
X30428194Y17329465D01*
X30406094Y17396935D01*
X30423980Y17465642D01*
X30429712Y17474359D01*
X30494524Y17564553D01*
X30494525Y17564554D01*
X30498956Y17570721D01*
X30560210Y17723097D01*
X30583350Y17885686D01*
X30583500Y17900000D01*
X30580769Y17922573D01*
X30572929Y17987355D01*
X30563770Y18063038D01*
X30505720Y18216663D01*
X30465123Y18275732D01*
X30417003Y18345748D01*
X30417002Y18345750D01*
X30412701Y18352007D01*
X30314153Y18439810D01*
X30295750Y18456206D01*
X30290083Y18461255D01*
X30283377Y18464806D01*
X30283375Y18464807D01*
X30151655Y18534549D01*
X30151653Y18534550D01*
X30144944Y18538102D01*
X30093015Y18551146D01*
X29993036Y18576259D01*
X29993032Y18576259D01*
X29985665Y18578110D01*
X29978066Y18578150D01*
X29978064Y18578150D01*
X29909930Y18578507D01*
X29821440Y18578970D01*
X29814060Y18577198D01*
X29814058Y18577198D01*
X29735717Y18558390D01*
X29661751Y18540632D01*
X29515816Y18465310D01*
X29483166Y18436828D01*
X29418687Y18407121D01*
X29348380Y18416990D01*
X29316521Y18437701D01*
X29295755Y18456203D01*
X29295747Y18456208D01*
X29290083Y18461255D01*
X29283377Y18464806D01*
X29283375Y18464807D01*
X29151655Y18534549D01*
X29151653Y18534550D01*
X29144944Y18538102D01*
X29093015Y18551146D01*
X28993036Y18576259D01*
X28993032Y18576259D01*
X28985665Y18578110D01*
X28978066Y18578150D01*
X28978064Y18578150D01*
X28909930Y18578507D01*
X28821440Y18578970D01*
X28814060Y18577198D01*
X28814058Y18577198D01*
X28735717Y18558390D01*
X28661751Y18540632D01*
X28515816Y18465310D01*
X28483166Y18436828D01*
X28418687Y18407121D01*
X28348380Y18416990D01*
X28316521Y18437701D01*
X28295755Y18456203D01*
X28295747Y18456208D01*
X28290083Y18461255D01*
X28283377Y18464806D01*
X28283375Y18464807D01*
X28151655Y18534549D01*
X28151653Y18534550D01*
X28144944Y18538102D01*
X28093015Y18551146D01*
X27993036Y18576259D01*
X27993032Y18576259D01*
X27985665Y18578110D01*
X27978066Y18578150D01*
X27978064Y18578150D01*
X27909930Y18578507D01*
X27821440Y18578970D01*
X27814060Y18577198D01*
X27814058Y18577198D01*
X27735717Y18558390D01*
X27661751Y18540632D01*
X27515816Y18465310D01*
X27483166Y18436828D01*
X27418687Y18407121D01*
X27348380Y18416990D01*
X27316521Y18437701D01*
X27295755Y18456203D01*
X27295747Y18456208D01*
X27290083Y18461255D01*
X27283377Y18464806D01*
X27283375Y18464807D01*
X27151655Y18534549D01*
X27151653Y18534550D01*
X27144944Y18538102D01*
X27093015Y18551146D01*
X26993036Y18576259D01*
X26993032Y18576259D01*
X26985665Y18578110D01*
X26978066Y18578150D01*
X26978064Y18578150D01*
X26909930Y18578507D01*
X26821440Y18578970D01*
X26814060Y18577198D01*
X26814058Y18577198D01*
X26735717Y18558390D01*
X26661751Y18540632D01*
X26515816Y18465310D01*
X26392061Y18357351D01*
X26297629Y18222988D01*
X26237973Y18069980D01*
X26236981Y18062447D01*
X26236981Y18062446D01*
X26218386Y17921198D01*
X26216537Y17907157D01*
X24000000Y17907157D01*
X24000000Y18006433D01*
X24023678Y18079960D01*
X24048536Y18114553D01*
X24048537Y18114554D01*
X24052968Y18120721D01*
X24114222Y18273097D01*
X24137362Y18435686D01*
X24137512Y18450000D01*
X24136762Y18456203D01*
X24126330Y18542405D01*
X24117782Y18613038D01*
X24059732Y18766663D01*
X24022160Y18821331D01*
X24000000Y18892698D01*
X24000000Y22107157D01*
X27666537Y22107157D01*
X27671095Y22065874D01*
X27680399Y21981604D01*
X27684559Y21943922D01*
X27687168Y21936791D01*
X27687169Y21936789D01*
X27704614Y21889119D01*
X27740997Y21789697D01*
X27745234Y21783391D01*
X27745236Y21783388D01*
X27783801Y21725998D01*
X27832594Y21653387D01*
X27838212Y21648275D01*
X27948440Y21547974D01*
X27948444Y21547971D01*
X27954061Y21542860D01*
X28098387Y21464498D01*
X28180866Y21442860D01*
X28249888Y21424752D01*
X28249890Y21424752D01*
X28257238Y21422824D01*
X28263212Y21422730D01*
X28327355Y21393953D01*
X28366137Y21334484D01*
X28371480Y21297740D01*
X28371340Y21257649D01*
X28372783Y21250977D01*
X28372783Y21250973D01*
X28410110Y21078332D01*
X28411668Y21071124D01*
X28414509Y21064919D01*
X28489223Y20901729D01*
X28499394Y20831465D01*
X28488854Y20796028D01*
X28434730Y20679959D01*
X28413635Y20634722D01*
X28412149Y20628074D01*
X28412148Y20628071D01*
X28400427Y20575632D01*
X28372006Y20448483D01*
X28371982Y20441662D01*
X28371982Y20441660D01*
X28371780Y20383771D01*
X28371340Y20257649D01*
X28372783Y20250977D01*
X28372783Y20250973D01*
X28403213Y20110232D01*
X28411668Y20071124D01*
X28491109Y19897610D01*
X28495213Y19892164D01*
X28495214Y19892162D01*
X28539177Y19833821D01*
X28605956Y19745203D01*
X28611135Y19740764D01*
X28611136Y19740763D01*
X28739708Y19630564D01*
X28750852Y19621012D01*
X28919035Y19530833D01*
X28925601Y19528975D01*
X29096096Y19480730D01*
X29096100Y19480729D01*
X29102660Y19478873D01*
X29109469Y19478468D01*
X29109472Y19478468D01*
X29247899Y19470244D01*
X29293159Y19467555D01*
X29362061Y19478468D01*
X29474910Y19496341D01*
X29474914Y19496342D01*
X29481644Y19497408D01*
X29487990Y19499895D01*
X29487994Y19499896D01*
X29649768Y19563295D01*
X29659322Y19567039D01*
X29681884Y19582143D01*
X29749618Y19603417D01*
X29811519Y19588483D01*
X29919035Y19530833D01*
X29925601Y19528975D01*
X30096096Y19480730D01*
X30096100Y19480729D01*
X30102660Y19478873D01*
X30109469Y19478468D01*
X30109472Y19478468D01*
X30247899Y19470244D01*
X30293159Y19467555D01*
X30362061Y19478468D01*
X30474910Y19496341D01*
X30474914Y19496342D01*
X30481644Y19497408D01*
X30487990Y19499895D01*
X30487994Y19499896D01*
X30649768Y19563295D01*
X30659322Y19567039D01*
X30817903Y19673200D01*
X30949988Y19810937D01*
X30955961Y19820721D01*
X31045856Y19967993D01*
X31045857Y19967995D01*
X31049415Y19973824D01*
X31053351Y19985255D01*
X36680609Y19985255D01*
X36706955Y19767541D01*
X36771439Y19557933D01*
X36872022Y19363058D01*
X37005524Y19189073D01*
X37009677Y19185294D01*
X37009678Y19185293D01*
X37163580Y19045253D01*
X37163583Y19045251D01*
X37167727Y19041480D01*
X37172473Y19038503D01*
X37172478Y19038499D01*
X37254003Y18987359D01*
X37353503Y18924943D01*
X37358712Y18922849D01*
X37358714Y18922848D01*
X37436257Y18891676D01*
X37492001Y18847709D01*
X37515126Y18780584D01*
X37498289Y18711613D01*
X37443505Y18661043D01*
X37285597Y18585725D01*
X37281036Y18582448D01*
X37281035Y18582447D01*
X37123083Y18468946D01*
X37107506Y18457753D01*
X37103602Y18453725D01*
X37103598Y18453721D01*
X36994712Y18341360D01*
X36954890Y18300267D01*
X36832576Y18118243D01*
X36744428Y17917436D01*
X36743119Y17911985D01*
X36743118Y17911981D01*
X36698230Y17725007D01*
X36693233Y17704193D01*
X36691047Y17666283D01*
X36685878Y17576627D01*
X36680609Y17485255D01*
X36706955Y17267541D01*
X36771439Y17057933D01*
X36872022Y16863058D01*
X36875435Y16858610D01*
X36875437Y16858607D01*
X36991499Y16707351D01*
X37005524Y16689073D01*
X37009677Y16685294D01*
X37009678Y16685293D01*
X37163580Y16545253D01*
X37163583Y16545251D01*
X37167727Y16541480D01*
X37172473Y16538503D01*
X37172478Y16538499D01*
X37261776Y16482483D01*
X37353503Y16424943D01*
X37358712Y16422849D01*
X37358714Y16422848D01*
X37436257Y16391676D01*
X37492001Y16347709D01*
X37515126Y16280584D01*
X37498289Y16211613D01*
X37443505Y16161043D01*
X37285597Y16085725D01*
X37281036Y16082448D01*
X37281035Y16082447D01*
X37179521Y16009501D01*
X37107506Y15957753D01*
X37103602Y15953725D01*
X37103598Y15953721D01*
X36958804Y15804306D01*
X36954890Y15800267D01*
X36917028Y15743922D01*
X36839728Y15628886D01*
X36832576Y15618243D01*
X36744428Y15417436D01*
X36743119Y15411985D01*
X36743118Y15411981D01*
X36694543Y15209650D01*
X36693233Y15204193D01*
X36691476Y15173713D01*
X36683089Y15028257D01*
X36680609Y14985255D01*
X36706955Y14767541D01*
X36771439Y14557933D01*
X36872022Y14363058D01*
X36875435Y14358610D01*
X36875437Y14358607D01*
X36981606Y14220244D01*
X37005524Y14189073D01*
X37009677Y14185294D01*
X37009678Y14185293D01*
X37163580Y14045253D01*
X37163583Y14045251D01*
X37167727Y14041480D01*
X37270057Y13977288D01*
X37317132Y13924148D01*
X37328004Y13853989D01*
X37299220Y13789089D01*
X37239918Y13750054D01*
X37218891Y13745548D01*
X37206577Y13743992D01*
X37155955Y13737597D01*
X37008309Y13679140D01*
X37001896Y13674480D01*
X37001893Y13674479D01*
X36886256Y13590465D01*
X36886252Y13590461D01*
X36879839Y13585802D01*
X36874786Y13579694D01*
X36874784Y13579692D01*
X36856559Y13557661D01*
X36778618Y13463446D01*
X36711006Y13319762D01*
X36709521Y13311979D01*
X36709520Y13311975D01*
X36686114Y13189277D01*
X36685000Y13183436D01*
X36685000Y11884422D01*
X36687509Y11864564D01*
X36695412Y11802007D01*
X36699903Y11766455D01*
X36702820Y11759088D01*
X36702820Y11759087D01*
X36723175Y11707677D01*
X36758360Y11618809D01*
X36763020Y11612396D01*
X36763021Y11612393D01*
X36847035Y11496756D01*
X36847039Y11496752D01*
X36851698Y11490339D01*
X36857806Y11485286D01*
X36857808Y11485284D01*
X36945139Y11413038D01*
X36974054Y11389118D01*
X36981227Y11385743D01*
X36981228Y11385742D01*
X37007616Y11373325D01*
X37117738Y11321506D01*
X37125521Y11320021D01*
X37125525Y11320020D01*
X37248223Y11296614D01*
X37248226Y11296614D01*
X37254064Y11295500D01*
X38803078Y11295500D01*
X38859411Y11302617D01*
X38913180Y11309409D01*
X38913183Y11309410D01*
X38921045Y11310403D01*
X39068691Y11368860D01*
X39075104Y11373520D01*
X39075107Y11373521D01*
X39190744Y11457535D01*
X39190748Y11457539D01*
X39197161Y11462198D01*
X39203818Y11470244D01*
X39293329Y11578446D01*
X39298382Y11584554D01*
X39302291Y11592860D01*
X39362618Y11721064D01*
X39365994Y11728238D01*
X39367479Y11736021D01*
X39367480Y11736025D01*
X39390886Y11858723D01*
X39390886Y11858726D01*
X39392000Y11864564D01*
X39392000Y13163578D01*
X39377097Y13281545D01*
X39359126Y13326936D01*
X39321558Y13421821D01*
X39318640Y13429191D01*
X39308709Y13442860D01*
X39229965Y13551244D01*
X39229961Y13551248D01*
X39225302Y13557661D01*
X39102946Y13658882D01*
X39069801Y13674479D01*
X38966436Y13723118D01*
X38966437Y13723118D01*
X38959262Y13726494D01*
X38951479Y13727979D01*
X38951475Y13727980D01*
X38890043Y13739699D01*
X38855403Y13746306D01*
X38792238Y13778718D01*
X38756623Y13840135D01*
X38759866Y13911058D01*
X38805488Y13972396D01*
X38964935Y14086971D01*
X38969494Y14090247D01*
X38973398Y14094275D01*
X38973402Y14094279D01*
X39118196Y14243694D01*
X39118197Y14243695D01*
X39122110Y14247733D01*
X39199605Y14363058D01*
X39241295Y14425100D01*
X39241297Y14425103D01*
X39244424Y14429757D01*
X39332572Y14630564D01*
X39351492Y14709369D01*
X39382457Y14838350D01*
X39382457Y14838351D01*
X39383767Y14843807D01*
X39394128Y15023500D01*
X39396068Y15057138D01*
X39396068Y15057141D01*
X39396391Y15062745D01*
X39370045Y15280459D01*
X39305561Y15490067D01*
X39204978Y15684942D01*
X39198903Y15692860D01*
X39074896Y15854470D01*
X39071476Y15858927D01*
X39026769Y15899607D01*
X38913420Y16002747D01*
X38913417Y16002749D01*
X38909273Y16006520D01*
X38904527Y16009497D01*
X38904522Y16009501D01*
X38796824Y16077059D01*
X38723497Y16123057D01*
X38640743Y16156324D01*
X38584999Y16200291D01*
X38561874Y16267416D01*
X38578711Y16336387D01*
X38633495Y16386957D01*
X38654415Y16396935D01*
X38791403Y16462275D01*
X38969494Y16590247D01*
X38973398Y16594275D01*
X38973402Y16594279D01*
X39118196Y16743694D01*
X39118197Y16743695D01*
X39122110Y16747733D01*
X39217581Y16889810D01*
X39241295Y16925100D01*
X39241297Y16925103D01*
X39244424Y16929757D01*
X39332572Y17130564D01*
X39337940Y17152920D01*
X39382457Y17338350D01*
X39382457Y17338351D01*
X39383767Y17343807D01*
X39396391Y17562745D01*
X39370045Y17780459D01*
X39305561Y17990067D01*
X39241309Y18114553D01*
X39207550Y18179959D01*
X39207550Y18179960D01*
X39204978Y18184942D01*
X39094958Y18328325D01*
X39074896Y18354470D01*
X39071476Y18358927D01*
X39024690Y18401499D01*
X38913420Y18502747D01*
X38913417Y18502749D01*
X38909273Y18506520D01*
X38904527Y18509497D01*
X38904522Y18509501D01*
X38798099Y18576259D01*
X38723497Y18623057D01*
X38701535Y18631886D01*
X38640743Y18656324D01*
X38584999Y18700291D01*
X38561874Y18767416D01*
X38578711Y18836387D01*
X38633495Y18886957D01*
X38645532Y18892698D01*
X38791403Y18962275D01*
X38969494Y19090247D01*
X38973398Y19094275D01*
X38973402Y19094279D01*
X39118196Y19243694D01*
X39118197Y19243695D01*
X39122110Y19247733D01*
X39244424Y19429757D01*
X39332572Y19630564D01*
X39346207Y19687355D01*
X39382457Y19838350D01*
X39382457Y19838351D01*
X39383767Y19843807D01*
X39394713Y20033637D01*
X39396068Y20057138D01*
X39396068Y20057141D01*
X39396391Y20062745D01*
X39370045Y20280459D01*
X39305561Y20490067D01*
X39204978Y20684942D01*
X39182593Y20714116D01*
X39074896Y20854470D01*
X39071476Y20858927D01*
X38981722Y20940597D01*
X38913420Y21002747D01*
X38913417Y21002749D01*
X38909273Y21006520D01*
X38904527Y21009497D01*
X38904522Y21009501D01*
X38775139Y21090662D01*
X38723497Y21123057D01*
X38520021Y21204854D01*
X38514530Y21205991D01*
X38514527Y21205992D01*
X38359938Y21238005D01*
X38305275Y21249325D01*
X38276695Y21250973D01*
X38252035Y21252395D01*
X38252033Y21252395D01*
X38250213Y21252500D01*
X37857477Y21252500D01*
X37854690Y21252251D01*
X37854684Y21252251D01*
X37787040Y21246214D01*
X37695066Y21238005D01*
X37483536Y21180137D01*
X37478478Y21177725D01*
X37478474Y21177723D01*
X37293924Y21089697D01*
X37285597Y21085725D01*
X37281036Y21082448D01*
X37281035Y21082447D01*
X37221014Y21039317D01*
X37107506Y20957753D01*
X37103602Y20953725D01*
X37103598Y20953721D01*
X36985123Y20831465D01*
X36954890Y20800267D01*
X36832576Y20618243D01*
X36744428Y20417436D01*
X36743119Y20411985D01*
X36743118Y20411981D01*
X36704464Y20250973D01*
X36693233Y20204193D01*
X36689283Y20135686D01*
X36681109Y19993922D01*
X36680609Y19985255D01*
X31053351Y19985255D01*
X31056336Y19993922D01*
X31100611Y20122510D01*
X31111544Y20154262D01*
X31123506Y20257649D01*
X31133074Y20340339D01*
X31133074Y20340342D01*
X31133478Y20343832D01*
X31133500Y20350000D01*
X31112890Y20539719D01*
X31059539Y20698248D01*
X31054199Y20714116D01*
X31054197Y20714121D01*
X31052021Y20720586D01*
X31013350Y20784945D01*
X30995410Y20853638D01*
X31013806Y20915488D01*
X31031873Y20945085D01*
X31049415Y20973824D01*
X31111544Y21154262D01*
X31117156Y21202761D01*
X31133074Y21340339D01*
X31133074Y21340342D01*
X31133478Y21343832D01*
X31133500Y21350000D01*
X31131532Y21368121D01*
X31113627Y21532934D01*
X31112890Y21539719D01*
X31072514Y21659693D01*
X31054199Y21714116D01*
X31054197Y21714121D01*
X31052021Y21720586D01*
X30953734Y21884163D01*
X30822614Y22022819D01*
X30664778Y22130084D01*
X30658448Y22132616D01*
X30658444Y22132618D01*
X30493928Y22198420D01*
X30493923Y22198421D01*
X30487591Y22200954D01*
X30392816Y22216644D01*
X30306056Y22231007D01*
X30306052Y22231007D01*
X30299318Y22232122D01*
X30292501Y22231765D01*
X30292497Y22231765D01*
X30115557Y22222492D01*
X30108745Y22222135D01*
X30102172Y22220324D01*
X30102169Y22220324D01*
X29945100Y22177060D01*
X29924762Y22171458D01*
X29811045Y22111502D01*
X29741459Y22097425D01*
X29681458Y22118748D01*
X29664778Y22130084D01*
X29658448Y22132616D01*
X29658444Y22132618D01*
X29493928Y22198420D01*
X29493923Y22198421D01*
X29487591Y22200954D01*
X29392816Y22216644D01*
X29306056Y22231007D01*
X29306052Y22231007D01*
X29299318Y22232122D01*
X29292501Y22231765D01*
X29292497Y22231765D01*
X29122693Y22222866D01*
X29053619Y22239275D01*
X29004382Y22290424D01*
X28998233Y22304155D01*
X28958404Y22409560D01*
X28955720Y22416663D01*
X28862701Y22552007D01*
X28740083Y22661255D01*
X28733377Y22664806D01*
X28733375Y22664807D01*
X28653390Y22707157D01*
X34616537Y22707157D01*
X34622162Y22656206D01*
X34633109Y22557058D01*
X34634559Y22543922D01*
X34637168Y22536791D01*
X34637169Y22536789D01*
X34690438Y22391223D01*
X34695064Y22320377D01*
X34689505Y22302152D01*
X34650484Y22202068D01*
X34637973Y22169980D01*
X34636981Y22162447D01*
X34636981Y22162446D01*
X34617684Y22015869D01*
X34616537Y22007157D01*
X34623523Y21943881D01*
X34631893Y21868071D01*
X34634559Y21843922D01*
X34690997Y21689697D01*
X34695234Y21683391D01*
X34695236Y21683388D01*
X34730418Y21631033D01*
X34782594Y21553387D01*
X34788212Y21548275D01*
X34898440Y21447974D01*
X34898444Y21447971D01*
X34904061Y21442860D01*
X35048387Y21364498D01*
X35207238Y21322824D01*
X35293884Y21321463D01*
X35363848Y21320363D01*
X35363851Y21320363D01*
X35371445Y21320244D01*
X35459184Y21340339D01*
X35524124Y21355212D01*
X35524128Y21355213D01*
X35531527Y21356908D01*
X35538313Y21360321D01*
X35538316Y21360322D01*
X35592516Y21387581D01*
X35662360Y21400319D01*
X35709251Y21385747D01*
X35748387Y21364498D01*
X35907238Y21322824D01*
X35993884Y21321463D01*
X36063848Y21320363D01*
X36063851Y21320363D01*
X36071445Y21320244D01*
X36159184Y21340339D01*
X36224124Y21355212D01*
X36224128Y21355213D01*
X36231527Y21356908D01*
X36331437Y21407157D01*
X36371460Y21427286D01*
X36371463Y21427288D01*
X36378243Y21430698D01*
X36384015Y21435627D01*
X36384017Y21435629D01*
X36497346Y21532421D01*
X36497350Y21532425D01*
X36503122Y21537355D01*
X36598956Y21670721D01*
X36660210Y21823097D01*
X36683350Y21985686D01*
X36683500Y22000000D01*
X36680275Y22026654D01*
X36670532Y22107157D01*
X36663770Y22163038D01*
X36609278Y22307247D01*
X36603910Y22378041D01*
X36610236Y22398781D01*
X36657378Y22516052D01*
X36660210Y22523097D01*
X36683350Y22685686D01*
X36683500Y22700000D01*
X36663770Y22863038D01*
X36605720Y23016663D01*
X36597101Y23029204D01*
X36517003Y23145748D01*
X36517002Y23145750D01*
X36512701Y23152007D01*
X36482413Y23178993D01*
X36395750Y23256206D01*
X36390083Y23261255D01*
X36383377Y23264806D01*
X36383375Y23264807D01*
X36251655Y23334549D01*
X36251653Y23334550D01*
X36244944Y23338102D01*
X36189586Y23352007D01*
X36093036Y23376259D01*
X36093032Y23376259D01*
X36085665Y23378110D01*
X36078066Y23378150D01*
X36078064Y23378150D01*
X36009930Y23378507D01*
X35921440Y23378970D01*
X35914060Y23377198D01*
X35914058Y23377198D01*
X35847652Y23361255D01*
X35761751Y23340632D01*
X35708078Y23312930D01*
X35638372Y23299461D01*
X35591330Y23313542D01*
X35551657Y23334548D01*
X35551655Y23334549D01*
X35544944Y23338102D01*
X35489586Y23352007D01*
X35393036Y23376259D01*
X35393032Y23376259D01*
X35385665Y23378110D01*
X35378066Y23378150D01*
X35378064Y23378150D01*
X35309930Y23378507D01*
X35221440Y23378970D01*
X35214060Y23377198D01*
X35214058Y23377198D01*
X35147652Y23361255D01*
X35061751Y23340632D01*
X34915816Y23265310D01*
X34792061Y23157351D01*
X34697629Y23022988D01*
X34637973Y22869980D01*
X34636981Y22862447D01*
X34636981Y22862446D01*
X34618636Y22723097D01*
X34616537Y22707157D01*
X28653390Y22707157D01*
X28601655Y22734549D01*
X28601653Y22734550D01*
X28594944Y22738102D01*
X28543015Y22751146D01*
X28443036Y22776259D01*
X28443032Y22776259D01*
X28435665Y22778110D01*
X28428066Y22778150D01*
X28428064Y22778150D01*
X28359930Y22778507D01*
X28271440Y22778970D01*
X28264060Y22777198D01*
X28264058Y22777198D01*
X28185716Y22758390D01*
X28111751Y22740632D01*
X27965816Y22665310D01*
X27842061Y22557351D01*
X27747629Y22422988D01*
X27687973Y22269980D01*
X27686981Y22262447D01*
X27686981Y22262446D01*
X27668260Y22120244D01*
X27666537Y22107157D01*
X24000000Y22107157D01*
X24000000Y23823578D01*
X27532958Y23823578D01*
X27550980Y23660343D01*
X27607418Y23506118D01*
X27611655Y23499812D01*
X27611657Y23499809D01*
X27637565Y23461255D01*
X27699015Y23369808D01*
X27704633Y23364696D01*
X27814861Y23264395D01*
X27814865Y23264392D01*
X27820482Y23259281D01*
X27864044Y23235629D01*
X27944733Y23191819D01*
X27964808Y23180919D01*
X28123659Y23139245D01*
X28210305Y23137884D01*
X28280269Y23136784D01*
X28280272Y23136784D01*
X28287866Y23136665D01*
X28447948Y23173329D01*
X28484714Y23191820D01*
X28554554Y23204558D01*
X28601445Y23189985D01*
X28648387Y23164498D01*
X28807238Y23122824D01*
X28893884Y23121463D01*
X28963848Y23120363D01*
X28963851Y23120363D01*
X28971445Y23120244D01*
X29028186Y23133239D01*
X29124124Y23155212D01*
X29124128Y23155213D01*
X29131527Y23156908D01*
X29226269Y23204558D01*
X29271460Y23227286D01*
X29271463Y23227288D01*
X29278243Y23230698D01*
X29284015Y23235627D01*
X29284017Y23235629D01*
X29397346Y23332421D01*
X29397350Y23332425D01*
X29403122Y23337355D01*
X29498956Y23470721D01*
X29560210Y23623097D01*
X29583350Y23785686D01*
X29583500Y23800000D01*
X29582545Y23807898D01*
X29567081Y23935677D01*
X29563770Y23963038D01*
X29505720Y24116663D01*
X29442541Y24208590D01*
X29417003Y24245748D01*
X29417002Y24245750D01*
X29412701Y24252007D01*
X29389402Y24272766D01*
X29295750Y24356206D01*
X29290083Y24361255D01*
X29283377Y24364806D01*
X29283375Y24364807D01*
X29151655Y24434549D01*
X29151653Y24434550D01*
X29144944Y24438102D01*
X29069497Y24457053D01*
X28993036Y24476259D01*
X28993032Y24476259D01*
X28985665Y24478110D01*
X28978066Y24478150D01*
X28978064Y24478150D01*
X28909930Y24478507D01*
X28821440Y24478970D01*
X28814060Y24477198D01*
X28814058Y24477198D01*
X28669131Y24442404D01*
X28669129Y24442403D01*
X28661751Y24440632D01*
X28655007Y24437151D01*
X28655004Y24437150D01*
X28632100Y24425328D01*
X28562393Y24411858D01*
X28515353Y24425938D01*
X28461365Y24454523D01*
X28444234Y24458826D01*
X28309457Y24492680D01*
X28309453Y24492680D01*
X28302086Y24494531D01*
X28294487Y24494571D01*
X28294485Y24494571D01*
X28226351Y24494928D01*
X28137861Y24495391D01*
X28130481Y24493619D01*
X28130479Y24493619D01*
X28062082Y24477198D01*
X27978172Y24457053D01*
X27832237Y24381731D01*
X27708482Y24273772D01*
X27614050Y24139409D01*
X27554394Y23986401D01*
X27553402Y23978868D01*
X27553402Y23978867D01*
X27544280Y23909575D01*
X27532958Y23823578D01*
X24000000Y23823578D01*
X24000000Y29007157D01*
X24566537Y29007157D01*
X24575380Y28927059D01*
X24583200Y28856234D01*
X24584559Y28843922D01*
X24587168Y28836791D01*
X24587169Y28836789D01*
X24609101Y28776858D01*
X24640997Y28689697D01*
X24645234Y28683391D01*
X24645236Y28683388D01*
X24677609Y28635213D01*
X24732594Y28553387D01*
X24738212Y28548275D01*
X24848440Y28447974D01*
X24848444Y28447971D01*
X24854061Y28442860D01*
X24998387Y28364498D01*
X25157238Y28322824D01*
X25243884Y28321463D01*
X25313848Y28320363D01*
X25313851Y28320363D01*
X25321445Y28320244D01*
X25378186Y28333239D01*
X25474124Y28355212D01*
X25474128Y28355213D01*
X25481527Y28356908D01*
X25560506Y28396630D01*
X25621460Y28427286D01*
X25621463Y28427288D01*
X25628243Y28430698D01*
X25651223Y28450324D01*
X25667153Y28463930D01*
X25731943Y28492960D01*
X25802143Y28482355D01*
X25833781Y28461313D01*
X25854061Y28442860D01*
X25998387Y28364498D01*
X26157238Y28322824D01*
X26243884Y28321463D01*
X26313848Y28320363D01*
X26313851Y28320363D01*
X26321445Y28320244D01*
X26378186Y28333239D01*
X26474124Y28355212D01*
X26474128Y28355213D01*
X26481527Y28356908D01*
X26560506Y28396630D01*
X26621460Y28427286D01*
X26621463Y28427288D01*
X26628243Y28430698D01*
X26651223Y28450324D01*
X26667153Y28463930D01*
X26731943Y28492960D01*
X26802143Y28482355D01*
X26833781Y28461313D01*
X26854061Y28442860D01*
X26998387Y28364498D01*
X27157238Y28322824D01*
X27243884Y28321463D01*
X27313848Y28320363D01*
X27313851Y28320363D01*
X27321445Y28320244D01*
X27378186Y28333239D01*
X27474124Y28355212D01*
X27474128Y28355213D01*
X27481527Y28356908D01*
X27560506Y28396630D01*
X27621460Y28427286D01*
X27621463Y28427288D01*
X27628243Y28430698D01*
X27634015Y28435627D01*
X27634017Y28435629D01*
X27747346Y28532421D01*
X27747350Y28532425D01*
X27753122Y28537355D01*
X27839321Y28657313D01*
X27844524Y28664553D01*
X27844525Y28664554D01*
X27848956Y28670721D01*
X27883703Y28757157D01*
X35816537Y28757157D01*
X35825302Y28677766D01*
X35832790Y28609946D01*
X35834559Y28593922D01*
X35837168Y28586791D01*
X35837169Y28586789D01*
X35855259Y28537355D01*
X35890997Y28439697D01*
X35895234Y28433391D01*
X35895236Y28433388D01*
X35936208Y28372416D01*
X35982594Y28303387D01*
X35988212Y28298275D01*
X36098440Y28197974D01*
X36098444Y28197971D01*
X36104061Y28192860D01*
X36248387Y28114498D01*
X36407238Y28072824D01*
X36493884Y28071463D01*
X36563848Y28070363D01*
X36563851Y28070363D01*
X36571445Y28070244D01*
X36628186Y28083239D01*
X36724124Y28105212D01*
X36724128Y28105213D01*
X36731527Y28106908D01*
X36804512Y28143616D01*
X36871460Y28177286D01*
X36871463Y28177288D01*
X36878243Y28180698D01*
X36884015Y28185627D01*
X36884017Y28185629D01*
X36997346Y28282421D01*
X36997350Y28282425D01*
X37003122Y28287355D01*
X37098956Y28420721D01*
X37160210Y28573097D01*
X37183350Y28735686D01*
X37183500Y28750000D01*
X37180782Y28772465D01*
X37170644Y28856234D01*
X37163770Y28913038D01*
X37105720Y29066663D01*
X37069503Y29119359D01*
X37017003Y29195748D01*
X37017002Y29195750D01*
X37012701Y29202007D01*
X36984037Y29227546D01*
X36895750Y29306206D01*
X36890083Y29311255D01*
X36883377Y29314806D01*
X36883375Y29314807D01*
X36751655Y29384549D01*
X36751653Y29384550D01*
X36744944Y29388102D01*
X36693015Y29401146D01*
X36593036Y29426259D01*
X36593032Y29426259D01*
X36585665Y29428110D01*
X36578066Y29428150D01*
X36578064Y29428150D01*
X36509930Y29428507D01*
X36421440Y29428970D01*
X36414060Y29427198D01*
X36414058Y29427198D01*
X36335717Y29408390D01*
X36261751Y29390632D01*
X36115816Y29315310D01*
X35992061Y29207351D01*
X35897629Y29072988D01*
X35837973Y28919980D01*
X35836981Y28912447D01*
X35836981Y28912446D01*
X35821994Y28798605D01*
X35816537Y28757157D01*
X27883703Y28757157D01*
X27910210Y28823097D01*
X27933350Y28985686D01*
X27933500Y29000000D01*
X27932859Y29005303D01*
X27914682Y29155498D01*
X27913770Y29163038D01*
X27855720Y29316663D01*
X27847101Y29329204D01*
X27767003Y29445748D01*
X27767002Y29445750D01*
X27762701Y29452007D01*
X27640083Y29561255D01*
X27633377Y29564806D01*
X27633375Y29564807D01*
X27501655Y29634549D01*
X27501653Y29634550D01*
X27494944Y29638102D01*
X27443015Y29651146D01*
X27343036Y29676259D01*
X27343032Y29676259D01*
X27335665Y29678110D01*
X27328066Y29678150D01*
X27328064Y29678150D01*
X27259930Y29678507D01*
X27171440Y29678970D01*
X27164060Y29677198D01*
X27164058Y29677198D01*
X27085717Y29658390D01*
X27011751Y29640632D01*
X26865816Y29565310D01*
X26833166Y29536828D01*
X26768687Y29507121D01*
X26698380Y29516990D01*
X26666521Y29537701D01*
X26645755Y29556203D01*
X26645747Y29556208D01*
X26640083Y29561255D01*
X26633377Y29564806D01*
X26633375Y29564807D01*
X26501655Y29634549D01*
X26501653Y29634550D01*
X26494944Y29638102D01*
X26443015Y29651146D01*
X26343036Y29676259D01*
X26343032Y29676259D01*
X26335665Y29678110D01*
X26328066Y29678150D01*
X26328064Y29678150D01*
X26259930Y29678507D01*
X26171440Y29678970D01*
X26164060Y29677198D01*
X26164058Y29677198D01*
X26085717Y29658390D01*
X26011751Y29640632D01*
X25865816Y29565310D01*
X25833166Y29536828D01*
X25768687Y29507121D01*
X25698380Y29516990D01*
X25666521Y29537701D01*
X25645755Y29556203D01*
X25645747Y29556208D01*
X25640083Y29561255D01*
X25633377Y29564806D01*
X25633375Y29564807D01*
X25501655Y29634549D01*
X25501653Y29634550D01*
X25494944Y29638102D01*
X25443015Y29651146D01*
X25343036Y29676259D01*
X25343032Y29676259D01*
X25335665Y29678110D01*
X25328066Y29678150D01*
X25328064Y29678150D01*
X25259930Y29678507D01*
X25171440Y29678970D01*
X25164060Y29677198D01*
X25164058Y29677198D01*
X25085717Y29658390D01*
X25011751Y29640632D01*
X24865816Y29565310D01*
X24742061Y29457351D01*
X24647629Y29322988D01*
X24587973Y29169980D01*
X24586981Y29162447D01*
X24586981Y29162446D01*
X24567741Y29016302D01*
X24566537Y29007157D01*
X24000000Y29007157D01*
X24000000Y32007157D01*
X24566537Y32007157D01*
X24584559Y31843922D01*
X24587168Y31836791D01*
X24587169Y31836789D01*
X24609101Y31776858D01*
X24640997Y31689697D01*
X24645234Y31683391D01*
X24645236Y31683388D01*
X24676562Y31636771D01*
X24732594Y31553387D01*
X24738212Y31548275D01*
X24848440Y31447974D01*
X24848444Y31447971D01*
X24854061Y31442860D01*
X24998387Y31364498D01*
X25157238Y31322824D01*
X25243884Y31321463D01*
X25313848Y31320363D01*
X25313851Y31320363D01*
X25321445Y31320244D01*
X25378186Y31333239D01*
X25474124Y31355212D01*
X25474128Y31355213D01*
X25481527Y31356908D01*
X25559532Y31396140D01*
X25621460Y31427286D01*
X25621463Y31427288D01*
X25628243Y31430698D01*
X25651574Y31450625D01*
X25667153Y31463930D01*
X25731943Y31492960D01*
X25802143Y31482355D01*
X25833781Y31461313D01*
X25854061Y31442860D01*
X25998387Y31364498D01*
X26157238Y31322824D01*
X26243884Y31321463D01*
X26313848Y31320363D01*
X26313851Y31320363D01*
X26321445Y31320244D01*
X26378186Y31333239D01*
X26474124Y31355212D01*
X26474128Y31355213D01*
X26481527Y31356908D01*
X26559532Y31396140D01*
X26621460Y31427286D01*
X26621463Y31427288D01*
X26628243Y31430698D01*
X26651574Y31450625D01*
X26667153Y31463930D01*
X26731943Y31492960D01*
X26802143Y31482355D01*
X26833781Y31461313D01*
X26854061Y31442860D01*
X26998387Y31364498D01*
X27157238Y31322824D01*
X27243884Y31321463D01*
X27313848Y31320363D01*
X27313851Y31320363D01*
X27321445Y31320244D01*
X27378186Y31333239D01*
X27474124Y31355212D01*
X27474128Y31355213D01*
X27481527Y31356908D01*
X27559532Y31396140D01*
X27621460Y31427286D01*
X27621463Y31427288D01*
X27628243Y31430698D01*
X27634015Y31435627D01*
X27634017Y31435629D01*
X27747346Y31532421D01*
X27747350Y31532425D01*
X27753122Y31537355D01*
X27848956Y31670721D01*
X27910210Y31823097D01*
X27933350Y31985686D01*
X27933500Y32000000D01*
X27930398Y32025638D01*
X27914682Y32155498D01*
X27913770Y32163038D01*
X27855720Y32316663D01*
X27843835Y32333956D01*
X27767003Y32445748D01*
X27767002Y32445750D01*
X27762701Y32452007D01*
X27640083Y32561255D01*
X27633377Y32564806D01*
X27633375Y32564807D01*
X27501655Y32634549D01*
X27501653Y32634550D01*
X27494944Y32638102D01*
X27443015Y32651146D01*
X27343036Y32676259D01*
X27343032Y32676259D01*
X27335665Y32678110D01*
X27328066Y32678150D01*
X27328064Y32678150D01*
X27259930Y32678507D01*
X27171440Y32678970D01*
X27164060Y32677198D01*
X27164058Y32677198D01*
X27085717Y32658390D01*
X27011751Y32640632D01*
X26865816Y32565310D01*
X26833166Y32536828D01*
X26768687Y32507121D01*
X26698380Y32516990D01*
X26666521Y32537701D01*
X26645755Y32556203D01*
X26645747Y32556208D01*
X26640083Y32561255D01*
X26633377Y32564806D01*
X26633375Y32564807D01*
X26501655Y32634549D01*
X26501653Y32634550D01*
X26494944Y32638102D01*
X26443015Y32651146D01*
X26343036Y32676259D01*
X26343032Y32676259D01*
X26335665Y32678110D01*
X26328066Y32678150D01*
X26328064Y32678150D01*
X26259930Y32678507D01*
X26171440Y32678970D01*
X26164060Y32677198D01*
X26164058Y32677198D01*
X26085717Y32658390D01*
X26011751Y32640632D01*
X25865816Y32565310D01*
X25833166Y32536828D01*
X25768687Y32507121D01*
X25698380Y32516990D01*
X25666521Y32537701D01*
X25645755Y32556203D01*
X25645747Y32556208D01*
X25640083Y32561255D01*
X25633377Y32564806D01*
X25633375Y32564807D01*
X25501655Y32634549D01*
X25501653Y32634550D01*
X25494944Y32638102D01*
X25443015Y32651146D01*
X25343036Y32676259D01*
X25343032Y32676259D01*
X25335665Y32678110D01*
X25328066Y32678150D01*
X25328064Y32678150D01*
X25259930Y32678507D01*
X25171440Y32678970D01*
X25164060Y32677198D01*
X25164058Y32677198D01*
X25085717Y32658390D01*
X25011751Y32640632D01*
X24865816Y32565310D01*
X24742061Y32457351D01*
X24647629Y32322988D01*
X24587973Y32169980D01*
X24566537Y32007157D01*
X24000000Y32007157D01*
X24000000Y35807157D01*
X25016537Y35807157D01*
X25034559Y35643922D01*
X25090997Y35489697D01*
X25182594Y35353387D01*
X25188212Y35348275D01*
X25298440Y35247974D01*
X25298444Y35247971D01*
X25304061Y35242860D01*
X25448387Y35164498D01*
X25607238Y35122824D01*
X25693884Y35121463D01*
X25763848Y35120363D01*
X25763851Y35120363D01*
X25771445Y35120244D01*
X25828186Y35133239D01*
X25924124Y35155212D01*
X25924128Y35155213D01*
X25931527Y35156908D01*
X26007728Y35195233D01*
X26071460Y35227286D01*
X26071463Y35227288D01*
X26078243Y35230698D01*
X26084015Y35235627D01*
X26084017Y35235629D01*
X26197346Y35332421D01*
X26197350Y35332425D01*
X26203122Y35337355D01*
X26298956Y35470721D01*
X26360210Y35623097D01*
X26383350Y35785686D01*
X26383500Y35800000D01*
X26381393Y35817416D01*
X26364682Y35955498D01*
X26363770Y35963038D01*
X26305720Y36116663D01*
X26212701Y36252007D01*
X26144857Y36312454D01*
X32921411Y36312454D01*
X32921764Y36309128D01*
X32921764Y36309119D01*
X32959244Y35955498D01*
X32961603Y35933241D01*
X33041863Y35560445D01*
X33042909Y35557274D01*
X33042910Y35557269D01*
X33073483Y35464553D01*
X33161284Y35198289D01*
X33318514Y34850874D01*
X33320209Y34847990D01*
X33320212Y34847985D01*
X33338412Y34817026D01*
X33511770Y34522134D01*
X33513768Y34519439D01*
X33667868Y34311565D01*
X33738866Y34215791D01*
X33741140Y34213322D01*
X33741142Y34213320D01*
X33806376Y34142503D01*
X33997229Y33935315D01*
X33999757Y33933098D01*
X33999758Y33933097D01*
X34281418Y33686088D01*
X34281423Y33686084D01*
X34283934Y33683882D01*
X34595733Y33464339D01*
X34598650Y33462719D01*
X34598656Y33462715D01*
X34762036Y33371966D01*
X34929097Y33279172D01*
X35280250Y33130477D01*
X35283460Y33129505D01*
X35283465Y33129503D01*
X35412619Y33090386D01*
X35645215Y33019940D01*
X35648498Y33019317D01*
X35648505Y33019315D01*
X35845677Y32981881D01*
X36019861Y32948812D01*
X36399943Y32917897D01*
X36630351Y32923730D01*
X36777802Y32927462D01*
X36777803Y32927462D01*
X36781158Y32927547D01*
X36784483Y32927988D01*
X36784487Y32927988D01*
X37155870Y32977211D01*
X37155869Y32977211D01*
X37159190Y32977651D01*
X37162441Y32978440D01*
X37162449Y32978442D01*
X37526496Y33066851D01*
X37526501Y33066853D01*
X37529756Y33067643D01*
X37532912Y33068776D01*
X37532915Y33068777D01*
X37885502Y33195368D01*
X37885509Y33195371D01*
X37888662Y33196503D01*
X38062663Y33280806D01*
X38228811Y33361304D01*
X38228818Y33361308D01*
X38231842Y33362773D01*
X38555411Y33564569D01*
X38817432Y33769651D01*
X38853062Y33797538D01*
X38853063Y33797539D01*
X38855704Y33799606D01*
X38858110Y33801942D01*
X38858115Y33801946D01*
X38998048Y33937788D01*
X39129321Y34065222D01*
X39334203Y34311566D01*
X39371014Y34355826D01*
X39371015Y34355827D01*
X39373163Y34358410D01*
X39482147Y34522134D01*
X39582608Y34673054D01*
X39582609Y34673056D01*
X39584469Y34675850D01*
X39760846Y35013947D01*
X39762066Y35017053D01*
X39762070Y35017061D01*
X39899073Y35365756D01*
X39899075Y35365761D01*
X39900297Y35368872D01*
X39931733Y35483388D01*
X40000357Y35733378D01*
X40000357Y35733380D01*
X40001243Y35736606D01*
X40012733Y35807157D01*
X40062003Y36109684D01*
X40062004Y36109692D01*
X40062540Y36112984D01*
X40062743Y36116663D01*
X40076618Y36368795D01*
X40083495Y36493746D01*
X40083500Y36500000D01*
X40077899Y36605115D01*
X40063388Y36877462D01*
X40063387Y36877468D01*
X40063210Y36880797D01*
X40058272Y36911459D01*
X40003104Y37253967D01*
X40003104Y37253968D01*
X40002570Y37257282D01*
X39902266Y37625192D01*
X39763435Y37980360D01*
X39696918Y38108411D01*
X39589191Y38315794D01*
X39589189Y38315797D01*
X39587648Y38318764D01*
X39434306Y38550000D01*
X39378751Y38633775D01*
X39378749Y38633777D01*
X39376896Y38636572D01*
X39250553Y38789024D01*
X39135710Y38927598D01*
X39133566Y38930185D01*
X38860414Y39196279D01*
X38857782Y39198346D01*
X38857778Y39198350D01*
X38563169Y39429768D01*
X38563167Y39429769D01*
X38560531Y39431840D01*
X38322467Y39580888D01*
X38240160Y39632419D01*
X38240157Y39632421D01*
X38237315Y39634200D01*
X37894426Y39801068D01*
X37891287Y39802201D01*
X37891278Y39802205D01*
X37639504Y39893096D01*
X37535745Y39930554D01*
X37532486Y39931351D01*
X37532481Y39931353D01*
X37168599Y40020395D01*
X37168591Y40020397D01*
X37165336Y40021193D01*
X37162015Y40021639D01*
X37162010Y40021640D01*
X36935818Y40052021D01*
X36787393Y40071957D01*
X36406195Y40082272D01*
X36402854Y40082006D01*
X36402849Y40082006D01*
X36029408Y40052288D01*
X36029399Y40052287D01*
X36026059Y40052021D01*
X36022764Y40051401D01*
X36022761Y40051401D01*
X35654575Y39982164D01*
X35654567Y39982162D01*
X35651291Y39981546D01*
X35286133Y39871646D01*
X34934721Y39723565D01*
X34931794Y39721946D01*
X34931786Y39721942D01*
X34775827Y39635670D01*
X34601034Y39538980D01*
X34499068Y39467450D01*
X34318520Y39340794D01*
X34288852Y39319982D01*
X34001709Y39069049D01*
X33999434Y39066588D01*
X33999431Y39066585D01*
X33918441Y38978970D01*
X33742857Y38789024D01*
X33740852Y38786329D01*
X33567158Y38552876D01*
X33515227Y38483079D01*
X33321397Y38154676D01*
X33163561Y37807536D01*
X33043508Y37445589D01*
X32962597Y37072934D01*
X32962238Y37069602D01*
X32962237Y37069596D01*
X32941894Y36880797D01*
X32921744Y36693791D01*
X32921741Y36690433D01*
X32921741Y36690432D01*
X32921617Y36547857D01*
X32921411Y36312454D01*
X26144857Y36312454D01*
X26121581Y36333192D01*
X26095750Y36356206D01*
X26090083Y36361255D01*
X26083377Y36364806D01*
X26083375Y36364807D01*
X25951655Y36434549D01*
X25951653Y36434550D01*
X25944944Y36438102D01*
X25893015Y36451146D01*
X25793036Y36476259D01*
X25793032Y36476259D01*
X25785665Y36478110D01*
X25778066Y36478150D01*
X25778064Y36478150D01*
X25709930Y36478507D01*
X25621440Y36478970D01*
X25614060Y36477198D01*
X25614058Y36477198D01*
X25535717Y36458390D01*
X25461751Y36440632D01*
X25315816Y36365310D01*
X25192061Y36257351D01*
X25097629Y36122988D01*
X25037973Y35969980D01*
X25036981Y35962447D01*
X25036981Y35962446D01*
X25017888Y35817416D01*
X25016537Y35807157D01*
X24000000Y35807157D01*
X24000000Y38307157D01*
X25016537Y38307157D01*
X25025548Y38225539D01*
X25033709Y38151625D01*
X25034559Y38143922D01*
X25037168Y38136791D01*
X25037169Y38136789D01*
X25059101Y38076858D01*
X25090997Y37989697D01*
X25182594Y37853387D01*
X25188212Y37848275D01*
X25298440Y37747974D01*
X25298444Y37747971D01*
X25304061Y37742860D01*
X25448387Y37664498D01*
X25607238Y37622824D01*
X25693884Y37621463D01*
X25763848Y37620363D01*
X25763851Y37620363D01*
X25771445Y37620244D01*
X25828186Y37633239D01*
X25924124Y37655212D01*
X25924128Y37655213D01*
X25931527Y37656908D01*
X25938313Y37660321D01*
X25938316Y37660322D01*
X25964602Y37673542D01*
X26034447Y37686280D01*
X26100090Y37659235D01*
X26137958Y37608381D01*
X26180478Y37503667D01*
X26303222Y37303367D01*
X26457033Y37125803D01*
X26600628Y37006588D01*
X26612809Y36996476D01*
X26637778Y36975746D01*
X26642230Y36973144D01*
X26642235Y36973141D01*
X26800263Y36880797D01*
X26840605Y36857223D01*
X27060066Y36773419D01*
X27065132Y36772388D01*
X27065133Y36772388D01*
X27068810Y36771640D01*
X27290268Y36726584D01*
X27422904Y36721721D01*
X27519864Y36718165D01*
X27519868Y36718165D01*
X27525028Y36717976D01*
X27530148Y36718632D01*
X27530150Y36718632D01*
X27600266Y36727614D01*
X27758041Y36747825D01*
X27762990Y36749310D01*
X27762996Y36749311D01*
X27893632Y36788504D01*
X27983051Y36815331D01*
X28067965Y36856930D01*
X28164323Y36904136D01*
X28194013Y36918681D01*
X28198217Y36921679D01*
X28198221Y36921682D01*
X28258092Y36964388D01*
X28281364Y36980987D01*
X28348436Y37004260D01*
X28417445Y36987577D01*
X28466478Y36936233D01*
X28475427Y36913906D01*
X28480819Y36895542D01*
X28488233Y36879308D01*
X28557426Y36771640D01*
X28569112Y36758153D01*
X28665840Y36674338D01*
X28680848Y36664693D01*
X28797275Y36611523D01*
X28814388Y36606498D01*
X28945554Y36587639D01*
X28954495Y36587000D01*
X29581885Y36587000D01*
X29597124Y36591475D01*
X29598329Y36592865D01*
X29600000Y36600548D01*
X29600000Y37736452D01*
X30400000Y37736452D01*
X30400000Y36605115D01*
X30404475Y36589876D01*
X30405865Y36588671D01*
X30413548Y36587000D01*
X31047743Y36587000D01*
X31052250Y36587161D01*
X31116269Y36591740D01*
X31129491Y36594126D01*
X31254458Y36630819D01*
X31270692Y36638233D01*
X31378360Y36707426D01*
X31391847Y36719112D01*
X31475662Y36815840D01*
X31485307Y36830848D01*
X31538477Y36947275D01*
X31543502Y36964388D01*
X31562361Y37095554D01*
X31563000Y37104495D01*
X31563000Y37731885D01*
X31558525Y37747124D01*
X31557135Y37748329D01*
X31549452Y37750000D01*
X30418115Y37750000D01*
X30402876Y37745525D01*
X30401671Y37744135D01*
X30400000Y37736452D01*
X29600000Y37736452D01*
X29600000Y39694885D01*
X29598659Y39699452D01*
X30400000Y39699452D01*
X30400000Y38568115D01*
X30404475Y38552876D01*
X30405865Y38551671D01*
X30413548Y38550000D01*
X31544885Y38550000D01*
X31560124Y38554475D01*
X31561329Y38555865D01*
X31563000Y38563548D01*
X31563000Y39197743D01*
X31562839Y39202250D01*
X31558260Y39266269D01*
X31555874Y39279491D01*
X31519181Y39404458D01*
X31511767Y39420692D01*
X31442574Y39528360D01*
X31430888Y39541847D01*
X31334160Y39625662D01*
X31319152Y39635307D01*
X31202725Y39688477D01*
X31185612Y39693502D01*
X31054446Y39712361D01*
X31045505Y39713000D01*
X30418115Y39713000D01*
X30402876Y39708525D01*
X30401671Y39707135D01*
X30400000Y39699452D01*
X29598659Y39699452D01*
X29595525Y39710124D01*
X29594135Y39711329D01*
X29586452Y39713000D01*
X28952257Y39713000D01*
X28947750Y39712839D01*
X28883731Y39708260D01*
X28870509Y39705874D01*
X28745542Y39669181D01*
X28729308Y39661767D01*
X28621640Y39592574D01*
X28608153Y39580888D01*
X28524338Y39484160D01*
X28514693Y39469152D01*
X28470096Y39371497D01*
X28423603Y39317841D01*
X28355482Y39297839D01*
X28287361Y39317841D01*
X28277404Y39324947D01*
X28253287Y39343993D01*
X28214496Y39365407D01*
X28097905Y39429768D01*
X28047625Y39457524D01*
X27916180Y39504071D01*
X27831053Y39534216D01*
X27831050Y39534217D01*
X27826181Y39535941D01*
X27821092Y39536848D01*
X27821090Y39536848D01*
X27599993Y39576232D01*
X27599987Y39576233D01*
X27594904Y39577138D01*
X27505089Y39578235D01*
X27365173Y39579945D01*
X27365171Y39579945D01*
X27360004Y39580008D01*
X27127789Y39544474D01*
X26904496Y39471491D01*
X26696122Y39363018D01*
X26691989Y39359915D01*
X26691986Y39359913D01*
X26584874Y39279491D01*
X26508262Y39221969D01*
X26504690Y39218231D01*
X26359774Y39066585D01*
X26345961Y39052131D01*
X26245891Y38905434D01*
X26190983Y38860434D01*
X26120459Y38852263D01*
X26082847Y38865087D01*
X25951661Y38934546D01*
X25951658Y38934547D01*
X25944944Y38938102D01*
X25893015Y38951146D01*
X25793036Y38976259D01*
X25793032Y38976259D01*
X25785665Y38978110D01*
X25778066Y38978150D01*
X25778064Y38978150D01*
X25709930Y38978507D01*
X25621440Y38978970D01*
X25614060Y38977198D01*
X25614058Y38977198D01*
X25558677Y38963902D01*
X25461751Y38940632D01*
X25315816Y38865310D01*
X25192061Y38757351D01*
X25097629Y38622988D01*
X25037973Y38469980D01*
X25016537Y38307157D01*
X24000000Y38307157D01*
X24000000Y41474000D01*
X24020002Y41542121D01*
X24073658Y41588614D01*
X24126000Y41600000D01*
X27349756Y41600000D01*
X27417877Y41579998D01*
G37*
G04 #@! TD.AperFunction*
G04 #@! TA.AperFunction,Conductor*
G36*
X15588328Y28479998D02*
G01*
X15634821Y28426342D01*
X15644925Y28356068D01*
X15615431Y28291488D01*
X15609302Y28284905D01*
X15305301Y27980904D01*
X15242989Y27946878D01*
X15183288Y27949864D01*
X15183285Y27949842D01*
X15183080Y27949874D01*
X15177273Y27950165D01*
X15164060Y27954458D01*
X15159125Y27954458D01*
X15109008Y27974911D01*
X15068612Y28003619D01*
X15009214Y28045831D01*
X14866327Y28097274D01*
X14857767Y28097903D01*
X14857765Y28097903D01*
X14765187Y28104701D01*
X14714869Y28108396D01*
X14565999Y28078379D01*
X14558347Y28074480D01*
X14438337Y28013332D01*
X14438334Y28013330D01*
X14430686Y28009433D01*
X14424364Y28003620D01*
X14424363Y28003619D01*
X14333639Y27920194D01*
X14318898Y27906639D01*
X14314370Y27899337D01*
X14314369Y27899335D01*
X14270823Y27829102D01*
X14238871Y27777569D01*
X14196502Y27631733D01*
X14196412Y27623147D01*
X14196412Y27623146D01*
X14195584Y27544076D01*
X14194912Y27479876D01*
X14234218Y27333185D01*
X14311524Y27202468D01*
X14317725Y27196522D01*
X14317726Y27196520D01*
X14360494Y27155507D01*
X14421134Y27097355D01*
X14554974Y27025591D01*
X14563356Y27023717D01*
X14563357Y27023717D01*
X14694797Y26994336D01*
X14694799Y26994336D01*
X14703182Y26992462D01*
X14733523Y26994052D01*
X14802597Y26977643D01*
X14851834Y26926494D01*
X14858667Y26910910D01*
X14862381Y26900593D01*
X14955302Y26763864D01*
X14961250Y26758620D01*
X14961251Y26758619D01*
X15073360Y26659783D01*
X15079306Y26654541D01*
X15226602Y26579490D01*
X15387936Y26543427D01*
X15395862Y26543676D01*
X15395863Y26543676D01*
X15480603Y26546339D01*
X15553169Y26548620D01*
X15659425Y26579490D01*
X15704306Y26592529D01*
X15704308Y26592530D01*
X15711919Y26594741D01*
X15854213Y26678893D01*
X15856602Y26680999D01*
X17356670Y28181068D01*
X17364217Y28187935D01*
X17370381Y28191847D01*
X17382102Y28204328D01*
X17414226Y28238537D01*
X17416981Y28241379D01*
X17440788Y28265186D01*
X17444443Y28269898D01*
X17452153Y28278925D01*
X17457769Y28284905D01*
X17483547Y28312356D01*
X17493787Y28330982D01*
X17504633Y28347495D01*
X17517659Y28364287D01*
X17535872Y28406376D01*
X17541087Y28417021D01*
X17550808Y28434703D01*
X17601151Y28484759D01*
X17661221Y28500000D01*
X22898210Y28500000D01*
X22966331Y28479998D01*
X23012824Y28426342D01*
X23024208Y28373215D01*
X22964092Y18754575D01*
X22964043Y18746804D01*
X22948729Y18693684D01*
X22950903Y18692716D01*
X22947409Y18684869D01*
X22942883Y18677569D01*
X22900514Y18531733D01*
X22900424Y18523147D01*
X22900424Y18523146D01*
X22900127Y18494791D01*
X22898924Y18379876D01*
X22938230Y18233185D01*
X22942601Y18225794D01*
X22942834Y18225400D01*
X22942955Y18224951D01*
X22945931Y18217872D01*
X22944977Y18217471D01*
X22960378Y18160474D01*
X22959038Y17946109D01*
X22919643Y11642949D01*
X22900731Y11577340D01*
X22843399Y11484873D01*
X22843397Y11484869D01*
X22838871Y11477569D01*
X22796502Y11331733D01*
X22794912Y11179876D01*
X22834218Y11033185D01*
X22841550Y11020787D01*
X22844748Y11015380D01*
X22862208Y10946564D01*
X22845916Y10893150D01*
X22846891Y10892716D01*
X22843397Y10884869D01*
X22838871Y10877569D01*
X22796502Y10731733D01*
X22796412Y10723147D01*
X22796412Y10723146D01*
X22796296Y10712055D01*
X22794912Y10579876D01*
X22834218Y10433185D01*
X22859136Y10391052D01*
X22859882Y10389790D01*
X22877342Y10320974D01*
X22858516Y10259255D01*
X22843398Y10234872D01*
X22843395Y10234866D01*
X22838871Y10227569D01*
X22796502Y10081733D01*
X22794912Y9929876D01*
X22834218Y9783185D01*
X22838590Y9775793D01*
X22844748Y9765380D01*
X22862208Y9696564D01*
X22845916Y9643150D01*
X22846891Y9642716D01*
X22843397Y9634869D01*
X22838871Y9627569D01*
X22796502Y9481733D01*
X22794912Y9329876D01*
X22834218Y9183185D01*
X22838594Y9175786D01*
X22885774Y9096009D01*
X22903319Y9031083D01*
X22902596Y8915360D01*
X22901333Y8713191D01*
X22900783Y8625213D01*
X22880355Y8557218D01*
X22826410Y8511062D01*
X22774785Y8500000D01*
X10169640Y8500000D01*
X10101519Y8520002D01*
X10055026Y8573658D01*
X10044922Y8643932D01*
X10074416Y8708512D01*
X10081537Y8715257D01*
X10082801Y8715939D01*
X10094033Y8728089D01*
X10118564Y8754627D01*
X10121993Y8758193D01*
X11718375Y10354575D01*
X11780687Y10388601D01*
X11807470Y10391480D01*
X13225297Y10391480D01*
X13293418Y10371478D01*
X13339911Y10317822D01*
X13349946Y10247076D01*
X13348899Y10239982D01*
X13346502Y10231733D01*
X13344912Y10079876D01*
X13384218Y9933185D01*
X13461524Y9802468D01*
X13571134Y9697355D01*
X13704974Y9625591D01*
X13713356Y9623717D01*
X13713357Y9623717D01*
X13844797Y9594336D01*
X13844799Y9594336D01*
X13853182Y9592462D01*
X13948885Y9597478D01*
X13996257Y9599960D01*
X13996258Y9599960D01*
X14004840Y9600410D01*
X14148773Y9648849D01*
X14155878Y9653678D01*
X14155881Y9653679D01*
X14267275Y9729382D01*
X14267276Y9729383D01*
X14274379Y9734210D01*
X14280094Y9740973D01*
X14366858Y9843645D01*
X14366860Y9843648D01*
X14372401Y9850205D01*
X14421607Y9957679D01*
X14432045Y9980478D01*
X14432045Y9980480D01*
X14435620Y9988287D01*
X14459377Y10138283D01*
X14459500Y10150000D01*
X14446023Y10248381D01*
X14456594Y10318584D01*
X14503443Y10371929D01*
X14570857Y10391480D01*
X15794263Y10391480D01*
X15815350Y10389236D01*
X15818867Y10389070D01*
X15829045Y10386879D01*
X15860543Y10390607D01*
X15865657Y10390909D01*
X15865645Y10391052D01*
X15870823Y10391480D01*
X15876020Y10391480D01*
X15885845Y10393115D01*
X15893063Y10394316D01*
X15898935Y10395151D01*
X15912375Y10396742D01*
X15946277Y10400755D01*
X15953986Y10404457D01*
X15962428Y10405862D01*
X15971595Y10410808D01*
X15971597Y10410809D01*
X16001044Y10426698D01*
X16004413Y10428516D01*
X16009704Y10431212D01*
X16045550Y10448424D01*
X16045553Y10448426D01*
X16052694Y10451855D01*
X16055826Y10454487D01*
X16057771Y10456432D01*
X16059758Y10458254D01*
X16059857Y10458146D01*
X16060693Y10458883D01*
X16066320Y10461919D01*
X16076415Y10472839D01*
X16102083Y10500607D01*
X16105512Y10504173D01*
X16305025Y10703686D01*
X16314824Y10711840D01*
X16315240Y10712055D01*
X16318293Y10714778D01*
X16348987Y10747325D01*
X16353094Y10751680D01*
X16355666Y10754327D01*
X16371911Y10770572D01*
X16374529Y10774235D01*
X16377517Y10777578D01*
X17059243Y11500461D01*
X17678574Y12157181D01*
X17739863Y12193016D01*
X17810797Y12190028D01*
X17868854Y12149164D01*
X17894988Y12087138D01*
X17894912Y12079876D01*
X17897135Y12071580D01*
X17897135Y12071579D01*
X17911169Y12019204D01*
X17934218Y11933185D01*
X18011524Y11802468D01*
X18017725Y11796522D01*
X18017726Y11796520D01*
X18053247Y11762457D01*
X18121134Y11697355D01*
X18254974Y11625591D01*
X18263356Y11623717D01*
X18263357Y11623717D01*
X18394797Y11594336D01*
X18394799Y11594336D01*
X18403182Y11592462D01*
X18498885Y11597478D01*
X18546257Y11599960D01*
X18546258Y11599960D01*
X18554840Y11600410D01*
X18562982Y11603150D01*
X18562987Y11603151D01*
X18593162Y11613306D01*
X18664105Y11616076D01*
X18725283Y11580052D01*
X18757273Y11516670D01*
X18754346Y11458732D01*
X18746502Y11431733D01*
X18744912Y11279876D01*
X18784218Y11133185D01*
X18784558Y11132610D01*
X18792090Y11065854D01*
X18760645Y11002201D01*
X18699778Y10965653D01*
X18628814Y10967814D01*
X18594990Y10984866D01*
X18509204Y11045831D01*
X18366317Y11097274D01*
X18357757Y11097903D01*
X18357755Y11097903D01*
X18265177Y11104701D01*
X18214859Y11108396D01*
X18065989Y11078379D01*
X18058337Y11074480D01*
X17938327Y11013332D01*
X17938324Y11013330D01*
X17930676Y11009433D01*
X17924354Y11003620D01*
X17924353Y11003619D01*
X17884191Y10966688D01*
X17818888Y10906639D01*
X17814360Y10899337D01*
X17814359Y10899335D01*
X17753023Y10800410D01*
X17738861Y10777569D01*
X17696492Y10631733D01*
X17696402Y10623147D01*
X17696402Y10623146D01*
X17695636Y10550000D01*
X17694902Y10479876D01*
X17734208Y10333185D01*
X17811514Y10202468D01*
X17817715Y10196522D01*
X17817716Y10196520D01*
X17839857Y10175288D01*
X17921124Y10097355D01*
X17928994Y10093135D01*
X17929210Y10092922D01*
X17935645Y10088247D01*
X17934941Y10087278D01*
X17979576Y10043321D01*
X17995447Y9980772D01*
X17994914Y9929876D01*
X18025653Y9815156D01*
X18034220Y9783185D01*
X18031858Y9782552D01*
X18038395Y9724664D01*
X18021365Y9679978D01*
X17993399Y9634873D01*
X17993397Y9634869D01*
X17988871Y9627569D01*
X17946502Y9481733D01*
X17944912Y9329876D01*
X17984218Y9183185D01*
X18061524Y9052468D01*
X18171134Y8947355D01*
X18304974Y8875591D01*
X18313356Y8873717D01*
X18313357Y8873717D01*
X18444797Y8844336D01*
X18444799Y8844336D01*
X18453182Y8842462D01*
X18548885Y8847478D01*
X18596257Y8849960D01*
X18596258Y8849960D01*
X18604840Y8850410D01*
X18748773Y8898849D01*
X18755878Y8903678D01*
X18755881Y8903679D01*
X18867275Y8979382D01*
X18867276Y8979383D01*
X18874379Y8984210D01*
X18879922Y8990769D01*
X18966858Y9093645D01*
X18966860Y9093648D01*
X18972401Y9100205D01*
X19035620Y9238287D01*
X19059377Y9388283D01*
X19059500Y9400000D01*
X19038889Y9550461D01*
X19019903Y9594336D01*
X19019613Y9595005D01*
X19010915Y9665467D01*
X19023894Y9699522D01*
X19022403Y9700205D01*
X19082047Y9830478D01*
X19082047Y9830480D01*
X19085622Y9838287D01*
X19109379Y9988283D01*
X19109502Y10000000D01*
X19088891Y10150461D01*
X19079478Y10172214D01*
X19031989Y10281955D01*
X19031987Y10281958D01*
X19028578Y10289836D01*
X18933006Y10407858D01*
X18861702Y10458531D01*
X18817763Y10514296D01*
X18809687Y10550027D01*
X18809490Y10550000D01*
X18809178Y10552281D01*
X18809177Y10552286D01*
X18788879Y10700461D01*
X18785468Y10708344D01*
X18785466Y10708350D01*
X18762128Y10762281D01*
X18753431Y10832743D01*
X18784210Y10896721D01*
X18844691Y10933903D01*
X18915674Y10932483D01*
X18957505Y10907688D01*
X18957986Y10908350D01*
X18964927Y10903307D01*
X18971134Y10897355D01*
X19104974Y10825591D01*
X19113356Y10823717D01*
X19113357Y10823717D01*
X19244797Y10794336D01*
X19244799Y10794336D01*
X19253182Y10792462D01*
X19348885Y10797478D01*
X19396257Y10799960D01*
X19396258Y10799960D01*
X19404840Y10800410D01*
X19548773Y10848849D01*
X19555878Y10853678D01*
X19555881Y10853679D01*
X19667275Y10929382D01*
X19667276Y10929383D01*
X19674379Y10934210D01*
X19681748Y10942930D01*
X19766858Y11043645D01*
X19766860Y11043648D01*
X19772401Y11050205D01*
X19818632Y11151182D01*
X19832045Y11180478D01*
X19832045Y11180480D01*
X19835620Y11188287D01*
X19859377Y11338283D01*
X19859500Y11350000D01*
X19838889Y11500461D01*
X19823390Y11536278D01*
X19781987Y11631955D01*
X19781985Y11631958D01*
X19778576Y11639836D01*
X19773171Y11646510D01*
X19773169Y11646514D01*
X19695693Y11742189D01*
X19668367Y11807716D01*
X19679050Y11873935D01*
X19682044Y11880475D01*
X19682045Y11880479D01*
X19685620Y11888287D01*
X19709377Y12038283D01*
X19709500Y12050000D01*
X19688889Y12200461D01*
X19685477Y12208346D01*
X19631987Y12331955D01*
X19631985Y12331958D01*
X19628576Y12339836D01*
X19533004Y12457858D01*
X19409214Y12545831D01*
X19266327Y12597274D01*
X19257767Y12597903D01*
X19257765Y12597903D01*
X19165187Y12604701D01*
X19114869Y12608396D01*
X18965999Y12578379D01*
X18958349Y12574481D01*
X18958340Y12574478D01*
X18939711Y12564986D01*
X18869935Y12551882D01*
X18809521Y12574547D01*
X18716216Y12640855D01*
X18709214Y12645831D01*
X18566327Y12697274D01*
X18557767Y12697903D01*
X18557765Y12697903D01*
X18465187Y12704701D01*
X18414869Y12708396D01*
X18265999Y12678379D01*
X18258347Y12674480D01*
X18138337Y12613332D01*
X18138334Y12613330D01*
X18130686Y12609433D01*
X18115784Y12595730D01*
X18052103Y12564346D01*
X17981561Y12572372D01*
X17926558Y12617262D01*
X17904500Y12688480D01*
X17904500Y14389977D01*
X17924502Y14458098D01*
X17978158Y14504591D01*
X18048432Y14514695D01*
X18113012Y14485201D01*
X18119595Y14479072D01*
X19108749Y13489918D01*
X19142775Y13427606D01*
X19145647Y13399504D01*
X19145217Y13358396D01*
X19144918Y13329876D01*
X19147141Y13321581D01*
X19147141Y13321578D01*
X19179402Y13201182D01*
X19184224Y13183185D01*
X19261530Y13052468D01*
X19267731Y13046522D01*
X19267732Y13046520D01*
X19306890Y13008969D01*
X19371140Y12947355D01*
X19504980Y12875591D01*
X19513362Y12873717D01*
X19513363Y12873717D01*
X19644803Y12844336D01*
X19644805Y12844336D01*
X19653188Y12842462D01*
X19748891Y12847478D01*
X19796263Y12849960D01*
X19796264Y12849960D01*
X19804846Y12850410D01*
X19948779Y12898849D01*
X19955884Y12903678D01*
X19955887Y12903679D01*
X20067281Y12979382D01*
X20067282Y12979383D01*
X20074385Y12984210D01*
X20079928Y12990769D01*
X20166864Y13093645D01*
X20166866Y13093648D01*
X20172407Y13100205D01*
X20218638Y13201182D01*
X20232051Y13230478D01*
X20232051Y13230480D01*
X20235626Y13238287D01*
X20259383Y13388283D01*
X20259506Y13400000D01*
X20256165Y13424389D01*
X20266736Y13494593D01*
X20313586Y13547938D01*
X20381838Y13567486D01*
X20440539Y13552534D01*
X20468056Y13537779D01*
X20476438Y13535905D01*
X20476439Y13535905D01*
X20607879Y13506524D01*
X20607881Y13506524D01*
X20616264Y13504650D01*
X20711967Y13509666D01*
X20759339Y13512148D01*
X20759340Y13512148D01*
X20767922Y13512598D01*
X20911855Y13561037D01*
X20970860Y13601136D01*
X21038443Y13622882D01*
X21107055Y13604638D01*
X21128886Y13587869D01*
X21171134Y13547355D01*
X21304974Y13475591D01*
X21313356Y13473717D01*
X21313357Y13473717D01*
X21444797Y13444336D01*
X21444799Y13444336D01*
X21453182Y13442462D01*
X21548885Y13447478D01*
X21596257Y13449960D01*
X21596258Y13449960D01*
X21604840Y13450410D01*
X21748773Y13498849D01*
X21755878Y13503678D01*
X21755881Y13503679D01*
X21867275Y13579382D01*
X21867276Y13579383D01*
X21874379Y13584210D01*
X21879922Y13590769D01*
X21966858Y13693645D01*
X21966860Y13693648D01*
X21972401Y13700205D01*
X22012345Y13787449D01*
X22032045Y13830478D01*
X22032045Y13830480D01*
X22035620Y13838287D01*
X22059377Y13988283D01*
X22059500Y14000000D01*
X22038889Y14150461D01*
X22005361Y14227940D01*
X21981987Y14281955D01*
X21981985Y14281958D01*
X21978576Y14289836D01*
X21883004Y14407858D01*
X21759214Y14495831D01*
X21627385Y14543293D01*
X21624405Y14544366D01*
X21624403Y14544366D01*
X21616327Y14547274D01*
X21607769Y14547902D01*
X21607766Y14547903D01*
X21595861Y14548777D01*
X21529388Y14573716D01*
X21515995Y14585344D01*
X21391405Y14709934D01*
X21357379Y14772246D01*
X21354500Y14799029D01*
X21354500Y19684057D01*
X21356744Y19705144D01*
X21356910Y19708661D01*
X21359101Y19718839D01*
X21355373Y19750337D01*
X21355071Y19755451D01*
X21354928Y19755439D01*
X21354500Y19760617D01*
X21354500Y19765814D01*
X21351664Y19782857D01*
X21350829Y19788729D01*
X21346449Y19825729D01*
X21345225Y19836071D01*
X21341523Y19843781D01*
X21340118Y19852222D01*
X21333586Y19864329D01*
X21317475Y19894186D01*
X21314777Y19899480D01*
X21297560Y19935336D01*
X21294126Y19942488D01*
X21291493Y19945620D01*
X21289559Y19947554D01*
X21287735Y19949543D01*
X21287843Y19949642D01*
X21287096Y19950489D01*
X21284061Y19956114D01*
X21265019Y19973717D01*
X21245373Y19991877D01*
X21241807Y19995306D01*
X19077940Y22159173D01*
X19043914Y22221485D01*
X19041515Y22244961D01*
X19041332Y22244950D01*
X19041042Y22249566D01*
X19041090Y22254184D01*
X19028046Y22349406D01*
X19024098Y22378228D01*
X19034670Y22448433D01*
X19081519Y22501777D01*
X19149772Y22521325D01*
X19217758Y22500870D01*
X19251104Y22466030D01*
X19251816Y22466594D01*
X19257150Y22459864D01*
X19261524Y22452468D01*
X19267725Y22446522D01*
X19267726Y22446520D01*
X19297827Y22417654D01*
X19371134Y22347355D01*
X19504974Y22275591D01*
X19513356Y22273717D01*
X19513357Y22273717D01*
X19644797Y22244336D01*
X19644799Y22244336D01*
X19653182Y22242462D01*
X19748885Y22247478D01*
X19796257Y22249960D01*
X19796258Y22249960D01*
X19804840Y22250410D01*
X19948773Y22298849D01*
X19955878Y22303678D01*
X19955881Y22303679D01*
X20067275Y22379382D01*
X20067276Y22379383D01*
X20074379Y22384210D01*
X20084030Y22395630D01*
X20166858Y22493645D01*
X20166860Y22493648D01*
X20172401Y22500205D01*
X20219726Y22603571D01*
X20232045Y22630478D01*
X20232045Y22630480D01*
X20235620Y22638287D01*
X20259377Y22788283D01*
X20259500Y22800000D01*
X20238889Y22950461D01*
X20223772Y22985395D01*
X20181987Y23081955D01*
X20181985Y23081958D01*
X20178576Y23089836D01*
X20083004Y23207858D01*
X19959214Y23295831D01*
X19816327Y23347274D01*
X19807767Y23347903D01*
X19807765Y23347903D01*
X19715187Y23354701D01*
X19664869Y23358396D01*
X19515999Y23328379D01*
X19508347Y23324480D01*
X19388337Y23263332D01*
X19388334Y23263330D01*
X19380686Y23259433D01*
X19374364Y23253620D01*
X19374363Y23253619D01*
X19324598Y23207858D01*
X19268898Y23156639D01*
X19264370Y23149337D01*
X19264369Y23149335D01*
X19227478Y23089836D01*
X19188871Y23027569D01*
X19146502Y22881733D01*
X19144912Y22729876D01*
X19151262Y22706179D01*
X19157276Y22683732D01*
X19155586Y22612755D01*
X19115791Y22553960D01*
X19050527Y22526012D01*
X18980513Y22537786D01*
X18937648Y22571827D01*
X18925910Y22586323D01*
X18864594Y22662042D01*
X18740804Y22750015D01*
X18597917Y22801458D01*
X18589357Y22802087D01*
X18589355Y22802087D01*
X18496777Y22808885D01*
X18446459Y22812580D01*
X18297589Y22782563D01*
X18289937Y22778664D01*
X18169927Y22717516D01*
X18169924Y22717514D01*
X18162276Y22713617D01*
X18155954Y22707804D01*
X18155953Y22707803D01*
X18058450Y22618144D01*
X18050488Y22610823D01*
X18045960Y22603521D01*
X18045959Y22603519D01*
X17974987Y22489053D01*
X17970461Y22481753D01*
X17928092Y22335917D01*
X17928002Y22327331D01*
X17928002Y22327330D01*
X17927460Y22275591D01*
X17926502Y22184060D01*
X17965808Y22037369D01*
X18043114Y21906652D01*
X18049316Y21900705D01*
X18054651Y21893973D01*
X18051985Y21891860D01*
X18079295Y21844235D01*
X18075709Y21773329D01*
X18063847Y21748493D01*
X18025396Y21686478D01*
X17988871Y21627569D01*
X17946502Y21481733D01*
X17944912Y21329876D01*
X17984218Y21183185D01*
X18061524Y21052468D01*
X18067725Y21046522D01*
X18067726Y21046520D01*
X18087517Y21027541D01*
X18171134Y20947355D01*
X18304974Y20875591D01*
X18313356Y20873717D01*
X18313357Y20873717D01*
X18444797Y20844336D01*
X18444799Y20844336D01*
X18453182Y20842462D01*
X18548885Y20847478D01*
X18596257Y20849960D01*
X18596258Y20849960D01*
X18604840Y20850410D01*
X18612981Y20853150D01*
X18612987Y20853151D01*
X18638097Y20861602D01*
X18709039Y20864374D01*
X18767382Y20831279D01*
X20271677Y19326984D01*
X20305703Y19264672D01*
X20308582Y19237889D01*
X20308582Y16304379D01*
X20288580Y16236258D01*
X20234924Y16189765D01*
X20164650Y16179661D01*
X20109596Y16201672D01*
X19995873Y16282490D01*
X19852986Y16333933D01*
X19844426Y16334562D01*
X19844424Y16334562D01*
X19743852Y16341947D01*
X19701528Y16345055D01*
X19552658Y16315038D01*
X19545006Y16311139D01*
X19424996Y16249991D01*
X19424993Y16249989D01*
X19417345Y16246092D01*
X19411023Y16240279D01*
X19411022Y16240278D01*
X19336578Y16171823D01*
X19305557Y16143298D01*
X19301029Y16135996D01*
X19301028Y16135994D01*
X19237565Y16033639D01*
X19225530Y16014228D01*
X19183161Y15868392D01*
X19183071Y15859806D01*
X19183071Y15859805D01*
X19182653Y15819866D01*
X19181571Y15716535D01*
X19220877Y15569844D01*
X19298183Y15439127D01*
X19407793Y15334014D01*
X19541633Y15262250D01*
X19550015Y15260376D01*
X19550016Y15260376D01*
X19681456Y15230995D01*
X19681458Y15230995D01*
X19689841Y15229121D01*
X19785544Y15234137D01*
X19832916Y15236619D01*
X19832917Y15236619D01*
X19841499Y15237069D01*
X19985432Y15285508D01*
X19992537Y15290337D01*
X19992540Y15290338D01*
X20111038Y15370869D01*
X20112984Y15368005D01*
X20162288Y15391662D01*
X20232741Y15382893D01*
X20287269Y15337426D01*
X20308582Y15267307D01*
X20308582Y14544576D01*
X20288580Y14476455D01*
X20267871Y14451830D01*
X20231980Y14418827D01*
X20227452Y14411525D01*
X20227451Y14411523D01*
X20163176Y14307858D01*
X20151953Y14289757D01*
X20109584Y14143921D01*
X20109494Y14135335D01*
X20109494Y14135334D01*
X20108288Y14020122D01*
X20087574Y13952214D01*
X20033435Y13906286D01*
X19963059Y13896918D01*
X19939614Y13902890D01*
X19868968Y13928324D01*
X19816333Y13947274D01*
X19807773Y13947903D01*
X19807771Y13947903D01*
X19706777Y13955319D01*
X19687943Y13956702D01*
X19621470Y13981640D01*
X19608076Y13993269D01*
X18491405Y15109940D01*
X18457379Y15172252D01*
X18454500Y15199035D01*
X18454500Y16050971D01*
X18474502Y16119092D01*
X18491405Y16140066D01*
X19180668Y16829329D01*
X19197151Y16842642D01*
X19199762Y16845018D01*
X19208514Y16850669D01*
X19228149Y16875576D01*
X19231553Y16879407D01*
X19231443Y16879500D01*
X19234796Y16883457D01*
X19238477Y16887138D01*
X19248519Y16901190D01*
X19252083Y16905936D01*
X19275150Y16935196D01*
X19275151Y16935198D01*
X19281598Y16943376D01*
X19284432Y16951445D01*
X19289407Y16958407D01*
X19303074Y17004105D01*
X19304901Y17009730D01*
X19320713Y17054757D01*
X19321066Y17058833D01*
X19321066Y17061542D01*
X19321184Y17064275D01*
X19321329Y17064269D01*
X19321399Y17065383D01*
X19323231Y17071508D01*
X19321163Y17124150D01*
X19321066Y17129096D01*
X19321066Y18231717D01*
X19323310Y18252804D01*
X19323476Y18256321D01*
X19325667Y18266499D01*
X19321939Y18297997D01*
X19321637Y18303111D01*
X19321494Y18303099D01*
X19321066Y18308277D01*
X19321066Y18313474D01*
X19318230Y18330517D01*
X19317395Y18336389D01*
X19315416Y18353110D01*
X19311791Y18383731D01*
X19308089Y18391440D01*
X19306684Y18399882D01*
X19295898Y18419873D01*
X19284031Y18441865D01*
X19281334Y18447158D01*
X19264122Y18483004D01*
X19264120Y18483007D01*
X19260691Y18490148D01*
X19258059Y18493280D01*
X19256114Y18495225D01*
X19254292Y18497212D01*
X19254400Y18497311D01*
X19253663Y18498147D01*
X19250627Y18503774D01*
X19211939Y18539537D01*
X19208373Y18542966D01*
X19096350Y18654989D01*
X19062324Y18717301D01*
X19059925Y18740777D01*
X19059742Y18740766D01*
X19059452Y18745382D01*
X19059500Y18750000D01*
X19038889Y18900461D01*
X19035477Y18908346D01*
X18981987Y19031955D01*
X18981985Y19031958D01*
X18978576Y19039836D01*
X18883004Y19157858D01*
X18776032Y19233879D01*
X18766216Y19240855D01*
X18759214Y19245831D01*
X18616327Y19297274D01*
X18607767Y19297903D01*
X18607765Y19297903D01*
X18515187Y19304701D01*
X18464869Y19308396D01*
X18315999Y19278379D01*
X18308347Y19274480D01*
X18188337Y19213332D01*
X18188334Y19213330D01*
X18180686Y19209433D01*
X18174364Y19203620D01*
X18174363Y19203619D01*
X18145152Y19176758D01*
X18068898Y19106639D01*
X18064370Y19099337D01*
X18064369Y19099335D01*
X17995476Y18988222D01*
X17988871Y18977569D01*
X17988521Y18976364D01*
X17944829Y18924961D01*
X17876901Y18904312D01*
X17869421Y18904551D01*
X17868521Y18904494D01*
X17859959Y18905123D01*
X17733543Y18879633D01*
X17729276Y18878773D01*
X17711089Y18875106D01*
X17703437Y18871207D01*
X17583427Y18810059D01*
X17583424Y18810057D01*
X17575776Y18806160D01*
X17569454Y18800347D01*
X17569453Y18800346D01*
X17473858Y18712442D01*
X17463988Y18703366D01*
X17459460Y18696064D01*
X17459459Y18696062D01*
X17392753Y18588476D01*
X17383961Y18574296D01*
X17381565Y18566049D01*
X17378850Y18556704D01*
X17341592Y18428460D01*
X17341502Y18419873D01*
X17340713Y18344577D01*
X17319998Y18276669D01*
X17303815Y18256802D01*
X15725973Y16678960D01*
X15663661Y16644934D01*
X15592846Y16649999D01*
X15538957Y16688761D01*
X15537262Y16690855D01*
X15483004Y16757858D01*
X15359214Y16845831D01*
X15216327Y16897274D01*
X15207767Y16897903D01*
X15207765Y16897903D01*
X15115187Y16904701D01*
X15064869Y16908396D01*
X14915999Y16878379D01*
X14908347Y16874480D01*
X14788337Y16813332D01*
X14788334Y16813330D01*
X14780686Y16809433D01*
X14774364Y16803620D01*
X14774363Y16803619D01*
X14758387Y16788928D01*
X14668898Y16706639D01*
X14664370Y16699337D01*
X14664369Y16699335D01*
X14601210Y16597470D01*
X14588871Y16577569D01*
X14546502Y16431733D01*
X14546412Y16423147D01*
X14546412Y16423146D01*
X14545734Y16358346D01*
X14544912Y16279876D01*
X14584218Y16133185D01*
X14661524Y16002468D01*
X14667725Y15996522D01*
X14667726Y15996520D01*
X14700433Y15965155D01*
X14771134Y15897355D01*
X14778710Y15893293D01*
X14778711Y15893292D01*
X14793269Y15885486D01*
X14843851Y15835667D01*
X14859470Y15766410D01*
X14852608Y15732694D01*
X14848480Y15720939D01*
X14845853Y15713457D01*
X14845500Y15709381D01*
X14845500Y15706672D01*
X14845382Y15703939D01*
X14845237Y15703945D01*
X14845167Y15702831D01*
X14843335Y15696706D01*
X14844238Y15673717D01*
X14845403Y15644064D01*
X14845500Y15639118D01*
X14845500Y12630500D01*
X14825498Y12562379D01*
X14771842Y12515886D01*
X14719500Y12504500D01*
X10469067Y12504500D01*
X10400946Y12524502D01*
X10379972Y12541405D01*
X10051981Y12869396D01*
X10024841Y12912912D01*
X10024398Y12915571D01*
X10001755Y12957535D01*
X9999057Y12962829D01*
X9989980Y12981733D01*
X9978406Y13005837D01*
X9975773Y13008969D01*
X9974154Y13010588D01*
X9969002Y13018567D01*
X9970885Y13019783D01*
X9945562Y13071314D01*
X9944067Y13089891D01*
X9944023Y13089888D01*
X9943865Y13092401D01*
X9943728Y13094102D01*
X9943781Y13099122D01*
X9923170Y13249583D01*
X9903157Y13295831D01*
X9866268Y13381077D01*
X9866266Y13381080D01*
X9862857Y13388958D01*
X9767285Y13506980D01*
X9643495Y13594953D01*
X9500608Y13646396D01*
X9492048Y13647025D01*
X9492046Y13647025D01*
X9399468Y13653823D01*
X9349150Y13657518D01*
X9200280Y13627501D01*
X9192628Y13623602D01*
X9072618Y13562454D01*
X9072615Y13562452D01*
X9064967Y13558555D01*
X9058645Y13552742D01*
X9058644Y13552741D01*
X8979159Y13479651D01*
X8953179Y13455761D01*
X8948651Y13448459D01*
X8948650Y13448457D01*
X8884110Y13344365D01*
X8873152Y13326691D01*
X8830783Y13180855D01*
X8830693Y13172269D01*
X8830693Y13172268D01*
X8830225Y13127569D01*
X8829193Y13028998D01*
X8868499Y12882307D01*
X8945805Y12751590D01*
X8950661Y12746933D01*
X8976962Y12681956D01*
X8963791Y12612191D01*
X8955910Y12600203D01*
X8956145Y12600057D01*
X8884317Y12484210D01*
X8876118Y12470987D01*
X8833749Y12325151D01*
X8833659Y12316565D01*
X8833659Y12316564D01*
X8833524Y12303679D01*
X8832159Y12173294D01*
X8871465Y12026603D01*
X8948771Y11895886D01*
X8954972Y11889940D01*
X8954973Y11889938D01*
X8990486Y11855882D01*
X9058381Y11790773D01*
X9188877Y11720802D01*
X9192221Y11719009D01*
X9191951Y11718505D01*
X9243900Y11679690D01*
X9268772Y11613192D01*
X9253744Y11543805D01*
X9228392Y11511346D01*
X9168898Y11456639D01*
X9164370Y11449337D01*
X9164369Y11449335D01*
X9095514Y11338283D01*
X9088871Y11327569D01*
X9046502Y11181733D01*
X9044968Y11035251D01*
X9044968Y11035249D01*
X9044934Y11031955D01*
X9044912Y11029876D01*
X9044103Y11029884D01*
X9033910Y10966688D01*
X8986505Y10913836D01*
X8977412Y10908718D01*
X8888337Y10863332D01*
X8888334Y10863330D01*
X8880686Y10859433D01*
X8874364Y10853620D01*
X8874363Y10853619D01*
X8810909Y10795270D01*
X8768898Y10756639D01*
X8764370Y10749337D01*
X8764369Y10749335D01*
X8696435Y10639769D01*
X8688871Y10627569D01*
X8646502Y10481733D01*
X8646412Y10473147D01*
X8646412Y10473146D01*
X8645720Y10407085D01*
X8644912Y10329876D01*
X8684218Y10183185D01*
X8690706Y10172214D01*
X8706337Y10145784D01*
X8723797Y10076968D01*
X8701280Y10009637D01*
X8645936Y9965168D01*
X8575336Y9957679D01*
X8508789Y9992550D01*
X7846350Y10654989D01*
X7812324Y10717301D01*
X7809925Y10740777D01*
X7809742Y10740766D01*
X7809452Y10745382D01*
X7809500Y10750000D01*
X7788889Y10900461D01*
X7775032Y10932483D01*
X7731987Y11031955D01*
X7731985Y11031958D01*
X7728576Y11039836D01*
X7633004Y11157858D01*
X7521712Y11236949D01*
X7516216Y11240855D01*
X7509214Y11245831D01*
X7366327Y11297274D01*
X7357767Y11297903D01*
X7357765Y11297903D01*
X7290598Y11302835D01*
X7214869Y11308396D01*
X7209805Y11307375D01*
X7142169Y11322696D01*
X7092398Y11373326D01*
X7077499Y11432762D01*
X7077499Y12118926D01*
X7097501Y12187047D01*
X7151157Y12233540D01*
X7196904Y12244753D01*
X7296257Y12249960D01*
X7296258Y12249960D01*
X7304840Y12250410D01*
X7448773Y12298849D01*
X7455878Y12303678D01*
X7455881Y12303679D01*
X7567275Y12379382D01*
X7567276Y12379383D01*
X7574379Y12384210D01*
X7581206Y12392289D01*
X7666858Y12493645D01*
X7666860Y12493648D01*
X7672401Y12500205D01*
X7706406Y12574478D01*
X7732045Y12630478D01*
X7732045Y12630480D01*
X7735620Y12638287D01*
X7759377Y12788283D01*
X7759500Y12800000D01*
X7738889Y12950461D01*
X7735477Y12958346D01*
X7681987Y13081955D01*
X7681985Y13081958D01*
X7678576Y13089836D01*
X7583004Y13207858D01*
X7459214Y13295831D01*
X7316327Y13347274D01*
X7307767Y13347903D01*
X7307765Y13347903D01*
X7215187Y13354701D01*
X7164869Y13358396D01*
X7015999Y13328379D01*
X7008347Y13324480D01*
X6888337Y13263332D01*
X6888334Y13263330D01*
X6880686Y13259433D01*
X6874364Y13253620D01*
X6874363Y13253619D01*
X6804200Y13189101D01*
X6768898Y13156639D01*
X6764370Y13149337D01*
X6764369Y13149335D01*
X6701565Y13048043D01*
X6688871Y13027569D01*
X6646502Y12881733D01*
X6646412Y12873145D01*
X6645623Y12797839D01*
X6624908Y12729931D01*
X6608725Y12710064D01*
X6508897Y12610236D01*
X6492414Y12596923D01*
X6489803Y12594547D01*
X6481051Y12588896D01*
X6469685Y12574478D01*
X6461416Y12563989D01*
X6458012Y12560158D01*
X6458122Y12560065D01*
X6454769Y12556108D01*
X6451088Y12552427D01*
X6443211Y12541405D01*
X6441046Y12538375D01*
X6437482Y12533629D01*
X6414415Y12504369D01*
X6414414Y12504367D01*
X6407967Y12496189D01*
X6405133Y12488120D01*
X6400158Y12481158D01*
X6397175Y12471183D01*
X6386491Y12435460D01*
X6384664Y12429835D01*
X6368852Y12384808D01*
X6368499Y12380732D01*
X6368499Y12378023D01*
X6368381Y12375290D01*
X6368236Y12375296D01*
X6368166Y12374182D01*
X6366334Y12368057D01*
X6367443Y12339836D01*
X6368402Y12315415D01*
X6368499Y12310469D01*
X6368499Y10548756D01*
X6366255Y10527669D01*
X6366089Y10524152D01*
X6363898Y10513974D01*
X6366738Y10489979D01*
X6367626Y10482479D01*
X6367928Y10477362D01*
X6368071Y10477374D01*
X6368499Y10472196D01*
X6368499Y10466999D01*
X6369942Y10458331D01*
X6371335Y10449956D01*
X6372170Y10444084D01*
X6377774Y10396742D01*
X6381476Y10389033D01*
X6382881Y10380591D01*
X6387827Y10371424D01*
X6387828Y10371422D01*
X6405534Y10338608D01*
X6408231Y10333315D01*
X6425443Y10297469D01*
X6425445Y10297466D01*
X6428874Y10290325D01*
X6431506Y10287193D01*
X6433451Y10285248D01*
X6435273Y10283261D01*
X6435165Y10283162D01*
X6435902Y10282326D01*
X6438938Y10276699D01*
X6446587Y10269628D01*
X6446588Y10269627D01*
X6477626Y10240936D01*
X6481192Y10237507D01*
X7803604Y8915095D01*
X7837630Y8852783D01*
X7832565Y8781968D01*
X7790018Y8725132D01*
X7723498Y8700321D01*
X7714509Y8700000D01*
X6838626Y8700000D01*
X6791416Y8710428D01*
X6791003Y8709396D01*
X6787840Y8710661D01*
X6784747Y8712097D01*
X6781522Y8713189D01*
X6781516Y8713191D01*
X6433564Y8830966D01*
X6433559Y8830968D01*
X6430328Y8832061D01*
X6410901Y8836368D01*
X6339572Y8852181D01*
X6065026Y8913046D01*
X5919133Y8929153D01*
X5696495Y8953733D01*
X5696490Y8953733D01*
X5693114Y8954106D01*
X5689715Y8954112D01*
X5689714Y8954112D01*
X5513001Y8954420D01*
X5318944Y8954759D01*
X5211654Y8943293D01*
X4950275Y8915360D01*
X4950269Y8915359D01*
X4946891Y8914998D01*
X4706096Y8862496D01*
X4635279Y8867527D01*
X4578423Y8910047D01*
X4553580Y8976555D01*
X4568585Y9045690D01*
X4572401Y9050205D01*
X4582301Y9071829D01*
X4632045Y9180478D01*
X4632045Y9180480D01*
X4635620Y9188287D01*
X4659377Y9338283D01*
X4659500Y9350000D01*
X4638889Y9500461D01*
X4635477Y9508346D01*
X4581987Y9631955D01*
X4581985Y9631958D01*
X4578576Y9639836D01*
X4483004Y9757858D01*
X4376093Y9833836D01*
X4366216Y9840855D01*
X4359214Y9845831D01*
X4351137Y9848739D01*
X4351131Y9848742D01*
X4335312Y9854437D01*
X4277995Y9896332D01*
X4252427Y9962565D01*
X4253160Y9986991D01*
X4253038Y9987000D01*
X4253249Y9989945D01*
X4253278Y9990921D01*
X4253359Y9991482D01*
X4254000Y9995940D01*
X4254000Y11111885D01*
X4274002Y11180006D01*
X4327658Y11226499D01*
X4397932Y11236603D01*
X4462512Y11207109D01*
X4488453Y11176024D01*
X4561524Y11052468D01*
X4567725Y11046522D01*
X4567726Y11046520D01*
X4606366Y11009466D01*
X4671134Y10947355D01*
X4804974Y10875591D01*
X4813356Y10873717D01*
X4813357Y10873717D01*
X4944797Y10844336D01*
X4944799Y10844336D01*
X4953182Y10842462D01*
X5048885Y10847478D01*
X5096257Y10849960D01*
X5096258Y10849960D01*
X5104840Y10850410D01*
X5248773Y10898849D01*
X5255878Y10903678D01*
X5255881Y10903679D01*
X5367275Y10979382D01*
X5367276Y10979383D01*
X5374379Y10984210D01*
X5387898Y11000208D01*
X5466858Y11093645D01*
X5466860Y11093648D01*
X5472401Y11100205D01*
X5535620Y11238287D01*
X5559377Y11388283D01*
X5559500Y11400000D01*
X5538889Y11550461D01*
X5535477Y11558346D01*
X5481987Y11681955D01*
X5481985Y11681958D01*
X5478576Y11689836D01*
X5383004Y11807858D01*
X5272841Y11886147D01*
X5266216Y11890855D01*
X5259214Y11895831D01*
X5116327Y11947274D01*
X5107767Y11947903D01*
X5107765Y11947903D01*
X5015187Y11954701D01*
X4964869Y11958396D01*
X4815999Y11928379D01*
X4808347Y11924480D01*
X4688337Y11863332D01*
X4688334Y11863330D01*
X4680686Y11859433D01*
X4674364Y11853620D01*
X4674363Y11853619D01*
X4596533Y11782051D01*
X4568898Y11756639D01*
X4564370Y11749337D01*
X4564369Y11749335D01*
X4509731Y11661213D01*
X4488871Y11627569D01*
X4486755Y11628881D01*
X4449125Y11584611D01*
X4381197Y11563963D01*
X4312890Y11583316D01*
X4265889Y11636528D01*
X4254000Y11689957D01*
X4254000Y12771906D01*
X4274002Y12840027D01*
X4327658Y12886520D01*
X4397932Y12896624D01*
X4462512Y12867130D01*
X4501707Y12804517D01*
X4534218Y12683185D01*
X4611524Y12552468D01*
X4617725Y12546522D01*
X4617726Y12546520D01*
X4626220Y12538375D01*
X4721134Y12447355D01*
X4854974Y12375591D01*
X4863356Y12373717D01*
X4863357Y12373717D01*
X4994797Y12344336D01*
X4994799Y12344336D01*
X5003182Y12342462D01*
X5098885Y12347478D01*
X5146257Y12349960D01*
X5146258Y12349960D01*
X5154840Y12350410D01*
X5298773Y12398849D01*
X5305878Y12403678D01*
X5305881Y12403679D01*
X5417275Y12479382D01*
X5417276Y12479383D01*
X5424379Y12484210D01*
X5440213Y12502947D01*
X5516858Y12593645D01*
X5516860Y12593648D01*
X5522401Y12600205D01*
X5567131Y12697903D01*
X5582045Y12730478D01*
X5582045Y12730480D01*
X5585620Y12738287D01*
X5609377Y12888283D01*
X5609500Y12900000D01*
X5588889Y13050461D01*
X5579865Y13071314D01*
X5531987Y13181955D01*
X5531985Y13181958D01*
X5528576Y13189836D01*
X5433004Y13307858D01*
X5309214Y13395831D01*
X5166327Y13447274D01*
X5157767Y13447903D01*
X5157765Y13447903D01*
X5050752Y13455761D01*
X5014869Y13458396D01*
X4865999Y13428379D01*
X4858347Y13424480D01*
X4738337Y13363332D01*
X4738334Y13363330D01*
X4730686Y13359433D01*
X4724364Y13353620D01*
X4724363Y13353619D01*
X4662623Y13296846D01*
X4618898Y13256639D01*
X4614370Y13249337D01*
X4614369Y13249335D01*
X4546453Y13139798D01*
X4538871Y13127569D01*
X4536475Y13119322D01*
X4500997Y12997205D01*
X4462784Y12937370D01*
X4398288Y12907692D01*
X4327985Y12917595D01*
X4274197Y12963935D01*
X4254000Y13032358D01*
X4254000Y14929876D01*
X7044912Y14929876D01*
X7084218Y14783185D01*
X7161524Y14652468D01*
X7167725Y14646522D01*
X7167726Y14646520D01*
X7210494Y14605507D01*
X7271134Y14547355D01*
X7404974Y14475591D01*
X7413356Y14473717D01*
X7413357Y14473717D01*
X7544797Y14444336D01*
X7544799Y14444336D01*
X7553182Y14442462D01*
X7648885Y14447478D01*
X7696257Y14449960D01*
X7696258Y14449960D01*
X7704840Y14450410D01*
X7848773Y14498849D01*
X7855878Y14503678D01*
X7855881Y14503679D01*
X7967275Y14579382D01*
X7967276Y14579383D01*
X7974379Y14584210D01*
X7979922Y14590769D01*
X8066858Y14693645D01*
X8066860Y14693648D01*
X8072401Y14700205D01*
X8114192Y14791485D01*
X8132045Y14830478D01*
X8132045Y14830480D01*
X8135620Y14838287D01*
X8159377Y14988283D01*
X8159500Y15000000D01*
X8138889Y15150461D01*
X8117869Y15199035D01*
X8081987Y15281955D01*
X8081985Y15281958D01*
X8078576Y15289836D01*
X7983004Y15407858D01*
X7859214Y15495831D01*
X7716327Y15547274D01*
X7707767Y15547903D01*
X7707765Y15547903D01*
X7615187Y15554701D01*
X7564869Y15558396D01*
X7415999Y15528379D01*
X7408347Y15524480D01*
X7288337Y15463332D01*
X7288334Y15463330D01*
X7280686Y15459433D01*
X7274364Y15453620D01*
X7274363Y15453619D01*
X7258603Y15439127D01*
X7168898Y15356639D01*
X7164370Y15349337D01*
X7164369Y15349335D01*
X7110374Y15262250D01*
X7088871Y15227569D01*
X7046502Y15081733D01*
X7044912Y14929876D01*
X4254000Y14929876D01*
X4254000Y16071906D01*
X4274002Y16140027D01*
X4327658Y16186520D01*
X4397932Y16196624D01*
X4462512Y16167130D01*
X4501707Y16104517D01*
X4534218Y15983185D01*
X4611524Y15852468D01*
X4617725Y15846522D01*
X4617726Y15846520D01*
X4631922Y15832907D01*
X4721134Y15747355D01*
X4854974Y15675591D01*
X4863356Y15673717D01*
X4863357Y15673717D01*
X4994797Y15644336D01*
X4994799Y15644336D01*
X5003182Y15642462D01*
X5098885Y15647478D01*
X5146257Y15649960D01*
X5146258Y15649960D01*
X5154840Y15650410D01*
X5298773Y15698849D01*
X5305878Y15703678D01*
X5305881Y15703679D01*
X5417275Y15779382D01*
X5417276Y15779383D01*
X5424379Y15784210D01*
X5429922Y15790769D01*
X5516858Y15893645D01*
X5516860Y15893648D01*
X5522401Y15900205D01*
X5566498Y15996520D01*
X5569403Y16002866D01*
X9844912Y16002866D01*
X9884218Y15856175D01*
X9961524Y15725458D01*
X9967725Y15719512D01*
X9967726Y15719510D01*
X9993337Y15694950D01*
X10071134Y15620345D01*
X10204974Y15548581D01*
X10213356Y15546707D01*
X10213357Y15546707D01*
X10344797Y15517326D01*
X10344799Y15517326D01*
X10353182Y15515452D01*
X10448885Y15520468D01*
X10496257Y15522950D01*
X10496258Y15522950D01*
X10504840Y15523400D01*
X10648773Y15571839D01*
X10655878Y15576668D01*
X10655881Y15576669D01*
X10767275Y15652372D01*
X10767276Y15652373D01*
X10774379Y15657200D01*
X10788337Y15673717D01*
X10866858Y15766635D01*
X10866860Y15766638D01*
X10872401Y15773195D01*
X10923812Y15885486D01*
X10932045Y15903468D01*
X10932045Y15903470D01*
X10935620Y15911277D01*
X10959377Y16061273D01*
X10959500Y16072990D01*
X10938889Y16223451D01*
X10931607Y16240278D01*
X10881987Y16354945D01*
X10881985Y16354948D01*
X10878576Y16362826D01*
X10783004Y16480848D01*
X10659214Y16568821D01*
X10516327Y16620264D01*
X10507767Y16620893D01*
X10507765Y16620893D01*
X10415187Y16627691D01*
X10364869Y16631386D01*
X10215999Y16601369D01*
X10208347Y16597470D01*
X10088337Y16536322D01*
X10088334Y16536320D01*
X10080686Y16532423D01*
X10074364Y16526610D01*
X10074363Y16526609D01*
X10036903Y16492163D01*
X9968898Y16429629D01*
X9964370Y16422327D01*
X9964369Y16422325D01*
X9909954Y16334562D01*
X9888871Y16300559D01*
X9886475Y16292312D01*
X9883402Y16281733D01*
X9846502Y16154723D01*
X9846412Y16146137D01*
X9846412Y16146136D01*
X9845890Y16096314D01*
X9844912Y16002866D01*
X5569403Y16002866D01*
X5582045Y16030478D01*
X5582045Y16030480D01*
X5585620Y16038287D01*
X5609377Y16188283D01*
X5609438Y16194141D01*
X5609452Y16195383D01*
X5609452Y16195389D01*
X5609500Y16200000D01*
X5588889Y16350461D01*
X5580651Y16369499D01*
X5531987Y16481955D01*
X5531985Y16481958D01*
X5528576Y16489836D01*
X5433004Y16607858D01*
X5319573Y16688469D01*
X5316216Y16690855D01*
X5309214Y16695831D01*
X5166327Y16747274D01*
X5157767Y16747903D01*
X5157765Y16747903D01*
X5065187Y16754701D01*
X5014869Y16758396D01*
X4865999Y16728379D01*
X4858347Y16724480D01*
X4738337Y16663332D01*
X4738334Y16663330D01*
X4730686Y16659433D01*
X4724364Y16653620D01*
X4724363Y16653619D01*
X4649598Y16584869D01*
X4618898Y16556639D01*
X4614370Y16549337D01*
X4614369Y16549335D01*
X4543397Y16434869D01*
X4538871Y16427569D01*
X4536475Y16419322D01*
X4500997Y16297205D01*
X4462784Y16237370D01*
X4398288Y16207692D01*
X4327985Y16217595D01*
X4274197Y16263935D01*
X4254000Y16332358D01*
X4254000Y18698776D01*
X10357464Y18698776D01*
X10396770Y18552085D01*
X10474076Y18421368D01*
X10480277Y18415422D01*
X10480278Y18415420D01*
X10510860Y18386093D01*
X10583686Y18316255D01*
X10717526Y18244491D01*
X10725908Y18242617D01*
X10725909Y18242617D01*
X10857349Y18213236D01*
X10857351Y18213236D01*
X10865734Y18211362D01*
X10961437Y18216378D01*
X11008809Y18218860D01*
X11008810Y18218860D01*
X11017392Y18219310D01*
X11161325Y18267749D01*
X11168430Y18272578D01*
X11168433Y18272579D01*
X11279827Y18348282D01*
X11279828Y18348283D01*
X11286931Y18353110D01*
X11292474Y18359669D01*
X11379410Y18462545D01*
X11379412Y18462548D01*
X11384953Y18469105D01*
X11436456Y18581596D01*
X11444597Y18599378D01*
X11444597Y18599380D01*
X11448172Y18607187D01*
X11471929Y18757183D01*
X11472052Y18768900D01*
X11451441Y18919361D01*
X11442742Y18939463D01*
X11394539Y19050855D01*
X11394537Y19050858D01*
X11391128Y19058736D01*
X11295556Y19176758D01*
X11171766Y19264731D01*
X11028879Y19316174D01*
X11020319Y19316803D01*
X11020317Y19316803D01*
X10927739Y19323601D01*
X10877421Y19327296D01*
X10728551Y19297279D01*
X10720899Y19293380D01*
X10600889Y19232232D01*
X10600886Y19232230D01*
X10593238Y19228333D01*
X10586916Y19222520D01*
X10586915Y19222519D01*
X10549886Y19188469D01*
X10481450Y19125539D01*
X10476922Y19118237D01*
X10476921Y19118235D01*
X10440030Y19058736D01*
X10401423Y18996469D01*
X10359054Y18850633D01*
X10357464Y18698776D01*
X4254000Y18698776D01*
X4254000Y20211885D01*
X4274002Y20280006D01*
X4327658Y20326499D01*
X4397932Y20336603D01*
X4462512Y20307109D01*
X4488453Y20276024D01*
X4561524Y20152468D01*
X4567725Y20146522D01*
X4567726Y20146520D01*
X4589044Y20126077D01*
X4671134Y20047355D01*
X4804974Y19975591D01*
X4813356Y19973717D01*
X4813357Y19973717D01*
X4944797Y19944336D01*
X4944799Y19944336D01*
X4953182Y19942462D01*
X5048885Y19947478D01*
X5096257Y19949960D01*
X5096258Y19949960D01*
X5104840Y19950410D01*
X5248773Y19998849D01*
X5255878Y20003678D01*
X5255881Y20003679D01*
X5367275Y20079382D01*
X5367276Y20079383D01*
X5374379Y20084210D01*
X5379922Y20090769D01*
X5466858Y20193645D01*
X5466860Y20193648D01*
X5472401Y20200205D01*
X5535620Y20338287D01*
X5559377Y20488283D01*
X5559500Y20500000D01*
X5538889Y20650461D01*
X5529393Y20672406D01*
X5481987Y20781955D01*
X5481985Y20781958D01*
X5478576Y20789836D01*
X5383004Y20907858D01*
X5259214Y20995831D01*
X5116327Y21047274D01*
X5107767Y21047903D01*
X5107765Y21047903D01*
X5015187Y21054701D01*
X4964869Y21058396D01*
X4815999Y21028379D01*
X4808347Y21024480D01*
X4688337Y20963332D01*
X4688334Y20963330D01*
X4680686Y20959433D01*
X4674364Y20953620D01*
X4674363Y20953619D01*
X4596533Y20882051D01*
X4568898Y20856639D01*
X4564370Y20849337D01*
X4564369Y20849335D01*
X4560387Y20842912D01*
X4488871Y20727569D01*
X4486755Y20728881D01*
X4449125Y20684611D01*
X4381197Y20663963D01*
X4312890Y20683316D01*
X4265889Y20736528D01*
X4254000Y20789957D01*
X4254000Y21975469D01*
X4252545Y22002616D01*
X4249666Y22029399D01*
X4220050Y22123984D01*
X4206357Y22149061D01*
X4188180Y22182348D01*
X4188179Y22182350D01*
X4186024Y22186296D01*
X4162170Y22218161D01*
X4145397Y22240567D01*
X4145393Y22240571D01*
X4142700Y22244169D01*
X3961995Y22424874D01*
X3927969Y22487186D01*
X3925092Y22514757D01*
X3925163Y22526012D01*
X3928459Y23053433D01*
X3948887Y23121427D01*
X4002832Y23167584D01*
X4073168Y23177248D01*
X4137563Y23147352D01*
X4143552Y23141740D01*
X4926403Y22358889D01*
X4939716Y22342406D01*
X4942092Y22339795D01*
X4947743Y22331043D01*
X4969163Y22314157D01*
X4972650Y22311408D01*
X4976484Y22308001D01*
X4976577Y22308111D01*
X4980535Y22304757D01*
X4984212Y22301080D01*
X4988437Y22298061D01*
X4988439Y22298059D01*
X4998259Y22291041D01*
X5003002Y22287479D01*
X5032273Y22264405D01*
X5040450Y22257959D01*
X5048520Y22255125D01*
X5055482Y22250150D01*
X5099182Y22237081D01*
X5101182Y22236483D01*
X5106830Y22234648D01*
X5151831Y22218844D01*
X5155907Y22218491D01*
X5158619Y22218491D01*
X5161349Y22218373D01*
X5161343Y22218227D01*
X5162458Y22218157D01*
X5168583Y22216325D01*
X5215302Y22218161D01*
X5284155Y22200849D01*
X5332719Y22149061D01*
X5346242Y22090939D01*
X5345146Y21986267D01*
X5344912Y21963886D01*
X5384218Y21817195D01*
X5461524Y21686478D01*
X5467725Y21680532D01*
X5467726Y21680530D01*
X5510494Y21639517D01*
X5571134Y21581365D01*
X5704974Y21509601D01*
X5713356Y21507727D01*
X5713357Y21507727D01*
X5844797Y21478346D01*
X5844799Y21478346D01*
X5853182Y21476472D01*
X5953569Y21481733D01*
X5996257Y21483970D01*
X5996258Y21483970D01*
X6004840Y21484420D01*
X6148773Y21532859D01*
X6155878Y21537688D01*
X6155881Y21537689D01*
X6267275Y21613392D01*
X6267276Y21613393D01*
X6274379Y21618220D01*
X6279922Y21624779D01*
X6366858Y21727655D01*
X6366860Y21727658D01*
X6372401Y21734215D01*
X6421687Y21841864D01*
X6432045Y21864488D01*
X6432045Y21864490D01*
X6435620Y21872297D01*
X6459377Y22022293D01*
X6459500Y22034010D01*
X6453831Y22075391D01*
X6464402Y22145595D01*
X6511251Y22198940D01*
X6578665Y22218491D01*
X6977980Y22218491D01*
X7046101Y22198489D01*
X7067075Y22181586D01*
X7962763Y21285898D01*
X7976076Y21269415D01*
X7978452Y21266804D01*
X7984103Y21258052D01*
X8008898Y21238505D01*
X8009010Y21238417D01*
X8012841Y21235013D01*
X8012934Y21235123D01*
X8016891Y21231770D01*
X8020572Y21228089D01*
X8024804Y21225065D01*
X8034624Y21218047D01*
X8039370Y21214483D01*
X8068630Y21191416D01*
X8068632Y21191415D01*
X8076810Y21184968D01*
X8084879Y21182134D01*
X8091841Y21177159D01*
X8130896Y21165479D01*
X8137539Y21163492D01*
X8143164Y21161665D01*
X8188191Y21145853D01*
X8192267Y21145500D01*
X8194976Y21145500D01*
X8197709Y21145382D01*
X8197703Y21145237D01*
X8198817Y21145167D01*
X8204942Y21143335D01*
X8257584Y21145403D01*
X8262530Y21145500D01*
X10048680Y21145500D01*
X10116801Y21125498D01*
X10163294Y21071842D01*
X10174673Y21018181D01*
X10174021Y20955882D01*
X10173307Y20887695D01*
X10212613Y20741004D01*
X10289919Y20610287D01*
X10296120Y20604341D01*
X10296121Y20604339D01*
X10333589Y20568409D01*
X10399529Y20505174D01*
X10533369Y20433410D01*
X10541751Y20431536D01*
X10541752Y20431536D01*
X10673192Y20402155D01*
X10673194Y20402155D01*
X10681577Y20400281D01*
X10717335Y20402155D01*
X10723443Y20402475D01*
X10792517Y20386066D01*
X10819132Y20365743D01*
X10957868Y20227007D01*
X10971181Y20210524D01*
X10973557Y20207913D01*
X10979208Y20199161D01*
X11004115Y20179526D01*
X11007946Y20176122D01*
X11008039Y20176232D01*
X11011996Y20172879D01*
X11015677Y20169198D01*
X11019909Y20166174D01*
X11029729Y20159156D01*
X11034475Y20155592D01*
X11063735Y20132525D01*
X11063737Y20132524D01*
X11071915Y20126077D01*
X11079984Y20123243D01*
X11086946Y20118268D01*
X11126001Y20106588D01*
X11132644Y20104601D01*
X11138269Y20102774D01*
X11183296Y20086962D01*
X11187372Y20086609D01*
X11190081Y20086609D01*
X11192814Y20086491D01*
X11192808Y20086346D01*
X11193922Y20086276D01*
X11200047Y20084444D01*
X11252689Y20086512D01*
X11257635Y20086609D01*
X12059862Y20086609D01*
X12127983Y20066607D01*
X12148957Y20049704D01*
X13898903Y18299758D01*
X13928109Y18249170D01*
X13928665Y18249404D01*
X13930514Y18245005D01*
X13931516Y18243271D01*
X13934218Y18233185D01*
X14011524Y18102468D01*
X14121134Y17997355D01*
X14254974Y17925591D01*
X14263356Y17923717D01*
X14263357Y17923717D01*
X14394797Y17894336D01*
X14394799Y17894336D01*
X14403182Y17892462D01*
X14498885Y17897478D01*
X14546257Y17899960D01*
X14546258Y17899960D01*
X14554840Y17900410D01*
X14698773Y17948849D01*
X14705878Y17953678D01*
X14705881Y17953679D01*
X14817275Y18029382D01*
X14817276Y18029383D01*
X14824379Y18034210D01*
X14831520Y18042660D01*
X14916858Y18143645D01*
X14916860Y18143648D01*
X14922401Y18150205D01*
X14965860Y18245128D01*
X14982045Y18280478D01*
X14982045Y18280480D01*
X14985620Y18288287D01*
X15009377Y18438283D01*
X15009500Y18450000D01*
X14988889Y18600461D01*
X14992023Y18600890D01*
X14992776Y18656628D01*
X15031963Y18715830D01*
X15096937Y18744448D01*
X15113182Y18745500D01*
X15518138Y18745500D01*
X15586259Y18725498D01*
X15605348Y18710441D01*
X15664933Y18653301D01*
X15664936Y18653299D01*
X15671134Y18647355D01*
X15804974Y18575591D01*
X15813356Y18573717D01*
X15813357Y18573717D01*
X15944797Y18544336D01*
X15944799Y18544336D01*
X15953182Y18542462D01*
X16048885Y18547478D01*
X16096257Y18549960D01*
X16096258Y18549960D01*
X16104840Y18550410D01*
X16248773Y18598849D01*
X16255878Y18603678D01*
X16255881Y18603679D01*
X16367275Y18679382D01*
X16367276Y18679383D01*
X16374379Y18684210D01*
X16379922Y18690769D01*
X16466858Y18793645D01*
X16466860Y18793648D01*
X16472401Y18800205D01*
X16520065Y18904312D01*
X16532045Y18930478D01*
X16532045Y18930480D01*
X16535620Y18938287D01*
X16559377Y19088283D01*
X16559500Y19100000D01*
X16538889Y19250461D01*
X16534867Y19259755D01*
X16481987Y19381955D01*
X16481985Y19381958D01*
X16478576Y19389836D01*
X16383004Y19507858D01*
X16259214Y19595831D01*
X16251134Y19598740D01*
X16251132Y19598741D01*
X16229997Y19606350D01*
X16213899Y19612145D01*
X16156582Y19654039D01*
X16131012Y19720271D01*
X16145309Y19789813D01*
X16167485Y19819791D01*
X16710051Y20362357D01*
X16726247Y20375438D01*
X16729034Y20377974D01*
X16737786Y20383625D01*
X16757277Y20408349D01*
X16761617Y20413232D01*
X16761570Y20413272D01*
X16764925Y20417231D01*
X16768602Y20420908D01*
X16771621Y20425133D01*
X16771629Y20425142D01*
X16780683Y20437812D01*
X16784247Y20442560D01*
X16809507Y20474602D01*
X16809507Y20474603D01*
X16815953Y20482779D01*
X16818984Y20491410D01*
X16824305Y20498856D01*
X16838985Y20547941D01*
X16840819Y20553586D01*
X16855162Y20594427D01*
X16855163Y20594430D01*
X16857788Y20601906D01*
X16858513Y20610278D01*
X16858513Y20612987D01*
X16858526Y20613282D01*
X16860482Y20619823D01*
X16858610Y20667458D01*
X16858513Y20672406D01*
X16858513Y22329716D01*
X16860718Y22350434D01*
X16860895Y22354192D01*
X16863086Y22364368D01*
X16859386Y22395630D01*
X16859002Y22402147D01*
X16858941Y22402142D01*
X16858513Y22407321D01*
X16858513Y22412521D01*
X16856457Y22424874D01*
X16855104Y22433004D01*
X16854267Y22438881D01*
X16852106Y22457135D01*
X16848246Y22489753D01*
X16844285Y22498001D01*
X16842783Y22507027D01*
X16818444Y22552135D01*
X16815766Y22557393D01*
X16797024Y22596425D01*
X16797022Y22596429D01*
X16793592Y22603571D01*
X16788185Y22610003D01*
X16786249Y22611939D01*
X16786071Y22612133D01*
X16782828Y22618144D01*
X16769066Y22630866D01*
X16747824Y22650501D01*
X16744257Y22653931D01*
X13868313Y25529876D01*
X16944912Y25529876D01*
X16984218Y25383185D01*
X17061524Y25252468D01*
X17171134Y25147355D01*
X17304974Y25075591D01*
X17313356Y25073717D01*
X17313357Y25073717D01*
X17444797Y25044336D01*
X17444799Y25044336D01*
X17453182Y25042462D01*
X17548885Y25047478D01*
X17596257Y25049960D01*
X17596258Y25049960D01*
X17604840Y25050410D01*
X17748773Y25098849D01*
X17755878Y25103678D01*
X17755881Y25103679D01*
X17867275Y25179382D01*
X17867276Y25179383D01*
X17874379Y25184210D01*
X17884148Y25195770D01*
X17966858Y25293645D01*
X17966860Y25293648D01*
X17972401Y25300205D01*
X18035620Y25438287D01*
X18050126Y25529876D01*
X19244912Y25529876D01*
X19284218Y25383185D01*
X19361524Y25252468D01*
X19471134Y25147355D01*
X19604974Y25075591D01*
X19613356Y25073717D01*
X19613357Y25073717D01*
X19744797Y25044336D01*
X19744799Y25044336D01*
X19753182Y25042462D01*
X19848885Y25047478D01*
X19896257Y25049960D01*
X19896258Y25049960D01*
X19904840Y25050410D01*
X20048773Y25098849D01*
X20055878Y25103678D01*
X20055881Y25103679D01*
X20167275Y25179382D01*
X20167276Y25179383D01*
X20174379Y25184210D01*
X20184148Y25195770D01*
X20266858Y25293645D01*
X20266860Y25293648D01*
X20272401Y25300205D01*
X20335620Y25438287D01*
X20350126Y25529876D01*
X21621922Y25529876D01*
X21661228Y25383185D01*
X21738534Y25252468D01*
X21848144Y25147355D01*
X21981984Y25075591D01*
X21990366Y25073717D01*
X21990367Y25073717D01*
X22121807Y25044336D01*
X22121809Y25044336D01*
X22130192Y25042462D01*
X22225895Y25047478D01*
X22273267Y25049960D01*
X22273268Y25049960D01*
X22281850Y25050410D01*
X22425783Y25098849D01*
X22432888Y25103678D01*
X22432891Y25103679D01*
X22544285Y25179382D01*
X22544286Y25179383D01*
X22551389Y25184210D01*
X22561158Y25195770D01*
X22643868Y25293645D01*
X22643870Y25293648D01*
X22649411Y25300205D01*
X22712630Y25438287D01*
X22736387Y25588283D01*
X22736510Y25600000D01*
X22715899Y25750461D01*
X22700674Y25785645D01*
X22658997Y25881955D01*
X22658995Y25881958D01*
X22655586Y25889836D01*
X22560014Y26007858D01*
X22436224Y26095831D01*
X22293337Y26147274D01*
X22284777Y26147903D01*
X22284775Y26147903D01*
X22192197Y26154701D01*
X22141879Y26158396D01*
X21993009Y26128379D01*
X21985357Y26124480D01*
X21865347Y26063332D01*
X21865344Y26063330D01*
X21857696Y26059433D01*
X21745908Y25956639D01*
X21741380Y25949337D01*
X21741379Y25949335D01*
X21670407Y25834869D01*
X21665881Y25827569D01*
X21623512Y25681733D01*
X21621922Y25529876D01*
X20350126Y25529876D01*
X20359377Y25588283D01*
X20359500Y25600000D01*
X20338889Y25750461D01*
X20323664Y25785645D01*
X20281987Y25881955D01*
X20281985Y25881958D01*
X20278576Y25889836D01*
X20183004Y26007858D01*
X20059214Y26095831D01*
X19916327Y26147274D01*
X19907767Y26147903D01*
X19907765Y26147903D01*
X19815187Y26154701D01*
X19764869Y26158396D01*
X19615999Y26128379D01*
X19608347Y26124480D01*
X19488337Y26063332D01*
X19488334Y26063330D01*
X19480686Y26059433D01*
X19368898Y25956639D01*
X19364370Y25949337D01*
X19364369Y25949335D01*
X19293397Y25834869D01*
X19288871Y25827569D01*
X19246502Y25681733D01*
X19244912Y25529876D01*
X18050126Y25529876D01*
X18059377Y25588283D01*
X18059500Y25600000D01*
X18038889Y25750461D01*
X18023664Y25785645D01*
X17981987Y25881955D01*
X17981985Y25881958D01*
X17978576Y25889836D01*
X17883004Y26007858D01*
X17759214Y26095831D01*
X17616327Y26147274D01*
X17607767Y26147903D01*
X17607765Y26147903D01*
X17515187Y26154701D01*
X17464869Y26158396D01*
X17315999Y26128379D01*
X17308347Y26124480D01*
X17188337Y26063332D01*
X17188334Y26063330D01*
X17180686Y26059433D01*
X17068898Y25956639D01*
X17064370Y25949337D01*
X17064369Y25949335D01*
X16993397Y25834869D01*
X16988871Y25827569D01*
X16946502Y25681733D01*
X16944912Y25529876D01*
X13868313Y25529876D01*
X13189127Y26209062D01*
X13176050Y26225254D01*
X13173509Y26228047D01*
X13167860Y26236795D01*
X13143141Y26256282D01*
X13138256Y26260624D01*
X13138216Y26260577D01*
X13134259Y26263930D01*
X13130578Y26267611D01*
X13113666Y26279697D01*
X13108920Y26283260D01*
X13076884Y26308515D01*
X13068706Y26314962D01*
X13060075Y26317993D01*
X13052629Y26323314D01*
X13042651Y26326298D01*
X13042649Y26326299D01*
X13003537Y26337996D01*
X12997890Y26339831D01*
X12957058Y26354171D01*
X12957055Y26354172D01*
X12949579Y26356797D01*
X12941207Y26357522D01*
X12938498Y26357522D01*
X12938205Y26357535D01*
X12931663Y26359491D01*
X12906293Y26358494D01*
X12884027Y26357619D01*
X12879079Y26357522D01*
X11503499Y26357522D01*
X11435378Y26377524D01*
X11388885Y26431180D01*
X11377499Y26483522D01*
X11377499Y26688615D01*
X11397501Y26756736D01*
X11414404Y26777710D01*
X12631038Y27994344D01*
X12647234Y28007425D01*
X12650021Y28009961D01*
X12658773Y28015612D01*
X12678264Y28040336D01*
X12682604Y28045219D01*
X12682557Y28045259D01*
X12685912Y28049218D01*
X12689589Y28052895D01*
X12692608Y28057120D01*
X12692616Y28057129D01*
X12701670Y28069799D01*
X12705234Y28074547D01*
X12705434Y28074800D01*
X12736940Y28114766D01*
X12739971Y28123397D01*
X12745292Y28130843D01*
X12751852Y28152776D01*
X12759974Y28179935D01*
X12761809Y28185582D01*
X12763031Y28189060D01*
X12766038Y28197625D01*
X12776149Y28226414D01*
X12776150Y28226417D01*
X12778775Y28233893D01*
X12779500Y28242265D01*
X12779500Y28244974D01*
X12779513Y28245267D01*
X12781469Y28251809D01*
X12779597Y28299445D01*
X12779500Y28304393D01*
X12779500Y28374000D01*
X12799502Y28442121D01*
X12853158Y28488614D01*
X12905500Y28500000D01*
X15520207Y28500000D01*
X15588328Y28479998D01*
G37*
G04 #@! TD.AperFunction*
M02*
