G04 #@! TF.GenerationSoftware,KiCad,Pcbnew,5.99.0-unknown-293f207356~131~ubuntu20.04.1*
G04 #@! TF.CreationDate,2021-07-30T20:50:04-07:00*
G04 #@! TF.ProjectId,Huvud,48757675-642e-46b6-9963-61645f706362,rev?*
G04 #@! TF.SameCoordinates,PXad91980PY876bf80*
G04 #@! TF.FileFunction,Copper,L3,Inr*
G04 #@! TF.FilePolarity,Positive*
%FSLAX46Y46*%
G04 Gerber Fmt 4.6, Leading zero omitted, Abs format (unit mm)*
G04 Created by KiCad (PCBNEW 5.99.0-unknown-293f207356~131~ubuntu20.04.1) date 2021-07-30 20:50:04*
%MOMM*%
%LPD*%
G01*
G04 APERTURE LIST*
G04 Aperture macros list*
%AMRoundRect*
0 Rectangle with rounded corners*
0 $1 Rounding radius*
0 $2 $3 $4 $5 $6 $7 $8 $9 X,Y pos of 4 corners*
0 Add a 4 corners polygon primitive as box body*
4,1,4,$2,$3,$4,$5,$6,$7,$8,$9,$2,$3,0*
0 Add four circle primitives for the rounded corners*
1,1,$1+$1,$2,$3*
1,1,$1+$1,$4,$5*
1,1,$1+$1,$6,$7*
1,1,$1+$1,$8,$9*
0 Add four rect primitives between the rounded corners*
20,1,$1+$1,$2,$3,$4,$5,0*
20,1,$1+$1,$4,$5,$6,$7,0*
20,1,$1+$1,$6,$7,$8,$9,0*
20,1,$1+$1,$8,$9,$2,$3,0*%
G04 Aperture macros list end*
G04 #@! TA.AperFunction,ComponentPad*
%ADD10RoundRect,0.250000X0.625000X-0.350000X0.625000X0.350000X-0.625000X0.350000X-0.625000X-0.350000X0*%
G04 #@! TD*
G04 #@! TA.AperFunction,ComponentPad*
%ADD11O,1.750000X1.200000*%
G04 #@! TD*
G04 #@! TA.AperFunction,ComponentPad*
%ADD12C,0.800000*%
G04 #@! TD*
G04 #@! TA.AperFunction,ComponentPad*
%ADD13C,6.400000*%
G04 #@! TD*
G04 #@! TA.AperFunction,ComponentPad*
%ADD14R,1.700000X1.700000*%
G04 #@! TD*
G04 #@! TA.AperFunction,ComponentPad*
%ADD15O,1.700000X1.700000*%
G04 #@! TD*
G04 #@! TA.AperFunction,ComponentPad*
%ADD16R,2.100000X2.100000*%
G04 #@! TD*
G04 #@! TA.AperFunction,ComponentPad*
%ADD17C,2.100000*%
G04 #@! TD*
G04 #@! TA.AperFunction,ComponentPad*
%ADD18RoundRect,0.250000X0.725000X-0.600000X0.725000X0.600000X-0.725000X0.600000X-0.725000X-0.600000X0*%
G04 #@! TD*
G04 #@! TA.AperFunction,ComponentPad*
%ADD19O,1.950000X1.700000*%
G04 #@! TD*
G04 #@! TA.AperFunction,ViaPad*
%ADD20C,0.600000*%
G04 #@! TD*
G04 #@! TA.AperFunction,ViaPad*
%ADD21C,0.800000*%
G04 #@! TD*
G04 #@! TA.AperFunction,ViaPad*
%ADD22C,1.000000*%
G04 #@! TD*
G04 #@! TA.AperFunction,Conductor*
%ADD23C,0.500000*%
G04 #@! TD*
G04 #@! TA.AperFunction,Conductor*
%ADD24C,0.200000*%
G04 #@! TD*
G04 APERTURE END LIST*
D10*
X2100000Y11500000D03*
D11*
X2100000Y13500000D03*
X2100000Y15500000D03*
X2100000Y17500000D03*
X2100000Y19500000D03*
D10*
X23250000Y2500000D03*
D11*
X23250000Y4500000D03*
D12*
X36500000Y34100000D03*
X34802944Y38197056D03*
X36500000Y38900000D03*
X34100000Y36500000D03*
X38900000Y36500000D03*
X38197056Y38197056D03*
X34802944Y34802944D03*
D13*
X36500000Y36500000D03*
D12*
X38197056Y34802944D03*
X38197056Y3802944D03*
X36500000Y3100000D03*
X36500000Y7900000D03*
X38197056Y7197056D03*
X38900000Y5500000D03*
X34802944Y3802944D03*
X34802944Y7197056D03*
D13*
X36500000Y5500000D03*
D12*
X34100000Y5500000D03*
D10*
X10850000Y2500000D03*
D11*
X10850000Y4500000D03*
D12*
X3100000Y5500000D03*
X3802944Y3802944D03*
X7900000Y5500000D03*
X5500000Y7900000D03*
D13*
X5500000Y5500000D03*
D12*
X3802944Y7197056D03*
X7197056Y7197056D03*
X5500000Y3100000D03*
X7197056Y3802944D03*
D14*
X4388500Y26024000D03*
D15*
X1848500Y26024000D03*
X4388500Y28564000D03*
X1848500Y28564000D03*
X4388500Y31104000D03*
X1848500Y31104000D03*
D12*
X5500000Y38900000D03*
X7197056Y34802944D03*
X7900000Y36500000D03*
X7197056Y38197056D03*
D13*
X5500000Y36500000D03*
D12*
X3802944Y38197056D03*
X5500000Y34100000D03*
X3802944Y34802944D03*
X3100000Y36500000D03*
D10*
X17050000Y2500000D03*
D11*
X17050000Y4500000D03*
D16*
X28750000Y3750000D03*
D17*
X31290000Y3750000D03*
D18*
X38038500Y12524000D03*
D19*
X38038500Y15024000D03*
X38038500Y17524000D03*
X38038500Y20024000D03*
D16*
X30000000Y38150000D03*
D17*
X27460000Y38150000D03*
D20*
X9900000Y14400000D03*
X12800000Y11000000D03*
D21*
X28400000Y16400000D03*
X17600000Y8900000D03*
X12700000Y21100000D03*
X13700000Y21100000D03*
X5600000Y1200000D03*
X18200000Y10700000D03*
D20*
X23400000Y10700000D03*
D21*
X19200000Y34100000D03*
D20*
X25700000Y35800000D03*
D21*
X7700000Y1200000D03*
D20*
X25600000Y13800000D03*
X7750000Y40800000D03*
X5500000Y11000000D03*
X23400000Y9300000D03*
D21*
X14700000Y25000000D03*
X35700000Y22200000D03*
X28400000Y15100000D03*
D20*
X23500000Y18300000D03*
X7500000Y15100000D03*
D21*
X14900000Y21100000D03*
D20*
X1100000Y36500000D03*
D21*
X38200000Y26700000D03*
D20*
X3300000Y21900000D03*
X18100000Y36700000D03*
D21*
X13700000Y18900000D03*
X28400000Y17600000D03*
X11400000Y24300000D03*
D20*
X21800000Y11300000D03*
X9100000Y24100000D03*
D21*
X12200000Y28300000D03*
X14900000Y20000000D03*
X34700000Y26600000D03*
X27200000Y15200000D03*
X35700000Y10500000D03*
X27200000Y16400000D03*
D20*
X6100000Y17800000D03*
X5500000Y40800000D03*
X22800000Y41000000D03*
X5500000Y12900000D03*
X6900000Y21700000D03*
D21*
X14900000Y18900000D03*
D20*
X23400000Y10000000D03*
D21*
X13700000Y20000000D03*
X12700000Y20000000D03*
X29500000Y17600000D03*
X21200000Y34100000D03*
X28400000Y9100000D03*
X1200000Y5100000D03*
X29500000Y16400000D03*
D20*
X25700000Y38300000D03*
D21*
X29500000Y15100000D03*
X17200000Y34100000D03*
X8200000Y31400000D03*
X12700000Y18900000D03*
X27200000Y17600000D03*
D20*
X20000000Y41000000D03*
X15800000Y11000000D03*
X7500000Y27600000D03*
X27300000Y41000000D03*
D21*
X32400000Y22500000D03*
D20*
X32100000Y6400000D03*
X33000000Y40800000D03*
X40700000Y8200000D03*
D21*
X31300000Y10300000D03*
D22*
X36500000Y29100000D03*
D20*
X40800000Y36500000D03*
X29700000Y40800000D03*
D21*
X31300000Y9200000D03*
X32400000Y23500000D03*
D20*
X36200000Y1200000D03*
X24300000Y38600000D03*
X38100000Y9700000D03*
D22*
X31600000Y28800000D03*
D21*
X31300000Y22500000D03*
X32400000Y10300000D03*
D22*
X32317000Y26983000D03*
D21*
X31300000Y23500000D03*
X32400000Y9200000D03*
D22*
X33700000Y30500000D03*
D20*
X33300000Y1800000D03*
D22*
X23115700Y20692100D03*
D20*
X29400000Y35300000D03*
D22*
X31400000Y32000000D03*
D20*
X19931700Y22775900D03*
X5000000Y21300000D03*
X6100000Y14300000D03*
X7202700Y24329700D03*
X13958100Y14403800D03*
X24872200Y23110600D03*
X4521800Y24086000D03*
X13050000Y23277600D03*
X5959900Y28550700D03*
X26000000Y9300000D03*
X25200000Y9300000D03*
X26000000Y10300000D03*
X25200000Y10300000D03*
X11676800Y10600000D03*
X10420000Y16100100D03*
X14641200Y15746100D03*
X18792200Y19732600D03*
X21589700Y9160000D03*
X11000000Y17250000D03*
X17900000Y20400000D03*
X18400000Y17600000D03*
X24234300Y16458000D03*
X10481800Y20145700D03*
X15500000Y15350000D03*
X22795200Y14718800D03*
X21159400Y16073300D03*
X16200000Y15600000D03*
X16500000Y24300000D03*
D21*
X12294000Y30900000D03*
X18036000Y22400000D03*
X13221000Y30900000D03*
X18964000Y22400000D03*
D20*
X11445200Y16107200D03*
X15407000Y12040100D03*
X13664000Y15777200D03*
X13000000Y12762300D03*
D21*
X29200000Y12400000D03*
X30200000Y11300000D03*
X39000000Y23700000D03*
X30200000Y12400000D03*
X29200000Y11300000D03*
X37700000Y23700000D03*
X35400000Y23900000D03*
X29200000Y21300000D03*
X34300000Y23900000D03*
X30200000Y20300000D03*
X30200000Y21300000D03*
X29200000Y20300000D03*
D20*
X17273100Y10509700D03*
X18550000Y9682900D03*
X3467600Y24427300D03*
X9900000Y20700000D03*
X15876500Y16815100D03*
X10286300Y22731000D03*
X6070700Y21694300D03*
X16050000Y17550000D03*
X15900000Y14050000D03*
X7250000Y12462500D03*
X10102800Y12857500D03*
X17132400Y19513200D03*
X14300000Y12050000D03*
X7250000Y10637500D03*
X9334700Y16000000D03*
X9440400Y10709400D03*
D21*
X19200000Y30100000D03*
X17200000Y30100000D03*
X20900000Y30100000D03*
D20*
X23500000Y13700000D03*
X14801100Y23314700D03*
D23*
X23487200Y20320600D02*
X23115700Y20692100D01*
X24965800Y20320600D02*
X23487200Y20320600D01*
D24*
X4220400Y27247300D02*
X3071800Y27247300D01*
X24519900Y23462900D02*
X24872200Y23110600D01*
X6043400Y28467200D02*
X5959900Y28550700D01*
X21980900Y23462900D02*
X24519900Y23462900D01*
X3071800Y27247300D02*
X1848500Y26024000D01*
X11676800Y14843300D02*
X11676800Y10600000D01*
X10420000Y16100100D02*
X11676800Y14843300D01*
X18480000Y12269700D02*
X21589700Y9160000D01*
X11956400Y16493600D02*
X13400000Y15050000D01*
X14350000Y15050000D02*
X15000000Y14400000D01*
X11000000Y17250000D02*
X11256400Y16993600D01*
X11943600Y16493600D02*
X11956400Y16493600D01*
X11256400Y16993600D02*
X11443600Y16993600D01*
X15000000Y14400000D02*
X15000000Y13650000D01*
X16380300Y12269700D02*
X18480000Y12269700D01*
X15000000Y13650000D02*
X16380300Y12269700D01*
X11443600Y16993600D02*
X11943600Y16493600D01*
X13400000Y15050000D02*
X14350000Y15050000D01*
X10481800Y20145700D02*
X12449600Y18177900D01*
X12449600Y18177900D02*
X22514400Y18177900D01*
X22514400Y18177900D02*
X24234300Y16458000D01*
X17181200Y14718800D02*
X16131200Y14718800D01*
X17181200Y14718800D02*
X22795200Y14718800D01*
X16131200Y14718800D02*
X15500000Y15350000D01*
X17815600Y15834400D02*
X16434400Y15834400D01*
X16434400Y15834400D02*
X16200000Y15600000D01*
X20920500Y15834400D02*
X21159400Y16073300D01*
X17815600Y15834400D02*
X20920500Y15834400D01*
X7184900Y26600000D02*
X5792450Y27992450D01*
X16500000Y24300000D02*
X16500000Y25100000D01*
X4388500Y28564000D02*
X4960050Y27992450D01*
X15000000Y26600000D02*
X11848900Y26600000D01*
X11848900Y26600000D02*
X7184900Y26600000D01*
X4960050Y27992450D02*
X5792450Y27992450D01*
X16500000Y25100000D02*
X15000000Y26600000D01*
X15407000Y12145400D02*
X15407000Y12040100D01*
X11445200Y16107200D02*
X15407000Y12145400D01*
X17273100Y10509700D02*
X18099900Y9682900D01*
X18099900Y9682900D02*
X18550000Y9682900D01*
X9900000Y20738800D02*
X9900000Y20700000D01*
X5174100Y22720800D02*
X7918000Y22720800D01*
X3467600Y24427300D02*
X5174100Y22720800D01*
X7918000Y22720800D02*
X9900000Y20738800D01*
X9737000Y18028000D02*
X6070700Y21694300D01*
X11774700Y17687500D02*
X11434200Y18028000D01*
X14687500Y17687500D02*
X15912500Y17687500D01*
X14687500Y17687500D02*
X11774700Y17687500D01*
X15912500Y17687500D02*
X16050000Y17550000D01*
X11434200Y18028000D02*
X9737000Y18028000D01*
X9440400Y10709400D02*
X9334700Y10815100D01*
X9334700Y10815100D02*
X9334700Y15980700D01*
G04 #@! TA.AperFunction,Conductor*
G36*
X5474144Y41579998D02*
G01*
X5499432Y41550814D01*
X5510337Y41568236D01*
X5574562Y41598495D01*
X5593977Y41600000D01*
X7656023Y41600000D01*
X7724144Y41579998D01*
X7749432Y41550814D01*
X7760337Y41568236D01*
X7824562Y41598495D01*
X7843977Y41600000D01*
X8382125Y41600000D01*
X8450246Y41579998D01*
X8471220Y41563095D01*
X9272358Y40761957D01*
X9272359Y40761955D01*
X9361955Y40672359D01*
X9370789Y40667858D01*
X9381519Y40662391D01*
X9398381Y40652057D01*
X9408113Y40644986D01*
X9408117Y40644984D01*
X9416141Y40639154D01*
X9437021Y40632370D01*
X9455289Y40624803D01*
X9466014Y40619338D01*
X9466016Y40619337D01*
X9474852Y40614835D01*
X9484646Y40613284D01*
X9484649Y40613283D01*
X9496529Y40611402D01*
X9515759Y40606785D01*
X9527210Y40603064D01*
X9527216Y40603063D01*
X9536646Y40599999D01*
X9663354Y40599999D01*
X9663356Y40600000D01*
X17563354Y40600000D01*
X17584247Y40606788D01*
X17603457Y40611400D01*
X17605936Y40611792D01*
X17615352Y40613283D01*
X17615355Y40613284D01*
X17625148Y40614835D01*
X17633984Y40619337D01*
X17633986Y40619338D01*
X17644707Y40624801D01*
X17662974Y40632368D01*
X17683860Y40639154D01*
X17701620Y40652057D01*
X17718478Y40662389D01*
X17738045Y40672359D01*
X17827641Y40761955D01*
X17827642Y40761957D01*
X18628780Y41563095D01*
X18691092Y41597121D01*
X18717875Y41600000D01*
X19506385Y41600000D01*
X19574506Y41579998D01*
X19620999Y41526342D01*
X19631103Y41456068D01*
X19603714Y41396097D01*
X19604526Y41395474D01*
X19515645Y41279642D01*
X19459772Y41144754D01*
X19440715Y41000000D01*
X19459772Y40855246D01*
X19515645Y40720358D01*
X19520672Y40713807D01*
X19597807Y40613283D01*
X19604526Y40604526D01*
X19611076Y40599500D01*
X19611079Y40599497D01*
X19704274Y40527986D01*
X19720357Y40515645D01*
X19855246Y40459772D01*
X20000000Y40440715D01*
X20008188Y40441793D01*
X20136566Y40458694D01*
X20144754Y40459772D01*
X20279643Y40515645D01*
X20295726Y40527986D01*
X20388921Y40599497D01*
X20388924Y40599500D01*
X20395474Y40604526D01*
X20402194Y40613283D01*
X20479328Y40713807D01*
X20484355Y40720358D01*
X20540228Y40855246D01*
X20559285Y41000000D01*
X20540228Y41144754D01*
X20484355Y41279642D01*
X20395474Y41395474D01*
X20397782Y41397245D01*
X20370494Y41447217D01*
X20375559Y41518032D01*
X20418106Y41574868D01*
X20484626Y41599679D01*
X20493615Y41600000D01*
X22306385Y41600000D01*
X22374506Y41579998D01*
X22420999Y41526342D01*
X22431103Y41456068D01*
X22403714Y41396097D01*
X22404526Y41395474D01*
X22315645Y41279642D01*
X22259772Y41144754D01*
X22240715Y41000000D01*
X22259772Y40855246D01*
X22315645Y40720358D01*
X22320672Y40713807D01*
X22397807Y40613283D01*
X22404526Y40604526D01*
X22411076Y40599500D01*
X22411079Y40599497D01*
X22504274Y40527986D01*
X22520357Y40515645D01*
X22655246Y40459772D01*
X22800000Y40440715D01*
X22808188Y40441793D01*
X22936566Y40458694D01*
X22944754Y40459772D01*
X23079643Y40515645D01*
X23095726Y40527986D01*
X23188921Y40599497D01*
X23188924Y40599500D01*
X23195474Y40604526D01*
X23200501Y40611077D01*
X23200505Y40611081D01*
X23274038Y40706911D01*
X23331376Y40748778D01*
X23402247Y40753000D01*
X23464149Y40718236D01*
X23497431Y40655523D01*
X23500000Y40630207D01*
X23500000Y29126000D01*
X23479998Y29057879D01*
X23426342Y29011386D01*
X23374000Y29000000D01*
X6327999Y29000000D01*
X6259878Y29020002D01*
X6251294Y29026038D01*
X6246093Y29030029D01*
X6239543Y29035055D01*
X6231917Y29038214D01*
X6231915Y29038215D01*
X6112283Y29087768D01*
X6104654Y29090928D01*
X5959900Y29109985D01*
X5951712Y29108907D01*
X5823332Y29092006D01*
X5823330Y29092005D01*
X5815146Y29090928D01*
X5680258Y29035055D01*
X5673707Y29030028D01*
X5668504Y29026036D01*
X5602283Y29000437D01*
X5591802Y29000000D01*
X5483429Y29000000D01*
X5415308Y29020002D01*
X5370423Y29070272D01*
X5336831Y29138392D01*
X5336828Y29138396D01*
X5334276Y29143572D01*
X5212820Y29306221D01*
X5063758Y29444013D01*
X5058875Y29447094D01*
X5058871Y29447097D01*
X4896964Y29549252D01*
X4892081Y29552333D01*
X4703539Y29627554D01*
X4697879Y29628680D01*
X4697875Y29628681D01*
X4510113Y29666029D01*
X4510110Y29666029D01*
X4504446Y29667156D01*
X4498671Y29667232D01*
X4498667Y29667232D01*
X4397293Y29668559D01*
X4301471Y29669813D01*
X4295774Y29668834D01*
X4295773Y29668834D01*
X4107107Y29636415D01*
X4101410Y29635436D01*
X3910963Y29565176D01*
X3736510Y29461388D01*
X3732170Y29457582D01*
X3732166Y29457579D01*
X3712223Y29440089D01*
X3583892Y29327545D01*
X3458220Y29168131D01*
X3455531Y29163020D01*
X3455529Y29163017D01*
X3418168Y29092006D01*
X3363703Y28988485D01*
X3303507Y28794622D01*
X3279648Y28593036D01*
X3292924Y28390478D01*
X3294345Y28384882D01*
X3294346Y28384877D01*
X3316008Y28299586D01*
X3342892Y28193731D01*
X3345309Y28188488D01*
X3382510Y28107792D01*
X3427877Y28009384D01*
X3545033Y27843611D01*
X3571270Y27818052D01*
X3606106Y27756193D01*
X3601969Y27685317D01*
X3560170Y27627929D01*
X3493980Y27602249D01*
X3483347Y27601800D01*
X3123053Y27601800D01*
X3103283Y27603904D01*
X3098915Y27604110D01*
X3088730Y27606303D01*
X3058060Y27602673D01*
X3052717Y27602358D01*
X3052728Y27602228D01*
X3047548Y27601800D01*
X3042349Y27601800D01*
X3037225Y27600947D01*
X3037212Y27600946D01*
X3024759Y27598873D01*
X3018884Y27598036D01*
X2981871Y27593655D01*
X2971530Y27592431D01*
X2963822Y27588730D01*
X2955383Y27587325D01*
X2946213Y27582377D01*
X2913419Y27564682D01*
X2908128Y27561986D01*
X2872289Y27544777D01*
X2872282Y27544773D01*
X2865142Y27541344D01*
X2861150Y27537988D01*
X2859203Y27536041D01*
X2857581Y27534553D01*
X2857145Y27534318D01*
X2857113Y27534354D01*
X2856958Y27534217D01*
X2851520Y27531283D01*
X2844450Y27523635D01*
X2844449Y27523634D01*
X2817431Y27494406D01*
X2814002Y27490840D01*
X2398917Y27075755D01*
X2336605Y27041729D01*
X2263133Y27047820D01*
X2163539Y27087554D01*
X2157879Y27088680D01*
X2157875Y27088681D01*
X1970113Y27126029D01*
X1970110Y27126029D01*
X1964446Y27127156D01*
X1958671Y27127232D01*
X1958667Y27127232D01*
X1857293Y27128559D01*
X1761471Y27129813D01*
X1755774Y27128834D01*
X1755773Y27128834D01*
X1667897Y27113734D01*
X1561410Y27095436D01*
X1370963Y27025176D01*
X1196510Y26921388D01*
X1192170Y26917582D01*
X1192166Y26917579D01*
X1048233Y26791352D01*
X1043892Y26787545D01*
X1040317Y26783010D01*
X1040316Y26783009D01*
X1031659Y26772027D01*
X918220Y26628131D01*
X823703Y26448485D01*
X763507Y26254622D01*
X739648Y26053036D01*
X752924Y25850478D01*
X754345Y25844882D01*
X754346Y25844877D01*
X774619Y25765055D01*
X802892Y25653731D01*
X805309Y25648488D01*
X842510Y25567792D01*
X887877Y25469384D01*
X891210Y25464668D01*
X993253Y25320280D01*
X1005033Y25303611D01*
X1150438Y25161965D01*
X1319220Y25049188D01*
X1324523Y25046910D01*
X1324526Y25046908D01*
X1433708Y25000000D01*
X1505728Y24969058D01*
X1554717Y24957973D01*
X1698079Y24925533D01*
X1698084Y24925532D01*
X1703716Y24924258D01*
X1709487Y24924031D01*
X1709489Y24924031D01*
X1769256Y24921683D01*
X1906553Y24916288D01*
X2006999Y24930852D01*
X2101731Y24944587D01*
X2101736Y24944588D01*
X2107445Y24945416D01*
X2112909Y24947271D01*
X2112914Y24947272D01*
X2294193Y25008808D01*
X2294198Y25008810D01*
X2299665Y25010666D01*
X2476776Y25109853D01*
X2523765Y25148933D01*
X2628413Y25235969D01*
X2632845Y25239655D01*
X2692645Y25311556D01*
X2758953Y25391282D01*
X2758955Y25391285D01*
X2762647Y25395724D01*
X2822345Y25502323D01*
X2859010Y25567792D01*
X2859011Y25567794D01*
X2861834Y25572835D01*
X2863690Y25578302D01*
X2863692Y25578307D01*
X2925228Y25759586D01*
X2925229Y25759591D01*
X2927084Y25765055D01*
X2927912Y25770764D01*
X2927913Y25770769D01*
X2955679Y25962273D01*
X2956212Y25965947D01*
X2957732Y26024000D01*
X2939158Y26226141D01*
X2933571Y26245950D01*
X2885625Y26415954D01*
X2885624Y26415956D01*
X2884057Y26421513D01*
X2878841Y26432090D01*
X2866651Y26502032D01*
X2894210Y26567461D01*
X2902752Y26576913D01*
X3068905Y26743066D01*
X3131217Y26777092D01*
X3202032Y26772027D01*
X3258868Y26729480D01*
X3283679Y26662960D01*
X3284000Y26653971D01*
X3284001Y25856245D01*
X3284001Y25148934D01*
X3291774Y25109853D01*
X3298766Y25074699D01*
X3296124Y25074173D01*
X3301793Y25021461D01*
X3270017Y24957973D01*
X3226012Y24927418D01*
X3206897Y24919500D01*
X3187958Y24911655D01*
X3072126Y24822774D01*
X2983245Y24706942D01*
X2980086Y24699316D01*
X2980085Y24699314D01*
X2955611Y24640228D01*
X2927372Y24572054D01*
X2926295Y24563870D01*
X2926294Y24563868D01*
X2917290Y24495474D01*
X2908315Y24427300D01*
X2927372Y24282546D01*
X2930531Y24274920D01*
X2967800Y24184946D01*
X2983245Y24147658D01*
X3072126Y24031826D01*
X3078676Y24026800D01*
X3078679Y24026797D01*
X3171926Y23955246D01*
X3187957Y23942945D01*
X3322846Y23887072D01*
X3467600Y23868015D01*
X3473365Y23868774D01*
X3540399Y23849091D01*
X3561373Y23832188D01*
X3963095Y23430466D01*
X3997121Y23368154D01*
X4000000Y23341371D01*
X4000000Y22269793D01*
X3979998Y22201672D01*
X3926342Y22155179D01*
X3856068Y22145075D01*
X3791488Y22174569D01*
X3774038Y22193089D01*
X3700505Y22288919D01*
X3700500Y22288924D01*
X3695474Y22295474D01*
X3688924Y22300500D01*
X3688921Y22300503D01*
X3586196Y22379327D01*
X3586194Y22379328D01*
X3579643Y22384355D01*
X3444754Y22440228D01*
X3300000Y22459285D01*
X3291812Y22458207D01*
X3163432Y22441306D01*
X3163430Y22441305D01*
X3155246Y22440228D01*
X3107430Y22420422D01*
X3027986Y22387515D01*
X3027984Y22387514D01*
X3020358Y22384355D01*
X2904526Y22295474D01*
X2815645Y22179642D01*
X2759772Y22044754D01*
X2758695Y22036570D01*
X2758694Y22036568D01*
X2747789Y21953731D01*
X2740715Y21900000D01*
X2741793Y21891812D01*
X2755593Y21786992D01*
X2759772Y21755246D01*
X2764304Y21744305D01*
X2806934Y21641389D01*
X2815645Y21620358D01*
X2904526Y21504526D01*
X2911076Y21499500D01*
X2911079Y21499497D01*
X2999938Y21431313D01*
X3020357Y21415645D01*
X3155246Y21359772D01*
X3300000Y21340715D01*
X3308188Y21341793D01*
X3436566Y21358694D01*
X3444754Y21359772D01*
X3579643Y21415645D01*
X3600062Y21431313D01*
X3688921Y21499497D01*
X3688924Y21499500D01*
X3695474Y21504526D01*
X3700501Y21511077D01*
X3700505Y21511081D01*
X3774038Y21606911D01*
X3831376Y21648778D01*
X3902247Y21653000D01*
X3964149Y21618236D01*
X3997431Y21555523D01*
X4000000Y21530207D01*
X4000000Y8826000D01*
X3979998Y8757879D01*
X3926342Y8711386D01*
X3874000Y8700000D01*
X526000Y8700000D01*
X457879Y8720002D01*
X411386Y8773658D01*
X400000Y8826000D01*
X400000Y11897756D01*
X970500Y11897756D01*
X970500Y11102244D01*
X977202Y11040552D01*
X979974Y11033159D01*
X979974Y11033157D01*
X984711Y11020521D01*
X1027929Y10905236D01*
X1033309Y10898057D01*
X1033311Y10898054D01*
X1095073Y10815645D01*
X1114596Y10789596D01*
X1135023Y10774287D01*
X1223054Y10708311D01*
X1223057Y10708309D01*
X1230236Y10702929D01*
X1319954Y10669296D01*
X1358157Y10654974D01*
X1358159Y10654974D01*
X1365552Y10652202D01*
X1373402Y10651349D01*
X1373403Y10651349D01*
X1423847Y10645869D01*
X1427244Y10645500D01*
X2772756Y10645500D01*
X2776153Y10645869D01*
X2826597Y10651349D01*
X2826598Y10651349D01*
X2834448Y10652202D01*
X2841841Y10654974D01*
X2841843Y10654974D01*
X2880046Y10669296D01*
X2969764Y10702929D01*
X2976943Y10708309D01*
X2976946Y10708311D01*
X3064977Y10774287D01*
X3085404Y10789596D01*
X3104927Y10815645D01*
X3166689Y10898054D01*
X3166691Y10898057D01*
X3172071Y10905236D01*
X3215289Y11020521D01*
X3220026Y11033157D01*
X3220026Y11033159D01*
X3222798Y11040552D01*
X3229500Y11102244D01*
X3229500Y11897756D01*
X3222798Y11959448D01*
X3208269Y11998206D01*
X3205704Y12005046D01*
X3172071Y12094764D01*
X3166691Y12101943D01*
X3166689Y12101946D01*
X3090785Y12203224D01*
X3085404Y12210404D01*
X2995284Y12277945D01*
X2976946Y12291689D01*
X2976943Y12291691D01*
X2969764Y12297071D01*
X2880046Y12330704D01*
X2841843Y12345026D01*
X2841841Y12345026D01*
X2834448Y12347798D01*
X2826598Y12348651D01*
X2826597Y12348651D01*
X2776153Y12354131D01*
X2776152Y12354131D01*
X2772756Y12354500D01*
X1427244Y12354500D01*
X1423848Y12354131D01*
X1423847Y12354131D01*
X1373403Y12348651D01*
X1373402Y12348651D01*
X1365552Y12347798D01*
X1358159Y12345026D01*
X1358157Y12345026D01*
X1319954Y12330704D01*
X1230236Y12297071D01*
X1223057Y12291691D01*
X1223054Y12291689D01*
X1204716Y12277945D01*
X1114596Y12210404D01*
X1109215Y12203224D01*
X1033311Y12101946D01*
X1033309Y12101943D01*
X1027929Y12094764D01*
X994296Y12005046D01*
X991732Y11998206D01*
X977202Y11959448D01*
X970500Y11897756D01*
X400000Y11897756D01*
X400000Y13547981D01*
X966801Y13547981D01*
X967158Y13541164D01*
X967158Y13541160D01*
X971473Y13458840D01*
X976518Y13362576D01*
X978328Y13356004D01*
X978329Y13355999D01*
X1004079Y13262516D01*
X1025821Y13183583D01*
X1112410Y13019352D01*
X1232245Y12877546D01*
X1237668Y12873399D01*
X1237670Y12873398D01*
X1374315Y12768925D01*
X1374319Y12768923D01*
X1379736Y12764781D01*
X1385916Y12761899D01*
X1385918Y12761898D01*
X1541823Y12689198D01*
X1541826Y12689197D01*
X1548000Y12686318D01*
X1554648Y12684832D01*
X1554651Y12684831D01*
X1653711Y12662689D01*
X1729188Y12645818D01*
X1734876Y12645500D01*
X2421385Y12645500D01*
X2559573Y12660512D01*
X2714783Y12712746D01*
X2729064Y12717552D01*
X2729066Y12717553D01*
X2735535Y12719730D01*
X2894677Y12815351D01*
X2899634Y12820039D01*
X2899637Y12820041D01*
X3024614Y12938227D01*
X3024616Y12938229D01*
X3029572Y12942916D01*
X3133928Y13096471D01*
X3136463Y13102808D01*
X3200342Y13262516D01*
X3200343Y13262521D01*
X3202876Y13268853D01*
X3203990Y13275580D01*
X3203991Y13275585D01*
X3232084Y13445282D01*
X3232084Y13445285D01*
X3233199Y13452019D01*
X3232819Y13459285D01*
X3223839Y13630611D01*
X3223482Y13637424D01*
X3221672Y13643996D01*
X3221671Y13644001D01*
X3175992Y13809835D01*
X3174179Y13816417D01*
X3087590Y13980648D01*
X2967755Y14122454D01*
X2962330Y14126602D01*
X2825685Y14231075D01*
X2825681Y14231077D01*
X2820264Y14235219D01*
X2814084Y14238101D01*
X2814082Y14238102D01*
X2658177Y14310802D01*
X2658174Y14310803D01*
X2652000Y14313682D01*
X2645352Y14315168D01*
X2645349Y14315169D01*
X2475849Y14353056D01*
X2475850Y14353056D01*
X2470812Y14354182D01*
X2465124Y14354500D01*
X1778615Y14354500D01*
X1640427Y14339488D01*
X1555189Y14310802D01*
X1470936Y14282448D01*
X1470934Y14282447D01*
X1464465Y14280270D01*
X1305323Y14184649D01*
X1300366Y14179961D01*
X1300363Y14179959D01*
X1175386Y14061773D01*
X1170428Y14057084D01*
X1066072Y13903529D01*
X1063539Y13897195D01*
X1063537Y13897192D01*
X999658Y13737484D01*
X999657Y13737479D01*
X997124Y13731147D01*
X996010Y13724420D01*
X996009Y13724415D01*
X967916Y13554718D01*
X966801Y13547981D01*
X400000Y13547981D01*
X400000Y15547981D01*
X966801Y15547981D01*
X967158Y15541164D01*
X967158Y15541160D01*
X971473Y15458840D01*
X976518Y15362576D01*
X978328Y15356004D01*
X978329Y15355999D01*
X1019682Y15205872D01*
X1025821Y15183583D01*
X1112410Y15019352D01*
X1232245Y14877546D01*
X1237668Y14873399D01*
X1237670Y14873398D01*
X1374315Y14768925D01*
X1374319Y14768923D01*
X1379736Y14764781D01*
X1385916Y14761899D01*
X1385918Y14761898D01*
X1541823Y14689198D01*
X1541826Y14689197D01*
X1548000Y14686318D01*
X1554648Y14684832D01*
X1554651Y14684831D01*
X1653711Y14662689D01*
X1729188Y14645818D01*
X1734876Y14645500D01*
X2421385Y14645500D01*
X2559573Y14660512D01*
X2680210Y14701111D01*
X2729064Y14717552D01*
X2729066Y14717553D01*
X2735535Y14719730D01*
X2894677Y14815351D01*
X2899634Y14820039D01*
X2899637Y14820041D01*
X3024614Y14938227D01*
X3024616Y14938229D01*
X3029572Y14942916D01*
X3133928Y15096471D01*
X3166355Y15177544D01*
X3200342Y15262516D01*
X3200343Y15262521D01*
X3202876Y15268853D01*
X3203990Y15275580D01*
X3203991Y15275585D01*
X3232084Y15445282D01*
X3232084Y15445285D01*
X3233199Y15452019D01*
X3232443Y15466458D01*
X3223839Y15630611D01*
X3223482Y15637424D01*
X3221672Y15643996D01*
X3221671Y15644001D01*
X3175992Y15809835D01*
X3174179Y15816417D01*
X3087590Y15980648D01*
X2967755Y16122454D01*
X2962330Y16126602D01*
X2825685Y16231075D01*
X2825681Y16231077D01*
X2820264Y16235219D01*
X2814084Y16238101D01*
X2814082Y16238102D01*
X2658177Y16310802D01*
X2658174Y16310803D01*
X2652000Y16313682D01*
X2645352Y16315168D01*
X2645349Y16315169D01*
X2475849Y16353056D01*
X2475850Y16353056D01*
X2470812Y16354182D01*
X2465124Y16354500D01*
X1778615Y16354500D01*
X1640427Y16339488D01*
X1519790Y16298889D01*
X1470936Y16282448D01*
X1470934Y16282447D01*
X1464465Y16280270D01*
X1305323Y16184649D01*
X1300366Y16179961D01*
X1300363Y16179959D01*
X1175386Y16061773D01*
X1170428Y16057084D01*
X1066072Y15903529D01*
X1063539Y15897195D01*
X1063537Y15897192D01*
X999658Y15737484D01*
X999657Y15737479D01*
X997124Y15731147D01*
X996010Y15724420D01*
X996009Y15724415D01*
X967916Y15554718D01*
X966801Y15547981D01*
X400000Y15547981D01*
X400000Y19232601D01*
X749712Y19232601D01*
X771194Y19143463D01*
X775083Y19132168D01*
X857629Y18950618D01*
X863576Y18940276D01*
X978968Y18777603D01*
X986761Y18768575D01*
X1130831Y18630658D01*
X1140196Y18623262D01*
X1307741Y18515079D01*
X1318345Y18509583D01*
X1399579Y18476845D01*
X1455285Y18432830D01*
X1478352Y18365685D01*
X1461455Y18296729D01*
X1417375Y18251976D01*
X1382590Y18231075D01*
X1305323Y18184649D01*
X1300366Y18179961D01*
X1300363Y18179959D01*
X1194282Y18079642D01*
X1170428Y18057084D01*
X1066072Y17903529D01*
X1063539Y17897195D01*
X1063537Y17897192D01*
X999658Y17737484D01*
X999657Y17737479D01*
X997124Y17731147D01*
X996010Y17724420D01*
X996009Y17724415D01*
X967916Y17554718D01*
X966801Y17547981D01*
X967158Y17541164D01*
X967158Y17541160D01*
X971473Y17458840D01*
X976518Y17362576D01*
X978328Y17356004D01*
X978329Y17355999D01*
X1016477Y17217506D01*
X1025821Y17183583D01*
X1112410Y17019352D01*
X1232245Y16877546D01*
X1237668Y16873399D01*
X1237670Y16873398D01*
X1374315Y16768925D01*
X1374319Y16768923D01*
X1379736Y16764781D01*
X1385916Y16761899D01*
X1385918Y16761898D01*
X1541823Y16689198D01*
X1541826Y16689197D01*
X1548000Y16686318D01*
X1554648Y16684832D01*
X1554651Y16684831D01*
X1653711Y16662689D01*
X1729188Y16645818D01*
X1734876Y16645500D01*
X2421385Y16645500D01*
X2559573Y16660512D01*
X2728927Y16717506D01*
X2729064Y16717552D01*
X2729066Y16717553D01*
X2735535Y16719730D01*
X2894677Y16815351D01*
X2899634Y16820039D01*
X2899637Y16820041D01*
X3024614Y16938227D01*
X3024616Y16938229D01*
X3029572Y16942916D01*
X3133928Y17096471D01*
X3141597Y17115645D01*
X3200342Y17262516D01*
X3200343Y17262521D01*
X3202876Y17268853D01*
X3203990Y17275580D01*
X3203991Y17275585D01*
X3232084Y17445282D01*
X3232084Y17445285D01*
X3233199Y17452019D01*
X3229618Y17520358D01*
X3223839Y17630611D01*
X3223482Y17637424D01*
X3221672Y17643996D01*
X3221671Y17644001D01*
X3175992Y17809835D01*
X3174179Y17816417D01*
X3087590Y17980648D01*
X2967755Y18122454D01*
X2924865Y18155246D01*
X2825685Y18231075D01*
X2825681Y18231077D01*
X2820264Y18235219D01*
X2809981Y18240014D01*
X2800617Y18244381D01*
X2747333Y18291299D01*
X2727873Y18359577D01*
X2748416Y18427536D01*
X2796177Y18470591D01*
X2970978Y18560619D01*
X2981024Y18567069D01*
X3137857Y18690262D01*
X3146506Y18698499D01*
X3277212Y18849123D01*
X3284147Y18858847D01*
X3384010Y19031467D01*
X3388984Y19042331D01*
X3454407Y19230727D01*
X3454648Y19231716D01*
X3453180Y19242008D01*
X3439615Y19246000D01*
X764598Y19246000D01*
X751067Y19242027D01*
X749712Y19232601D01*
X400000Y19232601D01*
X400000Y19768284D01*
X745352Y19768284D01*
X746820Y19757992D01*
X760385Y19754000D01*
X1827885Y19754000D01*
X1843124Y19758475D01*
X1844329Y19759865D01*
X1846000Y19767548D01*
X1846000Y20589885D01*
X1844659Y20594452D01*
X2354000Y20594452D01*
X2354000Y19772115D01*
X2358475Y19756876D01*
X2359865Y19755671D01*
X2367548Y19754000D01*
X3435402Y19754000D01*
X3448933Y19757973D01*
X3450288Y19767399D01*
X3428806Y19856537D01*
X3424917Y19867832D01*
X3342371Y20049382D01*
X3336424Y20059724D01*
X3221032Y20222397D01*
X3213239Y20231425D01*
X3069169Y20369342D01*
X3059804Y20376738D01*
X2892259Y20484921D01*
X2881655Y20490417D01*
X2696688Y20564961D01*
X2685230Y20568355D01*
X2488072Y20606857D01*
X2479209Y20607934D01*
X2476500Y20608000D01*
X2372115Y20608000D01*
X2356876Y20603525D01*
X2355671Y20602135D01*
X2354000Y20594452D01*
X1844659Y20594452D01*
X1841525Y20605124D01*
X1840135Y20606329D01*
X1832452Y20608000D01*
X1775168Y20608000D01*
X1769192Y20607715D01*
X1620506Y20593529D01*
X1608772Y20591270D01*
X1417401Y20535128D01*
X1406325Y20530698D01*
X1229022Y20439381D01*
X1218976Y20432931D01*
X1062143Y20309738D01*
X1053494Y20301501D01*
X922788Y20150877D01*
X915853Y20141153D01*
X815990Y19968533D01*
X811016Y19957669D01*
X745593Y19769273D01*
X745352Y19768284D01*
X400000Y19768284D01*
X400000Y28593036D01*
X739648Y28593036D01*
X752924Y28390478D01*
X754345Y28384882D01*
X754346Y28384877D01*
X776008Y28299586D01*
X802892Y28193731D01*
X805309Y28188488D01*
X842510Y28107792D01*
X887877Y28009384D01*
X1005033Y27843611D01*
X1150438Y27701965D01*
X1319220Y27589188D01*
X1324523Y27586910D01*
X1324526Y27586908D01*
X1471801Y27523634D01*
X1505728Y27509058D01*
X1570481Y27494406D01*
X1698079Y27465533D01*
X1698084Y27465532D01*
X1703716Y27464258D01*
X1709487Y27464031D01*
X1709489Y27464031D01*
X1769256Y27461683D01*
X1906553Y27456288D01*
X2006999Y27470852D01*
X2101731Y27484587D01*
X2101736Y27484588D01*
X2107445Y27485416D01*
X2112909Y27487271D01*
X2112914Y27487272D01*
X2294193Y27548808D01*
X2294198Y27548810D01*
X2299665Y27550666D01*
X2319879Y27561986D01*
X2384250Y27598036D01*
X2476776Y27649853D01*
X2539434Y27701965D01*
X2628413Y27775969D01*
X2632845Y27779655D01*
X2762647Y27935724D01*
X2835798Y28066345D01*
X2859010Y28107792D01*
X2859011Y28107794D01*
X2861834Y28112835D01*
X2863690Y28118302D01*
X2863692Y28118307D01*
X2925228Y28299586D01*
X2925229Y28299591D01*
X2927084Y28305055D01*
X2927912Y28310764D01*
X2927913Y28310769D01*
X2949154Y28457267D01*
X2956212Y28505947D01*
X2957732Y28564000D01*
X2939158Y28766141D01*
X2937590Y28771701D01*
X2885625Y28955954D01*
X2885624Y28955956D01*
X2884057Y28961513D01*
X2873478Y28982967D01*
X2796831Y29138391D01*
X2796830Y29138392D01*
X2794276Y29143572D01*
X2672820Y29306221D01*
X2523758Y29444013D01*
X2518875Y29447094D01*
X2518871Y29447097D01*
X2356964Y29549252D01*
X2352081Y29552333D01*
X2163539Y29627554D01*
X2157879Y29628680D01*
X2157875Y29628681D01*
X1970113Y29666029D01*
X1970110Y29666029D01*
X1964446Y29667156D01*
X1958671Y29667232D01*
X1958667Y29667232D01*
X1857293Y29668559D01*
X1761471Y29669813D01*
X1755774Y29668834D01*
X1755773Y29668834D01*
X1567107Y29636415D01*
X1561410Y29635436D01*
X1370963Y29565176D01*
X1196510Y29461388D01*
X1192170Y29457582D01*
X1192166Y29457579D01*
X1172223Y29440089D01*
X1043892Y29327545D01*
X918220Y29168131D01*
X915531Y29163020D01*
X915529Y29163017D01*
X878168Y29092006D01*
X823703Y28988485D01*
X763507Y28794622D01*
X739648Y28593036D01*
X400000Y28593036D01*
X400000Y31133036D01*
X739648Y31133036D01*
X752924Y30930478D01*
X754345Y30924882D01*
X754346Y30924877D01*
X800712Y30742314D01*
X802892Y30733731D01*
X805309Y30728488D01*
X875514Y30576202D01*
X887877Y30549384D01*
X1005033Y30383611D01*
X1009175Y30379576D01*
X1033603Y30355780D01*
X1150438Y30241965D01*
X1319220Y30129188D01*
X1324523Y30126910D01*
X1324526Y30126908D01*
X1413207Y30088808D01*
X1505728Y30049058D01*
X1578744Y30032536D01*
X1698079Y30005533D01*
X1698084Y30005532D01*
X1703716Y30004258D01*
X1709487Y30004031D01*
X1709489Y30004031D01*
X1769256Y30001683D01*
X1906553Y29996288D01*
X2006999Y30010852D01*
X2101731Y30024587D01*
X2101736Y30024588D01*
X2107445Y30025416D01*
X2112909Y30027271D01*
X2112914Y30027272D01*
X2294193Y30088808D01*
X2294198Y30088810D01*
X2299665Y30090666D01*
X2476776Y30189853D01*
X2539434Y30241965D01*
X2628413Y30315969D01*
X2632845Y30319655D01*
X2689963Y30388331D01*
X2758953Y30471282D01*
X2758955Y30471285D01*
X2762647Y30475724D01*
X2861834Y30652835D01*
X2863690Y30658302D01*
X2863692Y30658307D01*
X2925228Y30839586D01*
X2925229Y30839591D01*
X2927084Y30845055D01*
X2927912Y30850764D01*
X2927913Y30850769D01*
X2955679Y31042273D01*
X2956212Y31045947D01*
X2957732Y31104000D01*
X2955064Y31133036D01*
X3279648Y31133036D01*
X3292924Y30930478D01*
X3294345Y30924882D01*
X3294346Y30924877D01*
X3340712Y30742314D01*
X3342892Y30733731D01*
X3345309Y30728488D01*
X3415514Y30576202D01*
X3427877Y30549384D01*
X3545033Y30383611D01*
X3549175Y30379576D01*
X3573603Y30355780D01*
X3690438Y30241965D01*
X3859220Y30129188D01*
X3864523Y30126910D01*
X3864526Y30126908D01*
X3953207Y30088808D01*
X4045728Y30049058D01*
X4118744Y30032536D01*
X4238079Y30005533D01*
X4238084Y30005532D01*
X4243716Y30004258D01*
X4249487Y30004031D01*
X4249489Y30004031D01*
X4309256Y30001683D01*
X4446553Y29996288D01*
X4546999Y30010852D01*
X4641731Y30024587D01*
X4641736Y30024588D01*
X4647445Y30025416D01*
X4652909Y30027271D01*
X4652914Y30027272D01*
X4834193Y30088808D01*
X4834198Y30088810D01*
X4839665Y30090666D01*
X5016776Y30189853D01*
X5079434Y30241965D01*
X5168413Y30315969D01*
X5172845Y30319655D01*
X5229963Y30388331D01*
X5298953Y30471282D01*
X5298955Y30471285D01*
X5302647Y30475724D01*
X5401834Y30652835D01*
X5403690Y30658302D01*
X5403692Y30658307D01*
X5465228Y30839586D01*
X5465229Y30839591D01*
X5467084Y30845055D01*
X5467912Y30850764D01*
X5467913Y30850769D01*
X5495679Y31042273D01*
X5496212Y31045947D01*
X5497732Y31104000D01*
X5479158Y31306141D01*
X5477590Y31311701D01*
X5450740Y31406904D01*
X7540729Y31406904D01*
X7558113Y31249447D01*
X7612553Y31100681D01*
X7616789Y31094378D01*
X7616789Y31094377D01*
X7651802Y31042273D01*
X7700908Y30969195D01*
X7706527Y30964082D01*
X7706528Y30964081D01*
X7796615Y30882109D01*
X7818076Y30862581D01*
X7957293Y30786992D01*
X8110522Y30746793D01*
X8194477Y30745474D01*
X8261319Y30744424D01*
X8261322Y30744424D01*
X8268916Y30744305D01*
X8423332Y30779671D01*
X8493742Y30815083D01*
X8558072Y30847437D01*
X8558075Y30847439D01*
X8564855Y30850849D01*
X8570626Y30855778D01*
X8570629Y30855780D01*
X8630487Y30906904D01*
X11634729Y30906904D01*
X11652113Y30749447D01*
X11654723Y30742316D01*
X11654723Y30742314D01*
X11687468Y30652835D01*
X11706553Y30600681D01*
X11710789Y30594378D01*
X11710789Y30594377D01*
X11790521Y30475724D01*
X11794908Y30469195D01*
X11800527Y30464082D01*
X11800528Y30464081D01*
X11906460Y30367691D01*
X11912076Y30362581D01*
X12051293Y30286992D01*
X12204522Y30246793D01*
X12288477Y30245474D01*
X12355319Y30244424D01*
X12355322Y30244424D01*
X12362916Y30244305D01*
X12517332Y30279671D01*
X12658855Y30350849D01*
X12674200Y30363955D01*
X12738988Y30392984D01*
X12809188Y30382379D01*
X12829015Y30370849D01*
X12833465Y30367687D01*
X12839076Y30362581D01*
X12978293Y30286992D01*
X13131522Y30246793D01*
X13215477Y30245474D01*
X13282319Y30244424D01*
X13282322Y30244424D01*
X13289916Y30244305D01*
X13444332Y30279671D01*
X13532644Y30324087D01*
X13579072Y30347437D01*
X13579075Y30347439D01*
X13585855Y30350849D01*
X13591626Y30355778D01*
X13591629Y30355780D01*
X13700536Y30448796D01*
X13700536Y30448797D01*
X13706314Y30453731D01*
X13798755Y30582376D01*
X13857842Y30729359D01*
X13873529Y30839586D01*
X13879581Y30882109D01*
X13879581Y30882112D01*
X13880162Y30886193D01*
X13880307Y30900000D01*
X13861276Y31057267D01*
X13805280Y31205454D01*
X13732259Y31311701D01*
X13719855Y31329749D01*
X13719854Y31329751D01*
X13715553Y31336008D01*
X13597275Y31441389D01*
X13589889Y31445300D01*
X13463988Y31511961D01*
X13463989Y31511961D01*
X13457274Y31515516D01*
X13303633Y31554108D01*
X13296034Y31554148D01*
X13296033Y31554148D01*
X13230181Y31554493D01*
X13145221Y31554938D01*
X13137841Y31553166D01*
X13137839Y31553166D01*
X12998563Y31519729D01*
X12998560Y31519728D01*
X12991184Y31517957D01*
X12850414Y31445300D01*
X12841976Y31437939D01*
X12840881Y31436984D01*
X12776398Y31407278D01*
X12706091Y31417150D01*
X12682516Y31432476D01*
X12682185Y31432000D01*
X12675947Y31436336D01*
X12670275Y31441389D01*
X12662889Y31445300D01*
X12536988Y31511961D01*
X12536989Y31511961D01*
X12530274Y31515516D01*
X12376633Y31554108D01*
X12369034Y31554148D01*
X12369033Y31554148D01*
X12303181Y31554493D01*
X12218221Y31554938D01*
X12210841Y31553166D01*
X12210839Y31553166D01*
X12071563Y31519729D01*
X12071560Y31519728D01*
X12064184Y31517957D01*
X11923414Y31445300D01*
X11804039Y31341162D01*
X11712950Y31211556D01*
X11710190Y31204476D01*
X11660178Y31076202D01*
X11655406Y31063963D01*
X11654414Y31056430D01*
X11654414Y31056429D01*
X11637833Y30930478D01*
X11634729Y30906904D01*
X8630487Y30906904D01*
X8679536Y30948796D01*
X8679536Y30948797D01*
X8685314Y30953731D01*
X8777755Y31082376D01*
X8836842Y31229359D01*
X8852739Y31341059D01*
X8858581Y31382109D01*
X8858581Y31382112D01*
X8859162Y31386193D01*
X8859307Y31400000D01*
X8840276Y31557267D01*
X8784280Y31705454D01*
X8694553Y31836008D01*
X8664248Y31863009D01*
X8581946Y31936336D01*
X8576275Y31941389D01*
X8568889Y31945300D01*
X8442988Y32011961D01*
X8442989Y32011961D01*
X8436274Y32015516D01*
X8282633Y32054108D01*
X8275034Y32054148D01*
X8275033Y32054148D01*
X8209181Y32054493D01*
X8124221Y32054938D01*
X8116841Y32053166D01*
X8116839Y32053166D01*
X7977563Y32019729D01*
X7977560Y32019728D01*
X7970184Y32017957D01*
X7829414Y31945300D01*
X7710039Y31841162D01*
X7618950Y31711556D01*
X7561406Y31563963D01*
X7560414Y31556430D01*
X7560414Y31556429D01*
X7542078Y31417150D01*
X7540729Y31406904D01*
X5450740Y31406904D01*
X5425625Y31495954D01*
X5425624Y31495956D01*
X5424057Y31501513D01*
X5417665Y31514476D01*
X5336831Y31678391D01*
X5334276Y31683572D01*
X5212820Y31846221D01*
X5138289Y31915117D01*
X5068003Y31980089D01*
X5063758Y31984013D01*
X5058875Y31987094D01*
X5058871Y31987097D01*
X4896964Y32089252D01*
X4892081Y32092333D01*
X4703539Y32167554D01*
X4697879Y32168680D01*
X4697875Y32168681D01*
X4510113Y32206029D01*
X4510110Y32206029D01*
X4504446Y32207156D01*
X4498671Y32207232D01*
X4498667Y32207232D01*
X4397293Y32208559D01*
X4301471Y32209813D01*
X4295774Y32208834D01*
X4295773Y32208834D01*
X4107107Y32176415D01*
X4101410Y32175436D01*
X3910963Y32105176D01*
X3736510Y32001388D01*
X3732170Y31997582D01*
X3732166Y31997579D01*
X3588233Y31871352D01*
X3583892Y31867545D01*
X3458220Y31708131D01*
X3455531Y31703020D01*
X3455529Y31703017D01*
X3442573Y31678391D01*
X3363703Y31528485D01*
X3303507Y31334622D01*
X3279648Y31133036D01*
X2955064Y31133036D01*
X2939158Y31306141D01*
X2937590Y31311701D01*
X2885625Y31495954D01*
X2885624Y31495956D01*
X2884057Y31501513D01*
X2877665Y31514476D01*
X2796831Y31678391D01*
X2794276Y31683572D01*
X2672820Y31846221D01*
X2598289Y31915117D01*
X2528003Y31980089D01*
X2523758Y31984013D01*
X2518875Y31987094D01*
X2518871Y31987097D01*
X2356964Y32089252D01*
X2352081Y32092333D01*
X2163539Y32167554D01*
X2157879Y32168680D01*
X2157875Y32168681D01*
X1970113Y32206029D01*
X1970110Y32206029D01*
X1964446Y32207156D01*
X1958671Y32207232D01*
X1958667Y32207232D01*
X1857293Y32208559D01*
X1761471Y32209813D01*
X1755774Y32208834D01*
X1755773Y32208834D01*
X1567107Y32176415D01*
X1561410Y32175436D01*
X1370963Y32105176D01*
X1196510Y32001388D01*
X1192170Y31997582D01*
X1192166Y31997579D01*
X1048233Y31871352D01*
X1043892Y31867545D01*
X918220Y31708131D01*
X915531Y31703020D01*
X915529Y31703017D01*
X902573Y31678391D01*
X823703Y31528485D01*
X763507Y31334622D01*
X739648Y31133036D01*
X400000Y31133036D01*
X400000Y36130207D01*
X420002Y36198328D01*
X473658Y36244821D01*
X543932Y36254925D01*
X608512Y36225431D01*
X625962Y36206911D01*
X699495Y36111081D01*
X699499Y36111077D01*
X704526Y36104526D01*
X711076Y36099500D01*
X711079Y36099497D01*
X813804Y36020673D01*
X820357Y36015645D01*
X955246Y35959772D01*
X1100000Y35940715D01*
X1108188Y35941793D01*
X1236566Y35958694D01*
X1244754Y35959772D01*
X1379643Y36015645D01*
X1386196Y36020673D01*
X1488921Y36099497D01*
X1488924Y36099500D01*
X1495474Y36104526D01*
X1584355Y36220358D01*
X1640228Y36355246D01*
X1659285Y36500000D01*
X1657695Y36512076D01*
X2040447Y36512076D01*
X2040619Y36508681D01*
X2040619Y36508680D01*
X2054968Y36225431D01*
X2059378Y36138376D01*
X2059915Y36135021D01*
X2059916Y36135015D01*
X2064602Y36105759D01*
X2118557Y35768906D01*
X2217293Y35407989D01*
X2354430Y35059846D01*
X2528365Y34728550D01*
X2530262Y34725726D01*
X2530265Y34725722D01*
X2581967Y34648781D01*
X2737061Y34417976D01*
X2739256Y34415370D01*
X2739260Y34415364D01*
X2758961Y34391969D01*
X2978079Y34131759D01*
X3248598Y33873245D01*
X3545455Y33645459D01*
X3865176Y33451065D01*
X4204021Y33292339D01*
X4207239Y33291237D01*
X4207242Y33291236D01*
X4554803Y33172239D01*
X4554811Y33172237D01*
X4558026Y33171136D01*
X4923051Y33088874D01*
X5010200Y33078944D01*
X5291442Y33046900D01*
X5291450Y33046900D01*
X5294825Y33046515D01*
X5298229Y33046497D01*
X5298232Y33046497D01*
X5501556Y33045433D01*
X5668999Y33044556D01*
X5672385Y33044906D01*
X5672387Y33044906D01*
X6037805Y33082668D01*
X6037814Y33082669D01*
X6041197Y33083019D01*
X6044530Y33083733D01*
X6044533Y33083734D01*
X6224820Y33122384D01*
X6407063Y33161454D01*
X6762318Y33278944D01*
X7102807Y33434113D01*
X7293666Y33547437D01*
X7421601Y33623399D01*
X7421606Y33623402D01*
X7424546Y33625148D01*
X7454354Y33647528D01*
X7526828Y33701944D01*
X7723771Y33849813D01*
X7996983Y34105479D01*
X7998209Y34106904D01*
X16540729Y34106904D01*
X16558113Y33949447D01*
X16560723Y33942316D01*
X16560723Y33942314D01*
X16593723Y33852138D01*
X16612553Y33800681D01*
X16700908Y33669195D01*
X16706527Y33664082D01*
X16706528Y33664081D01*
X16728933Y33643694D01*
X16818076Y33562581D01*
X16957293Y33486992D01*
X17110522Y33446793D01*
X17194477Y33445474D01*
X17261319Y33444424D01*
X17261322Y33444424D01*
X17268916Y33444305D01*
X17423332Y33479671D01*
X17493742Y33515083D01*
X17558072Y33547437D01*
X17558075Y33547439D01*
X17564855Y33550849D01*
X17570626Y33555778D01*
X17570629Y33555780D01*
X17679536Y33648796D01*
X17679536Y33648797D01*
X17685314Y33653731D01*
X17777755Y33782376D01*
X17836842Y33929359D01*
X17859162Y34086193D01*
X17859307Y34100000D01*
X17858472Y34106904D01*
X18540729Y34106904D01*
X18558113Y33949447D01*
X18560723Y33942316D01*
X18560723Y33942314D01*
X18593723Y33852138D01*
X18612553Y33800681D01*
X18700908Y33669195D01*
X18706527Y33664082D01*
X18706528Y33664081D01*
X18728933Y33643694D01*
X18818076Y33562581D01*
X18957293Y33486992D01*
X19110522Y33446793D01*
X19194477Y33445474D01*
X19261319Y33444424D01*
X19261322Y33444424D01*
X19268916Y33444305D01*
X19423332Y33479671D01*
X19493742Y33515083D01*
X19558072Y33547437D01*
X19558075Y33547439D01*
X19564855Y33550849D01*
X19570626Y33555778D01*
X19570629Y33555780D01*
X19679536Y33648796D01*
X19679536Y33648797D01*
X19685314Y33653731D01*
X19777755Y33782376D01*
X19836842Y33929359D01*
X19859162Y34086193D01*
X19859307Y34100000D01*
X19858472Y34106904D01*
X20540729Y34106904D01*
X20558113Y33949447D01*
X20560723Y33942316D01*
X20560723Y33942314D01*
X20593723Y33852138D01*
X20612553Y33800681D01*
X20700908Y33669195D01*
X20706527Y33664082D01*
X20706528Y33664081D01*
X20728933Y33643694D01*
X20818076Y33562581D01*
X20957293Y33486992D01*
X21110522Y33446793D01*
X21194477Y33445474D01*
X21261319Y33444424D01*
X21261322Y33444424D01*
X21268916Y33444305D01*
X21423332Y33479671D01*
X21493742Y33515083D01*
X21558072Y33547437D01*
X21558075Y33547439D01*
X21564855Y33550849D01*
X21570626Y33555778D01*
X21570629Y33555780D01*
X21679536Y33648796D01*
X21679536Y33648797D01*
X21685314Y33653731D01*
X21777755Y33782376D01*
X21836842Y33929359D01*
X21859162Y34086193D01*
X21859307Y34100000D01*
X21840276Y34257267D01*
X21784280Y34405454D01*
X21694553Y34536008D01*
X21576275Y34641389D01*
X21568889Y34645300D01*
X21470245Y34697529D01*
X21436274Y34715516D01*
X21282633Y34754108D01*
X21275034Y34754148D01*
X21275033Y34754148D01*
X21209181Y34754493D01*
X21124221Y34754938D01*
X21116841Y34753166D01*
X21116839Y34753166D01*
X20977563Y34719729D01*
X20977560Y34719728D01*
X20970184Y34717957D01*
X20829414Y34645300D01*
X20710039Y34541162D01*
X20618950Y34411556D01*
X20561406Y34263963D01*
X20540729Y34106904D01*
X19858472Y34106904D01*
X19840276Y34257267D01*
X19784280Y34405454D01*
X19694553Y34536008D01*
X19576275Y34641389D01*
X19568889Y34645300D01*
X19470245Y34697529D01*
X19436274Y34715516D01*
X19282633Y34754108D01*
X19275034Y34754148D01*
X19275033Y34754148D01*
X19209181Y34754493D01*
X19124221Y34754938D01*
X19116841Y34753166D01*
X19116839Y34753166D01*
X18977563Y34719729D01*
X18977560Y34719728D01*
X18970184Y34717957D01*
X18829414Y34645300D01*
X18710039Y34541162D01*
X18618950Y34411556D01*
X18561406Y34263963D01*
X18540729Y34106904D01*
X17858472Y34106904D01*
X17840276Y34257267D01*
X17784280Y34405454D01*
X17694553Y34536008D01*
X17576275Y34641389D01*
X17568889Y34645300D01*
X17470245Y34697529D01*
X17436274Y34715516D01*
X17282633Y34754108D01*
X17275034Y34754148D01*
X17275033Y34754148D01*
X17209181Y34754493D01*
X17124221Y34754938D01*
X17116841Y34753166D01*
X17116839Y34753166D01*
X16977563Y34719729D01*
X16977560Y34719728D01*
X16970184Y34717957D01*
X16829414Y34645300D01*
X16710039Y34541162D01*
X16618950Y34411556D01*
X16561406Y34263963D01*
X16540729Y34106904D01*
X7998209Y34106904D01*
X8240985Y34389158D01*
X8262737Y34420808D01*
X8450992Y34694720D01*
X8450997Y34694727D01*
X8452922Y34697529D01*
X8454534Y34700523D01*
X8454539Y34700531D01*
X8628694Y35023973D01*
X8630316Y35026985D01*
X8771091Y35373673D01*
X8873601Y35733537D01*
X8936647Y36102366D01*
X8938850Y36138376D01*
X8959380Y36474052D01*
X8959490Y36475848D01*
X8959574Y36500000D01*
X8939339Y36873632D01*
X8912582Y37037027D01*
X11015750Y37037027D01*
X11016914Y37028125D01*
X11016914Y37028122D01*
X11033324Y36902636D01*
X11034488Y36893735D01*
X11092689Y36761461D01*
X11098463Y36754592D01*
X11144353Y36700000D01*
X11185676Y36650840D01*
X11193147Y36645867D01*
X11193148Y36645866D01*
X11298501Y36575737D01*
X11298503Y36575736D01*
X11305974Y36570763D01*
X11314538Y36568087D01*
X11314541Y36568086D01*
X11374942Y36549216D01*
X11443910Y36527668D01*
X11588398Y36525020D01*
X11671295Y36547620D01*
X11719163Y36560670D01*
X11719165Y36560671D01*
X11727822Y36563031D01*
X11850972Y36638646D01*
X11863404Y36652380D01*
X11941926Y36739130D01*
X11947951Y36745786D01*
X12010960Y36875838D01*
X12034936Y37018347D01*
X12035088Y37030800D01*
X12034196Y37037027D01*
X15015750Y37037027D01*
X15016914Y37028125D01*
X15016914Y37028122D01*
X15033324Y36902636D01*
X15034488Y36893735D01*
X15092689Y36761461D01*
X15098463Y36754592D01*
X15144353Y36700000D01*
X15185676Y36650840D01*
X15193147Y36645867D01*
X15193148Y36645866D01*
X15298501Y36575737D01*
X15298503Y36575736D01*
X15305974Y36570763D01*
X15314538Y36568087D01*
X15314541Y36568086D01*
X15374942Y36549216D01*
X15443910Y36527668D01*
X15588398Y36525020D01*
X15671295Y36547620D01*
X15719163Y36560670D01*
X15719165Y36560671D01*
X15727822Y36563031D01*
X15850972Y36638646D01*
X15863404Y36652380D01*
X15906507Y36700000D01*
X17540715Y36700000D01*
X17541793Y36691812D01*
X17558082Y36568086D01*
X17559772Y36555246D01*
X17615645Y36420358D01*
X17704526Y36304526D01*
X17711076Y36299500D01*
X17711079Y36299497D01*
X17813804Y36220673D01*
X17820357Y36215645D01*
X17955246Y36159772D01*
X18100000Y36140715D01*
X18108188Y36141793D01*
X18236566Y36158694D01*
X18244754Y36159772D01*
X18379643Y36215645D01*
X18386196Y36220673D01*
X18488921Y36299497D01*
X18488924Y36299500D01*
X18495474Y36304526D01*
X18584355Y36420358D01*
X18640228Y36555246D01*
X18641919Y36568086D01*
X18658207Y36691812D01*
X18659285Y36700000D01*
X18656159Y36723745D01*
X18641306Y36836568D01*
X18641305Y36836570D01*
X18640228Y36844754D01*
X18584355Y36979642D01*
X18495474Y37095474D01*
X18488924Y37100500D01*
X18488921Y37100503D01*
X18386196Y37179327D01*
X18386194Y37179328D01*
X18379643Y37184355D01*
X18244754Y37240228D01*
X18199453Y37246192D01*
X18108188Y37258207D01*
X18100000Y37259285D01*
X18091812Y37258207D01*
X17963432Y37241306D01*
X17963430Y37241305D01*
X17955246Y37240228D01*
X17907430Y37220422D01*
X17827986Y37187515D01*
X17827984Y37187514D01*
X17820358Y37184355D01*
X17704526Y37095474D01*
X17615645Y36979642D01*
X17559772Y36844754D01*
X17558695Y36836570D01*
X17558694Y36836568D01*
X17543841Y36723745D01*
X17540715Y36700000D01*
X15906507Y36700000D01*
X15941926Y36739130D01*
X15947951Y36745786D01*
X16010960Y36875838D01*
X16034936Y37018347D01*
X16035088Y37030800D01*
X16014601Y37173852D01*
X15954788Y37305405D01*
X15948930Y37312204D01*
X15948927Y37312208D01*
X15866316Y37408082D01*
X15866313Y37408084D01*
X15860456Y37414882D01*
X15739190Y37493483D01*
X15722321Y37498528D01*
X15609338Y37532318D01*
X15609336Y37532318D01*
X15600737Y37534890D01*
X15591763Y37534945D01*
X15591761Y37534945D01*
X15528482Y37535331D01*
X15456227Y37535772D01*
X15447596Y37533305D01*
X15447594Y37533305D01*
X15325909Y37498528D01*
X15325905Y37498526D01*
X15317279Y37496061D01*
X15195061Y37418947D01*
X15099399Y37310630D01*
X15095585Y37302507D01*
X15095584Y37302505D01*
X15066345Y37240228D01*
X15037983Y37179818D01*
X15036603Y37170954D01*
X15036602Y37170951D01*
X15019048Y37058207D01*
X15015750Y37037027D01*
X12034196Y37037027D01*
X12014601Y37173852D01*
X11954788Y37305405D01*
X11948930Y37312204D01*
X11948927Y37312208D01*
X11866316Y37408082D01*
X11866313Y37408084D01*
X11860456Y37414882D01*
X11739190Y37493483D01*
X11722321Y37498528D01*
X11609338Y37532318D01*
X11609336Y37532318D01*
X11600737Y37534890D01*
X11591763Y37534945D01*
X11591761Y37534945D01*
X11528482Y37535331D01*
X11456227Y37535772D01*
X11447596Y37533305D01*
X11447594Y37533305D01*
X11325909Y37498528D01*
X11325905Y37498526D01*
X11317279Y37496061D01*
X11195061Y37418947D01*
X11099399Y37310630D01*
X11095585Y37302507D01*
X11095584Y37302505D01*
X11066345Y37240228D01*
X11037983Y37179818D01*
X11036603Y37170954D01*
X11036602Y37170951D01*
X11019048Y37058207D01*
X11015750Y37037027D01*
X8912582Y37037027D01*
X8878870Y37242893D01*
X8778875Y37603463D01*
X8775627Y37611627D01*
X8641783Y37947961D01*
X8641779Y37947969D01*
X8640523Y37951126D01*
X8465434Y38281812D01*
X8463534Y38284618D01*
X8463530Y38284625D01*
X8257561Y38588838D01*
X8255654Y38591655D01*
X8013639Y38877030D01*
X7742219Y39134598D01*
X7739512Y39136660D01*
X7739504Y39136667D01*
X7447281Y39359280D01*
X7444569Y39361346D01*
X7124172Y39554623D01*
X7121082Y39556057D01*
X7121077Y39556060D01*
X6787871Y39710728D01*
X6787869Y39710729D01*
X6784775Y39712165D01*
X6781540Y39713260D01*
X6781535Y39713262D01*
X6433583Y39831037D01*
X6430348Y39832132D01*
X6065038Y39913119D01*
X5932294Y39927774D01*
X5696500Y39953807D01*
X5696495Y39953807D01*
X5693119Y39954180D01*
X5689720Y39954186D01*
X5689719Y39954186D01*
X5512987Y39954494D01*
X5318940Y39954833D01*
X5180079Y39939993D01*
X4950263Y39915433D01*
X4950257Y39915432D01*
X4946879Y39915071D01*
X4581289Y39835359D01*
X4226446Y39716631D01*
X3886501Y39560273D01*
X3883567Y39558517D01*
X3883565Y39558516D01*
X3874110Y39552857D01*
X3565431Y39368117D01*
X3266991Y39142409D01*
X3264509Y39140070D01*
X3264503Y39140065D01*
X3013598Y38903623D01*
X2994674Y38885790D01*
X2751664Y38601262D01*
X2749736Y38598435D01*
X2749734Y38598433D01*
X2652059Y38455246D01*
X2540804Y38292153D01*
X2539197Y38289143D01*
X2539195Y38289140D01*
X2366168Y37965089D01*
X2364561Y37962079D01*
X2363288Y37958911D01*
X2363287Y37958910D01*
X2319605Y37850246D01*
X2224997Y37614902D01*
X2189495Y37488600D01*
X2124735Y37258207D01*
X2123744Y37254683D01*
X2123182Y37251326D01*
X2123182Y37251325D01*
X2077718Y36979642D01*
X2061986Y36885635D01*
X2040447Y36512076D01*
X1657695Y36512076D01*
X1650369Y36567727D01*
X1641306Y36636568D01*
X1641305Y36636570D01*
X1640228Y36644754D01*
X1596127Y36751222D01*
X1587515Y36772014D01*
X1587514Y36772016D01*
X1584355Y36779642D01*
X1515180Y36869793D01*
X1500501Y36888923D01*
X1500500Y36888924D01*
X1495474Y36895474D01*
X1488924Y36900500D01*
X1488921Y36900503D01*
X1386196Y36979327D01*
X1386194Y36979328D01*
X1379643Y36984355D01*
X1244754Y37040228D01*
X1100000Y37059285D01*
X1091812Y37058207D01*
X963432Y37041306D01*
X963430Y37041305D01*
X955246Y37040228D01*
X944112Y37035616D01*
X827986Y36987515D01*
X827984Y36987514D01*
X820358Y36984355D01*
X704526Y36895474D01*
X699503Y36888928D01*
X699499Y36888924D01*
X625962Y36793089D01*
X568624Y36751222D01*
X497753Y36747000D01*
X435851Y36781764D01*
X402569Y36844477D01*
X400000Y36869793D01*
X400000Y37782125D01*
X420002Y37850246D01*
X436905Y37871220D01*
X3365685Y40800000D01*
X4940715Y40800000D01*
X4941793Y40791812D01*
X4958112Y40667858D01*
X4959772Y40655246D01*
X5015645Y40520358D01*
X5104526Y40404526D01*
X5111076Y40399500D01*
X5111079Y40399497D01*
X5213804Y40320673D01*
X5220357Y40315645D01*
X5355246Y40259772D01*
X5500000Y40240715D01*
X5508188Y40241793D01*
X5636566Y40258694D01*
X5644754Y40259772D01*
X5779643Y40315645D01*
X5786196Y40320673D01*
X5888921Y40399497D01*
X5888924Y40399500D01*
X5895474Y40404526D01*
X5984355Y40520358D01*
X6040228Y40655246D01*
X6041889Y40667858D01*
X6058207Y40791812D01*
X6059285Y40800000D01*
X7190715Y40800000D01*
X7191793Y40791812D01*
X7208112Y40667858D01*
X7209772Y40655246D01*
X7265645Y40520358D01*
X7354526Y40404526D01*
X7361076Y40399500D01*
X7361079Y40399497D01*
X7463804Y40320673D01*
X7470357Y40315645D01*
X7605246Y40259772D01*
X7750000Y40240715D01*
X7758188Y40241793D01*
X7886566Y40258694D01*
X7894754Y40259772D01*
X8029643Y40315645D01*
X8036196Y40320673D01*
X8138921Y40399497D01*
X8138924Y40399500D01*
X8145474Y40404526D01*
X8234355Y40520358D01*
X8290228Y40655246D01*
X8291889Y40667858D01*
X8308207Y40791812D01*
X8309285Y40800000D01*
X8290228Y40944754D01*
X8234355Y41079642D01*
X8145474Y41195474D01*
X8138924Y41200500D01*
X8138921Y41200503D01*
X8036196Y41279327D01*
X8036194Y41279328D01*
X8029643Y41284355D01*
X7894754Y41340228D01*
X7827531Y41349078D01*
X7762604Y41377800D01*
X7752200Y41393574D01*
X7751247Y41391488D01*
X7691521Y41353104D01*
X7672469Y41349078D01*
X7613432Y41341306D01*
X7613430Y41341305D01*
X7605246Y41340228D01*
X7557430Y41320422D01*
X7477986Y41287515D01*
X7477984Y41287514D01*
X7470358Y41284355D01*
X7354526Y41195474D01*
X7265645Y41079642D01*
X7209772Y40944754D01*
X7190715Y40800000D01*
X6059285Y40800000D01*
X6040228Y40944754D01*
X5984355Y41079642D01*
X5895474Y41195474D01*
X5888924Y41200500D01*
X5888921Y41200503D01*
X5786196Y41279327D01*
X5786194Y41279328D01*
X5779643Y41284355D01*
X5644754Y41340228D01*
X5577531Y41349078D01*
X5512604Y41377800D01*
X5502200Y41393574D01*
X5501247Y41391488D01*
X5441521Y41353104D01*
X5422469Y41349078D01*
X5363432Y41341306D01*
X5363430Y41341305D01*
X5355246Y41340228D01*
X5307430Y41320422D01*
X5227986Y41287515D01*
X5227984Y41287514D01*
X5220358Y41284355D01*
X5104526Y41195474D01*
X5015645Y41079642D01*
X4959772Y40944754D01*
X4940715Y40800000D01*
X3365685Y40800000D01*
X4128780Y41563095D01*
X4191092Y41597121D01*
X4217875Y41600000D01*
X5406023Y41600000D01*
X5474144Y41579998D01*
G37*
G04 #@! TD.AperFunction*
G04 #@! TA.AperFunction,Conductor*
G36*
X26717897Y41579998D02*
G01*
X26764390Y41526342D01*
X26774494Y41456068D01*
X26752863Y41401550D01*
X26702015Y41329201D01*
X26702011Y41329194D01*
X26697644Y41322980D01*
X26637990Y41169975D01*
X26636999Y41162448D01*
X26617545Y41014688D01*
X26617545Y41014684D01*
X26616554Y41007157D01*
X26620672Y40969861D01*
X26629598Y40889010D01*
X26634575Y40843926D01*
X26637184Y40836795D01*
X26637185Y40836793D01*
X26644775Y40816052D01*
X26691012Y40689705D01*
X26695249Y40683399D01*
X26695251Y40683396D01*
X26705349Y40668369D01*
X26782607Y40553398D01*
X26788225Y40548286D01*
X26898450Y40447988D01*
X26898454Y40447985D01*
X26904071Y40442874D01*
X26910744Y40439251D01*
X26910748Y40439248D01*
X27041720Y40368137D01*
X27048393Y40364514D01*
X27207241Y40322841D01*
X27292283Y40321505D01*
X27363845Y40320380D01*
X27363848Y40320380D01*
X27371443Y40320261D01*
X27531522Y40356924D01*
X27678234Y40430712D01*
X27803110Y40537367D01*
X27898941Y40670730D01*
X27915126Y40710990D01*
X27957360Y40816052D01*
X27957360Y40816053D01*
X27960194Y40823102D01*
X27981714Y40974312D01*
X27982752Y40981602D01*
X27982752Y40981606D01*
X27983333Y40985686D01*
X27983483Y41000000D01*
X27963754Y41163034D01*
X27905705Y41316655D01*
X27901358Y41322980D01*
X27846614Y41402633D01*
X27824514Y41470102D01*
X27842399Y41538809D01*
X27894591Y41586940D01*
X27950454Y41600000D01*
X37782125Y41600000D01*
X37850246Y41579998D01*
X37871220Y41563095D01*
X41563095Y37871220D01*
X41597121Y37808908D01*
X41600000Y37782125D01*
X41600000Y4217875D01*
X41579998Y4149754D01*
X41563095Y4128780D01*
X37871220Y436905D01*
X37808908Y402879D01*
X37782125Y400000D01*
X15126000Y400000D01*
X15057879Y420002D01*
X15011386Y473658D01*
X15000000Y526000D01*
X15000000Y2090710D01*
X15667927Y2090710D01*
X15677257Y2000794D01*
X15680149Y1987400D01*
X15731588Y1833216D01*
X15737761Y1820038D01*
X15823063Y1682193D01*
X15832099Y1670792D01*
X15946829Y1556261D01*
X15958240Y1547249D01*
X16096243Y1462184D01*
X16109424Y1456037D01*
X16263710Y1404862D01*
X16277086Y1401995D01*
X16371438Y1392328D01*
X16377854Y1392000D01*
X16631885Y1392000D01*
X16647124Y1396475D01*
X16648329Y1397865D01*
X16650000Y1405548D01*
X16650000Y2081885D01*
X16648659Y2086452D01*
X17450000Y2086452D01*
X17450000Y1410116D01*
X17454475Y1394877D01*
X17455865Y1393672D01*
X17463548Y1392001D01*
X17722095Y1392001D01*
X17728614Y1392338D01*
X17824206Y1402257D01*
X17837600Y1405149D01*
X17991784Y1456588D01*
X18004962Y1462761D01*
X18142807Y1548063D01*
X18154208Y1557099D01*
X18268739Y1671829D01*
X18277751Y1683240D01*
X18362816Y1821243D01*
X18368963Y1834424D01*
X18420138Y1988710D01*
X18423005Y2002086D01*
X18431652Y2086477D01*
X18430409Y2090710D01*
X21867927Y2090710D01*
X21877257Y2000794D01*
X21880149Y1987400D01*
X21931588Y1833216D01*
X21937761Y1820038D01*
X22023063Y1682193D01*
X22032099Y1670792D01*
X22146829Y1556261D01*
X22158240Y1547249D01*
X22296243Y1462184D01*
X22309424Y1456037D01*
X22463710Y1404862D01*
X22477086Y1401995D01*
X22571438Y1392328D01*
X22577854Y1392000D01*
X22831885Y1392000D01*
X22847124Y1396475D01*
X22848329Y1397865D01*
X22850000Y1405548D01*
X22850000Y2081885D01*
X22848659Y2086452D01*
X23650000Y2086452D01*
X23650000Y1410116D01*
X23654475Y1394877D01*
X23655865Y1393672D01*
X23663548Y1392001D01*
X23922095Y1392001D01*
X23928614Y1392338D01*
X24024206Y1402257D01*
X24037600Y1405149D01*
X24191784Y1456588D01*
X24204962Y1462761D01*
X24342807Y1548063D01*
X24354208Y1557099D01*
X24468739Y1671829D01*
X24477751Y1683240D01*
X24562816Y1821243D01*
X24568963Y1834424D01*
X24620138Y1988710D01*
X24623005Y2002086D01*
X24631652Y2086477D01*
X24628525Y2097124D01*
X24627135Y2098329D01*
X24619452Y2100000D01*
X23668115Y2100000D01*
X23652876Y2095525D01*
X23651671Y2094135D01*
X23650000Y2086452D01*
X22848659Y2086452D01*
X22845525Y2097124D01*
X22844135Y2098329D01*
X22836452Y2100000D01*
X21885116Y2100000D01*
X21869877Y2095525D01*
X21868672Y2094135D01*
X21867927Y2090710D01*
X18430409Y2090710D01*
X18428525Y2097124D01*
X18427135Y2098329D01*
X18419452Y2100000D01*
X17468115Y2100000D01*
X17452876Y2095525D01*
X17451671Y2094135D01*
X17450000Y2086452D01*
X16648659Y2086452D01*
X16645525Y2097124D01*
X16644135Y2098329D01*
X16636452Y2100000D01*
X15685116Y2100000D01*
X15669877Y2095525D01*
X15668672Y2094135D01*
X15667927Y2090710D01*
X15000000Y2090710D01*
X15000000Y2913523D01*
X15668348Y2913523D01*
X15671475Y2902876D01*
X15672865Y2901671D01*
X15680548Y2900000D01*
X18414884Y2900000D01*
X18430123Y2904475D01*
X18431328Y2905865D01*
X18432073Y2909290D01*
X18431634Y2913523D01*
X21868348Y2913523D01*
X21871475Y2902876D01*
X21872865Y2901671D01*
X21880548Y2900000D01*
X24614884Y2900000D01*
X24630123Y2904475D01*
X24631328Y2905865D01*
X24632073Y2909290D01*
X24622743Y2999206D01*
X24619851Y3012600D01*
X24568412Y3166784D01*
X24562239Y3179962D01*
X24476937Y3317807D01*
X24467901Y3329208D01*
X24353171Y3443739D01*
X24341760Y3452751D01*
X24203758Y3537816D01*
X24188118Y3545109D01*
X24134833Y3592026D01*
X24115372Y3660303D01*
X24135914Y3728263D01*
X24159371Y3754972D01*
X24165356Y3760101D01*
X24237256Y3821727D01*
X24250728Y3839095D01*
X24355182Y3973756D01*
X24355184Y3973759D01*
X24359094Y3978800D01*
X24364382Y3989545D01*
X24444041Y4151434D01*
X24446860Y4157163D01*
X24496968Y4349531D01*
X24506031Y4522461D01*
X24507038Y4541664D01*
X24507038Y4541669D01*
X24507372Y4548046D01*
X24477646Y4744598D01*
X24444061Y4835878D01*
X27321500Y4835878D01*
X27321500Y2664122D01*
X27332451Y2589730D01*
X27387986Y2476620D01*
X27477165Y2387596D01*
X27545246Y2354317D01*
X27581152Y2336766D01*
X27590372Y2332259D01*
X27600047Y2330848D01*
X27600049Y2330847D01*
X27659596Y2322160D01*
X27659600Y2322160D01*
X27664122Y2321500D01*
X29835878Y2321500D01*
X29840427Y2322170D01*
X29840432Y2322170D01*
X29900585Y2331025D01*
X29900587Y2331026D01*
X29910270Y2332451D01*
X30023380Y2387986D01*
X30112404Y2477165D01*
X30120212Y2493138D01*
X30168096Y2545554D01*
X30236718Y2563762D01*
X30304291Y2541979D01*
X30315242Y2533617D01*
X30367639Y2488866D01*
X30375624Y2483065D01*
X30576272Y2360107D01*
X30585067Y2355625D01*
X30802490Y2265566D01*
X30811875Y2262517D01*
X31040708Y2207578D01*
X31050455Y2206035D01*
X31285070Y2187570D01*
X31294930Y2187570D01*
X31529545Y2206035D01*
X31539292Y2207578D01*
X31768125Y2262517D01*
X31777510Y2265566D01*
X31994931Y2355624D01*
X32003725Y2360105D01*
X32056785Y2392620D01*
X32066245Y2403076D01*
X32062461Y2411854D01*
X30813410Y3660905D01*
X30779384Y3723217D01*
X30781219Y3748868D01*
X31860883Y3748868D01*
X31861014Y3747035D01*
X31865265Y3740420D01*
X32625103Y2980582D01*
X32637483Y2973822D01*
X32645133Y2979549D01*
X32679895Y3036275D01*
X32684376Y3045069D01*
X32774434Y3262490D01*
X32777483Y3271875D01*
X32832422Y3500708D01*
X32833965Y3510455D01*
X32852430Y3745070D01*
X32852430Y3754930D01*
X32833965Y3989545D01*
X32832422Y3999292D01*
X32777483Y4228125D01*
X32774434Y4237510D01*
X32684376Y4454931D01*
X32679895Y4463725D01*
X32647380Y4516785D01*
X32636924Y4526245D01*
X32628146Y4522461D01*
X31868497Y3762812D01*
X31860883Y3748868D01*
X30781219Y3748868D01*
X30784449Y3794032D01*
X30813410Y3839095D01*
X32059418Y5085103D01*
X32066178Y5097483D01*
X32060451Y5105133D01*
X32003725Y5139895D01*
X31994931Y5144376D01*
X31777510Y5234434D01*
X31768125Y5237483D01*
X31539292Y5292422D01*
X31529545Y5293965D01*
X31294930Y5312430D01*
X31285070Y5312430D01*
X31050455Y5293965D01*
X31040708Y5292422D01*
X30811875Y5237483D01*
X30802490Y5234434D01*
X30585067Y5144375D01*
X30576272Y5139893D01*
X30375624Y5016935D01*
X30367639Y5011134D01*
X30315180Y4966330D01*
X30250390Y4937300D01*
X30180190Y4947905D01*
X30126868Y4994780D01*
X30120252Y5006600D01*
X30112014Y5023380D01*
X30037782Y5097483D01*
X30030204Y5105048D01*
X30030203Y5105048D01*
X30022835Y5112404D01*
X29954754Y5145683D01*
X29918413Y5163447D01*
X29918412Y5163447D01*
X29909628Y5167741D01*
X29899953Y5169152D01*
X29899951Y5169153D01*
X29840404Y5177840D01*
X29840400Y5177840D01*
X29835878Y5178500D01*
X27664122Y5178500D01*
X27659573Y5177830D01*
X27659568Y5177830D01*
X27599415Y5168975D01*
X27599413Y5168974D01*
X27589730Y5167549D01*
X27476620Y5112014D01*
X27387596Y5022835D01*
X27332259Y4909628D01*
X27321500Y4835878D01*
X24444061Y4835878D01*
X24409005Y4931158D01*
X24405647Y4936574D01*
X24405645Y4936578D01*
X24307616Y5094683D01*
X24307613Y5094687D01*
X24304253Y5100106D01*
X24167669Y5244539D01*
X24004832Y5358559D01*
X23822395Y5437507D01*
X23627809Y5478158D01*
X23622967Y5478412D01*
X23622962Y5478412D01*
X23621283Y5478500D01*
X22925324Y5478500D01*
X22851826Y5471034D01*
X22783580Y5464102D01*
X22783579Y5464102D01*
X22777231Y5463457D01*
X22587540Y5404012D01*
X22413677Y5307638D01*
X22262744Y5178273D01*
X22258837Y5173236D01*
X22258835Y5173234D01*
X22144818Y5026244D01*
X22144816Y5026241D01*
X22140906Y5021200D01*
X22138088Y5015474D01*
X22138086Y5015470D01*
X22093654Y4925172D01*
X22053140Y4842837D01*
X22003032Y4650469D01*
X22002698Y4644089D01*
X21993245Y4463725D01*
X21992628Y4451954D01*
X22022354Y4255402D01*
X22090995Y4068842D01*
X22094353Y4063426D01*
X22094355Y4063422D01*
X22192384Y3905317D01*
X22192387Y3905313D01*
X22195747Y3899894D01*
X22200133Y3895256D01*
X22274950Y3816140D01*
X22332331Y3755461D01*
X22336765Y3752356D01*
X22375072Y3692994D01*
X22375206Y3621998D01*
X22336934Y3562200D01*
X22307695Y3543169D01*
X22295044Y3537243D01*
X22157193Y3451937D01*
X22145792Y3442901D01*
X22031261Y3328171D01*
X22022249Y3316760D01*
X21937184Y3178757D01*
X21931037Y3165576D01*
X21879862Y3011290D01*
X21876995Y2997914D01*
X21868348Y2913523D01*
X18431634Y2913523D01*
X18422743Y2999206D01*
X18419851Y3012600D01*
X18368412Y3166784D01*
X18362239Y3179962D01*
X18276937Y3317807D01*
X18267901Y3329208D01*
X18153171Y3443739D01*
X18141760Y3452751D01*
X18003758Y3537816D01*
X17988118Y3545109D01*
X17934833Y3592026D01*
X17915372Y3660303D01*
X17935914Y3728263D01*
X17959371Y3754972D01*
X17965356Y3760101D01*
X18037256Y3821727D01*
X18050728Y3839095D01*
X18155182Y3973756D01*
X18155184Y3973759D01*
X18159094Y3978800D01*
X18164382Y3989545D01*
X18244041Y4151434D01*
X18246860Y4157163D01*
X18296968Y4349531D01*
X18306031Y4522461D01*
X18307038Y4541664D01*
X18307038Y4541669D01*
X18307372Y4548046D01*
X18277646Y4744598D01*
X18209005Y4931158D01*
X18205647Y4936574D01*
X18205645Y4936578D01*
X18107616Y5094683D01*
X18107613Y5094687D01*
X18104253Y5100106D01*
X17967669Y5244539D01*
X17804832Y5358559D01*
X17622395Y5437507D01*
X17427809Y5478158D01*
X17422967Y5478412D01*
X17422962Y5478412D01*
X17421283Y5478500D01*
X16725324Y5478500D01*
X16651826Y5471034D01*
X16583580Y5464102D01*
X16583579Y5464102D01*
X16577231Y5463457D01*
X16387540Y5404012D01*
X16213677Y5307638D01*
X16062744Y5178273D01*
X16058837Y5173236D01*
X16058835Y5173234D01*
X15944818Y5026244D01*
X15944816Y5026241D01*
X15940906Y5021200D01*
X15938088Y5015474D01*
X15938086Y5015470D01*
X15893654Y4925172D01*
X15853140Y4842837D01*
X15803032Y4650469D01*
X15802698Y4644089D01*
X15793245Y4463725D01*
X15792628Y4451954D01*
X15822354Y4255402D01*
X15890995Y4068842D01*
X15894353Y4063426D01*
X15894355Y4063422D01*
X15992384Y3905317D01*
X15992387Y3905313D01*
X15995747Y3899894D01*
X16000133Y3895256D01*
X16074950Y3816140D01*
X16132331Y3755461D01*
X16136765Y3752356D01*
X16175072Y3692994D01*
X16175206Y3621998D01*
X16136934Y3562200D01*
X16107695Y3543169D01*
X16095044Y3537243D01*
X15957193Y3451937D01*
X15945792Y3442901D01*
X15831261Y3328171D01*
X15822249Y3316760D01*
X15737184Y3178757D01*
X15731037Y3165576D01*
X15679862Y3011290D01*
X15676995Y2997914D01*
X15668348Y2913523D01*
X15000000Y2913523D01*
X15000000Y5500000D01*
X32916589Y5500000D01*
X32936219Y5125432D01*
X32936732Y5122192D01*
X32936733Y5122184D01*
X32951929Y5026244D01*
X32994895Y4754967D01*
X33091974Y4392665D01*
X33093159Y4389577D01*
X33093160Y4389575D01*
X33110905Y4343348D01*
X33226391Y4042495D01*
X33227889Y4039555D01*
X33389072Y3723217D01*
X33396675Y3708295D01*
X33600960Y3393724D01*
X33837007Y3102230D01*
X34102230Y2837007D01*
X34393724Y2600960D01*
X34708294Y2396675D01*
X35042495Y2226391D01*
X35143628Y2187570D01*
X35379249Y2097124D01*
X35392665Y2091974D01*
X35754967Y1994895D01*
X35951798Y1963720D01*
X36122184Y1936733D01*
X36122192Y1936732D01*
X36125432Y1936219D01*
X36500000Y1916589D01*
X36874568Y1936219D01*
X36877808Y1936732D01*
X36877816Y1936733D01*
X37048202Y1963720D01*
X37245033Y1994895D01*
X37607335Y2091974D01*
X37620752Y2097124D01*
X37856372Y2187570D01*
X37957505Y2226391D01*
X38291706Y2396675D01*
X38606276Y2600960D01*
X38897770Y2837007D01*
X39162993Y3102230D01*
X39399040Y3393724D01*
X39603325Y3708295D01*
X39610929Y3723217D01*
X39772111Y4039555D01*
X39773609Y4042495D01*
X39889095Y4343348D01*
X39906840Y4389575D01*
X39906841Y4389577D01*
X39908026Y4392665D01*
X40005105Y4754967D01*
X40048071Y5026244D01*
X40063267Y5122184D01*
X40063268Y5122192D01*
X40063781Y5125432D01*
X40083411Y5500000D01*
X40063781Y5874568D01*
X40005105Y6245033D01*
X39908026Y6607335D01*
X39773609Y6957505D01*
X39603325Y7291705D01*
X39399040Y7606276D01*
X39162993Y7897770D01*
X38897770Y8162993D01*
X38606276Y8399040D01*
X38291706Y8603325D01*
X37957505Y8773609D01*
X37685230Y8878125D01*
X37610425Y8906840D01*
X37610423Y8906841D01*
X37607335Y8908026D01*
X37245033Y9005105D01*
X37048202Y9036280D01*
X36877816Y9063267D01*
X36877808Y9063268D01*
X36874568Y9063781D01*
X36500000Y9083411D01*
X36125432Y9063781D01*
X36122192Y9063268D01*
X36122184Y9063267D01*
X35951798Y9036280D01*
X35754967Y9005105D01*
X35392665Y8908026D01*
X35389577Y8906841D01*
X35389575Y8906840D01*
X35314770Y8878125D01*
X35042495Y8773609D01*
X35039555Y8772111D01*
X34711234Y8604823D01*
X34711227Y8604819D01*
X34708295Y8603325D01*
X34393724Y8399040D01*
X34102230Y8162993D01*
X33837007Y7897770D01*
X33600960Y7606276D01*
X33396675Y7291705D01*
X33226391Y6957505D01*
X33091974Y6607335D01*
X32994895Y6245033D01*
X32936219Y5874568D01*
X32916589Y5500000D01*
X15000000Y5500000D01*
X15000000Y7524000D01*
X15020002Y7592121D01*
X15073658Y7638614D01*
X15126000Y7650000D01*
X24000000Y7650000D01*
X24000000Y8948988D01*
X24009093Y8995984D01*
X24057360Y9116052D01*
X24057360Y9116053D01*
X24060194Y9123102D01*
X24083333Y9285686D01*
X24083483Y9300000D01*
X24063754Y9463034D01*
X24009259Y9607250D01*
X24003891Y9678042D01*
X24010216Y9698778D01*
X24060194Y9823102D01*
X24074661Y9924755D01*
X24082752Y9981602D01*
X24082752Y9981606D01*
X24083333Y9985686D01*
X24083483Y10000000D01*
X24080093Y10028019D01*
X24066929Y10136793D01*
X24063754Y10163034D01*
X24009294Y10307157D01*
X24516554Y10307157D01*
X24523511Y10244142D01*
X24533298Y10155494D01*
X24534575Y10143926D01*
X24537184Y10136795D01*
X24537185Y10136793D01*
X24544775Y10116052D01*
X24591012Y9989705D01*
X24595249Y9983399D01*
X24595251Y9983396D01*
X24607906Y9964564D01*
X24669859Y9872370D01*
X24671933Y9869283D01*
X24693326Y9801586D01*
X24674722Y9733070D01*
X24670448Y9726570D01*
X24597644Y9622980D01*
X24537990Y9469975D01*
X24536999Y9462448D01*
X24517545Y9314688D01*
X24517545Y9314684D01*
X24516554Y9307157D01*
X24534575Y9143926D01*
X24537184Y9136795D01*
X24537185Y9136793D01*
X24549213Y9103926D01*
X24591012Y8989705D01*
X24595249Y8983399D01*
X24595251Y8983396D01*
X24607906Y8964564D01*
X24682607Y8853398D01*
X24688225Y8848286D01*
X24798450Y8747988D01*
X24798454Y8747985D01*
X24804071Y8742874D01*
X24810744Y8739251D01*
X24810748Y8739248D01*
X24941720Y8668137D01*
X24948393Y8664514D01*
X25107241Y8622841D01*
X25192283Y8621505D01*
X25263845Y8620380D01*
X25263848Y8620380D01*
X25271443Y8620261D01*
X25431522Y8656924D01*
X25503868Y8693310D01*
X25544428Y8713709D01*
X25614273Y8726447D01*
X25661164Y8711875D01*
X25687885Y8697367D01*
X25748393Y8664514D01*
X25907241Y8622841D01*
X25992283Y8621505D01*
X26063845Y8620380D01*
X26063848Y8620380D01*
X26071443Y8620261D01*
X26231522Y8656924D01*
X26378234Y8730712D01*
X26503110Y8837367D01*
X26598941Y8970730D01*
X26603915Y8983102D01*
X26655304Y9110938D01*
X27616650Y9110938D01*
X27633694Y8937117D01*
X27635918Y8930432D01*
X27635918Y8930431D01*
X27643087Y8908881D01*
X27688824Y8771390D01*
X27692471Y8765368D01*
X27692472Y8765366D01*
X27773065Y8632292D01*
X27779300Y8621996D01*
X27900625Y8496360D01*
X28046771Y8400725D01*
X28053375Y8398269D01*
X28053377Y8398268D01*
X28075198Y8390153D01*
X28210472Y8339845D01*
X28217457Y8338913D01*
X28376612Y8317677D01*
X28376616Y8317677D01*
X28383593Y8316746D01*
X28390604Y8317384D01*
X28390608Y8317384D01*
X28550512Y8331936D01*
X28550515Y8331937D01*
X28557530Y8332575D01*
X28644446Y8360816D01*
X28716941Y8384371D01*
X28716943Y8384372D01*
X28723637Y8386547D01*
X28873659Y8475978D01*
X29000139Y8596423D01*
X29077857Y8713398D01*
X29092891Y8736026D01*
X29092892Y8736028D01*
X29096792Y8741898D01*
X29158813Y8905170D01*
X29183121Y9078125D01*
X29183426Y9100000D01*
X29163957Y9273567D01*
X29106519Y9438507D01*
X29013966Y9586623D01*
X29005501Y9595148D01*
X28930445Y9670730D01*
X28890898Y9710554D01*
X28880193Y9717348D01*
X28817176Y9757339D01*
X28743431Y9804139D01*
X28709967Y9816055D01*
X28585531Y9860365D01*
X28585526Y9860366D01*
X28578896Y9862727D01*
X28571908Y9863560D01*
X28571905Y9863561D01*
X28454334Y9877580D01*
X28405469Y9883407D01*
X28398467Y9882671D01*
X28398465Y9882671D01*
X28238771Y9865886D01*
X28238769Y9865886D01*
X28231771Y9865150D01*
X28066433Y9808865D01*
X28049208Y9798268D01*
X27923677Y9721041D01*
X27923674Y9721039D01*
X27917675Y9717348D01*
X27792888Y9595148D01*
X27698276Y9448339D01*
X27695867Y9441719D01*
X27695865Y9441716D01*
X27649631Y9314688D01*
X27638540Y9284216D01*
X27616650Y9110938D01*
X26655304Y9110938D01*
X26657360Y9116052D01*
X26657360Y9116053D01*
X26660194Y9123102D01*
X26683333Y9285686D01*
X26683483Y9300000D01*
X26663754Y9463034D01*
X26605705Y9616655D01*
X26528172Y9729465D01*
X26506073Y9796933D01*
X26523958Y9865640D01*
X26529690Y9874357D01*
X26536193Y9883407D01*
X26598941Y9970730D01*
X26604954Y9985686D01*
X26657360Y10116052D01*
X26657360Y10116053D01*
X26660194Y10123102D01*
X26674661Y10224755D01*
X26682752Y10281602D01*
X26682752Y10281606D01*
X26683333Y10285686D01*
X26683483Y10300000D01*
X26682858Y10305170D01*
X26667665Y10430712D01*
X26663754Y10463034D01*
X26645652Y10510938D01*
X34916650Y10510938D01*
X34933694Y10337117D01*
X34988824Y10171390D01*
X34992471Y10165368D01*
X34992472Y10165366D01*
X35054408Y10063098D01*
X35079300Y10021996D01*
X35200625Y9896360D01*
X35252022Y9862727D01*
X35339977Y9805171D01*
X35346771Y9800725D01*
X35353375Y9798269D01*
X35353377Y9798268D01*
X35356967Y9796933D01*
X35510472Y9739845D01*
X35517457Y9738913D01*
X35676612Y9717677D01*
X35676616Y9717677D01*
X35683593Y9716746D01*
X35690604Y9717384D01*
X35690608Y9717384D01*
X35850512Y9731936D01*
X35850515Y9731937D01*
X35857530Y9732575D01*
X35933745Y9757339D01*
X36016941Y9784371D01*
X36016943Y9784372D01*
X36023637Y9786547D01*
X36100793Y9832541D01*
X36167607Y9872370D01*
X36167609Y9872371D01*
X36173659Y9875978D01*
X36300139Y9996423D01*
X36389301Y10130623D01*
X36392891Y10136026D01*
X36392892Y10136028D01*
X36396792Y10141898D01*
X36458813Y10305170D01*
X36483121Y10478125D01*
X36483426Y10500000D01*
X36463957Y10673567D01*
X36406519Y10838507D01*
X36313966Y10986623D01*
X36305501Y10995148D01*
X36254439Y11046567D01*
X36190898Y11110554D01*
X36180193Y11117348D01*
X36133590Y11146923D01*
X36043431Y11204139D01*
X36015625Y11214040D01*
X35885531Y11260365D01*
X35885526Y11260366D01*
X35878896Y11262727D01*
X35871908Y11263560D01*
X35871905Y11263561D01*
X35749765Y11278125D01*
X35705469Y11283407D01*
X35698467Y11282671D01*
X35698465Y11282671D01*
X35538771Y11265886D01*
X35538769Y11265886D01*
X35531771Y11265150D01*
X35366433Y11208865D01*
X35311225Y11174901D01*
X35223677Y11121041D01*
X35223674Y11121039D01*
X35217675Y11117348D01*
X35092888Y10995148D01*
X35089069Y10989223D01*
X35089068Y10989221D01*
X35007746Y10863034D01*
X34998276Y10848339D01*
X34995867Y10841719D01*
X34995865Y10841716D01*
X34942960Y10696360D01*
X34938540Y10684216D01*
X34916650Y10510938D01*
X26645652Y10510938D01*
X26605705Y10616655D01*
X26568540Y10670730D01*
X26516990Y10745736D01*
X26516989Y10745737D01*
X26512688Y10751995D01*
X26501084Y10762334D01*
X26395744Y10856190D01*
X26395740Y10856193D01*
X26390073Y10861242D01*
X26244938Y10938086D01*
X26085663Y10978094D01*
X26078065Y10978134D01*
X26078063Y10978134D01*
X26007307Y10978504D01*
X25921442Y10978953D01*
X25914063Y10977181D01*
X25914059Y10977181D01*
X25813654Y10953075D01*
X25761757Y10940616D01*
X25657440Y10886774D01*
X25587736Y10873306D01*
X25540696Y10887385D01*
X25444938Y10938086D01*
X25285663Y10978094D01*
X25278065Y10978134D01*
X25278063Y10978134D01*
X25207307Y10978504D01*
X25121442Y10978953D01*
X25114063Y10977181D01*
X25114059Y10977181D01*
X25013654Y10953075D01*
X24961757Y10940616D01*
X24815826Y10865296D01*
X24810106Y10860306D01*
X24810103Y10860304D01*
X24697798Y10762334D01*
X24697795Y10762331D01*
X24692073Y10757339D01*
X24681907Y10742874D01*
X24626835Y10664514D01*
X24597644Y10622980D01*
X24537990Y10469975D01*
X24536999Y10462448D01*
X24517545Y10314688D01*
X24517545Y10314684D01*
X24516554Y10307157D01*
X24009294Y10307157D01*
X24009259Y10307250D01*
X24003891Y10378042D01*
X24010216Y10398778D01*
X24060194Y10523102D01*
X24080612Y10666568D01*
X24082752Y10681602D01*
X24082752Y10681606D01*
X24083333Y10685686D01*
X24083483Y10700000D01*
X24079767Y10730712D01*
X24067991Y10828019D01*
X24063754Y10863034D01*
X24008134Y11010227D01*
X24000000Y11054765D01*
X24000000Y12410938D01*
X28416650Y12410938D01*
X28433694Y12237117D01*
X28488824Y12071390D01*
X28578100Y11923978D01*
X28579300Y11921996D01*
X28578952Y11921785D01*
X28603139Y11859546D01*
X28588995Y11789973D01*
X28583508Y11780593D01*
X28498276Y11648339D01*
X28495867Y11641719D01*
X28495865Y11641716D01*
X28478315Y11593498D01*
X28438540Y11484216D01*
X28416650Y11310938D01*
X28433694Y11137117D01*
X28435918Y11130432D01*
X28435918Y11130431D01*
X28441910Y11112419D01*
X28488824Y10971390D01*
X28492471Y10965368D01*
X28492472Y10965366D01*
X28572830Y10832680D01*
X28579300Y10821996D01*
X28700625Y10696360D01*
X28846771Y10600725D01*
X28853375Y10598269D01*
X28853377Y10598268D01*
X28884894Y10586547D01*
X29010472Y10539845D01*
X29017457Y10538913D01*
X29176612Y10517677D01*
X29176616Y10517677D01*
X29183593Y10516746D01*
X29190604Y10517384D01*
X29190608Y10517384D01*
X29350512Y10531936D01*
X29350515Y10531937D01*
X29357530Y10532575D01*
X29387466Y10542302D01*
X29516941Y10584371D01*
X29516943Y10584372D01*
X29523637Y10586547D01*
X29636443Y10653793D01*
X29705195Y10671492D01*
X29769949Y10650996D01*
X29846771Y10600725D01*
X29853375Y10598269D01*
X29853377Y10598268D01*
X29884894Y10586547D01*
X30010472Y10539845D01*
X30017457Y10538913D01*
X30176612Y10517677D01*
X30176616Y10517677D01*
X30183593Y10516746D01*
X30190604Y10517384D01*
X30190608Y10517384D01*
X30350512Y10531936D01*
X30350515Y10531937D01*
X30357530Y10532575D01*
X30387466Y10542302D01*
X30516941Y10584371D01*
X30516943Y10584372D01*
X30523637Y10586547D01*
X30657874Y10666568D01*
X30667607Y10672370D01*
X30667609Y10672371D01*
X30673659Y10675978D01*
X30800139Y10796423D01*
X30863351Y10891565D01*
X30892891Y10936026D01*
X30892892Y10936028D01*
X30896792Y10941898D01*
X30958813Y11105170D01*
X30981074Y11263561D01*
X30982570Y11274203D01*
X30982570Y11274206D01*
X30983121Y11278125D01*
X30983426Y11300000D01*
X30963957Y11473567D01*
X30960531Y11483407D01*
X30918745Y11603398D01*
X30906519Y11638507D01*
X30814936Y11785070D01*
X30795801Y11853437D01*
X30816843Y11921565D01*
X30817130Y11921996D01*
X30896792Y12041898D01*
X30958813Y12205170D01*
X30983121Y12378125D01*
X30983426Y12400000D01*
X30963957Y12573567D01*
X30949426Y12615296D01*
X30929071Y12673747D01*
X30906519Y12738507D01*
X30813966Y12886623D01*
X30805501Y12895148D01*
X30695860Y13005557D01*
X30690898Y13010554D01*
X30680193Y13017348D01*
X30605281Y13064888D01*
X30543431Y13104139D01*
X30491244Y13122722D01*
X30385531Y13160365D01*
X30385526Y13160366D01*
X30378896Y13162727D01*
X30371908Y13163560D01*
X30371905Y13163561D01*
X30254334Y13177580D01*
X30205469Y13183407D01*
X30198467Y13182671D01*
X30198465Y13182671D01*
X30038771Y13165886D01*
X30038769Y13165886D01*
X30031771Y13165150D01*
X29866433Y13108865D01*
X29765700Y13046893D01*
X29697202Y13028235D01*
X29632166Y13047826D01*
X29605870Y13064514D01*
X29543431Y13104139D01*
X29491244Y13122722D01*
X29385531Y13160365D01*
X29385526Y13160366D01*
X29378896Y13162727D01*
X29371908Y13163560D01*
X29371905Y13163561D01*
X29254334Y13177580D01*
X29205469Y13183407D01*
X29198467Y13182671D01*
X29198465Y13182671D01*
X29038771Y13165886D01*
X29038769Y13165886D01*
X29031771Y13165150D01*
X28866433Y13108865D01*
X28835785Y13090010D01*
X28723677Y13021041D01*
X28723674Y13021039D01*
X28717675Y13017348D01*
X28592888Y12895148D01*
X28498276Y12748339D01*
X28495867Y12741719D01*
X28495865Y12741716D01*
X28451193Y12618981D01*
X28438540Y12584216D01*
X28416650Y12410938D01*
X24000000Y12410938D01*
X24000000Y13192463D01*
X24023677Y13265989D01*
X24074967Y13337367D01*
X24098941Y13370730D01*
X24140151Y13473242D01*
X24157360Y13516052D01*
X24157360Y13516053D01*
X24160194Y13523102D01*
X24183333Y13685686D01*
X24183483Y13700000D01*
X24182831Y13705393D01*
X24171382Y13800000D01*
X24170516Y13807157D01*
X24916554Y13807157D01*
X24919412Y13781272D01*
X24930985Y13676447D01*
X24934575Y13643926D01*
X24937184Y13636795D01*
X24937185Y13636793D01*
X24943714Y13618953D01*
X24991012Y13489705D01*
X24995249Y13483399D01*
X24995251Y13483396D01*
X25007906Y13464564D01*
X25082607Y13353398D01*
X25088225Y13348286D01*
X25198450Y13247988D01*
X25198454Y13247985D01*
X25204071Y13242874D01*
X25210744Y13239251D01*
X25210748Y13239248D01*
X25315132Y13182573D01*
X25348393Y13164514D01*
X25507241Y13122841D01*
X25592283Y13121505D01*
X25663845Y13120380D01*
X25663848Y13120380D01*
X25671443Y13120261D01*
X25831522Y13156924D01*
X25978234Y13230712D01*
X26103110Y13337367D01*
X26198941Y13470730D01*
X26217161Y13516052D01*
X26257360Y13616052D01*
X26257360Y13616053D01*
X26260194Y13623102D01*
X26277955Y13747900D01*
X26282752Y13781602D01*
X26282752Y13781606D01*
X26283333Y13785686D01*
X26283483Y13800000D01*
X26282270Y13810028D01*
X26269766Y13913355D01*
X26263754Y13963034D01*
X26205705Y14116655D01*
X26120726Y14240300D01*
X26116990Y14245736D01*
X26116989Y14245737D01*
X26112688Y14251995D01*
X26106690Y14257339D01*
X25995744Y14356190D01*
X25995740Y14356193D01*
X25990073Y14361242D01*
X25860639Y14429773D01*
X25851647Y14434534D01*
X25851646Y14434534D01*
X25844938Y14438086D01*
X25685663Y14478094D01*
X25678065Y14478134D01*
X25678063Y14478134D01*
X25607307Y14478504D01*
X25521442Y14478953D01*
X25514063Y14477181D01*
X25514059Y14477181D01*
X25413654Y14453075D01*
X25361757Y14440616D01*
X25215826Y14365296D01*
X25210106Y14360306D01*
X25210103Y14360304D01*
X25097798Y14262334D01*
X25097795Y14262331D01*
X25092073Y14257339D01*
X25080098Y14240300D01*
X25024839Y14161674D01*
X24997644Y14122980D01*
X24937990Y13969975D01*
X24936999Y13962448D01*
X24917545Y13814688D01*
X24917545Y13814684D01*
X24916554Y13807157D01*
X24170516Y13807157D01*
X24163754Y13863034D01*
X24105705Y14016655D01*
X24022160Y14138213D01*
X24000000Y14209580D01*
X24000000Y15656714D01*
X24020002Y15724835D01*
X24073658Y15771328D01*
X24140371Y15781148D01*
X24141541Y15780841D01*
X24220449Y15779601D01*
X24298145Y15778380D01*
X24298148Y15778380D01*
X24305743Y15778261D01*
X24465822Y15814924D01*
X24612534Y15888712D01*
X24697176Y15961004D01*
X24731638Y15990437D01*
X24731639Y15990438D01*
X24737410Y15995367D01*
X24833241Y16128730D01*
X24836940Y16137930D01*
X24891660Y16274052D01*
X24891660Y16274053D01*
X24894494Y16281102D01*
X24913968Y16417932D01*
X24917052Y16439602D01*
X24917052Y16439606D01*
X24917633Y16443686D01*
X24917783Y16458000D01*
X24916350Y16469848D01*
X24901870Y16589501D01*
X24898054Y16621034D01*
X24840005Y16774655D01*
X24779235Y16863076D01*
X24751290Y16903736D01*
X24751289Y16903737D01*
X24746988Y16909995D01*
X24732570Y16922841D01*
X24630044Y17014190D01*
X24630040Y17014193D01*
X24624373Y17019242D01*
X24495706Y17087367D01*
X24485947Y17092534D01*
X24485946Y17092534D01*
X24479238Y17096086D01*
X24319963Y17136094D01*
X24312365Y17136134D01*
X24312363Y17136134D01*
X24284253Y17136281D01*
X24216238Y17156639D01*
X24195818Y17173184D01*
X24036905Y17332097D01*
X24002879Y17394409D01*
X24000000Y17421192D01*
X24000000Y17610938D01*
X26416650Y17610938D01*
X26433694Y17437117D01*
X26435918Y17430432D01*
X26435918Y17430431D01*
X26442001Y17412145D01*
X26488824Y17271390D01*
X26492471Y17265368D01*
X26492472Y17265366D01*
X26570738Y17136134D01*
X26579300Y17121996D01*
X26611577Y17088572D01*
X26644509Y17025678D01*
X26638210Y16954961D01*
X26609098Y16911022D01*
X26599283Y16901410D01*
X26592888Y16895148D01*
X26589071Y16889225D01*
X26515236Y16774655D01*
X26498276Y16748339D01*
X26495867Y16741719D01*
X26495865Y16741716D01*
X26449196Y16613494D01*
X26438540Y16584216D01*
X26416650Y16410938D01*
X26433694Y16237117D01*
X26488824Y16071390D01*
X26492471Y16065368D01*
X26492472Y16065366D01*
X26568014Y15940632D01*
X26579300Y15921996D01*
X26611577Y15888572D01*
X26644509Y15825678D01*
X26638210Y15754961D01*
X26609098Y15711022D01*
X26592888Y15695148D01*
X26498276Y15548339D01*
X26495867Y15541719D01*
X26495865Y15541716D01*
X26452789Y15423364D01*
X26438540Y15384216D01*
X26416650Y15210938D01*
X26433694Y15037117D01*
X26488824Y14871390D01*
X26492471Y14865368D01*
X26492472Y14865366D01*
X26569602Y14738010D01*
X26579300Y14721996D01*
X26700625Y14596360D01*
X26846771Y14500725D01*
X26853375Y14498269D01*
X26853377Y14498268D01*
X26923015Y14472370D01*
X27010472Y14439845D01*
X27017457Y14438913D01*
X27176612Y14417677D01*
X27176616Y14417677D01*
X27183593Y14416746D01*
X27190604Y14417384D01*
X27190608Y14417384D01*
X27350512Y14431936D01*
X27350515Y14431937D01*
X27357530Y14432575D01*
X27387734Y14442389D01*
X27516941Y14484371D01*
X27516943Y14484372D01*
X27523637Y14486547D01*
X27627947Y14548728D01*
X27667604Y14572368D01*
X27667607Y14572370D01*
X27673659Y14575978D01*
X27673742Y14575840D01*
X27736956Y14599899D01*
X27806430Y14585271D01*
X27837420Y14561811D01*
X27900625Y14496360D01*
X27929934Y14477181D01*
X28020866Y14417677D01*
X28046771Y14400725D01*
X28053375Y14398269D01*
X28053377Y14398268D01*
X28075198Y14390153D01*
X28210472Y14339845D01*
X28217457Y14338913D01*
X28376612Y14317677D01*
X28376616Y14317677D01*
X28383593Y14316746D01*
X28390604Y14317384D01*
X28390608Y14317384D01*
X28550512Y14331936D01*
X28550515Y14331937D01*
X28557530Y14332575D01*
X28637706Y14358626D01*
X28716941Y14384371D01*
X28716943Y14384372D01*
X28723637Y14386547D01*
X28775858Y14417677D01*
X28867607Y14472370D01*
X28867609Y14472371D01*
X28873659Y14475978D01*
X28876515Y14478697D01*
X28941722Y14503513D01*
X29011195Y14488883D01*
X29020534Y14483332D01*
X29029934Y14477181D01*
X29120866Y14417677D01*
X29146771Y14400725D01*
X29153375Y14398269D01*
X29153377Y14398268D01*
X29175198Y14390153D01*
X29310472Y14339845D01*
X29317457Y14338913D01*
X29476612Y14317677D01*
X29476616Y14317677D01*
X29483593Y14316746D01*
X29490604Y14317384D01*
X29490608Y14317384D01*
X29650512Y14331936D01*
X29650515Y14331937D01*
X29657530Y14332575D01*
X29737706Y14358626D01*
X29816941Y14384371D01*
X29816943Y14384372D01*
X29823637Y14386547D01*
X29875858Y14417677D01*
X29967607Y14472370D01*
X29967609Y14472371D01*
X29973659Y14475978D01*
X30100139Y14596423D01*
X30196792Y14741898D01*
X30258813Y14905170D01*
X30283121Y15078125D01*
X30283426Y15100000D01*
X30263957Y15273567D01*
X30261560Y15280452D01*
X30215760Y15411971D01*
X30206519Y15438507D01*
X30113966Y15586623D01*
X30090090Y15610667D01*
X30039791Y15661318D01*
X30005984Y15723749D01*
X30011296Y15794547D01*
X30042305Y15841347D01*
X30095032Y15891558D01*
X30095039Y15891566D01*
X30100139Y15896423D01*
X30187621Y16028094D01*
X30192891Y16036026D01*
X30192892Y16036028D01*
X30196792Y16041898D01*
X30258813Y16205170D01*
X30283121Y16378125D01*
X30283426Y16400000D01*
X30263957Y16573567D01*
X30206519Y16738507D01*
X30113966Y16886623D01*
X30090829Y16909923D01*
X30057022Y16972352D01*
X30062334Y17043150D01*
X30090719Y17085990D01*
X30090508Y17086167D01*
X30092071Y17088030D01*
X30093346Y17089955D01*
X30100139Y17096423D01*
X30185699Y17225202D01*
X30192891Y17236026D01*
X30192892Y17236028D01*
X30196792Y17241898D01*
X30258813Y17405170D01*
X30283121Y17578125D01*
X30283426Y17600000D01*
X30263957Y17773567D01*
X30261560Y17780452D01*
X30231772Y17865989D01*
X30206519Y17938507D01*
X30113966Y18086623D01*
X30108200Y18092430D01*
X30021296Y18179943D01*
X29990898Y18210554D01*
X29980193Y18217348D01*
X29919335Y18255969D01*
X29843431Y18304139D01*
X29815625Y18314040D01*
X29685531Y18360365D01*
X29685526Y18360366D01*
X29678896Y18362727D01*
X29671908Y18363560D01*
X29671905Y18363561D01*
X29528405Y18380672D01*
X29505469Y18383407D01*
X29498467Y18382671D01*
X29498465Y18382671D01*
X29338771Y18365886D01*
X29338769Y18365886D01*
X29331771Y18365150D01*
X29166433Y18308865D01*
X29017675Y18217348D01*
X29016433Y18219367D01*
X28960799Y18197302D01*
X28891129Y18210962D01*
X28881722Y18216377D01*
X28743431Y18304139D01*
X28715625Y18314040D01*
X28585531Y18360365D01*
X28585526Y18360366D01*
X28578896Y18362727D01*
X28571908Y18363560D01*
X28571905Y18363561D01*
X28428405Y18380672D01*
X28405469Y18383407D01*
X28398467Y18382671D01*
X28398465Y18382671D01*
X28238771Y18365886D01*
X28238769Y18365886D01*
X28231771Y18365150D01*
X28066433Y18308865D01*
X28028756Y18285686D01*
X27923677Y18221041D01*
X27923674Y18221039D01*
X27917675Y18217348D01*
X27912644Y18212421D01*
X27912641Y18212419D01*
X27888678Y18188953D01*
X27826012Y18155583D01*
X27755254Y18161391D01*
X27711115Y18190195D01*
X27695860Y18205557D01*
X27690898Y18210554D01*
X27680193Y18217348D01*
X27619335Y18255969D01*
X27543431Y18304139D01*
X27515625Y18314040D01*
X27385531Y18360365D01*
X27385526Y18360366D01*
X27378896Y18362727D01*
X27371908Y18363560D01*
X27371905Y18363561D01*
X27228405Y18380672D01*
X27205469Y18383407D01*
X27198467Y18382671D01*
X27198465Y18382671D01*
X27038771Y18365886D01*
X27038769Y18365886D01*
X27031771Y18365150D01*
X26866433Y18308865D01*
X26828756Y18285686D01*
X26723677Y18221041D01*
X26723674Y18221039D01*
X26717675Y18217348D01*
X26592888Y18095148D01*
X26589069Y18089223D01*
X26589068Y18089221D01*
X26536469Y18007603D01*
X26498276Y17948339D01*
X26495867Y17941719D01*
X26495865Y17941716D01*
X26483253Y17907064D01*
X26438540Y17784216D01*
X26416650Y17610938D01*
X24000000Y17610938D01*
X24000000Y17792463D01*
X24023677Y17865989D01*
X24070240Y17930788D01*
X24098941Y17970730D01*
X24123361Y18031475D01*
X24157360Y18116052D01*
X24157360Y18116053D01*
X24160194Y18123102D01*
X24183333Y18285686D01*
X24183483Y18300000D01*
X24182858Y18305171D01*
X24164666Y18455494D01*
X24163754Y18463034D01*
X24105705Y18616655D01*
X24022160Y18738213D01*
X24000000Y18809580D01*
X24000000Y21310938D01*
X28416650Y21310938D01*
X28433694Y21137117D01*
X28435918Y21130432D01*
X28435918Y21130431D01*
X28444321Y21105170D01*
X28488824Y20971390D01*
X28492471Y20965368D01*
X28492472Y20965366D01*
X28553480Y20864630D01*
X28571659Y20796001D01*
X28551616Y20731107D01*
X28498276Y20648339D01*
X28495867Y20641719D01*
X28495865Y20641716D01*
X28462419Y20549824D01*
X28438540Y20484216D01*
X28416650Y20310938D01*
X28433694Y20137117D01*
X28488824Y19971390D01*
X28492471Y19965368D01*
X28492472Y19965366D01*
X28569393Y19838355D01*
X28579300Y19821996D01*
X28700625Y19696360D01*
X28738783Y19671390D01*
X28809012Y19625434D01*
X28846771Y19600725D01*
X28853375Y19598269D01*
X28853377Y19598268D01*
X28884894Y19586547D01*
X29010472Y19539845D01*
X29017457Y19538913D01*
X29176612Y19517677D01*
X29176616Y19517677D01*
X29183593Y19516746D01*
X29190604Y19517384D01*
X29190608Y19517384D01*
X29350512Y19531936D01*
X29350515Y19531937D01*
X29357530Y19532575D01*
X29428707Y19555702D01*
X29516941Y19584371D01*
X29516943Y19584372D01*
X29523637Y19586547D01*
X29636443Y19653793D01*
X29705195Y19671492D01*
X29769949Y19650996D01*
X29846771Y19600725D01*
X29853375Y19598269D01*
X29853377Y19598268D01*
X29884894Y19586547D01*
X30010472Y19539845D01*
X30017457Y19538913D01*
X30176612Y19517677D01*
X30176616Y19517677D01*
X30183593Y19516746D01*
X30190604Y19517384D01*
X30190608Y19517384D01*
X30350512Y19531936D01*
X30350515Y19531937D01*
X30357530Y19532575D01*
X30428707Y19555702D01*
X30516941Y19584371D01*
X30516943Y19584372D01*
X30523637Y19586547D01*
X30673659Y19675978D01*
X30800139Y19796423D01*
X30896792Y19941898D01*
X30913262Y19985256D01*
X36680643Y19985256D01*
X36706988Y19767548D01*
X36771470Y19557946D01*
X36774040Y19552966D01*
X36774042Y19552962D01*
X36851273Y19403330D01*
X36872050Y19363076D01*
X37005549Y19189097D01*
X37009694Y19185326D01*
X37009697Y19185322D01*
X37140173Y19066598D01*
X37167748Y19041507D01*
X37353518Y18924974D01*
X37358728Y18922880D01*
X37358733Y18922877D01*
X37436341Y18891679D01*
X37492086Y18847713D01*
X37515211Y18780588D01*
X37498374Y18711616D01*
X37443590Y18661046D01*
X37285615Y18585696D01*
X37107528Y18457728D01*
X36954917Y18300245D01*
X36832606Y18118227D01*
X36744460Y17917425D01*
X36693266Y17704188D01*
X36692943Y17698583D01*
X36683551Y17535686D01*
X36680643Y17485256D01*
X36706988Y17267548D01*
X36771470Y17057946D01*
X36774040Y17052966D01*
X36774042Y17052962D01*
X36845225Y16915048D01*
X36872050Y16863076D01*
X37005549Y16689097D01*
X37009694Y16685326D01*
X37009697Y16685322D01*
X37140206Y16566568D01*
X37167748Y16541507D01*
X37353518Y16424974D01*
X37358728Y16422880D01*
X37358733Y16422877D01*
X37436341Y16391679D01*
X37492086Y16347713D01*
X37515211Y16280588D01*
X37498374Y16211616D01*
X37443590Y16161046D01*
X37285615Y16085696D01*
X37107528Y15957728D01*
X36954917Y15800245D01*
X36832606Y15618227D01*
X36830347Y15613081D01*
X36830346Y15613079D01*
X36818733Y15586623D01*
X36744460Y15417425D01*
X36711520Y15280221D01*
X36694887Y15210938D01*
X36693266Y15204188D01*
X36688482Y15121207D01*
X36683248Y15030431D01*
X36680643Y14985256D01*
X36706988Y14767548D01*
X36771470Y14557946D01*
X36774040Y14552966D01*
X36774042Y14552962D01*
X36869082Y14368827D01*
X36872050Y14363076D01*
X37005549Y14189097D01*
X37009694Y14185326D01*
X37009697Y14185322D01*
X37109725Y14094304D01*
X37167748Y14041507D01*
X37172504Y14038524D01*
X37172506Y14038522D01*
X37264553Y13980781D01*
X37311631Y13927638D01*
X37322503Y13857478D01*
X37293719Y13792579D01*
X37234416Y13753544D01*
X37220603Y13750184D01*
X37214400Y13749696D01*
X37133148Y13726090D01*
X37069522Y13707605D01*
X37069521Y13707604D01*
X37061909Y13705393D01*
X37055087Y13701358D01*
X37055086Y13701358D01*
X36935480Y13630623D01*
X36925226Y13624559D01*
X36812941Y13512274D01*
X36808907Y13505453D01*
X36789858Y13473242D01*
X36732107Y13375591D01*
X36729896Y13367979D01*
X36729895Y13367978D01*
X36716988Y13323553D01*
X36687804Y13223100D01*
X36687299Y13216681D01*
X36685193Y13189929D01*
X36685192Y13189916D01*
X36685000Y13187470D01*
X36685000Y11860530D01*
X36685192Y11858084D01*
X36685193Y11858071D01*
X36686800Y11837656D01*
X36687804Y11824900D01*
X36689601Y11818715D01*
X36720945Y11710830D01*
X36732107Y11672409D01*
X36736142Y11665587D01*
X36736142Y11665586D01*
X36756093Y11631850D01*
X36812941Y11535726D01*
X36925226Y11423441D01*
X36932047Y11419407D01*
X37015149Y11370261D01*
X37061909Y11342607D01*
X37069521Y11340396D01*
X37069522Y11340395D01*
X37151236Y11316655D01*
X37214400Y11298304D01*
X37227156Y11297300D01*
X37247571Y11295693D01*
X37247584Y11295692D01*
X37250030Y11295500D01*
X38826970Y11295500D01*
X38829416Y11295692D01*
X38829429Y11295693D01*
X38849844Y11297300D01*
X38862600Y11298304D01*
X38925764Y11316655D01*
X39007478Y11340395D01*
X39007479Y11340396D01*
X39015091Y11342607D01*
X39061852Y11370261D01*
X39144953Y11419407D01*
X39151774Y11423441D01*
X39264059Y11535726D01*
X39320907Y11631850D01*
X39340858Y11665586D01*
X39340858Y11665587D01*
X39344893Y11672409D01*
X39356056Y11710830D01*
X39387399Y11818715D01*
X39389196Y11824900D01*
X39390200Y11837656D01*
X39391807Y11858071D01*
X39391808Y11858084D01*
X39392000Y11860530D01*
X39392000Y13187470D01*
X39391808Y13189916D01*
X39391807Y13189929D01*
X39389701Y13216681D01*
X39389196Y13223100D01*
X39360012Y13323553D01*
X39347105Y13367978D01*
X39347104Y13367979D01*
X39344893Y13375591D01*
X39287143Y13473242D01*
X39268093Y13505453D01*
X39264059Y13512274D01*
X39151774Y13624559D01*
X39141520Y13630623D01*
X39021914Y13701358D01*
X39021913Y13701358D01*
X39015091Y13705393D01*
X39007479Y13707604D01*
X39007478Y13707605D01*
X38918300Y13733513D01*
X38862600Y13749696D01*
X38859681Y13749926D01*
X38797395Y13781272D01*
X38761300Y13842409D01*
X38763987Y13913355D01*
X38809927Y13975628D01*
X38817099Y13980781D01*
X38875825Y14022980D01*
X38964914Y14086996D01*
X38964919Y14087001D01*
X38969472Y14090272D01*
X39122083Y14247755D01*
X39244394Y14429773D01*
X39265606Y14478094D01*
X39308513Y14575840D01*
X39332540Y14630575D01*
X39383734Y14843812D01*
X39392213Y14990863D01*
X39396034Y15057137D01*
X39396034Y15057140D01*
X39396357Y15062744D01*
X39370012Y15280452D01*
X39305530Y15490054D01*
X39278866Y15541716D01*
X39207521Y15679943D01*
X39207520Y15679944D01*
X39204950Y15684924D01*
X39071451Y15858903D01*
X39067306Y15862674D01*
X39067303Y15862678D01*
X38913405Y16002714D01*
X38909252Y16006493D01*
X38723482Y16123026D01*
X38718272Y16125120D01*
X38718267Y16125123D01*
X38640659Y16156321D01*
X38584914Y16200287D01*
X38561789Y16267412D01*
X38578626Y16336384D01*
X38633410Y16386954D01*
X38652453Y16396037D01*
X38791385Y16462304D01*
X38954264Y16579344D01*
X38964913Y16586996D01*
X38969472Y16590272D01*
X39122083Y16747755D01*
X39244394Y16929773D01*
X39256313Y16956924D01*
X39303705Y17064888D01*
X39332540Y17130575D01*
X39378870Y17323552D01*
X39382424Y17338355D01*
X39382424Y17338356D01*
X39383734Y17343812D01*
X39396357Y17562744D01*
X39370012Y17780452D01*
X39305530Y17990054D01*
X39296473Y18007603D01*
X39207521Y18179943D01*
X39207520Y18179944D01*
X39204950Y18184924D01*
X39071451Y18358903D01*
X39067306Y18362674D01*
X39067303Y18362678D01*
X38913405Y18502714D01*
X38909252Y18506493D01*
X38723482Y18623026D01*
X38718272Y18625120D01*
X38718267Y18625123D01*
X38640659Y18656321D01*
X38584914Y18700287D01*
X38561789Y18767412D01*
X38578626Y18836384D01*
X38633410Y18886954D01*
X38643316Y18891679D01*
X38791385Y18962304D01*
X38969472Y19090272D01*
X39122083Y19247755D01*
X39244394Y19429773D01*
X39253257Y19449962D01*
X39330283Y19625434D01*
X39332540Y19630575D01*
X39378496Y19821996D01*
X39382424Y19838355D01*
X39382424Y19838356D01*
X39383734Y19843812D01*
X39389769Y19948488D01*
X39396034Y20057137D01*
X39396034Y20057140D01*
X39396357Y20062744D01*
X39370012Y20280452D01*
X39305530Y20490054D01*
X39274681Y20549824D01*
X39239375Y20618227D01*
X39204950Y20684924D01*
X39071451Y20858903D01*
X39067306Y20862674D01*
X39067303Y20862678D01*
X38913405Y21002714D01*
X38909252Y21006493D01*
X38723482Y21123026D01*
X38520011Y21204821D01*
X38514519Y21205958D01*
X38514517Y21205959D01*
X38367089Y21236490D01*
X38305271Y21249292D01*
X38300660Y21249558D01*
X38300659Y21249558D01*
X38251454Y21252395D01*
X38251450Y21252395D01*
X38249631Y21252500D01*
X37857857Y21252500D01*
X37855070Y21252251D01*
X37855064Y21252251D01*
X37786721Y21246151D01*
X37695072Y21237972D01*
X37689658Y21236491D01*
X37689653Y21236490D01*
X37566243Y21202728D01*
X37483548Y21180105D01*
X37478490Y21177693D01*
X37478486Y21177691D01*
X37408116Y21144126D01*
X37285615Y21085696D01*
X37107528Y20957728D01*
X36954917Y20800245D01*
X36832606Y20618227D01*
X36744460Y20417425D01*
X36693266Y20204188D01*
X36680643Y19985256D01*
X30913262Y19985256D01*
X30958813Y20105170D01*
X30973496Y20209645D01*
X30982570Y20274203D01*
X30982570Y20274206D01*
X30983121Y20278125D01*
X30983426Y20300000D01*
X30963957Y20473567D01*
X30959411Y20486623D01*
X30908837Y20631850D01*
X30906519Y20638507D01*
X30847139Y20733535D01*
X30828003Y20801904D01*
X30849043Y20870030D01*
X30896792Y20941898D01*
X30958813Y21105170D01*
X30979520Y21252500D01*
X30982570Y21274203D01*
X30982570Y21274206D01*
X30983121Y21278125D01*
X30983426Y21300000D01*
X30963957Y21473567D01*
X30906519Y21638507D01*
X30813966Y21786623D01*
X30805501Y21795148D01*
X30717856Y21883407D01*
X30690898Y21910554D01*
X30680193Y21917348D01*
X30608292Y21962977D01*
X30543431Y22004139D01*
X30515625Y22014040D01*
X30385531Y22060365D01*
X30385526Y22060366D01*
X30378896Y22062727D01*
X30371908Y22063560D01*
X30371905Y22063561D01*
X30250612Y22078024D01*
X30205469Y22083407D01*
X30198467Y22082671D01*
X30198465Y22082671D01*
X30038771Y22065886D01*
X30038769Y22065886D01*
X30031771Y22065150D01*
X29866433Y22008865D01*
X29765700Y21946893D01*
X29697202Y21928235D01*
X29632166Y21947826D01*
X29608292Y21962977D01*
X29543431Y22004139D01*
X29515625Y22014040D01*
X29385531Y22060365D01*
X29385526Y22060366D01*
X29378896Y22062727D01*
X29371908Y22063560D01*
X29371905Y22063561D01*
X29250612Y22078024D01*
X29205469Y22083407D01*
X29198467Y22082671D01*
X29198465Y22082671D01*
X29038771Y22065886D01*
X29038769Y22065886D01*
X29031771Y22065150D01*
X28866433Y22008865D01*
X28824688Y21983183D01*
X28723677Y21921041D01*
X28723674Y21921039D01*
X28717675Y21917348D01*
X28592888Y21795148D01*
X28589069Y21789223D01*
X28589068Y21789221D01*
X28549641Y21728042D01*
X28498276Y21648339D01*
X28495867Y21641719D01*
X28495865Y21641716D01*
X28440949Y21490835D01*
X28438540Y21484216D01*
X28416650Y21310938D01*
X24000000Y21310938D01*
X24000000Y22808612D01*
X24020002Y22876733D01*
X24073658Y22923226D01*
X24143932Y22933330D01*
X24208512Y22903836D01*
X24244326Y22851913D01*
X24260600Y22807441D01*
X24260602Y22807437D01*
X24263212Y22800305D01*
X24267449Y22793999D01*
X24267451Y22793996D01*
X24280106Y22775164D01*
X24354807Y22663998D01*
X24360425Y22658886D01*
X24470650Y22558588D01*
X24470654Y22558585D01*
X24476271Y22553474D01*
X24482944Y22549851D01*
X24482948Y22549848D01*
X24613920Y22478737D01*
X24620593Y22475114D01*
X24779441Y22433441D01*
X24864483Y22432105D01*
X24936045Y22430980D01*
X24936048Y22430980D01*
X24943643Y22430861D01*
X25103722Y22467524D01*
X25250434Y22541312D01*
X25375310Y22647967D01*
X25471141Y22781330D01*
X25482109Y22808612D01*
X25529560Y22926652D01*
X25529560Y22926653D01*
X25532394Y22933702D01*
X25555533Y23096286D01*
X25555683Y23110600D01*
X25554940Y23116746D01*
X25547625Y23177193D01*
X25535954Y23273634D01*
X25477905Y23427255D01*
X25424355Y23505170D01*
X25389190Y23556336D01*
X25389189Y23556337D01*
X25384888Y23562595D01*
X25367516Y23578073D01*
X25267944Y23666790D01*
X25267940Y23666793D01*
X25262273Y23671842D01*
X25128115Y23742874D01*
X25123847Y23745134D01*
X25123846Y23745134D01*
X25117138Y23748686D01*
X24957863Y23788694D01*
X24950265Y23788734D01*
X24950263Y23788734D01*
X24930360Y23788838D01*
X24922117Y23788881D01*
X24854102Y23809239D01*
X24840232Y23819682D01*
X24837124Y23822377D01*
X24833953Y23825548D01*
X24830372Y23828232D01*
X24830365Y23828238D01*
X24826319Y23831270D01*
X24818480Y23837652D01*
X24792035Y23861007D01*
X24785309Y23866947D01*
X24777183Y23870762D01*
X24772122Y23874086D01*
X24764569Y23878625D01*
X24759238Y23881544D01*
X24752050Y23886931D01*
X24710590Y23902473D01*
X24701313Y23906383D01*
X24691611Y23910938D01*
X33516650Y23910938D01*
X33533694Y23737117D01*
X33535918Y23730432D01*
X33535918Y23730431D01*
X33544321Y23705170D01*
X33588824Y23571390D01*
X33592471Y23565368D01*
X33592472Y23565366D01*
X33632917Y23498584D01*
X33679300Y23421996D01*
X33800625Y23296360D01*
X33847778Y23265504D01*
X33940266Y23204982D01*
X33946771Y23200725D01*
X33953375Y23198269D01*
X33953377Y23198268D01*
X34028622Y23170285D01*
X34110472Y23139845D01*
X34117457Y23138913D01*
X34276612Y23117677D01*
X34276616Y23117677D01*
X34283593Y23116746D01*
X34290604Y23117384D01*
X34290608Y23117384D01*
X34450512Y23131936D01*
X34450515Y23131937D01*
X34457530Y23132575D01*
X34509881Y23149585D01*
X34616941Y23184371D01*
X34616943Y23184372D01*
X34623637Y23186547D01*
X34756089Y23265504D01*
X34767607Y23272370D01*
X34767609Y23272371D01*
X34773659Y23275978D01*
X34776515Y23278697D01*
X34841722Y23303513D01*
X34911195Y23288883D01*
X34920534Y23283332D01*
X34947778Y23265504D01*
X35040266Y23204982D01*
X35046771Y23200725D01*
X35053375Y23198269D01*
X35053377Y23198268D01*
X35128622Y23170285D01*
X35210472Y23139845D01*
X35296433Y23128375D01*
X35361309Y23099541D01*
X35400297Y23040208D01*
X35401019Y22969215D01*
X35363244Y22909102D01*
X35345791Y22896166D01*
X35217675Y22817348D01*
X35092888Y22695148D01*
X35089069Y22689223D01*
X35089068Y22689221D01*
X35066454Y22654131D01*
X34998276Y22548339D01*
X34995867Y22541719D01*
X34995865Y22541716D01*
X34961257Y22446630D01*
X34938540Y22384216D01*
X34916650Y22210938D01*
X34933694Y22037117D01*
X34935918Y22030432D01*
X34935918Y22030431D01*
X34944320Y22005173D01*
X34988824Y21871390D01*
X34992471Y21865368D01*
X34992472Y21865366D01*
X35072805Y21732721D01*
X35079300Y21721996D01*
X35200625Y21596360D01*
X35346771Y21500725D01*
X35353375Y21498269D01*
X35353377Y21498268D01*
X35373364Y21490835D01*
X35510472Y21439845D01*
X35517457Y21438913D01*
X35676612Y21417677D01*
X35676616Y21417677D01*
X35683593Y21416746D01*
X35690604Y21417384D01*
X35690608Y21417384D01*
X35850512Y21431936D01*
X35850515Y21431937D01*
X35857530Y21432575D01*
X35962149Y21466568D01*
X36016941Y21484371D01*
X36016943Y21484372D01*
X36023637Y21486547D01*
X36058231Y21507169D01*
X36167607Y21572370D01*
X36167609Y21572371D01*
X36173659Y21575978D01*
X36300139Y21696423D01*
X36363389Y21791622D01*
X36392891Y21836026D01*
X36392892Y21836028D01*
X36396792Y21841898D01*
X36458813Y22005170D01*
X36483121Y22178125D01*
X36483426Y22200000D01*
X36463957Y22373567D01*
X36406519Y22538507D01*
X36313966Y22686623D01*
X36305501Y22695148D01*
X36239525Y22761586D01*
X36190898Y22810554D01*
X36180193Y22817348D01*
X36125484Y22852067D01*
X36043431Y22904139D01*
X36005412Y22917677D01*
X35885531Y22960365D01*
X35885526Y22960366D01*
X35878896Y22962727D01*
X35871908Y22963560D01*
X35871905Y22963561D01*
X35804160Y22971639D01*
X35738887Y22999567D01*
X35699074Y23058350D01*
X35697362Y23129326D01*
X35734295Y23189960D01*
X35754562Y23204982D01*
X35867607Y23272370D01*
X35867609Y23272371D01*
X35873659Y23275978D01*
X36000139Y23396423D01*
X36077024Y23512145D01*
X36092891Y23536026D01*
X36092892Y23536028D01*
X36096792Y23541898D01*
X36158813Y23705170D01*
X36159624Y23710938D01*
X36916650Y23710938D01*
X36933694Y23537117D01*
X36988824Y23371390D01*
X36992471Y23365368D01*
X36992472Y23365366D01*
X37052951Y23265504D01*
X37079300Y23221996D01*
X37200625Y23096360D01*
X37346771Y23000725D01*
X37353375Y22998269D01*
X37353377Y22998268D01*
X37424981Y22971639D01*
X37510472Y22939845D01*
X37517457Y22938913D01*
X37676612Y22917677D01*
X37676616Y22917677D01*
X37683593Y22916746D01*
X37690604Y22917384D01*
X37690608Y22917384D01*
X37850512Y22931936D01*
X37850515Y22931937D01*
X37857530Y22932575D01*
X37943058Y22960365D01*
X38016941Y22984371D01*
X38016943Y22984372D01*
X38023637Y22986547D01*
X38173659Y23075978D01*
X38263631Y23161657D01*
X38326756Y23194149D01*
X38397427Y23187356D01*
X38441160Y23157938D01*
X38500625Y23096360D01*
X38646771Y23000725D01*
X38653375Y22998269D01*
X38653377Y22998268D01*
X38724981Y22971639D01*
X38810472Y22939845D01*
X38817457Y22938913D01*
X38976612Y22917677D01*
X38976616Y22917677D01*
X38983593Y22916746D01*
X38990604Y22917384D01*
X38990608Y22917384D01*
X39150512Y22931936D01*
X39150515Y22931937D01*
X39157530Y22932575D01*
X39243058Y22960365D01*
X39316941Y22984371D01*
X39316943Y22984372D01*
X39323637Y22986547D01*
X39473659Y23075978D01*
X39600139Y23196423D01*
X39663351Y23291565D01*
X39692891Y23336026D01*
X39692892Y23336028D01*
X39696792Y23341898D01*
X39758813Y23505170D01*
X39773775Y23611627D01*
X39782570Y23674203D01*
X39782570Y23674206D01*
X39783121Y23678125D01*
X39783426Y23700000D01*
X39763957Y23873567D01*
X39760991Y23882086D01*
X39730121Y23970730D01*
X39706519Y24038507D01*
X39613966Y24186623D01*
X39605501Y24195148D01*
X39546795Y24254265D01*
X39490898Y24310554D01*
X39480193Y24317348D01*
X39433590Y24346923D01*
X39343431Y24404139D01*
X39315625Y24414040D01*
X39185531Y24460365D01*
X39185526Y24460366D01*
X39178896Y24462727D01*
X39171908Y24463560D01*
X39171905Y24463561D01*
X39054334Y24477580D01*
X39005469Y24483407D01*
X38998467Y24482671D01*
X38998465Y24482671D01*
X38838771Y24465886D01*
X38838769Y24465886D01*
X38831771Y24465150D01*
X38666433Y24408865D01*
X38621508Y24381227D01*
X38523677Y24321041D01*
X38523674Y24321039D01*
X38517675Y24317348D01*
X38437979Y24239305D01*
X38375316Y24205936D01*
X38304558Y24211742D01*
X38260418Y24240546D01*
X38190898Y24310554D01*
X38180193Y24317348D01*
X38133590Y24346923D01*
X38043431Y24404139D01*
X38015625Y24414040D01*
X37885531Y24460365D01*
X37885526Y24460366D01*
X37878896Y24462727D01*
X37871908Y24463560D01*
X37871905Y24463561D01*
X37754334Y24477580D01*
X37705469Y24483407D01*
X37698467Y24482671D01*
X37698465Y24482671D01*
X37538771Y24465886D01*
X37538769Y24465886D01*
X37531771Y24465150D01*
X37366433Y24408865D01*
X37321508Y24381227D01*
X37223677Y24321041D01*
X37223674Y24321039D01*
X37217675Y24317348D01*
X37092888Y24195148D01*
X37089069Y24189223D01*
X37089068Y24189221D01*
X37016892Y24077226D01*
X36998276Y24048339D01*
X36995867Y24041719D01*
X36995865Y24041716D01*
X36940949Y23890835D01*
X36938540Y23884216D01*
X36916650Y23710938D01*
X36159624Y23710938D01*
X36181550Y23866947D01*
X36182570Y23874203D01*
X36182570Y23874206D01*
X36183121Y23878125D01*
X36183426Y23900000D01*
X36163957Y24073567D01*
X36106519Y24238507D01*
X36013966Y24386623D01*
X36005501Y24395148D01*
X35949981Y24451057D01*
X35890898Y24510554D01*
X35880193Y24517348D01*
X35823728Y24553181D01*
X35743431Y24604139D01*
X35690519Y24622980D01*
X35585531Y24660365D01*
X35585526Y24660366D01*
X35578896Y24662727D01*
X35571908Y24663560D01*
X35571905Y24663561D01*
X35454334Y24677580D01*
X35405469Y24683407D01*
X35398467Y24682671D01*
X35398465Y24682671D01*
X35238771Y24665886D01*
X35238769Y24665886D01*
X35231771Y24665150D01*
X35066433Y24608865D01*
X34917675Y24517348D01*
X34916433Y24519367D01*
X34860799Y24497302D01*
X34791129Y24510962D01*
X34781722Y24516377D01*
X34643431Y24604139D01*
X34590519Y24622980D01*
X34485531Y24660365D01*
X34485526Y24660366D01*
X34478896Y24662727D01*
X34471908Y24663560D01*
X34471905Y24663561D01*
X34354334Y24677580D01*
X34305469Y24683407D01*
X34298467Y24682671D01*
X34298465Y24682671D01*
X34138771Y24665886D01*
X34138769Y24665886D01*
X34131771Y24665150D01*
X33966433Y24608865D01*
X33911225Y24574901D01*
X33823677Y24521041D01*
X33823674Y24521039D01*
X33817675Y24517348D01*
X33692888Y24395148D01*
X33689069Y24389223D01*
X33689068Y24389221D01*
X33614251Y24273127D01*
X33598276Y24248339D01*
X33595867Y24241719D01*
X33595865Y24241716D01*
X33560085Y24143410D01*
X33538540Y24084216D01*
X33516650Y23910938D01*
X24691611Y23910938D01*
X24661239Y23925198D01*
X24652371Y23926579D01*
X24646577Y23928350D01*
X24638041Y23930589D01*
X24632116Y23931892D01*
X24623708Y23935044D01*
X24579573Y23938324D01*
X24569541Y23939475D01*
X24557180Y23941400D01*
X24542853Y23941400D01*
X24533516Y23941746D01*
X24519183Y23942811D01*
X24487020Y23945201D01*
X24478244Y23943328D01*
X24469287Y23942717D01*
X24469281Y23942811D01*
X24455914Y23941400D01*
X24126000Y23941400D01*
X24057879Y23961402D01*
X24011386Y24015058D01*
X24000000Y24067400D01*
X24000000Y26610938D01*
X33916650Y26610938D01*
X33933694Y26437117D01*
X33988824Y26271390D01*
X33992471Y26265368D01*
X33992472Y26265366D01*
X34058123Y26156964D01*
X34079300Y26121996D01*
X34200625Y25996360D01*
X34215621Y25986547D01*
X34320866Y25917677D01*
X34346771Y25900725D01*
X34353375Y25898269D01*
X34353377Y25898268D01*
X34375198Y25890153D01*
X34510472Y25839845D01*
X34517457Y25838913D01*
X34676612Y25817677D01*
X34676616Y25817677D01*
X34683593Y25816746D01*
X34690604Y25817384D01*
X34690608Y25817384D01*
X34850512Y25831936D01*
X34850515Y25831937D01*
X34857530Y25832575D01*
X34887466Y25842302D01*
X35016941Y25884371D01*
X35016943Y25884372D01*
X35023637Y25886547D01*
X35111482Y25938913D01*
X35167607Y25972370D01*
X35167609Y25972371D01*
X35173659Y25975978D01*
X35300139Y26096423D01*
X35396792Y26241898D01*
X35458813Y26405170D01*
X35473848Y26512145D01*
X35482570Y26574203D01*
X35482570Y26574206D01*
X35483121Y26578125D01*
X35483426Y26600000D01*
X35470982Y26710938D01*
X37416650Y26710938D01*
X37433694Y26537117D01*
X37488824Y26371390D01*
X37492471Y26365368D01*
X37492472Y26365366D01*
X37545339Y26278073D01*
X37579300Y26221996D01*
X37700625Y26096360D01*
X37846771Y26000725D01*
X37853375Y25998269D01*
X37853377Y25998268D01*
X37923015Y25972370D01*
X38010472Y25939845D01*
X38017457Y25938913D01*
X38176612Y25917677D01*
X38176616Y25917677D01*
X38183593Y25916746D01*
X38190604Y25917384D01*
X38190608Y25917384D01*
X38350512Y25931936D01*
X38350515Y25931937D01*
X38357530Y25932575D01*
X38387466Y25942302D01*
X38516941Y25984371D01*
X38516943Y25984372D01*
X38523637Y25986547D01*
X38673659Y26075978D01*
X38800139Y26196423D01*
X38863351Y26291565D01*
X38892891Y26336026D01*
X38892892Y26336028D01*
X38896792Y26341898D01*
X38958813Y26505170D01*
X38981856Y26669122D01*
X38982570Y26674203D01*
X38982570Y26674206D01*
X38983121Y26678125D01*
X38983426Y26700000D01*
X38963957Y26873567D01*
X38906519Y27038507D01*
X38813966Y27186623D01*
X38805501Y27195148D01*
X38697268Y27304139D01*
X38690898Y27310554D01*
X38680193Y27317348D01*
X38603708Y27365886D01*
X38543431Y27404139D01*
X38515625Y27414040D01*
X38385531Y27460365D01*
X38385526Y27460366D01*
X38378896Y27462727D01*
X38371908Y27463560D01*
X38371905Y27463561D01*
X38254334Y27477580D01*
X38205469Y27483407D01*
X38198467Y27482671D01*
X38198465Y27482671D01*
X38038771Y27465886D01*
X38038769Y27465886D01*
X38031771Y27465150D01*
X37866433Y27408865D01*
X37823696Y27382573D01*
X37723677Y27321041D01*
X37723674Y27321039D01*
X37717675Y27317348D01*
X37592888Y27195148D01*
X37498276Y27048339D01*
X37495867Y27041719D01*
X37495865Y27041716D01*
X37440949Y26890835D01*
X37438540Y26884216D01*
X37416650Y26710938D01*
X35470982Y26710938D01*
X35463957Y26773567D01*
X35406519Y26938507D01*
X35313966Y27086623D01*
X35305501Y27095148D01*
X35195860Y27205557D01*
X35190898Y27210554D01*
X35180193Y27217348D01*
X35088524Y27275522D01*
X35043431Y27304139D01*
X35003856Y27318231D01*
X34885531Y27360365D01*
X34885526Y27360366D01*
X34878896Y27362727D01*
X34871908Y27363560D01*
X34871905Y27363561D01*
X34754334Y27377580D01*
X34705469Y27383407D01*
X34698467Y27382671D01*
X34698465Y27382671D01*
X34538771Y27365886D01*
X34538769Y27365886D01*
X34531771Y27365150D01*
X34366433Y27308865D01*
X34312235Y27275522D01*
X34223677Y27221041D01*
X34223674Y27221039D01*
X34217675Y27217348D01*
X34092888Y27095148D01*
X34089069Y27089223D01*
X34089068Y27089221D01*
X34002095Y26954265D01*
X33998276Y26948339D01*
X33995867Y26941719D01*
X33995865Y26941716D01*
X33940949Y26790835D01*
X33938540Y26784216D01*
X33916650Y26610938D01*
X24000000Y26610938D01*
X24000000Y35807157D01*
X25016554Y35807157D01*
X25034575Y35643926D01*
X25037184Y35636795D01*
X25037185Y35636793D01*
X25044775Y35616052D01*
X25091012Y35489705D01*
X25095249Y35483399D01*
X25095251Y35483396D01*
X25107906Y35464564D01*
X25182607Y35353398D01*
X25188225Y35348286D01*
X25298450Y35247988D01*
X25298454Y35247985D01*
X25304071Y35242874D01*
X25310744Y35239251D01*
X25310748Y35239248D01*
X25441720Y35168137D01*
X25448393Y35164514D01*
X25607241Y35122841D01*
X25692283Y35121505D01*
X25763845Y35120380D01*
X25763848Y35120380D01*
X25771443Y35120261D01*
X25931522Y35156924D01*
X26078234Y35230712D01*
X26203110Y35337367D01*
X26298941Y35470730D01*
X26309469Y35496918D01*
X26357360Y35616052D01*
X26357360Y35616053D01*
X26360194Y35623102D01*
X26383333Y35785686D01*
X26383483Y35800000D01*
X26363754Y35963034D01*
X26305705Y36116655D01*
X26263581Y36177946D01*
X26216990Y36245736D01*
X26216989Y36245737D01*
X26212688Y36251995D01*
X26127336Y36328042D01*
X26095744Y36356190D01*
X26095740Y36356193D01*
X26090073Y36361242D01*
X25944938Y36438086D01*
X25785663Y36478094D01*
X25778065Y36478134D01*
X25778063Y36478134D01*
X25707307Y36478504D01*
X25621442Y36478953D01*
X25614063Y36477181D01*
X25614059Y36477181D01*
X25517197Y36453926D01*
X25461757Y36440616D01*
X25315826Y36365296D01*
X25310106Y36360306D01*
X25310103Y36360304D01*
X25197798Y36262334D01*
X25197795Y36262331D01*
X25192073Y36257339D01*
X25097644Y36122980D01*
X25037990Y35969975D01*
X25036999Y35962448D01*
X25017545Y35814688D01*
X25017545Y35814684D01*
X25016554Y35807157D01*
X24000000Y35807157D01*
X24000000Y36500000D01*
X32916589Y36500000D01*
X32936219Y36125432D01*
X32936732Y36122192D01*
X32936733Y36122184D01*
X32960841Y35969975D01*
X32994895Y35754967D01*
X33091974Y35392665D01*
X33226391Y35042495D01*
X33396675Y34708295D01*
X33600960Y34393724D01*
X33837007Y34102230D01*
X34102230Y33837007D01*
X34393724Y33600960D01*
X34708294Y33396675D01*
X35042495Y33226391D01*
X35392665Y33091974D01*
X35754967Y32994895D01*
X35951798Y32963720D01*
X36122184Y32936733D01*
X36122192Y32936732D01*
X36125432Y32936219D01*
X36500000Y32916589D01*
X36874568Y32936219D01*
X36877808Y32936732D01*
X36877816Y32936733D01*
X37048202Y32963720D01*
X37245033Y32994895D01*
X37607335Y33091974D01*
X37957505Y33226391D01*
X38291706Y33396675D01*
X38606276Y33600960D01*
X38897770Y33837007D01*
X39162993Y34102230D01*
X39399040Y34393724D01*
X39603325Y34708295D01*
X39773609Y35042495D01*
X39908026Y35392665D01*
X40005105Y35754967D01*
X40039159Y35969975D01*
X40063267Y36122184D01*
X40063268Y36122192D01*
X40063781Y36125432D01*
X40083411Y36500000D01*
X40063781Y36874568D01*
X40059128Y36903949D01*
X40019012Y37157227D01*
X40005105Y37245033D01*
X39908026Y37607335D01*
X39886817Y37662588D01*
X39811151Y37859704D01*
X39773609Y37957505D01*
X39696718Y38108412D01*
X39604823Y38288766D01*
X39604819Y38288773D01*
X39603325Y38291705D01*
X39399040Y38606276D01*
X39162993Y38897770D01*
X38897770Y39162993D01*
X38606276Y39399040D01*
X38291706Y39603325D01*
X37957505Y39773609D01*
X37607335Y39908026D01*
X37245033Y40005105D01*
X37048202Y40036280D01*
X36877816Y40063267D01*
X36877808Y40063268D01*
X36874568Y40063781D01*
X36500000Y40083411D01*
X36125432Y40063781D01*
X36122192Y40063268D01*
X36122184Y40063267D01*
X35951798Y40036280D01*
X35754967Y40005105D01*
X35392665Y39908026D01*
X35042495Y39773609D01*
X35039555Y39772111D01*
X34711234Y39604823D01*
X34711227Y39604819D01*
X34708295Y39603325D01*
X34393724Y39399040D01*
X34102230Y39162993D01*
X33837007Y38897770D01*
X33600960Y38606276D01*
X33396675Y38291705D01*
X33395181Y38288773D01*
X33395177Y38288766D01*
X33303282Y38108412D01*
X33226391Y37957505D01*
X33188849Y37859704D01*
X33113184Y37662588D01*
X33091974Y37607335D01*
X32994895Y37245033D01*
X32980988Y37157227D01*
X32940873Y36903949D01*
X32936219Y36874568D01*
X32916589Y36500000D01*
X24000000Y36500000D01*
X24000000Y38307157D01*
X25016554Y38307157D01*
X25023722Y38242234D01*
X25033513Y38153546D01*
X25034575Y38143926D01*
X25037184Y38136795D01*
X25037185Y38136793D01*
X25057976Y38079979D01*
X25091012Y37989705D01*
X25095249Y37983399D01*
X25095251Y37983396D01*
X25137490Y37920539D01*
X25182607Y37853398D01*
X25188225Y37848286D01*
X25298450Y37747988D01*
X25298454Y37747985D01*
X25304071Y37742874D01*
X25310744Y37739251D01*
X25310748Y37739248D01*
X25431651Y37673604D01*
X25448393Y37664514D01*
X25607241Y37622841D01*
X25692283Y37621505D01*
X25763845Y37620380D01*
X25763848Y37620380D01*
X25771443Y37620261D01*
X25931522Y37656924D01*
X25964687Y37673604D01*
X26034532Y37686344D01*
X26100176Y37659300D01*
X26138044Y37608445D01*
X26180571Y37503714D01*
X26303306Y37303428D01*
X26457105Y37125878D01*
X26487094Y37100981D01*
X26613034Y36996424D01*
X26637838Y36975831D01*
X26642290Y36973229D01*
X26642295Y36973226D01*
X26819300Y36869793D01*
X26840650Y36857317D01*
X27060095Y36773519D01*
X27065163Y36772488D01*
X27065166Y36772487D01*
X27178579Y36749413D01*
X27290280Y36726687D01*
X27295453Y36726497D01*
X27295456Y36726497D01*
X27519859Y36718269D01*
X27519863Y36718269D01*
X27525023Y36718080D01*
X27530143Y36718736D01*
X27530145Y36718736D01*
X27631463Y36731715D01*
X27758020Y36747927D01*
X27762969Y36749412D01*
X27762975Y36749413D01*
X27978063Y36813943D01*
X27978062Y36813943D01*
X27983013Y36815428D01*
X28163707Y36903949D01*
X28189309Y36916491D01*
X28189314Y36916494D01*
X28193960Y36918770D01*
X28282439Y36981882D01*
X28349511Y37005154D01*
X28418519Y36988471D01*
X28467553Y36937127D01*
X28473588Y36923532D01*
X28496676Y36861946D01*
X28505214Y36846351D01*
X28581715Y36744276D01*
X28594276Y36731715D01*
X28696351Y36655214D01*
X28711946Y36646676D01*
X28832394Y36601522D01*
X28847649Y36597895D01*
X28898514Y36592369D01*
X28905328Y36592000D01*
X29581885Y36592000D01*
X29597124Y36596475D01*
X29598329Y36597865D01*
X29600000Y36605548D01*
X29600000Y37736452D01*
X30400000Y37736452D01*
X30400000Y36610116D01*
X30404475Y36594877D01*
X30405865Y36593672D01*
X30413548Y36592001D01*
X31094669Y36592001D01*
X31101490Y36592371D01*
X31152352Y36597895D01*
X31167604Y36601521D01*
X31288054Y36646676D01*
X31303649Y36655214D01*
X31405724Y36731715D01*
X31418285Y36744276D01*
X31494786Y36846351D01*
X31503324Y36861946D01*
X31548478Y36982394D01*
X31552105Y36997649D01*
X31557631Y37048514D01*
X31558000Y37055328D01*
X31558000Y37731885D01*
X31553525Y37747124D01*
X31552135Y37748329D01*
X31544452Y37750000D01*
X30418115Y37750000D01*
X30402876Y37745525D01*
X30401671Y37744135D01*
X30400000Y37736452D01*
X29600000Y37736452D01*
X29600000Y39689884D01*
X29598659Y39694452D01*
X30400000Y39694452D01*
X30400000Y38568115D01*
X30404475Y38552876D01*
X30405865Y38551671D01*
X30413548Y38550000D01*
X31539884Y38550000D01*
X31555123Y38554475D01*
X31556328Y38555865D01*
X31557999Y38563548D01*
X31557999Y39244669D01*
X31557629Y39251490D01*
X31552105Y39302352D01*
X31548479Y39317604D01*
X31503324Y39438054D01*
X31494786Y39453649D01*
X31418285Y39555724D01*
X31405724Y39568285D01*
X31303649Y39644786D01*
X31288054Y39653324D01*
X31167606Y39698478D01*
X31152351Y39702105D01*
X31101486Y39707631D01*
X31094672Y39708000D01*
X30418115Y39708000D01*
X30402876Y39703525D01*
X30401671Y39702135D01*
X30400000Y39694452D01*
X29598659Y39694452D01*
X29595525Y39705123D01*
X29594135Y39706328D01*
X29586452Y39707999D01*
X28905331Y39707999D01*
X28898510Y39707629D01*
X28847648Y39702105D01*
X28832396Y39698479D01*
X28711946Y39653324D01*
X28696351Y39644786D01*
X28594276Y39568285D01*
X28581715Y39555724D01*
X28505214Y39453649D01*
X28496676Y39438054D01*
X28474430Y39378714D01*
X28431788Y39321950D01*
X28365226Y39297250D01*
X28295878Y39312458D01*
X28278356Y39324062D01*
X28274558Y39327061D01*
X28253229Y39343906D01*
X28222838Y39360683D01*
X28157125Y39396958D01*
X28047582Y39457429D01*
X28042713Y39459153D01*
X28042709Y39459155D01*
X27831030Y39534115D01*
X27831026Y39534116D01*
X27826155Y39535841D01*
X27821062Y39536748D01*
X27821059Y39536749D01*
X27599983Y39576129D01*
X27599977Y39576130D01*
X27594894Y39577035D01*
X27522445Y39577920D01*
X27365181Y39579841D01*
X27365179Y39579841D01*
X27360011Y39579904D01*
X27127813Y39544373D01*
X26904537Y39471395D01*
X26899949Y39469007D01*
X26899945Y39469005D01*
X26761544Y39396958D01*
X26696177Y39362930D01*
X26692044Y39359827D01*
X26692041Y39359825D01*
X26512466Y39224996D01*
X26508331Y39221891D01*
X26346042Y39052065D01*
X26270017Y38940616D01*
X26245977Y38905375D01*
X26191066Y38860372D01*
X26120541Y38852201D01*
X26082930Y38865024D01*
X25951647Y38934534D01*
X25951646Y38934534D01*
X25944938Y38938086D01*
X25785663Y38978094D01*
X25778065Y38978134D01*
X25778063Y38978134D01*
X25707307Y38978504D01*
X25621442Y38978953D01*
X25614063Y38977181D01*
X25614059Y38977181D01*
X25513654Y38953075D01*
X25461757Y38940616D01*
X25315826Y38865296D01*
X25310106Y38860306D01*
X25310103Y38860304D01*
X25197798Y38762334D01*
X25197795Y38762331D01*
X25192073Y38757339D01*
X25097644Y38622980D01*
X25037990Y38469975D01*
X25036999Y38462448D01*
X25017545Y38314688D01*
X25017545Y38314684D01*
X25016554Y38307157D01*
X24000000Y38307157D01*
X24000000Y41474000D01*
X24020002Y41542121D01*
X24073658Y41588614D01*
X24126000Y41600000D01*
X26649776Y41600000D01*
X26717897Y41579998D01*
G37*
G04 #@! TD.AperFunction*
G04 #@! TA.AperFunction,Conductor*
G36*
X4462512Y22930595D02*
G01*
X4469095Y22924466D01*
X4887184Y22506377D01*
X4899692Y22490891D01*
X4902626Y22487666D01*
X4908275Y22478918D01*
X4916452Y22472472D01*
X4932530Y22459797D01*
X4936531Y22456241D01*
X4936616Y22456341D01*
X4940573Y22452988D01*
X4944255Y22449306D01*
X4958791Y22438918D01*
X4963478Y22435399D01*
X5000957Y22405854D01*
X5009025Y22403021D01*
X5015985Y22398047D01*
X5025963Y22395063D01*
X5061660Y22384387D01*
X5067303Y22382553D01*
X5104823Y22369378D01*
X5104827Y22369377D01*
X5112308Y22366750D01*
X5117504Y22366300D01*
X5120211Y22366300D01*
X5122469Y22366203D01*
X5122941Y22366061D01*
X5122939Y22366015D01*
X5123138Y22366002D01*
X5129055Y22364233D01*
X5179210Y22366203D01*
X5184154Y22366300D01*
X5664417Y22366300D01*
X5732538Y22346298D01*
X5779031Y22292642D01*
X5789135Y22222368D01*
X5759641Y22157788D01*
X5741121Y22140337D01*
X5727796Y22130112D01*
X5675226Y22089774D01*
X5586345Y21973942D01*
X5583186Y21966316D01*
X5583185Y21966314D01*
X5578117Y21954079D01*
X5530472Y21839054D01*
X5529395Y21830870D01*
X5529394Y21830868D01*
X5518326Y21746793D01*
X5511415Y21694300D01*
X5512493Y21686112D01*
X5526176Y21582181D01*
X5530472Y21549546D01*
X5586345Y21414658D01*
X5675226Y21298826D01*
X5681776Y21293800D01*
X5681779Y21293797D01*
X5784504Y21214973D01*
X5791057Y21209945D01*
X5925946Y21154072D01*
X6070700Y21135015D01*
X6076465Y21135774D01*
X6143499Y21116091D01*
X6164473Y21099188D01*
X9450082Y17813580D01*
X9462587Y17798098D01*
X9465523Y17794871D01*
X9471175Y17786118D01*
X9495438Y17766991D01*
X9499433Y17763441D01*
X9499517Y17763540D01*
X9503480Y17760182D01*
X9507156Y17756506D01*
X9511385Y17753483D01*
X9511386Y17753483D01*
X9521652Y17746146D01*
X9526395Y17742585D01*
X9555675Y17719503D01*
X9555679Y17719501D01*
X9563857Y17713054D01*
X9571925Y17710221D01*
X9578885Y17705247D01*
X9588863Y17702263D01*
X9624586Y17691580D01*
X9630235Y17689744D01*
X9675208Y17673950D01*
X9680404Y17673500D01*
X9683109Y17673500D01*
X9685365Y17673403D01*
X9685841Y17673260D01*
X9685839Y17673214D01*
X9686038Y17673201D01*
X9691955Y17671432D01*
X9742124Y17673403D01*
X9747070Y17673500D01*
X10386660Y17673500D01*
X10454781Y17653498D01*
X10501274Y17599842D01*
X10511378Y17529568D01*
X10503069Y17499281D01*
X10459772Y17394754D01*
X10458695Y17386570D01*
X10458694Y17386568D01*
X10446610Y17294775D01*
X10440715Y17250000D01*
X10441937Y17240715D01*
X10458106Y17117904D01*
X10459772Y17105246D01*
X10467283Y17087114D01*
X10510275Y16983323D01*
X10515645Y16970358D01*
X10561924Y16910046D01*
X10604526Y16854526D01*
X10602550Y16853010D01*
X10630543Y16801746D01*
X10625478Y16730931D01*
X10582931Y16674095D01*
X10516411Y16649284D01*
X10490976Y16650041D01*
X10428188Y16658307D01*
X10420000Y16659385D01*
X10411812Y16658307D01*
X10283432Y16641406D01*
X10283430Y16641405D01*
X10275246Y16640328D01*
X10227430Y16620522D01*
X10147986Y16587615D01*
X10147984Y16587614D01*
X10140358Y16584455D01*
X10024526Y16495574D01*
X10019503Y16489028D01*
X10019499Y16489024D01*
X9938907Y16383995D01*
X9881569Y16342128D01*
X9810698Y16337906D01*
X9748795Y16372670D01*
X9738982Y16383996D01*
X9735204Y16388920D01*
X9735200Y16388924D01*
X9730174Y16395474D01*
X9723624Y16400500D01*
X9723621Y16400503D01*
X9620896Y16479327D01*
X9620894Y16479328D01*
X9614343Y16484355D01*
X9479454Y16540228D01*
X9334700Y16559285D01*
X9326512Y16558207D01*
X9198132Y16541306D01*
X9198130Y16541305D01*
X9189946Y16540228D01*
X9162615Y16528907D01*
X9062686Y16487515D01*
X9062684Y16487514D01*
X9055058Y16484355D01*
X8939226Y16395474D01*
X8850345Y16279642D01*
X8847186Y16272016D01*
X8847185Y16272014D01*
X8827888Y16225427D01*
X8794472Y16144754D01*
X8793395Y16136570D01*
X8793394Y16136568D01*
X8786520Y16084355D01*
X8775415Y16000000D01*
X8776493Y15991812D01*
X8789867Y15890228D01*
X8794472Y15855246D01*
X8804379Y15831329D01*
X8834765Y15757972D01*
X8850345Y15720358D01*
X8939226Y15604526D01*
X8943837Y15600988D01*
X8977321Y15539668D01*
X8980200Y15512885D01*
X8980200Y11062486D01*
X8963319Y10999485D01*
X8961072Y10995594D01*
X8956045Y10989042D01*
X8900172Y10854154D01*
X8899095Y10845970D01*
X8899094Y10845968D01*
X8887605Y10758694D01*
X8881115Y10709400D01*
X8882193Y10701212D01*
X8897659Y10583738D01*
X8900172Y10564646D01*
X8911671Y10536885D01*
X8950539Y10443051D01*
X8956045Y10429758D01*
X8996278Y10377325D01*
X9016243Y10351307D01*
X9044926Y10313926D01*
X9051476Y10308900D01*
X9051479Y10308897D01*
X9133736Y10245779D01*
X9160757Y10225045D01*
X9295646Y10169172D01*
X9440400Y10150115D01*
X9448588Y10151193D01*
X9576966Y10168094D01*
X9585154Y10169172D01*
X9720043Y10225045D01*
X9747064Y10245779D01*
X9829321Y10308897D01*
X9829324Y10308900D01*
X9835874Y10313926D01*
X9864558Y10351307D01*
X9884522Y10377325D01*
X9924755Y10429758D01*
X9930262Y10443051D01*
X9969129Y10536885D01*
X9980628Y10564646D01*
X9983142Y10583738D01*
X9998607Y10701212D01*
X9999685Y10709400D01*
X9993195Y10758694D01*
X9981706Y10845968D01*
X9981705Y10845970D01*
X9980628Y10854154D01*
X9957414Y10910197D01*
X9927915Y10981414D01*
X9927914Y10981416D01*
X9924755Y10989042D01*
X9870807Y11059349D01*
X9840901Y11098323D01*
X9840900Y11098324D01*
X9835874Y11104874D01*
X9829324Y11109900D01*
X9829321Y11109903D01*
X9750713Y11170221D01*
X9738495Y11179596D01*
X9696629Y11236933D01*
X9689200Y11279557D01*
X9689200Y12240059D01*
X9709202Y12308180D01*
X9762858Y12354673D01*
X9833132Y12364777D01*
X9863418Y12356468D01*
X9950416Y12320432D01*
X9950419Y12320431D01*
X9958046Y12317272D01*
X10102800Y12298215D01*
X10110988Y12299293D01*
X10239366Y12316194D01*
X10247554Y12317272D01*
X10382443Y12373145D01*
X10388996Y12378173D01*
X10491721Y12456997D01*
X10491724Y12457000D01*
X10498274Y12462026D01*
X10514106Y12482658D01*
X10561341Y12544217D01*
X10587155Y12577858D01*
X10590490Y12585908D01*
X10639869Y12705120D01*
X10643028Y12712746D01*
X10644634Y12724941D01*
X10661007Y12849312D01*
X10662085Y12857500D01*
X10650983Y12941828D01*
X10644106Y12994068D01*
X10644105Y12994070D01*
X10643028Y13002254D01*
X10587155Y13137142D01*
X10498274Y13252974D01*
X10491724Y13258000D01*
X10491721Y13258003D01*
X10388996Y13336827D01*
X10388994Y13336828D01*
X10382443Y13341855D01*
X10263978Y13390925D01*
X10255183Y13394568D01*
X10247554Y13397728D01*
X10102800Y13416785D01*
X10094612Y13415707D01*
X9966232Y13398806D01*
X9966230Y13398805D01*
X9958046Y13397728D01*
X9950417Y13394568D01*
X9863418Y13358532D01*
X9792829Y13350943D01*
X9729342Y13382722D01*
X9693114Y13443780D01*
X9689200Y13474941D01*
X9689200Y13724792D01*
X9709202Y13792913D01*
X9762858Y13839406D01*
X9831646Y13849714D01*
X9900000Y13840715D01*
X9908188Y13841793D01*
X9930680Y13844754D01*
X10044754Y13859772D01*
X10179643Y13915645D01*
X10186196Y13920673D01*
X10288921Y13999497D01*
X10288924Y13999500D01*
X10295474Y14004526D01*
X10330658Y14050378D01*
X10379328Y14113807D01*
X10384355Y14120358D01*
X10440228Y14255246D01*
X10444509Y14287760D01*
X10458207Y14391812D01*
X10459285Y14400000D01*
X10447887Y14486579D01*
X10441306Y14536568D01*
X10441305Y14536570D01*
X10440228Y14544754D01*
X10411739Y14613532D01*
X10387515Y14672014D01*
X10387514Y14672016D01*
X10384355Y14679642D01*
X10295474Y14795474D01*
X10288924Y14800500D01*
X10288921Y14800503D01*
X10186196Y14879327D01*
X10186194Y14879328D01*
X10179643Y14884355D01*
X10044754Y14940228D01*
X9900000Y14959285D01*
X9831646Y14950286D01*
X9761498Y14961225D01*
X9708399Y15008353D01*
X9689200Y15075208D01*
X9689200Y15512885D01*
X9709202Y15581006D01*
X9724888Y15600470D01*
X9730174Y15604526D01*
X9735197Y15611072D01*
X9735201Y15611076D01*
X9815793Y15716105D01*
X9873131Y15757972D01*
X9944002Y15762194D01*
X10005905Y15727430D01*
X10015718Y15716104D01*
X10019496Y15711180D01*
X10019500Y15711176D01*
X10024526Y15704626D01*
X10031076Y15699600D01*
X10031079Y15699597D01*
X10133804Y15620773D01*
X10140357Y15615745D01*
X10275246Y15559872D01*
X10420000Y15540815D01*
X10425765Y15541574D01*
X10492799Y15521891D01*
X10513773Y15504988D01*
X11285395Y14733366D01*
X11319421Y14671054D01*
X11322300Y14644271D01*
X11322300Y11087114D01*
X11302298Y11018993D01*
X11286613Y10999530D01*
X11281326Y10995474D01*
X11276303Y10988928D01*
X11276302Y10988927D01*
X11259702Y10967293D01*
X11192445Y10879642D01*
X11189286Y10872016D01*
X11189285Y10872014D01*
X11177994Y10844754D01*
X11136572Y10744754D01*
X11135495Y10736570D01*
X11135494Y10736568D01*
X11125688Y10662080D01*
X11117515Y10600000D01*
X11118593Y10591812D01*
X11130343Y10502564D01*
X11136572Y10455246D01*
X11142591Y10440715D01*
X11177135Y10357320D01*
X11192445Y10320358D01*
X11224933Y10278019D01*
X11261735Y10230058D01*
X11281326Y10204526D01*
X11287876Y10199500D01*
X11287879Y10199497D01*
X11390604Y10120673D01*
X11397157Y10115645D01*
X11532046Y10059772D01*
X11676800Y10040715D01*
X11684988Y10041793D01*
X11813366Y10058694D01*
X11821554Y10059772D01*
X11956443Y10115645D01*
X11962996Y10120673D01*
X12065721Y10199497D01*
X12065724Y10199500D01*
X12072274Y10204526D01*
X12091866Y10230058D01*
X12128667Y10278019D01*
X12161155Y10320358D01*
X12176466Y10357320D01*
X12211009Y10440715D01*
X12217028Y10455246D01*
X12223595Y10505129D01*
X12252317Y10570057D01*
X12311582Y10609149D01*
X12382573Y10609994D01*
X12425221Y10588646D01*
X12511678Y10522305D01*
X12520357Y10515645D01*
X12594051Y10485120D01*
X12646408Y10463433D01*
X12655246Y10459772D01*
X12663434Y10458694D01*
X12679135Y10456627D01*
X12800000Y10440715D01*
X12808188Y10441793D01*
X12936566Y10458694D01*
X12944754Y10459772D01*
X12953593Y10463433D01*
X13005949Y10485120D01*
X13079643Y10515645D01*
X13086196Y10520673D01*
X13188921Y10599497D01*
X13188924Y10599500D01*
X13195474Y10604526D01*
X13284355Y10720358D01*
X13291070Y10736568D01*
X13337069Y10847620D01*
X13340228Y10855246D01*
X13345285Y10893653D01*
X13357827Y10988927D01*
X13359285Y11000000D01*
X13353128Y11046769D01*
X13341306Y11136568D01*
X13341305Y11136570D01*
X13340228Y11144754D01*
X13297138Y11248781D01*
X13287515Y11272014D01*
X13287514Y11272016D01*
X13284355Y11279642D01*
X13195474Y11395474D01*
X13188924Y11400500D01*
X13188921Y11400503D01*
X13086196Y11479327D01*
X13086194Y11479328D01*
X13079643Y11484355D01*
X12944754Y11540228D01*
X12800000Y11559285D01*
X12791812Y11558207D01*
X12663432Y11541306D01*
X12663430Y11541305D01*
X12655246Y11540228D01*
X12607430Y11520422D01*
X12527986Y11487515D01*
X12527984Y11487514D01*
X12520358Y11484355D01*
X12404526Y11395474D01*
X12315645Y11279642D01*
X12312486Y11272016D01*
X12312485Y11272014D01*
X12273709Y11178401D01*
X12229160Y11123121D01*
X12161797Y11100700D01*
X12093005Y11118259D01*
X12044627Y11170221D01*
X12031300Y11226620D01*
X12031300Y12762300D01*
X12440715Y12762300D01*
X12441793Y12754112D01*
X12458678Y12625859D01*
X12459772Y12617546D01*
X12515645Y12482658D01*
X12604526Y12366826D01*
X12611076Y12361800D01*
X12611079Y12361797D01*
X12713804Y12282973D01*
X12720357Y12277945D01*
X12855246Y12222072D01*
X13000000Y12203015D01*
X13008188Y12204093D01*
X13136566Y12220994D01*
X13144754Y12222072D01*
X13279643Y12277945D01*
X13286196Y12282973D01*
X13388921Y12361797D01*
X13388924Y12361800D01*
X13395474Y12366826D01*
X13484355Y12482658D01*
X13540228Y12617546D01*
X13541323Y12625859D01*
X13558207Y12754112D01*
X13559285Y12762300D01*
X13546752Y12857500D01*
X13541306Y12898868D01*
X13541305Y12898870D01*
X13540228Y12907054D01*
X13501907Y12999569D01*
X13487515Y13034314D01*
X13487514Y13034316D01*
X13484355Y13041942D01*
X13417159Y13129514D01*
X13400501Y13151223D01*
X13400500Y13151224D01*
X13395474Y13157774D01*
X13388924Y13162800D01*
X13388921Y13162803D01*
X13286196Y13241627D01*
X13286194Y13241628D01*
X13279643Y13246655D01*
X13144754Y13302528D01*
X13000000Y13321585D01*
X12991812Y13320507D01*
X12863432Y13303606D01*
X12863430Y13303605D01*
X12855246Y13302528D01*
X12822413Y13288928D01*
X12727986Y13249815D01*
X12727984Y13249814D01*
X12720358Y13246655D01*
X12604526Y13157774D01*
X12599503Y13151228D01*
X12582841Y13129514D01*
X12515645Y13041942D01*
X12512486Y13034316D01*
X12512485Y13034314D01*
X12498093Y12999569D01*
X12459772Y12907054D01*
X12458695Y12898870D01*
X12458694Y12898868D01*
X12453248Y12857500D01*
X12440715Y12762300D01*
X12031300Y12762300D01*
X12031300Y14715571D01*
X12051302Y14783692D01*
X12104958Y14830185D01*
X12175232Y14840289D01*
X12239812Y14810795D01*
X12246395Y14804666D01*
X14244615Y12806446D01*
X14278641Y12744134D01*
X14273576Y12673319D01*
X14231029Y12616483D01*
X14171965Y12592429D01*
X14170336Y12592215D01*
X14163432Y12591306D01*
X14163430Y12591305D01*
X14155246Y12590228D01*
X14116448Y12574157D01*
X14027986Y12537515D01*
X14027984Y12537514D01*
X14020358Y12534355D01*
X13904526Y12445474D01*
X13815645Y12329642D01*
X13812486Y12322016D01*
X13812485Y12322014D01*
X13806755Y12308180D01*
X13759772Y12194754D01*
X13758695Y12186570D01*
X13758694Y12186568D01*
X13758403Y12184355D01*
X13740715Y12050000D01*
X13741793Y12041812D01*
X13758462Y11915200D01*
X13759772Y11905246D01*
X13762931Y11897620D01*
X13793539Y11823727D01*
X13815645Y11770358D01*
X13858378Y11714667D01*
X13873106Y11695474D01*
X13904526Y11654526D01*
X13911076Y11649500D01*
X13911079Y11649497D01*
X14013804Y11570673D01*
X14020357Y11565645D01*
X14155246Y11509772D01*
X14300000Y11490715D01*
X14308188Y11491793D01*
X14436566Y11508694D01*
X14444754Y11509772D01*
X14579643Y11565645D01*
X14586196Y11570673D01*
X14688921Y11649497D01*
X14688924Y11649500D01*
X14695474Y11654526D01*
X14700505Y11661082D01*
X14749740Y11725245D01*
X14807078Y11767112D01*
X14877949Y11771334D01*
X14939852Y11736570D01*
X14949664Y11725246D01*
X15011526Y11644626D01*
X15018076Y11639600D01*
X15018079Y11639597D01*
X15114455Y11565645D01*
X15127357Y11555745D01*
X15262246Y11499872D01*
X15266742Y11499280D01*
X15325892Y11463227D01*
X15356914Y11399367D01*
X15348486Y11328872D01*
X15332622Y11301767D01*
X15315645Y11279642D01*
X15312486Y11272016D01*
X15312485Y11272014D01*
X15302862Y11248781D01*
X15259772Y11144754D01*
X15258695Y11136570D01*
X15258694Y11136568D01*
X15246872Y11046769D01*
X15240715Y11000000D01*
X15242173Y10988927D01*
X15254716Y10893653D01*
X15259772Y10855246D01*
X15262931Y10847620D01*
X15308931Y10736568D01*
X15315645Y10720358D01*
X15404526Y10604526D01*
X15411076Y10599500D01*
X15411079Y10599497D01*
X15513804Y10520673D01*
X15520357Y10515645D01*
X15594051Y10485120D01*
X15646408Y10463433D01*
X15655246Y10459772D01*
X15663434Y10458694D01*
X15679135Y10456627D01*
X15800000Y10440715D01*
X15808188Y10441793D01*
X15936566Y10458694D01*
X15944754Y10459772D01*
X15953593Y10463433D01*
X16005949Y10485120D01*
X16079643Y10515645D01*
X16086196Y10520673D01*
X16188921Y10599497D01*
X16188924Y10599500D01*
X16195474Y10604526D01*
X16284355Y10720358D01*
X16291070Y10736568D01*
X16337069Y10847620D01*
X16340228Y10855246D01*
X16345285Y10893653D01*
X16357827Y10988927D01*
X16359285Y11000000D01*
X16353128Y11046769D01*
X16341306Y11136568D01*
X16341305Y11136570D01*
X16340228Y11144754D01*
X16297138Y11248781D01*
X16287515Y11272014D01*
X16287514Y11272016D01*
X16284355Y11279642D01*
X16195474Y11395474D01*
X16188924Y11400500D01*
X16188921Y11400503D01*
X16086196Y11479327D01*
X16086194Y11479328D01*
X16079643Y11484355D01*
X15944754Y11540228D01*
X15940258Y11540820D01*
X15881108Y11576873D01*
X15850086Y11640733D01*
X15858514Y11711228D01*
X15874378Y11738333D01*
X15886328Y11753907D01*
X15891355Y11760458D01*
X15894995Y11769244D01*
X15940165Y11878295D01*
X15947228Y11895346D01*
X15949723Y11914298D01*
X15978444Y11979226D01*
X16037708Y12018318D01*
X16108700Y12019165D01*
X16149825Y11997321D01*
X16150457Y11998205D01*
X16164952Y11987846D01*
X16169695Y11984285D01*
X16198975Y11961203D01*
X16198979Y11961201D01*
X16207157Y11954754D01*
X16215225Y11951921D01*
X16222185Y11946947D01*
X16232163Y11943963D01*
X16267886Y11933280D01*
X16273535Y11931444D01*
X16318508Y11915650D01*
X16323704Y11915200D01*
X16326409Y11915200D01*
X16328665Y11915103D01*
X16329141Y11914960D01*
X16329139Y11914914D01*
X16329338Y11914901D01*
X16335255Y11913132D01*
X16385424Y11915103D01*
X16390370Y11915200D01*
X18280971Y11915200D01*
X18349092Y11895198D01*
X18370066Y11878295D01*
X19684928Y10563434D01*
X20994588Y9253774D01*
X21028614Y9191462D01*
X21031285Y9166611D01*
X21030415Y9160000D01*
X21031493Y9151812D01*
X21047588Y9029560D01*
X21049472Y9015246D01*
X21052631Y9007620D01*
X21097477Y8899354D01*
X21105345Y8880358D01*
X21194226Y8764526D01*
X21244485Y8725961D01*
X21286351Y8668624D01*
X21290572Y8597753D01*
X21255807Y8535850D01*
X21193095Y8502569D01*
X21167779Y8500000D01*
X18331092Y8500000D01*
X18262971Y8520002D01*
X18216478Y8573658D01*
X18206374Y8643932D01*
X18214184Y8672996D01*
X18217758Y8681885D01*
X18236842Y8729359D01*
X18244246Y8781386D01*
X18258581Y8882109D01*
X18258581Y8882112D01*
X18259162Y8886193D01*
X18259307Y8900000D01*
X18257720Y8913119D01*
X18246326Y9007272D01*
X18257999Y9077302D01*
X18305681Y9129904D01*
X18374232Y9148377D01*
X18400569Y9144609D01*
X18405246Y9142672D01*
X18413430Y9141595D01*
X18413432Y9141594D01*
X18541812Y9124693D01*
X18550000Y9123615D01*
X18558188Y9124693D01*
X18686566Y9141594D01*
X18694754Y9142672D01*
X18829643Y9198545D01*
X18836196Y9203573D01*
X18938921Y9282397D01*
X18938924Y9282400D01*
X18945474Y9287426D01*
X18955123Y9300000D01*
X19010532Y9372211D01*
X19034355Y9403258D01*
X19049677Y9440247D01*
X19087069Y9530520D01*
X19090228Y9538146D01*
X19092330Y9554108D01*
X19108207Y9674712D01*
X19109285Y9682900D01*
X19090228Y9827654D01*
X19063510Y9892156D01*
X19037515Y9954914D01*
X19037514Y9954916D01*
X19034355Y9962542D01*
X18986165Y10025345D01*
X18950501Y10071823D01*
X18950500Y10071824D01*
X18945474Y10078374D01*
X18938924Y10083400D01*
X18938921Y10083403D01*
X18836196Y10162227D01*
X18836194Y10162228D01*
X18829643Y10167255D01*
X18822014Y10170415D01*
X18822009Y10170418D01*
X18817400Y10172327D01*
X18762121Y10216877D01*
X18739702Y10284241D01*
X18757262Y10353031D01*
X18763291Y10362247D01*
X18777755Y10382376D01*
X18836842Y10529359D01*
X18844835Y10585520D01*
X18858581Y10682109D01*
X18858581Y10682112D01*
X18859162Y10686193D01*
X18859307Y10700000D01*
X18858170Y10709400D01*
X18853891Y10744754D01*
X18840276Y10857267D01*
X18784280Y11005454D01*
X18755885Y11046769D01*
X18698855Y11129749D01*
X18698854Y11129751D01*
X18694553Y11136008D01*
X18576275Y11241389D01*
X18568889Y11245300D01*
X18476227Y11294362D01*
X18436274Y11315516D01*
X18282633Y11354108D01*
X18275034Y11354148D01*
X18275033Y11354148D01*
X18209181Y11354493D01*
X18124221Y11354938D01*
X18116841Y11353166D01*
X18116839Y11353166D01*
X17977563Y11319729D01*
X17977560Y11319728D01*
X17970184Y11317957D01*
X17829414Y11245300D01*
X17710039Y11141162D01*
X17705672Y11134949D01*
X17705667Y11134943D01*
X17652538Y11059349D01*
X17597004Y11015117D01*
X17526372Y11007932D01*
X17501234Y11015391D01*
X17425484Y11046768D01*
X17425481Y11046769D01*
X17417854Y11049928D01*
X17273100Y11068985D01*
X17264912Y11067907D01*
X17136532Y11051006D01*
X17136530Y11051005D01*
X17128346Y11049928D01*
X17098480Y11037557D01*
X17001086Y10997215D01*
X17001084Y10997214D01*
X16993458Y10994055D01*
X16877626Y10905174D01*
X16788745Y10789342D01*
X16785586Y10781716D01*
X16785585Y10781714D01*
X16772596Y10750355D01*
X16732872Y10654454D01*
X16731795Y10646270D01*
X16731794Y10646268D01*
X16725703Y10600000D01*
X16713815Y10509700D01*
X16714893Y10501512D01*
X16731390Y10376206D01*
X16732872Y10364946D01*
X16751292Y10320477D01*
X16784247Y10240918D01*
X16788745Y10230058D01*
X16833040Y10172332D01*
X16840794Y10162227D01*
X16877626Y10114226D01*
X16884176Y10109200D01*
X16884179Y10109197D01*
X16986904Y10030373D01*
X16993457Y10025345D01*
X17128346Y9969472D01*
X17273100Y9950415D01*
X17278865Y9951174D01*
X17345899Y9931491D01*
X17366873Y9914588D01*
X17528266Y9753195D01*
X17562292Y9690883D01*
X17557227Y9620068D01*
X17514680Y9563232D01*
X17468585Y9541581D01*
X17377563Y9519729D01*
X17377560Y9519728D01*
X17370184Y9517957D01*
X17229414Y9445300D01*
X17110039Y9341162D01*
X17018950Y9211556D01*
X17000188Y9163434D01*
X16966607Y9077302D01*
X16961406Y9063963D01*
X16960414Y9056430D01*
X16960414Y9056429D01*
X16941852Y8915433D01*
X16940729Y8906904D01*
X16944383Y8873807D01*
X16954587Y8781386D01*
X16958113Y8749447D01*
X16960723Y8742316D01*
X16960723Y8742314D01*
X16987442Y8669301D01*
X16992068Y8598455D01*
X16957658Y8536355D01*
X16895136Y8502716D01*
X16869116Y8500000D01*
X9126000Y8500000D01*
X9057879Y8520002D01*
X9011386Y8573658D01*
X9000000Y8626000D01*
X9000000Y8700000D01*
X6838800Y8700000D01*
X6791433Y8710455D01*
X6791036Y8709462D01*
X6787873Y8710727D01*
X6784775Y8712165D01*
X6430348Y8832132D01*
X6065038Y8913119D01*
X5903648Y8930937D01*
X5696500Y8953807D01*
X5696495Y8953807D01*
X5693119Y8954180D01*
X5689720Y8954186D01*
X5689719Y8954186D01*
X5512987Y8954494D01*
X5318940Y8954833D01*
X5180079Y8939993D01*
X4950263Y8915433D01*
X4950257Y8915432D01*
X4946879Y8915071D01*
X4581289Y8835359D01*
X4444051Y8789440D01*
X4419980Y8781386D01*
X4349033Y8778740D01*
X4287918Y8814870D01*
X4256038Y8878307D01*
X4254000Y8900875D01*
X4254000Y11000000D01*
X4940715Y11000000D01*
X4942173Y10988927D01*
X4954716Y10893653D01*
X4959772Y10855246D01*
X4962931Y10847620D01*
X5008931Y10736568D01*
X5015645Y10720358D01*
X5104526Y10604526D01*
X5111076Y10599500D01*
X5111079Y10599497D01*
X5213804Y10520673D01*
X5220357Y10515645D01*
X5294051Y10485120D01*
X5346408Y10463433D01*
X5355246Y10459772D01*
X5363434Y10458694D01*
X5379135Y10456627D01*
X5500000Y10440715D01*
X5508188Y10441793D01*
X5636566Y10458694D01*
X5644754Y10459772D01*
X5653593Y10463433D01*
X5705949Y10485120D01*
X5779643Y10515645D01*
X5786196Y10520673D01*
X5888921Y10599497D01*
X5888924Y10599500D01*
X5895474Y10604526D01*
X5920776Y10637500D01*
X6690715Y10637500D01*
X6691793Y10629312D01*
X6708142Y10505129D01*
X6709772Y10492746D01*
X6723430Y10459772D01*
X6752568Y10389429D01*
X6765645Y10357858D01*
X6794420Y10320358D01*
X6841570Y10258911D01*
X6854526Y10242026D01*
X6861076Y10237000D01*
X6861079Y10236997D01*
X6958079Y10162566D01*
X6970357Y10153145D01*
X7105246Y10097272D01*
X7250000Y10078215D01*
X7258188Y10079293D01*
X7264197Y10080084D01*
X7394754Y10097272D01*
X7529643Y10153145D01*
X7541921Y10162566D01*
X7638921Y10236997D01*
X7638924Y10237000D01*
X7645474Y10242026D01*
X7658431Y10258911D01*
X7705580Y10320358D01*
X7734355Y10357858D01*
X7747433Y10389429D01*
X7776570Y10459772D01*
X7790228Y10492746D01*
X7791859Y10505129D01*
X7808207Y10629312D01*
X7809285Y10637500D01*
X7802875Y10686193D01*
X7791306Y10774068D01*
X7791305Y10774070D01*
X7790228Y10782254D01*
X7763152Y10847620D01*
X7737515Y10909514D01*
X7737514Y10909516D01*
X7734355Y10917142D01*
X7685037Y10981414D01*
X7650501Y11026423D01*
X7650500Y11026424D01*
X7645474Y11032974D01*
X7638924Y11038000D01*
X7638921Y11038003D01*
X7536196Y11116827D01*
X7536194Y11116828D01*
X7529643Y11121855D01*
X7394754Y11177728D01*
X7250000Y11196785D01*
X7241812Y11195707D01*
X7113432Y11178806D01*
X7113430Y11178805D01*
X7105246Y11177728D01*
X7087123Y11170221D01*
X6977986Y11125015D01*
X6977984Y11125014D01*
X6970358Y11121855D01*
X6854526Y11032974D01*
X6765645Y10917142D01*
X6762486Y10909516D01*
X6762485Y10909514D01*
X6736848Y10847620D01*
X6709772Y10782254D01*
X6708695Y10774070D01*
X6708694Y10774068D01*
X6697125Y10686193D01*
X6690715Y10637500D01*
X5920776Y10637500D01*
X5984355Y10720358D01*
X5991070Y10736568D01*
X6037069Y10847620D01*
X6040228Y10855246D01*
X6045285Y10893653D01*
X6057827Y10988927D01*
X6059285Y11000000D01*
X6053128Y11046769D01*
X6041306Y11136568D01*
X6041305Y11136570D01*
X6040228Y11144754D01*
X5997138Y11248781D01*
X5987515Y11272014D01*
X5987514Y11272016D01*
X5984355Y11279642D01*
X5895474Y11395474D01*
X5888924Y11400500D01*
X5888921Y11400503D01*
X5786196Y11479327D01*
X5786194Y11479328D01*
X5779643Y11484355D01*
X5644754Y11540228D01*
X5500000Y11559285D01*
X5491812Y11558207D01*
X5363432Y11541306D01*
X5363430Y11541305D01*
X5355246Y11540228D01*
X5307430Y11520422D01*
X5227986Y11487515D01*
X5227984Y11487514D01*
X5220358Y11484355D01*
X5104526Y11395474D01*
X5015645Y11279642D01*
X5012486Y11272016D01*
X5012485Y11272014D01*
X5002862Y11248781D01*
X4959772Y11144754D01*
X4958695Y11136570D01*
X4958694Y11136568D01*
X4946872Y11046769D01*
X4940715Y11000000D01*
X4254000Y11000000D01*
X4254000Y12900000D01*
X4940715Y12900000D01*
X4941793Y12891812D01*
X4954880Y12792407D01*
X4959772Y12755246D01*
X4975360Y12717613D01*
X4993708Y12673319D01*
X5015645Y12620358D01*
X5104526Y12504526D01*
X5111076Y12499500D01*
X5111079Y12499497D01*
X5174937Y12450497D01*
X5220357Y12415645D01*
X5355246Y12359772D01*
X5363434Y12358694D01*
X5393977Y12354673D01*
X5500000Y12340715D01*
X5508188Y12341793D01*
X5636566Y12358694D01*
X5644754Y12359772D01*
X5779643Y12415645D01*
X5825063Y12450497D01*
X5840706Y12462500D01*
X6690715Y12462500D01*
X6693818Y12438928D01*
X6704911Y12354673D01*
X6709772Y12317746D01*
X6717416Y12299293D01*
X6757559Y12202380D01*
X6765645Y12182858D01*
X6770672Y12176307D01*
X6834698Y12092867D01*
X6854526Y12067026D01*
X6861076Y12062000D01*
X6861079Y12061997D01*
X6959970Y11986115D01*
X6970357Y11978145D01*
X7105246Y11922272D01*
X7250000Y11903215D01*
X7258188Y11904293D01*
X7386566Y11921194D01*
X7394754Y11922272D01*
X7529643Y11978145D01*
X7540030Y11986115D01*
X7638921Y12061997D01*
X7638924Y12062000D01*
X7645474Y12067026D01*
X7665303Y12092867D01*
X7729328Y12176307D01*
X7734355Y12182858D01*
X7742442Y12202380D01*
X7782584Y12299293D01*
X7790228Y12317746D01*
X7795090Y12354673D01*
X7806182Y12438928D01*
X7809285Y12462500D01*
X7804414Y12499497D01*
X7791306Y12599068D01*
X7791305Y12599070D01*
X7790228Y12607254D01*
X7749690Y12705120D01*
X7737515Y12734514D01*
X7737514Y12734516D01*
X7734355Y12742142D01*
X7645474Y12857974D01*
X7638924Y12863000D01*
X7638921Y12863003D01*
X7536196Y12941827D01*
X7536194Y12941828D01*
X7529643Y12946855D01*
X7394754Y13002728D01*
X7250000Y13021785D01*
X7241812Y13020707D01*
X7113432Y13003806D01*
X7113430Y13003805D01*
X7105246Y13002728D01*
X7084339Y12994068D01*
X6977986Y12950015D01*
X6977984Y12950014D01*
X6970358Y12946855D01*
X6854526Y12857974D01*
X6765645Y12742142D01*
X6762486Y12734516D01*
X6762485Y12734514D01*
X6750310Y12705120D01*
X6709772Y12607254D01*
X6708695Y12599070D01*
X6708694Y12599068D01*
X6695586Y12499497D01*
X6690715Y12462500D01*
X5840706Y12462500D01*
X5888921Y12499497D01*
X5888924Y12499500D01*
X5895474Y12504526D01*
X5984355Y12620358D01*
X6006293Y12673319D01*
X6024640Y12717613D01*
X6040228Y12755246D01*
X6045121Y12792407D01*
X6058207Y12891812D01*
X6059285Y12900000D01*
X6053778Y12941828D01*
X6041306Y13036568D01*
X6041305Y13036570D01*
X6040228Y13044754D01*
X5993413Y13157774D01*
X5987515Y13172014D01*
X5987514Y13172016D01*
X5984355Y13179642D01*
X5909160Y13277638D01*
X5900501Y13288923D01*
X5900500Y13288924D01*
X5895474Y13295474D01*
X5888924Y13300500D01*
X5888921Y13300503D01*
X5786196Y13379327D01*
X5786194Y13379328D01*
X5779643Y13384355D01*
X5644754Y13440228D01*
X5500000Y13459285D01*
X5491812Y13458207D01*
X5363432Y13441306D01*
X5363430Y13441305D01*
X5355246Y13440228D01*
X5329878Y13429720D01*
X5227986Y13387515D01*
X5227984Y13387514D01*
X5220358Y13384355D01*
X5104526Y13295474D01*
X5099503Y13288928D01*
X5090840Y13277638D01*
X5015645Y13179642D01*
X5012486Y13172016D01*
X5012485Y13172014D01*
X5006587Y13157774D01*
X4959772Y13044754D01*
X4958695Y13036570D01*
X4958694Y13036568D01*
X4946222Y12941828D01*
X4940715Y12900000D01*
X4254000Y12900000D01*
X4254000Y15100000D01*
X6940715Y15100000D01*
X6941793Y15091812D01*
X6956817Y14977694D01*
X6959772Y14955246D01*
X6965323Y14941844D01*
X7010832Y14831978D01*
X7015645Y14820358D01*
X7036271Y14793478D01*
X7092533Y14720156D01*
X7104526Y14704526D01*
X7111076Y14699500D01*
X7111079Y14699497D01*
X7183051Y14644271D01*
X7220357Y14615645D01*
X7355246Y14559772D01*
X7500000Y14540715D01*
X7508188Y14541793D01*
X7530680Y14544754D01*
X7644754Y14559772D01*
X7779643Y14615645D01*
X7816949Y14644271D01*
X7888921Y14699497D01*
X7888924Y14699500D01*
X7895474Y14704526D01*
X7907468Y14720156D01*
X7963729Y14793478D01*
X7984355Y14820358D01*
X7989169Y14831978D01*
X8034677Y14941844D01*
X8040228Y14955246D01*
X8043184Y14977694D01*
X8058207Y15091812D01*
X8059285Y15100000D01*
X8046733Y15195345D01*
X8041306Y15236568D01*
X8041305Y15236570D01*
X8040228Y15244754D01*
X8011625Y15313807D01*
X7987515Y15372014D01*
X7987514Y15372016D01*
X7984355Y15379642D01*
X7910880Y15475397D01*
X7900501Y15488923D01*
X7900500Y15488924D01*
X7895474Y15495474D01*
X7888924Y15500500D01*
X7888921Y15500503D01*
X7786196Y15579327D01*
X7786194Y15579328D01*
X7779643Y15584355D01*
X7644754Y15640228D01*
X7500000Y15659285D01*
X7491812Y15658207D01*
X7363432Y15641306D01*
X7363430Y15641305D01*
X7355246Y15640228D01*
X7308278Y15620773D01*
X7227986Y15587515D01*
X7227984Y15587514D01*
X7220358Y15584355D01*
X7163616Y15540815D01*
X7113348Y15502243D01*
X7104526Y15495474D01*
X7099503Y15488928D01*
X7095464Y15483664D01*
X7015645Y15379642D01*
X7012486Y15372016D01*
X7012485Y15372014D01*
X6988375Y15313807D01*
X6959772Y15244754D01*
X6958695Y15236570D01*
X6958694Y15236568D01*
X6953267Y15195345D01*
X6940715Y15100000D01*
X4254000Y15100000D01*
X4254000Y17800000D01*
X5540715Y17800000D01*
X5541793Y17791812D01*
X5557500Y17672506D01*
X5559772Y17655246D01*
X5615645Y17520358D01*
X5704526Y17404526D01*
X5711076Y17399500D01*
X5711079Y17399497D01*
X5800518Y17330868D01*
X5820357Y17315645D01*
X5955246Y17259772D01*
X6100000Y17240715D01*
X6108188Y17241793D01*
X6108333Y17241812D01*
X6244754Y17259772D01*
X6379643Y17315645D01*
X6399482Y17330868D01*
X6488921Y17399497D01*
X6488924Y17399500D01*
X6495474Y17404526D01*
X6584355Y17520358D01*
X6640228Y17655246D01*
X6642501Y17672506D01*
X6658207Y17791812D01*
X6659285Y17800000D01*
X6650334Y17867994D01*
X6641306Y17936568D01*
X6641305Y17936570D01*
X6640228Y17944754D01*
X6595080Y18053750D01*
X6587515Y18072014D01*
X6587514Y18072016D01*
X6584355Y18079642D01*
X6533076Y18146470D01*
X6500501Y18188923D01*
X6500500Y18188924D01*
X6495474Y18195474D01*
X6488924Y18200500D01*
X6488921Y18200503D01*
X6386196Y18279327D01*
X6386194Y18279328D01*
X6379643Y18284355D01*
X6244754Y18340228D01*
X6224109Y18342946D01*
X6108188Y18358207D01*
X6100000Y18359285D01*
X6091812Y18358207D01*
X5963432Y18341306D01*
X5963430Y18341305D01*
X5955246Y18340228D01*
X5907430Y18320422D01*
X5827986Y18287515D01*
X5827984Y18287514D01*
X5820358Y18284355D01*
X5704526Y18195474D01*
X5615645Y18079642D01*
X5612486Y18072016D01*
X5612485Y18072014D01*
X5604920Y18053750D01*
X5559772Y17944754D01*
X5558695Y17936570D01*
X5558694Y17936568D01*
X5549666Y17867994D01*
X5540715Y17800000D01*
X4254000Y17800000D01*
X4254000Y21530207D01*
X4252702Y21555851D01*
X4250133Y21581167D01*
X4221793Y21674593D01*
X4211678Y21693653D01*
X4189830Y21734821D01*
X4189828Y21734824D01*
X4188511Y21737306D01*
X4183954Y21744305D01*
X4168724Y21767696D01*
X4168722Y21767698D01*
X4163807Y21775247D01*
X4130035Y21804161D01*
X4091297Y21863658D01*
X4090875Y21934653D01*
X4129469Y21995099D01*
X4146332Y22009711D01*
X4177773Y22042295D01*
X4223709Y22130112D01*
X4225663Y22136765D01*
X4231835Y22157788D01*
X4243711Y22198233D01*
X4254000Y22269793D01*
X4254000Y22835371D01*
X4274002Y22903492D01*
X4327658Y22949985D01*
X4397932Y22960089D01*
X4462512Y22930595D01*
G37*
G04 #@! TD.AperFunction*
G04 #@! TA.AperFunction,Conductor*
G36*
X14219091Y14675498D02*
G01*
X14240065Y14658596D01*
X14608595Y14290067D01*
X14642620Y14227754D01*
X14645500Y14200971D01*
X14645500Y13712429D01*
X14625498Y13644308D01*
X14571842Y13597815D01*
X14501568Y13587711D01*
X14436988Y13617205D01*
X14430412Y13623326D01*
X13573332Y14480406D01*
X13539308Y14542717D01*
X13544372Y14613532D01*
X13586919Y14670368D01*
X13653439Y14695179D01*
X13662428Y14695500D01*
X14150970Y14695500D01*
X14219091Y14675498D01*
G37*
G04 #@! TD.AperFunction*
G04 #@! TA.AperFunction,Conductor*
G36*
X11490596Y28479998D02*
G01*
X11537089Y28426342D01*
X11547397Y28357554D01*
X11541822Y28315203D01*
X11540729Y28306904D01*
X11546238Y28257009D01*
X11557146Y28158207D01*
X11558113Y28149447D01*
X11560723Y28142316D01*
X11560723Y28142314D01*
X11583773Y28079328D01*
X11612553Y28000681D01*
X11700908Y27869195D01*
X11706527Y27864082D01*
X11706528Y27864081D01*
X11794884Y27783684D01*
X11818076Y27762581D01*
X11957293Y27686992D01*
X12110522Y27646793D01*
X12194477Y27645474D01*
X12261319Y27644424D01*
X12261322Y27644424D01*
X12268916Y27644305D01*
X12423332Y27679671D01*
X12530239Y27733439D01*
X12558072Y27747437D01*
X12558075Y27747439D01*
X12564855Y27750849D01*
X12570626Y27755778D01*
X12570629Y27755780D01*
X12679536Y27848796D01*
X12679536Y27848797D01*
X12685314Y27853731D01*
X12777755Y27982376D01*
X12836842Y28129359D01*
X12847873Y28206869D01*
X12858581Y28282109D01*
X12858581Y28282112D01*
X12859162Y28286193D01*
X12859307Y28300000D01*
X12852184Y28358863D01*
X12863857Y28428894D01*
X12911539Y28481496D01*
X12977271Y28500000D01*
X22898210Y28500000D01*
X22966331Y28479998D01*
X23012824Y28426342D01*
X23024208Y28373215D01*
X22981469Y21534944D01*
X22981456Y21532887D01*
X22961028Y21464892D01*
X22907083Y21418735D01*
X22896068Y21414398D01*
X22792417Y21379112D01*
X22786419Y21375422D01*
X22786417Y21375421D01*
X22654243Y21294107D01*
X22654241Y21294105D01*
X22648244Y21290416D01*
X22641520Y21283831D01*
X22533323Y21177876D01*
X22527305Y21171983D01*
X22523494Y21166069D01*
X22523492Y21166067D01*
X22490217Y21114435D01*
X22435609Y21029700D01*
X22433198Y21023075D01*
X22380125Y20877260D01*
X22380124Y20877255D01*
X22377715Y20870637D01*
X22356500Y20702701D01*
X22373018Y20534238D01*
X22426448Y20373621D01*
X22430097Y20367596D01*
X22498139Y20255246D01*
X22514135Y20228833D01*
X22519026Y20223768D01*
X22519027Y20223767D01*
X22567813Y20173248D01*
X22631721Y20107069D01*
X22773360Y20014383D01*
X22779964Y20011927D01*
X22779972Y20011923D01*
X22888875Y19971422D01*
X22945751Y19928930D01*
X22970625Y19862433D01*
X22970953Y19852538D01*
X22962718Y18534902D01*
X22942290Y18466907D01*
X22888345Y18420750D01*
X22818009Y18411086D01*
X22758716Y18436738D01*
X22755962Y18438909D01*
X22751967Y18442459D01*
X22751883Y18442360D01*
X22747920Y18445718D01*
X22744244Y18449394D01*
X22740014Y18452417D01*
X22729748Y18459754D01*
X22725005Y18463315D01*
X22695725Y18486397D01*
X22695721Y18486399D01*
X22687543Y18492846D01*
X22679475Y18495679D01*
X22672515Y18500653D01*
X22626814Y18514320D01*
X22621165Y18516156D01*
X22583669Y18529324D01*
X22583670Y18529324D01*
X22576192Y18531950D01*
X22570996Y18532400D01*
X22568291Y18532400D01*
X22566035Y18532497D01*
X22565559Y18532640D01*
X22565561Y18532686D01*
X22565362Y18532699D01*
X22559445Y18534468D01*
X22509811Y18532518D01*
X22509276Y18532497D01*
X22504330Y18532400D01*
X15644116Y18532400D01*
X15575995Y18552402D01*
X15529502Y18606058D01*
X15519398Y18676332D01*
X15527208Y18705393D01*
X15536842Y18729359D01*
X15550703Y18826752D01*
X15558581Y18882109D01*
X15558581Y18882112D01*
X15559162Y18886193D01*
X15559307Y18900000D01*
X15540276Y19057267D01*
X15484280Y19205454D01*
X15458887Y19242401D01*
X15398855Y19329749D01*
X15398854Y19329751D01*
X15394553Y19336008D01*
X15388883Y19341060D01*
X15388881Y19341062D01*
X15373109Y19355114D01*
X15335552Y19415364D01*
X15336531Y19486354D01*
X15354184Y19513200D01*
X16573115Y19513200D01*
X16574193Y19505012D01*
X16590973Y19377555D01*
X16592172Y19368446D01*
X16601395Y19346179D01*
X16639879Y19253273D01*
X16648045Y19233558D01*
X16653072Y19227007D01*
X16701156Y19164343D01*
X16736926Y19117726D01*
X16743476Y19112700D01*
X16743479Y19112697D01*
X16846204Y19033873D01*
X16852757Y19028845D01*
X16987646Y18972972D01*
X17132400Y18953915D01*
X17140588Y18954993D01*
X17268966Y18971894D01*
X17277154Y18972972D01*
X17412043Y19028845D01*
X17418596Y19033873D01*
X17521321Y19112697D01*
X17521324Y19112700D01*
X17527874Y19117726D01*
X17563645Y19164343D01*
X17611728Y19227007D01*
X17616755Y19233558D01*
X17624922Y19253273D01*
X17663405Y19346179D01*
X17672628Y19368446D01*
X17673828Y19377555D01*
X17690607Y19505012D01*
X17691685Y19513200D01*
X17685536Y19559905D01*
X17673706Y19649768D01*
X17673705Y19649770D01*
X17672628Y19657954D01*
X17669141Y19666373D01*
X17662962Y19681291D01*
X17655373Y19751881D01*
X17687153Y19815368D01*
X17748211Y19851595D01*
X17795816Y19854431D01*
X17900000Y19840715D01*
X17908188Y19841793D01*
X17912146Y19842314D01*
X18004185Y19854431D01*
X18036566Y19858694D01*
X18044754Y19859772D01*
X18059850Y19866025D01*
X18130439Y19873614D01*
X18193926Y19841835D01*
X18230154Y19780777D01*
X18232045Y19749046D01*
X18233993Y19749046D01*
X18233993Y19740788D01*
X18232915Y19732600D01*
X18233993Y19724412D01*
X18249652Y19605472D01*
X18251972Y19587846D01*
X18261816Y19564081D01*
X18295300Y19483245D01*
X18307845Y19452958D01*
X18396726Y19337126D01*
X18403276Y19332100D01*
X18403279Y19332097D01*
X18493182Y19263112D01*
X18512557Y19248245D01*
X18647446Y19192372D01*
X18792200Y19173315D01*
X18800388Y19174393D01*
X18928766Y19191294D01*
X18936954Y19192372D01*
X19071843Y19248245D01*
X19091218Y19263112D01*
X19181121Y19332097D01*
X19181124Y19332100D01*
X19187674Y19337126D01*
X19276555Y19452958D01*
X19289101Y19483245D01*
X19322584Y19564081D01*
X19332428Y19587846D01*
X19334749Y19605472D01*
X19350407Y19724412D01*
X19351485Y19732600D01*
X19348302Y19756777D01*
X19333506Y19869168D01*
X19333505Y19869170D01*
X19332428Y19877354D01*
X19305762Y19941730D01*
X19279715Y20004614D01*
X19279714Y20004616D01*
X19276555Y20012242D01*
X19213441Y20094494D01*
X19192701Y20121523D01*
X19192700Y20121524D01*
X19187674Y20128074D01*
X19181124Y20133100D01*
X19181121Y20133103D01*
X19078396Y20211927D01*
X19078394Y20211928D01*
X19071843Y20216955D01*
X18936954Y20272828D01*
X18792200Y20291885D01*
X18768455Y20288759D01*
X18655632Y20273906D01*
X18655630Y20273905D01*
X18647446Y20272828D01*
X18632352Y20266576D01*
X18561763Y20258985D01*
X18498276Y20290763D01*
X18462047Y20351820D01*
X18460155Y20383554D01*
X18458207Y20383554D01*
X18458207Y20391812D01*
X18459285Y20400000D01*
X18441746Y20533226D01*
X18441306Y20536568D01*
X18441305Y20536570D01*
X18440228Y20544754D01*
X18392532Y20659901D01*
X18387515Y20672014D01*
X18387514Y20672016D01*
X18384355Y20679642D01*
X18317234Y20767116D01*
X18300501Y20788923D01*
X18300500Y20788924D01*
X18295474Y20795474D01*
X18288924Y20800500D01*
X18288921Y20800503D01*
X18186196Y20879327D01*
X18186194Y20879328D01*
X18179643Y20884355D01*
X18044754Y20940228D01*
X17900000Y20959285D01*
X17891812Y20958207D01*
X17763432Y20941306D01*
X17763430Y20941305D01*
X17755246Y20940228D01*
X17707430Y20920422D01*
X17627986Y20887515D01*
X17627984Y20887514D01*
X17620358Y20884355D01*
X17504526Y20795474D01*
X17499503Y20788928D01*
X17489738Y20776202D01*
X17415645Y20679642D01*
X17412486Y20672016D01*
X17412485Y20672014D01*
X17407468Y20659901D01*
X17359772Y20544754D01*
X17358695Y20536570D01*
X17358694Y20536568D01*
X17358254Y20533226D01*
X17340715Y20400000D01*
X17341793Y20391812D01*
X17356215Y20282268D01*
X17359772Y20255246D01*
X17362932Y20247617D01*
X17369438Y20231909D01*
X17377027Y20161319D01*
X17345247Y20097832D01*
X17284189Y20061605D01*
X17236584Y20058769D01*
X17132400Y20072485D01*
X17124212Y20071407D01*
X16995832Y20054506D01*
X16995830Y20054505D01*
X16987646Y20053428D01*
X16939830Y20033622D01*
X16860386Y20000715D01*
X16860384Y20000714D01*
X16852758Y19997555D01*
X16736926Y19908674D01*
X16731903Y19902128D01*
X16727993Y19897032D01*
X16648045Y19792842D01*
X16644886Y19785216D01*
X16644885Y19785214D01*
X16626483Y19740788D01*
X16592172Y19657954D01*
X16591095Y19649770D01*
X16591094Y19649768D01*
X16579264Y19559905D01*
X16573115Y19513200D01*
X15354184Y19513200D01*
X15375095Y19545002D01*
X15379531Y19548791D01*
X15379535Y19548795D01*
X15385314Y19553731D01*
X15477755Y19682376D01*
X15536842Y19829359D01*
X15552834Y19941730D01*
X15558581Y19982109D01*
X15558581Y19982112D01*
X15559162Y19986193D01*
X15559307Y20000000D01*
X15540276Y20157267D01*
X15484280Y20305454D01*
X15410609Y20412647D01*
X15398855Y20429749D01*
X15398854Y20429751D01*
X15394553Y20436008D01*
X15388883Y20441060D01*
X15388881Y20441062D01*
X15373109Y20455114D01*
X15335552Y20515364D01*
X15336531Y20586354D01*
X15375095Y20645002D01*
X15379531Y20648791D01*
X15379535Y20648795D01*
X15385314Y20653731D01*
X15477755Y20782376D01*
X15536842Y20929359D01*
X15555498Y21060444D01*
X15558581Y21082109D01*
X15558581Y21082112D01*
X15559162Y21086193D01*
X15559231Y21092735D01*
X15559264Y21095866D01*
X15559264Y21095872D01*
X15559307Y21100000D01*
X15540276Y21257267D01*
X15484280Y21405454D01*
X15402627Y21524260D01*
X15398855Y21529749D01*
X15398854Y21529751D01*
X15394553Y21536008D01*
X15387918Y21541920D01*
X15337321Y21586999D01*
X15276275Y21641389D01*
X15268889Y21645300D01*
X15176344Y21694300D01*
X15136274Y21715516D01*
X14982633Y21754108D01*
X14975034Y21754148D01*
X14975033Y21754148D01*
X14909181Y21754493D01*
X14824221Y21754938D01*
X14816841Y21753166D01*
X14816839Y21753166D01*
X14677563Y21719729D01*
X14677560Y21719728D01*
X14670184Y21717957D01*
X14529414Y21645300D01*
X14410039Y21541162D01*
X14405672Y21534949D01*
X14405668Y21534944D01*
X14403542Y21531919D01*
X14401430Y21530237D01*
X14400589Y21529303D01*
X14400433Y21529443D01*
X14348007Y21487689D01*
X14277375Y21480504D01*
X14214071Y21512647D01*
X14204115Y21524260D01*
X14203878Y21524051D01*
X14198855Y21529749D01*
X14194553Y21536008D01*
X14187918Y21541920D01*
X14137321Y21586999D01*
X14076275Y21641389D01*
X14068889Y21645300D01*
X13976344Y21694300D01*
X13936274Y21715516D01*
X13782633Y21754108D01*
X13775034Y21754148D01*
X13775033Y21754148D01*
X13709181Y21754493D01*
X13624221Y21754938D01*
X13616841Y21753166D01*
X13616839Y21753166D01*
X13477563Y21719729D01*
X13477560Y21719728D01*
X13470184Y21717957D01*
X13329414Y21645300D01*
X13323695Y21640311D01*
X13282999Y21604810D01*
X13218516Y21575103D01*
X13148209Y21584973D01*
X13116352Y21605683D01*
X13081951Y21636333D01*
X13081945Y21636337D01*
X13076275Y21641389D01*
X13068889Y21645300D01*
X12976344Y21694300D01*
X12936274Y21715516D01*
X12782633Y21754108D01*
X12775034Y21754148D01*
X12775033Y21754148D01*
X12709181Y21754493D01*
X12624221Y21754938D01*
X12616841Y21753166D01*
X12616839Y21753166D01*
X12477563Y21719729D01*
X12477560Y21719728D01*
X12470184Y21717957D01*
X12329414Y21645300D01*
X12210039Y21541162D01*
X12118950Y21411556D01*
X12106301Y21379112D01*
X12071720Y21290416D01*
X12061406Y21263963D01*
X12060414Y21256430D01*
X12060414Y21256429D01*
X12041896Y21115765D01*
X12040729Y21106904D01*
X12046121Y21058065D01*
X12057146Y20958207D01*
X12058113Y20949447D01*
X12060723Y20942316D01*
X12060723Y20942314D01*
X12096425Y20844754D01*
X12112553Y20800681D01*
X12116789Y20794378D01*
X12116789Y20794377D01*
X12194827Y20678245D01*
X12200908Y20669195D01*
X12206527Y20664082D01*
X12206528Y20664081D01*
X12228723Y20643885D01*
X12265645Y20583245D01*
X12263922Y20512269D01*
X12226754Y20455744D01*
X12215763Y20446156D01*
X12215760Y20446153D01*
X12210039Y20441162D01*
X12118950Y20311556D01*
X12096996Y20255246D01*
X12075365Y20199765D01*
X12061406Y20163963D01*
X12060414Y20156430D01*
X12060414Y20156429D01*
X12042222Y20018243D01*
X12040729Y20006904D01*
X12047924Y19941732D01*
X12056283Y19866025D01*
X12058113Y19849447D01*
X12060723Y19842316D01*
X12060723Y19842314D01*
X12103869Y19724412D01*
X12112553Y19700681D01*
X12116789Y19694378D01*
X12116789Y19694377D01*
X12195864Y19576702D01*
X12200908Y19569195D01*
X12206527Y19564082D01*
X12206528Y19564081D01*
X12228723Y19543885D01*
X12265645Y19483245D01*
X12263922Y19412269D01*
X12226754Y19355744D01*
X12215763Y19346156D01*
X12215760Y19346153D01*
X12210039Y19341162D01*
X12205672Y19334949D01*
X12205667Y19334943D01*
X12121903Y19215760D01*
X12066369Y19171528D01*
X11995737Y19164343D01*
X11929722Y19199116D01*
X11076912Y20051926D01*
X11042886Y20114238D01*
X11040215Y20139089D01*
X11041085Y20145700D01*
X11031050Y20221923D01*
X11023106Y20282268D01*
X11023105Y20282270D01*
X11022028Y20290454D01*
X10996609Y20351820D01*
X10969315Y20417714D01*
X10969314Y20417716D01*
X10966155Y20425342D01*
X10877274Y20541174D01*
X10870724Y20546200D01*
X10870721Y20546203D01*
X10767996Y20625027D01*
X10767994Y20625028D01*
X10761443Y20630055D01*
X10626554Y20685928D01*
X10598705Y20689594D01*
X10554076Y20695470D01*
X10489148Y20724193D01*
X10450057Y20783458D01*
X10445600Y20803947D01*
X10441306Y20836568D01*
X10441305Y20836570D01*
X10440228Y20844754D01*
X10401990Y20937068D01*
X10387515Y20972014D01*
X10387514Y20972016D01*
X10384355Y20979642D01*
X10324179Y21058065D01*
X10300501Y21088923D01*
X10300500Y21088924D01*
X10295474Y21095474D01*
X10288924Y21100500D01*
X10288921Y21100503D01*
X10186196Y21179327D01*
X10186194Y21179328D01*
X10179643Y21184355D01*
X10044754Y21240228D01*
X9920356Y21256605D01*
X9855429Y21285327D01*
X9847707Y21292432D01*
X8409138Y22731000D01*
X9727015Y22731000D01*
X9729554Y22711712D01*
X9744749Y22596298D01*
X9746072Y22586246D01*
X9801945Y22451358D01*
X9845142Y22395063D01*
X9869184Y22363731D01*
X9890826Y22335526D01*
X9897376Y22330500D01*
X9897379Y22330497D01*
X10000104Y22251673D01*
X10006657Y22246645D01*
X10141546Y22190772D01*
X10149734Y22189694D01*
X10213923Y22181243D01*
X10286300Y22171715D01*
X10294488Y22172793D01*
X10422866Y22189694D01*
X10431054Y22190772D01*
X10565943Y22246645D01*
X10572496Y22251673D01*
X10675221Y22330497D01*
X10675224Y22330500D01*
X10681774Y22335526D01*
X10703417Y22363731D01*
X10727458Y22395063D01*
X10736544Y22406904D01*
X17376729Y22406904D01*
X17385165Y22330497D01*
X17393027Y22259285D01*
X17394113Y22249447D01*
X17396723Y22242316D01*
X17396723Y22242314D01*
X17439496Y22125432D01*
X17448553Y22100681D01*
X17452789Y22094378D01*
X17452789Y22094377D01*
X17515668Y22000804D01*
X17536908Y21969195D01*
X17542527Y21964082D01*
X17542528Y21964081D01*
X17574869Y21934653D01*
X17654076Y21862581D01*
X17793293Y21786992D01*
X17946522Y21746793D01*
X18030477Y21745474D01*
X18097319Y21744424D01*
X18097322Y21744424D01*
X18104916Y21744305D01*
X18259332Y21779671D01*
X18400855Y21850849D01*
X18416653Y21864342D01*
X18481441Y21893372D01*
X18551641Y21882767D01*
X18571469Y21871238D01*
X18576459Y21867692D01*
X18582076Y21862581D01*
X18721293Y21786992D01*
X18874522Y21746793D01*
X18958477Y21745474D01*
X19025319Y21744424D01*
X19025322Y21744424D01*
X19032916Y21744305D01*
X19187332Y21779671D01*
X19293253Y21832943D01*
X19322072Y21847437D01*
X19322075Y21847439D01*
X19328855Y21850849D01*
X19334626Y21855778D01*
X19334629Y21855780D01*
X19443536Y21948796D01*
X19443536Y21948797D01*
X19449314Y21953731D01*
X19541755Y22082376D01*
X19600842Y22229359D01*
X19620190Y22365307D01*
X19622581Y22382109D01*
X19622581Y22382112D01*
X19623162Y22386193D01*
X19623307Y22400000D01*
X19621819Y22412301D01*
X19617092Y22451358D01*
X19604276Y22557267D01*
X19548280Y22705454D01*
X19501586Y22773394D01*
X19462855Y22829749D01*
X19462854Y22829751D01*
X19458553Y22836008D01*
X19340275Y22941389D01*
X19332889Y22945300D01*
X19280257Y22973167D01*
X19200274Y23015516D01*
X19046633Y23054108D01*
X19039034Y23054148D01*
X19039033Y23054148D01*
X18973181Y23054493D01*
X18888221Y23054938D01*
X18880841Y23053166D01*
X18880839Y23053166D01*
X18741563Y23019729D01*
X18741560Y23019728D01*
X18734184Y23017957D01*
X18593414Y22945300D01*
X18587697Y22940313D01*
X18587690Y22940308D01*
X18583383Y22936550D01*
X18518903Y22906839D01*
X18448595Y22916705D01*
X18424459Y22932395D01*
X18424185Y22932000D01*
X18417947Y22936336D01*
X18412275Y22941389D01*
X18404889Y22945300D01*
X18327261Y22986402D01*
X18272274Y23015516D01*
X18118633Y23054108D01*
X18111034Y23054148D01*
X18111033Y23054148D01*
X18045181Y23054493D01*
X17960221Y23054938D01*
X17952841Y23053166D01*
X17952839Y23053166D01*
X17813563Y23019729D01*
X17813560Y23019728D01*
X17806184Y23017957D01*
X17665414Y22945300D01*
X17546039Y22841162D01*
X17454950Y22711556D01*
X17452190Y22704476D01*
X17401403Y22574214D01*
X17397406Y22563963D01*
X17396414Y22556430D01*
X17396414Y22556429D01*
X17380719Y22437209D01*
X17376729Y22406904D01*
X10736544Y22406904D01*
X10770655Y22451358D01*
X10826528Y22586246D01*
X10827852Y22596298D01*
X10843046Y22711712D01*
X10845585Y22731000D01*
X10831900Y22834948D01*
X10827606Y22867568D01*
X10827605Y22867570D01*
X10826528Y22875754D01*
X10782601Y22981803D01*
X10773815Y23003014D01*
X10773814Y23003016D01*
X10770655Y23010642D01*
X10723401Y23072224D01*
X10686801Y23119923D01*
X10686800Y23119924D01*
X10681774Y23126474D01*
X10675224Y23131500D01*
X10675221Y23131503D01*
X10572496Y23210327D01*
X10572494Y23210328D01*
X10565943Y23215355D01*
X10431054Y23271228D01*
X10286300Y23290285D01*
X10278112Y23289207D01*
X10149732Y23272306D01*
X10149730Y23272305D01*
X10141546Y23271228D01*
X10093730Y23251422D01*
X10014286Y23218515D01*
X10014284Y23218514D01*
X10006658Y23215355D01*
X9890826Y23126474D01*
X9801945Y23010642D01*
X9798786Y23003016D01*
X9798785Y23003014D01*
X9789999Y22981803D01*
X9746072Y22875754D01*
X9744995Y22867570D01*
X9744994Y22867568D01*
X9740700Y22834948D01*
X9727015Y22731000D01*
X8409138Y22731000D01*
X8204918Y22935220D01*
X8192413Y22950702D01*
X8189477Y22953929D01*
X8183825Y22962682D01*
X8159562Y22981809D01*
X8155567Y22985359D01*
X8155483Y22985260D01*
X8151520Y22988618D01*
X8147844Y22992294D01*
X8143614Y22995317D01*
X8133348Y23002654D01*
X8128605Y23006215D01*
X8099325Y23029297D01*
X8099321Y23029299D01*
X8091143Y23035746D01*
X8083075Y23038579D01*
X8076115Y23043553D01*
X8040686Y23054148D01*
X8030414Y23057220D01*
X8024765Y23059056D01*
X7987269Y23072224D01*
X7987270Y23072224D01*
X7979792Y23074850D01*
X7974596Y23075300D01*
X7971891Y23075300D01*
X7969635Y23075397D01*
X7969159Y23075540D01*
X7969161Y23075586D01*
X7968962Y23075599D01*
X7963045Y23077368D01*
X7913411Y23075418D01*
X7912876Y23075397D01*
X7907930Y23075300D01*
X5373128Y23075300D01*
X5305007Y23095302D01*
X5284033Y23112205D01*
X5081538Y23314700D01*
X14241815Y23314700D01*
X14242893Y23306512D01*
X14255744Y23208900D01*
X14260872Y23169946D01*
X14264031Y23162320D01*
X14313576Y23042709D01*
X14316745Y23035058D01*
X14347239Y22995317D01*
X14386075Y22944706D01*
X14405626Y22919226D01*
X14412176Y22914200D01*
X14412179Y22914197D01*
X14514904Y22835373D01*
X14521457Y22830345D01*
X14656346Y22774472D01*
X14801100Y22755415D01*
X14809288Y22756493D01*
X14937666Y22773394D01*
X14945854Y22774472D01*
X15080743Y22830345D01*
X15087296Y22835373D01*
X15190021Y22914197D01*
X15190024Y22914200D01*
X15196574Y22919226D01*
X15216126Y22944706D01*
X15254961Y22995317D01*
X15285455Y23035058D01*
X15288625Y23042709D01*
X15338169Y23162320D01*
X15341328Y23169946D01*
X15346457Y23208900D01*
X15359307Y23306512D01*
X15360385Y23314700D01*
X15351926Y23378955D01*
X15342406Y23451268D01*
X15342405Y23451270D01*
X15341328Y23459454D01*
X15314353Y23524577D01*
X15288615Y23586714D01*
X15288614Y23586716D01*
X15285455Y23594342D01*
X15236018Y23658770D01*
X15201601Y23703623D01*
X15201600Y23703624D01*
X15196574Y23710174D01*
X15190024Y23715200D01*
X15190021Y23715203D01*
X15087296Y23794027D01*
X15087294Y23794028D01*
X15080743Y23799055D01*
X14945854Y23854928D01*
X14908050Y23859905D01*
X14809288Y23872907D01*
X14801100Y23873985D01*
X14792912Y23872907D01*
X14664532Y23856006D01*
X14664530Y23856005D01*
X14656346Y23854928D01*
X14635794Y23846415D01*
X14529086Y23802215D01*
X14529084Y23802214D01*
X14521458Y23799055D01*
X14405626Y23710174D01*
X14316745Y23594342D01*
X14313586Y23586716D01*
X14313585Y23586714D01*
X14287847Y23524577D01*
X14260872Y23459454D01*
X14259795Y23451270D01*
X14259794Y23451268D01*
X14250274Y23378955D01*
X14241815Y23314700D01*
X5081538Y23314700D01*
X4296238Y24100000D01*
X8540715Y24100000D01*
X8541793Y24091812D01*
X8557931Y23969232D01*
X8559772Y23955246D01*
X8562931Y23947620D01*
X8611982Y23829202D01*
X8615645Y23820358D01*
X8704526Y23704526D01*
X8711076Y23699500D01*
X8711079Y23699497D01*
X8813804Y23620673D01*
X8820357Y23615645D01*
X8955246Y23559772D01*
X8963434Y23558694D01*
X9024687Y23550630D01*
X9100000Y23540715D01*
X9108188Y23541793D01*
X9236566Y23558694D01*
X9244754Y23559772D01*
X9379643Y23615645D01*
X9386196Y23620673D01*
X9488921Y23699497D01*
X9488924Y23699500D01*
X9495474Y23704526D01*
X9584355Y23820358D01*
X9588019Y23829202D01*
X9637069Y23947620D01*
X9640228Y23955246D01*
X9642070Y23969232D01*
X9658207Y24091812D01*
X9659285Y24100000D01*
X9650334Y24167994D01*
X9641306Y24236568D01*
X9641305Y24236570D01*
X9640228Y24244754D01*
X9614484Y24306904D01*
X10740729Y24306904D01*
X10746686Y24252948D01*
X10755778Y24170600D01*
X10758113Y24149447D01*
X10760723Y24142316D01*
X10760723Y24142314D01*
X10807750Y24013807D01*
X10812553Y24000681D01*
X10816789Y23994378D01*
X10816789Y23994377D01*
X10877167Y23904526D01*
X10900908Y23869195D01*
X10906527Y23864082D01*
X10906528Y23864081D01*
X10977210Y23799766D01*
X11018076Y23762581D01*
X11157293Y23686992D01*
X11310522Y23646793D01*
X11394477Y23645474D01*
X11461319Y23644424D01*
X11461322Y23644424D01*
X11468916Y23644305D01*
X11623332Y23679671D01*
X11695100Y23715766D01*
X11758072Y23747437D01*
X11758075Y23747439D01*
X11764855Y23750849D01*
X11770626Y23755778D01*
X11770629Y23755780D01*
X11879536Y23848796D01*
X11879536Y23848797D01*
X11885314Y23853731D01*
X11977755Y23982376D01*
X12036842Y24129359D01*
X12055757Y24262264D01*
X12058581Y24282109D01*
X12058581Y24282112D01*
X12059162Y24286193D01*
X12059307Y24300000D01*
X12040276Y24457267D01*
X11984280Y24605454D01*
X11947283Y24659285D01*
X11898855Y24729749D01*
X11898854Y24729751D01*
X11894553Y24736008D01*
X11776275Y24841389D01*
X11768889Y24845300D01*
X11730565Y24865591D01*
X11636274Y24915516D01*
X11482633Y24954108D01*
X11475034Y24954148D01*
X11475033Y24954148D01*
X11409181Y24954493D01*
X11324221Y24954938D01*
X11316841Y24953166D01*
X11316839Y24953166D01*
X11177563Y24919729D01*
X11177560Y24919728D01*
X11170184Y24917957D01*
X11029414Y24845300D01*
X10910039Y24741162D01*
X10818950Y24611556D01*
X10803549Y24572054D01*
X10773692Y24495474D01*
X10761406Y24463963D01*
X10760414Y24456430D01*
X10760414Y24456429D01*
X10744234Y24333526D01*
X10740729Y24306904D01*
X9614484Y24306904D01*
X9584355Y24379642D01*
X9495474Y24495474D01*
X9488924Y24500500D01*
X9488921Y24500503D01*
X9386196Y24579327D01*
X9386194Y24579328D01*
X9379643Y24584355D01*
X9244754Y24640228D01*
X9100000Y24659285D01*
X9091812Y24658207D01*
X8963432Y24641306D01*
X8963430Y24641305D01*
X8955246Y24640228D01*
X8907430Y24620422D01*
X8827986Y24587515D01*
X8827984Y24587514D01*
X8820358Y24584355D01*
X8704526Y24495474D01*
X8615645Y24379642D01*
X8559772Y24244754D01*
X8558695Y24236570D01*
X8558694Y24236568D01*
X8549666Y24167994D01*
X8540715Y24100000D01*
X4296238Y24100000D01*
X4062712Y24333526D01*
X4028686Y24395838D01*
X4026015Y24420689D01*
X4026885Y24427300D01*
X4022005Y24464369D01*
X4008906Y24563868D01*
X4008905Y24563870D01*
X4007828Y24572054D01*
X3951955Y24706942D01*
X3953423Y24707550D01*
X3939135Y24761546D01*
X3939340Y24794289D01*
X3959769Y24862283D01*
X4013714Y24908439D01*
X4065338Y24919500D01*
X5235882Y24919501D01*
X5263566Y24919501D01*
X5299318Y24926612D01*
X5325626Y24931844D01*
X5325628Y24931845D01*
X5337801Y24934266D01*
X5348121Y24941161D01*
X5348122Y24941162D01*
X5411668Y24983623D01*
X5421984Y24990516D01*
X5432934Y25006904D01*
X14040729Y25006904D01*
X14046762Y24952257D01*
X14056696Y24862283D01*
X14058113Y24849447D01*
X14060723Y24842316D01*
X14060723Y24842314D01*
X14105852Y24718993D01*
X14112553Y24700681D01*
X14116789Y24694378D01*
X14116789Y24694377D01*
X14194100Y24579327D01*
X14200908Y24569195D01*
X14206527Y24564082D01*
X14206528Y24564081D01*
X14281927Y24495474D01*
X14318076Y24462581D01*
X14457293Y24386992D01*
X14610522Y24346793D01*
X14694477Y24345474D01*
X14761319Y24344424D01*
X14761322Y24344424D01*
X14768916Y24344305D01*
X14923332Y24379671D01*
X14993742Y24415083D01*
X15058072Y24447437D01*
X15058075Y24447439D01*
X15064855Y24450849D01*
X15070626Y24455778D01*
X15070629Y24455780D01*
X15179536Y24548796D01*
X15179536Y24548797D01*
X15185314Y24553731D01*
X15277755Y24682376D01*
X15336842Y24829359D01*
X15351772Y24934266D01*
X15358581Y24982109D01*
X15358581Y24982112D01*
X15359162Y24986193D01*
X15359307Y25000000D01*
X15340276Y25157267D01*
X15284280Y25305454D01*
X15194553Y25436008D01*
X15076275Y25541389D01*
X15068889Y25545300D01*
X14942988Y25611961D01*
X14942989Y25611961D01*
X14936274Y25615516D01*
X14782633Y25654108D01*
X14775034Y25654148D01*
X14775033Y25654148D01*
X14709181Y25654493D01*
X14624221Y25654938D01*
X14616841Y25653166D01*
X14616839Y25653166D01*
X14477563Y25619729D01*
X14477560Y25619728D01*
X14470184Y25617957D01*
X14329414Y25545300D01*
X14210039Y25441162D01*
X14118950Y25311556D01*
X14113802Y25298351D01*
X14066546Y25177146D01*
X14061406Y25163963D01*
X14060414Y25156430D01*
X14060414Y25156429D01*
X14048003Y25062154D01*
X14040729Y25006904D01*
X5432934Y25006904D01*
X5478234Y25074699D01*
X5493000Y25148933D01*
X5492999Y26899066D01*
X5482797Y26950359D01*
X5480656Y26961126D01*
X5480655Y26961128D01*
X5478234Y26973301D01*
X5460956Y26999160D01*
X5428877Y27047168D01*
X5421984Y27057484D01*
X5337801Y27113734D01*
X5263567Y27128500D01*
X5244685Y27128500D01*
X4080717Y27128499D01*
X4012597Y27148501D01*
X3966104Y27202157D01*
X3954721Y27255285D01*
X3955454Y27372577D01*
X3975882Y27440572D01*
X4029828Y27486728D01*
X4100164Y27496392D01*
X4109260Y27494682D01*
X4238079Y27465533D01*
X4238084Y27465532D01*
X4243716Y27464258D01*
X4249487Y27464031D01*
X4249489Y27464031D01*
X4309256Y27461683D01*
X4446553Y27456288D01*
X4546999Y27470852D01*
X4641731Y27484587D01*
X4641736Y27484588D01*
X4647445Y27485416D01*
X4652909Y27487271D01*
X4652914Y27487272D01*
X4834197Y27548810D01*
X4839665Y27550666D01*
X4966836Y27621885D01*
X5028402Y27637950D01*
X5593421Y27637950D01*
X5661542Y27617948D01*
X5682516Y27601045D01*
X6897984Y26385577D01*
X6910492Y26370091D01*
X6913426Y26366866D01*
X6919075Y26358118D01*
X6927252Y26351672D01*
X6943330Y26338997D01*
X6947333Y26335439D01*
X6947418Y26335539D01*
X6951375Y26332186D01*
X6955056Y26328505D01*
X6959288Y26325481D01*
X6959290Y26325479D01*
X6969565Y26318136D01*
X6974309Y26314574D01*
X7003575Y26291503D01*
X7003579Y26291501D01*
X7011757Y26285054D01*
X7019825Y26282221D01*
X7026785Y26277247D01*
X7036763Y26274263D01*
X7072486Y26263580D01*
X7078135Y26261744D01*
X7123108Y26245950D01*
X7128304Y26245500D01*
X7131009Y26245500D01*
X7133265Y26245403D01*
X7133741Y26245260D01*
X7133739Y26245214D01*
X7133938Y26245201D01*
X7139855Y26243432D01*
X7190024Y26245403D01*
X7194970Y26245500D01*
X14800971Y26245500D01*
X14869092Y26225498D01*
X14890066Y26208595D01*
X16108595Y24990066D01*
X16142621Y24927754D01*
X16145500Y24900971D01*
X16145500Y24787114D01*
X16125498Y24718993D01*
X16109813Y24699530D01*
X16104526Y24695474D01*
X16099503Y24688928D01*
X16099502Y24688927D01*
X16055150Y24631126D01*
X16015645Y24579642D01*
X16012486Y24572016D01*
X16012485Y24572014D01*
X16004912Y24553731D01*
X15959772Y24444754D01*
X15958695Y24436570D01*
X15958694Y24436568D01*
X15950733Y24376094D01*
X15940715Y24300000D01*
X15941793Y24291812D01*
X15958094Y24167994D01*
X15959772Y24155246D01*
X16015645Y24020358D01*
X16020672Y24013807D01*
X16089595Y23923985D01*
X16104526Y23904526D01*
X16111076Y23899500D01*
X16111079Y23899497D01*
X16198154Y23832682D01*
X16220357Y23815645D01*
X16355246Y23759772D01*
X16363434Y23758694D01*
X16423024Y23750849D01*
X16500000Y23740715D01*
X16508188Y23741793D01*
X16636566Y23758694D01*
X16644754Y23759772D01*
X16779643Y23815645D01*
X16801846Y23832682D01*
X16888921Y23899497D01*
X16888924Y23899500D01*
X16895474Y23904526D01*
X16910406Y23923985D01*
X16979328Y24013807D01*
X16984355Y24020358D01*
X17040228Y24155246D01*
X17041907Y24167994D01*
X17058207Y24291812D01*
X17059285Y24300000D01*
X17049267Y24376094D01*
X17041306Y24436568D01*
X17041305Y24436570D01*
X17040228Y24444754D01*
X16995088Y24553731D01*
X16987515Y24572014D01*
X16987514Y24572016D01*
X16984355Y24579642D01*
X16910262Y24676202D01*
X16900497Y24688928D01*
X16895474Y24695474D01*
X16890863Y24699012D01*
X16857379Y24760332D01*
X16854500Y24787115D01*
X16854500Y25048743D01*
X16856606Y25068537D01*
X16856811Y25072890D01*
X16859003Y25083070D01*
X16855373Y25113740D01*
X16855058Y25119083D01*
X16854928Y25119072D01*
X16854500Y25124252D01*
X16854500Y25129451D01*
X16853647Y25134575D01*
X16853646Y25134588D01*
X16851573Y25147041D01*
X16850736Y25152916D01*
X16846355Y25189929D01*
X16845131Y25200270D01*
X16841430Y25207978D01*
X16840025Y25216417D01*
X16817382Y25258381D01*
X16814686Y25263672D01*
X16797477Y25299510D01*
X16797475Y25299514D01*
X16794044Y25306658D01*
X16790689Y25310650D01*
X16788762Y25312577D01*
X16787250Y25314226D01*
X16787015Y25314661D01*
X16787050Y25314693D01*
X16786915Y25314846D01*
X16783983Y25320280D01*
X16747119Y25354357D01*
X16743553Y25357786D01*
X15286918Y26814420D01*
X15274413Y26829902D01*
X15271477Y26833129D01*
X15265825Y26841882D01*
X15241562Y26861009D01*
X15237567Y26864559D01*
X15237483Y26864460D01*
X15233520Y26867818D01*
X15229844Y26871494D01*
X15225524Y26874581D01*
X15215348Y26881854D01*
X15210605Y26885415D01*
X15181325Y26908497D01*
X15181321Y26908499D01*
X15173143Y26914946D01*
X15165075Y26917779D01*
X15158115Y26922753D01*
X15112414Y26936420D01*
X15106765Y26938256D01*
X15069269Y26951424D01*
X15069270Y26951424D01*
X15061792Y26954050D01*
X15056596Y26954500D01*
X15053891Y26954500D01*
X15051635Y26954597D01*
X15051159Y26954740D01*
X15051161Y26954786D01*
X15050962Y26954799D01*
X15045045Y26956568D01*
X14995411Y26954618D01*
X14994876Y26954597D01*
X14989930Y26954500D01*
X7940817Y26954500D01*
X7872696Y26974502D01*
X7826203Y27028158D01*
X7816099Y27098432D01*
X7845593Y27163012D01*
X7864105Y27180456D01*
X7895474Y27204526D01*
X7984355Y27320358D01*
X7990699Y27335672D01*
X8037069Y27447620D01*
X8040228Y27455246D01*
X8041415Y27464258D01*
X8058207Y27591812D01*
X8059285Y27600000D01*
X8052871Y27648721D01*
X8041306Y27736568D01*
X8041305Y27736570D01*
X8040228Y27744754D01*
X7995088Y27853731D01*
X7987515Y27872014D01*
X7987514Y27872016D01*
X7984355Y27879642D01*
X7910262Y27976202D01*
X7900501Y27988923D01*
X7900500Y27988924D01*
X7895474Y27995474D01*
X7888924Y28000500D01*
X7888921Y28000503D01*
X7786196Y28079327D01*
X7786194Y28079328D01*
X7779643Y28084355D01*
X7652825Y28136885D01*
X7652383Y28137068D01*
X7644754Y28140228D01*
X7500000Y28159285D01*
X7491812Y28158207D01*
X7363432Y28141306D01*
X7363430Y28141305D01*
X7355246Y28140228D01*
X7307430Y28120422D01*
X7227986Y28087515D01*
X7227984Y28087514D01*
X7220358Y28084355D01*
X7104526Y27995474D01*
X7099503Y27988928D01*
X7089738Y27976202D01*
X7015645Y27879642D01*
X7012486Y27872016D01*
X7012485Y27872014D01*
X7004912Y27853731D01*
X6959772Y27744754D01*
X6958695Y27736570D01*
X6958694Y27736568D01*
X6951914Y27685066D01*
X6946564Y27644424D01*
X6944460Y27628445D01*
X6915738Y27563518D01*
X6856473Y27524426D01*
X6785481Y27523581D01*
X6730444Y27555794D01*
X6079364Y28206874D01*
X6066862Y28222354D01*
X6063925Y28225581D01*
X6058275Y28234332D01*
X6034012Y28253459D01*
X6030017Y28257009D01*
X6029933Y28256910D01*
X6025969Y28260269D01*
X6022294Y28263944D01*
X6011739Y28271487D01*
X5967946Y28327368D01*
X5961316Y28398054D01*
X5993955Y28461103D01*
X6055500Y28496498D01*
X6084999Y28500000D01*
X11422475Y28500000D01*
X11490596Y28479998D01*
G37*
G04 #@! TD.AperFunction*
M02*
